M48
INCH
T1C0.0390
T2C0.0394
T3C0.0600
T4C0.0310
T5C0.1570
%
G90
G05
T1
X8.8843Y-3.8213
X9.1843Y-3.8213
X8.1354Y-3.9122
X8.4354Y-3.9122
T2
X8.115Y-4.5217
X8.215Y-4.5217
X8.315Y-4.5217
X8.415Y-4.5217
T3
X8.1413Y-4.1185
X8.1913Y-4.0185
X8.3913Y-4.0185
X8.4413Y-4.1185
X8.8913Y-4.0252
X8.9413Y-3.9252
X9.1413Y-3.9252
X9.1913Y-4.0252
T5
X8.2913Y-4.2185
X9.0413Y-4.1252
T4
G00X8.6024Y-4.1594
M15
G01X8.6024Y-4.1594
M16
G05
G00X8.6024Y-4.0319
M15
G01X8.6024Y-4.0319
M16
G05
G00X8.6024Y-4.285
M15
G01X8.6024Y-4.285
M16
G05
G00X8.6024Y-4.0965
M15
G01X8.6024Y-4.0965
M16
G05
G00X8.6024Y-4.3449
M15
G01X8.6024Y-4.3449
M16
G05
G00X8.6024Y-4.4063
M15
G01X8.6024Y-4.4063
M16
G05
G00X8.6024Y-3.9697
M15
G01X8.6024Y-3.9697
M16
G05
G00X8.6024Y-4.2228
M15
G01X8.6024Y-4.2228
M16
G05
T0
M30
