G04 #@! TF.GenerationSoftware,KiCad,Pcbnew,(5.1.0)-1*
G04 #@! TF.CreationDate,2020-10-31T22:30:08+11:00*
G04 #@! TF.ProjectId,oddball,6f646462-616c-46c2-9e6b-696361645f70,rev?*
G04 #@! TF.SameCoordinates,Original*
G04 #@! TF.FileFunction,Legend,Top*
G04 #@! TF.FilePolarity,Positive*
%FSLAX46Y46*%
G04 Gerber Fmt 4.6, Leading zero omitted, Abs format (unit mm)*
G04 Created by KiCad (PCBNEW (5.1.0)-1) date 2020-10-31 22:30:08*
%MOMM*%
%LPD*%
G04 APERTURE LIST*
%ADD10C,0.150000*%
%ADD11C,0.120000*%
%ADD12C,0.203200*%
%ADD13C,0.010000*%
%ADD14C,0.381000*%
%ADD15C,0.200000*%
G04 APERTURE END LIST*
D10*
X168016000Y-60198000D02*
X168016000Y-72298000D01*
X168016000Y-60198000D02*
X161916000Y-60198000D01*
X161916000Y-60198000D02*
X161916000Y-72298000D01*
X168016000Y-72298000D02*
X161916000Y-72298000D01*
X167600000Y-84100000D02*
X167600000Y-82900000D01*
X167600000Y-91300000D02*
X167600000Y-90100000D01*
X166600000Y-89300000D02*
X166800000Y-89100000D01*
X166600000Y-89700000D02*
X166600000Y-89300000D01*
X166800000Y-89900000D02*
X166600000Y-89700000D01*
X167600000Y-90100000D02*
X166800000Y-89900000D01*
X168400000Y-89900000D02*
X167600000Y-90100000D01*
X168600000Y-89700000D02*
X168400000Y-89900000D01*
X168600000Y-89300000D02*
X168600000Y-89700000D01*
X168400000Y-89100000D02*
X168600000Y-89300000D01*
X168400000Y-85100000D02*
X168400000Y-89100000D01*
X168600000Y-84900000D02*
X168400000Y-85100000D01*
X168600000Y-84500000D02*
X168600000Y-84900000D01*
X168400000Y-84300000D02*
X168600000Y-84500000D01*
X167600000Y-84100000D02*
X168400000Y-84300000D01*
X166800000Y-84300000D02*
X167600000Y-84100000D01*
X166600000Y-84500000D02*
X166800000Y-84300000D01*
X166600000Y-84900000D02*
X166600000Y-84500000D01*
X166800000Y-85100000D02*
X166600000Y-84900000D01*
X166800000Y-89100000D02*
X166800000Y-85100000D01*
X164900000Y-90100000D02*
X164900000Y-91300000D01*
X164900000Y-82900000D02*
X164900000Y-84100000D01*
X165900000Y-84900000D02*
X165700000Y-85100000D01*
X165900000Y-84500000D02*
X165900000Y-84900000D01*
X165700000Y-84300000D02*
X165900000Y-84500000D01*
X164900000Y-84100000D02*
X165700000Y-84300000D01*
X164100000Y-84300000D02*
X164900000Y-84100000D01*
X163900000Y-84500000D02*
X164100000Y-84300000D01*
X163900000Y-84900000D02*
X163900000Y-84500000D01*
X164100000Y-85100000D02*
X163900000Y-84900000D01*
X164100000Y-89100000D02*
X164100000Y-85100000D01*
X163900000Y-89300000D02*
X164100000Y-89100000D01*
X163900000Y-89700000D02*
X163900000Y-89300000D01*
X164100000Y-89900000D02*
X163900000Y-89700000D01*
X164900000Y-90100000D02*
X164100000Y-89900000D01*
X165700000Y-89900000D02*
X164900000Y-90100000D01*
X165900000Y-89700000D02*
X165700000Y-89900000D01*
X165900000Y-89300000D02*
X165900000Y-89700000D01*
X165700000Y-89100000D02*
X165900000Y-89300000D01*
X165700000Y-85100000D02*
X165700000Y-89100000D01*
D11*
X112973903Y-68026000D02*
X112973903Y-68256000D01*
X113493903Y-64356000D02*
X105773903Y-64356000D01*
X105773903Y-64356000D02*
X105773903Y-68256000D01*
X113493903Y-64356000D02*
X113493903Y-68256000D01*
X106293903Y-68026000D02*
X106293903Y-68256000D01*
X106833903Y-68026000D02*
X106293903Y-68026000D01*
X112973903Y-68026000D02*
X112433903Y-68026000D01*
X111333903Y-68026000D02*
X107933903Y-68026000D01*
D12*
X177683000Y-77470000D02*
X178254500Y-77470000D01*
X172857000Y-77470000D02*
X172285500Y-77470000D01*
X172857000Y-78613000D02*
X177683000Y-78613000D01*
X177683000Y-76327000D02*
X172857000Y-76327000D01*
X177683000Y-78613000D02*
X177683000Y-76327000D01*
X172857000Y-76327000D02*
X172857000Y-78613000D01*
D10*
X177170000Y-78570000D02*
X177170000Y-76370000D01*
X176920000Y-76420000D02*
X176920000Y-78620000D01*
X177420000Y-78570000D02*
X177420000Y-76370000D01*
D12*
X140083000Y-91570000D02*
X140654500Y-91570000D01*
X135257000Y-91570000D02*
X134685500Y-91570000D01*
X135257000Y-92713000D02*
X140083000Y-92713000D01*
X140083000Y-90427000D02*
X135257000Y-90427000D01*
X140083000Y-92713000D02*
X140083000Y-90427000D01*
X135257000Y-90427000D02*
X135257000Y-92713000D01*
D10*
X139570000Y-92670000D02*
X139570000Y-90470000D01*
X139320000Y-90520000D02*
X139320000Y-92720000D01*
X139820000Y-92670000D02*
X139820000Y-90470000D01*
D12*
X159133000Y-93840000D02*
X159704500Y-93840000D01*
X154307000Y-93840000D02*
X153735500Y-93840000D01*
X154307000Y-94983000D02*
X159133000Y-94983000D01*
X159133000Y-92697000D02*
X154307000Y-92697000D01*
X159133000Y-94983000D02*
X159133000Y-92697000D01*
X154307000Y-92697000D02*
X154307000Y-94983000D01*
D10*
X158620000Y-94940000D02*
X158620000Y-92740000D01*
X158370000Y-92790000D02*
X158370000Y-94990000D01*
X158870000Y-94940000D02*
X158870000Y-92740000D01*
D12*
X177683000Y-96320000D02*
X178254500Y-96320000D01*
X172857000Y-96320000D02*
X172285500Y-96320000D01*
X172857000Y-97463000D02*
X177683000Y-97463000D01*
X177683000Y-95177000D02*
X172857000Y-95177000D01*
X177683000Y-97463000D02*
X177683000Y-95177000D01*
X172857000Y-95177000D02*
X172857000Y-97463000D01*
D10*
X177170000Y-97420000D02*
X177170000Y-95220000D01*
X176920000Y-95270000D02*
X176920000Y-97470000D01*
X177420000Y-97420000D02*
X177420000Y-95220000D01*
D12*
X121023000Y-93830000D02*
X121594500Y-93830000D01*
X116197000Y-93830000D02*
X115625500Y-93830000D01*
X116197000Y-94973000D02*
X121023000Y-94973000D01*
X121023000Y-92687000D02*
X116197000Y-92687000D01*
X121023000Y-94973000D02*
X121023000Y-92687000D01*
X116197000Y-92687000D02*
X116197000Y-94973000D01*
D10*
X120510000Y-94930000D02*
X120510000Y-92730000D01*
X120260000Y-92780000D02*
X120260000Y-94980000D01*
X120760000Y-94930000D02*
X120760000Y-92730000D01*
D12*
X121023000Y-74800000D02*
X121594500Y-74800000D01*
X116197000Y-74800000D02*
X115625500Y-74800000D01*
X116197000Y-75943000D02*
X121023000Y-75943000D01*
X121023000Y-73657000D02*
X116197000Y-73657000D01*
X121023000Y-75943000D02*
X121023000Y-73657000D01*
X116197000Y-73657000D02*
X116197000Y-75943000D01*
D10*
X120510000Y-75900000D02*
X120510000Y-73700000D01*
X120260000Y-73750000D02*
X120260000Y-75950000D01*
X120760000Y-75900000D02*
X120760000Y-73700000D01*
D12*
X82933000Y-98600000D02*
X83504500Y-98600000D01*
X78107000Y-98600000D02*
X77535500Y-98600000D01*
X78107000Y-99743000D02*
X82933000Y-99743000D01*
X82933000Y-97457000D02*
X78107000Y-97457000D01*
X82933000Y-99743000D02*
X82933000Y-97457000D01*
X78107000Y-97457000D02*
X78107000Y-99743000D01*
D10*
X82420000Y-99700000D02*
X82420000Y-97500000D01*
X82170000Y-97550000D02*
X82170000Y-99750000D01*
X82670000Y-99700000D02*
X82670000Y-97500000D01*
D12*
X102003000Y-98610000D02*
X102574500Y-98610000D01*
X97177000Y-98610000D02*
X96605500Y-98610000D01*
X97177000Y-99753000D02*
X102003000Y-99753000D01*
X102003000Y-97467000D02*
X97177000Y-97467000D01*
X102003000Y-99753000D02*
X102003000Y-97467000D01*
X97177000Y-97467000D02*
X97177000Y-99753000D01*
D10*
X101490000Y-99710000D02*
X101490000Y-97510000D01*
X101240000Y-97560000D02*
X101240000Y-99760000D01*
X101740000Y-99710000D02*
X101740000Y-97510000D01*
D12*
X82933000Y-79590000D02*
X83504500Y-79590000D01*
X78107000Y-79590000D02*
X77535500Y-79590000D01*
X78107000Y-80733000D02*
X82933000Y-80733000D01*
X82933000Y-78447000D02*
X78107000Y-78447000D01*
X82933000Y-80733000D02*
X82933000Y-78447000D01*
X78107000Y-78447000D02*
X78107000Y-80733000D01*
D10*
X82420000Y-80690000D02*
X82420000Y-78490000D01*
X82170000Y-78540000D02*
X82170000Y-80740000D01*
X82670000Y-80690000D02*
X82670000Y-78490000D01*
D12*
X159133000Y-74790000D02*
X159704500Y-74790000D01*
X154307000Y-74790000D02*
X153735500Y-74790000D01*
X154307000Y-75933000D02*
X159133000Y-75933000D01*
X159133000Y-73647000D02*
X154307000Y-73647000D01*
X159133000Y-75933000D02*
X159133000Y-73647000D01*
X154307000Y-73647000D02*
X154307000Y-75933000D01*
D10*
X158620000Y-75890000D02*
X158620000Y-73690000D01*
X158370000Y-73740000D02*
X158370000Y-75940000D01*
X158870000Y-75890000D02*
X158870000Y-73690000D01*
D12*
X127000000Y-70223000D02*
X127000000Y-70794500D01*
X127000000Y-65397000D02*
X127000000Y-64825500D01*
X125857000Y-65397000D02*
X125857000Y-70223000D01*
X128143000Y-70223000D02*
X128143000Y-65397000D01*
X125857000Y-70223000D02*
X128143000Y-70223000D01*
X128143000Y-65397000D02*
X125857000Y-65397000D01*
D10*
X125900000Y-69710000D02*
X128100000Y-69710000D01*
X128050000Y-69460000D02*
X125850000Y-69460000D01*
X125900000Y-69960000D02*
X128100000Y-69960000D01*
D12*
X102003000Y-79550000D02*
X102574500Y-79550000D01*
X97177000Y-79550000D02*
X96605500Y-79550000D01*
X97177000Y-80693000D02*
X102003000Y-80693000D01*
X102003000Y-78407000D02*
X97177000Y-78407000D01*
X102003000Y-80693000D02*
X102003000Y-78407000D01*
X97177000Y-78407000D02*
X97177000Y-80693000D01*
D10*
X101490000Y-80650000D02*
X101490000Y-78450000D01*
X101240000Y-78500000D02*
X101240000Y-80700000D01*
X101740000Y-80650000D02*
X101740000Y-78450000D01*
D12*
X102003000Y-101280000D02*
X102574500Y-101280000D01*
X97177000Y-101280000D02*
X96605500Y-101280000D01*
X97177000Y-102423000D02*
X102003000Y-102423000D01*
X102003000Y-100137000D02*
X97177000Y-100137000D01*
X102003000Y-102423000D02*
X102003000Y-100137000D01*
X97177000Y-100137000D02*
X97177000Y-102423000D01*
D10*
X101490000Y-102380000D02*
X101490000Y-100180000D01*
X101240000Y-100230000D02*
X101240000Y-102430000D01*
X101740000Y-102380000D02*
X101740000Y-100180000D01*
D12*
X82933000Y-101270000D02*
X83504500Y-101270000D01*
X78107000Y-101270000D02*
X77535500Y-101270000D01*
X78107000Y-102413000D02*
X82933000Y-102413000D01*
X82933000Y-100127000D02*
X78107000Y-100127000D01*
X82933000Y-102413000D02*
X82933000Y-100127000D01*
X78107000Y-100127000D02*
X78107000Y-102413000D01*
D10*
X82420000Y-102370000D02*
X82420000Y-100170000D01*
X82170000Y-100220000D02*
X82170000Y-102420000D01*
X82670000Y-102370000D02*
X82670000Y-100170000D01*
D12*
X121023000Y-96510000D02*
X121594500Y-96510000D01*
X116197000Y-96510000D02*
X115625500Y-96510000D01*
X116197000Y-97653000D02*
X121023000Y-97653000D01*
X121023000Y-95367000D02*
X116197000Y-95367000D01*
X121023000Y-97653000D02*
X121023000Y-95367000D01*
X116197000Y-95367000D02*
X116197000Y-97653000D01*
D10*
X120510000Y-97610000D02*
X120510000Y-95410000D01*
X120260000Y-95460000D02*
X120260000Y-97660000D01*
X120760000Y-97610000D02*
X120760000Y-95410000D01*
D12*
X140083000Y-94230000D02*
X140654500Y-94230000D01*
X135257000Y-94230000D02*
X134685500Y-94230000D01*
X135257000Y-95373000D02*
X140083000Y-95373000D01*
X140083000Y-93087000D02*
X135257000Y-93087000D01*
X140083000Y-95373000D02*
X140083000Y-93087000D01*
X135257000Y-93087000D02*
X135257000Y-95373000D01*
D10*
X139570000Y-95330000D02*
X139570000Y-93130000D01*
X139320000Y-93180000D02*
X139320000Y-95380000D01*
X139820000Y-95330000D02*
X139820000Y-93130000D01*
D12*
X159133000Y-96520000D02*
X159704500Y-96520000D01*
X154307000Y-96520000D02*
X153735500Y-96520000D01*
X154307000Y-97663000D02*
X159133000Y-97663000D01*
X159133000Y-95377000D02*
X154307000Y-95377000D01*
X159133000Y-97663000D02*
X159133000Y-95377000D01*
X154307000Y-95377000D02*
X154307000Y-97663000D01*
D10*
X158620000Y-97620000D02*
X158620000Y-95420000D01*
X158370000Y-95470000D02*
X158370000Y-97670000D01*
X158870000Y-97620000D02*
X158870000Y-95420000D01*
D12*
X177663000Y-98750000D02*
X178234500Y-98750000D01*
X172837000Y-98750000D02*
X172265500Y-98750000D01*
X172837000Y-99893000D02*
X177663000Y-99893000D01*
X177663000Y-97607000D02*
X172837000Y-97607000D01*
X177663000Y-99893000D02*
X177663000Y-97607000D01*
X172837000Y-97607000D02*
X172837000Y-99893000D01*
D10*
X177150000Y-99850000D02*
X177150000Y-97650000D01*
X176900000Y-97700000D02*
X176900000Y-99900000D01*
X177400000Y-99850000D02*
X177400000Y-97650000D01*
D13*
G36*
X90572749Y-108611722D02*
G01*
X90584572Y-108694768D01*
X90532778Y-108815471D01*
X90420210Y-108857726D01*
X90311088Y-108807550D01*
X90283492Y-108760325D01*
X90291951Y-108624133D01*
X90338140Y-108574713D01*
X90487008Y-108531305D01*
X90572749Y-108611722D01*
X90572749Y-108611722D01*
G37*
X90572749Y-108611722D02*
X90584572Y-108694768D01*
X90532778Y-108815471D01*
X90420210Y-108857726D01*
X90311088Y-108807550D01*
X90283492Y-108760325D01*
X90291951Y-108624133D01*
X90338140Y-108574713D01*
X90487008Y-108531305D01*
X90572749Y-108611722D01*
G36*
X89994666Y-107009863D02*
G01*
X90035316Y-107086826D01*
X89940929Y-107215520D01*
X89711377Y-107396292D01*
X89651251Y-107437374D01*
X89443867Y-107606434D01*
X89270341Y-107797328D01*
X89235032Y-107849156D01*
X89116966Y-107991633D01*
X88994230Y-108068552D01*
X88903707Y-108064397D01*
X88879143Y-107998844D01*
X88921248Y-107880146D01*
X89029795Y-107690939D01*
X89178129Y-107472071D01*
X89339599Y-107264388D01*
X89410945Y-107183857D01*
X89646759Y-107016514D01*
X89819106Y-106984286D01*
X89994666Y-107009863D01*
X89994666Y-107009863D01*
G37*
X89994666Y-107009863D02*
X90035316Y-107086826D01*
X89940929Y-107215520D01*
X89711377Y-107396292D01*
X89651251Y-107437374D01*
X89443867Y-107606434D01*
X89270341Y-107797328D01*
X89235032Y-107849156D01*
X89116966Y-107991633D01*
X88994230Y-108068552D01*
X88903707Y-108064397D01*
X88879143Y-107998844D01*
X88921248Y-107880146D01*
X89029795Y-107690939D01*
X89178129Y-107472071D01*
X89339599Y-107264388D01*
X89410945Y-107183857D01*
X89646759Y-107016514D01*
X89819106Y-106984286D01*
X89994666Y-107009863D01*
G36*
X88341001Y-107602472D02*
G01*
X88564953Y-107765470D01*
X88643286Y-107851570D01*
X88777982Y-108021239D01*
X88863363Y-108143059D01*
X88879143Y-108176834D01*
X88819940Y-108212050D01*
X88668060Y-108188968D01*
X88539173Y-108144922D01*
X88377451Y-108029697D01*
X88296892Y-107924576D01*
X88179278Y-107806198D01*
X88038148Y-107801562D01*
X87893333Y-107806870D01*
X87876546Y-107744203D01*
X87950229Y-107651943D01*
X88129247Y-107562658D01*
X88341001Y-107602472D01*
X88341001Y-107602472D01*
G37*
X88341001Y-107602472D02*
X88564953Y-107765470D01*
X88643286Y-107851570D01*
X88777982Y-108021239D01*
X88863363Y-108143059D01*
X88879143Y-108176834D01*
X88819940Y-108212050D01*
X88668060Y-108188968D01*
X88539173Y-108144922D01*
X88377451Y-108029697D01*
X88296892Y-107924576D01*
X88179278Y-107806198D01*
X88038148Y-107801562D01*
X87893333Y-107806870D01*
X87876546Y-107744203D01*
X87950229Y-107651943D01*
X88129247Y-107562658D01*
X88341001Y-107602472D01*
G36*
X88024018Y-108392292D02*
G01*
X88264241Y-108443777D01*
X88537901Y-108540040D01*
X88685605Y-108647997D01*
X88705963Y-108750348D01*
X88597583Y-108829791D01*
X88359072Y-108869026D01*
X88298572Y-108870510D01*
X88055864Y-108913792D01*
X87827746Y-109015699D01*
X87826857Y-109016286D01*
X87646078Y-109126146D01*
X87541717Y-109153845D01*
X87475927Y-109106713D01*
X87462747Y-109086830D01*
X87476528Y-108990447D01*
X87584505Y-108875857D01*
X87744856Y-108775497D01*
X87915756Y-108721807D01*
X87935714Y-108719996D01*
X88047139Y-108708173D01*
X88020020Y-108689512D01*
X87972000Y-108678471D01*
X87776776Y-108637045D01*
X87663572Y-108612935D01*
X87536008Y-108545137D01*
X87500286Y-108470618D01*
X87564733Y-108390701D01*
X87745564Y-108364373D01*
X88024018Y-108392292D01*
X88024018Y-108392292D01*
G37*
X88024018Y-108392292D02*
X88264241Y-108443777D01*
X88537901Y-108540040D01*
X88685605Y-108647997D01*
X88705963Y-108750348D01*
X88597583Y-108829791D01*
X88359072Y-108869026D01*
X88298572Y-108870510D01*
X88055864Y-108913792D01*
X87827746Y-109015699D01*
X87826857Y-109016286D01*
X87646078Y-109126146D01*
X87541717Y-109153845D01*
X87475927Y-109106713D01*
X87462747Y-109086830D01*
X87476528Y-108990447D01*
X87584505Y-108875857D01*
X87744856Y-108775497D01*
X87915756Y-108721807D01*
X87935714Y-108719996D01*
X88047139Y-108708173D01*
X88020020Y-108689512D01*
X87972000Y-108678471D01*
X87776776Y-108637045D01*
X87663572Y-108612935D01*
X87536008Y-108545137D01*
X87500286Y-108470618D01*
X87564733Y-108390701D01*
X87745564Y-108364373D01*
X88024018Y-108392292D01*
G36*
X90818963Y-107510991D02*
G01*
X91148846Y-107672983D01*
X91384756Y-107943990D01*
X91523956Y-108320997D01*
X91564286Y-108744951D01*
X91554973Y-109027837D01*
X91518278Y-109217325D01*
X91441068Y-109364460D01*
X91387156Y-109433371D01*
X91139105Y-109628248D01*
X90806154Y-109757265D01*
X90436229Y-109813072D01*
X90077256Y-109788319D01*
X89783180Y-109679369D01*
X89486961Y-109416150D01*
X89294823Y-109059476D01*
X89281017Y-109016286D01*
X89179802Y-108827144D01*
X89075920Y-108715725D01*
X89006437Y-108653679D01*
X89002012Y-108640259D01*
X89470857Y-108640259D01*
X89493380Y-108782686D01*
X89563306Y-108976312D01*
X89753292Y-109299467D01*
X90020742Y-109508260D01*
X90344723Y-109595028D01*
X90704303Y-109552106D01*
X90911060Y-109469745D01*
X91154589Y-109299746D01*
X91284019Y-109077652D01*
X91308361Y-108780196D01*
X91272394Y-108536836D01*
X91142399Y-108137042D01*
X90945959Y-107858385D01*
X90687743Y-107705971D01*
X90486254Y-107677013D01*
X90160389Y-107736999D01*
X89883520Y-107922418D01*
X89644193Y-108241459D01*
X89609386Y-108304024D01*
X89508008Y-108502842D01*
X89470857Y-108640259D01*
X89002012Y-108640259D01*
X88986021Y-108591772D01*
X89026922Y-108502962D01*
X89141394Y-108360208D01*
X89335037Y-108143816D01*
X89604711Y-107854712D01*
X89812656Y-107660508D01*
X89987706Y-107542679D01*
X90158693Y-107482701D01*
X90354453Y-107462051D01*
X90397849Y-107461029D01*
X90818963Y-107510991D01*
X90818963Y-107510991D01*
G37*
X90818963Y-107510991D02*
X91148846Y-107672983D01*
X91384756Y-107943990D01*
X91523956Y-108320997D01*
X91564286Y-108744951D01*
X91554973Y-109027837D01*
X91518278Y-109217325D01*
X91441068Y-109364460D01*
X91387156Y-109433371D01*
X91139105Y-109628248D01*
X90806154Y-109757265D01*
X90436229Y-109813072D01*
X90077256Y-109788319D01*
X89783180Y-109679369D01*
X89486961Y-109416150D01*
X89294823Y-109059476D01*
X89281017Y-109016286D01*
X89179802Y-108827144D01*
X89075920Y-108715725D01*
X89006437Y-108653679D01*
X89002012Y-108640259D01*
X89470857Y-108640259D01*
X89493380Y-108782686D01*
X89563306Y-108976312D01*
X89753292Y-109299467D01*
X90020742Y-109508260D01*
X90344723Y-109595028D01*
X90704303Y-109552106D01*
X90911060Y-109469745D01*
X91154589Y-109299746D01*
X91284019Y-109077652D01*
X91308361Y-108780196D01*
X91272394Y-108536836D01*
X91142399Y-108137042D01*
X90945959Y-107858385D01*
X90687743Y-107705971D01*
X90486254Y-107677013D01*
X90160389Y-107736999D01*
X89883520Y-107922418D01*
X89644193Y-108241459D01*
X89609386Y-108304024D01*
X89508008Y-108502842D01*
X89470857Y-108640259D01*
X89002012Y-108640259D01*
X88986021Y-108591772D01*
X89026922Y-108502962D01*
X89141394Y-108360208D01*
X89335037Y-108143816D01*
X89604711Y-107854712D01*
X89812656Y-107660508D01*
X89987706Y-107542679D01*
X90158693Y-107482701D01*
X90354453Y-107462051D01*
X90397849Y-107461029D01*
X90818963Y-107510991D01*
G36*
X87482567Y-109745205D02*
G01*
X87633208Y-109780006D01*
X87842375Y-109807055D01*
X88126646Y-109827147D01*
X88502597Y-109841077D01*
X88986805Y-109849639D01*
X89595847Y-109853630D01*
X89750000Y-109853977D01*
X91673143Y-109857096D01*
X91663813Y-110077233D01*
X91613343Y-110420971D01*
X91502425Y-110792200D01*
X91352318Y-111132419D01*
X91192665Y-111373751D01*
X90984788Y-111560411D01*
X90723511Y-111694712D01*
X90386701Y-111782396D01*
X89952221Y-111829205D01*
X89397937Y-111840881D01*
X89392114Y-111840842D01*
X89034743Y-111832022D01*
X88710975Y-111812519D01*
X88460127Y-111785375D01*
X88334857Y-111759010D01*
X87916948Y-111537392D01*
X87567793Y-111192158D01*
X87293209Y-110730478D01*
X87219545Y-110525558D01*
X87282572Y-110525558D01*
X87339575Y-110634368D01*
X87488630Y-110790092D01*
X87696808Y-110965848D01*
X87931180Y-111134754D01*
X88158814Y-111269927D01*
X88242863Y-111309488D01*
X88529644Y-111404058D01*
X88713596Y-111400076D01*
X88773526Y-111327704D01*
X88879143Y-111327704D01*
X88926708Y-111470026D01*
X89081926Y-111539483D01*
X89192619Y-111550557D01*
X89291505Y-111515330D01*
X89300983Y-111399048D01*
X89387143Y-111399048D01*
X89421885Y-111555859D01*
X89546469Y-111621758D01*
X89653238Y-111628857D01*
X89783039Y-111595722D01*
X89822218Y-111470116D01*
X89822572Y-111447429D01*
X89822049Y-111444534D01*
X89913931Y-111444534D01*
X89927125Y-111476750D01*
X90036793Y-111537253D01*
X90220802Y-111553788D01*
X90415810Y-111528318D01*
X90558472Y-111462806D01*
X90564630Y-111457003D01*
X90717793Y-111351310D01*
X90814243Y-111310008D01*
X90979050Y-111221824D01*
X91112377Y-111092361D01*
X91176751Y-110964236D01*
X91167969Y-110907716D01*
X91048836Y-110835050D01*
X90873257Y-110866513D01*
X90680419Y-110993857D01*
X90486884Y-111117985D01*
X90288822Y-111179861D01*
X90087305Y-111234495D01*
X89950972Y-111332053D01*
X89913931Y-111444534D01*
X89822049Y-111444534D01*
X89799140Y-111317767D01*
X89699533Y-111270333D01*
X89604857Y-111266000D01*
X89442891Y-111290802D01*
X89388071Y-111378007D01*
X89387143Y-111399048D01*
X89300983Y-111399048D01*
X89301476Y-111393000D01*
X89234323Y-111268503D01*
X89109524Y-111201166D01*
X88977966Y-111198856D01*
X88890534Y-111269442D01*
X88879143Y-111327704D01*
X88773526Y-111327704D01*
X88799023Y-111296915D01*
X88806572Y-111227207D01*
X88741119Y-111156837D01*
X88572568Y-111096430D01*
X88501293Y-111082039D01*
X88099280Y-110941835D01*
X87701300Y-110658840D01*
X87632281Y-110594715D01*
X87589014Y-110565482D01*
X89175588Y-110565482D01*
X89236181Y-110690463D01*
X89390395Y-110746384D01*
X89624351Y-110758000D01*
X89859284Y-110742531D01*
X90039094Y-110702927D01*
X90098343Y-110670914D01*
X90174542Y-110525815D01*
X90185429Y-110450647D01*
X90205869Y-110360738D01*
X90293019Y-110376093D01*
X90333313Y-110396610D01*
X90509711Y-110437076D01*
X90676965Y-110395405D01*
X90795544Y-110296393D01*
X90825922Y-110164839D01*
X90801192Y-110103087D01*
X90709249Y-110071670D01*
X90540055Y-110079368D01*
X90353033Y-110116442D01*
X90207605Y-110173152D01*
X90168397Y-110206794D01*
X90121909Y-110238985D01*
X90113969Y-110192109D01*
X90069826Y-110138876D01*
X89924867Y-110115840D01*
X89659286Y-110119537D01*
X89411285Y-110135065D01*
X89273091Y-110162871D01*
X89209438Y-110219757D01*
X89185059Y-110322524D01*
X89182160Y-110346845D01*
X89175588Y-110565482D01*
X87589014Y-110565482D01*
X87494512Y-110501634D01*
X87362661Y-110467629D01*
X87286902Y-110502622D01*
X87282572Y-110525558D01*
X87219545Y-110525558D01*
X87128057Y-110271061D01*
X87122298Y-110247178D01*
X88021767Y-110247178D01*
X88033327Y-110283151D01*
X88150999Y-110419622D01*
X88343361Y-110504359D01*
X88550627Y-110522543D01*
X88713014Y-110459361D01*
X88719486Y-110453200D01*
X88814595Y-110301904D01*
X88770497Y-110182938D01*
X88590515Y-110101223D01*
X88466015Y-110077907D01*
X88191358Y-110065579D01*
X88043695Y-110121803D01*
X88021767Y-110247178D01*
X87122298Y-110247178D01*
X87076552Y-110057477D01*
X87572857Y-110057477D01*
X87625370Y-110176431D01*
X87663572Y-110201938D01*
X87840460Y-110242161D01*
X87921712Y-110187338D01*
X87922152Y-110123000D01*
X87854315Y-110023440D01*
X87735064Y-109972443D01*
X87622038Y-109980820D01*
X87572857Y-110057477D01*
X87076552Y-110057477D01*
X87054232Y-109964920D01*
X87045736Y-109776964D01*
X87113652Y-109690754D01*
X87269063Y-109689851D01*
X87482567Y-109745205D01*
X87482567Y-109745205D01*
G37*
X87482567Y-109745205D02*
X87633208Y-109780006D01*
X87842375Y-109807055D01*
X88126646Y-109827147D01*
X88502597Y-109841077D01*
X88986805Y-109849639D01*
X89595847Y-109853630D01*
X89750000Y-109853977D01*
X91673143Y-109857096D01*
X91663813Y-110077233D01*
X91613343Y-110420971D01*
X91502425Y-110792200D01*
X91352318Y-111132419D01*
X91192665Y-111373751D01*
X90984788Y-111560411D01*
X90723511Y-111694712D01*
X90386701Y-111782396D01*
X89952221Y-111829205D01*
X89397937Y-111840881D01*
X89392114Y-111840842D01*
X89034743Y-111832022D01*
X88710975Y-111812519D01*
X88460127Y-111785375D01*
X88334857Y-111759010D01*
X87916948Y-111537392D01*
X87567793Y-111192158D01*
X87293209Y-110730478D01*
X87219545Y-110525558D01*
X87282572Y-110525558D01*
X87339575Y-110634368D01*
X87488630Y-110790092D01*
X87696808Y-110965848D01*
X87931180Y-111134754D01*
X88158814Y-111269927D01*
X88242863Y-111309488D01*
X88529644Y-111404058D01*
X88713596Y-111400076D01*
X88773526Y-111327704D01*
X88879143Y-111327704D01*
X88926708Y-111470026D01*
X89081926Y-111539483D01*
X89192619Y-111550557D01*
X89291505Y-111515330D01*
X89300983Y-111399048D01*
X89387143Y-111399048D01*
X89421885Y-111555859D01*
X89546469Y-111621758D01*
X89653238Y-111628857D01*
X89783039Y-111595722D01*
X89822218Y-111470116D01*
X89822572Y-111447429D01*
X89822049Y-111444534D01*
X89913931Y-111444534D01*
X89927125Y-111476750D01*
X90036793Y-111537253D01*
X90220802Y-111553788D01*
X90415810Y-111528318D01*
X90558472Y-111462806D01*
X90564630Y-111457003D01*
X90717793Y-111351310D01*
X90814243Y-111310008D01*
X90979050Y-111221824D01*
X91112377Y-111092361D01*
X91176751Y-110964236D01*
X91167969Y-110907716D01*
X91048836Y-110835050D01*
X90873257Y-110866513D01*
X90680419Y-110993857D01*
X90486884Y-111117985D01*
X90288822Y-111179861D01*
X90087305Y-111234495D01*
X89950972Y-111332053D01*
X89913931Y-111444534D01*
X89822049Y-111444534D01*
X89799140Y-111317767D01*
X89699533Y-111270333D01*
X89604857Y-111266000D01*
X89442891Y-111290802D01*
X89388071Y-111378007D01*
X89387143Y-111399048D01*
X89300983Y-111399048D01*
X89301476Y-111393000D01*
X89234323Y-111268503D01*
X89109524Y-111201166D01*
X88977966Y-111198856D01*
X88890534Y-111269442D01*
X88879143Y-111327704D01*
X88773526Y-111327704D01*
X88799023Y-111296915D01*
X88806572Y-111227207D01*
X88741119Y-111156837D01*
X88572568Y-111096430D01*
X88501293Y-111082039D01*
X88099280Y-110941835D01*
X87701300Y-110658840D01*
X87632281Y-110594715D01*
X87589014Y-110565482D01*
X89175588Y-110565482D01*
X89236181Y-110690463D01*
X89390395Y-110746384D01*
X89624351Y-110758000D01*
X89859284Y-110742531D01*
X90039094Y-110702927D01*
X90098343Y-110670914D01*
X90174542Y-110525815D01*
X90185429Y-110450647D01*
X90205869Y-110360738D01*
X90293019Y-110376093D01*
X90333313Y-110396610D01*
X90509711Y-110437076D01*
X90676965Y-110395405D01*
X90795544Y-110296393D01*
X90825922Y-110164839D01*
X90801192Y-110103087D01*
X90709249Y-110071670D01*
X90540055Y-110079368D01*
X90353033Y-110116442D01*
X90207605Y-110173152D01*
X90168397Y-110206794D01*
X90121909Y-110238985D01*
X90113969Y-110192109D01*
X90069826Y-110138876D01*
X89924867Y-110115840D01*
X89659286Y-110119537D01*
X89411285Y-110135065D01*
X89273091Y-110162871D01*
X89209438Y-110219757D01*
X89185059Y-110322524D01*
X89182160Y-110346845D01*
X89175588Y-110565482D01*
X87589014Y-110565482D01*
X87494512Y-110501634D01*
X87362661Y-110467629D01*
X87286902Y-110502622D01*
X87282572Y-110525558D01*
X87219545Y-110525558D01*
X87128057Y-110271061D01*
X87122298Y-110247178D01*
X88021767Y-110247178D01*
X88033327Y-110283151D01*
X88150999Y-110419622D01*
X88343361Y-110504359D01*
X88550627Y-110522543D01*
X88713014Y-110459361D01*
X88719486Y-110453200D01*
X88814595Y-110301904D01*
X88770497Y-110182938D01*
X88590515Y-110101223D01*
X88466015Y-110077907D01*
X88191358Y-110065579D01*
X88043695Y-110121803D01*
X88021767Y-110247178D01*
X87122298Y-110247178D01*
X87076552Y-110057477D01*
X87572857Y-110057477D01*
X87625370Y-110176431D01*
X87663572Y-110201938D01*
X87840460Y-110242161D01*
X87921712Y-110187338D01*
X87922152Y-110123000D01*
X87854315Y-110023440D01*
X87735064Y-109972443D01*
X87622038Y-109980820D01*
X87572857Y-110057477D01*
X87076552Y-110057477D01*
X87054232Y-109964920D01*
X87045736Y-109776964D01*
X87113652Y-109690754D01*
X87269063Y-109689851D01*
X87482567Y-109745205D01*
G36*
X92907482Y-105742869D02*
G01*
X93045613Y-105914214D01*
X93178451Y-106157144D01*
X93286904Y-106436769D01*
X93351736Y-106717133D01*
X93367230Y-106923270D01*
X93328883Y-107074480D01*
X93214616Y-107237202D01*
X93156433Y-107304809D01*
X93008474Y-107499035D01*
X92931304Y-107690250D01*
X92898490Y-107947843D01*
X92896200Y-107987997D01*
X92887707Y-108203869D01*
X92894229Y-108287414D01*
X92918644Y-108250938D01*
X92941501Y-108181714D01*
X93003932Y-107958894D01*
X93046062Y-107782572D01*
X93143787Y-107612323D01*
X93354102Y-107432768D01*
X93400357Y-107402629D01*
X93613970Y-107256324D01*
X93793190Y-107112571D01*
X93849329Y-107057915D01*
X93990236Y-106933271D01*
X94073020Y-106940125D01*
X94103571Y-107079713D01*
X94104015Y-107111286D01*
X94043692Y-107372356D01*
X93876280Y-107669778D01*
X93633887Y-107956087D01*
X93495677Y-108141732D01*
X93488180Y-108275656D01*
X93541250Y-108459715D01*
X93595812Y-108734580D01*
X93646473Y-109058856D01*
X93687841Y-109391146D01*
X93714525Y-109690054D01*
X93721132Y-109914182D01*
X93712565Y-109998330D01*
X93629254Y-110159768D01*
X93460255Y-110376452D01*
X93236620Y-110617382D01*
X92989398Y-110851553D01*
X92749638Y-111047962D01*
X92548390Y-111175607D01*
X92521303Y-111187800D01*
X92338360Y-111332021D01*
X92267303Y-111567277D01*
X92307965Y-111894375D01*
X92347657Y-112028000D01*
X92435484Y-112393430D01*
X92480741Y-112806211D01*
X92485210Y-113230557D01*
X92450669Y-113630683D01*
X92378897Y-113970803D01*
X92271674Y-114215131D01*
X92236661Y-114260273D01*
X91968086Y-114464024D01*
X91579456Y-114624357D01*
X91091444Y-114733376D01*
X90947429Y-114752742D01*
X90567630Y-114789604D01*
X90199372Y-114811745D01*
X89869999Y-114819078D01*
X89606856Y-114811516D01*
X89437286Y-114788974D01*
X89387143Y-114757669D01*
X89322517Y-114709819D01*
X89158790Y-114662206D01*
X89057800Y-114643949D01*
X88619670Y-114545710D01*
X88142039Y-114386478D01*
X87701248Y-114192714D01*
X87599478Y-114138483D01*
X87284611Y-113962500D01*
X87047734Y-114410393D01*
X86915948Y-114648114D01*
X86814139Y-114785148D01*
X86709602Y-114851721D01*
X86569634Y-114878056D01*
X86538714Y-114880810D01*
X86340667Y-114876949D01*
X86267451Y-114819631D01*
X86266514Y-114808238D01*
X86237015Y-114698308D01*
X86159656Y-114500714D01*
X86051055Y-114257827D01*
X86048800Y-114253056D01*
X85940403Y-114015530D01*
X85930478Y-113991743D01*
X86237865Y-113991743D01*
X86268555Y-114150847D01*
X86394235Y-114368429D01*
X86505522Y-114503896D01*
X86603866Y-114509921D01*
X86719812Y-114404715D01*
X86804164Y-114274312D01*
X86915464Y-114056173D01*
X87026019Y-113806000D01*
X87171532Y-113506103D01*
X87553441Y-113506103D01*
X87556159Y-113588519D01*
X87669545Y-113703482D01*
X87866676Y-113837333D01*
X88120628Y-113976416D01*
X88404476Y-114107071D01*
X88691297Y-114215642D01*
X88954166Y-114288470D01*
X89142371Y-114312127D01*
X89234054Y-114299655D01*
X89272594Y-114234613D01*
X89270650Y-114080018D01*
X89261798Y-113990375D01*
X89619452Y-113990375D01*
X89641428Y-114159611D01*
X89670484Y-114314289D01*
X89705188Y-114421921D01*
X89768038Y-114487316D01*
X89881530Y-114515283D01*
X90068162Y-114510630D01*
X90350431Y-114478166D01*
X90750835Y-114422700D01*
X90824284Y-114412441D01*
X91018064Y-114378792D01*
X91104841Y-114324497D01*
X91121649Y-114211024D01*
X91114570Y-114110413D01*
X91077927Y-113925331D01*
X90982725Y-113829239D01*
X90879435Y-113791466D01*
X91584726Y-113791466D01*
X91585052Y-113891746D01*
X91608723Y-114010044D01*
X91652411Y-114160690D01*
X91717548Y-114194250D01*
X91788993Y-114165115D01*
X91937088Y-114039947D01*
X91998051Y-113954251D01*
X92067347Y-113781993D01*
X92029609Y-113702861D01*
X91875387Y-113702538D01*
X91836429Y-113709382D01*
X91657186Y-113745641D01*
X91584726Y-113791466D01*
X90879435Y-113791466D01*
X90874857Y-113789792D01*
X90649182Y-113761597D01*
X90338542Y-113768905D01*
X89997846Y-113808459D01*
X89761839Y-113855793D01*
X89652235Y-113900322D01*
X89619452Y-113990375D01*
X89261798Y-113990375D01*
X89259715Y-113969286D01*
X89234105Y-113762685D01*
X89210837Y-113626936D01*
X89202198Y-113600473D01*
X89114927Y-113574935D01*
X88919818Y-113549236D01*
X88653786Y-113525490D01*
X88353744Y-113505809D01*
X88056606Y-113492306D01*
X87799287Y-113487094D01*
X87618701Y-113492286D01*
X87553441Y-113506103D01*
X87171532Y-113506103D01*
X87208182Y-113430571D01*
X87392364Y-113193375D01*
X87465929Y-113152857D01*
X88153429Y-113152857D01*
X89251196Y-113152857D01*
X89228455Y-112917000D01*
X89223208Y-112862572D01*
X89523090Y-112862572D01*
X89545831Y-113098429D01*
X89567039Y-113230200D01*
X89622185Y-113309966D01*
X89746551Y-113362265D01*
X89975421Y-113411638D01*
X90004000Y-113417090D01*
X90297470Y-113458894D01*
X90661061Y-113491176D01*
X91019786Y-113507404D01*
X91045400Y-113507805D01*
X91344109Y-113509216D01*
X91538880Y-113496248D01*
X91670891Y-113457367D01*
X91781320Y-113381041D01*
X91898114Y-113268972D01*
X92057115Y-113085229D01*
X92128854Y-112910865D01*
X92144857Y-112688400D01*
X92136300Y-112491078D01*
X92114602Y-112371267D01*
X92100905Y-112354572D01*
X92022089Y-112397024D01*
X91882212Y-112502169D01*
X91844651Y-112533211D01*
X91644969Y-112670315D01*
X91407427Y-112765741D01*
X91104055Y-112825476D01*
X90706881Y-112855507D01*
X90307831Y-112862167D01*
X89523090Y-112862572D01*
X89223208Y-112862572D01*
X89205715Y-112681143D01*
X88153429Y-112638499D01*
X88153429Y-113152857D01*
X87465929Y-113152857D01*
X87584491Y-113087556D01*
X87653469Y-113080286D01*
X87768876Y-113025199D01*
X87790572Y-112935143D01*
X87764701Y-112817150D01*
X87728889Y-112790000D01*
X87617961Y-112835567D01*
X87444484Y-112950874D01*
X87249336Y-113103833D01*
X87073394Y-113262355D01*
X86957537Y-113394351D01*
X86955952Y-113396746D01*
X86823445Y-113534895D01*
X86619843Y-113683544D01*
X86518616Y-113742400D01*
X86318757Y-113867984D01*
X86237865Y-113991743D01*
X85930478Y-113991743D01*
X85862437Y-113828676D01*
X85831191Y-113731621D01*
X85831143Y-113730201D01*
X85894618Y-113677255D01*
X86051223Y-113626865D01*
X86090330Y-113618810D01*
X86332105Y-113534672D01*
X86551595Y-113400145D01*
X86552999Y-113398968D01*
X86650098Y-113311177D01*
X86708021Y-113224351D01*
X86734239Y-113102467D01*
X86736222Y-112909503D01*
X86721439Y-112609435D01*
X86720429Y-112591589D01*
X86710130Y-112247344D01*
X87032670Y-112247344D01*
X87061644Y-112382406D01*
X87117984Y-112492051D01*
X87203094Y-112518904D01*
X87369138Y-112478095D01*
X87379940Y-112474725D01*
X87633019Y-112395512D01*
X87367081Y-112164937D01*
X87206265Y-112031934D01*
X87118476Y-111987945D01*
X87070320Y-112023287D01*
X87048786Y-112072618D01*
X87032670Y-112247344D01*
X86710130Y-112247344D01*
X86709169Y-112215245D01*
X86727621Y-111942015D01*
X86779137Y-111732280D01*
X86797050Y-111686379D01*
X86857252Y-111416864D01*
X86837591Y-111136683D01*
X86746933Y-110899888D01*
X86650329Y-110792010D01*
X86565748Y-110692046D01*
X86441273Y-110500232D01*
X86301386Y-110254805D01*
X86277112Y-110209129D01*
X86099259Y-109870678D01*
X86819865Y-109870678D01*
X86837171Y-109996798D01*
X86894050Y-110186925D01*
X86995946Y-110469325D01*
X87067375Y-110658975D01*
X87248554Y-111103456D01*
X87421933Y-111436751D01*
X87611931Y-111689193D01*
X87842966Y-111891118D01*
X88139455Y-112072860D01*
X88253367Y-112132330D01*
X88591185Y-112276606D01*
X88967493Y-112379464D01*
X89411945Y-112446097D01*
X89954197Y-112481701D01*
X90294286Y-112489803D01*
X90642414Y-112487490D01*
X90896348Y-112464402D01*
X91106487Y-112412395D01*
X91322658Y-112323589D01*
X91543626Y-112203090D01*
X91712164Y-112079311D01*
X91771934Y-112010524D01*
X91827950Y-111860396D01*
X91883726Y-111637288D01*
X91933682Y-111377859D01*
X91972241Y-111118769D01*
X91993824Y-110896677D01*
X91992852Y-110748243D01*
X91970239Y-110707349D01*
X91927142Y-110649063D01*
X91909037Y-110452393D01*
X91913529Y-110163937D01*
X91936200Y-109606159D01*
X91659529Y-109583365D01*
X91382857Y-109560572D01*
X91550871Y-109392558D01*
X91713250Y-109274421D01*
X91892344Y-109263801D01*
X91937364Y-109272531D01*
X92087863Y-109294687D01*
X92138593Y-109245587D01*
X92132208Y-109114593D01*
X92067524Y-108939931D01*
X91963429Y-108885657D01*
X91750896Y-108841090D01*
X91675188Y-108782406D01*
X91728219Y-108687219D01*
X91851347Y-108575258D01*
X92002776Y-108431467D01*
X92046310Y-108336064D01*
X92014632Y-108276461D01*
X91942435Y-108225812D01*
X91927143Y-108276057D01*
X91866508Y-108346749D01*
X91782000Y-108363143D01*
X91664269Y-108322448D01*
X91636857Y-108265534D01*
X91686600Y-108147108D01*
X91782000Y-108036572D01*
X91883476Y-107907697D01*
X91919811Y-107742526D01*
X91892333Y-107508107D01*
X91815171Y-107214149D01*
X91661428Y-106832118D01*
X91444742Y-106537673D01*
X91150208Y-106322886D01*
X90762918Y-106179827D01*
X90267965Y-106100568D01*
X89677429Y-106077143D01*
X89211256Y-106086616D01*
X88857083Y-106120853D01*
X88582654Y-106188578D01*
X88355717Y-106298518D01*
X88144016Y-106459398D01*
X88092641Y-106505864D01*
X87894053Y-106719252D01*
X87735456Y-106964981D01*
X87608291Y-107266899D01*
X87504003Y-107648853D01*
X87414034Y-108134690D01*
X87352477Y-108568689D01*
X87284520Y-108993110D01*
X87207248Y-109299902D01*
X87123723Y-109479222D01*
X87054882Y-109524286D01*
X86976252Y-109578645D01*
X86882201Y-109697403D01*
X86836690Y-109780302D01*
X86819865Y-109870678D01*
X86099259Y-109870678D01*
X86012572Y-109705715D01*
X85651557Y-109682930D01*
X85362155Y-109644974D01*
X85191599Y-109565366D01*
X85115845Y-109427931D01*
X85105871Y-109315829D01*
X85115459Y-109209174D01*
X85166483Y-109149701D01*
X85293278Y-109120547D01*
X85530176Y-109104849D01*
X85536006Y-109104570D01*
X85791037Y-109100504D01*
X85960692Y-109130197D01*
X86103793Y-109210901D01*
X86216430Y-109304141D01*
X86407057Y-109460846D01*
X86514671Y-109518964D01*
X86555292Y-109486019D01*
X86556857Y-109463978D01*
X86499633Y-109390600D01*
X86364207Y-109300692D01*
X86162737Y-109135401D01*
X86049621Y-108892732D01*
X86020192Y-108556078D01*
X86054901Y-108200409D01*
X86107635Y-107913160D01*
X86163731Y-107702195D01*
X86215873Y-107584689D01*
X86256750Y-107577818D01*
X86277625Y-107677343D01*
X86295145Y-107832882D01*
X86305540Y-107891429D01*
X86325375Y-108024713D01*
X86330772Y-108085432D01*
X86379204Y-108210947D01*
X86487374Y-108376145D01*
X86618202Y-108533884D01*
X86734606Y-108637022D01*
X86777558Y-108653429D01*
X86776005Y-108608058D01*
X86693141Y-108495734D01*
X86663880Y-108463162D01*
X86488705Y-108175174D01*
X86427933Y-107840582D01*
X86478136Y-107497531D01*
X86635887Y-107184165D01*
X86794025Y-107014844D01*
X87028572Y-106816991D01*
X87064857Y-107390496D01*
X87084309Y-107664417D01*
X87101964Y-107807518D01*
X87122078Y-107833996D01*
X87148907Y-107758047D01*
X87160647Y-107710000D01*
X87336899Y-107090467D01*
X87546012Y-106605557D01*
X87793075Y-106247431D01*
X88083178Y-106008252D01*
X88334857Y-105901408D01*
X88859551Y-105785006D01*
X89410012Y-105721742D01*
X89959537Y-105709494D01*
X90481421Y-105746138D01*
X90948962Y-105829551D01*
X91335456Y-105957610D01*
X91614198Y-106128192D01*
X91652738Y-106165196D01*
X91805354Y-106363886D01*
X91954547Y-106620420D01*
X92074313Y-106882718D01*
X92138647Y-107098702D01*
X92143264Y-107147572D01*
X92172103Y-107256841D01*
X92259460Y-107245883D01*
X92412950Y-107112891D01*
X92448984Y-107075000D01*
X92654563Y-106821924D01*
X92759320Y-106585940D01*
X92782601Y-106307786D01*
X92766294Y-106102909D01*
X92750396Y-105873978D01*
X92759238Y-105720769D01*
X92783149Y-105678000D01*
X92907482Y-105742869D01*
X92907482Y-105742869D01*
G37*
X92907482Y-105742869D02*
X93045613Y-105914214D01*
X93178451Y-106157144D01*
X93286904Y-106436769D01*
X93351736Y-106717133D01*
X93367230Y-106923270D01*
X93328883Y-107074480D01*
X93214616Y-107237202D01*
X93156433Y-107304809D01*
X93008474Y-107499035D01*
X92931304Y-107690250D01*
X92898490Y-107947843D01*
X92896200Y-107987997D01*
X92887707Y-108203869D01*
X92894229Y-108287414D01*
X92918644Y-108250938D01*
X92941501Y-108181714D01*
X93003932Y-107958894D01*
X93046062Y-107782572D01*
X93143787Y-107612323D01*
X93354102Y-107432768D01*
X93400357Y-107402629D01*
X93613970Y-107256324D01*
X93793190Y-107112571D01*
X93849329Y-107057915D01*
X93990236Y-106933271D01*
X94073020Y-106940125D01*
X94103571Y-107079713D01*
X94104015Y-107111286D01*
X94043692Y-107372356D01*
X93876280Y-107669778D01*
X93633887Y-107956087D01*
X93495677Y-108141732D01*
X93488180Y-108275656D01*
X93541250Y-108459715D01*
X93595812Y-108734580D01*
X93646473Y-109058856D01*
X93687841Y-109391146D01*
X93714525Y-109690054D01*
X93721132Y-109914182D01*
X93712565Y-109998330D01*
X93629254Y-110159768D01*
X93460255Y-110376452D01*
X93236620Y-110617382D01*
X92989398Y-110851553D01*
X92749638Y-111047962D01*
X92548390Y-111175607D01*
X92521303Y-111187800D01*
X92338360Y-111332021D01*
X92267303Y-111567277D01*
X92307965Y-111894375D01*
X92347657Y-112028000D01*
X92435484Y-112393430D01*
X92480741Y-112806211D01*
X92485210Y-113230557D01*
X92450669Y-113630683D01*
X92378897Y-113970803D01*
X92271674Y-114215131D01*
X92236661Y-114260273D01*
X91968086Y-114464024D01*
X91579456Y-114624357D01*
X91091444Y-114733376D01*
X90947429Y-114752742D01*
X90567630Y-114789604D01*
X90199372Y-114811745D01*
X89869999Y-114819078D01*
X89606856Y-114811516D01*
X89437286Y-114788974D01*
X89387143Y-114757669D01*
X89322517Y-114709819D01*
X89158790Y-114662206D01*
X89057800Y-114643949D01*
X88619670Y-114545710D01*
X88142039Y-114386478D01*
X87701248Y-114192714D01*
X87599478Y-114138483D01*
X87284611Y-113962500D01*
X87047734Y-114410393D01*
X86915948Y-114648114D01*
X86814139Y-114785148D01*
X86709602Y-114851721D01*
X86569634Y-114878056D01*
X86538714Y-114880810D01*
X86340667Y-114876949D01*
X86267451Y-114819631D01*
X86266514Y-114808238D01*
X86237015Y-114698308D01*
X86159656Y-114500714D01*
X86051055Y-114257827D01*
X86048800Y-114253056D01*
X85940403Y-114015530D01*
X85930478Y-113991743D01*
X86237865Y-113991743D01*
X86268555Y-114150847D01*
X86394235Y-114368429D01*
X86505522Y-114503896D01*
X86603866Y-114509921D01*
X86719812Y-114404715D01*
X86804164Y-114274312D01*
X86915464Y-114056173D01*
X87026019Y-113806000D01*
X87171532Y-113506103D01*
X87553441Y-113506103D01*
X87556159Y-113588519D01*
X87669545Y-113703482D01*
X87866676Y-113837333D01*
X88120628Y-113976416D01*
X88404476Y-114107071D01*
X88691297Y-114215642D01*
X88954166Y-114288470D01*
X89142371Y-114312127D01*
X89234054Y-114299655D01*
X89272594Y-114234613D01*
X89270650Y-114080018D01*
X89261798Y-113990375D01*
X89619452Y-113990375D01*
X89641428Y-114159611D01*
X89670484Y-114314289D01*
X89705188Y-114421921D01*
X89768038Y-114487316D01*
X89881530Y-114515283D01*
X90068162Y-114510630D01*
X90350431Y-114478166D01*
X90750835Y-114422700D01*
X90824284Y-114412441D01*
X91018064Y-114378792D01*
X91104841Y-114324497D01*
X91121649Y-114211024D01*
X91114570Y-114110413D01*
X91077927Y-113925331D01*
X90982725Y-113829239D01*
X90879435Y-113791466D01*
X91584726Y-113791466D01*
X91585052Y-113891746D01*
X91608723Y-114010044D01*
X91652411Y-114160690D01*
X91717548Y-114194250D01*
X91788993Y-114165115D01*
X91937088Y-114039947D01*
X91998051Y-113954251D01*
X92067347Y-113781993D01*
X92029609Y-113702861D01*
X91875387Y-113702538D01*
X91836429Y-113709382D01*
X91657186Y-113745641D01*
X91584726Y-113791466D01*
X90879435Y-113791466D01*
X90874857Y-113789792D01*
X90649182Y-113761597D01*
X90338542Y-113768905D01*
X89997846Y-113808459D01*
X89761839Y-113855793D01*
X89652235Y-113900322D01*
X89619452Y-113990375D01*
X89261798Y-113990375D01*
X89259715Y-113969286D01*
X89234105Y-113762685D01*
X89210837Y-113626936D01*
X89202198Y-113600473D01*
X89114927Y-113574935D01*
X88919818Y-113549236D01*
X88653786Y-113525490D01*
X88353744Y-113505809D01*
X88056606Y-113492306D01*
X87799287Y-113487094D01*
X87618701Y-113492286D01*
X87553441Y-113506103D01*
X87171532Y-113506103D01*
X87208182Y-113430571D01*
X87392364Y-113193375D01*
X87465929Y-113152857D01*
X88153429Y-113152857D01*
X89251196Y-113152857D01*
X89228455Y-112917000D01*
X89223208Y-112862572D01*
X89523090Y-112862572D01*
X89545831Y-113098429D01*
X89567039Y-113230200D01*
X89622185Y-113309966D01*
X89746551Y-113362265D01*
X89975421Y-113411638D01*
X90004000Y-113417090D01*
X90297470Y-113458894D01*
X90661061Y-113491176D01*
X91019786Y-113507404D01*
X91045400Y-113507805D01*
X91344109Y-113509216D01*
X91538880Y-113496248D01*
X91670891Y-113457367D01*
X91781320Y-113381041D01*
X91898114Y-113268972D01*
X92057115Y-113085229D01*
X92128854Y-112910865D01*
X92144857Y-112688400D01*
X92136300Y-112491078D01*
X92114602Y-112371267D01*
X92100905Y-112354572D01*
X92022089Y-112397024D01*
X91882212Y-112502169D01*
X91844651Y-112533211D01*
X91644969Y-112670315D01*
X91407427Y-112765741D01*
X91104055Y-112825476D01*
X90706881Y-112855507D01*
X90307831Y-112862167D01*
X89523090Y-112862572D01*
X89223208Y-112862572D01*
X89205715Y-112681143D01*
X88153429Y-112638499D01*
X88153429Y-113152857D01*
X87465929Y-113152857D01*
X87584491Y-113087556D01*
X87653469Y-113080286D01*
X87768876Y-113025199D01*
X87790572Y-112935143D01*
X87764701Y-112817150D01*
X87728889Y-112790000D01*
X87617961Y-112835567D01*
X87444484Y-112950874D01*
X87249336Y-113103833D01*
X87073394Y-113262355D01*
X86957537Y-113394351D01*
X86955952Y-113396746D01*
X86823445Y-113534895D01*
X86619843Y-113683544D01*
X86518616Y-113742400D01*
X86318757Y-113867984D01*
X86237865Y-113991743D01*
X85930478Y-113991743D01*
X85862437Y-113828676D01*
X85831191Y-113731621D01*
X85831143Y-113730201D01*
X85894618Y-113677255D01*
X86051223Y-113626865D01*
X86090330Y-113618810D01*
X86332105Y-113534672D01*
X86551595Y-113400145D01*
X86552999Y-113398968D01*
X86650098Y-113311177D01*
X86708021Y-113224351D01*
X86734239Y-113102467D01*
X86736222Y-112909503D01*
X86721439Y-112609435D01*
X86720429Y-112591589D01*
X86710130Y-112247344D01*
X87032670Y-112247344D01*
X87061644Y-112382406D01*
X87117984Y-112492051D01*
X87203094Y-112518904D01*
X87369138Y-112478095D01*
X87379940Y-112474725D01*
X87633019Y-112395512D01*
X87367081Y-112164937D01*
X87206265Y-112031934D01*
X87118476Y-111987945D01*
X87070320Y-112023287D01*
X87048786Y-112072618D01*
X87032670Y-112247344D01*
X86710130Y-112247344D01*
X86709169Y-112215245D01*
X86727621Y-111942015D01*
X86779137Y-111732280D01*
X86797050Y-111686379D01*
X86857252Y-111416864D01*
X86837591Y-111136683D01*
X86746933Y-110899888D01*
X86650329Y-110792010D01*
X86565748Y-110692046D01*
X86441273Y-110500232D01*
X86301386Y-110254805D01*
X86277112Y-110209129D01*
X86099259Y-109870678D01*
X86819865Y-109870678D01*
X86837171Y-109996798D01*
X86894050Y-110186925D01*
X86995946Y-110469325D01*
X87067375Y-110658975D01*
X87248554Y-111103456D01*
X87421933Y-111436751D01*
X87611931Y-111689193D01*
X87842966Y-111891118D01*
X88139455Y-112072860D01*
X88253367Y-112132330D01*
X88591185Y-112276606D01*
X88967493Y-112379464D01*
X89411945Y-112446097D01*
X89954197Y-112481701D01*
X90294286Y-112489803D01*
X90642414Y-112487490D01*
X90896348Y-112464402D01*
X91106487Y-112412395D01*
X91322658Y-112323589D01*
X91543626Y-112203090D01*
X91712164Y-112079311D01*
X91771934Y-112010524D01*
X91827950Y-111860396D01*
X91883726Y-111637288D01*
X91933682Y-111377859D01*
X91972241Y-111118769D01*
X91993824Y-110896677D01*
X91992852Y-110748243D01*
X91970239Y-110707349D01*
X91927142Y-110649063D01*
X91909037Y-110452393D01*
X91913529Y-110163937D01*
X91936200Y-109606159D01*
X91659529Y-109583365D01*
X91382857Y-109560572D01*
X91550871Y-109392558D01*
X91713250Y-109274421D01*
X91892344Y-109263801D01*
X91937364Y-109272531D01*
X92087863Y-109294687D01*
X92138593Y-109245587D01*
X92132208Y-109114593D01*
X92067524Y-108939931D01*
X91963429Y-108885657D01*
X91750896Y-108841090D01*
X91675188Y-108782406D01*
X91728219Y-108687219D01*
X91851347Y-108575258D01*
X92002776Y-108431467D01*
X92046310Y-108336064D01*
X92014632Y-108276461D01*
X91942435Y-108225812D01*
X91927143Y-108276057D01*
X91866508Y-108346749D01*
X91782000Y-108363143D01*
X91664269Y-108322448D01*
X91636857Y-108265534D01*
X91686600Y-108147108D01*
X91782000Y-108036572D01*
X91883476Y-107907697D01*
X91919811Y-107742526D01*
X91892333Y-107508107D01*
X91815171Y-107214149D01*
X91661428Y-106832118D01*
X91444742Y-106537673D01*
X91150208Y-106322886D01*
X90762918Y-106179827D01*
X90267965Y-106100568D01*
X89677429Y-106077143D01*
X89211256Y-106086616D01*
X88857083Y-106120853D01*
X88582654Y-106188578D01*
X88355717Y-106298518D01*
X88144016Y-106459398D01*
X88092641Y-106505864D01*
X87894053Y-106719252D01*
X87735456Y-106964981D01*
X87608291Y-107266899D01*
X87504003Y-107648853D01*
X87414034Y-108134690D01*
X87352477Y-108568689D01*
X87284520Y-108993110D01*
X87207248Y-109299902D01*
X87123723Y-109479222D01*
X87054882Y-109524286D01*
X86976252Y-109578645D01*
X86882201Y-109697403D01*
X86836690Y-109780302D01*
X86819865Y-109870678D01*
X86099259Y-109870678D01*
X86012572Y-109705715D01*
X85651557Y-109682930D01*
X85362155Y-109644974D01*
X85191599Y-109565366D01*
X85115845Y-109427931D01*
X85105871Y-109315829D01*
X85115459Y-109209174D01*
X85166483Y-109149701D01*
X85293278Y-109120547D01*
X85530176Y-109104849D01*
X85536006Y-109104570D01*
X85791037Y-109100504D01*
X85960692Y-109130197D01*
X86103793Y-109210901D01*
X86216430Y-109304141D01*
X86407057Y-109460846D01*
X86514671Y-109518964D01*
X86555292Y-109486019D01*
X86556857Y-109463978D01*
X86499633Y-109390600D01*
X86364207Y-109300692D01*
X86162737Y-109135401D01*
X86049621Y-108892732D01*
X86020192Y-108556078D01*
X86054901Y-108200409D01*
X86107635Y-107913160D01*
X86163731Y-107702195D01*
X86215873Y-107584689D01*
X86256750Y-107577818D01*
X86277625Y-107677343D01*
X86295145Y-107832882D01*
X86305540Y-107891429D01*
X86325375Y-108024713D01*
X86330772Y-108085432D01*
X86379204Y-108210947D01*
X86487374Y-108376145D01*
X86618202Y-108533884D01*
X86734606Y-108637022D01*
X86777558Y-108653429D01*
X86776005Y-108608058D01*
X86693141Y-108495734D01*
X86663880Y-108463162D01*
X86488705Y-108175174D01*
X86427933Y-107840582D01*
X86478136Y-107497531D01*
X86635887Y-107184165D01*
X86794025Y-107014844D01*
X87028572Y-106816991D01*
X87064857Y-107390496D01*
X87084309Y-107664417D01*
X87101964Y-107807518D01*
X87122078Y-107833996D01*
X87148907Y-107758047D01*
X87160647Y-107710000D01*
X87336899Y-107090467D01*
X87546012Y-106605557D01*
X87793075Y-106247431D01*
X88083178Y-106008252D01*
X88334857Y-105901408D01*
X88859551Y-105785006D01*
X89410012Y-105721742D01*
X89959537Y-105709494D01*
X90481421Y-105746138D01*
X90948962Y-105829551D01*
X91335456Y-105957610D01*
X91614198Y-106128192D01*
X91652738Y-106165196D01*
X91805354Y-106363886D01*
X91954547Y-106620420D01*
X92074313Y-106882718D01*
X92138647Y-107098702D01*
X92143264Y-107147572D01*
X92172103Y-107256841D01*
X92259460Y-107245883D01*
X92412950Y-107112891D01*
X92448984Y-107075000D01*
X92654563Y-106821924D01*
X92759320Y-106585940D01*
X92782601Y-106307786D01*
X92766294Y-106102909D01*
X92750396Y-105873978D01*
X92759238Y-105720769D01*
X92783149Y-105678000D01*
X92907482Y-105742869D01*
D14*
X128740000Y-57440000D02*
X128740000Y-87920000D01*
X128740000Y-87920000D02*
X146520000Y-87920000D01*
X146520000Y-87920000D02*
X146520000Y-57440000D01*
X131280000Y-57440000D02*
X131280000Y-59980000D01*
X131280000Y-59980000D02*
X128740000Y-59980000D01*
D10*
G36*
X142561568Y-63319360D02*
G01*
X142561568Y-63619360D01*
X142461568Y-63619360D01*
X142461568Y-63319360D01*
X142561568Y-63319360D01*
G37*
X142561568Y-63319360D02*
X142561568Y-63619360D01*
X142461568Y-63619360D01*
X142461568Y-63319360D01*
X142561568Y-63319360D01*
G36*
X142361568Y-63719360D02*
G01*
X142361568Y-63819360D01*
X142261568Y-63819360D01*
X142261568Y-63719360D01*
X142361568Y-63719360D01*
G37*
X142361568Y-63719360D02*
X142361568Y-63819360D01*
X142261568Y-63819360D01*
X142261568Y-63719360D01*
X142361568Y-63719360D01*
G36*
X142561568Y-63319360D02*
G01*
X142561568Y-63419360D01*
X142061568Y-63419360D01*
X142061568Y-63319360D01*
X142561568Y-63319360D01*
G37*
X142561568Y-63319360D02*
X142561568Y-63419360D01*
X142061568Y-63419360D01*
X142061568Y-63319360D01*
X142561568Y-63319360D01*
G36*
X142161568Y-63319360D02*
G01*
X142161568Y-64119360D01*
X142061568Y-64119360D01*
X142061568Y-63319360D01*
X142161568Y-63319360D01*
G37*
X142161568Y-63319360D02*
X142161568Y-64119360D01*
X142061568Y-64119360D01*
X142061568Y-63319360D01*
X142161568Y-63319360D01*
G36*
X142561568Y-63919360D02*
G01*
X142561568Y-64119360D01*
X142461568Y-64119360D01*
X142461568Y-63919360D01*
X142561568Y-63919360D01*
G37*
X142561568Y-63919360D02*
X142561568Y-64119360D01*
X142461568Y-64119360D01*
X142461568Y-63919360D01*
X142561568Y-63919360D01*
D14*
X146520000Y-57440000D02*
X146520000Y-54900000D01*
X146520000Y-54900000D02*
X128740000Y-54900000D01*
X128740000Y-54900000D02*
X128740000Y-57440000D01*
X131280000Y-57440000D02*
X128740000Y-57440000D01*
D10*
X163277904Y-67652880D02*
X162896952Y-67919547D01*
X163277904Y-68110023D02*
X162477904Y-68110023D01*
X162477904Y-67805261D01*
X162516000Y-67729071D01*
X162554095Y-67690976D01*
X162630285Y-67652880D01*
X162744571Y-67652880D01*
X162820761Y-67690976D01*
X162858857Y-67729071D01*
X162896952Y-67805261D01*
X162896952Y-68110023D01*
X162477904Y-66890738D02*
X162477904Y-66433595D01*
X163277904Y-66662166D02*
X162477904Y-66662166D01*
X163277904Y-65709785D02*
X162896952Y-65976452D01*
X163277904Y-66166928D02*
X162477904Y-66166928D01*
X162477904Y-65862166D01*
X162516000Y-65785976D01*
X162554095Y-65747880D01*
X162630285Y-65709785D01*
X162744571Y-65709785D01*
X162820761Y-65747880D01*
X162858857Y-65785976D01*
X162896952Y-65862166D01*
X162896952Y-66166928D01*
X163277904Y-64909785D02*
X162896952Y-65176452D01*
X163277904Y-65366928D02*
X162477904Y-65366928D01*
X162477904Y-65062166D01*
X162516000Y-64985976D01*
X162554095Y-64947880D01*
X162630285Y-64909785D01*
X162744571Y-64909785D01*
X162820761Y-64947880D01*
X162858857Y-64985976D01*
X162896952Y-65062166D01*
X162896952Y-65366928D01*
X163239809Y-64605023D02*
X163277904Y-64490738D01*
X163277904Y-64300261D01*
X163239809Y-64224071D01*
X163201714Y-64185976D01*
X163125523Y-64147880D01*
X163049333Y-64147880D01*
X162973142Y-64185976D01*
X162935047Y-64224071D01*
X162896952Y-64300261D01*
X162858857Y-64452642D01*
X162820761Y-64528833D01*
X162782666Y-64566928D01*
X162706476Y-64605023D01*
X162630285Y-64605023D01*
X162554095Y-64566928D01*
X162516000Y-64528833D01*
X162477904Y-64452642D01*
X162477904Y-64262166D01*
X162516000Y-64147880D01*
D15*
X167385714Y-88028571D02*
X168052380Y-88028571D01*
X167004761Y-88266666D02*
X167719047Y-88504761D01*
X167719047Y-87885714D01*
X167957142Y-87504761D02*
X168004761Y-87457142D01*
X168052380Y-87504761D01*
X168004761Y-87552380D01*
X167957142Y-87504761D01*
X168052380Y-87504761D01*
X167052380Y-87123809D02*
X167052380Y-86457142D01*
X168052380Y-86885714D01*
X168052380Y-86076190D02*
X167052380Y-86076190D01*
X167671428Y-85980952D02*
X168052380Y-85695238D01*
X167385714Y-85695238D02*
X167766666Y-86076190D01*
X164685714Y-88028571D02*
X165352380Y-88028571D01*
X164304761Y-88266666D02*
X165019047Y-88504761D01*
X165019047Y-87885714D01*
X165257142Y-87504761D02*
X165304761Y-87457142D01*
X165352380Y-87504761D01*
X165304761Y-87552380D01*
X165257142Y-87504761D01*
X165352380Y-87504761D01*
X164352380Y-87123809D02*
X164352380Y-86457142D01*
X165352380Y-86885714D01*
X165352380Y-86076190D02*
X164352380Y-86076190D01*
X164971428Y-85980952D02*
X165352380Y-85695238D01*
X164685714Y-85695238D02*
X165066666Y-86076190D01*
D10*
X109064974Y-69417904D02*
X108798307Y-69036952D01*
X108607831Y-69417904D02*
X108607831Y-68617904D01*
X108912593Y-68617904D01*
X108988783Y-68656000D01*
X109026879Y-68694095D01*
X109064974Y-68770285D01*
X109064974Y-68884571D01*
X109026879Y-68960761D01*
X108988783Y-68998857D01*
X108912593Y-69036952D01*
X108607831Y-69036952D01*
X109407831Y-68998857D02*
X109674498Y-68998857D01*
X109788783Y-69417904D02*
X109407831Y-69417904D01*
X109407831Y-68617904D01*
X109788783Y-68617904D01*
X110093545Y-69379809D02*
X110207831Y-69417904D01*
X110398307Y-69417904D01*
X110474498Y-69379809D01*
X110512593Y-69341714D01*
X110550688Y-69265523D01*
X110550688Y-69189333D01*
X110512593Y-69113142D01*
X110474498Y-69075047D01*
X110398307Y-69036952D01*
X110245926Y-68998857D01*
X110169736Y-68960761D01*
X110131641Y-68922666D01*
X110093545Y-68846476D01*
X110093545Y-68770285D01*
X110131641Y-68694095D01*
X110169736Y-68656000D01*
X110245926Y-68617904D01*
X110436403Y-68617904D01*
X110550688Y-68656000D01*
X110893545Y-68998857D02*
X111160212Y-68998857D01*
X111274498Y-69417904D02*
X110893545Y-69417904D01*
X110893545Y-68617904D01*
X111274498Y-68617904D01*
X111503069Y-68617904D02*
X111960212Y-68617904D01*
X111731641Y-69417904D02*
X111731641Y-68617904D01*
X107884022Y-69417904D02*
X107617355Y-69036952D01*
X107426879Y-69417904D02*
X107426879Y-68617904D01*
X107731641Y-68617904D01*
X107807831Y-68656000D01*
X107845926Y-68694095D01*
X107884022Y-68770285D01*
X107884022Y-68884571D01*
X107845926Y-68960761D01*
X107807831Y-68998857D01*
X107731641Y-69036952D01*
X107426879Y-69036952D01*
X136603333Y-67873809D02*
X136717619Y-67911904D01*
X136908095Y-67911904D01*
X136984285Y-67873809D01*
X137022380Y-67835714D01*
X137060476Y-67759523D01*
X137060476Y-67683333D01*
X137022380Y-67607142D01*
X136984285Y-67569047D01*
X136908095Y-67530952D01*
X136755714Y-67492857D01*
X136679523Y-67454761D01*
X136641428Y-67416666D01*
X136603333Y-67340476D01*
X136603333Y-67264285D01*
X136641428Y-67188095D01*
X136679523Y-67150000D01*
X136755714Y-67111904D01*
X136946190Y-67111904D01*
X137060476Y-67150000D01*
X137327142Y-67111904D02*
X137517619Y-67911904D01*
X137670000Y-67340476D01*
X137822380Y-67911904D01*
X138012857Y-67111904D01*
X138660476Y-67378571D02*
X138660476Y-67911904D01*
X138470000Y-67073809D02*
X138279523Y-67645238D01*
X138774761Y-67645238D01*
X137917619Y-61411904D02*
X137536666Y-61411904D01*
X137536666Y-60611904D01*
X79463333Y-74953809D02*
X79577619Y-74991904D01*
X79768095Y-74991904D01*
X79844285Y-74953809D01*
X79882380Y-74915714D01*
X79920476Y-74839523D01*
X79920476Y-74763333D01*
X79882380Y-74687142D01*
X79844285Y-74649047D01*
X79768095Y-74610952D01*
X79615714Y-74572857D01*
X79539523Y-74534761D01*
X79501428Y-74496666D01*
X79463333Y-74420476D01*
X79463333Y-74344285D01*
X79501428Y-74268095D01*
X79539523Y-74230000D01*
X79615714Y-74191904D01*
X79806190Y-74191904D01*
X79920476Y-74230000D01*
X80187142Y-74191904D02*
X80377619Y-74991904D01*
X80530000Y-74420476D01*
X80682380Y-74991904D01*
X80872857Y-74191904D01*
X81596666Y-74991904D02*
X81139523Y-74991904D01*
X81368095Y-74991904D02*
X81368095Y-74191904D01*
X81291904Y-74306190D01*
X81215714Y-74382380D01*
X81139523Y-74420476D01*
X80777619Y-68491904D02*
X80396666Y-68491904D01*
X80396666Y-67691904D01*
X117553333Y-89223809D02*
X117667619Y-89261904D01*
X117858095Y-89261904D01*
X117934285Y-89223809D01*
X117972380Y-89185714D01*
X118010476Y-89109523D01*
X118010476Y-89033333D01*
X117972380Y-88957142D01*
X117934285Y-88919047D01*
X117858095Y-88880952D01*
X117705714Y-88842857D01*
X117629523Y-88804761D01*
X117591428Y-88766666D01*
X117553333Y-88690476D01*
X117553333Y-88614285D01*
X117591428Y-88538095D01*
X117629523Y-88500000D01*
X117705714Y-88461904D01*
X117896190Y-88461904D01*
X118010476Y-88500000D01*
X118277142Y-88461904D02*
X118467619Y-89261904D01*
X118620000Y-88690476D01*
X118772380Y-89261904D01*
X118962857Y-88461904D01*
X119305714Y-89261904D02*
X119458095Y-89261904D01*
X119534285Y-89223809D01*
X119572380Y-89185714D01*
X119648571Y-89071428D01*
X119686666Y-88919047D01*
X119686666Y-88614285D01*
X119648571Y-88538095D01*
X119610476Y-88500000D01*
X119534285Y-88461904D01*
X119381904Y-88461904D01*
X119305714Y-88500000D01*
X119267619Y-88538095D01*
X119229523Y-88614285D01*
X119229523Y-88804761D01*
X119267619Y-88880952D01*
X119305714Y-88919047D01*
X119381904Y-88957142D01*
X119534285Y-88957142D01*
X119610476Y-88919047D01*
X119648571Y-88880952D01*
X119686666Y-88804761D01*
X118867619Y-82761904D02*
X118486666Y-82761904D01*
X118486666Y-81961904D01*
X155653333Y-70193809D02*
X155767619Y-70231904D01*
X155958095Y-70231904D01*
X156034285Y-70193809D01*
X156072380Y-70155714D01*
X156110476Y-70079523D01*
X156110476Y-70003333D01*
X156072380Y-69927142D01*
X156034285Y-69889047D01*
X155958095Y-69850952D01*
X155805714Y-69812857D01*
X155729523Y-69774761D01*
X155691428Y-69736666D01*
X155653333Y-69660476D01*
X155653333Y-69584285D01*
X155691428Y-69508095D01*
X155729523Y-69470000D01*
X155805714Y-69431904D01*
X155996190Y-69431904D01*
X156110476Y-69470000D01*
X156377142Y-69431904D02*
X156567619Y-70231904D01*
X156720000Y-69660476D01*
X156872380Y-70231904D01*
X157062857Y-69431904D01*
X157748571Y-69431904D02*
X157367619Y-69431904D01*
X157329523Y-69812857D01*
X157367619Y-69774761D01*
X157443809Y-69736666D01*
X157634285Y-69736666D01*
X157710476Y-69774761D01*
X157748571Y-69812857D01*
X157786666Y-69889047D01*
X157786666Y-70079523D01*
X157748571Y-70155714D01*
X157710476Y-70193809D01*
X157634285Y-70231904D01*
X157443809Y-70231904D01*
X157367619Y-70193809D01*
X157329523Y-70155714D01*
X156967619Y-63731904D02*
X156586666Y-63731904D01*
X156586666Y-62931904D01*
X98523333Y-93993809D02*
X98637619Y-94031904D01*
X98828095Y-94031904D01*
X98904285Y-93993809D01*
X98942380Y-93955714D01*
X98980476Y-93879523D01*
X98980476Y-93803333D01*
X98942380Y-93727142D01*
X98904285Y-93689047D01*
X98828095Y-93650952D01*
X98675714Y-93612857D01*
X98599523Y-93574761D01*
X98561428Y-93536666D01*
X98523333Y-93460476D01*
X98523333Y-93384285D01*
X98561428Y-93308095D01*
X98599523Y-93270000D01*
X98675714Y-93231904D01*
X98866190Y-93231904D01*
X98980476Y-93270000D01*
X99247142Y-93231904D02*
X99437619Y-94031904D01*
X99590000Y-93460476D01*
X99742380Y-94031904D01*
X99932857Y-93231904D01*
X100351904Y-93574761D02*
X100275714Y-93536666D01*
X100237619Y-93498571D01*
X100199523Y-93422380D01*
X100199523Y-93384285D01*
X100237619Y-93308095D01*
X100275714Y-93270000D01*
X100351904Y-93231904D01*
X100504285Y-93231904D01*
X100580476Y-93270000D01*
X100618571Y-93308095D01*
X100656666Y-93384285D01*
X100656666Y-93422380D01*
X100618571Y-93498571D01*
X100580476Y-93536666D01*
X100504285Y-93574761D01*
X100351904Y-93574761D01*
X100275714Y-93612857D01*
X100237619Y-93650952D01*
X100199523Y-93727142D01*
X100199523Y-93879523D01*
X100237619Y-93955714D01*
X100275714Y-93993809D01*
X100351904Y-94031904D01*
X100504285Y-94031904D01*
X100580476Y-93993809D01*
X100618571Y-93955714D01*
X100656666Y-93879523D01*
X100656666Y-93727142D01*
X100618571Y-93650952D01*
X100580476Y-93612857D01*
X100504285Y-93574761D01*
X99837619Y-87531904D02*
X99456666Y-87531904D01*
X99456666Y-86731904D01*
X98523333Y-74943809D02*
X98637619Y-74981904D01*
X98828095Y-74981904D01*
X98904285Y-74943809D01*
X98942380Y-74905714D01*
X98980476Y-74829523D01*
X98980476Y-74753333D01*
X98942380Y-74677142D01*
X98904285Y-74639047D01*
X98828095Y-74600952D01*
X98675714Y-74562857D01*
X98599523Y-74524761D01*
X98561428Y-74486666D01*
X98523333Y-74410476D01*
X98523333Y-74334285D01*
X98561428Y-74258095D01*
X98599523Y-74220000D01*
X98675714Y-74181904D01*
X98866190Y-74181904D01*
X98980476Y-74220000D01*
X99247142Y-74181904D02*
X99437619Y-74981904D01*
X99590000Y-74410476D01*
X99742380Y-74981904D01*
X99932857Y-74181904D01*
X100199523Y-74258095D02*
X100237619Y-74220000D01*
X100313809Y-74181904D01*
X100504285Y-74181904D01*
X100580476Y-74220000D01*
X100618571Y-74258095D01*
X100656666Y-74334285D01*
X100656666Y-74410476D01*
X100618571Y-74524761D01*
X100161428Y-74981904D01*
X100656666Y-74981904D01*
X99837619Y-68481904D02*
X99456666Y-68481904D01*
X99456666Y-67681904D01*
X117553333Y-70193809D02*
X117667619Y-70231904D01*
X117858095Y-70231904D01*
X117934285Y-70193809D01*
X117972380Y-70155714D01*
X118010476Y-70079523D01*
X118010476Y-70003333D01*
X117972380Y-69927142D01*
X117934285Y-69889047D01*
X117858095Y-69850952D01*
X117705714Y-69812857D01*
X117629523Y-69774761D01*
X117591428Y-69736666D01*
X117553333Y-69660476D01*
X117553333Y-69584285D01*
X117591428Y-69508095D01*
X117629523Y-69470000D01*
X117705714Y-69431904D01*
X117896190Y-69431904D01*
X118010476Y-69470000D01*
X118277142Y-69431904D02*
X118467619Y-70231904D01*
X118620000Y-69660476D01*
X118772380Y-70231904D01*
X118962857Y-69431904D01*
X119191428Y-69431904D02*
X119686666Y-69431904D01*
X119420000Y-69736666D01*
X119534285Y-69736666D01*
X119610476Y-69774761D01*
X119648571Y-69812857D01*
X119686666Y-69889047D01*
X119686666Y-70079523D01*
X119648571Y-70155714D01*
X119610476Y-70193809D01*
X119534285Y-70231904D01*
X119305714Y-70231904D01*
X119229523Y-70193809D01*
X119191428Y-70155714D01*
X118867619Y-63731904D02*
X118486666Y-63731904D01*
X118486666Y-62931904D01*
X174703333Y-72643809D02*
X174817619Y-72681904D01*
X175008095Y-72681904D01*
X175084285Y-72643809D01*
X175122380Y-72605714D01*
X175160476Y-72529523D01*
X175160476Y-72453333D01*
X175122380Y-72377142D01*
X175084285Y-72339047D01*
X175008095Y-72300952D01*
X174855714Y-72262857D01*
X174779523Y-72224761D01*
X174741428Y-72186666D01*
X174703333Y-72110476D01*
X174703333Y-72034285D01*
X174741428Y-71958095D01*
X174779523Y-71920000D01*
X174855714Y-71881904D01*
X175046190Y-71881904D01*
X175160476Y-71920000D01*
X175427142Y-71881904D02*
X175617619Y-72681904D01*
X175770000Y-72110476D01*
X175922380Y-72681904D01*
X176112857Y-71881904D01*
X176760476Y-71881904D02*
X176608095Y-71881904D01*
X176531904Y-71920000D01*
X176493809Y-71958095D01*
X176417619Y-72072380D01*
X176379523Y-72224761D01*
X176379523Y-72529523D01*
X176417619Y-72605714D01*
X176455714Y-72643809D01*
X176531904Y-72681904D01*
X176684285Y-72681904D01*
X176760476Y-72643809D01*
X176798571Y-72605714D01*
X176836666Y-72529523D01*
X176836666Y-72339047D01*
X176798571Y-72262857D01*
X176760476Y-72224761D01*
X176684285Y-72186666D01*
X176531904Y-72186666D01*
X176455714Y-72224761D01*
X176417619Y-72262857D01*
X176379523Y-72339047D01*
X176017619Y-66181904D02*
X175636666Y-66181904D01*
X175636666Y-65381904D01*
X173715119Y-77831904D02*
X173448452Y-77450952D01*
X173257976Y-77831904D02*
X173257976Y-77031904D01*
X173562738Y-77031904D01*
X173638928Y-77070000D01*
X173677023Y-77108095D01*
X173715119Y-77184285D01*
X173715119Y-77298571D01*
X173677023Y-77374761D01*
X173638928Y-77412857D01*
X173562738Y-77450952D01*
X173257976Y-77450952D01*
X136115119Y-91931904D02*
X135848452Y-91550952D01*
X135657976Y-91931904D02*
X135657976Y-91131904D01*
X135962738Y-91131904D01*
X136038928Y-91170000D01*
X136077023Y-91208095D01*
X136115119Y-91284285D01*
X136115119Y-91398571D01*
X136077023Y-91474761D01*
X136038928Y-91512857D01*
X135962738Y-91550952D01*
X135657976Y-91550952D01*
X155165119Y-94201904D02*
X154898452Y-93820952D01*
X154707976Y-94201904D02*
X154707976Y-93401904D01*
X155012738Y-93401904D01*
X155088928Y-93440000D01*
X155127023Y-93478095D01*
X155165119Y-93554285D01*
X155165119Y-93668571D01*
X155127023Y-93744761D01*
X155088928Y-93782857D01*
X155012738Y-93820952D01*
X154707976Y-93820952D01*
X173715119Y-96681904D02*
X173448452Y-96300952D01*
X173257976Y-96681904D02*
X173257976Y-95881904D01*
X173562738Y-95881904D01*
X173638928Y-95920000D01*
X173677023Y-95958095D01*
X173715119Y-96034285D01*
X173715119Y-96148571D01*
X173677023Y-96224761D01*
X173638928Y-96262857D01*
X173562738Y-96300952D01*
X173257976Y-96300952D01*
X117055119Y-94191904D02*
X116788452Y-93810952D01*
X116597976Y-94191904D02*
X116597976Y-93391904D01*
X116902738Y-93391904D01*
X116978928Y-93430000D01*
X117017023Y-93468095D01*
X117055119Y-93544285D01*
X117055119Y-93658571D01*
X117017023Y-93734761D01*
X116978928Y-93772857D01*
X116902738Y-93810952D01*
X116597976Y-93810952D01*
X117055119Y-75161904D02*
X116788452Y-74780952D01*
X116597976Y-75161904D02*
X116597976Y-74361904D01*
X116902738Y-74361904D01*
X116978928Y-74400000D01*
X117017023Y-74438095D01*
X117055119Y-74514285D01*
X117055119Y-74628571D01*
X117017023Y-74704761D01*
X116978928Y-74742857D01*
X116902738Y-74780952D01*
X116597976Y-74780952D01*
X78965119Y-98961904D02*
X78698452Y-98580952D01*
X78507976Y-98961904D02*
X78507976Y-98161904D01*
X78812738Y-98161904D01*
X78888928Y-98200000D01*
X78927023Y-98238095D01*
X78965119Y-98314285D01*
X78965119Y-98428571D01*
X78927023Y-98504761D01*
X78888928Y-98542857D01*
X78812738Y-98580952D01*
X78507976Y-98580952D01*
X98035119Y-98971904D02*
X97768452Y-98590952D01*
X97577976Y-98971904D02*
X97577976Y-98171904D01*
X97882738Y-98171904D01*
X97958928Y-98210000D01*
X97997023Y-98248095D01*
X98035119Y-98324285D01*
X98035119Y-98438571D01*
X97997023Y-98514761D01*
X97958928Y-98552857D01*
X97882738Y-98590952D01*
X97577976Y-98590952D01*
X78965119Y-79951904D02*
X78698452Y-79570952D01*
X78507976Y-79951904D02*
X78507976Y-79151904D01*
X78812738Y-79151904D01*
X78888928Y-79190000D01*
X78927023Y-79228095D01*
X78965119Y-79304285D01*
X78965119Y-79418571D01*
X78927023Y-79494761D01*
X78888928Y-79532857D01*
X78812738Y-79570952D01*
X78507976Y-79570952D01*
X155165119Y-75151904D02*
X154898452Y-74770952D01*
X154707976Y-75151904D02*
X154707976Y-74351904D01*
X155012738Y-74351904D01*
X155088928Y-74390000D01*
X155127023Y-74428095D01*
X155165119Y-74504285D01*
X155165119Y-74618571D01*
X155127023Y-74694761D01*
X155088928Y-74732857D01*
X155012738Y-74770952D01*
X154707976Y-74770952D01*
X127361904Y-68596880D02*
X126980952Y-68863547D01*
X127361904Y-69054023D02*
X126561904Y-69054023D01*
X126561904Y-68749261D01*
X126600000Y-68673071D01*
X126638095Y-68634976D01*
X126714285Y-68596880D01*
X126828571Y-68596880D01*
X126904761Y-68634976D01*
X126942857Y-68673071D01*
X126980952Y-68749261D01*
X126980952Y-69054023D01*
X98035119Y-79911904D02*
X97768452Y-79530952D01*
X97577976Y-79911904D02*
X97577976Y-79111904D01*
X97882738Y-79111904D01*
X97958928Y-79150000D01*
X97997023Y-79188095D01*
X98035119Y-79264285D01*
X98035119Y-79378571D01*
X97997023Y-79454761D01*
X97958928Y-79492857D01*
X97882738Y-79530952D01*
X97577976Y-79530952D01*
X174322380Y-110773809D02*
X174436666Y-110811904D01*
X174627142Y-110811904D01*
X174703333Y-110773809D01*
X174741428Y-110735714D01*
X174779523Y-110659523D01*
X174779523Y-110583333D01*
X174741428Y-110507142D01*
X174703333Y-110469047D01*
X174627142Y-110430952D01*
X174474761Y-110392857D01*
X174398571Y-110354761D01*
X174360476Y-110316666D01*
X174322380Y-110240476D01*
X174322380Y-110164285D01*
X174360476Y-110088095D01*
X174398571Y-110050000D01*
X174474761Y-110011904D01*
X174665238Y-110011904D01*
X174779523Y-110050000D01*
X175046190Y-110011904D02*
X175236666Y-110811904D01*
X175389047Y-110240476D01*
X175541428Y-110811904D01*
X175731904Y-110011904D01*
X176455714Y-110811904D02*
X175998571Y-110811904D01*
X176227142Y-110811904D02*
X176227142Y-110011904D01*
X176150952Y-110126190D01*
X176074761Y-110202380D01*
X175998571Y-110240476D01*
X176912857Y-110354761D02*
X176836666Y-110316666D01*
X176798571Y-110278571D01*
X176760476Y-110202380D01*
X176760476Y-110164285D01*
X176798571Y-110088095D01*
X176836666Y-110050000D01*
X176912857Y-110011904D01*
X177065238Y-110011904D01*
X177141428Y-110050000D01*
X177179523Y-110088095D01*
X177217619Y-110164285D01*
X177217619Y-110202380D01*
X177179523Y-110278571D01*
X177141428Y-110316666D01*
X177065238Y-110354761D01*
X176912857Y-110354761D01*
X176836666Y-110392857D01*
X176798571Y-110430952D01*
X176760476Y-110507142D01*
X176760476Y-110659523D01*
X176798571Y-110735714D01*
X176836666Y-110773809D01*
X176912857Y-110811904D01*
X177065238Y-110811904D01*
X177141428Y-110773809D01*
X177179523Y-110735714D01*
X177217619Y-110659523D01*
X177217619Y-110507142D01*
X177179523Y-110430952D01*
X177141428Y-110392857D01*
X177065238Y-110354761D01*
X176017619Y-104311904D02*
X175636666Y-104311904D01*
X175636666Y-103511904D01*
X98035119Y-101641904D02*
X97768452Y-101260952D01*
X97577976Y-101641904D02*
X97577976Y-100841904D01*
X97882738Y-100841904D01*
X97958928Y-100880000D01*
X97997023Y-100918095D01*
X98035119Y-100994285D01*
X98035119Y-101108571D01*
X97997023Y-101184761D01*
X97958928Y-101222857D01*
X97882738Y-101260952D01*
X97577976Y-101260952D01*
X78965119Y-101631904D02*
X78698452Y-101250952D01*
X78507976Y-101631904D02*
X78507976Y-100831904D01*
X78812738Y-100831904D01*
X78888928Y-100870000D01*
X78927023Y-100908095D01*
X78965119Y-100984285D01*
X78965119Y-101098571D01*
X78927023Y-101174761D01*
X78888928Y-101212857D01*
X78812738Y-101250952D01*
X78507976Y-101250952D01*
X117055119Y-96871904D02*
X116788452Y-96490952D01*
X116597976Y-96871904D02*
X116597976Y-96071904D01*
X116902738Y-96071904D01*
X116978928Y-96110000D01*
X117017023Y-96148095D01*
X117055119Y-96224285D01*
X117055119Y-96338571D01*
X117017023Y-96414761D01*
X116978928Y-96452857D01*
X116902738Y-96490952D01*
X116597976Y-96490952D01*
X136222380Y-105993809D02*
X136336666Y-106031904D01*
X136527142Y-106031904D01*
X136603333Y-105993809D01*
X136641428Y-105955714D01*
X136679523Y-105879523D01*
X136679523Y-105803333D01*
X136641428Y-105727142D01*
X136603333Y-105689047D01*
X136527142Y-105650952D01*
X136374761Y-105612857D01*
X136298571Y-105574761D01*
X136260476Y-105536666D01*
X136222380Y-105460476D01*
X136222380Y-105384285D01*
X136260476Y-105308095D01*
X136298571Y-105270000D01*
X136374761Y-105231904D01*
X136565238Y-105231904D01*
X136679523Y-105270000D01*
X136946190Y-105231904D02*
X137136666Y-106031904D01*
X137289047Y-105460476D01*
X137441428Y-106031904D01*
X137631904Y-105231904D01*
X138355714Y-106031904D02*
X137898571Y-106031904D01*
X138127142Y-106031904D02*
X138127142Y-105231904D01*
X138050952Y-105346190D01*
X137974761Y-105422380D01*
X137898571Y-105460476D01*
X139041428Y-105231904D02*
X138889047Y-105231904D01*
X138812857Y-105270000D01*
X138774761Y-105308095D01*
X138698571Y-105422380D01*
X138660476Y-105574761D01*
X138660476Y-105879523D01*
X138698571Y-105955714D01*
X138736666Y-105993809D01*
X138812857Y-106031904D01*
X138965238Y-106031904D01*
X139041428Y-105993809D01*
X139079523Y-105955714D01*
X139117619Y-105879523D01*
X139117619Y-105689047D01*
X139079523Y-105612857D01*
X139041428Y-105574761D01*
X138965238Y-105536666D01*
X138812857Y-105536666D01*
X138736666Y-105574761D01*
X138698571Y-105612857D01*
X138660476Y-105689047D01*
X137917619Y-99531904D02*
X137536666Y-99531904D01*
X137536666Y-98731904D01*
X117172380Y-108273809D02*
X117286666Y-108311904D01*
X117477142Y-108311904D01*
X117553333Y-108273809D01*
X117591428Y-108235714D01*
X117629523Y-108159523D01*
X117629523Y-108083333D01*
X117591428Y-108007142D01*
X117553333Y-107969047D01*
X117477142Y-107930952D01*
X117324761Y-107892857D01*
X117248571Y-107854761D01*
X117210476Y-107816666D01*
X117172380Y-107740476D01*
X117172380Y-107664285D01*
X117210476Y-107588095D01*
X117248571Y-107550000D01*
X117324761Y-107511904D01*
X117515238Y-107511904D01*
X117629523Y-107550000D01*
X117896190Y-107511904D02*
X118086666Y-108311904D01*
X118239047Y-107740476D01*
X118391428Y-108311904D01*
X118581904Y-107511904D01*
X119305714Y-108311904D02*
X118848571Y-108311904D01*
X119077142Y-108311904D02*
X119077142Y-107511904D01*
X119000952Y-107626190D01*
X118924761Y-107702380D01*
X118848571Y-107740476D01*
X120029523Y-107511904D02*
X119648571Y-107511904D01*
X119610476Y-107892857D01*
X119648571Y-107854761D01*
X119724761Y-107816666D01*
X119915238Y-107816666D01*
X119991428Y-107854761D01*
X120029523Y-107892857D01*
X120067619Y-107969047D01*
X120067619Y-108159523D01*
X120029523Y-108235714D01*
X119991428Y-108273809D01*
X119915238Y-108311904D01*
X119724761Y-108311904D01*
X119648571Y-108273809D01*
X119610476Y-108235714D01*
X118867619Y-101811904D02*
X118486666Y-101811904D01*
X118486666Y-101011904D01*
X98142380Y-113043809D02*
X98256666Y-113081904D01*
X98447142Y-113081904D01*
X98523333Y-113043809D01*
X98561428Y-113005714D01*
X98599523Y-112929523D01*
X98599523Y-112853333D01*
X98561428Y-112777142D01*
X98523333Y-112739047D01*
X98447142Y-112700952D01*
X98294761Y-112662857D01*
X98218571Y-112624761D01*
X98180476Y-112586666D01*
X98142380Y-112510476D01*
X98142380Y-112434285D01*
X98180476Y-112358095D01*
X98218571Y-112320000D01*
X98294761Y-112281904D01*
X98485238Y-112281904D01*
X98599523Y-112320000D01*
X98866190Y-112281904D02*
X99056666Y-113081904D01*
X99209047Y-112510476D01*
X99361428Y-113081904D01*
X99551904Y-112281904D01*
X100275714Y-113081904D02*
X99818571Y-113081904D01*
X100047142Y-113081904D02*
X100047142Y-112281904D01*
X99970952Y-112396190D01*
X99894761Y-112472380D01*
X99818571Y-112510476D01*
X100961428Y-112548571D02*
X100961428Y-113081904D01*
X100770952Y-112243809D02*
X100580476Y-112815238D01*
X101075714Y-112815238D01*
X99837619Y-106581904D02*
X99456666Y-106581904D01*
X99456666Y-105781904D01*
X136115119Y-94591904D02*
X135848452Y-94210952D01*
X135657976Y-94591904D02*
X135657976Y-93791904D01*
X135962738Y-93791904D01*
X136038928Y-93830000D01*
X136077023Y-93868095D01*
X136115119Y-93944285D01*
X136115119Y-94058571D01*
X136077023Y-94134761D01*
X136038928Y-94172857D01*
X135962738Y-94210952D01*
X135657976Y-94210952D01*
X79072380Y-113043809D02*
X79186666Y-113081904D01*
X79377142Y-113081904D01*
X79453333Y-113043809D01*
X79491428Y-113005714D01*
X79529523Y-112929523D01*
X79529523Y-112853333D01*
X79491428Y-112777142D01*
X79453333Y-112739047D01*
X79377142Y-112700952D01*
X79224761Y-112662857D01*
X79148571Y-112624761D01*
X79110476Y-112586666D01*
X79072380Y-112510476D01*
X79072380Y-112434285D01*
X79110476Y-112358095D01*
X79148571Y-112320000D01*
X79224761Y-112281904D01*
X79415238Y-112281904D01*
X79529523Y-112320000D01*
X79796190Y-112281904D02*
X79986666Y-113081904D01*
X80139047Y-112510476D01*
X80291428Y-113081904D01*
X80481904Y-112281904D01*
X81205714Y-113081904D02*
X80748571Y-113081904D01*
X80977142Y-113081904D02*
X80977142Y-112281904D01*
X80900952Y-112396190D01*
X80824761Y-112472380D01*
X80748571Y-112510476D01*
X81472380Y-112281904D02*
X81967619Y-112281904D01*
X81700952Y-112586666D01*
X81815238Y-112586666D01*
X81891428Y-112624761D01*
X81929523Y-112662857D01*
X81967619Y-112739047D01*
X81967619Y-112929523D01*
X81929523Y-113005714D01*
X81891428Y-113043809D01*
X81815238Y-113081904D01*
X81586666Y-113081904D01*
X81510476Y-113043809D01*
X81472380Y-113005714D01*
X80767619Y-106581904D02*
X80386666Y-106581904D01*
X80386666Y-105781904D01*
X155272380Y-89223809D02*
X155386666Y-89261904D01*
X155577142Y-89261904D01*
X155653333Y-89223809D01*
X155691428Y-89185714D01*
X155729523Y-89109523D01*
X155729523Y-89033333D01*
X155691428Y-88957142D01*
X155653333Y-88919047D01*
X155577142Y-88880952D01*
X155424761Y-88842857D01*
X155348571Y-88804761D01*
X155310476Y-88766666D01*
X155272380Y-88690476D01*
X155272380Y-88614285D01*
X155310476Y-88538095D01*
X155348571Y-88500000D01*
X155424761Y-88461904D01*
X155615238Y-88461904D01*
X155729523Y-88500000D01*
X155996190Y-88461904D02*
X156186666Y-89261904D01*
X156339047Y-88690476D01*
X156491428Y-89261904D01*
X156681904Y-88461904D01*
X157405714Y-89261904D02*
X156948571Y-89261904D01*
X157177142Y-89261904D02*
X157177142Y-88461904D01*
X157100952Y-88576190D01*
X157024761Y-88652380D01*
X156948571Y-88690476D01*
X158167619Y-89261904D02*
X157710476Y-89261904D01*
X157939047Y-89261904D02*
X157939047Y-88461904D01*
X157862857Y-88576190D01*
X157786666Y-88652380D01*
X157710476Y-88690476D01*
X156967619Y-82761904D02*
X156586666Y-82761904D01*
X156586666Y-81961904D01*
X140552380Y-83823809D02*
X140666666Y-83861904D01*
X140857142Y-83861904D01*
X140933333Y-83823809D01*
X140971428Y-83785714D01*
X141009523Y-83709523D01*
X141009523Y-83633333D01*
X140971428Y-83557142D01*
X140933333Y-83519047D01*
X140857142Y-83480952D01*
X140704761Y-83442857D01*
X140628571Y-83404761D01*
X140590476Y-83366666D01*
X140552380Y-83290476D01*
X140552380Y-83214285D01*
X140590476Y-83138095D01*
X140628571Y-83100000D01*
X140704761Y-83061904D01*
X140895238Y-83061904D01*
X141009523Y-83100000D01*
X141276190Y-83061904D02*
X141466666Y-83861904D01*
X141619047Y-83290476D01*
X141771428Y-83861904D01*
X141961904Y-83061904D01*
X142685714Y-83861904D02*
X142228571Y-83861904D01*
X142457142Y-83861904D02*
X142457142Y-83061904D01*
X142380952Y-83176190D01*
X142304761Y-83252380D01*
X142228571Y-83290476D01*
X143180952Y-83061904D02*
X143257142Y-83061904D01*
X143333333Y-83100000D01*
X143371428Y-83138095D01*
X143409523Y-83214285D01*
X143447619Y-83366666D01*
X143447619Y-83557142D01*
X143409523Y-83709523D01*
X143371428Y-83785714D01*
X143333333Y-83823809D01*
X143257142Y-83861904D01*
X143180952Y-83861904D01*
X143104761Y-83823809D01*
X143066666Y-83785714D01*
X143028571Y-83709523D01*
X142990476Y-83557142D01*
X142990476Y-83366666D01*
X143028571Y-83214285D01*
X143066666Y-83138095D01*
X143104761Y-83100000D01*
X143180952Y-83061904D01*
X137917619Y-80491904D02*
X137536666Y-80491904D01*
X137536666Y-79691904D01*
X79463333Y-94003809D02*
X79577619Y-94041904D01*
X79768095Y-94041904D01*
X79844285Y-94003809D01*
X79882380Y-93965714D01*
X79920476Y-93889523D01*
X79920476Y-93813333D01*
X79882380Y-93737142D01*
X79844285Y-93699047D01*
X79768095Y-93660952D01*
X79615714Y-93622857D01*
X79539523Y-93584761D01*
X79501428Y-93546666D01*
X79463333Y-93470476D01*
X79463333Y-93394285D01*
X79501428Y-93318095D01*
X79539523Y-93280000D01*
X79615714Y-93241904D01*
X79806190Y-93241904D01*
X79920476Y-93280000D01*
X80187142Y-93241904D02*
X80377619Y-94041904D01*
X80530000Y-93470476D01*
X80682380Y-94041904D01*
X80872857Y-93241904D01*
X81101428Y-93241904D02*
X81634761Y-93241904D01*
X81291904Y-94041904D01*
X80777619Y-87541904D02*
X80396666Y-87541904D01*
X80396666Y-86741904D01*
X155165119Y-96881904D02*
X154898452Y-96500952D01*
X154707976Y-96881904D02*
X154707976Y-96081904D01*
X155012738Y-96081904D01*
X155088928Y-96120000D01*
X155127023Y-96158095D01*
X155165119Y-96234285D01*
X155165119Y-96348571D01*
X155127023Y-96424761D01*
X155088928Y-96462857D01*
X155012738Y-96500952D01*
X154707976Y-96500952D01*
X174322380Y-91693809D02*
X174436666Y-91731904D01*
X174627142Y-91731904D01*
X174703333Y-91693809D01*
X174741428Y-91655714D01*
X174779523Y-91579523D01*
X174779523Y-91503333D01*
X174741428Y-91427142D01*
X174703333Y-91389047D01*
X174627142Y-91350952D01*
X174474761Y-91312857D01*
X174398571Y-91274761D01*
X174360476Y-91236666D01*
X174322380Y-91160476D01*
X174322380Y-91084285D01*
X174360476Y-91008095D01*
X174398571Y-90970000D01*
X174474761Y-90931904D01*
X174665238Y-90931904D01*
X174779523Y-90970000D01*
X175046190Y-90931904D02*
X175236666Y-91731904D01*
X175389047Y-91160476D01*
X175541428Y-91731904D01*
X175731904Y-90931904D01*
X176455714Y-91731904D02*
X175998571Y-91731904D01*
X176227142Y-91731904D02*
X176227142Y-90931904D01*
X176150952Y-91046190D01*
X176074761Y-91122380D01*
X175998571Y-91160476D01*
X176760476Y-91008095D02*
X176798571Y-90970000D01*
X176874761Y-90931904D01*
X177065238Y-90931904D01*
X177141428Y-90970000D01*
X177179523Y-91008095D01*
X177217619Y-91084285D01*
X177217619Y-91160476D01*
X177179523Y-91274761D01*
X176722380Y-91731904D01*
X177217619Y-91731904D01*
X176017619Y-85231904D02*
X175636666Y-85231904D01*
X175636666Y-84431904D01*
X173695119Y-99111904D02*
X173428452Y-98730952D01*
X173237976Y-99111904D02*
X173237976Y-98311904D01*
X173542738Y-98311904D01*
X173618928Y-98350000D01*
X173657023Y-98388095D01*
X173695119Y-98464285D01*
X173695119Y-98578571D01*
X173657023Y-98654761D01*
X173618928Y-98692857D01*
X173542738Y-98730952D01*
X173237976Y-98730952D01*
X155272380Y-108283809D02*
X155386666Y-108321904D01*
X155577142Y-108321904D01*
X155653333Y-108283809D01*
X155691428Y-108245714D01*
X155729523Y-108169523D01*
X155729523Y-108093333D01*
X155691428Y-108017142D01*
X155653333Y-107979047D01*
X155577142Y-107940952D01*
X155424761Y-107902857D01*
X155348571Y-107864761D01*
X155310476Y-107826666D01*
X155272380Y-107750476D01*
X155272380Y-107674285D01*
X155310476Y-107598095D01*
X155348571Y-107560000D01*
X155424761Y-107521904D01*
X155615238Y-107521904D01*
X155729523Y-107560000D01*
X155996190Y-107521904D02*
X156186666Y-108321904D01*
X156339047Y-107750476D01*
X156491428Y-108321904D01*
X156681904Y-107521904D01*
X157405714Y-108321904D02*
X156948571Y-108321904D01*
X157177142Y-108321904D02*
X157177142Y-107521904D01*
X157100952Y-107636190D01*
X157024761Y-107712380D01*
X156948571Y-107750476D01*
X157672380Y-107521904D02*
X158205714Y-107521904D01*
X157862857Y-108321904D01*
X156967619Y-101821904D02*
X156586666Y-101821904D01*
X156586666Y-101021904D01*
D12*
X135001428Y-72594285D02*
X135401428Y-72594285D01*
X135572857Y-73222857D02*
X135001428Y-73222857D01*
X135001428Y-72022857D01*
X135572857Y-72022857D01*
X136658571Y-73222857D02*
X136087142Y-73222857D01*
X136087142Y-72022857D01*
X137058571Y-73222857D02*
X137058571Y-72022857D01*
X137458571Y-72022857D02*
X138144285Y-72022857D01*
X137801428Y-73222857D02*
X137801428Y-72022857D01*
X138544285Y-72594285D02*
X138944285Y-72594285D01*
X139115714Y-73222857D02*
X138544285Y-73222857D01*
X138544285Y-72022857D01*
X139115714Y-72022857D01*
X140315714Y-73108571D02*
X140258571Y-73165714D01*
X140087142Y-73222857D01*
X139972857Y-73222857D01*
X139801428Y-73165714D01*
X139687142Y-73051428D01*
X139630000Y-72937142D01*
X139572857Y-72708571D01*
X139572857Y-72537142D01*
X139630000Y-72308571D01*
X139687142Y-72194285D01*
X139801428Y-72080000D01*
X139972857Y-72022857D01*
X140087142Y-72022857D01*
X140258571Y-72080000D01*
X140315714Y-72137142D01*
D10*
X142767190Y-84052857D02*
X142881476Y-84090952D01*
X142919571Y-84129047D01*
X142957666Y-84205238D01*
X142957666Y-84319523D01*
X142919571Y-84395714D01*
X142881476Y-84433809D01*
X142805285Y-84471904D01*
X142500523Y-84471904D01*
X142500523Y-83671904D01*
X142767190Y-83671904D01*
X142843380Y-83710000D01*
X142881476Y-83748095D01*
X142919571Y-83824285D01*
X142919571Y-83900476D01*
X142881476Y-83976666D01*
X142843380Y-84014761D01*
X142767190Y-84052857D01*
X142500523Y-84052857D01*
X143262428Y-83748095D02*
X143300523Y-83710000D01*
X143376714Y-83671904D01*
X143567190Y-83671904D01*
X143643380Y-83710000D01*
X143681476Y-83748095D01*
X143719571Y-83824285D01*
X143719571Y-83900476D01*
X143681476Y-84014761D01*
X143224333Y-84471904D01*
X143719571Y-84471904D01*
X142824333Y-76432857D02*
X142557666Y-76432857D01*
X142557666Y-76851904D02*
X142557666Y-76051904D01*
X142938619Y-76051904D01*
X143167190Y-76051904D02*
X143700523Y-76051904D01*
X143357666Y-76851904D01*
X142824333Y-73892857D02*
X142557666Y-73892857D01*
X142557666Y-74311904D02*
X142557666Y-73511904D01*
X142938619Y-73511904D01*
X143586238Y-73511904D02*
X143433857Y-73511904D01*
X143357666Y-73550000D01*
X143319571Y-73588095D01*
X143243380Y-73702380D01*
X143205285Y-73854761D01*
X143205285Y-74159523D01*
X143243380Y-74235714D01*
X143281476Y-74273809D01*
X143357666Y-74311904D01*
X143510047Y-74311904D01*
X143586238Y-74273809D01*
X143624333Y-74235714D01*
X143662428Y-74159523D01*
X143662428Y-73969047D01*
X143624333Y-73892857D01*
X143586238Y-73854761D01*
X143510047Y-73816666D01*
X143357666Y-73816666D01*
X143281476Y-73854761D01*
X143243380Y-73892857D01*
X143205285Y-73969047D01*
X142824333Y-71352857D02*
X142557666Y-71352857D01*
X142557666Y-71771904D02*
X142557666Y-70971904D01*
X142938619Y-70971904D01*
X143624333Y-70971904D02*
X143243380Y-70971904D01*
X143205285Y-71352857D01*
X143243380Y-71314761D01*
X143319571Y-71276666D01*
X143510047Y-71276666D01*
X143586238Y-71314761D01*
X143624333Y-71352857D01*
X143662428Y-71429047D01*
X143662428Y-71619523D01*
X143624333Y-71695714D01*
X143586238Y-71733809D01*
X143510047Y-71771904D01*
X143319571Y-71771904D01*
X143243380Y-71733809D01*
X143205285Y-71695714D01*
X142767190Y-58652857D02*
X142881476Y-58690952D01*
X142919571Y-58729047D01*
X142957666Y-58805238D01*
X142957666Y-58919523D01*
X142919571Y-58995714D01*
X142881476Y-59033809D01*
X142805285Y-59071904D01*
X142500523Y-59071904D01*
X142500523Y-58271904D01*
X142767190Y-58271904D01*
X142843380Y-58310000D01*
X142881476Y-58348095D01*
X142919571Y-58424285D01*
X142919571Y-58500476D01*
X142881476Y-58576666D01*
X142843380Y-58614761D01*
X142767190Y-58652857D01*
X142500523Y-58652857D01*
X143452904Y-58271904D02*
X143529095Y-58271904D01*
X143605285Y-58310000D01*
X143643380Y-58348095D01*
X143681476Y-58424285D01*
X143719571Y-58576666D01*
X143719571Y-58767142D01*
X143681476Y-58919523D01*
X143643380Y-58995714D01*
X143605285Y-59033809D01*
X143529095Y-59071904D01*
X143452904Y-59071904D01*
X143376714Y-59033809D01*
X143338619Y-58995714D01*
X143300523Y-58919523D01*
X143262428Y-58767142D01*
X143262428Y-58576666D01*
X143300523Y-58424285D01*
X143338619Y-58348095D01*
X143376714Y-58310000D01*
X143452904Y-58271904D01*
X142481476Y-60850000D02*
X142405285Y-60811904D01*
X142291000Y-60811904D01*
X142176714Y-60850000D01*
X142100523Y-60926190D01*
X142062428Y-61002380D01*
X142024333Y-61154761D01*
X142024333Y-61269047D01*
X142062428Y-61421428D01*
X142100523Y-61497619D01*
X142176714Y-61573809D01*
X142291000Y-61611904D01*
X142367190Y-61611904D01*
X142481476Y-61573809D01*
X142519571Y-61535714D01*
X142519571Y-61269047D01*
X142367190Y-61269047D01*
X142862428Y-61611904D02*
X142862428Y-60811904D01*
X143319571Y-61611904D01*
X143319571Y-60811904D01*
X143700523Y-61611904D02*
X143700523Y-60811904D01*
X143891000Y-60811904D01*
X144005285Y-60850000D01*
X144081476Y-60926190D01*
X144119571Y-61002380D01*
X144157666Y-61154761D01*
X144157666Y-61269047D01*
X144119571Y-61421428D01*
X144081476Y-61497619D01*
X144005285Y-61573809D01*
X143891000Y-61611904D01*
X143700523Y-61611904D01*
X142829786Y-64083809D02*
X142944072Y-64121904D01*
X143134548Y-64121904D01*
X143210739Y-64083809D01*
X143248834Y-64045714D01*
X143286929Y-63969523D01*
X143286929Y-63893333D01*
X143248834Y-63817142D01*
X143210739Y-63779047D01*
X143134548Y-63740952D01*
X142982167Y-63702857D01*
X142905977Y-63664761D01*
X142867881Y-63626666D01*
X142829786Y-63550476D01*
X142829786Y-63474285D01*
X142867881Y-63398095D01*
X142905977Y-63360000D01*
X142982167Y-63321904D01*
X143172643Y-63321904D01*
X143286929Y-63360000D01*
X143515500Y-63321904D02*
X143972643Y-63321904D01*
X143744072Y-64121904D02*
X143744072Y-63321904D01*
X142024333Y-65891904D02*
X142291000Y-66691904D01*
X142557666Y-65891904D01*
X143281476Y-66615714D02*
X143243380Y-66653809D01*
X143129095Y-66691904D01*
X143052904Y-66691904D01*
X142938619Y-66653809D01*
X142862428Y-66577619D01*
X142824333Y-66501428D01*
X142786238Y-66349047D01*
X142786238Y-66234761D01*
X142824333Y-66082380D01*
X142862428Y-66006190D01*
X142938619Y-65930000D01*
X143052904Y-65891904D01*
X143129095Y-65891904D01*
X143243380Y-65930000D01*
X143281476Y-65968095D01*
X144081476Y-66615714D02*
X144043380Y-66653809D01*
X143929095Y-66691904D01*
X143852904Y-66691904D01*
X143738619Y-66653809D01*
X143662428Y-66577619D01*
X143624333Y-66501428D01*
X143586238Y-66349047D01*
X143586238Y-66234761D01*
X143624333Y-66082380D01*
X143662428Y-66006190D01*
X143738619Y-65930000D01*
X143852904Y-65891904D01*
X143929095Y-65891904D01*
X144043380Y-65930000D01*
X144081476Y-65968095D01*
X142824333Y-68812857D02*
X142557666Y-68812857D01*
X142557666Y-69231904D02*
X142557666Y-68431904D01*
X142938619Y-68431904D01*
X143586238Y-68698571D02*
X143586238Y-69231904D01*
X143395761Y-68393809D02*
X143205285Y-68965238D01*
X143700523Y-68965238D01*
X142767190Y-78972857D02*
X142881476Y-79010952D01*
X142919571Y-79049047D01*
X142957666Y-79125238D01*
X142957666Y-79239523D01*
X142919571Y-79315714D01*
X142881476Y-79353809D01*
X142805285Y-79391904D01*
X142500523Y-79391904D01*
X142500523Y-78591904D01*
X142767190Y-78591904D01*
X142843380Y-78630000D01*
X142881476Y-78668095D01*
X142919571Y-78744285D01*
X142919571Y-78820476D01*
X142881476Y-78896666D01*
X142843380Y-78934761D01*
X142767190Y-78972857D01*
X142500523Y-78972857D01*
X143719571Y-79391904D02*
X143262428Y-79391904D01*
X143491000Y-79391904D02*
X143491000Y-78591904D01*
X143414809Y-78706190D01*
X143338619Y-78782380D01*
X143262428Y-78820476D01*
X142767190Y-81512857D02*
X142881476Y-81550952D01*
X142919571Y-81589047D01*
X142957666Y-81665238D01*
X142957666Y-81779523D01*
X142919571Y-81855714D01*
X142881476Y-81893809D01*
X142805285Y-81931904D01*
X142500523Y-81931904D01*
X142500523Y-81131904D01*
X142767190Y-81131904D01*
X142843380Y-81170000D01*
X142881476Y-81208095D01*
X142919571Y-81284285D01*
X142919571Y-81360476D01*
X142881476Y-81436666D01*
X142843380Y-81474761D01*
X142767190Y-81512857D01*
X142500523Y-81512857D01*
X143224333Y-81131904D02*
X143719571Y-81131904D01*
X143452904Y-81436666D01*
X143567190Y-81436666D01*
X143643380Y-81474761D01*
X143681476Y-81512857D01*
X143719571Y-81589047D01*
X143719571Y-81779523D01*
X143681476Y-81855714D01*
X143643380Y-81893809D01*
X143567190Y-81931904D01*
X143338619Y-81931904D01*
X143262428Y-81893809D01*
X143224333Y-81855714D01*
X131065008Y-85144297D02*
X131112148Y-85238578D01*
X131112148Y-85285719D01*
X131088578Y-85356429D01*
X131017867Y-85427140D01*
X130947157Y-85450710D01*
X130900016Y-85450710D01*
X130829306Y-85427140D01*
X130640744Y-85238578D01*
X131135719Y-84743603D01*
X131300710Y-84908595D01*
X131324280Y-84979306D01*
X131324280Y-85026446D01*
X131300710Y-85097157D01*
X131253570Y-85144297D01*
X131182859Y-85167867D01*
X131135719Y-85167867D01*
X131065008Y-85144297D01*
X130900016Y-84979306D01*
X131866396Y-85474280D02*
X131630693Y-85238578D01*
X131371421Y-85450710D01*
X131418561Y-85450710D01*
X131489272Y-85474280D01*
X131607123Y-85592132D01*
X131630693Y-85662842D01*
X131630693Y-85709983D01*
X131607123Y-85780693D01*
X131489272Y-85898544D01*
X131418561Y-85922115D01*
X131371421Y-85922115D01*
X131300710Y-85898544D01*
X131182859Y-85780693D01*
X131159289Y-85709983D01*
X131159289Y-85662842D01*
X131845190Y-84052857D02*
X131959476Y-84090952D01*
X131997571Y-84129047D01*
X132035666Y-84205238D01*
X132035666Y-84319523D01*
X131997571Y-84395714D01*
X131959476Y-84433809D01*
X131883285Y-84471904D01*
X131578523Y-84471904D01*
X131578523Y-83671904D01*
X131845190Y-83671904D01*
X131921380Y-83710000D01*
X131959476Y-83748095D01*
X131997571Y-83824285D01*
X131997571Y-83900476D01*
X131959476Y-83976666D01*
X131921380Y-84014761D01*
X131845190Y-84052857D01*
X131578523Y-84052857D01*
X132721380Y-83938571D02*
X132721380Y-84471904D01*
X132530904Y-83633809D02*
X132340428Y-84205238D01*
X132835666Y-84205238D01*
X131616619Y-81512857D02*
X131883285Y-81512857D01*
X131997571Y-81931904D02*
X131616619Y-81931904D01*
X131616619Y-81131904D01*
X131997571Y-81131904D01*
X132683285Y-81131904D02*
X132530904Y-81131904D01*
X132454714Y-81170000D01*
X132416619Y-81208095D01*
X132340428Y-81322380D01*
X132302333Y-81474761D01*
X132302333Y-81779523D01*
X132340428Y-81855714D01*
X132378523Y-81893809D01*
X132454714Y-81931904D01*
X132607095Y-81931904D01*
X132683285Y-81893809D01*
X132721380Y-81855714D01*
X132759476Y-81779523D01*
X132759476Y-81589047D01*
X132721380Y-81512857D01*
X132683285Y-81474761D01*
X132607095Y-81436666D01*
X132454714Y-81436666D01*
X132378523Y-81474761D01*
X132340428Y-81512857D01*
X132302333Y-81589047D01*
X131578523Y-79391904D02*
X131578523Y-78591904D01*
X131769000Y-78591904D01*
X131883285Y-78630000D01*
X131959476Y-78706190D01*
X131997571Y-78782380D01*
X132035666Y-78934761D01*
X132035666Y-79049047D01*
X131997571Y-79201428D01*
X131959476Y-79277619D01*
X131883285Y-79353809D01*
X131769000Y-79391904D01*
X131578523Y-79391904D01*
X132302333Y-78591904D02*
X132835666Y-78591904D01*
X132492809Y-79391904D01*
X132035666Y-76775714D02*
X131997571Y-76813809D01*
X131883285Y-76851904D01*
X131807095Y-76851904D01*
X131692809Y-76813809D01*
X131616619Y-76737619D01*
X131578523Y-76661428D01*
X131540428Y-76509047D01*
X131540428Y-76394761D01*
X131578523Y-76242380D01*
X131616619Y-76166190D01*
X131692809Y-76090000D01*
X131807095Y-76051904D01*
X131883285Y-76051904D01*
X131997571Y-76090000D01*
X132035666Y-76128095D01*
X132721380Y-76051904D02*
X132569000Y-76051904D01*
X132492809Y-76090000D01*
X132454714Y-76128095D01*
X132378523Y-76242380D01*
X132340428Y-76394761D01*
X132340428Y-76699523D01*
X132378523Y-76775714D01*
X132416619Y-76813809D01*
X132492809Y-76851904D01*
X132645190Y-76851904D01*
X132721380Y-76813809D01*
X132759476Y-76775714D01*
X132797571Y-76699523D01*
X132797571Y-76509047D01*
X132759476Y-76432857D01*
X132721380Y-76394761D01*
X132645190Y-76356666D01*
X132492809Y-76356666D01*
X132416619Y-76394761D01*
X132378523Y-76432857D01*
X132340428Y-76509047D01*
X131578523Y-74311904D02*
X131578523Y-73511904D01*
X131769000Y-73511904D01*
X131883285Y-73550000D01*
X131959476Y-73626190D01*
X131997571Y-73702380D01*
X132035666Y-73854761D01*
X132035666Y-73969047D01*
X131997571Y-74121428D01*
X131959476Y-74197619D01*
X131883285Y-74273809D01*
X131769000Y-74311904D01*
X131578523Y-74311904D01*
X132721380Y-73778571D02*
X132721380Y-74311904D01*
X132530904Y-73473809D02*
X132340428Y-74045238D01*
X132835666Y-74045238D01*
X131559476Y-63390000D02*
X131483285Y-63351904D01*
X131369000Y-63351904D01*
X131254714Y-63390000D01*
X131178523Y-63466190D01*
X131140428Y-63542380D01*
X131102333Y-63694761D01*
X131102333Y-63809047D01*
X131140428Y-63961428D01*
X131178523Y-64037619D01*
X131254714Y-64113809D01*
X131369000Y-64151904D01*
X131445190Y-64151904D01*
X131559476Y-64113809D01*
X131597571Y-64075714D01*
X131597571Y-63809047D01*
X131445190Y-63809047D01*
X131940428Y-64151904D02*
X131940428Y-63351904D01*
X132397571Y-64151904D01*
X132397571Y-63351904D01*
X132778523Y-64151904D02*
X132778523Y-63351904D01*
X132969000Y-63351904D01*
X133083285Y-63390000D01*
X133159476Y-63466190D01*
X133197571Y-63542380D01*
X133235666Y-63694761D01*
X133235666Y-63809047D01*
X133197571Y-63961428D01*
X133159476Y-64037619D01*
X133083285Y-64113809D01*
X132969000Y-64151904D01*
X132778523Y-64151904D01*
X131559476Y-65930000D02*
X131483285Y-65891904D01*
X131369000Y-65891904D01*
X131254714Y-65930000D01*
X131178523Y-66006190D01*
X131140428Y-66082380D01*
X131102333Y-66234761D01*
X131102333Y-66349047D01*
X131140428Y-66501428D01*
X131178523Y-66577619D01*
X131254714Y-66653809D01*
X131369000Y-66691904D01*
X131445190Y-66691904D01*
X131559476Y-66653809D01*
X131597571Y-66615714D01*
X131597571Y-66349047D01*
X131445190Y-66349047D01*
X131940428Y-66691904D02*
X131940428Y-65891904D01*
X132397571Y-66691904D01*
X132397571Y-65891904D01*
X132778523Y-66691904D02*
X132778523Y-65891904D01*
X132969000Y-65891904D01*
X133083285Y-65930000D01*
X133159476Y-66006190D01*
X133197571Y-66082380D01*
X133235666Y-66234761D01*
X133235666Y-66349047D01*
X133197571Y-66501428D01*
X133159476Y-66577619D01*
X133083285Y-66653809D01*
X132969000Y-66691904D01*
X132778523Y-66691904D01*
X131578523Y-69231904D02*
X131578523Y-68431904D01*
X131769000Y-68431904D01*
X131883285Y-68470000D01*
X131959476Y-68546190D01*
X131997571Y-68622380D01*
X132035666Y-68774761D01*
X132035666Y-68889047D01*
X131997571Y-69041428D01*
X131959476Y-69117619D01*
X131883285Y-69193809D01*
X131769000Y-69231904D01*
X131578523Y-69231904D01*
X132797571Y-69231904D02*
X132340428Y-69231904D01*
X132569000Y-69231904D02*
X132569000Y-68431904D01*
X132492809Y-68546190D01*
X132416619Y-68622380D01*
X132340428Y-68660476D01*
X131578523Y-71771904D02*
X131578523Y-70971904D01*
X131769000Y-70971904D01*
X131883285Y-71010000D01*
X131959476Y-71086190D01*
X131997571Y-71162380D01*
X132035666Y-71314761D01*
X132035666Y-71429047D01*
X131997571Y-71581428D01*
X131959476Y-71657619D01*
X131883285Y-71733809D01*
X131769000Y-71771904D01*
X131578523Y-71771904D01*
X132530904Y-70971904D02*
X132607095Y-70971904D01*
X132683285Y-71010000D01*
X132721380Y-71048095D01*
X132759476Y-71124285D01*
X132797571Y-71276666D01*
X132797571Y-71467142D01*
X132759476Y-71619523D01*
X132721380Y-71695714D01*
X132683285Y-71733809D01*
X132607095Y-71771904D01*
X132530904Y-71771904D01*
X132454714Y-71733809D01*
X132416619Y-71695714D01*
X132378523Y-71619523D01*
X132340428Y-71467142D01*
X132340428Y-71276666D01*
X132378523Y-71124285D01*
X132416619Y-71048095D01*
X132454714Y-71010000D01*
X132530904Y-70971904D01*
X131578523Y-61611904D02*
X131578523Y-60811904D01*
X131769000Y-60811904D01*
X131883285Y-60850000D01*
X131959476Y-60926190D01*
X131997571Y-61002380D01*
X132035666Y-61154761D01*
X132035666Y-61269047D01*
X131997571Y-61421428D01*
X131959476Y-61497619D01*
X131883285Y-61573809D01*
X131769000Y-61611904D01*
X131578523Y-61611904D01*
X132340428Y-60888095D02*
X132378523Y-60850000D01*
X132454714Y-60811904D01*
X132645190Y-60811904D01*
X132721380Y-60850000D01*
X132759476Y-60888095D01*
X132797571Y-60964285D01*
X132797571Y-61040476D01*
X132759476Y-61154761D01*
X132302333Y-61611904D01*
X132797571Y-61611904D01*
X131867651Y-58271904D02*
X132324794Y-58271904D01*
X132096223Y-59071904D02*
X132096223Y-58271904D01*
X132515270Y-58271904D02*
X133048604Y-59071904D01*
X133048604Y-58271904D02*
X132515270Y-59071904D01*
X133505747Y-58271904D02*
X133581937Y-58271904D01*
X133658128Y-58310000D01*
X133696223Y-58348095D01*
X133734318Y-58424285D01*
X133772413Y-58576666D01*
X133772413Y-58767142D01*
X133734318Y-58919523D01*
X133696223Y-58995714D01*
X133658128Y-59033809D01*
X133581937Y-59071904D01*
X133505747Y-59071904D01*
X133429556Y-59033809D01*
X133391461Y-58995714D01*
X133353366Y-58919523D01*
X133315270Y-58767142D01*
X133315270Y-58576666D01*
X133353366Y-58424285D01*
X133391461Y-58348095D01*
X133429556Y-58310000D01*
X133505747Y-58271904D01*
X134686699Y-58233809D02*
X134000985Y-59262380D01*
X134953366Y-59071904D02*
X134953366Y-58271904D01*
X135143842Y-58271904D01*
X135258128Y-58310000D01*
X135334318Y-58386190D01*
X135372413Y-58462380D01*
X135410508Y-58614761D01*
X135410508Y-58729047D01*
X135372413Y-58881428D01*
X135334318Y-58957619D01*
X135258128Y-59033809D01*
X135143842Y-59071904D01*
X134953366Y-59071904D01*
X135677175Y-58271904D02*
X136172413Y-58271904D01*
X135905747Y-58576666D01*
X136020032Y-58576666D01*
X136096223Y-58614761D01*
X136134318Y-58652857D01*
X136172413Y-58729047D01*
X136172413Y-58919523D01*
X136134318Y-58995714D01*
X136096223Y-59033809D01*
X136020032Y-59071904D01*
X135791461Y-59071904D01*
X135715270Y-59033809D01*
X135677175Y-58995714D01*
X132846666Y-85230000D02*
X132946666Y-85263333D01*
X132980000Y-85296666D01*
X133013333Y-85363333D01*
X133013333Y-85463333D01*
X132980000Y-85530000D01*
X132946666Y-85563333D01*
X132880000Y-85596666D01*
X132613333Y-85596666D01*
X132613333Y-84896666D01*
X132846666Y-84896666D01*
X132913333Y-84930000D01*
X132946666Y-84963333D01*
X132980000Y-85030000D01*
X132980000Y-85096666D01*
X132946666Y-85163333D01*
X132913333Y-85196666D01*
X132846666Y-85230000D01*
X132613333Y-85230000D01*
X133246666Y-84896666D02*
X133713333Y-84896666D01*
X133413333Y-85596666D01*
X141896666Y-85230000D02*
X141663333Y-85230000D01*
X141663333Y-85596666D02*
X141663333Y-84896666D01*
X141996666Y-84896666D01*
X142396666Y-84896666D02*
X142463333Y-84896666D01*
X142530000Y-84930000D01*
X142563333Y-84963333D01*
X142596666Y-85030000D01*
X142630000Y-85163333D01*
X142630000Y-85330000D01*
X142596666Y-85463333D01*
X142563333Y-85530000D01*
X142530000Y-85563333D01*
X142463333Y-85596666D01*
X142396666Y-85596666D01*
X142330000Y-85563333D01*
X142296666Y-85530000D01*
X142263333Y-85463333D01*
X142230000Y-85330000D01*
X142230000Y-85163333D01*
X142263333Y-85030000D01*
X142296666Y-84963333D01*
X142330000Y-84930000D01*
X142396666Y-84896666D01*
X143794297Y-85544991D02*
X143888578Y-85497851D01*
X143935719Y-85497851D01*
X144006429Y-85521421D01*
X144077140Y-85592132D01*
X144100710Y-85662842D01*
X144100710Y-85709983D01*
X144077140Y-85780693D01*
X143888578Y-85969255D01*
X143393603Y-85474280D01*
X143558595Y-85309289D01*
X143629306Y-85285719D01*
X143676446Y-85285719D01*
X143747157Y-85309289D01*
X143794297Y-85356429D01*
X143817867Y-85427140D01*
X143817867Y-85474280D01*
X143794297Y-85544991D01*
X143629306Y-85709983D01*
X144100710Y-84767174D02*
X144006429Y-84861455D01*
X143982859Y-84932165D01*
X143982859Y-84979306D01*
X144006429Y-85097157D01*
X144077140Y-85215008D01*
X144265702Y-85403570D01*
X144336412Y-85427140D01*
X144383553Y-85427140D01*
X144454264Y-85403570D01*
X144548544Y-85309289D01*
X144572115Y-85238578D01*
X144572115Y-85191438D01*
X144548544Y-85120727D01*
X144430693Y-85002876D01*
X144359983Y-84979306D01*
X144312842Y-84979306D01*
X144242132Y-85002876D01*
X144147851Y-85097157D01*
X144124280Y-85167867D01*
X144124280Y-85215008D01*
X144147851Y-85285719D01*
X137496666Y-85365714D02*
X137458571Y-85403809D01*
X137344285Y-85441904D01*
X137268095Y-85441904D01*
X137153809Y-85403809D01*
X137077619Y-85327619D01*
X137039523Y-85251428D01*
X137001428Y-85099047D01*
X137001428Y-84984761D01*
X137039523Y-84832380D01*
X137077619Y-84756190D01*
X137153809Y-84680000D01*
X137268095Y-84641904D01*
X137344285Y-84641904D01*
X137458571Y-84680000D01*
X137496666Y-84718095D01*
X137763333Y-84641904D02*
X138296666Y-84641904D01*
X137953809Y-85441904D01*
X139903333Y-85022857D02*
X139636666Y-85022857D01*
X139636666Y-85441904D02*
X139636666Y-84641904D01*
X140017619Y-84641904D01*
X140741428Y-85441904D02*
X140284285Y-85441904D01*
X140512857Y-85441904D02*
X140512857Y-84641904D01*
X140436666Y-84756190D01*
X140360476Y-84832380D01*
X140284285Y-84870476D01*
X134499523Y-85441904D02*
X134499523Y-84641904D01*
X134690000Y-84641904D01*
X134804285Y-84680000D01*
X134880476Y-84756190D01*
X134918571Y-84832380D01*
X134956666Y-84984761D01*
X134956666Y-85099047D01*
X134918571Y-85251428D01*
X134880476Y-85327619D01*
X134804285Y-85403809D01*
X134690000Y-85441904D01*
X134499523Y-85441904D01*
X135680476Y-84641904D02*
X135299523Y-84641904D01*
X135261428Y-85022857D01*
X135299523Y-84984761D01*
X135375714Y-84946666D01*
X135566190Y-84946666D01*
X135642380Y-84984761D01*
X135680476Y-85022857D01*
X135718571Y-85099047D01*
X135718571Y-85289523D01*
X135680476Y-85365714D01*
X135642380Y-85403809D01*
X135566190Y-85441904D01*
X135375714Y-85441904D01*
X135299523Y-85403809D01*
X135261428Y-85365714D01*
M02*
