  0
SECTION
  2
BLOCKS
  0
ENDSEC
  0
SECTION
  2
ENTITIES
  0
LINE
  8
0
 10
39.1628
 20
0.00198364
 11
39.2253
 21
0.00788879
  0
LINE
  8
0
 10
39.2253
 20
0.00788879
 11
39.2874
 21
0.0177155
  0
LINE
  8
0
 10
39.2874
 20
0.0177155
 11
39.3487
 21
0.0314178
  0
LINE
  8
0
 10
39.3487
 20
0.0314178
 11
39.409
 21
0.0489502
  0
LINE
  8
0
 10
39.409
 20
0.0489502
 11
39.4681
 21
0.0702362
  0
LINE
  8
0
 10
39.4681
 20
0.0702362
 11
39.5258
 21
0.0951843
  0
LINE
  8
0
 10
39.5258
 20
0.0951843
 11
39.5817
 21
0.123703
  0
LINE
  8
0
 10
39.5817
 20
0.123703
 11
39.6358
 21
0.155685
  0
LINE
  8
0
 10
39.6358
 20
0.155685
 11
39.6878
 21
0.190994
  0
LINE
  8
0
 10
39.6878
 20
0.190994
 11
39.7374
 21
0.229492
  0
LINE
  8
0
 10
39.7374
 20
0.229492
 11
39.7845
 21
0.271042
  0
LINE
  8
0
 10
39.7845
 20
0.271042
 11
39.8289
 21
0.31546
  0
LINE
  8
0
 10
39.8289
 20
0.31546
 11
39.8705
 21
0.362579
  0
LINE
  8
0
 10
39.8705
 20
0.362579
 11
39.909
 21
0.412216
  0
LINE
  8
0
 10
39.909
 20
0.412216
 11
39.9443
 21
0.464188
  0
LINE
  8
0
 10
39.9443
 20
0.464188
 11
39.9763
 21
0.51825
  0
LINE
  8
0
 10
39.9763
 20
0.51825
 11
40.0048
 21
0.574234
  0
LINE
  8
0
 10
40.0048
 20
0.574234
 11
40.0298
 21
0.631882
  0
LINE
  8
0
 10
40.0298
 20
0.631882
 11
40.051
 21
0.690994
  0
LINE
  8
0
 10
40.051
 20
0.690994
 11
40.0686
 21
0.751312
  0
LINE
  8
0
 10
40.0686
 20
0.751312
 11
40.0823
 21
0.812622
  0
LINE
  8
0
 10
40.0823
 20
0.812622
 11
40.0921
 21
0.87468
  0
LINE
  8
0
 10
40.0921
 20
0.87468
 11
40.098
 21
0.93721
  0
LINE
  8
0
 10
40.098
 20
0.93721
 11
40.1
 21
1
  0
LINE
  8
0
 10
40.1
 20
1
 11
40.1
 21
4.7625
  0
LINE
  8
0
 10
40.1
 20
4.7625
 11
58.15
 21
4.7625
  0
LINE
  8
0
 10
58.15
 20
4.7625
 11
58.2128
 21
4.76448
  0
LINE
  8
0
 10
58.2128
 20
4.76448
 11
58.2753
 21
4.77039
  0
LINE
  8
0
 10
58.2753
 20
4.77039
 11
58.3374
 21
4.78021
  0
LINE
  8
0
 10
58.3374
 20
4.78021
 11
58.3987
 21
4.79391
  0
LINE
  8
0
 10
58.3987
 20
4.79391
 11
58.459
 21
4.81145
  0
LINE
  8
0
 10
58.459
 20
4.81145
 11
58.5181
 21
4.83273
  0
LINE
  8
0
 10
58.5181
 20
4.83273
 11
58.5758
 21
4.85768
  0
LINE
  8
0
 10
58.5758
 20
4.85768
 11
58.6317
 21
4.8862
  0
LINE
  8
0
 10
58.6317
 20
4.8862
 11
58.6858
 21
4.91818
  0
LINE
  8
0
 10
58.6858
 20
4.91818
 11
58.7378
 21
4.95349
  0
LINE
  8
0
 10
58.7378
 20
4.95349
 11
58.7874
 21
4.99199
  0
LINE
  8
0
 10
58.7874
 20
4.99199
 11
58.8345
 21
5.03354
  0
LINE
  8
0
 10
58.8345
 20
5.03354
 11
58.879
 21
5.07796
  0
LINE
  8
0
 10
58.879
 20
5.07796
 11
58.9205
 21
5.12508
  0
LINE
  8
0
 10
58.9205
 20
5.12508
 11
58.959
 21
5.17471
  0
LINE
  8
0
 10
58.959
 20
5.17471
 11
58.9943
 21
5.22668
  0
LINE
  8
0
 10
58.9943
 20
5.22668
 11
59.0263
 21
5.28075
  0
LINE
  8
0
 10
59.0263
 20
5.28075
 11
59.0548
 21
5.33673
  0
LINE
  8
0
 10
59.0548
 20
5.33673
 11
59.0798
 21
5.39438
  0
LINE
  8
0
 10
59.0798
 20
5.39438
 11
59.101
 21
5.45349
  0
LINE
  8
0
 10
59.101
 20
5.45349
 11
59.1186
 21
5.51381
  0
LINE
  8
0
 10
59.1186
 20
5.51381
 11
59.1323
 21
5.57512
  0
LINE
  8
0
 10
59.1323
 20
5.57512
 11
59.1421
 21
5.63718
  0
LINE
  8
0
 10
59.1421
 20
5.63718
 11
59.148
 21
5.69971
  0
LINE
  8
0
 10
59.148
 20
5.69971
 11
59.15
 21
5.7625
  0
LINE
  8
0
 10
59.15
 20
5.7625
 11
59.15
 21
7.04849
  0
LINE
  8
0
 10
59.15
 20
7.04849
 11
76.2
 21
7.04849
  0
LINE
  8
0
 10
76.2
 20
7.04849
 11
76.2
 21
5.7625
  0
LINE
  8
0
 10
76.2
 20
5.7625
 11
76.202
 21
5.69971
  0
LINE
  8
0
 10
76.202
 20
5.69971
 11
76.2079
 21
5.63718
  0
LINE
  8
0
 10
76.2079
 20
5.63718
 11
76.2177
 21
5.57512
  0
LINE
  8
0
 10
76.2177
 20
5.57512
 11
76.2314
 21
5.51381
  0
LINE
  8
0
 10
76.2314
 20
5.51381
 11
76.2489
 21
5.45349
  0
LINE
  8
0
 10
76.2489
 20
5.45349
 11
76.2702
 21
5.39438
  0
LINE
  8
0
 10
76.2702
 20
5.39438
 11
76.2952
 21
5.33673
  0
LINE
  8
0
 10
76.2952
 20
5.33673
 11
76.3237
 21
5.28075
  0
LINE
  8
0
 10
76.3237
 20
5.28075
 11
76.3557
 21
5.22668
  0
LINE
  8
0
 10
76.3557
 20
5.22668
 11
76.391
 21
5.17471
  0
LINE
  8
0
 10
76.391
 20
5.17471
 11
76.4295
 21
5.12508
  0
LINE
  8
0
 10
76.4295
 20
5.12508
 11
76.471
 21
5.07796
  0
LINE
  8
0
 10
76.471
 20
5.07796
 11
76.5155
 21
5.03354
  0
LINE
  8
0
 10
76.5155
 20
5.03354
 11
76.5626
 21
4.99199
  0
LINE
  8
0
 10
76.5626
 20
4.99199
 11
76.6122
 21
4.95349
  0
LINE
  8
0
 10
76.6122
 20
4.95349
 11
76.6642
 21
4.91818
  0
LINE
  8
0
 10
76.6642
 20
4.91818
 11
76.7182
 21
4.8862
  0
LINE
  8
0
 10
76.7182
 20
4.8862
 11
76.7742
 21
4.85768
  0
LINE
  8
0
 10
76.7742
 20
4.85768
 11
76.8319
 21
4.83273
  0
LINE
  8
0
 10
76.8319
 20
4.83273
 11
76.891
 21
4.81145
  0
LINE
  8
0
 10
76.891
 20
4.81145
 11
76.9513
 21
4.79391
  0
LINE
  8
0
 10
76.9513
 20
4.79391
 11
77.0126
 21
4.78021
  0
LINE
  8
0
 10
77.0126
 20
4.78021
 11
77.0747
 21
4.77039
  0
LINE
  8
0
 10
77.0747
 20
4.77039
 11
77.1372
 21
4.76448
  0
LINE
  8
0
 10
77.1372
 20
4.76448
 11
77.2
 21
4.7625
  0
LINE
  8
0
 10
77.2
 20
4.7625
 11
95.25
 21
4.7625
  0
LINE
  8
0
 10
95.25
 20
4.7625
 11
95.25
 21
3.286
  0
LINE
  8
0
 10
95.25
 20
3.286
 11
95.252
 21
3.22321
  0
LINE
  8
0
 10
95.252
 20
3.22321
 11
95.2579
 21
3.16068
  0
LINE
  8
0
 10
95.2579
 20
3.16068
 11
95.2677
 21
3.09862
  0
LINE
  8
0
 10
95.2677
 20
3.09862
 11
95.2814
 21
3.03731
  0
LINE
  8
0
 10
95.2814
 20
3.03731
 11
95.299
 21
2.97699
  0
LINE
  8
0
 10
95.299
 20
2.97699
 11
95.3202
 21
2.91788
  0
LINE
  8
0
 10
95.3202
 20
2.91788
 11
95.3452
 21
2.86023
  0
LINE
  8
0
 10
95.3452
 20
2.86023
 11
95.3737
 21
2.80424
  0
LINE
  8
0
 10
95.3737
 20
2.80424
 11
95.4057
 21
2.75018
  0
LINE
  8
0
 10
95.4057
 20
2.75018
 11
95.441
 21
2.69821
  0
LINE
  8
0
 10
95.441
 20
2.69821
 11
95.4795
 21
2.64857
  0
LINE
  8
0
 10
95.4795
 20
2.64857
 11
95.521
 21
2.60146
  0
LINE
  8
0
 10
95.521
 20
2.60146
 11
95.5655
 21
2.55704
  0
LINE
  8
0
 10
95.5655
 20
2.55704
 11
95.6126
 21
2.51549
  0
LINE
  8
0
 10
95.6126
 20
2.51549
 11
95.6622
 21
2.47699
  0
LINE
  8
0
 10
95.6622
 20
2.47699
 11
95.7142
 21
2.44168
  0
LINE
  8
0
 10
95.7142
 20
2.44168
 11
95.7682
 21
2.4097
  0
LINE
  8
0
 10
95.7682
 20
2.4097
 11
95.8242
 21
2.38118
  0
LINE
  8
0
 10
95.8242
 20
2.38118
 11
95.8819
 21
2.35623
  0
LINE
  8
0
 10
95.8819
 20
2.35623
 11
95.941
 21
2.33495
  0
LINE
  8
0
 10
95.941
 20
2.33495
 11
96.0013
 21
2.31741
  0
LINE
  8
0
 10
96.0013
 20
2.31741
 11
96.0626
 21
2.30371
  0
LINE
  8
0
 10
96.0626
 20
2.30371
 11
96.1247
 21
2.29388
  0
LINE
  8
0
 10
96.1247
 20
2.29388
 11
96.1872
 21
2.28798
  0
LINE
  8
0
 10
96.1872
 20
2.28798
 11
96.25
 21
2.286
  0
LINE
  8
0
 10
96.25
 20
2.286
 11
115.3
 21
2.286
  0
LINE
  8
0
 10
115.3
 20
2.286
 11
115.363
 21
2.28798
  0
LINE
  8
0
 10
115.363
 20
2.28798
 11
115.425
 21
2.29388
  0
LINE
  8
0
 10
115.425
 20
2.29388
 11
115.487
 21
2.30371
  0
LINE
  8
0
 10
115.487
 20
2.30371
 11
115.549
 21
2.31741
  0
LINE
  8
0
 10
115.549
 20
2.31741
 11
115.609
 21
2.33495
  0
LINE
  8
0
 10
115.609
 20
2.33495
 11
115.668
 21
2.35623
  0
LINE
  8
0
 10
115.668
 20
2.35623
 11
115.726
 21
2.38118
  0
LINE
  8
0
 10
115.726
 20
2.38118
 11
115.782
 21
2.4097
  0
LINE
  8
0
 10
115.782
 20
2.4097
 11
115.836
 21
2.44168
  0
LINE
  8
0
 10
115.836
 20
2.44168
 11
115.888
 21
2.47699
  0
LINE
  8
0
 10
115.888
 20
2.47699
 11
115.937
 21
2.51549
  0
LINE
  8
0
 10
115.937
 20
2.51549
 11
115.985
 21
2.55704
  0
LINE
  8
0
 10
115.985
 20
2.55704
 11
116.029
 21
2.60146
  0
LINE
  8
0
 10
116.029
 20
2.60146
 11
116.07
 21
2.64857
  0
LINE
  8
0
 10
116.07
 20
2.64857
 11
116.109
 21
2.69821
  0
LINE
  8
0
 10
116.109
 20
2.69821
 11
116.144
 21
2.75018
  0
LINE
  8
0
 10
116.144
 20
2.75018
 11
116.176
 21
2.80424
  0
LINE
  8
0
 10
116.176
 20
2.80424
 11
116.205
 21
2.86023
  0
LINE
  8
0
 10
116.205
 20
2.86023
 11
116.23
 21
2.91788
  0
LINE
  8
0
 10
116.23
 20
2.91788
 11
116.251
 21
2.97699
  0
LINE
  8
0
 10
116.251
 20
2.97699
 11
116.269
 21
3.03731
  0
LINE
  8
0
 10
116.269
 20
3.03731
 11
116.282
 21
3.09862
  0
LINE
  8
0
 10
116.282
 20
3.09862
 11
116.292
 21
3.16068
  0
LINE
  8
0
 10
116.292
 20
3.16068
 11
116.298
 21
3.22321
  0
LINE
  8
0
 10
116.298
 20
3.22321
 11
116.3
 21
3.286
  0
LINE
  8
0
 10
116.3
 20
3.286
 11
116.3
 21
60.436
  0
LINE
  8
0
 10
116.3
 20
60.436
 11
116.298
 21
60.4988
  0
LINE
  8
0
 10
116.298
 20
60.4988
 11
116.292
 21
60.5613
  0
LINE
  8
0
 10
116.292
 20
60.5613
 11
116.282
 21
60.6234
  0
LINE
  8
0
 10
116.282
 20
60.6234
 11
116.269
 21
60.6847
  0
LINE
  8
0
 10
116.269
 20
60.6847
 11
116.251
 21
60.745
  0
LINE
  8
0
 10
116.251
 20
60.745
 11
116.23
 21
60.8041
  0
LINE
  8
0
 10
116.23
 20
60.8041
 11
116.205
 21
60.8618
  0
LINE
  8
0
 10
116.205
 20
60.8618
 11
116.176
 21
60.9177
  0
LINE
  8
0
 10
116.176
 20
60.9177
 11
116.144
 21
60.9718
  0
LINE
  8
0
 10
116.144
 20
60.9718
 11
116.109
 21
61.0238
  0
LINE
  8
0
 10
116.109
 20
61.0238
 11
116.07
 21
61.0734
  0
LINE
  8
0
 10
116.07
 20
61.0734
 11
116.029
 21
61.1205
  0
LINE
  8
0
 10
116.029
 20
61.1205
 11
115.985
 21
61.1649
  0
LINE
  8
0
 10
115.985
 20
61.1649
 11
115.937
 21
61.2065
  0
LINE
  8
0
 10
115.937
 20
61.2065
 11
115.888
 21
61.245
  0
LINE
  8
0
 10
115.888
 20
61.245
 11
115.836
 21
61.2803
  0
LINE
  8
0
 10
115.836
 20
61.2803
 11
115.782
 21
61.3123
  0
LINE
  8
0
 10
115.782
 20
61.3123
 11
115.726
 21
61.3408
  0
LINE
  8
0
 10
115.726
 20
61.3408
 11
115.668
 21
61.3658
  0
LINE
  8
0
 10
115.668
 20
61.3658
 11
115.609
 21
61.387
  0
LINE
  8
0
 10
115.609
 20
61.387
 11
115.549
 21
61.4046
  0
LINE
  8
0
 10
115.549
 20
61.4046
 11
115.487
 21
61.4183
  0
LINE
  8
0
 10
115.487
 20
61.4183
 11
115.425
 21
61.4281
  0
LINE
  8
0
 10
115.425
 20
61.4281
 11
115.363
 21
61.434
  0
LINE
  8
0
 10
115.363
 20
61.434
 11
115.3
 21
61.436
  0
LINE
  8
0
 10
115.3
 20
61.436
 11
97.25
 21
61.436
  0
LINE
  8
0
 10
97.25
 20
61.436
 11
97.25
 21
62.9125
  0
LINE
  8
0
 10
97.25
 20
62.9125
 11
97.248
 21
62.9753
  0
LINE
  8
0
 10
97.248
 20
62.9753
 11
97.2421
 21
63.0378
  0
LINE
  8
0
 10
97.2421
 20
63.0378
 11
97.2323
 21
63.0999
  0
LINE
  8
0
 10
97.2323
 20
63.0999
 11
97.2186
 21
63.1612
  0
LINE
  8
0
 10
97.2186
 20
63.1612
 11
97.201
 21
63.2215
  0
LINE
  8
0
 10
97.201
 20
63.2215
 11
97.1798
 21
63.2806
  0
LINE
  8
0
 10
97.1798
 20
63.2806
 11
97.1548
 21
63.3383
  0
LINE
  8
0
 10
97.1548
 20
63.3383
 11
97.1263
 21
63.3942
  0
LINE
  8
0
 10
97.1263
 20
63.3942
 11
97.0943
 21
63.4483
  0
LINE
  8
0
 10
97.0943
 20
63.4483
 11
97.059
 21
63.5003
  0
LINE
  8
0
 10
97.059
 20
63.5003
 11
97.0205
 21
63.5499
  0
LINE
  8
0
 10
97.0205
 20
63.5499
 11
96.979
 21
63.597
  0
LINE
  8
0
 10
96.979
 20
63.597
 11
96.9345
 21
63.6414
  0
LINE
  8
0
 10
96.9345
 20
63.6414
 11
96.8874
 21
63.683
  0
LINE
  8
0
 10
96.8874
 20
63.683
 11
96.8378
 21
63.7215
  0
LINE
  8
0
 10
96.8378
 20
63.7215
 11
96.7858
 21
63.7568
  0
LINE
  8
0
 10
96.7858
 20
63.7568
 11
96.7318
 21
63.7888
  0
LINE
  8
0
 10
96.7318
 20
63.7888
 11
96.6758
 21
63.8173
  0
LINE
  8
0
 10
96.6758
 20
63.8173
 11
96.6181
 21
63.8423
  0
LINE
  8
0
 10
96.6181
 20
63.8423
 11
96.559
 21
63.8635
  0
LINE
  8
0
 10
96.559
 20
63.8635
 11
96.4987
 21
63.8811
  0
LINE
  8
0
 10
96.4987
 20
63.8811
 11
96.4374
 21
63.8948
  0
LINE
  8
0
 10
96.4374
 20
63.8948
 11
96.3753
 21
63.9046
  0
LINE
  8
0
 10
96.3753
 20
63.9046
 11
96.3128
 21
63.9105
  0
LINE
  8
0
 10
96.3128
 20
63.9105
 11
96.25
 21
63.9125
  0
LINE
  8
0
 10
96.25
 20
63.9125
 11
78.2
 21
63.9125
  0
LINE
  8
0
 10
78.2
 20
63.9125
 11
78.2
 21
65.1985
  0
LINE
  8
0
 10
78.2
 20
65.1985
 11
78.198
 21
65.2613
  0
LINE
  8
0
 10
78.198
 20
65.2613
 11
78.1921
 21
65.3238
  0
LINE
  8
0
 10
78.1921
 20
65.3238
 11
78.1823
 21
65.3859
  0
LINE
  8
0
 10
78.1823
 20
65.3859
 11
78.1686
 21
65.4472
  0
LINE
  8
0
 10
78.1686
 20
65.4472
 11
78.151
 21
65.5075
  0
LINE
  8
0
 10
78.151
 20
65.5075
 11
78.1298
 21
65.5666
  0
LINE
  8
0
 10
78.1298
 20
65.5666
 11
78.1048
 21
65.6243
  0
LINE
  8
0
 10
78.1048
 20
65.6243
 11
78.0763
 21
65.6802
  0
LINE
  8
0
 10
78.0763
 20
65.6802
 11
78.0443
 21
65.7343
  0
LINE
  8
0
 10
78.0443
 20
65.7343
 11
78.009
 21
65.7863
  0
LINE
  8
0
 10
78.009
 20
65.7863
 11
77.9705
 21
65.8359
  0
LINE
  8
0
 10
77.9705
 20
65.8359
 11
77.929
 21
65.883
  0
LINE
  8
0
 10
77.929
 20
65.883
 11
77.8845
 21
65.9274
  0
LINE
  8
0
 10
77.8845
 20
65.9274
 11
77.8374
 21
65.969
  0
LINE
  8
0
 10
77.8374
 20
65.969
 11
77.7878
 21
66.0075
  0
LINE
  8
0
 10
77.7878
 20
66.0075
 11
77.7358
 21
66.0428
  0
LINE
  8
0
 10
77.7358
 20
66.0428
 11
77.6817
 21
66.0748
  0
LINE
  8
0
 10
77.6817
 20
66.0748
 11
77.6258
 21
66.1033
  0
LINE
  8
0
 10
77.6258
 20
66.1033
 11
77.5681
 21
66.1283
  0
LINE
  8
0
 10
77.5681
 20
66.1283
 11
77.509
 21
66.1495
  0
LINE
  8
0
 10
77.509
 20
66.1495
 11
77.4487
 21
66.1671
  0
LINE
  8
0
 10
77.4487
 20
66.1671
 11
77.3874
 21
66.1808
  0
LINE
  8
0
 10
77.3874
 20
66.1808
 11
77.3253
 21
66.1906
  0
LINE
  8
0
 10
77.3253
 20
66.1906
 11
77.2628
 21
66.1965
  0
LINE
  8
0
 10
77.2628
 20
66.1965
 11
77.2
 21
66.1985
  0
LINE
  8
0
 10
77.2
 20
66.1985
 11
58.15
 21
66.1985
  0
LINE
  8
0
 10
58.15
 20
66.1985
 11
58.0872
 21
66.1965
  0
LINE
  8
0
 10
58.0872
 20
66.1965
 11
58.0247
 21
66.1906
  0
LINE
  8
0
 10
58.0247
 20
66.1906
 11
57.9626
 21
66.1808
  0
LINE
  8
0
 10
57.9626
 20
66.1808
 11
57.9013
 21
66.1671
  0
LINE
  8
0
 10
57.9013
 20
66.1671
 11
57.841
 21
66.1495
  0
LINE
  8
0
 10
57.841
 20
66.1495
 11
57.7819
 21
66.1283
  0
LINE
  8
0
 10
57.7819
 20
66.1283
 11
57.7242
 21
66.1033
  0
LINE
  8
0
 10
57.7242
 20
66.1033
 11
57.6682
 21
66.0748
  0
LINE
  8
0
 10
57.6682
 20
66.0748
 11
57.6142
 21
66.0428
  0
LINE
  8
0
 10
57.6142
 20
66.0428
 11
57.5622
 21
66.0075
  0
LINE
  8
0
 10
57.5622
 20
66.0075
 11
57.5126
 21
65.969
  0
LINE
  8
0
 10
57.5126
 20
65.969
 11
57.4655
 21
65.9274
  0
LINE
  8
0
 10
57.4655
 20
65.9274
 11
57.421
 21
65.883
  0
LINE
  8
0
 10
57.421
 20
65.883
 11
57.3795
 21
65.8359
  0
LINE
  8
0
 10
57.3795
 20
65.8359
 11
57.341
 21
65.7863
  0
LINE
  8
0
 10
57.341
 20
65.7863
 11
57.3057
 21
65.7343
  0
LINE
  8
0
 10
57.3057
 20
65.7343
 11
57.2737
 21
65.6802
  0
LINE
  8
0
 10
57.2737
 20
65.6802
 11
57.2452
 21
65.6243
  0
LINE
  8
0
 10
57.2452
 20
65.6243
 11
57.2202
 21
65.5666
  0
LINE
  8
0
 10
57.2202
 20
65.5666
 11
57.1989
 21
65.5075
  0
LINE
  8
0
 10
57.1989
 20
65.5075
 11
57.1814
 21
65.4472
  0
LINE
  8
0
 10
57.1814
 20
65.4472
 11
57.1677
 21
65.3859
  0
LINE
  8
0
 10
57.1677
 20
65.3859
 11
57.1579
 21
65.3238
  0
LINE
  8
0
 10
57.1579
 20
65.3238
 11
57.152
 21
65.2613
  0
LINE
  8
0
 10
57.152
 20
65.2613
 11
57.15
 21
65.1985
  0
LINE
  8
0
 10
57.15
 20
65.1985
 11
57.15
 21
63.9125
  0
LINE
  8
0
 10
57.15
 20
63.9125
 11
39.1
 21
63.9125
  0
LINE
  8
0
 10
39.1
 20
63.9125
 11
39.0372
 21
63.9105
  0
LINE
  8
0
 10
39.0372
 20
63.9105
 11
38.9747
 21
63.9046
  0
LINE
  8
0
 10
38.9747
 20
63.9046
 11
38.9126
 21
63.8948
  0
LINE
  8
0
 10
38.9126
 20
63.8948
 11
38.8513
 21
63.8811
  0
LINE
  8
0
 10
38.8513
 20
63.8811
 11
38.791
 21
63.8635
  0
LINE
  8
0
 10
38.791
 20
63.8635
 11
38.7319
 21
63.8423
  0
LINE
  8
0
 10
38.7319
 20
63.8423
 11
38.6742
 21
63.8173
  0
LINE
  8
0
 10
38.6742
 20
63.8173
 11
38.6182
 21
63.7888
  0
LINE
  8
0
 10
38.6182
 20
63.7888
 11
38.5642
 21
63.7568
  0
LINE
  8
0
 10
38.5642
 20
63.7568
 11
38.5122
 21
63.7215
  0
LINE
  8
0
 10
38.5122
 20
63.7215
 11
38.4626
 21
63.683
  0
LINE
  8
0
 10
38.4626
 20
63.683
 11
38.4155
 21
63.6414
  0
LINE
  8
0
 10
38.4155
 20
63.6414
 11
38.371
 21
63.597
  0
LINE
  8
0
 10
38.371
 20
63.597
 11
38.3295
 21
63.5499
  0
LINE
  8
0
 10
38.3295
 20
63.5499
 11
38.291
 21
63.5003
  0
LINE
  8
0
 10
38.291
 20
63.5003
 11
38.2557
 21
63.4483
  0
LINE
  8
0
 10
38.2557
 20
63.4483
 11
38.2237
 21
63.3942
  0
LINE
  8
0
 10
38.2237
 20
63.3942
 11
38.1952
 21
63.3383
  0
LINE
  8
0
 10
38.1952
 20
63.3383
 11
38.1702
 21
63.2806
  0
LINE
  8
0
 10
38.1702
 20
63.2806
 11
38.1489
 21
63.2215
  0
LINE
  8
0
 10
38.1489
 20
63.2215
 11
38.1314
 21
63.1612
  0
LINE
  8
0
 10
38.1314
 20
63.1612
 11
38.1177
 21
63.0999
  0
LINE
  8
0
 10
38.1177
 20
63.0999
 11
38.1079
 21
63.0378
  0
LINE
  8
0
 10
38.1079
 20
63.0378
 11
38.102
 21
62.9753
  0
LINE
  8
0
 10
38.102
 20
62.9753
 11
38.1
 21
62.9125
  0
LINE
  8
0
 10
38.1
 20
62.9125
 11
38.1
 21
59.15
  0
LINE
  8
0
 10
38.1
 20
59.15
 11
1
 21
59.15
  0
LINE
  8
0
 10
1
 20
59.15
 11
0.93721
 21
59.148
  0
LINE
  8
0
 10
0.93721
 20
59.148
 11
0.87468
 21
59.1421
  0
LINE
  8
0
 10
0.87468
 20
59.1421
 11
0.812622
 21
59.1323
  0
LINE
  8
0
 10
0.812622
 20
59.1323
 11
0.751312
 21
59.1186
  0
LINE
  8
0
 10
0.751312
 20
59.1186
 11
0.690994
 21
59.101
  0
LINE
  8
0
 10
0.690994
 20
59.101
 11
0.631882
 21
59.0798
  0
LINE
  8
0
 10
0.631882
 20
59.0798
 11
0.574234
 21
59.0548
  0
LINE
  8
0
 10
0.574234
 20
59.0548
 11
0.51825
 21
59.0263
  0
LINE
  8
0
 10
0.51825
 20
59.0263
 11
0.464188
 21
58.9943
  0
LINE
  8
0
 10
0.464188
 20
58.9943
 11
0.412216
 21
58.959
  0
LINE
  8
0
 10
0.412216
 20
58.959
 11
0.362579
 21
58.9205
  0
LINE
  8
0
 10
0.362579
 20
58.9205
 11
0.31546
 21
58.879
  0
LINE
  8
0
 10
0.31546
 20
58.879
 11
0.271042
 21
58.8345
  0
LINE
  8
0
 10
0.271042
 20
58.8345
 11
0.229492
 21
58.7874
  0
LINE
  8
0
 10
0.229492
 20
58.7874
 11
0.190994
 21
58.7378
  0
LINE
  8
0
 10
0.190994
 20
58.7378
 11
0.155685
 21
58.6858
  0
LINE
  8
0
 10
0.155685
 20
58.6858
 11
0.123703
 21
58.6317
  0
LINE
  8
0
 10
0.123703
 20
58.6317
 11
0.0951843
 21
58.5758
  0
LINE
  8
0
 10
0.0951843
 20
58.5758
 11
0.0702362
 21
58.5181
  0
LINE
  8
0
 10
0.0702362
 20
58.5181
 11
0.0489502
 21
58.459
  0
LINE
  8
0
 10
0.0489502
 20
58.459
 11
0.0314178
 21
58.3987
  0
LINE
  8
0
 10
0.0314178
 20
58.3987
 11
0.0177155
 21
58.3374
  0
LINE
  8
0
 10
0.0177155
 20
58.3374
 11
0.00788879
 21
58.2753
  0
LINE
  8
0
 10
0.00788879
 20
58.2753
 11
0.00198364
 21
58.2128
  0
LINE
  8
0
 10
0.00198364
 20
58.2128
 11
0
 21
58.15
  0
LINE
  8
0
 10
0
 20
58.15
 11
0
 21
1
  0
LINE
  8
0
 10
0
 20
1
 11
0.00198364
 21
0.93721
  0
LINE
  8
0
 10
0.00198364
 20
0.93721
 11
0.00788879
 21
0.87468
  0
LINE
  8
0
 10
0.00788879
 20
0.87468
 11
0.0177155
 21
0.812622
  0
LINE
  8
0
 10
0.0177155
 20
0.812622
 11
0.0314178
 21
0.751312
  0
LINE
  8
0
 10
0.0314178
 20
0.751312
 11
0.0489502
 21
0.690994
  0
LINE
  8
0
 10
0.0489502
 20
0.690994
 11
0.0702362
 21
0.631882
  0
LINE
  8
0
 10
0.0702362
 20
0.631882
 11
0.0951843
 21
0.574234
  0
LINE
  8
0
 10
0.0951843
 20
0.574234
 11
0.123703
 21
0.51825
  0
LINE
  8
0
 10
0.123703
 20
0.51825
 11
0.155685
 21
0.464188
  0
LINE
  8
0
 10
0.155685
 20
0.464188
 11
0.190994
 21
0.412216
  0
LINE
  8
0
 10
0.190994
 20
0.412216
 11
0.229492
 21
0.362579
  0
LINE
  8
0
 10
0.229492
 20
0.362579
 11
0.271042
 21
0.31546
  0
LINE
  8
0
 10
0.271042
 20
0.31546
 11
0.31546
 21
0.271042
  0
LINE
  8
0
 10
0.31546
 20
0.271042
 11
0.362579
 21
0.229492
  0
LINE
  8
0
 10
0.362579
 20
0.229492
 11
0.412216
 21
0.190994
  0
LINE
  8
0
 10
0.412216
 20
0.190994
 11
0.464188
 21
0.155685
  0
LINE
  8
0
 10
0.464188
 20
0.155685
 11
0.51825
 21
0.123703
  0
LINE
  8
0
 10
0.51825
 20
0.123703
 11
0.574234
 21
0.0951843
  0
LINE
  8
0
 10
0.574234
 20
0.0951843
 11
0.631882
 21
0.0702362
  0
LINE
  8
0
 10
0.631882
 20
0.0702362
 11
0.690994
 21
0.0489502
  0
LINE
  8
0
 10
0.690994
 20
0.0489502
 11
0.751312
 21
0.0314178
  0
LINE
  8
0
 10
0.751312
 20
0.0314178
 11
0.812622
 21
0.0177155
  0
LINE
  8
0
 10
0.812622
 20
0.0177155
 11
0.87468
 21
0.00788879
  0
LINE
  8
0
 10
0.87468
 20
0.00788879
 11
0.93721
 21
0.00198364
  0
LINE
  8
0
 10
0.93721
 20
0.00198364
 11
1
 21
0
  0
LINE
  8
0
 10
1
 20
0
 11
39.1
 21
0
  0
LINE
  8
0
 10
39.1
 20
0
 11
39.1628
 21
0.00198364
  0
LINE
  8
0
 10
60.675
 20
48.6735
 11
60.675
 21
62.6735
  0
LINE
  8
0
 10
60.675
 20
62.6735
 11
74.675
 21
62.6735
  0
LINE
  8
0
 10
74.675
 20
62.6735
 11
74.675
 21
48.6735
  0
LINE
  8
0
 10
74.675
 20
48.6735
 11
60.675
 21
48.6735
  0
LINE
  8
0
 10
41.625
 20
46.3875
 11
41.625
 21
60.3875
  0
LINE
  8
0
 10
41.625
 20
60.3875
 11
55.625
 21
60.3875
  0
LINE
  8
0
 10
55.625
 20
60.3875
 11
55.625
 21
46.3875
  0
LINE
  8
0
 10
55.625
 20
46.3875
 11
41.625
 21
46.3875
  0
LINE
  8
0
 10
79.725
 20
46.3875
 11
79.725
 21
60.3875
  0
LINE
  8
0
 10
79.725
 20
60.3875
 11
93.725
 21
60.3875
  0
LINE
  8
0
 10
93.725
 20
60.3875
 11
93.725
 21
46.3875
  0
LINE
  8
0
 10
93.725
 20
46.3875
 11
79.725
 21
46.3875
  0
LINE
  8
0
 10
98.775
 20
43.911
 11
98.775
 21
57.911
  0
LINE
  8
0
 10
98.775
 20
57.911
 11
112.775
 21
57.911
  0
LINE
  8
0
 10
112.775
 20
57.911
 11
112.775
 21
43.911
  0
LINE
  8
0
 10
112.775
 20
43.911
 11
98.775
 21
43.911
  0
LINE
  8
0
 10
22.575
 20
41.625
 11
22.575
 21
55.625
  0
LINE
  8
0
 10
22.575
 20
55.625
 11
36.575
 21
55.625
  0
LINE
  8
0
 10
36.575
 20
55.625
 11
36.575
 21
41.625
  0
LINE
  8
0
 10
36.575
 20
41.625
 11
22.575
 21
41.625
  0
LINE
  8
0
 10
3.52499
 20
41.625
 11
3.52499
 21
55.625
  0
LINE
  8
0
 10
3.52499
 20
55.625
 11
17.525
 21
55.625
  0
LINE
  8
0
 10
17.525
 20
55.625
 11
17.525
 21
41.625
  0
LINE
  8
0
 10
17.525
 20
41.625
 11
3.52499
 21
41.625
  0
LINE
  8
0
 10
96.1684
 20
41.3268
 11
96.0871
 21
41.3345
  0
LINE
  8
0
 10
96.0871
 20
41.3345
 11
96.0064
 21
41.3473
  0
LINE
  8
0
 10
96.0064
 20
41.3473
 11
95.9267
 21
41.3651
  0
LINE
  8
0
 10
95.9267
 20
41.3651
 11
95.8483
 21
41.3879
  0
LINE
  8
0
 10
95.8483
 20
41.3879
 11
95.7714
 21
41.4155
  0
LINE
  8
0
 10
95.7714
 20
41.4155
 11
95.6965
 21
41.448
  0
LINE
  8
0
 10
95.6965
 20
41.448
 11
95.6237
 21
41.485
  0
LINE
  8
0
 10
95.6237
 20
41.485
 11
95.5534
 21
41.5266
  0
LINE
  8
0
 10
95.5534
 20
41.5266
 11
95.4859
 21
41.5725
  0
LINE
  8
0
 10
95.4859
 20
41.5725
 11
95.4213
 21
41.6226
  0
LINE
  8
0
 10
95.4213
 20
41.6226
 11
95.3601
 21
41.6766
  0
LINE
  8
0
 10
95.3601
 20
41.6766
 11
95.3023
 21
41.7343
  0
LINE
  8
0
 10
95.3023
 20
41.7343
 11
95.2483
 21
41.7956
  0
LINE
  8
0
 10
95.2483
 20
41.7956
 11
95.1983
 21
41.8601
  0
LINE
  8
0
 10
95.1983
 20
41.8601
 11
95.1524
 21
41.9277
  0
LINE
  8
0
 10
95.1524
 20
41.9277
 11
95.1108
 21
41.998
  0
LINE
  8
0
 10
95.1108
 20
41.998
 11
95.0737
 21
42.0707
  0
LINE
  8
0
 10
95.0737
 20
42.0707
 11
95.0413
 21
42.1457
  0
LINE
  8
0
 10
95.0413
 20
42.1457
 11
95.0136
 21
42.2225
  0
LINE
  8
0
 10
95.0136
 20
42.2225
 11
94.9908
 21
42.3009
  0
LINE
  8
0
 10
94.9908
 20
42.3009
 11
94.973
 21
42.3806
  0
LINE
  8
0
 10
94.973
 20
42.3806
 11
94.9603
 21
42.4613
  0
LINE
  8
0
 10
94.9603
 20
42.4613
 11
94.9526
 21
42.5426
  0
LINE
  8
0
 10
94.9526
 20
42.5426
 11
94.95
 21
42.6242
  0
LINE
  8
0
 10
94.95
 20
42.6242
 11
94.9526
 21
42.7059
  0
LINE
  8
0
 10
94.9526
 20
42.7059
 11
94.9603
 21
42.7872
  0
LINE
  8
0
 10
94.9603
 20
42.7872
 11
94.973
 21
42.8678
  0
LINE
  8
0
 10
94.973
 20
42.8678
 11
94.9908
 21
42.9475
  0
LINE
  8
0
 10
94.9908
 20
42.9475
 11
95.0136
 21
43.026
  0
LINE
  8
0
 10
95.0136
 20
43.026
 11
95.0413
 21
43.1028
  0
LINE
  8
0
 10
95.0413
 20
43.1028
 11
95.0737
 21
43.1777
  0
LINE
  8
0
 10
95.0737
 20
43.1777
 11
95.1108
 21
43.2505
  0
LINE
  8
0
 10
95.1108
 20
43.2505
 11
95.1524
 21
43.3208
  0
LINE
  8
0
 10
95.1524
 20
43.3208
 11
95.1983
 21
43.3884
  0
LINE
  8
0
 10
95.1983
 20
43.3884
 11
95.2483
 21
43.4529
  0
LINE
  8
0
 10
95.2483
 20
43.4529
 11
95.3023
 21
43.5142
  0
LINE
  8
0
 10
95.3023
 20
43.5142
 11
95.3601
 21
43.5719
  0
LINE
  8
0
 10
95.3601
 20
43.5719
 11
95.4213
 21
43.6259
  0
LINE
  8
0
 10
95.4213
 20
43.6259
 11
95.4859
 21
43.676
  0
LINE
  8
0
 10
95.4859
 20
43.676
 11
95.5534
 21
43.7219
  0
LINE
  8
0
 10
95.5534
 20
43.7219
 11
95.6237
 21
43.7634
  0
LINE
  8
0
 10
95.6237
 20
43.7634
 11
95.6965
 21
43.8005
  0
LINE
  8
0
 10
95.6965
 20
43.8005
 11
95.7714
 21
43.8329
  0
LINE
  8
0
 10
95.7714
 20
43.8329
 11
95.8483
 21
43.8606
  0
LINE
  8
0
 10
95.8483
 20
43.8606
 11
95.9267
 21
43.8834
  0
LINE
  8
0
 10
95.9267
 20
43.8834
 11
96.0064
 21
43.9012
  0
LINE
  8
0
 10
96.0064
 20
43.9012
 11
96.0871
 21
43.914
  0
LINE
  8
0
 10
96.0871
 20
43.914
 11
96.1684
 21
43.9217
  0
LINE
  8
0
 10
96.1684
 20
43.9217
 11
96.25
 21
43.9242
  0
LINE
  8
0
 10
96.25
 20
43.9242
 11
96.3316
 21
43.9217
  0
LINE
  8
0
 10
96.3316
 20
43.9217
 11
96.4129
 21
43.914
  0
LINE
  8
0
 10
96.4129
 20
43.914
 11
96.4936
 21
43.9012
  0
LINE
  8
0
 10
96.4936
 20
43.9012
 11
96.5733
 21
43.8834
  0
LINE
  8
0
 10
96.5733
 20
43.8834
 11
96.6517
 21
43.8606
  0
LINE
  8
0
 10
96.6517
 20
43.8606
 11
96.7286
 21
43.8329
  0
LINE
  8
0
 10
96.7286
 20
43.8329
 11
96.8035
 21
43.8005
  0
LINE
  8
0
 10
96.8035
 20
43.8005
 11
96.8763
 21
43.7634
  0
LINE
  8
0
 10
96.8763
 20
43.7634
 11
96.9466
 21
43.7219
  0
LINE
  8
0
 10
96.9466
 20
43.7219
 11
97.0141
 21
43.676
  0
LINE
  8
0
 10
97.0141
 20
43.676
 11
97.0786
 21
43.6259
  0
LINE
  8
0
 10
97.0786
 20
43.6259
 11
97.1399
 21
43.5719
  0
LINE
  8
0
 10
97.1399
 20
43.5719
 11
97.1976
 21
43.5142
  0
LINE
  8
0
 10
97.1976
 20
43.5142
 11
97.2517
 21
43.4529
  0
LINE
  8
0
 10
97.2517
 20
43.4529
 11
97.3017
 21
43.3884
  0
LINE
  8
0
 10
97.3017
 20
43.3884
 11
97.3476
 21
43.3208
  0
LINE
  8
0
 10
97.3476
 20
43.3208
 11
97.3892
 21
43.2505
  0
LINE
  8
0
 10
97.3892
 20
43.2505
 11
97.4263
 21
43.1777
  0
LINE
  8
0
 10
97.4263
 20
43.1777
 11
97.4587
 21
43.1028
  0
LINE
  8
0
 10
97.4587
 20
43.1028
 11
97.4864
 21
43.026
  0
LINE
  8
0
 10
97.4864
 20
43.026
 11
97.5092
 21
42.9475
  0
LINE
  8
0
 10
97.5092
 20
42.9475
 11
97.527
 21
42.8678
  0
LINE
  8
0
 10
97.527
 20
42.8678
 11
97.5397
 21
42.7872
  0
LINE
  8
0
 10
97.5397
 20
42.7872
 11
97.5474
 21
42.7059
  0
LINE
  8
0
 10
97.5474
 20
42.7059
 11
97.55
 21
42.6242
  0
LINE
  8
0
 10
97.55
 20
42.6242
 11
97.5474
 21
42.5426
  0
LINE
  8
0
 10
97.5474
 20
42.5426
 11
97.5397
 21
42.4613
  0
LINE
  8
0
 10
97.5397
 20
42.4613
 11
97.527
 21
42.3806
  0
LINE
  8
0
 10
97.527
 20
42.3806
 11
97.5092
 21
42.3009
  0
LINE
  8
0
 10
97.5092
 20
42.3009
 11
97.4864
 21
42.2225
  0
LINE
  8
0
 10
97.4864
 20
42.2225
 11
97.4587
 21
42.1457
  0
LINE
  8
0
 10
97.4587
 20
42.1457
 11
97.4263
 21
42.0707
  0
LINE
  8
0
 10
97.4263
 20
42.0707
 11
97.3892
 21
41.998
  0
LINE
  8
0
 10
97.3892
 20
41.998
 11
97.3476
 21
41.9277
  0
LINE
  8
0
 10
97.3476
 20
41.9277
 11
97.3017
 21
41.8601
  0
LINE
  8
0
 10
97.3017
 20
41.8601
 11
97.2517
 21
41.7956
  0
LINE
  8
0
 10
97.2517
 20
41.7956
 11
97.1976
 21
41.7343
  0
LINE
  8
0
 10
97.1976
 20
41.7343
 11
97.1399
 21
41.6766
  0
LINE
  8
0
 10
97.1399
 20
41.6766
 11
97.0786
 21
41.6226
  0
LINE
  8
0
 10
97.0786
 20
41.6226
 11
97.0141
 21
41.5725
  0
LINE
  8
0
 10
97.0141
 20
41.5725
 11
96.9466
 21
41.5266
  0
LINE
  8
0
 10
96.9466
 20
41.5266
 11
96.8763
 21
41.485
  0
LINE
  8
0
 10
96.8763
 20
41.485
 11
96.8035
 21
41.448
  0
LINE
  8
0
 10
96.8035
 20
41.448
 11
96.7286
 21
41.4155
  0
LINE
  8
0
 10
96.7286
 20
41.4155
 11
96.6517
 21
41.3879
  0
LINE
  8
0
 10
96.6517
 20
41.3879
 11
96.5733
 21
41.3651
  0
LINE
  8
0
 10
96.5733
 20
41.3651
 11
96.4936
 21
41.3473
  0
LINE
  8
0
 10
96.4936
 20
41.3473
 11
96.4129
 21
41.3345
  0
LINE
  8
0
 10
96.4129
 20
41.3345
 11
96.3316
 21
41.3268
  0
LINE
  8
0
 10
96.3316
 20
41.3268
 11
96.25
 21
41.3242
  0
LINE
  8
0
 10
96.25
 20
41.3242
 11
96.1684
 21
41.3268
  0
LINE
  8
0
 10
60.675
 20
29.6235
 11
60.675
 21
43.6235
  0
LINE
  8
0
 10
60.675
 20
43.6235
 11
74.675
 21
43.6235
  0
LINE
  8
0
 10
74.675
 20
43.6235
 11
74.675
 21
29.6235
  0
LINE
  8
0
 10
74.675
 20
29.6235
 11
60.675
 21
29.6235
  0
LINE
  8
0
 10
41.625
 20
27.3375
 11
41.625
 21
41.3375
  0
LINE
  8
0
 10
41.625
 20
41.3375
 11
55.625
 21
41.3375
  0
LINE
  8
0
 10
55.625
 20
41.3375
 11
55.625
 21
27.3375
  0
LINE
  8
0
 10
55.625
 20
27.3375
 11
41.625
 21
27.3375
  0
LINE
  8
0
 10
79.725
 20
27.3375
 11
79.725
 21
41.3375
  0
LINE
  8
0
 10
79.725
 20
41.3375
 11
93.725
 21
41.3375
  0
LINE
  8
0
 10
93.725
 20
41.3375
 11
93.725
 21
27.3375
  0
LINE
  8
0
 10
93.725
 20
27.3375
 11
79.725
 21
27.3375
  0
LINE
  8
0
 10
19.9684
 20
37.8026
 11
19.8871
 21
37.8102
  0
LINE
  8
0
 10
19.8871
 20
37.8102
 11
19.8064
 21
37.823
  0
LINE
  8
0
 10
19.8064
 20
37.823
 11
19.7267
 21
37.8408
  0
LINE
  8
0
 10
19.7267
 20
37.8408
 11
19.6483
 21
37.8636
  0
LINE
  8
0
 10
19.6483
 20
37.8636
 11
19.5714
 21
37.8913
  0
LINE
  8
0
 10
19.5714
 20
37.8913
 11
19.4965
 21
37.9237
  0
LINE
  8
0
 10
19.4965
 20
37.9237
 11
19.4237
 21
37.9608
  0
LINE
  8
0
 10
19.4237
 20
37.9608
 11
19.3534
 21
38.0024
  0
LINE
  8
0
 10
19.3534
 20
38.0024
 11
19.2859
 21
38.0483
  0
LINE
  8
0
 10
19.2859
 20
38.0483
 11
19.2213
 21
38.0983
  0
LINE
  8
0
 10
19.2213
 20
38.0983
 11
19.1601
 21
38.1523
  0
LINE
  8
0
 10
19.1601
 20
38.1523
 11
19.1023
 21
38.2101
  0
LINE
  8
0
 10
19.1023
 20
38.2101
 11
19.0483
 21
38.2713
  0
LINE
  8
0
 10
19.0483
 20
38.2713
 11
18.9983
 21
38.3359
  0
LINE
  8
0
 10
18.9983
 20
38.3359
 11
18.9524
 21
38.4034
  0
LINE
  8
0
 10
18.9524
 20
38.4034
 11
18.9108
 21
38.4737
  0
LINE
  8
0
 10
18.9108
 20
38.4737
 11
18.8737
 21
38.5465
  0
LINE
  8
0
 10
18.8737
 20
38.5465
 11
18.8413
 21
38.6214
  0
LINE
  8
0
 10
18.8413
 20
38.6214
 11
18.8136
 21
38.6983
  0
LINE
  8
0
 10
18.8136
 20
38.6983
 11
18.7908
 21
38.7767
  0
LINE
  8
0
 10
18.7908
 20
38.7767
 11
18.773
 21
38.8564
  0
LINE
  8
0
 10
18.773
 20
38.8564
 11
18.7602
 21
38.9371
  0
LINE
  8
0
 10
18.7602
 20
38.9371
 11
18.7526
 21
39.0184
  0
LINE
  8
0
 10
18.7526
 20
39.0184
 11
18.75
 21
39.1
  0
LINE
  8
0
 10
18.75
 20
39.1
 11
18.7526
 21
39.1816
  0
LINE
  8
0
 10
18.7526
 20
39.1816
 11
18.7602
 21
39.2629
  0
LINE
  8
0
 10
18.7602
 20
39.2629
 11
18.773
 21
39.3436
  0
LINE
  8
0
 10
18.773
 20
39.3436
 11
18.7908
 21
39.4233
  0
LINE
  8
0
 10
18.7908
 20
39.4233
 11
18.8136
 21
39.5017
  0
LINE
  8
0
 10
18.8136
 20
39.5017
 11
18.8413
 21
39.5786
  0
LINE
  8
0
 10
18.8413
 20
39.5786
 11
18.8737
 21
39.6535
  0
LINE
  8
0
 10
18.8737
 20
39.6535
 11
18.9108
 21
39.7263
  0
LINE
  8
0
 10
18.9108
 20
39.7263
 11
18.9524
 21
39.7966
  0
LINE
  8
0
 10
18.9524
 20
39.7966
 11
18.9983
 21
39.8641
  0
LINE
  8
0
 10
18.9983
 20
39.8641
 11
19.0483
 21
39.9286
  0
LINE
  8
0
 10
19.0483
 20
39.9286
 11
19.1023
 21
39.9899
  0
LINE
  8
0
 10
19.1023
 20
39.9899
 11
19.1601
 21
40.0477
  0
LINE
  8
0
 10
19.1601
 20
40.0477
 11
19.2213
 21
40.1017
  0
LINE
  8
0
 10
19.2213
 20
40.1017
 11
19.2859
 21
40.1517
  0
LINE
  8
0
 10
19.2859
 20
40.1517
 11
19.3534
 21
40.1976
  0
LINE
  8
0
 10
19.3534
 20
40.1976
 11
19.4237
 21
40.2392
  0
LINE
  8
0
 10
19.4237
 20
40.2392
 11
19.4965
 21
40.2763
  0
LINE
  8
0
 10
19.4965
 20
40.2763
 11
19.5714
 21
40.3087
  0
LINE
  8
0
 10
19.5714
 20
40.3087
 11
19.6483
 21
40.3364
  0
LINE
  8
0
 10
19.6483
 20
40.3364
 11
19.7267
 21
40.3591
  0
LINE
  8
0
 10
19.7267
 20
40.3591
 11
19.8064
 21
40.377
  0
LINE
  8
0
 10
19.8064
 20
40.377
 11
19.8871
 21
40.3897
  0
LINE
  8
0
 10
19.8871
 20
40.3897
 11
19.9684
 21
40.3974
  0
LINE
  8
0
 10
19.9684
 20
40.3974
 11
20.05
 21
40.4
  0
LINE
  8
0
 10
20.05
 20
40.4
 11
20.1316
 21
40.3974
  0
LINE
  8
0
 10
20.1316
 20
40.3974
 11
20.2129
 21
40.3897
  0
LINE
  8
0
 10
20.2129
 20
40.3897
 11
20.2936
 21
40.377
  0
LINE
  8
0
 10
20.2936
 20
40.377
 11
20.3733
 21
40.3591
  0
LINE
  8
0
 10
20.3733
 20
40.3591
 11
20.4517
 21
40.3364
  0
LINE
  8
0
 10
20.4517
 20
40.3364
 11
20.5285
 21
40.3087
  0
LINE
  8
0
 10
20.5285
 20
40.3087
 11
20.6035
 21
40.2763
  0
LINE
  8
0
 10
20.6035
 20
40.2763
 11
20.6763
 21
40.2392
  0
LINE
  8
0
 10
20.6763
 20
40.2392
 11
20.7466
 21
40.1976
  0
LINE
  8
0
 10
20.7466
 20
40.1976
 11
20.8141
 21
40.1517
  0
LINE
  8
0
 10
20.8141
 20
40.1517
 11
20.8786
 21
40.1017
  0
LINE
  8
0
 10
20.8786
 20
40.1017
 11
20.9399
 21
40.0477
  0
LINE
  8
0
 10
20.9399
 20
40.0477
 11
20.9977
 21
39.9899
  0
LINE
  8
0
 10
20.9977
 20
39.9899
 11
21.0517
 21
39.9286
  0
LINE
  8
0
 10
21.0517
 20
39.9286
 11
21.1017
 21
39.8641
  0
LINE
  8
0
 10
21.1017
 20
39.8641
 11
21.1476
 21
39.7966
  0
LINE
  8
0
 10
21.1476
 20
39.7966
 11
21.1892
 21
39.7263
  0
LINE
  8
0
 10
21.1892
 20
39.7263
 11
21.2263
 21
39.6535
  0
LINE
  8
0
 10
21.2263
 20
39.6535
 11
21.2587
 21
39.5786
  0
LINE
  8
0
 10
21.2587
 20
39.5786
 11
21.2864
 21
39.5017
  0
LINE
  8
0
 10
21.2864
 20
39.5017
 11
21.3091
 21
39.4233
  0
LINE
  8
0
 10
21.3091
 20
39.4233
 11
21.327
 21
39.3436
  0
LINE
  8
0
 10
21.327
 20
39.3436
 11
21.3397
 21
39.2629
  0
LINE
  8
0
 10
21.3397
 20
39.2629
 11
21.3474
 21
39.1816
  0
LINE
  8
0
 10
21.3474
 20
39.1816
 11
21.35
 21
39.1
  0
LINE
  8
0
 10
21.35
 20
39.1
 11
21.3474
 21
39.0184
  0
LINE
  8
0
 10
21.3474
 20
39.0184
 11
21.3397
 21
38.9371
  0
LINE
  8
0
 10
21.3397
 20
38.9371
 11
21.327
 21
38.8564
  0
LINE
  8
0
 10
21.327
 20
38.8564
 11
21.3091
 21
38.7767
  0
LINE
  8
0
 10
21.3091
 20
38.7767
 11
21.2864
 21
38.6983
  0
LINE
  8
0
 10
21.2864
 20
38.6983
 11
21.2587
 21
38.6214
  0
LINE
  8
0
 10
21.2587
 20
38.6214
 11
21.2263
 21
38.5465
  0
LINE
  8
0
 10
21.2263
 20
38.5465
 11
21.1892
 21
38.4737
  0
LINE
  8
0
 10
21.1892
 20
38.4737
 11
21.1476
 21
38.4034
  0
LINE
  8
0
 10
21.1476
 20
38.4034
 11
21.1017
 21
38.3359
  0
LINE
  8
0
 10
21.1017
 20
38.3359
 11
21.0517
 21
38.2713
  0
LINE
  8
0
 10
21.0517
 20
38.2713
 11
20.9977
 21
38.2101
  0
LINE
  8
0
 10
20.9977
 20
38.2101
 11
20.9399
 21
38.1523
  0
LINE
  8
0
 10
20.9399
 20
38.1523
 11
20.8786
 21
38.0983
  0
LINE
  8
0
 10
20.8786
 20
38.0983
 11
20.8141
 21
38.0483
  0
LINE
  8
0
 10
20.8141
 20
38.0483
 11
20.7466
 21
38.0024
  0
LINE
  8
0
 10
20.7466
 20
38.0024
 11
20.6763
 21
37.9608
  0
LINE
  8
0
 10
20.6763
 20
37.9608
 11
20.6035
 21
37.9237
  0
LINE
  8
0
 10
20.6035
 20
37.9237
 11
20.5285
 21
37.8913
  0
LINE
  8
0
 10
20.5285
 20
37.8913
 11
20.4517
 21
37.8636
  0
LINE
  8
0
 10
20.4517
 20
37.8636
 11
20.3733
 21
37.8408
  0
LINE
  8
0
 10
20.3733
 20
37.8408
 11
20.2936
 21
37.823
  0
LINE
  8
0
 10
20.2936
 20
37.823
 11
20.2129
 21
37.8102
  0
LINE
  8
0
 10
20.2129
 20
37.8102
 11
20.1316
 21
37.8026
  0
LINE
  8
0
 10
20.1316
 20
37.8026
 11
20.05
 21
37.8
  0
LINE
  8
0
 10
20.05
 20
37.8
 11
19.9684
 21
37.8026
  0
LINE
  8
0
 10
98.775
 20
24.861
 11
98.775
 21
38.861
  0
LINE
  8
0
 10
98.775
 20
38.861
 11
112.775
 21
38.861
  0
LINE
  8
0
 10
112.775
 20
38.861
 11
112.775
 21
24.861
  0
LINE
  8
0
 10
112.775
 20
24.861
 11
98.775
 21
24.861
  0
LINE
  8
0
 10
3.52499
 20
22.575
 11
3.52499
 21
36.575
  0
LINE
  8
0
 10
3.52499
 20
36.575
 11
17.525
 21
36.575
  0
LINE
  8
0
 10
17.525
 20
36.575
 11
17.525
 21
22.575
  0
LINE
  8
0
 10
17.525
 20
22.575
 11
3.52499
 21
22.575
  0
LINE
  8
0
 10
22.575
 20
22.575
 11
22.575
 21
36.575
  0
LINE
  8
0
 10
22.575
 20
36.575
 11
36.575
 21
36.575
  0
LINE
  8
0
 10
36.575
 20
36.575
 11
36.575
 21
22.575
  0
LINE
  8
0
 10
36.575
 20
22.575
 11
22.575
 21
22.575
  0
LINE
  8
0
 10
96.1684
 20
22.2768
 11
96.0871
 21
22.2845
  0
LINE
  8
0
 10
96.0871
 20
22.2845
 11
96.0064
 21
22.2973
  0
LINE
  8
0
 10
96.0064
 20
22.2973
 11
95.9267
 21
22.3151
  0
LINE
  8
0
 10
95.9267
 20
22.3151
 11
95.8483
 21
22.3379
  0
LINE
  8
0
 10
95.8483
 20
22.3379
 11
95.7714
 21
22.3655
  0
LINE
  8
0
 10
95.7714
 20
22.3655
 11
95.6965
 21
22.398
  0
LINE
  8
0
 10
95.6965
 20
22.398
 11
95.6237
 21
22.435
  0
LINE
  8
0
 10
95.6237
 20
22.435
 11
95.5534
 21
22.4766
  0
LINE
  8
0
 10
95.5534
 20
22.4766
 11
95.4859
 21
22.5225
  0
LINE
  8
0
 10
95.4859
 20
22.5225
 11
95.4213
 21
22.5726
  0
LINE
  8
0
 10
95.4213
 20
22.5726
 11
95.3601
 21
22.6266
  0
LINE
  8
0
 10
95.3601
 20
22.6266
 11
95.3023
 21
22.6843
  0
LINE
  8
0
 10
95.3023
 20
22.6843
 11
95.2483
 21
22.7456
  0
LINE
  8
0
 10
95.2483
 20
22.7456
 11
95.1983
 21
22.8101
  0
LINE
  8
0
 10
95.1983
 20
22.8101
 11
95.1524
 21
22.8777
  0
LINE
  8
0
 10
95.1524
 20
22.8777
 11
95.1108
 21
22.948
  0
LINE
  8
0
 10
95.1108
 20
22.948
 11
95.0737
 21
23.0207
  0
LINE
  8
0
 10
95.0737
 20
23.0207
 11
95.0413
 21
23.0957
  0
LINE
  8
0
 10
95.0413
 20
23.0957
 11
95.0136
 21
23.1725
  0
LINE
  8
0
 10
95.0136
 20
23.1725
 11
94.9908
 21
23.2509
  0
LINE
  8
0
 10
94.9908
 20
23.2509
 11
94.973
 21
23.3306
  0
LINE
  8
0
 10
94.973
 20
23.3306
 11
94.9603
 21
23.4113
  0
LINE
  8
0
 10
94.9603
 20
23.4113
 11
94.9526
 21
23.4926
  0
LINE
  8
0
 10
94.9526
 20
23.4926
 11
94.95
 21
23.5742
  0
LINE
  8
0
 10
94.95
 20
23.5742
 11
94.9526
 21
23.6559
  0
LINE
  8
0
 10
94.9526
 20
23.6559
 11
94.9603
 21
23.7372
  0
LINE
  8
0
 10
94.9603
 20
23.7372
 11
94.973
 21
23.8178
  0
LINE
  8
0
 10
94.973
 20
23.8178
 11
94.9908
 21
23.8975
  0
LINE
  8
0
 10
94.9908
 20
23.8975
 11
95.0136
 21
23.976
  0
LINE
  8
0
 10
95.0136
 20
23.976
 11
95.0413
 21
24.0528
  0
LINE
  8
0
 10
95.0413
 20
24.0528
 11
95.0737
 21
24.1278
  0
LINE
  8
0
 10
95.0737
 20
24.1278
 11
95.1108
 21
24.2005
  0
LINE
  8
0
 10
95.1108
 20
24.2005
 11
95.1524
 21
24.2708
  0
LINE
  8
0
 10
95.1524
 20
24.2708
 11
95.1983
 21
24.3384
  0
LINE
  8
0
 10
95.1983
 20
24.3384
 11
95.2483
 21
24.4029
  0
LINE
  8
0
 10
95.2483
 20
24.4029
 11
95.3023
 21
24.4642
  0
LINE
  8
0
 10
95.3023
 20
24.4642
 11
95.3601
 21
24.5219
  0
LINE
  8
0
 10
95.3601
 20
24.5219
 11
95.4213
 21
24.5759
  0
LINE
  8
0
 10
95.4213
 20
24.5759
 11
95.4859
 21
24.626
  0
LINE
  8
0
 10
95.4859
 20
24.626
 11
95.5534
 21
24.6719
  0
LINE
  8
0
 10
95.5534
 20
24.6719
 11
95.6237
 21
24.7134
  0
LINE
  8
0
 10
95.6237
 20
24.7134
 11
95.6965
 21
24.7505
  0
LINE
  8
0
 10
95.6965
 20
24.7505
 11
95.7714
 21
24.783
  0
LINE
  8
0
 10
95.7714
 20
24.783
 11
95.8483
 21
24.8106
  0
LINE
  8
0
 10
95.8483
 20
24.8106
 11
95.9267
 21
24.8334
  0
LINE
  8
0
 10
95.9267
 20
24.8334
 11
96.0064
 21
24.8512
  0
LINE
  8
0
 10
96.0064
 20
24.8512
 11
96.0871
 21
24.864
  0
LINE
  8
0
 10
96.0871
 20
24.864
 11
96.1684
 21
24.8717
  0
LINE
  8
0
 10
96.1684
 20
24.8717
 11
96.25
 21
24.8742
  0
LINE
  8
0
 10
96.25
 20
24.8742
 11
96.3316
 21
24.8717
  0
LINE
  8
0
 10
96.3316
 20
24.8717
 11
96.4129
 21
24.864
  0
LINE
  8
0
 10
96.4129
 20
24.864
 11
96.4936
 21
24.8512
  0
LINE
  8
0
 10
96.4936
 20
24.8512
 11
96.5733
 21
24.8334
  0
LINE
  8
0
 10
96.5733
 20
24.8334
 11
96.6517
 21
24.8106
  0
LINE
  8
0
 10
96.6517
 20
24.8106
 11
96.7286
 21
24.783
  0
LINE
  8
0
 10
96.7286
 20
24.783
 11
96.8035
 21
24.7505
  0
LINE
  8
0
 10
96.8035
 20
24.7505
 11
96.8763
 21
24.7134
  0
LINE
  8
0
 10
96.8763
 20
24.7134
 11
96.9466
 21
24.6719
  0
LINE
  8
0
 10
96.9466
 20
24.6719
 11
97.0141
 21
24.626
  0
LINE
  8
0
 10
97.0141
 20
24.626
 11
97.0786
 21
24.5759
  0
LINE
  8
0
 10
97.0786
 20
24.5759
 11
97.1399
 21
24.5219
  0
LINE
  8
0
 10
97.1399
 20
24.5219
 11
97.1976
 21
24.4642
  0
LINE
  8
0
 10
97.1976
 20
24.4642
 11
97.2517
 21
24.4029
  0
LINE
  8
0
 10
97.2517
 20
24.4029
 11
97.3017
 21
24.3384
  0
LINE
  8
0
 10
97.3017
 20
24.3384
 11
97.3476
 21
24.2708
  0
LINE
  8
0
 10
97.3476
 20
24.2708
 11
97.3892
 21
24.2005
  0
LINE
  8
0
 10
97.3892
 20
24.2005
 11
97.4263
 21
24.1278
  0
LINE
  8
0
 10
97.4263
 20
24.1278
 11
97.4587
 21
24.0528
  0
LINE
  8
0
 10
97.4587
 20
24.0528
 11
97.4864
 21
23.976
  0
LINE
  8
0
 10
97.4864
 20
23.976
 11
97.5092
 21
23.8975
  0
LINE
  8
0
 10
97.5092
 20
23.8975
 11
97.527
 21
23.8178
  0
LINE
  8
0
 10
97.527
 20
23.8178
 11
97.5397
 21
23.7372
  0
LINE
  8
0
 10
97.5397
 20
23.7372
 11
97.5474
 21
23.6559
  0
LINE
  8
0
 10
97.5474
 20
23.6559
 11
97.55
 21
23.5742
  0
LINE
  8
0
 10
97.55
 20
23.5742
 11
97.5474
 21
23.4926
  0
LINE
  8
0
 10
97.5474
 20
23.4926
 11
97.5397
 21
23.4113
  0
LINE
  8
0
 10
97.5397
 20
23.4113
 11
97.527
 21
23.3306
  0
LINE
  8
0
 10
97.527
 20
23.3306
 11
97.5092
 21
23.2509
  0
LINE
  8
0
 10
97.5092
 20
23.2509
 11
97.4864
 21
23.1725
  0
LINE
  8
0
 10
97.4864
 20
23.1725
 11
97.4587
 21
23.0957
  0
LINE
  8
0
 10
97.4587
 20
23.0957
 11
97.4263
 21
23.0207
  0
LINE
  8
0
 10
97.4263
 20
23.0207
 11
97.3892
 21
22.948
  0
LINE
  8
0
 10
97.3892
 20
22.948
 11
97.3476
 21
22.8777
  0
LINE
  8
0
 10
97.3476
 20
22.8777
 11
97.3017
 21
22.8101
  0
LINE
  8
0
 10
97.3017
 20
22.8101
 11
97.2517
 21
22.7456
  0
LINE
  8
0
 10
97.2517
 20
22.7456
 11
97.1976
 21
22.6843
  0
LINE
  8
0
 10
97.1976
 20
22.6843
 11
97.1399
 21
22.6266
  0
LINE
  8
0
 10
97.1399
 20
22.6266
 11
97.0786
 21
22.5726
  0
LINE
  8
0
 10
97.0786
 20
22.5726
 11
97.0141
 21
22.5225
  0
LINE
  8
0
 10
97.0141
 20
22.5225
 11
96.9466
 21
22.4766
  0
LINE
  8
0
 10
96.9466
 20
22.4766
 11
96.8763
 21
22.435
  0
LINE
  8
0
 10
96.8763
 20
22.435
 11
96.8035
 21
22.398
  0
LINE
  8
0
 10
96.8035
 20
22.398
 11
96.7286
 21
22.3655
  0
LINE
  8
0
 10
96.7286
 20
22.3655
 11
96.6517
 21
22.3379
  0
LINE
  8
0
 10
96.6517
 20
22.3379
 11
96.5733
 21
22.3151
  0
LINE
  8
0
 10
96.5733
 20
22.3151
 11
96.4936
 21
22.2973
  0
LINE
  8
0
 10
96.4936
 20
22.2973
 11
96.4129
 21
22.2845
  0
LINE
  8
0
 10
96.4129
 20
22.2845
 11
96.3316
 21
22.2768
  0
LINE
  8
0
 10
96.3316
 20
22.2768
 11
96.25
 21
22.2742
  0
LINE
  8
0
 10
96.25
 20
22.2742
 11
96.1684
 21
22.2768
  0
LINE
  8
0
 10
60.675
 20
10.5735
 11
60.675
 21
24.5735
  0
LINE
  8
0
 10
60.675
 20
24.5735
 11
74.675
 21
24.5735
  0
LINE
  8
0
 10
74.675
 20
24.5735
 11
74.675
 21
10.5735
  0
LINE
  8
0
 10
74.675
 20
10.5735
 11
60.675
 21
10.5735
  0
LINE
  8
0
 10
41.625
 20
8.28749
 11
41.625
 21
22.2875
  0
LINE
  8
0
 10
41.625
 20
22.2875
 11
55.625
 21
22.2875
  0
LINE
  8
0
 10
55.625
 20
22.2875
 11
55.625
 21
8.28749
  0
LINE
  8
0
 10
55.625
 20
8.28749
 11
41.625
 21
8.28749
  0
LINE
  8
0
 10
79.725
 20
8.28749
 11
79.725
 21
22.2875
  0
LINE
  8
0
 10
79.725
 20
22.2875
 11
93.725
 21
22.2875
  0
LINE
  8
0
 10
93.725
 20
22.2875
 11
93.725
 21
8.28749
  0
LINE
  8
0
 10
93.725
 20
8.28749
 11
79.725
 21
8.28749
  0
LINE
  8
0
 10
19.9684
 20
18.7526
 11
19.8871
 21
18.7602
  0
LINE
  8
0
 10
19.8871
 20
18.7602
 11
19.8064
 21
18.773
  0
LINE
  8
0
 10
19.8064
 20
18.773
 11
19.7267
 21
18.7908
  0
LINE
  8
0
 10
19.7267
 20
18.7908
 11
19.6483
 21
18.8136
  0
LINE
  8
0
 10
19.6483
 20
18.8136
 11
19.5714
 21
18.8413
  0
LINE
  8
0
 10
19.5714
 20
18.8413
 11
19.4965
 21
18.8737
  0
LINE
  8
0
 10
19.4965
 20
18.8737
 11
19.4237
 21
18.9108
  0
LINE
  8
0
 10
19.4237
 20
18.9108
 11
19.3534
 21
18.9524
  0
LINE
  8
0
 10
19.3534
 20
18.9524
 11
19.2859
 21
18.9983
  0
LINE
  8
0
 10
19.2859
 20
18.9983
 11
19.2213
 21
19.0483
  0
LINE
  8
0
 10
19.2213
 20
19.0483
 11
19.1601
 21
19.1023
  0
LINE
  8
0
 10
19.1601
 20
19.1023
 11
19.1023
 21
19.1601
  0
LINE
  8
0
 10
19.1023
 20
19.1601
 11
19.0483
 21
19.2213
  0
LINE
  8
0
 10
19.0483
 20
19.2213
 11
18.9983
 21
19.2859
  0
LINE
  8
0
 10
18.9983
 20
19.2859
 11
18.9524
 21
19.3534
  0
LINE
  8
0
 10
18.9524
 20
19.3534
 11
18.9108
 21
19.4237
  0
LINE
  8
0
 10
18.9108
 20
19.4237
 11
18.8737
 21
19.4965
  0
LINE
  8
0
 10
18.8737
 20
19.4965
 11
18.8413
 21
19.5714
  0
LINE
  8
0
 10
18.8413
 20
19.5714
 11
18.8136
 21
19.6483
  0
LINE
  8
0
 10
18.8136
 20
19.6483
 11
18.7908
 21
19.7267
  0
LINE
  8
0
 10
18.7908
 20
19.7267
 11
18.773
 21
19.8064
  0
LINE
  8
0
 10
18.773
 20
19.8064
 11
18.7602
 21
19.8871
  0
LINE
  8
0
 10
18.7602
 20
19.8871
 11
18.7526
 21
19.9684
  0
LINE
  8
0
 10
18.7526
 20
19.9684
 11
18.75
 21
20.05
  0
LINE
  8
0
 10
18.75
 20
20.05
 11
18.7526
 21
20.1316
  0
LINE
  8
0
 10
18.7526
 20
20.1316
 11
18.7602
 21
20.2129
  0
LINE
  8
0
 10
18.7602
 20
20.2129
 11
18.773
 21
20.2936
  0
LINE
  8
0
 10
18.773
 20
20.2936
 11
18.7908
 21
20.3733
  0
LINE
  8
0
 10
18.7908
 20
20.3733
 11
18.8136
 21
20.4517
  0
LINE
  8
0
 10
18.8136
 20
20.4517
 11
18.8413
 21
20.5285
  0
LINE
  8
0
 10
18.8413
 20
20.5285
 11
18.8737
 21
20.6035
  0
LINE
  8
0
 10
18.8737
 20
20.6035
 11
18.9108
 21
20.6763
  0
LINE
  8
0
 10
18.9108
 20
20.6763
 11
18.9524
 21
20.7466
  0
LINE
  8
0
 10
18.9524
 20
20.7466
 11
18.9983
 21
20.8141
  0
LINE
  8
0
 10
18.9983
 20
20.8141
 11
19.0483
 21
20.8786
  0
LINE
  8
0
 10
19.0483
 20
20.8786
 11
19.1023
 21
20.9399
  0
LINE
  8
0
 10
19.1023
 20
20.9399
 11
19.1601
 21
20.9977
  0
LINE
  8
0
 10
19.1601
 20
20.9977
 11
19.2213
 21
21.0517
  0
LINE
  8
0
 10
19.2213
 20
21.0517
 11
19.2859
 21
21.1017
  0
LINE
  8
0
 10
19.2859
 20
21.1017
 11
19.3534
 21
21.1476
  0
LINE
  8
0
 10
19.3534
 20
21.1476
 11
19.4237
 21
21.1892
  0
LINE
  8
0
 10
19.4237
 20
21.1892
 11
19.4965
 21
21.2263
  0
LINE
  8
0
 10
19.4965
 20
21.2263
 11
19.5714
 21
21.2587
  0
LINE
  8
0
 10
19.5714
 20
21.2587
 11
19.6483
 21
21.2864
  0
LINE
  8
0
 10
19.6483
 20
21.2864
 11
19.7267
 21
21.3091
  0
LINE
  8
0
 10
19.7267
 20
21.3091
 11
19.8064
 21
21.327
  0
LINE
  8
0
 10
19.8064
 20
21.327
 11
19.8871
 21
21.3397
  0
LINE
  8
0
 10
19.8871
 20
21.3397
 11
19.9684
 21
21.3474
  0
LINE
  8
0
 10
19.9684
 20
21.3474
 11
20.05
 21
21.35
  0
LINE
  8
0
 10
20.05
 20
21.35
 11
20.1316
 21
21.3474
  0
LINE
  8
0
 10
20.1316
 20
21.3474
 11
20.2129
 21
21.3397
  0
LINE
  8
0
 10
20.2129
 20
21.3397
 11
20.2936
 21
21.327
  0
LINE
  8
0
 10
20.2936
 20
21.327
 11
20.3733
 21
21.3091
  0
LINE
  8
0
 10
20.3733
 20
21.3091
 11
20.4517
 21
21.2864
  0
LINE
  8
0
 10
20.4517
 20
21.2864
 11
20.5285
 21
21.2587
  0
LINE
  8
0
 10
20.5285
 20
21.2587
 11
20.6035
 21
21.2263
  0
LINE
  8
0
 10
20.6035
 20
21.2263
 11
20.6763
 21
21.1892
  0
LINE
  8
0
 10
20.6763
 20
21.1892
 11
20.7466
 21
21.1476
  0
LINE
  8
0
 10
20.7466
 20
21.1476
 11
20.8141
 21
21.1017
  0
LINE
  8
0
 10
20.8141
 20
21.1017
 11
20.8786
 21
21.0517
  0
LINE
  8
0
 10
20.8786
 20
21.0517
 11
20.9399
 21
20.9977
  0
LINE
  8
0
 10
20.9399
 20
20.9977
 11
20.9977
 21
20.9399
  0
LINE
  8
0
 10
20.9977
 20
20.9399
 11
21.0517
 21
20.8786
  0
LINE
  8
0
 10
21.0517
 20
20.8786
 11
21.1017
 21
20.8141
  0
LINE
  8
0
 10
21.1017
 20
20.8141
 11
21.1476
 21
20.7466
  0
LINE
  8
0
 10
21.1476
 20
20.7466
 11
21.1892
 21
20.6763
  0
LINE
  8
0
 10
21.1892
 20
20.6763
 11
21.2263
 21
20.6035
  0
LINE
  8
0
 10
21.2263
 20
20.6035
 11
21.2587
 21
20.5285
  0
LINE
  8
0
 10
21.2587
 20
20.5285
 11
21.2864
 21
20.4517
  0
LINE
  8
0
 10
21.2864
 20
20.4517
 11
21.3091
 21
20.3733
  0
LINE
  8
0
 10
21.3091
 20
20.3733
 11
21.327
 21
20.2936
  0
LINE
  8
0
 10
21.327
 20
20.2936
 11
21.3397
 21
20.2129
  0
LINE
  8
0
 10
21.3397
 20
20.2129
 11
21.3474
 21
20.1316
  0
LINE
  8
0
 10
21.3474
 20
20.1316
 11
21.35
 21
20.05
  0
LINE
  8
0
 10
21.35
 20
20.05
 11
21.3474
 21
19.9684
  0
LINE
  8
0
 10
21.3474
 20
19.9684
 11
21.3397
 21
19.8871
  0
LINE
  8
0
 10
21.3397
 20
19.8871
 11
21.327
 21
19.8064
  0
LINE
  8
0
 10
21.327
 20
19.8064
 11
21.3091
 21
19.7267
  0
LINE
  8
0
 10
21.3091
 20
19.7267
 11
21.2864
 21
19.6483
  0
LINE
  8
0
 10
21.2864
 20
19.6483
 11
21.2587
 21
19.5714
  0
LINE
  8
0
 10
21.2587
 20
19.5714
 11
21.2263
 21
19.4965
  0
LINE
  8
0
 10
21.2263
 20
19.4965
 11
21.1892
 21
19.4237
  0
LINE
  8
0
 10
21.1892
 20
19.4237
 11
21.1476
 21
19.3534
  0
LINE
  8
0
 10
21.1476
 20
19.3534
 11
21.1017
 21
19.2859
  0
LINE
  8
0
 10
21.1017
 20
19.2859
 11
21.0517
 21
19.2213
  0
LINE
  8
0
 10
21.0517
 20
19.2213
 11
20.9977
 21
19.1601
  0
LINE
  8
0
 10
20.9977
 20
19.1601
 11
20.9399
 21
19.1023
  0
LINE
  8
0
 10
20.9399
 20
19.1023
 11
20.8786
 21
19.0483
  0
LINE
  8
0
 10
20.8786
 20
19.0483
 11
20.8141
 21
18.9983
  0
LINE
  8
0
 10
20.8141
 20
18.9983
 11
20.7466
 21
18.9524
  0
LINE
  8
0
 10
20.7466
 20
18.9524
 11
20.6763
 21
18.9108
  0
LINE
  8
0
 10
20.6763
 20
18.9108
 11
20.6035
 21
18.8737
  0
LINE
  8
0
 10
20.6035
 20
18.8737
 11
20.5285
 21
18.8413
  0
LINE
  8
0
 10
20.5285
 20
18.8413
 11
20.4517
 21
18.8136
  0
LINE
  8
0
 10
20.4517
 20
18.8136
 11
20.3733
 21
18.7908
  0
LINE
  8
0
 10
20.3733
 20
18.7908
 11
20.2936
 21
18.773
  0
LINE
  8
0
 10
20.2936
 20
18.773
 11
20.2129
 21
18.7602
  0
LINE
  8
0
 10
20.2129
 20
18.7602
 11
20.1316
 21
18.7526
  0
LINE
  8
0
 10
20.1316
 20
18.7526
 11
20.05
 21
18.75
  0
LINE
  8
0
 10
20.05
 20
18.75
 11
19.9684
 21
18.7526
  0
LINE
  8
0
 10
98.775
 20
5.81099
 11
98.775
 21
19.811
  0
LINE
  8
0
 10
98.775
 20
19.811
 11
112.775
 21
19.811
  0
LINE
  8
0
 10
112.775
 20
19.811
 11
112.775
 21
5.81099
  0
LINE
  8
0
 10
112.775
 20
5.81099
 11
98.775
 21
5.81099
  0
LINE
  8
0
 10
3.52499
 20
3.52499
 11
3.52499
 21
17.525
  0
LINE
  8
0
 10
3.52499
 20
17.525
 11
17.525
 21
17.525
  0
LINE
  8
0
 10
17.525
 20
17.525
 11
17.525
 21
3.52499
  0
LINE
  8
0
 10
17.525
 20
3.52499
 11
3.52499
 21
3.52499
  0
LINE
  8
0
 10
22.575
 20
3.52499
 11
22.575
 21
17.525
  0
LINE
  8
0
 10
22.575
 20
17.525
 11
36.575
 21
17.525
  0
LINE
  8
0
 10
36.575
 20
17.525
 11
36.575
 21
3.52499
  0
LINE
  8
0
 10
36.575
 20
3.52499
 11
22.575
 21
3.52499
  0
ENDSEC
  0
SECTION
  2
OBJECTS
  0
DICTIONARY
  0
ENDSEC
  0
EOF
