  0
SECTION
  2
BLOCKS
  0
ENDSEC
  0
SECTION
  2
ENTITIES
  0
LINE
  8
0
 10
-36.6527
 20
-4.7964
 11
-35.5434
 21
-4.69156
  0
LINE
  8
0
 10
-35.5434
 20
-4.69156
 11
-0.87468
 21
0.00788879
  0
LINE
  8
0
 10
-0.87468
 20
0.00788879
 11
-0.812622
 21
0.0177155
  0
LINE
  8
0
 10
-0.812622
 20
0.0177155
 11
-0.751312
 21
0.0314178
  0
LINE
  8
0
 10
-0.751312
 20
0.0314178
 11
-0.690994
 21
0.0489502
  0
LINE
  8
0
 10
-0.690994
 20
0.0489502
 11
-0.631882
 21
0.0702362
  0
LINE
  8
0
 10
-0.631882
 20
0.0702362
 11
-0.574234
 21
0.0951843
  0
LINE
  8
0
 10
-0.574234
 20
0.0951843
 11
-0.51825
 21
0.123703
  0
LINE
  8
0
 10
-0.51825
 20
0.123703
 11
-0.464188
 21
0.155685
  0
LINE
  8
0
 10
-0.464188
 20
0.155685
 11
-0.412216
 21
0.190994
  0
LINE
  8
0
 10
-0.412216
 20
0.190994
 11
-0.362579
 21
0.229492
  0
LINE
  8
0
 10
-0.362579
 20
0.229492
 11
-0.31546
 21
0.271042
  0
LINE
  8
0
 10
-0.31546
 20
0.271042
 11
-0.271042
 21
0.31546
  0
LINE
  8
0
 10
-0.271042
 20
0.31546
 11
-0.229492
 21
0.362579
  0
LINE
  8
0
 10
-0.229492
 20
0.362579
 11
-0.190994
 21
0.412216
  0
LINE
  8
0
 10
-0.190994
 20
0.412216
 11
-0.155685
 21
0.464188
  0
LINE
  8
0
 10
-0.155685
 20
0.464188
 11
-0.123703
 21
0.51825
  0
LINE
  8
0
 10
-0.123703
 20
0.51825
 11
-0.0951843
 21
0.574234
  0
LINE
  8
0
 10
-0.0951843
 20
0.574234
 11
-0.0702362
 21
0.631882
  0
LINE
  8
0
 10
-0.0702362
 20
0.631882
 11
-0.0489502
 21
0.690994
  0
LINE
  8
0
 10
-0.0489502
 20
0.690994
 11
-0.0314178
 21
0.751312
  0
LINE
  8
0
 10
-0.0314178
 20
0.751312
 11
-0.0177155
 21
0.812622
  0
LINE
  8
0
 10
-0.0177155
 20
0.812622
 11
-0.00788879
 21
0.87468
  0
LINE
  8
0
 10
-0.00788879
 20
0.87468
 11
-0.00198364
 21
0.93721
  0
LINE
  8
0
 10
-0.00198364
 20
0.93721
 11
0
 21
1
  0
LINE
  8
0
 10
0
 20
1
 11
0
 21
24.8125
  0
LINE
  8
0
 10
0
 20
24.8125
 11
-0.00198364
 21
24.8753
  0
LINE
  8
0
 10
-0.00198364
 20
24.8753
 11
-0.00788879
 21
24.9378
  0
LINE
  8
0
 10
-0.00788879
 20
24.9378
 11
-0.0177155
 21
24.9999
  0
LINE
  8
0
 10
-0.0177155
 20
24.9999
 11
-0.0314178
 21
25.0612
  0
LINE
  8
0
 10
-0.0314178
 20
25.0612
 11
-0.0489502
 21
25.1215
  0
LINE
  8
0
 10
-0.0489502
 20
25.1215
 11
-0.0702362
 21
25.1806
  0
LINE
  8
0
 10
-0.0702362
 20
25.1806
 11
-0.0951843
 21
25.2383
  0
LINE
  8
0
 10
-0.0951843
 20
25.2383
 11
-0.123703
 21
25.2943
  0
LINE
  8
0
 10
-0.123703
 20
25.2943
 11
-0.155685
 21
25.3483
  0
LINE
  8
0
 10
-0.155685
 20
25.3483
 11
-0.190994
 21
25.4003
  0
LINE
  8
0
 10
-0.190994
 20
25.4003
 11
-0.229492
 21
25.4499
  0
LINE
  8
0
 10
-0.229492
 20
25.4499
 11
-0.271042
 21
25.497
  0
LINE
  8
0
 10
-0.271042
 20
25.497
 11
-0.31546
 21
25.5415
  0
LINE
  8
0
 10
-0.31546
 20
25.5415
 11
-0.362579
 21
25.583
  0
LINE
  8
0
 10
-0.362579
 20
25.583
 11
-0.412216
 21
25.6215
  0
LINE
  8
0
 10
-0.412216
 20
25.6215
 11
-0.464188
 21
25.6568
  0
LINE
  8
0
 10
-0.464188
 20
25.6568
 11
-0.51825
 21
25.6888
  0
LINE
  8
0
 10
-0.51825
 20
25.6888
 11
-0.574234
 21
25.7173
  0
LINE
  8
0
 10
-0.574234
 20
25.7173
 11
-0.631882
 21
25.7423
  0
LINE
  8
0
 10
-0.631882
 20
25.7423
 11
-0.690994
 21
25.7635
  0
LINE
  8
0
 10
-0.690994
 20
25.7635
 11
-0.751312
 21
25.7811
  0
LINE
  8
0
 10
-0.751312
 20
25.7811
 11
-0.812622
 21
25.7948
  0
LINE
  8
0
 10
-0.812622
 20
25.7948
 11
-0.87468
 21
25.8046
  0
LINE
  8
0
 10
-0.87468
 20
25.8046
 11
-35.5434
 21
30.5041
  0
LINE
  8
0
 10
-35.5434
 20
30.5041
 11
-36.6527
 21
30.6089
  0
LINE
  8
0
 10
-36.6527
 20
30.6089
 11
-37.7665
 21
30.6439
  0
LINE
  8
0
 10
-37.7665
 20
30.6439
 11
-38.8803
 21
30.6089
  0
LINE
  8
0
 10
-38.8803
 20
30.6089
 11
-39.9896
 21
30.5041
  0
LINE
  8
0
 10
-39.9896
 20
30.5041
 11
-41.0901
 21
30.3297
  0
LINE
  8
0
 10
-41.0901
 20
30.3297
 11
-42.1777
 21
30.0866
  0
LINE
  8
0
 10
-42.1777
 20
30.0866
 11
-43.2476
 21
29.7758
  0
LINE
  8
0
 10
-43.2476
 20
29.7758
 11
-44.2962
 21
29.3983
  0
LINE
  8
0
 10
-44.2962
 20
29.3983
 11
-45.3189
 21
28.9557
  0
LINE
  8
0
 10
-45.3189
 20
28.9557
 11
-46.3118
 21
28.4498
  0
LINE
  8
0
 10
-46.3118
 20
28.4498
 11
-47.2707
 21
27.8827
  0
LINE
  8
0
 10
-47.2707
 20
27.8827
 11
-48.1924
 21
27.2563
  0
LINE
  8
0
 10
-48.1924
 20
27.2563
 11
-49.0729
 21
26.5734
  0
LINE
  8
0
 10
-49.0729
 20
26.5734
 11
-49.9087
 21
25.8365
  0
LINE
  8
0
 10
-49.9087
 20
25.8365
 11
-50.6967
 21
25.0485
  0
LINE
  8
0
 10
-50.6967
 20
25.0485
 11
-51.4336
 21
24.2126
  0
LINE
  8
0
 10
-51.4336
 20
24.2126
 11
-52.1166
 21
23.3322
  0
LINE
  8
0
 10
-52.1166
 20
23.3322
 11
-52.7429
 21
22.4105
  0
LINE
  8
0
 10
-52.7429
 20
22.4105
 11
-53.3101
 21
21.4515
  0
LINE
  8
0
 10
-53.3101
 20
21.4515
 11
-53.816
 21
20.4586
  0
LINE
  8
0
 10
-53.816
 20
20.4586
 11
-54.2585
 21
19.436
  0
LINE
  8
0
 10
-54.2585
 20
19.436
 11
-54.6361
 21
18.3873
  0
LINE
  8
0
 10
-54.6361
 20
18.3873
 11
-54.9469
 21
17.3175
  0
LINE
  8
0
 10
-54.9469
 20
17.3175
 11
-55.19
 21
16.2299
  0
LINE
  8
0
 10
-55.19
 20
16.2299
 11
-55.3643
 21
15.1293
  0
LINE
  8
0
 10
-55.3643
 20
15.1293
 11
-55.4691
 21
14.0201
  0
LINE
  8
0
 10
-55.4691
 20
14.0201
 11
-55.5042
 21
12.9062
  0
LINE
  8
0
 10
-55.5042
 20
12.9062
 11
-55.4691
 21
11.7924
  0
LINE
  8
0
 10
-55.4691
 20
11.7924
 11
-55.3643
 21
10.6832
  0
LINE
  8
0
 10
-55.3643
 20
10.6832
 11
-55.19
 21
9.5826
  0
LINE
  8
0
 10
-55.19
 20
9.5826
 11
-54.9469
 21
8.49503
  0
LINE
  8
0
 10
-54.9469
 20
8.49503
 11
-54.6361
 21
7.42517
  0
LINE
  8
0
 10
-54.6361
 20
7.42517
 11
-54.2585
 21
6.37653
  0
LINE
  8
0
 10
-54.2585
 20
6.37653
 11
-53.816
 21
5.35387
  0
LINE
  8
0
 10
-53.816
 20
5.35387
 11
-53.3101
 21
4.36096
  0
LINE
  8
0
 10
-53.3101
 20
4.36096
 11
-52.7429
 21
3.40202
  0
LINE
  8
0
 10
-52.7429
 20
3.40202
 11
-52.1166
 21
2.48033
  0
LINE
  8
0
 10
-52.1166
 20
2.48033
 11
-51.4336
 21
1.59988
  0
LINE
  8
0
 10
-51.4336
 20
1.59988
 11
-50.6967
 21
0.764008
  0
LINE
  8
0
 10
-50.6967
 20
0.764008
 11
-49.9087
 21
-0.0239716
  0
LINE
  8
0
 10
-49.9087
 20
-0.0239716
 11
-49.0729
 21
-0.760895
  0
LINE
  8
0
 10
-49.0729
 20
-0.760895
 11
-48.1924
 21
-1.44383
  0
LINE
  8
0
 10
-48.1924
 20
-1.44383
 11
-47.2707
 21
-2.07019
  0
LINE
  8
0
 10
-47.2707
 20
-2.07019
 11
-46.3118
 21
-2.63731
  0
LINE
  8
0
 10
-46.3118
 20
-2.63731
 11
-45.3189
 21
-3.14323
  0
LINE
  8
0
 10
-45.3189
 20
-3.14323
 11
-44.2962
 21
-3.58578
  0
LINE
  8
0
 10
-44.2962
 20
-3.58578
 11
-43.2476
 21
-3.96333
  0
LINE
  8
0
 10
-43.2476
 20
-3.96333
 11
-42.1777
 21
-4.27414
  0
LINE
  8
0
 10
-42.1777
 20
-4.27414
 11
-41.0901
 21
-4.51724
  0
LINE
  8
0
 10
-41.0901
 20
-4.51724
 11
-39.9896
 21
-4.69156
  0
LINE
  8
0
 10
-39.9896
 20
-4.69156
 11
-38.8803
 21
-4.7964
  0
LINE
  8
0
 10
-38.8803
 20
-4.7964
 11
-37.7665
 21
-4.83141
  0
LINE
  8
0
 10
-37.7665
 20
-4.83141
 11
-36.6527
 21
-4.7964
  0
LINE
  8
0
 10
-37.8481
 20
25.1088
 11
-37.9294
 21
25.1165
  0
LINE
  8
0
 10
-37.9294
 20
25.1165
 11
-38.0101
 21
25.1293
  0
LINE
  8
0
 10
-38.0101
 20
25.1293
 11
-38.0898
 21
25.1471
  0
LINE
  8
0
 10
-38.0898
 20
25.1471
 11
-38.1682
 21
25.1699
  0
LINE
  8
0
 10
-38.1682
 20
25.1699
 11
-38.2451
 21
25.1975
  0
LINE
  8
0
 10
-38.2451
 20
25.1975
 11
-38.32
 21
25.23
  0
LINE
  8
0
 10
-38.32
 20
25.23
 11
-38.3928
 21
25.267
  0
LINE
  8
0
 10
-38.3928
 20
25.267
 11
-38.4631
 21
25.3086
  0
LINE
  8
0
 10
-38.4631
 20
25.3086
 11
-38.5306
 21
25.3545
  0
LINE
  8
0
 10
-38.5306
 20
25.3545
 11
-38.5951
 21
25.4046
  0
LINE
  8
0
 10
-38.5951
 20
25.4046
 11
-38.6564
 21
25.4586
  0
LINE
  8
0
 10
-38.6564
 20
25.4586
 11
-38.7141
 21
25.5163
  0
LINE
  8
0
 10
-38.7141
 20
25.5163
 11
-38.7682
 21
25.5776
  0
LINE
  8
0
 10
-38.7682
 20
25.5776
 11
-38.8182
 21
25.6421
  0
LINE
  8
0
 10
-38.8182
 20
25.6421
 11
-38.8641
 21
25.7097
  0
LINE
  8
0
 10
-38.8641
 20
25.7097
 11
-38.9057
 21
25.78
  0
LINE
  8
0
 10
-38.9057
 20
25.78
 11
-38.9428
 21
25.8527
  0
LINE
  8
0
 10
-38.9428
 20
25.8527
 11
-38.9752
 21
25.9277
  0
LINE
  8
0
 10
-38.9752
 20
25.9277
 11
-39.0029
 21
26.0045
  0
LINE
  8
0
 10
-39.0029
 20
26.0045
 11
-39.0257
 21
26.0829
  0
LINE
  8
0
 10
-39.0257
 20
26.0829
 11
-39.0435
 21
26.1626
  0
LINE
  8
0
 10
-39.0435
 20
26.1626
 11
-39.0562
 21
26.2433
  0
LINE
  8
0
 10
-39.0562
 20
26.2433
 11
-39.0639
 21
26.3246
  0
LINE
  8
0
 10
-39.0639
 20
26.3246
 11
-39.0665
 21
26.4062
  0
LINE
  8
0
 10
-39.0665
 20
26.4062
 11
-39.0639
 21
26.4879
  0
LINE
  8
0
 10
-39.0639
 20
26.4879
 11
-39.0562
 21
26.5692
  0
LINE
  8
0
 10
-39.0562
 20
26.5692
 11
-39.0435
 21
26.6498
  0
LINE
  8
0
 10
-39.0435
 20
26.6498
 11
-39.0257
 21
26.7295
  0
LINE
  8
0
 10
-39.0257
 20
26.7295
 11
-39.0029
 21
26.808
  0
LINE
  8
0
 10
-39.0029
 20
26.808
 11
-38.9752
 21
26.8848
  0
LINE
  8
0
 10
-38.9752
 20
26.8848
 11
-38.9428
 21
26.9598
  0
LINE
  8
0
 10
-38.9428
 20
26.9598
 11
-38.9057
 21
27.0325
  0
LINE
  8
0
 10
-38.9057
 20
27.0325
 11
-38.8641
 21
27.1028
  0
LINE
  8
0
 10
-38.8641
 20
27.1028
 11
-38.8182
 21
27.1704
  0
LINE
  8
0
 10
-38.8182
 20
27.1704
 11
-38.7682
 21
27.2349
  0
LINE
  8
0
 10
-38.7682
 20
27.2349
 11
-38.7141
 21
27.2962
  0
LINE
  8
0
 10
-38.7141
 20
27.2962
 11
-38.6564
 21
27.3539
  0
LINE
  8
0
 10
-38.6564
 20
27.3539
 11
-38.5951
 21
27.4079
  0
LINE
  8
0
 10
-38.5951
 20
27.4079
 11
-38.5306
 21
27.458
  0
LINE
  8
0
 10
-38.5306
 20
27.458
 11
-38.4631
 21
27.5039
  0
LINE
  8
0
 10
-38.4631
 20
27.5039
 11
-38.3928
 21
27.5454
  0
LINE
  8
0
 10
-38.3928
 20
27.5454
 11
-38.32
 21
27.5825
  0
LINE
  8
0
 10
-38.32
 20
27.5825
 11
-38.2451
 21
27.6149
  0
LINE
  8
0
 10
-38.2451
 20
27.6149
 11
-38.1682
 21
27.6426
  0
LINE
  8
0
 10
-38.1682
 20
27.6426
 11
-38.0898
 21
27.6654
  0
LINE
  8
0
 10
-38.0898
 20
27.6654
 11
-38.0101
 21
27.6832
  0
LINE
  8
0
 10
-38.0101
 20
27.6832
 11
-37.9294
 21
27.696
  0
LINE
  8
0
 10
-37.9294
 20
27.696
 11
-37.8481
 21
27.7037
  0
LINE
  8
0
 10
-37.8481
 20
27.7037
 11
-37.7665
 21
27.7062
  0
LINE
  8
0
 10
-37.7665
 20
27.7062
 11
-37.6849
 21
27.7037
  0
LINE
  8
0
 10
-37.6849
 20
27.7037
 11
-37.6036
 21
27.696
  0
LINE
  8
0
 10
-37.6036
 20
27.696
 11
-37.5229
 21
27.6832
  0
LINE
  8
0
 10
-37.5229
 20
27.6832
 11
-37.4432
 21
27.6654
  0
LINE
  8
0
 10
-37.4432
 20
27.6654
 11
-37.3648
 21
27.6426
  0
LINE
  8
0
 10
-37.3648
 20
27.6426
 11
-37.2879
 21
27.6149
  0
LINE
  8
0
 10
-37.2879
 20
27.6149
 11
-37.213
 21
27.5825
  0
LINE
  8
0
 10
-37.213
 20
27.5825
 11
-37.1402
 21
27.5454
  0
LINE
  8
0
 10
-37.1402
 20
27.5454
 11
-37.0699
 21
27.5039
  0
LINE
  8
0
 10
-37.0699
 20
27.5039
 11
-37.0024
 21
27.458
  0
LINE
  8
0
 10
-37.0024
 20
27.458
 11
-36.9379
 21
27.4079
  0
LINE
  8
0
 10
-36.9379
 20
27.4079
 11
-36.8766
 21
27.3539
  0
LINE
  8
0
 10
-36.8766
 20
27.3539
 11
-36.8188
 21
27.2962
  0
LINE
  8
0
 10
-36.8188
 20
27.2962
 11
-36.7648
 21
27.2349
  0
LINE
  8
0
 10
-36.7648
 20
27.2349
 11
-36.7148
 21
27.1704
  0
LINE
  8
0
 10
-36.7148
 20
27.1704
 11
-36.6689
 21
27.1028
  0
LINE
  8
0
 10
-36.6689
 20
27.1028
 11
-36.6273
 21
27.0325
  0
LINE
  8
0
 10
-36.6273
 20
27.0325
 11
-36.5902
 21
26.9598
  0
LINE
  8
0
 10
-36.5902
 20
26.9598
 11
-36.5578
 21
26.8848
  0
LINE
  8
0
 10
-36.5578
 20
26.8848
 11
-36.5301
 21
26.808
  0
LINE
  8
0
 10
-36.5301
 20
26.808
 11
-36.5073
 21
26.7295
  0
LINE
  8
0
 10
-36.5073
 20
26.7295
 11
-36.4895
 21
26.6498
  0
LINE
  8
0
 10
-36.4895
 20
26.6498
 11
-36.4768
 21
26.5692
  0
LINE
  8
0
 10
-36.4768
 20
26.5692
 11
-36.4691
 21
26.4879
  0
LINE
  8
0
 10
-36.4691
 20
26.4879
 11
-36.4665
 21
26.4062
  0
LINE
  8
0
 10
-36.4665
 20
26.4062
 11
-36.4691
 21
26.3246
  0
LINE
  8
0
 10
-36.4691
 20
26.3246
 11
-36.4768
 21
26.2433
  0
LINE
  8
0
 10
-36.4768
 20
26.2433
 11
-36.4895
 21
26.1626
  0
LINE
  8
0
 10
-36.4895
 20
26.1626
 11
-36.5073
 21
26.0829
  0
LINE
  8
0
 10
-36.5073
 20
26.0829
 11
-36.5301
 21
26.0045
  0
LINE
  8
0
 10
-36.5301
 20
26.0045
 11
-36.5578
 21
25.9277
  0
LINE
  8
0
 10
-36.5578
 20
25.9277
 11
-36.5902
 21
25.8527
  0
LINE
  8
0
 10
-36.5902
 20
25.8527
 11
-36.6273
 21
25.78
  0
LINE
  8
0
 10
-36.6273
 20
25.78
 11
-36.6689
 21
25.7097
  0
LINE
  8
0
 10
-36.6689
 20
25.7097
 11
-36.7148
 21
25.6421
  0
LINE
  8
0
 10
-36.7148
 20
25.6421
 11
-36.7648
 21
25.5776
  0
LINE
  8
0
 10
-36.7648
 20
25.5776
 11
-36.8188
 21
25.5163
  0
LINE
  8
0
 10
-36.8188
 20
25.5163
 11
-36.8766
 21
25.4586
  0
LINE
  8
0
 10
-36.8766
 20
25.4586
 11
-36.9379
 21
25.4046
  0
LINE
  8
0
 10
-36.9379
 20
25.4046
 11
-37.0024
 21
25.3545
  0
LINE
  8
0
 10
-37.0024
 20
25.3545
 11
-37.0699
 21
25.3086
  0
LINE
  8
0
 10
-37.0699
 20
25.3086
 11
-37.1402
 21
25.267
  0
LINE
  8
0
 10
-37.1402
 20
25.267
 11
-37.213
 21
25.23
  0
LINE
  8
0
 10
-37.213
 20
25.23
 11
-37.2879
 21
25.1975
  0
LINE
  8
0
 10
-37.2879
 20
25.1975
 11
-37.3648
 21
25.1699
  0
LINE
  8
0
 10
-37.3648
 20
25.1699
 11
-37.4432
 21
25.1471
  0
LINE
  8
0
 10
-37.4432
 20
25.1471
 11
-37.5229
 21
25.1293
  0
LINE
  8
0
 10
-37.5229
 20
25.1293
 11
-37.6036
 21
25.1165
  0
LINE
  8
0
 10
-37.6036
 20
25.1165
 11
-37.6849
 21
25.1088
  0
LINE
  8
0
 10
-37.6849
 20
25.1088
 11
-37.7665
 21
25.1062
  0
LINE
  8
0
 10
-37.7665
 20
25.1062
 11
-37.8481
 21
25.1088
  0
LINE
  8
0
 10
-19.1791
 20
21.7291
 11
-19.2604
 21
21.7368
  0
LINE
  8
0
 10
-19.2604
 20
21.7368
 11
-19.3411
 21
21.7496
  0
LINE
  8
0
 10
-19.3411
 20
21.7496
 11
-19.4208
 21
21.7674
  0
LINE
  8
0
 10
-19.4208
 20
21.7674
 11
-19.4992
 21
21.7902
  0
LINE
  8
0
 10
-19.4992
 20
21.7902
 11
-19.576
 21
21.8178
  0
LINE
  8
0
 10
-19.576
 20
21.8178
 11
-19.651
 21
21.8503
  0
LINE
  8
0
 10
-19.651
 20
21.8503
 11
-19.7238
 21
21.8874
  0
LINE
  8
0
 10
-19.7238
 20
21.8874
 11
-19.7941
 21
21.9289
  0
LINE
  8
0
 10
-19.7941
 20
21.9289
 11
-19.8616
 21
21.9748
  0
LINE
  8
0
 10
-19.8616
 20
21.9748
 11
-19.9261
 21
22.0249
  0
LINE
  8
0
 10
-19.9261
 20
22.0249
 11
-19.9874
 21
22.0789
  0
LINE
  8
0
 10
-19.9874
 20
22.0789
 11
-20.0452
 21
22.1366
  0
LINE
  8
0
 10
-20.0452
 20
22.1366
 11
-20.0992
 21
22.1979
  0
LINE
  8
0
 10
-20.0992
 20
22.1979
 11
-20.1492
 21
22.2624
  0
LINE
  8
0
 10
-20.1492
 20
22.2624
 11
-20.1951
 21
22.33
  0
LINE
  8
0
 10
-20.1951
 20
22.33
 11
-20.2367
 21
22.4003
  0
LINE
  8
0
 10
-20.2367
 20
22.4003
 11
-20.2738
 21
22.473
  0
LINE
  8
0
 10
-20.2738
 20
22.473
 11
-20.3062
 21
22.548
  0
LINE
  8
0
 10
-20.3062
 20
22.548
 11
-20.3339
 21
22.6248
  0
LINE
  8
0
 10
-20.3339
 20
22.6248
 11
-20.3566
 21
22.7033
  0
LINE
  8
0
 10
-20.3566
 20
22.7033
 11
-20.3745
 21
22.783
  0
LINE
  8
0
 10
-20.3745
 20
22.783
 11
-20.3872
 21
22.8636
  0
LINE
  8
0
 10
-20.3872
 20
22.8636
 11
-20.3949
 21
22.9449
  0
LINE
  8
0
 10
-20.3949
 20
22.9449
 11
-20.3975
 21
23.0266
  0
LINE
  8
0
 10
-20.3975
 20
23.0266
 11
-20.3949
 21
23.1082
  0
LINE
  8
0
 10
-20.3949
 20
23.1082
 11
-20.3872
 21
23.1895
  0
LINE
  8
0
 10
-20.3872
 20
23.1895
 11
-20.3745
 21
23.2702
  0
LINE
  8
0
 10
-20.3745
 20
23.2702
 11
-20.3566
 21
23.3499
  0
LINE
  8
0
 10
-20.3566
 20
23.3499
 11
-20.3339
 21
23.4283
  0
LINE
  8
0
 10
-20.3339
 20
23.4283
 11
-20.3062
 21
23.5051
  0
LINE
  8
0
 10
-20.3062
 20
23.5051
 11
-20.2738
 21
23.5801
  0
LINE
  8
0
 10
-20.2738
 20
23.5801
 11
-20.2367
 21
23.6528
  0
LINE
  8
0
 10
-20.2367
 20
23.6528
 11
-20.1951
 21
23.7231
  0
LINE
  8
0
 10
-20.1951
 20
23.7231
 11
-20.1492
 21
23.7907
  0
LINE
  8
0
 10
-20.1492
 20
23.7907
 11
-20.0992
 21
23.8552
  0
LINE
  8
0
 10
-20.0992
 20
23.8552
 11
-20.0452
 21
23.9165
  0
LINE
  8
0
 10
-20.0452
 20
23.9165
 11
-19.9874
 21
23.9742
  0
LINE
  8
0
 10
-19.9874
 20
23.9742
 11
-19.9261
 21
24.0282
  0
LINE
  8
0
 10
-19.9261
 20
24.0282
 11
-19.8616
 21
24.0783
  0
LINE
  8
0
 10
-19.8616
 20
24.0783
 11
-19.7941
 21
24.1242
  0
LINE
  8
0
 10
-19.7941
 20
24.1242
 11
-19.7238
 21
24.1658
  0
LINE
  8
0
 10
-19.7238
 20
24.1658
 11
-19.651
 21
24.2028
  0
LINE
  8
0
 10
-19.651
 20
24.2028
 11
-19.576
 21
24.2353
  0
LINE
  8
0
 10
-19.576
 20
24.2353
 11
-19.4992
 21
24.2629
  0
LINE
  8
0
 10
-19.4992
 20
24.2629
 11
-19.4208
 21
24.2857
  0
LINE
  8
0
 10
-19.4208
 20
24.2857
 11
-19.3411
 21
24.3035
  0
LINE
  8
0
 10
-19.3411
 20
24.3035
 11
-19.2604
 21
24.3163
  0
LINE
  8
0
 10
-19.2604
 20
24.3163
 11
-19.1791
 21
24.324
  0
LINE
  8
0
 10
-19.1791
 20
24.324
 11
-19.0975
 21
24.3266
  0
LINE
  8
0
 10
-19.0975
 20
24.3266
 11
-19.0159
 21
24.324
  0
LINE
  8
0
 10
-19.0159
 20
24.324
 11
-18.9346
 21
24.3163
  0
LINE
  8
0
 10
-18.9346
 20
24.3163
 11
-18.8539
 21
24.3035
  0
LINE
  8
0
 10
-18.8539
 20
24.3035
 11
-18.7742
 21
24.2857
  0
LINE
  8
0
 10
-18.7742
 20
24.2857
 11
-18.6958
 21
24.2629
  0
LINE
  8
0
 10
-18.6958
 20
24.2629
 11
-18.6189
 21
24.2353
  0
LINE
  8
0
 10
-18.6189
 20
24.2353
 11
-18.544
 21
24.2028
  0
LINE
  8
0
 10
-18.544
 20
24.2028
 11
-18.4712
 21
24.1658
  0
LINE
  8
0
 10
-18.4712
 20
24.1658
 11
-18.4009
 21
24.1242
  0
LINE
  8
0
 10
-18.4009
 20
24.1242
 11
-18.3334
 21
24.0783
  0
LINE
  8
0
 10
-18.3334
 20
24.0783
 11
-18.2688
 21
24.0282
  0
LINE
  8
0
 10
-18.2688
 20
24.0282
 11
-18.2076
 21
23.9742
  0
LINE
  8
0
 10
-18.2076
 20
23.9742
 11
-18.1498
 21
23.9165
  0
LINE
  8
0
 10
-18.1498
 20
23.9165
 11
-18.0958
 21
23.8552
  0
LINE
  8
0
 10
-18.0958
 20
23.8552
 11
-18.0458
 21
23.7907
  0
LINE
  8
0
 10
-18.0458
 20
23.7907
 11
-17.9999
 21
23.7231
  0
LINE
  8
0
 10
-17.9999
 20
23.7231
 11
-17.9583
 21
23.6528
  0
LINE
  8
0
 10
-17.9583
 20
23.6528
 11
-17.9212
 21
23.5801
  0
LINE
  8
0
 10
-17.9212
 20
23.5801
 11
-17.8888
 21
23.5051
  0
LINE
  8
0
 10
-17.8888
 20
23.5051
 11
-17.8611
 21
23.4283
  0
LINE
  8
0
 10
-17.8611
 20
23.4283
 11
-17.8383
 21
23.3499
  0
LINE
  8
0
 10
-17.8383
 20
23.3499
 11
-17.8205
 21
23.2702
  0
LINE
  8
0
 10
-17.8205
 20
23.2702
 11
-17.8077
 21
23.1895
  0
LINE
  8
0
 10
-17.8077
 20
23.1895
 11
-17.8001
 21
23.1082
  0
LINE
  8
0
 10
-17.8001
 20
23.1082
 11
-17.7975
 21
23.0266
  0
LINE
  8
0
 10
-17.7975
 20
23.0266
 11
-17.8001
 21
22.9449
  0
LINE
  8
0
 10
-17.8001
 20
22.9449
 11
-17.8077
 21
22.8636
  0
LINE
  8
0
 10
-17.8077
 20
22.8636
 11
-17.8205
 21
22.783
  0
LINE
  8
0
 10
-17.8205
 20
22.783
 11
-17.8383
 21
22.7033
  0
LINE
  8
0
 10
-17.8383
 20
22.7033
 11
-17.8611
 21
22.6248
  0
LINE
  8
0
 10
-17.8611
 20
22.6248
 11
-17.8888
 21
22.548
  0
LINE
  8
0
 10
-17.8888
 20
22.548
 11
-17.9212
 21
22.473
  0
LINE
  8
0
 10
-17.9212
 20
22.473
 11
-17.9583
 21
22.4003
  0
LINE
  8
0
 10
-17.9583
 20
22.4003
 11
-17.9999
 21
22.33
  0
LINE
  8
0
 10
-17.9999
 20
22.33
 11
-18.0458
 21
22.2624
  0
LINE
  8
0
 10
-18.0458
 20
22.2624
 11
-18.0958
 21
22.1979
  0
LINE
  8
0
 10
-18.0958
 20
22.1979
 11
-18.1498
 21
22.1366
  0
LINE
  8
0
 10
-18.1498
 20
22.1366
 11
-18.2076
 21
22.0789
  0
LINE
  8
0
 10
-18.2076
 20
22.0789
 11
-18.2688
 21
22.0249
  0
LINE
  8
0
 10
-18.2688
 20
22.0249
 11
-18.3334
 21
21.9748
  0
LINE
  8
0
 10
-18.3334
 20
21.9748
 11
-18.4009
 21
21.9289
  0
LINE
  8
0
 10
-18.4009
 20
21.9289
 11
-18.4712
 21
21.8874
  0
LINE
  8
0
 10
-18.4712
 20
21.8874
 11
-18.544
 21
21.8503
  0
LINE
  8
0
 10
-18.544
 20
21.8503
 11
-18.6189
 21
21.8178
  0
LINE
  8
0
 10
-18.6189
 20
21.8178
 11
-18.6958
 21
21.7902
  0
LINE
  8
0
 10
-18.6958
 20
21.7902
 11
-18.7742
 21
21.7674
  0
LINE
  8
0
 10
-18.7742
 20
21.7674
 11
-18.8539
 21
21.7496
  0
LINE
  8
0
 10
-18.8539
 20
21.7496
 11
-18.9346
 21
21.7368
  0
LINE
  8
0
 10
-18.9346
 20
21.7368
 11
-19.0159
 21
21.7291
  0
LINE
  8
0
 10
-19.0159
 20
21.7291
 11
-19.0975
 21
21.7266
  0
LINE
  8
0
 10
-19.0975
 20
21.7266
 11
-19.1791
 21
21.7291
  0
LINE
  8
0
 10
-38.4405
 20
2.1927
 11
-39.1119
 21
2.25616
  0
LINE
  8
0
 10
-39.1119
 20
2.25616
 11
-39.778
 21
2.36166
  0
LINE
  8
0
 10
-39.778
 20
2.36166
 11
-40.4361
 21
2.50877
  0
LINE
  8
0
 10
-40.4361
 20
2.50877
 11
-41.0837
 21
2.69691
  0
LINE
  8
0
 10
-41.0837
 20
2.69691
 11
-41.7182
 21
2.92535
  0
LINE
  8
0
 10
-41.7182
 20
2.92535
 11
-42.3371
 21
3.19318
  0
LINE
  8
0
 10
-42.3371
 20
3.19318
 11
-42.938
 21
3.49934
  0
LINE
  8
0
 10
-42.938
 20
3.49934
 11
-43.5184
 21
3.84262
  0
LINE
  8
0
 10
-43.5184
 20
3.84262
 11
-44.0762
 21
4.22168
  0
LINE
  8
0
 10
-44.0762
 20
4.22168
 11
-44.6091
 21
4.63499
  0
LINE
  8
0
 10
-44.6091
 20
4.63499
 11
-45.1149
 21
5.08096
  0
LINE
  8
0
 10
-45.1149
 20
5.08096
 11
-45.5918
 21
5.55782
  0
LINE
  8
0
 10
-45.5918
 20
5.55782
 11
-46.0377
 21
6.06367
  0
LINE
  8
0
 10
-46.0377
 20
6.06367
 11
-46.4511
 21
6.59653
  0
LINE
  8
0
 10
-46.4511
 20
6.59653
 11
-46.8301
 21
7.1543
  0
LINE
  8
0
 10
-46.8301
 20
7.1543
 11
-47.1734
 21
7.73476
  0
LINE
  8
0
 10
-47.1734
 20
7.73476
 11
-47.4796
 21
8.33562
  0
LINE
  8
0
 10
-47.4796
 20
8.33562
 11
-47.7474
 21
8.95453
  0
LINE
  8
0
 10
-47.7474
 20
8.95453
 11
-47.9758
 21
9.58904
  0
LINE
  8
0
 10
-47.9758
 20
9.58904
 11
-48.164
 21
10.2366
  0
LINE
  8
0
 10
-48.164
 20
10.2366
 11
-48.3111
 21
10.8948
  0
LINE
  8
0
 10
-48.3111
 20
10.8948
 11
-48.4166
 21
11.5608
  0
LINE
  8
0
 10
-48.4166
 20
11.5608
 11
-48.48
 21
12.2322
  0
LINE
  8
0
 10
-48.48
 20
12.2322
 11
-48.5012
 21
12.9062
  0
LINE
  8
0
 10
-48.5012
 20
12.9062
 11
-48.48
 21
13.5803
  0
LINE
  8
0
 10
-48.48
 20
13.5803
 11
-48.4166
 21
14.2517
  0
LINE
  8
0
 10
-48.4166
 20
14.2517
 11
-48.3111
 21
14.9177
  0
LINE
  8
0
 10
-48.3111
 20
14.9177
 11
-48.164
 21
15.5759
  0
LINE
  8
0
 10
-48.164
 20
15.5759
 11
-47.9758
 21
16.2234
  0
LINE
  8
0
 10
-47.9758
 20
16.2234
 11
-47.7474
 21
16.858
  0
LINE
  8
0
 10
-47.7474
 20
16.858
 11
-47.4796
 21
17.4769
  0
LINE
  8
0
 10
-47.4796
 20
17.4769
 11
-47.1734
 21
18.0777
  0
LINE
  8
0
 10
-47.1734
 20
18.0777
 11
-46.8301
 21
18.6582
  0
LINE
  8
0
 10
-46.8301
 20
18.6582
 11
-46.4511
 21
19.216
  0
LINE
  8
0
 10
-46.4511
 20
19.216
 11
-46.0377
 21
19.7488
  0
LINE
  8
0
 10
-46.0377
 20
19.7488
 11
-45.5918
 21
20.2547
  0
LINE
  8
0
 10
-45.5918
 20
20.2547
 11
-45.1149
 21
20.7315
  0
LINE
  8
0
 10
-45.1149
 20
20.7315
 11
-44.6091
 21
21.1775
  0
LINE
  8
0
 10
-44.6091
 20
21.1775
 11
-44.0762
 21
21.5908
  0
LINE
  8
0
 10
-44.0762
 20
21.5908
 11
-43.5184
 21
21.9699
  0
LINE
  8
0
 10
-43.5184
 20
21.9699
 11
-42.938
 21
22.3131
  0
LINE
  8
0
 10
-42.938
 20
22.3131
 11
-42.3371
 21
22.6193
  0
LINE
  8
0
 10
-42.3371
 20
22.6193
 11
-41.7182
 21
22.8871
  0
LINE
  8
0
 10
-41.7182
 20
22.8871
 11
-41.0837
 21
23.1156
  0
LINE
  8
0
 10
-41.0837
 20
23.1156
 11
-40.4361
 21
23.3037
  0
LINE
  8
0
 10
-40.4361
 20
23.3037
 11
-39.778
 21
23.4508
  0
LINE
  8
0
 10
-39.778
 20
23.4508
 11
-39.1119
 21
23.5563
  0
LINE
  8
0
 10
-39.1119
 20
23.5563
 11
-38.4405
 21
23.6198
  0
LINE
  8
0
 10
-38.4405
 20
23.6198
 11
-37.7665
 21
23.641
  0
LINE
  8
0
 10
-37.7665
 20
23.641
 11
-37.0925
 21
23.6198
  0
LINE
  8
0
 10
-37.0925
 20
23.6198
 11
-36.4211
 21
23.5563
  0
LINE
  8
0
 10
-36.4211
 20
23.5563
 11
-35.755
 21
23.4508
  0
LINE
  8
0
 10
-35.755
 20
23.4508
 11
-35.0969
 21
23.3037
  0
LINE
  8
0
 10
-35.0969
 20
23.3037
 11
-34.4493
 21
23.1156
  0
LINE
  8
0
 10
-34.4493
 20
23.1156
 11
-33.8148
 21
22.8871
  0
LINE
  8
0
 10
-33.8148
 20
22.8871
 11
-33.1959
 21
22.6193
  0
LINE
  8
0
 10
-33.1959
 20
22.6193
 11
-32.595
 21
22.3131
  0
LINE
  8
0
 10
-32.595
 20
22.3131
 11
-32.0145
 21
21.9699
  0
LINE
  8
0
 10
-32.0145
 20
21.9699
 11
-31.4568
 21
21.5908
  0
LINE
  8
0
 10
-31.4568
 20
21.5908
 11
-30.9239
 21
21.1775
  0
LINE
  8
0
 10
-30.9239
 20
21.1775
 11
-30.4181
 21
20.7315
  0
LINE
  8
0
 10
-30.4181
 20
20.7315
 11
-29.9412
 21
20.2547
  0
LINE
  8
0
 10
-29.9412
 20
20.2547
 11
-29.4953
 21
19.7488
  0
LINE
  8
0
 10
-29.4953
 20
19.7488
 11
-29.0819
 21
19.216
  0
LINE
  8
0
 10
-29.0819
 20
19.216
 11
-28.7029
 21
18.6582
  0
LINE
  8
0
 10
-28.7029
 20
18.6582
 11
-28.3596
 21
18.0777
  0
LINE
  8
0
 10
-28.3596
 20
18.0777
 11
-28.0534
 21
17.4769
  0
LINE
  8
0
 10
-28.0534
 20
17.4769
 11
-27.7856
 21
16.858
  0
LINE
  8
0
 10
-27.7856
 20
16.858
 11
-27.5572
 21
16.2234
  0
LINE
  8
0
 10
-27.5572
 20
16.2234
 11
-27.369
 21
15.5759
  0
LINE
  8
0
 10
-27.369
 20
15.5759
 11
-27.2219
 21
14.9177
  0
LINE
  8
0
 10
-27.2219
 20
14.9177
 11
-27.1164
 21
14.2517
  0
LINE
  8
0
 10
-27.1164
 20
14.2517
 11
-27.053
 21
13.5803
  0
LINE
  8
0
 10
-27.053
 20
13.5803
 11
-27.0318
 21
12.9062
  0
LINE
  8
0
 10
-27.0318
 20
12.9062
 11
-27.053
 21
12.2322
  0
LINE
  8
0
 10
-27.053
 20
12.2322
 11
-27.1164
 21
11.5608
  0
LINE
  8
0
 10
-27.1164
 20
11.5608
 11
-27.2219
 21
10.8948
  0
LINE
  8
0
 10
-27.2219
 20
10.8948
 11
-27.369
 21
10.2366
  0
LINE
  8
0
 10
-27.369
 20
10.2366
 11
-27.5572
 21
9.58904
  0
LINE
  8
0
 10
-27.5572
 20
9.58904
 11
-27.7856
 21
8.95453
  0
LINE
  8
0
 10
-27.7856
 20
8.95453
 11
-28.0534
 21
8.33562
  0
LINE
  8
0
 10
-28.0534
 20
8.33562
 11
-28.3596
 21
7.73476
  0
LINE
  8
0
 10
-28.3596
 20
7.73476
 11
-28.7029
 21
7.1543
  0
LINE
  8
0
 10
-28.7029
 20
7.1543
 11
-29.0819
 21
6.59653
  0
LINE
  8
0
 10
-29.0819
 20
6.59653
 11
-29.4953
 21
6.06367
  0
LINE
  8
0
 10
-29.4953
 20
6.06367
 11
-29.9412
 21
5.55782
  0
LINE
  8
0
 10
-29.9412
 20
5.55782
 11
-30.4181
 21
5.08096
  0
LINE
  8
0
 10
-30.4181
 20
5.08096
 11
-30.9239
 21
4.63499
  0
LINE
  8
0
 10
-30.9239
 20
4.63499
 11
-31.4568
 21
4.22168
  0
LINE
  8
0
 10
-31.4568
 20
4.22168
 11
-32.0145
 21
3.84262
  0
LINE
  8
0
 10
-32.0145
 20
3.84262
 11
-32.595
 21
3.49934
  0
LINE
  8
0
 10
-32.595
 20
3.49934
 11
-33.1959
 21
3.19318
  0
LINE
  8
0
 10
-33.1959
 20
3.19318
 11
-33.8148
 21
2.92535
  0
LINE
  8
0
 10
-33.8148
 20
2.92535
 11
-34.4493
 21
2.69691
  0
LINE
  8
0
 10
-34.4493
 20
2.69691
 11
-35.0969
 21
2.50877
  0
LINE
  8
0
 10
-35.0969
 20
2.50877
 11
-35.755
 21
2.36166
  0
LINE
  8
0
 10
-35.755
 20
2.36166
 11
-36.4211
 21
2.25616
  0
LINE
  8
0
 10
-36.4211
 20
2.25616
 11
-37.0925
 21
2.1927
  0
LINE
  8
0
 10
-37.0925
 20
2.1927
 11
-37.7665
 21
2.17152
  0
LINE
  8
0
 10
-37.7665
 20
2.17152
 11
-38.4405
 21
2.1927
  0
LINE
  8
0
 10
-17.525
 20
5.90625
 11
-17.525
 21
19.9062
  0
LINE
  8
0
 10
-17.525
 20
19.9062
 11
-3.52499
 21
19.9062
  0
LINE
  8
0
 10
-3.52499
 20
19.9062
 11
-3.52499
 21
5.90625
  0
LINE
  8
0
 10
-3.52499
 20
5.90625
 11
-17.525
 21
5.90625
  0
LINE
  8
0
 10
-19.1791
 20
1.48849
 11
-19.2604
 21
1.49619
  0
LINE
  8
0
 10
-19.2604
 20
1.49619
 11
-19.3411
 21
1.50896
  0
LINE
  8
0
 10
-19.3411
 20
1.50896
 11
-19.4208
 21
1.52678
  0
LINE
  8
0
 10
-19.4208
 20
1.52678
 11
-19.4992
 21
1.54956
  0
LINE
  8
0
 10
-19.4992
 20
1.54956
 11
-19.576
 21
1.57722
  0
LINE
  8
0
 10
-19.576
 20
1.57722
 11
-19.651
 21
1.60965
  0
LINE
  8
0
 10
-19.651
 20
1.60965
 11
-19.7238
 21
1.64673
  0
LINE
  8
0
 10
-19.7238
 20
1.64673
 11
-19.7941
 21
1.68831
  0
LINE
  8
0
 10
-19.7941
 20
1.68831
 11
-19.8616
 21
1.73421
  0
LINE
  8
0
 10
-19.8616
 20
1.73421
 11
-19.9261
 21
1.78426
  0
LINE
  8
0
 10
-19.9261
 20
1.78426
 11
-19.9874
 21
1.83827
  0
LINE
  8
0
 10
-19.9874
 20
1.83827
 11
-20.0452
 21
1.89601
  0
LINE
  8
0
 10
-20.0452
 20
1.89601
 11
-20.0992
 21
1.95728
  0
LINE
  8
0
 10
-20.0992
 20
1.95728
 11
-20.1492
 21
2.0218
  0
LINE
  8
0
 10
-20.1492
 20
2.0218
 11
-20.1951
 21
2.08936
  0
LINE
  8
0
 10
-20.1951
 20
2.08936
 11
-20.2367
 21
2.15965
  0
LINE
  8
0
 10
-20.2367
 20
2.15965
 11
-20.2738
 21
2.23242
  0
LINE
  8
0
 10
-20.2738
 20
2.23242
 11
-20.3062
 21
2.30737
  0
LINE
  8
0
 10
-20.3062
 20
2.30737
 11
-20.3339
 21
2.3842
  0
LINE
  8
0
 10
-20.3339
 20
2.3842
 11
-20.3566
 21
2.46263
  0
LINE
  8
0
 10
-20.3566
 20
2.46263
 11
-20.3745
 21
2.54233
  0
LINE
  8
0
 10
-20.3745
 20
2.54233
 11
-20.3872
 21
2.623
  0
LINE
  8
0
 10
-20.3872
 20
2.623
 11
-20.3949
 21
2.7043
  0
LINE
  8
0
 10
-20.3949
 20
2.7043
 11
-20.3975
 21
2.78593
  0
LINE
  8
0
 10
-20.3975
 20
2.78593
 11
-20.3949
 21
2.86755
  0
LINE
  8
0
 10
-20.3949
 20
2.86755
 11
-20.3872
 21
2.94887
  0
LINE
  8
0
 10
-20.3872
 20
2.94887
 11
-20.3745
 21
3.02953
  0
LINE
  8
0
 10
-20.3745
 20
3.02953
 11
-20.3566
 21
3.10922
  0
LINE
  8
0
 10
-20.3566
 20
3.10922
 11
-20.3339
 21
3.18765
  0
LINE
  8
0
 10
-20.3339
 20
3.18765
 11
-20.3062
 21
3.2645
  0
LINE
  8
0
 10
-20.3062
 20
3.2645
 11
-20.2738
 21
3.33945
  0
LINE
  8
0
 10
-20.2738
 20
3.33945
 11
-20.2367
 21
3.41222
  0
LINE
  8
0
 10
-20.2367
 20
3.41222
 11
-20.1951
 21
3.4825
  0
LINE
  8
0
 10
-20.1951
 20
3.4825
 11
-20.1492
 21
3.55005
  0
LINE
  8
0
 10
-20.1492
 20
3.55005
 11
-20.0992
 21
3.61458
  0
LINE
  8
0
 10
-20.0992
 20
3.61458
 11
-20.0452
 21
3.67584
  0
LINE
  8
0
 10
-20.0452
 20
3.67584
 11
-19.9874
 21
3.73358
  0
LINE
  8
0
 10
-19.9874
 20
3.73358
 11
-19.9261
 21
3.7876
  0
LINE
  8
0
 10
-19.9261
 20
3.7876
 11
-19.8616
 21
3.83765
  0
LINE
  8
0
 10
-19.8616
 20
3.83765
 11
-19.7941
 21
3.88356
  0
LINE
  8
0
 10
-19.7941
 20
3.88356
 11
-19.7238
 21
3.92513
  0
LINE
  8
0
 10
-19.7238
 20
3.92513
 11
-19.651
 21
3.9622
  0
LINE
  8
0
 10
-19.651
 20
3.9622
 11
-19.576
 21
3.99464
  0
LINE
  8
0
 10
-19.576
 20
3.99464
 11
-19.4992
 21
4.02231
  0
LINE
  8
0
 10
-19.4992
 20
4.02231
 11
-19.4208
 21
4.04509
  0
LINE
  8
0
 10
-19.4208
 20
4.04509
 11
-19.3411
 21
4.0629
  0
LINE
  8
0
 10
-19.3411
 20
4.0629
 11
-19.2604
 21
4.07568
  0
LINE
  8
0
 10
-19.2604
 20
4.07568
 11
-19.1791
 21
4.08336
  0
LINE
  8
0
 10
-19.1791
 20
4.08336
 11
-19.0975
 21
4.08594
  0
LINE
  8
0
 10
-19.0975
 20
4.08594
 11
-19.0159
 21
4.08336
  0
LINE
  8
0
 10
-19.0159
 20
4.08336
 11
-18.9346
 21
4.07568
  0
LINE
  8
0
 10
-18.9346
 20
4.07568
 11
-18.8539
 21
4.0629
  0
LINE
  8
0
 10
-18.8539
 20
4.0629
 11
-18.7742
 21
4.04509
  0
LINE
  8
0
 10
-18.7742
 20
4.04509
 11
-18.6958
 21
4.02231
  0
LINE
  8
0
 10
-18.6958
 20
4.02231
 11
-18.6189
 21
3.99464
  0
LINE
  8
0
 10
-18.6189
 20
3.99464
 11
-18.544
 21
3.9622
  0
LINE
  8
0
 10
-18.544
 20
3.9622
 11
-18.4712
 21
3.92513
  0
LINE
  8
0
 10
-18.4712
 20
3.92513
 11
-18.4009
 21
3.88356
  0
LINE
  8
0
 10
-18.4009
 20
3.88356
 11
-18.3334
 21
3.83765
  0
LINE
  8
0
 10
-18.3334
 20
3.83765
 11
-18.2688
 21
3.7876
  0
LINE
  8
0
 10
-18.2688
 20
3.7876
 11
-18.2076
 21
3.73358
  0
LINE
  8
0
 10
-18.2076
 20
3.73358
 11
-18.1498
 21
3.67584
  0
LINE
  8
0
 10
-18.1498
 20
3.67584
 11
-18.0958
 21
3.61458
  0
LINE
  8
0
 10
-18.0958
 20
3.61458
 11
-18.0458
 21
3.55005
  0
LINE
  8
0
 10
-18.0458
 20
3.55005
 11
-17.9999
 21
3.4825
  0
LINE
  8
0
 10
-17.9999
 20
3.4825
 11
-17.9583
 21
3.41222
  0
LINE
  8
0
 10
-17.9583
 20
3.41222
 11
-17.9212
 21
3.33945
  0
LINE
  8
0
 10
-17.9212
 20
3.33945
 11
-17.8888
 21
3.2645
  0
LINE
  8
0
 10
-17.8888
 20
3.2645
 11
-17.8611
 21
3.18765
  0
LINE
  8
0
 10
-17.8611
 20
3.18765
 11
-17.8383
 21
3.10922
  0
LINE
  8
0
 10
-17.8383
 20
3.10922
 11
-17.8205
 21
3.02953
  0
LINE
  8
0
 10
-17.8205
 20
3.02953
 11
-17.8077
 21
2.94887
  0
LINE
  8
0
 10
-17.8077
 20
2.94887
 11
-17.8001
 21
2.86755
  0
LINE
  8
0
 10
-17.8001
 20
2.86755
 11
-17.7975
 21
2.78593
  0
LINE
  8
0
 10
-17.7975
 20
2.78593
 11
-17.8001
 21
2.7043
  0
LINE
  8
0
 10
-17.8001
 20
2.7043
 11
-17.8077
 21
2.623
  0
LINE
  8
0
 10
-17.8077
 20
2.623
 11
-17.8205
 21
2.54233
  0
LINE
  8
0
 10
-17.8205
 20
2.54233
 11
-17.8383
 21
2.46263
  0
LINE
  8
0
 10
-17.8383
 20
2.46263
 11
-17.8611
 21
2.3842
  0
LINE
  8
0
 10
-17.8611
 20
2.3842
 11
-17.8888
 21
2.30737
  0
LINE
  8
0
 10
-17.8888
 20
2.30737
 11
-17.9212
 21
2.23242
  0
LINE
  8
0
 10
-17.9212
 20
2.23242
 11
-17.9583
 21
2.15965
  0
LINE
  8
0
 10
-17.9583
 20
2.15965
 11
-17.9999
 21
2.08936
  0
LINE
  8
0
 10
-17.9999
 20
2.08936
 11
-18.0458
 21
2.0218
  0
LINE
  8
0
 10
-18.0458
 20
2.0218
 11
-18.0958
 21
1.95728
  0
LINE
  8
0
 10
-18.0958
 20
1.95728
 11
-18.1498
 21
1.89601
  0
LINE
  8
0
 10
-18.1498
 20
1.89601
 11
-18.2076
 21
1.83827
  0
LINE
  8
0
 10
-18.2076
 20
1.83827
 11
-18.2688
 21
1.78426
  0
LINE
  8
0
 10
-18.2688
 20
1.78426
 11
-18.3334
 21
1.73421
  0
LINE
  8
0
 10
-18.3334
 20
1.73421
 11
-18.4009
 21
1.68831
  0
LINE
  8
0
 10
-18.4009
 20
1.68831
 11
-18.4712
 21
1.64673
  0
LINE
  8
0
 10
-18.4712
 20
1.64673
 11
-18.544
 21
1.60965
  0
LINE
  8
0
 10
-18.544
 20
1.60965
 11
-18.6189
 21
1.57722
  0
LINE
  8
0
 10
-18.6189
 20
1.57722
 11
-18.6958
 21
1.54956
  0
LINE
  8
0
 10
-18.6958
 20
1.54956
 11
-18.7742
 21
1.52678
  0
LINE
  8
0
 10
-18.7742
 20
1.52678
 11
-18.8539
 21
1.50896
  0
LINE
  8
0
 10
-18.8539
 20
1.50896
 11
-18.9346
 21
1.49619
  0
LINE
  8
0
 10
-18.9346
 20
1.49619
 11
-19.0159
 21
1.48849
  0
LINE
  8
0
 10
-19.0159
 20
1.48849
 11
-19.0975
 21
1.48593
  0
LINE
  8
0
 10
-19.0975
 20
1.48593
 11
-19.1791
 21
1.48849
  0
LINE
  8
0
 10
-37.8481
 20
-1.89117
 11
-37.9294
 21
-1.88348
  0
LINE
  8
0
 10
-37.9294
 20
-1.88348
 11
-38.0101
 21
-1.87071
  0
LINE
  8
0
 10
-38.0101
 20
-1.87071
 11
-38.0898
 21
-1.85291
  0
LINE
  8
0
 10
-38.0898
 20
-1.85291
 11
-38.1682
 21
-1.83011
  0
LINE
  8
0
 10
-38.1682
 20
-1.83011
 11
-38.2451
 21
-1.80244
  0
LINE
  8
0
 10
-38.2451
 20
-1.80244
 11
-38.32
 21
-1.77002
  0
LINE
  8
0
 10
-38.32
 20
-1.77002
 11
-38.3928
 21
-1.73294
  0
LINE
  8
0
 10
-38.3928
 20
-1.73294
 11
-38.4631
 21
-1.69138
  0
LINE
  8
0
 10
-38.4631
 20
-1.69138
 11
-38.5306
 21
-1.64546
  0
LINE
  8
0
 10
-38.5306
 20
-1.64546
 11
-38.5951
 21
-1.59541
  0
LINE
  8
0
 10
-38.5951
 20
-1.59541
 11
-38.6564
 21
-1.5414
  0
LINE
  8
0
 10
-38.6564
 20
-1.5414
 11
-38.7141
 21
-1.48366
  0
LINE
  8
0
 10
-38.7141
 20
-1.48366
 11
-38.7682
 21
-1.42239
  0
LINE
  8
0
 10
-38.7682
 20
-1.42239
 11
-38.8182
 21
-1.35786
  0
LINE
  8
0
 10
-38.8182
 20
-1.35786
 11
-38.8641
 21
-1.29031
  0
LINE
  8
0
 10
-38.8641
 20
-1.29031
 11
-38.9057
 21
-1.22002
  0
LINE
  8
0
 10
-38.9057
 20
-1.22002
 11
-38.9428
 21
-1.14726
  0
LINE
  8
0
 10
-38.9428
 20
-1.14726
 11
-38.9752
 21
-1.07231
  0
LINE
  8
0
 10
-38.9752
 20
-1.07231
 11
-39.0029
 21
-0.995468
  0
LINE
  8
0
 10
-39.0029
 20
-0.995468
 11
-39.0257
 21
-0.917038
  0
LINE
  8
0
 10
-39.0257
 20
-0.917038
 11
-39.0435
 21
-0.837341
  0
LINE
  8
0
 10
-39.0435
 20
-0.837341
 11
-39.0562
 21
-0.756668
  0
LINE
  8
0
 10
-39.0562
 20
-0.756668
 11
-39.0639
 21
-0.675369
  0
LINE
  8
0
 10
-39.0639
 20
-0.675369
 11
-39.0665
 21
-0.59375
  0
LINE
  8
0
 10
-39.0665
 20
-0.59375
 11
-39.0639
 21
-0.512115
  0
LINE
  8
0
 10
-39.0639
 20
-0.512115
 11
-39.0562
 21
-0.430817
  0
LINE
  8
0
 10
-39.0562
 20
-0.430817
 11
-39.0435
 21
-0.350143
  0
LINE
  8
0
 10
-39.0435
 20
-0.350143
 11
-39.0257
 21
-0.270447
  0
LINE
  8
0
 10
-39.0257
 20
-0.270447
 11
-39.0029
 21
-0.192017
  0
LINE
  8
0
 10
-39.0029
 20
-0.192017
 11
-38.9752
 21
-0.115173
  0
LINE
  8
0
 10
-38.9752
 20
-0.115173
 11
-38.9428
 21
-0.0402222
  0
LINE
  8
0
 10
-38.9428
 20
-0.0402222
 11
-38.9057
 21
0.0325317
  0
LINE
  8
0
 10
-38.9057
 20
0.0325317
 11
-38.8641
 21
0.102829
  0
LINE
  8
0
 10
-38.8641
 20
0.102829
 11
-38.8182
 21
0.17038
  0
LINE
  8
0
 10
-38.8182
 20
0.17038
 11
-38.7682
 21
0.234909
  0
LINE
  8
0
 10
-38.7682
 20
0.234909
 11
-38.7141
 21
0.296173
  0
LINE
  8
0
 10
-38.7141
 20
0.296173
 11
-38.6564
 21
0.353912
  0
LINE
  8
0
 10
-38.6564
 20
0.353912
 11
-38.5951
 21
0.407928
  0
LINE
  8
0
 10
-38.5951
 20
0.407928
 11
-38.5306
 21
0.457977
  0
LINE
  8
0
 10
-38.5306
 20
0.457977
 11
-38.4631
 21
0.503891
  0
LINE
  8
0
 10
-38.4631
 20
0.503891
 11
-38.3928
 21
0.545456
  0
LINE
  8
0
 10
-38.3928
 20
0.545456
 11
-38.32
 21
0.582535
  0
LINE
  8
0
 10
-38.32
 20
0.582535
 11
-38.2451
 21
0.61496
  0
LINE
  8
0
 10
-38.2451
 20
0.61496
 11
-38.1682
 21
0.642624
  0
LINE
  8
0
 10
-38.1682
 20
0.642624
 11
-38.0898
 21
0.665421
  0
LINE
  8
0
 10
-38.0898
 20
0.665421
 11
-38.0101
 21
0.683228
  0
LINE
  8
0
 10
-38.0101
 20
0.683228
 11
-37.9294
 21
0.695999
  0
LINE
  8
0
 10
-37.9294
 20
0.695999
 11
-37.8481
 21
0.70369
  0
LINE
  8
0
 10
-37.8481
 20
0.70369
 11
-37.7665
 21
0.706253
  0
LINE
  8
0
 10
-37.7665
 20
0.706253
 11
-37.6849
 21
0.70369
  0
LINE
  8
0
 10
-37.6849
 20
0.70369
 11
-37.6036
 21
0.695999
  0
LINE
  8
0
 10
-37.6036
 20
0.695999
 11
-37.5229
 21
0.683228
  0
LINE
  8
0
 10
-37.5229
 20
0.683228
 11
-37.4432
 21
0.665421
  0
LINE
  8
0
 10
-37.4432
 20
0.665421
 11
-37.3648
 21
0.642624
  0
LINE
  8
0
 10
-37.3648
 20
0.642624
 11
-37.2879
 21
0.61496
  0
LINE
  8
0
 10
-37.2879
 20
0.61496
 11
-37.213
 21
0.582535
  0
LINE
  8
0
 10
-37.213
 20
0.582535
 11
-37.1402
 21
0.545456
  0
LINE
  8
0
 10
-37.1402
 20
0.545456
 11
-37.0699
 21
0.503891
  0
LINE
  8
0
 10
-37.0699
 20
0.503891
 11
-37.0024
 21
0.457977
  0
LINE
  8
0
 10
-37.0024
 20
0.457977
 11
-36.9379
 21
0.407928
  0
LINE
  8
0
 10
-36.9379
 20
0.407928
 11
-36.8766
 21
0.353912
  0
LINE
  8
0
 10
-36.8766
 20
0.353912
 11
-36.8188
 21
0.296173
  0
LINE
  8
0
 10
-36.8188
 20
0.296173
 11
-36.7648
 21
0.234909
  0
LINE
  8
0
 10
-36.7648
 20
0.234909
 11
-36.7148
 21
0.17038
  0
LINE
  8
0
 10
-36.7148
 20
0.17038
 11
-36.6689
 21
0.102829
  0
LINE
  8
0
 10
-36.6689
 20
0.102829
 11
-36.6273
 21
0.0325317
  0
LINE
  8
0
 10
-36.6273
 20
0.0325317
 11
-36.5902
 21
-0.0402222
  0
LINE
  8
0
 10
-36.5902
 20
-0.0402222
 11
-36.5578
 21
-0.115173
  0
LINE
  8
0
 10
-36.5578
 20
-0.115173
 11
-36.5301
 21
-0.192017
  0
LINE
  8
0
 10
-36.5301
 20
-0.192017
 11
-36.5073
 21
-0.270447
  0
LINE
  8
0
 10
-36.5073
 20
-0.270447
 11
-36.4895
 21
-0.350143
  0
LINE
  8
0
 10
-36.4895
 20
-0.350143
 11
-36.4768
 21
-0.430817
  0
LINE
  8
0
 10
-36.4768
 20
-0.430817
 11
-36.4691
 21
-0.512115
  0
LINE
  8
0
 10
-36.4691
 20
-0.512115
 11
-36.4665
 21
-0.59375
  0
LINE
  8
0
 10
-36.4665
 20
-0.59375
 11
-36.4691
 21
-0.675369
  0
LINE
  8
0
 10
-36.4691
 20
-0.675369
 11
-36.4768
 21
-0.756668
  0
LINE
  8
0
 10
-36.4768
 20
-0.756668
 11
-36.4895
 21
-0.837341
  0
LINE
  8
0
 10
-36.4895
 20
-0.837341
 11
-36.5073
 21
-0.917038
  0
LINE
  8
0
 10
-36.5073
 20
-0.917038
 11
-36.5301
 21
-0.995468
  0
LINE
  8
0
 10
-36.5301
 20
-0.995468
 11
-36.5578
 21
-1.07231
  0
LINE
  8
0
 10
-36.5578
 20
-1.07231
 11
-36.5902
 21
-1.14726
  0
LINE
  8
0
 10
-36.5902
 20
-1.14726
 11
-36.6273
 21
-1.22002
  0
LINE
  8
0
 10
-36.6273
 20
-1.22002
 11
-36.6689
 21
-1.29031
  0
LINE
  8
0
 10
-36.6689
 20
-1.29031
 11
-36.7148
 21
-1.35786
  0
LINE
  8
0
 10
-36.7148
 20
-1.35786
 11
-36.7648
 21
-1.42239
  0
LINE
  8
0
 10
-36.7648
 20
-1.42239
 11
-36.8188
 21
-1.48366
  0
LINE
  8
0
 10
-36.8188
 20
-1.48366
 11
-36.8766
 21
-1.5414
  0
LINE
  8
0
 10
-36.8766
 20
-1.5414
 11
-36.9379
 21
-1.59541
  0
LINE
  8
0
 10
-36.9379
 20
-1.59541
 11
-37.0024
 21
-1.64546
  0
LINE
  8
0
 10
-37.0024
 20
-1.64546
 11
-37.0699
 21
-1.69138
  0
LINE
  8
0
 10
-37.0699
 20
-1.69138
 11
-37.1402
 21
-1.73294
  0
LINE
  8
0
 10
-37.1402
 20
-1.73294
 11
-37.213
 21
-1.77002
  0
LINE
  8
0
 10
-37.213
 20
-1.77002
 11
-37.2879
 21
-1.80244
  0
LINE
  8
0
 10
-37.2879
 20
-1.80244
 11
-37.3648
 21
-1.83011
  0
LINE
  8
0
 10
-37.3648
 20
-1.83011
 11
-37.4432
 21
-1.85291
  0
LINE
  8
0
 10
-37.4432
 20
-1.85291
 11
-37.5229
 21
-1.87071
  0
LINE
  8
0
 10
-37.5229
 20
-1.87071
 11
-37.6036
 21
-1.88348
  0
LINE
  8
0
 10
-37.6036
 20
-1.88348
 11
-37.6849
 21
-1.89117
  0
LINE
  8
0
 10
-37.6849
 20
-1.89117
 11
-37.7665
 21
-1.89374
  0
LINE
  8
0
 10
-37.7665
 20
-1.89374
 11
-37.8481
 21
-1.89117
  0
ENDSEC
  0
SECTION
  2
OBJECTS
  0
DICTIONARY
  0
ENDSEC
  0
EOF
