M48
INCH
T1C0.0354
T2C0.0390
T3C0.0390
T4C0.0394
T5C0.0430
T6C0.0512
T7C0.0600
T8C0.0472
T9C0.0591
T10C0.1570
T11C0.2559
%
G90
G05
T2
X4.2165Y-2.6854
X4.4134Y-2.6854
T3
X3.7709Y-3.1319
X4.0709Y-3.1319
X6.0201Y-3.8
X6.3201Y-3.8
X6.4933Y-3.2283
X6.4933Y-3.6283
X6.8209Y-3.0413
X7.1209Y-3.0413
X3.7709Y-3.8823
X4.0709Y-3.8823
X6.0201Y-3.6945
X6.3201Y-3.6945
X4.5197Y-3.7996
X4.8197Y-3.7996
X4.5197Y-3.6941
X4.8197Y-3.6941
X5.2701Y-3.7098
X5.5701Y-3.7098
X6.5972Y-3.2283
X6.5972Y-3.6283
X3.7709Y-3.9874
X4.0709Y-3.9874
X5.0Y-2.5197
X5.0Y-2.8197
X3.0201Y-3.8819
X3.3201Y-3.8819
X3.0201Y-3.1335
X3.3201Y-3.1335
X4.5197Y-2.9449
X4.8197Y-2.9449
X6.7496Y-3.8878
X7.0496Y-3.8878
X5.2701Y-3.6051
X5.5701Y-3.6051
X6.7504Y-3.7921
X7.0504Y-3.7921
X3.0201Y-3.987
X3.3201Y-3.987
X6.0201Y-2.9445
X6.3201Y-2.9445
T4
X6.7591Y-3.1469
X6.8591Y-3.1469
X6.9591Y-3.1469
X7.0591Y-3.1469
X5.7457Y-3.8406
X5.7457Y-3.9406
X5.7457Y-4.0406
X5.7457Y-4.1406
X5.8457Y-3.8406
X5.8457Y-3.9406
X5.8457Y-4.0406
X5.8457Y-4.1406
T5
X5.1193Y-2.2846
X5.1193Y-2.3846
X5.1193Y-2.4846
X5.1193Y-2.5846
X5.1193Y-2.6846
X5.1193Y-2.7846
X5.1193Y-2.8846
X5.1193Y-2.9846
X5.1193Y-3.0846
X5.1193Y-3.1846
X5.1193Y-3.2846
X5.1193Y-3.3846
X5.2193Y-2.6846
X5.2193Y-3.3846
X5.3193Y-3.3846
X5.4193Y-3.3846
X5.5193Y-3.3846
X5.6193Y-2.6846
X5.6193Y-3.3846
X5.7193Y-2.2846
X5.7193Y-2.3846
X5.7193Y-2.4846
X5.7193Y-2.5846
X5.7193Y-2.6846
X5.7193Y-2.7846
X5.7193Y-2.8846
X5.7193Y-2.9846
X5.7193Y-3.0846
X5.7193Y-3.1846
X5.7193Y-3.2846
X5.7193Y-3.3846
T6
X4.1768Y-2.7835
X4.4528Y-2.7835
T7
X3.7709Y-3.4598
X3.8209Y-3.3598
X4.0209Y-3.3598
X4.0709Y-3.4598
X3.0201Y-4.2098
X3.0701Y-4.1098
X3.2701Y-4.1098
X3.3201Y-4.2098
X3.0205Y-2.7102
X3.0705Y-2.6102
X3.2705Y-2.6102
X3.3205Y-2.7102
X3.7709Y-4.2098
X3.8209Y-4.1098
X4.0209Y-4.1098
X4.0709Y-4.2098
X4.5201Y-3.272
X4.5701Y-3.172
X4.7701Y-3.172
X4.8201Y-3.272
X6.0201Y-3.272
X6.0701Y-3.172
X6.2701Y-3.172
X6.3201Y-3.272
X4.5201Y-4.022
X4.5701Y-3.922
X4.7701Y-3.922
X4.8201Y-4.022
X5.2701Y-2.4315
X5.3201Y-2.3315
X5.5201Y-2.3315
X5.5701Y-2.4315
X5.2701Y-3.1827
X5.3201Y-3.0827
X5.5201Y-3.0827
X5.5701Y-3.1827
X6.7701Y-2.6193
X6.8201Y-2.5193
X7.0201Y-2.5193
X7.0701Y-2.6193
X5.2701Y-3.9323
X5.3201Y-3.8323
X5.5201Y-3.8323
X5.5701Y-3.9323
X3.7709Y-2.7098
X3.8209Y-2.6098
X4.0209Y-2.6098
X4.0709Y-2.7098
X3.0205Y-3.4602
X3.0705Y-3.3602
X3.2705Y-3.3602
X3.3205Y-3.4602
X6.0201Y-4.0224
X6.0701Y-3.9224
X6.2701Y-3.9224
X6.3201Y-4.0224
X4.5201Y-2.5228
X4.5701Y-2.4228
X4.7701Y-2.4228
X4.8201Y-2.5228
X6.0201Y-2.5228
X6.0701Y-2.4228
X6.2701Y-2.4228
X6.3201Y-2.5228
X6.7701Y-3.3693
X6.8201Y-3.2693
X7.0201Y-3.2693
X7.0701Y-3.3693
X6.7701Y-4.1205
X6.8201Y-4.0205
X7.0201Y-4.0205
X7.0701Y-4.1205
T8
X4.315Y-2.6378
T9
X6.4606Y-2.3701
X6.4606Y-2.6457
X6.6417Y-2.3701
X6.6417Y-2.6457
T10
X3.9209Y-3.5598
X3.1701Y-4.3098
X3.1705Y-2.8102
X3.9209Y-4.3098
X4.6701Y-3.372
X6.1701Y-3.372
X4.6701Y-4.122
X5.4201Y-2.5315
X5.4201Y-3.2827
X6.9201Y-2.7193
X5.4201Y-4.0323
X3.9209Y-2.8098
X3.1705Y-3.5602
X6.1701Y-4.1224
X4.6701Y-2.6228
X6.1701Y-2.6228
X6.9201Y-3.4693
X6.9201Y-4.2205
T1
G00X6.3701Y-2.7402
M15
G01X6.3701Y-2.7638
M16
G05
G00X6.5512Y-2.4213
M15
G01X6.5512Y-2.4449
M16
G05
G00X6.5512Y-2.5394
M15
G01X6.5512Y-2.563
M16
G05
G00X6.5512Y-2.6969
M15
G01X6.5512Y-2.7205
M16
G05
G00X6.7323Y-2.7402
M15
G01X6.7323Y-2.7638
M16
G05
T11
G00X3.5433Y-3.1811
M15
G01X3.5433Y-3.1811
M16
G05
G00X6.5433Y-3.7953
M15
G01X6.5433Y-3.7953
M16
G05
G00X3.5433Y-3.937
M15
G01X3.5433Y-3.937
M16
G05
G00X6.5433Y-3.0472
M15
G01X6.5433Y-3.0472
M16
G05
T0
M30
