G04 #@! TF.GenerationSoftware,KiCad,Pcbnew,(5.1.0)-1*
G04 #@! TF.CreationDate,2020-09-29T23:23:25+10:00*
G04 #@! TF.ProjectId,oddball,6f646462-616c-46c2-9e6b-696361645f70,rev?*
G04 #@! TF.SameCoordinates,Original*
G04 #@! TF.FileFunction,Profile,NP*
%FSLAX46Y46*%
G04 Gerber Fmt 4.6, Leading zero omitted, Abs format (unit mm)*
G04 Created by KiCad (PCBNEW (5.1.0)-1) date 2020-09-29 23:23:25*
%MOMM*%
%LPD*%
G04 APERTURE LIST*
%ADD10C,0.200000*%
G04 APERTURE END LIST*
D10*
X217928200Y-112599240D02*
X218074500Y-112410610D01*
X223038600Y-111624370D02*
X223236100Y-111758560D01*
X217564100Y-113214860D02*
X217672500Y-113002150D01*
X217382900Y-115987850D02*
X217321900Y-115777850D01*
X217209500Y-116203960D02*
X217254000Y-116159550D01*
X218074500Y-112410610D02*
X218232399Y-112231540D01*
X217162400Y-116245510D02*
X217209500Y-116203960D01*
X216950800Y-116379820D02*
X217006700Y-116351300D01*
X221241100Y-111040310D02*
X221478800Y-111062790D01*
X217321900Y-113887800D02*
X217388500Y-113658550D01*
X217388500Y-113658550D02*
X217469300Y-113433940D01*
X217269800Y-114120770D02*
X217321900Y-113887800D01*
X218401200Y-112062740D02*
X218580300Y-111904880D01*
X222833200Y-111502850D02*
X223038600Y-111624370D01*
X217269800Y-115544880D02*
X217232500Y-115309080D01*
X217210000Y-115071430D02*
X217202500Y-114832820D01*
X217295500Y-116112430D02*
X217334000Y-116062790D01*
X221714500Y-111100130D02*
X221947500Y-111152210D01*
X217060800Y-116319320D02*
X217112800Y-116284010D01*
X217232500Y-114356550D02*
X217269800Y-114120770D01*
X219384500Y-111394470D02*
X219603600Y-111299670D01*
X217254000Y-116159550D02*
X217295500Y-116112430D01*
X220290400Y-111100130D02*
X220526200Y-111062790D01*
X216587800Y-116473020D02*
X216650300Y-116467120D01*
X216834000Y-116426060D02*
X216893100Y-116404770D01*
X217369300Y-116010820D02*
X217382900Y-115987850D01*
X217794100Y-112796680D02*
X217928200Y-112599240D01*
X222176800Y-111218810D02*
X222401400Y-111299670D01*
X221947500Y-111152210D02*
X222176800Y-111218810D01*
X220763900Y-111040310D02*
X221002500Y-111032820D01*
X220526200Y-111062790D02*
X220763900Y-111040310D01*
X219828200Y-111218810D02*
X220057500Y-111152210D01*
X219171800Y-111502850D02*
X219384500Y-111394470D01*
X218966400Y-111624370D02*
X219171800Y-111502850D01*
X222620500Y-111394470D02*
X222833200Y-111502850D01*
X218580300Y-111904880D02*
X218768900Y-111758560D01*
X217202500Y-114832820D02*
X217210000Y-114594220D01*
X217672500Y-113002150D02*
X217794100Y-112796680D01*
X217232500Y-115309080D02*
X217210000Y-115071430D01*
X217469300Y-113433940D02*
X217564100Y-113214860D01*
X216893100Y-116404770D02*
X216950800Y-116379820D01*
X218768900Y-111758560D02*
X218966400Y-111624370D01*
X216773700Y-116443590D02*
X216834000Y-116426060D01*
X216712400Y-116457290D02*
X216773700Y-116443590D01*
X217006700Y-116351300D02*
X217060800Y-116319320D01*
X216650300Y-116467120D02*
X216712400Y-116457290D01*
X217334000Y-116062790D02*
X217369300Y-116010820D01*
X221002500Y-111032820D02*
X221241100Y-111040310D01*
X218232399Y-112231540D02*
X218401200Y-112062740D01*
X217210000Y-114594220D02*
X217232500Y-114356550D01*
X221478800Y-111062790D02*
X221714500Y-111100130D01*
X217112800Y-116284010D02*
X217162400Y-116245510D01*
X217321900Y-115777850D02*
X217269800Y-115544880D01*
X222401400Y-111299670D02*
X222620500Y-111394470D01*
X220057500Y-111152210D02*
X220290400Y-111100130D01*
X219603600Y-111299670D02*
X219828200Y-111218810D01*
X216675300Y-99901400D02*
X216496200Y-99743500D01*
X217266800Y-100303400D02*
X217061400Y-100181900D01*
X217061400Y-100181900D02*
X216863900Y-100047699D01*
X220715500Y-100411800D02*
X220496400Y-100506599D01*
X222305900Y-99009600D02*
X222171800Y-99207000D01*
X222171800Y-99207000D02*
X222025400Y-99395700D01*
X222630600Y-98372300D02*
X222535800Y-98591400D01*
X216863900Y-100047699D02*
X216675300Y-99901400D01*
X219097500Y-100773400D02*
X218858900Y-100765900D01*
X222830200Y-97685500D02*
X222778100Y-97918500D01*
X222778100Y-97918500D02*
X222711500Y-98147700D01*
X222867500Y-97449700D02*
X222830200Y-97685500D01*
X221867600Y-99574700D02*
X221698800Y-99743500D01*
X217479500Y-100411800D02*
X217266800Y-100303400D01*
X222778100Y-96028400D02*
X222830200Y-96261400D01*
X222867500Y-96497199D02*
X222890000Y-96734800D01*
X222717100Y-95818400D02*
X222778100Y-96028400D01*
X215767500Y-98804100D02*
X215659100Y-98591400D01*
X218621200Y-100743500D02*
X218385400Y-100706099D01*
X222890000Y-97212099D02*
X222867500Y-97449700D01*
X222730700Y-95795400D02*
X222717100Y-95818400D01*
X222846000Y-95646700D02*
X222804500Y-95693800D01*
X215564300Y-98372300D02*
X215483500Y-98147700D01*
X220928200Y-100303400D02*
X220715500Y-100411800D01*
X215483500Y-98147700D02*
X215416900Y-97918500D01*
X220042500Y-100654100D02*
X219809500Y-100706099D01*
X222890400Y-95602300D02*
X222846000Y-95646700D01*
X222937600Y-95560700D02*
X222890400Y-95602300D01*
X222987200Y-95522200D02*
X222937600Y-95560700D01*
X223093200Y-95455000D02*
X223039200Y-95486899D01*
X223206900Y-95401500D02*
X223149200Y-95426400D01*
X222766000Y-95743500D02*
X222730700Y-95795400D01*
X222427500Y-98804100D02*
X222305900Y-99009600D01*
X218152500Y-100654100D02*
X217923200Y-100587500D01*
X218385400Y-100706099D02*
X218152500Y-100654100D01*
X219573800Y-100743500D02*
X219336100Y-100765900D01*
X219809500Y-100706099D02*
X219573800Y-100743500D01*
X220496400Y-100506599D02*
X220271799Y-100587500D01*
X221133600Y-100181900D02*
X220928200Y-100303400D01*
X221331100Y-100047699D02*
X221133600Y-100181900D01*
X216169500Y-99395700D02*
X216023200Y-99207000D01*
X217698600Y-100506599D02*
X217479500Y-100411800D01*
X221698800Y-99743500D02*
X221519700Y-99901400D01*
X222535800Y-98591400D02*
X222427500Y-98804100D01*
X222890000Y-96734800D02*
X222897500Y-96973400D01*
X222711500Y-98147700D02*
X222630600Y-98372300D01*
X222830200Y-96261400D02*
X222867500Y-96497199D01*
X221519700Y-99901400D02*
X221331100Y-100047699D01*
X216496200Y-99743500D02*
X216327400Y-99574700D01*
X223266000Y-95380200D02*
X223206900Y-95401500D01*
X216023200Y-99207000D02*
X215889099Y-99009600D01*
X223149200Y-95426400D02*
X223093200Y-95455000D01*
X222804500Y-95693800D02*
X222766000Y-95743500D01*
X223326300Y-95362700D02*
X223266000Y-95380200D01*
X219336100Y-100765900D02*
X219097500Y-100773400D01*
X222025400Y-99395700D02*
X221867600Y-99574700D01*
X222897500Y-96973400D02*
X222890000Y-97212099D01*
X215659100Y-98591400D02*
X215564300Y-98372300D01*
X218858900Y-100765900D02*
X218621200Y-100743500D01*
X223039200Y-95486899D02*
X222987200Y-95522200D01*
X216327400Y-99574700D02*
X216169500Y-99395700D01*
X217923200Y-100587500D02*
X217698600Y-100506599D01*
X220271799Y-100587500D02*
X220042500Y-100654100D01*
X215889099Y-99009600D02*
X215767500Y-98804100D01*
X235884000Y-95380200D02*
X235823700Y-95362700D01*
X224729100Y-114093770D02*
X235575000Y-114093770D01*
X224535600Y-113433940D02*
X224616500Y-113658550D01*
X236575000Y-113093770D02*
X236575000Y-96331300D01*
X224210900Y-112796680D02*
X224332500Y-113002150D01*
X236543600Y-96082600D02*
X236526000Y-96022200D01*
X236451300Y-113575520D02*
X236479800Y-113519530D01*
X236345500Y-113731190D02*
X236384000Y-113681550D01*
X235943100Y-114023530D02*
X236000800Y-113998580D01*
X224683100Y-113887800D02*
X224729100Y-114093770D01*
X236259500Y-95602300D02*
X236212400Y-95560700D01*
X236000800Y-113998580D02*
X236056700Y-113970060D01*
X224616500Y-113658550D02*
X224683100Y-113887800D01*
X236384000Y-113681550D02*
X236419300Y-113629580D01*
X236000800Y-95426400D02*
X235943100Y-95401500D01*
X236162800Y-95522200D02*
X236110799Y-95486899D01*
X236526000Y-113402770D02*
X236543600Y-113342450D01*
X235575000Y-95331300D02*
X223575000Y-95331300D01*
X235823700Y-95362700D02*
X235762400Y-95349000D01*
X236557300Y-113281140D02*
X236567100Y-113219090D01*
X235823700Y-114062350D02*
X235884000Y-114044820D01*
X235762400Y-114076050D02*
X235823700Y-114062350D01*
X236056700Y-95455000D02*
X236000800Y-95426400D01*
X235700300Y-114085880D02*
X235762400Y-114076050D01*
X236526000Y-96022200D02*
X236504800Y-95963100D01*
X236304000Y-113778310D02*
X236345500Y-113731190D01*
X223575000Y-95331300D02*
X223512200Y-95333200D01*
X236110799Y-95486899D02*
X236056700Y-95455000D01*
X224440800Y-113214860D02*
X224535600Y-113433940D01*
X236212400Y-95560700D02*
X236162800Y-95522200D01*
X224076800Y-112599240D02*
X224210900Y-112796680D01*
X235884000Y-114044820D02*
X235943100Y-114023530D01*
X223387600Y-95349000D02*
X223326300Y-95362700D01*
X236451300Y-95849500D02*
X236419300Y-95795400D01*
X236419300Y-113629580D02*
X236451300Y-113575520D01*
X235762400Y-95349000D02*
X235700300Y-95339100D01*
X235637800Y-95333200D02*
X235575000Y-95331300D01*
X236504800Y-95963100D02*
X236479800Y-95905500D01*
X236479800Y-95905500D02*
X236451300Y-95849500D01*
X236479800Y-113519530D02*
X236504800Y-113461880D01*
X235700300Y-95339100D02*
X235637800Y-95333200D01*
X223449700Y-95339100D02*
X223387600Y-95349000D01*
X235943100Y-95401500D02*
X235884000Y-95380200D01*
X236345500Y-95693800D02*
X236304000Y-95646700D01*
X236543600Y-113342450D02*
X236557300Y-113281140D01*
X236304000Y-95646700D02*
X236259500Y-95602300D01*
X236162800Y-113902770D02*
X236212400Y-113864270D01*
X236110799Y-113938080D02*
X236162800Y-113902770D01*
X235637800Y-114091780D02*
X235700300Y-114085880D01*
X224332500Y-113002150D02*
X224440800Y-113214860D01*
X236557300Y-96143900D02*
X236543600Y-96082600D01*
X223512200Y-95333200D02*
X223449700Y-95339100D01*
X236419300Y-95795400D02*
X236384000Y-95743500D01*
X236567100Y-96205900D02*
X236557300Y-96143900D01*
X236575000Y-96331300D02*
X236573000Y-96268500D01*
X236384000Y-95743500D02*
X236345500Y-95693800D01*
X236573000Y-96268500D02*
X236567100Y-96205900D01*
X236573000Y-113156560D02*
X236575000Y-113093770D01*
X236567100Y-113219090D02*
X236573000Y-113156560D01*
X236504800Y-113461880D02*
X236526000Y-113402770D01*
X236259500Y-113822720D02*
X236304000Y-113778310D01*
X236212400Y-113864270D02*
X236259500Y-113822720D01*
X236056700Y-113970060D02*
X236110799Y-113938080D01*
X235575000Y-114093770D02*
X235637800Y-114091780D01*
X223772600Y-112231540D02*
X223930400Y-112410610D01*
X223603800Y-112062740D02*
X223772600Y-112231540D01*
X223424700Y-111904880D02*
X223603800Y-112062740D01*
X223236100Y-111758560D02*
X223424700Y-111904880D01*
X223930400Y-112410610D02*
X224076800Y-112599240D01*
X203796040Y-98027999D02*
X203754490Y-98075099D01*
X203840450Y-97983499D02*
X203796040Y-98027999D01*
X203715990Y-116062790D02*
X203754490Y-116112430D01*
X204524990Y-116475010D02*
X216525000Y-116475010D01*
X204276310Y-116443590D02*
X204337620Y-116457290D01*
X204156880Y-116404770D02*
X204215990Y-116426060D01*
X203989180Y-97868200D02*
X203937210Y-97903500D01*
X204043240Y-97836200D02*
X203989180Y-97868200D01*
X203556410Y-115723690D02*
X203573940Y-115784010D01*
X203524990Y-98712500D02*
X203524990Y-115475010D01*
X203573940Y-98403500D02*
X203556410Y-98463799D01*
X203680680Y-98176700D02*
X203648700Y-98230700D01*
X204099230Y-97807700D02*
X204043240Y-97836200D01*
X203937210Y-97903500D02*
X203887570Y-97942000D01*
X204215990Y-97761400D02*
X204156880Y-97782700D01*
X203715990Y-98124700D02*
X203680680Y-98176700D01*
X204462200Y-116473020D02*
X204524990Y-116475010D01*
X203937210Y-116284010D02*
X203989180Y-116319320D01*
X203620180Y-115900770D02*
X203648700Y-115956760D01*
X203648700Y-115956760D02*
X203680680Y-116010820D01*
X204337620Y-116457290D02*
X204399670Y-116467120D01*
X204399670Y-116467120D02*
X204462200Y-116473020D01*
X203796040Y-116159550D02*
X203840450Y-116203960D01*
X203542710Y-115662380D02*
X203556410Y-115723690D01*
X204276310Y-97743900D02*
X204215990Y-97761400D01*
X204337620Y-97730200D02*
X204276310Y-97743900D01*
X204399670Y-97720400D02*
X204337620Y-97730200D01*
X203989180Y-116319320D02*
X204043240Y-116351300D01*
X203573940Y-115784010D02*
X203595230Y-115843120D01*
X203542710Y-98525100D02*
X203532880Y-98587200D01*
X204156880Y-97782700D02*
X204099230Y-97807700D01*
X204462200Y-97714500D02*
X204399670Y-97720400D01*
X216525000Y-116475010D02*
X216587800Y-116473020D01*
X203887570Y-97942000D02*
X203840450Y-97983499D01*
X204524990Y-97712500D02*
X204462200Y-97714500D01*
X215370800Y-97712500D02*
X204524990Y-97712500D01*
X215416900Y-97918500D02*
X215370800Y-97712500D01*
X203680680Y-116010820D02*
X203715990Y-116062790D01*
X203887570Y-116245510D02*
X203937210Y-116284010D01*
X204099230Y-116379820D02*
X204156880Y-116404770D01*
X203595230Y-115843120D02*
X203620180Y-115900770D01*
X203754490Y-116112430D02*
X203796040Y-116159550D01*
X203532880Y-115600330D02*
X203542710Y-115662380D01*
X203840450Y-116203960D02*
X203887570Y-116245510D01*
X203532880Y-98587200D02*
X203526980Y-98649700D01*
X203526980Y-98649700D02*
X203524990Y-98712500D01*
X204043240Y-116351300D02*
X204099230Y-116379820D01*
X203526980Y-115537800D02*
X203532880Y-115600330D01*
X203524990Y-115475010D02*
X203526980Y-115537800D01*
X203556410Y-98463799D02*
X203542710Y-98525100D01*
X203595230Y-98344400D02*
X203573940Y-98403500D01*
X204215990Y-116426060D02*
X204276310Y-116443590D01*
X203620180Y-98286700D02*
X203595230Y-98344400D01*
X203648700Y-98230700D02*
X203620180Y-98286700D01*
X203754490Y-98075099D02*
X203715990Y-98124700D01*
M02*
