G04 #@! TF.GenerationSoftware,KiCad,Pcbnew,(5.1.0)-1*
G04 #@! TF.CreationDate,2020-01-19T23:16:31+11:00*
G04 #@! TF.ProjectId,oddball,6f646462-616c-46c2-9e6b-696361645f70,rev?*
G04 #@! TF.SameCoordinates,Original*
G04 #@! TF.FileFunction,Legend,Bot*
G04 #@! TF.FilePolarity,Positive*
%FSLAX46Y46*%
G04 Gerber Fmt 4.6, Leading zero omitted, Abs format (unit mm)*
G04 Created by KiCad (PCBNEW (5.1.0)-1) date 2020-01-19 23:16:31*
%MOMM*%
%LPD*%
G04 APERTURE LIST*
%ADD10C,0.203200*%
%ADD11C,0.150000*%
G04 APERTURE END LIST*
D10*
X212863000Y-99370000D02*
X213434500Y-99370000D01*
X208037000Y-99370000D02*
X207465500Y-99370000D01*
X208037000Y-98227000D02*
X208037000Y-100513000D01*
X212863000Y-100513000D02*
X212863000Y-98227000D01*
X208037000Y-100513000D02*
X212863000Y-100513000D01*
X212863000Y-98227000D02*
X208037000Y-98227000D01*
D11*
X208661000Y-100470000D02*
X208661000Y-98270000D01*
X208261000Y-100470000D02*
X208261000Y-98270000D01*
X208461000Y-98270000D02*
X208461000Y-100470000D01*
D10*
X231883000Y-97060000D02*
X232454500Y-97060000D01*
X227057000Y-97060000D02*
X226485500Y-97060000D01*
X227057000Y-95917000D02*
X227057000Y-98203000D01*
X231883000Y-98203000D02*
X231883000Y-95917000D01*
X227057000Y-98203000D02*
X231883000Y-98203000D01*
X231883000Y-95917000D02*
X227057000Y-95917000D01*
D11*
X227681000Y-98160000D02*
X227681000Y-95960000D01*
X227281000Y-98160000D02*
X227281000Y-95960000D01*
X227481000Y-95960000D02*
X227481000Y-98160000D01*
X210966333Y-99731904D02*
X210966333Y-98931904D01*
X210775857Y-98931904D01*
X210661571Y-98970000D01*
X210585380Y-99046190D01*
X210547285Y-99122380D01*
X210509190Y-99274761D01*
X210509190Y-99389047D01*
X210547285Y-99541428D01*
X210585380Y-99617619D01*
X210661571Y-99693809D01*
X210775857Y-99731904D01*
X210966333Y-99731904D01*
X209747285Y-99731904D02*
X210204428Y-99731904D01*
X209975857Y-99731904D02*
X209975857Y-98931904D01*
X210052047Y-99046190D01*
X210128238Y-99122380D01*
X210204428Y-99160476D01*
X209366333Y-99731904D02*
X209213952Y-99731904D01*
X209137761Y-99693809D01*
X209099666Y-99655714D01*
X209023476Y-99541428D01*
X208985380Y-99389047D01*
X208985380Y-99084285D01*
X209023476Y-99008095D01*
X209061571Y-98970000D01*
X209137761Y-98931904D01*
X209290142Y-98931904D01*
X209366333Y-98970000D01*
X209404428Y-99008095D01*
X209442523Y-99084285D01*
X209442523Y-99274761D01*
X209404428Y-99350952D01*
X209366333Y-99389047D01*
X209290142Y-99427142D01*
X209137761Y-99427142D01*
X209061571Y-99389047D01*
X209023476Y-99350952D01*
X208985380Y-99274761D01*
X212067071Y-99731904D02*
X212448023Y-99731904D01*
X212448023Y-98931904D01*
X229986333Y-97421904D02*
X229986333Y-96621904D01*
X229795857Y-96621904D01*
X229681571Y-96660000D01*
X229605380Y-96736190D01*
X229567285Y-96812380D01*
X229529190Y-96964761D01*
X229529190Y-97079047D01*
X229567285Y-97231428D01*
X229605380Y-97307619D01*
X229681571Y-97383809D01*
X229795857Y-97421904D01*
X229986333Y-97421904D01*
X229224428Y-96698095D02*
X229186333Y-96660000D01*
X229110142Y-96621904D01*
X228919666Y-96621904D01*
X228843476Y-96660000D01*
X228805380Y-96698095D01*
X228767285Y-96774285D01*
X228767285Y-96850476D01*
X228805380Y-96964761D01*
X229262523Y-97421904D01*
X228767285Y-97421904D01*
X228272047Y-96621904D02*
X228195857Y-96621904D01*
X228119666Y-96660000D01*
X228081571Y-96698095D01*
X228043476Y-96774285D01*
X228005380Y-96926666D01*
X228005380Y-97117142D01*
X228043476Y-97269523D01*
X228081571Y-97345714D01*
X228119666Y-97383809D01*
X228195857Y-97421904D01*
X228272047Y-97421904D01*
X228348238Y-97383809D01*
X228386333Y-97345714D01*
X228424428Y-97269523D01*
X228462523Y-97117142D01*
X228462523Y-96926666D01*
X228424428Y-96774285D01*
X228386333Y-96698095D01*
X228348238Y-96660000D01*
X228272047Y-96621904D01*
X231087071Y-97421904D02*
X231468023Y-97421904D01*
X231468023Y-96621904D01*
X210352380Y-104261904D02*
X210619047Y-103880952D01*
X210809523Y-104261904D02*
X210809523Y-103461904D01*
X210504761Y-103461904D01*
X210428571Y-103500000D01*
X210390476Y-103538095D01*
X210352380Y-103614285D01*
X210352380Y-103728571D01*
X210390476Y-103804761D01*
X210428571Y-103842857D01*
X210504761Y-103880952D01*
X210809523Y-103880952D01*
X229402380Y-101891904D02*
X229669047Y-101510952D01*
X229859523Y-101891904D02*
X229859523Y-101091904D01*
X229554761Y-101091904D01*
X229478571Y-101130000D01*
X229440476Y-101168095D01*
X229402380Y-101244285D01*
X229402380Y-101358571D01*
X229440476Y-101434761D01*
X229478571Y-101472857D01*
X229554761Y-101510952D01*
X229859523Y-101510952D01*
M02*
