G04 #@! TF.GenerationSoftware,KiCad,Pcbnew,(5.1.0)-1*
G04 #@! TF.CreationDate,2020-01-19T23:16:31+11:00*
G04 #@! TF.ProjectId,oddball,6f646462-616c-46c2-9e6b-696361645f70,rev?*
G04 #@! TF.SameCoordinates,Original*
G04 #@! TF.FileFunction,Copper,L1,Top*
G04 #@! TF.FilePolarity,Positive*
%FSLAX46Y46*%
G04 Gerber Fmt 4.6, Leading zero omitted, Abs format (unit mm)*
G04 Created by KiCad (PCBNEW (5.1.0)-1) date 2020-01-19 23:16:31*
%MOMM*%
%LPD*%
G04 APERTURE LIST*
%ADD10R,1.651000X1.651000*%
%ADD11C,1.651000*%
%ADD12O,1.700000X1.700000*%
%ADD13R,1.700000X1.700000*%
%ADD14C,2.000000*%
%ADD15C,0.250000*%
%ADD16C,0.254000*%
G04 APERTURE END LIST*
D10*
X206640000Y-99370000D03*
D11*
X214260000Y-99370000D03*
D10*
X225660000Y-97060000D03*
D11*
X233280000Y-97060000D03*
D12*
X206120000Y-114850000D03*
X208660000Y-114850000D03*
X211200000Y-114850000D03*
D13*
X213740000Y-114850000D03*
D14*
X208060000Y-102070000D03*
X214410000Y-104610000D03*
X206790000Y-104610000D03*
X213140000Y-102070000D03*
X227110000Y-99700000D03*
X233460000Y-102240000D03*
X225840000Y-102240000D03*
X232190000Y-99700000D03*
D15*
X214260000Y-99370000D02*
X216518701Y-101628701D01*
X232840000Y-108040000D02*
X235340000Y-105540000D01*
X220444977Y-109618701D02*
X220463678Y-109600000D01*
X216618701Y-109618701D02*
X231261299Y-109618701D01*
X219736322Y-109600000D02*
X219755023Y-109618701D01*
X231261299Y-109618701D02*
X232840000Y-108040000D01*
X216518701Y-109618701D02*
X216618701Y-109618701D01*
X211200000Y-114850000D02*
X216431299Y-109618701D01*
X216431299Y-109618701D02*
X216518701Y-109618701D01*
X235340000Y-105540000D02*
X235340000Y-99120000D01*
X231280000Y-109600000D02*
X232840000Y-108040000D01*
X220463678Y-109600000D02*
X231280000Y-109600000D01*
X216431299Y-109618701D02*
X216618701Y-109618701D01*
X219755023Y-109618701D02*
X220444977Y-109618701D01*
X235340000Y-99120000D02*
X233280000Y-97060000D01*
X216518701Y-101628701D02*
X216518701Y-109618701D01*
D16*
G36*
X205601804Y-98226178D02*
G01*
X205543789Y-98273789D01*
X205496178Y-98331804D01*
X205460799Y-98397992D01*
X205439013Y-98469811D01*
X205431657Y-98544500D01*
X205431657Y-100195500D01*
X205439013Y-100270189D01*
X205460799Y-100342008D01*
X205496178Y-100408196D01*
X205543789Y-100466211D01*
X205601804Y-100513822D01*
X205667992Y-100549201D01*
X205739811Y-100570987D01*
X205814500Y-100578343D01*
X207465500Y-100578343D01*
X207540189Y-100570987D01*
X207612008Y-100549201D01*
X207678196Y-100513822D01*
X207736211Y-100466211D01*
X207783822Y-100408196D01*
X207819201Y-100342008D01*
X207840987Y-100270189D01*
X207848343Y-100195500D01*
X207848343Y-98544500D01*
X207840987Y-98469811D01*
X207819201Y-98397992D01*
X207783822Y-98331804D01*
X207736211Y-98273789D01*
X207678196Y-98226178D01*
X207625293Y-98197900D01*
X213968229Y-98197900D01*
X213908077Y-98209865D01*
X213688508Y-98300813D01*
X213490901Y-98432850D01*
X213322850Y-98600901D01*
X213190813Y-98798508D01*
X213099865Y-99018077D01*
X213053500Y-99251170D01*
X213053500Y-99488830D01*
X213099865Y-99721923D01*
X213190813Y-99941492D01*
X213322850Y-100139099D01*
X213490901Y-100307150D01*
X213688508Y-100439187D01*
X213908077Y-100530135D01*
X214141170Y-100576500D01*
X214378830Y-100576500D01*
X214611923Y-100530135D01*
X214677416Y-100503007D01*
X216012701Y-101838293D01*
X216012702Y-109321706D01*
X211637949Y-113696459D01*
X211441318Y-113636812D01*
X211260472Y-113619000D01*
X211139528Y-113619000D01*
X210958682Y-113636812D01*
X210726637Y-113707202D01*
X210512784Y-113821509D01*
X210325340Y-113975340D01*
X210171509Y-114162784D01*
X210057202Y-114376637D01*
X209986812Y-114608682D01*
X209963044Y-114850000D01*
X209986812Y-115091318D01*
X210057202Y-115323363D01*
X210171509Y-115537216D01*
X210325340Y-115724660D01*
X210512784Y-115878491D01*
X210720729Y-115989640D01*
X209139271Y-115989640D01*
X209347216Y-115878491D01*
X209534660Y-115724660D01*
X209688491Y-115537216D01*
X209802798Y-115323363D01*
X209873188Y-115091318D01*
X209896956Y-114850000D01*
X209873188Y-114608682D01*
X209802798Y-114376637D01*
X209688491Y-114162784D01*
X209534660Y-113975340D01*
X209347216Y-113821509D01*
X209133363Y-113707202D01*
X208901318Y-113636812D01*
X208720472Y-113619000D01*
X208599528Y-113619000D01*
X208418682Y-113636812D01*
X208186637Y-113707202D01*
X207972784Y-113821509D01*
X207785340Y-113975340D01*
X207631509Y-114162784D01*
X207518983Y-114373305D01*
X207464157Y-114218748D01*
X207315178Y-113968645D01*
X207120269Y-113752412D01*
X206886920Y-113578359D01*
X206624099Y-113453175D01*
X206476890Y-113408524D01*
X206247000Y-113529845D01*
X206247000Y-114723000D01*
X206267000Y-114723000D01*
X206267000Y-114977000D01*
X206247000Y-114977000D01*
X206247000Y-114997000D01*
X205993000Y-114997000D01*
X205993000Y-114977000D01*
X204799186Y-114977000D01*
X204678519Y-115206891D01*
X204775843Y-115481252D01*
X204924822Y-115731355D01*
X205119731Y-115947588D01*
X205176109Y-115989640D01*
X204675215Y-115989640D01*
X204586385Y-115978423D01*
X204499659Y-115956155D01*
X204416419Y-115923203D01*
X204337929Y-115880042D01*
X204265476Y-115827418D01*
X204200228Y-115766137D01*
X204143137Y-115697128D01*
X204095165Y-115621534D01*
X204057034Y-115540490D01*
X204029362Y-115455346D01*
X204012590Y-115367387D01*
X204006010Y-115262899D01*
X204006010Y-114493109D01*
X204678519Y-114493109D01*
X204799186Y-114723000D01*
X205993000Y-114723000D01*
X205993000Y-113529845D01*
X205763110Y-113408524D01*
X205615901Y-113453175D01*
X205353080Y-113578359D01*
X205119731Y-113752412D01*
X204924822Y-113968645D01*
X204775843Y-114218748D01*
X204678519Y-114493109D01*
X204006010Y-114493109D01*
X204006010Y-106916093D01*
X208225100Y-106916093D01*
X208225100Y-107383907D01*
X208316366Y-107842733D01*
X208495391Y-108274937D01*
X208755295Y-108663910D01*
X209086090Y-108994705D01*
X209475063Y-109254609D01*
X209907267Y-109433634D01*
X210366093Y-109524900D01*
X210833907Y-109524900D01*
X211292733Y-109433634D01*
X211724937Y-109254609D01*
X212113910Y-108994705D01*
X212444705Y-108663910D01*
X212704609Y-108274937D01*
X212883634Y-107842733D01*
X212974900Y-107383907D01*
X212974900Y-106916093D01*
X212883634Y-106457267D01*
X212704609Y-106025063D01*
X212444705Y-105636090D01*
X212113910Y-105305295D01*
X211724937Y-105045391D01*
X211292733Y-104866366D01*
X210833907Y-104775100D01*
X210366093Y-104775100D01*
X209907267Y-104866366D01*
X209475063Y-105045391D01*
X209086090Y-105305295D01*
X208755295Y-105636090D01*
X208495391Y-106025063D01*
X208316366Y-106457267D01*
X208225100Y-106916093D01*
X204006010Y-106916093D01*
X204006010Y-104473983D01*
X205409000Y-104473983D01*
X205409000Y-104746017D01*
X205462071Y-105012823D01*
X205566174Y-105264149D01*
X205717307Y-105490336D01*
X205909664Y-105682693D01*
X206135851Y-105833826D01*
X206387177Y-105937929D01*
X206653983Y-105991000D01*
X206926017Y-105991000D01*
X207192823Y-105937929D01*
X207444149Y-105833826D01*
X207670336Y-105682693D01*
X207862693Y-105490336D01*
X208013826Y-105264149D01*
X208117929Y-105012823D01*
X208171000Y-104746017D01*
X208171000Y-104473983D01*
X213029000Y-104473983D01*
X213029000Y-104746017D01*
X213082071Y-105012823D01*
X213186174Y-105264149D01*
X213337307Y-105490336D01*
X213529664Y-105682693D01*
X213755851Y-105833826D01*
X214007177Y-105937929D01*
X214273983Y-105991000D01*
X214546017Y-105991000D01*
X214812823Y-105937929D01*
X215064149Y-105833826D01*
X215290336Y-105682693D01*
X215482693Y-105490336D01*
X215633826Y-105264149D01*
X215737929Y-105012823D01*
X215791000Y-104746017D01*
X215791000Y-104473983D01*
X215737929Y-104207177D01*
X215633826Y-103955851D01*
X215482693Y-103729664D01*
X215290336Y-103537307D01*
X215064149Y-103386174D01*
X214812823Y-103282071D01*
X214546017Y-103229000D01*
X214273983Y-103229000D01*
X214007177Y-103282071D01*
X213755851Y-103386174D01*
X213529664Y-103537307D01*
X213337307Y-103729664D01*
X213186174Y-103955851D01*
X213082071Y-104207177D01*
X213029000Y-104473983D01*
X208171000Y-104473983D01*
X208117929Y-104207177D01*
X208013826Y-103955851D01*
X207862693Y-103729664D01*
X207670336Y-103537307D01*
X207444149Y-103386174D01*
X207192823Y-103282071D01*
X206926017Y-103229000D01*
X206653983Y-103229000D01*
X206387177Y-103282071D01*
X206135851Y-103386174D01*
X205909664Y-103537307D01*
X205717307Y-103729664D01*
X205566174Y-103955851D01*
X205462071Y-104207177D01*
X205409000Y-104473983D01*
X204006010Y-104473983D01*
X204006010Y-101933983D01*
X206679000Y-101933983D01*
X206679000Y-102206017D01*
X206732071Y-102472823D01*
X206836174Y-102724149D01*
X206987307Y-102950336D01*
X207179664Y-103142693D01*
X207405851Y-103293826D01*
X207657177Y-103397929D01*
X207923983Y-103451000D01*
X208196017Y-103451000D01*
X208462823Y-103397929D01*
X208714149Y-103293826D01*
X208940336Y-103142693D01*
X209132693Y-102950336D01*
X209283826Y-102724149D01*
X209387929Y-102472823D01*
X209441000Y-102206017D01*
X209441000Y-101933983D01*
X211759000Y-101933983D01*
X211759000Y-102206017D01*
X211812071Y-102472823D01*
X211916174Y-102724149D01*
X212067307Y-102950336D01*
X212259664Y-103142693D01*
X212485851Y-103293826D01*
X212737177Y-103397929D01*
X213003983Y-103451000D01*
X213276017Y-103451000D01*
X213542823Y-103397929D01*
X213794149Y-103293826D01*
X214020336Y-103142693D01*
X214212693Y-102950336D01*
X214363826Y-102724149D01*
X214467929Y-102472823D01*
X214521000Y-102206017D01*
X214521000Y-101933983D01*
X214467929Y-101667177D01*
X214363826Y-101415851D01*
X214212693Y-101189664D01*
X214020336Y-100997307D01*
X213794149Y-100846174D01*
X213542823Y-100742071D01*
X213276017Y-100689000D01*
X213003983Y-100689000D01*
X212737177Y-100742071D01*
X212485851Y-100846174D01*
X212259664Y-100997307D01*
X212067307Y-101189664D01*
X211916174Y-101415851D01*
X211812071Y-101667177D01*
X211759000Y-101933983D01*
X209441000Y-101933983D01*
X209387929Y-101667177D01*
X209283826Y-101415851D01*
X209132693Y-101189664D01*
X208940336Y-100997307D01*
X208714149Y-100846174D01*
X208462823Y-100742071D01*
X208196017Y-100689000D01*
X207923983Y-100689000D01*
X207657177Y-100742071D01*
X207405851Y-100846174D01*
X207179664Y-100997307D01*
X206987307Y-101189664D01*
X206836174Y-101415851D01*
X206732071Y-101667177D01*
X206679000Y-101933983D01*
X204006010Y-101933983D01*
X204006010Y-98924618D01*
X204012590Y-98820100D01*
X204029359Y-98732165D01*
X204057033Y-98647018D01*
X204095164Y-98565972D01*
X204143115Y-98490415D01*
X204200251Y-98421370D01*
X204265540Y-98360014D01*
X204337932Y-98307428D01*
X204416351Y-98264312D01*
X204499573Y-98231391D01*
X204586352Y-98209121D01*
X204675215Y-98197900D01*
X205654707Y-98197900D01*
X205601804Y-98226178D01*
X205601804Y-98226178D01*
G37*
X205601804Y-98226178D02*
X205543789Y-98273789D01*
X205496178Y-98331804D01*
X205460799Y-98397992D01*
X205439013Y-98469811D01*
X205431657Y-98544500D01*
X205431657Y-100195500D01*
X205439013Y-100270189D01*
X205460799Y-100342008D01*
X205496178Y-100408196D01*
X205543789Y-100466211D01*
X205601804Y-100513822D01*
X205667992Y-100549201D01*
X205739811Y-100570987D01*
X205814500Y-100578343D01*
X207465500Y-100578343D01*
X207540189Y-100570987D01*
X207612008Y-100549201D01*
X207678196Y-100513822D01*
X207736211Y-100466211D01*
X207783822Y-100408196D01*
X207819201Y-100342008D01*
X207840987Y-100270189D01*
X207848343Y-100195500D01*
X207848343Y-98544500D01*
X207840987Y-98469811D01*
X207819201Y-98397992D01*
X207783822Y-98331804D01*
X207736211Y-98273789D01*
X207678196Y-98226178D01*
X207625293Y-98197900D01*
X213968229Y-98197900D01*
X213908077Y-98209865D01*
X213688508Y-98300813D01*
X213490901Y-98432850D01*
X213322850Y-98600901D01*
X213190813Y-98798508D01*
X213099865Y-99018077D01*
X213053500Y-99251170D01*
X213053500Y-99488830D01*
X213099865Y-99721923D01*
X213190813Y-99941492D01*
X213322850Y-100139099D01*
X213490901Y-100307150D01*
X213688508Y-100439187D01*
X213908077Y-100530135D01*
X214141170Y-100576500D01*
X214378830Y-100576500D01*
X214611923Y-100530135D01*
X214677416Y-100503007D01*
X216012701Y-101838293D01*
X216012702Y-109321706D01*
X211637949Y-113696459D01*
X211441318Y-113636812D01*
X211260472Y-113619000D01*
X211139528Y-113619000D01*
X210958682Y-113636812D01*
X210726637Y-113707202D01*
X210512784Y-113821509D01*
X210325340Y-113975340D01*
X210171509Y-114162784D01*
X210057202Y-114376637D01*
X209986812Y-114608682D01*
X209963044Y-114850000D01*
X209986812Y-115091318D01*
X210057202Y-115323363D01*
X210171509Y-115537216D01*
X210325340Y-115724660D01*
X210512784Y-115878491D01*
X210720729Y-115989640D01*
X209139271Y-115989640D01*
X209347216Y-115878491D01*
X209534660Y-115724660D01*
X209688491Y-115537216D01*
X209802798Y-115323363D01*
X209873188Y-115091318D01*
X209896956Y-114850000D01*
X209873188Y-114608682D01*
X209802798Y-114376637D01*
X209688491Y-114162784D01*
X209534660Y-113975340D01*
X209347216Y-113821509D01*
X209133363Y-113707202D01*
X208901318Y-113636812D01*
X208720472Y-113619000D01*
X208599528Y-113619000D01*
X208418682Y-113636812D01*
X208186637Y-113707202D01*
X207972784Y-113821509D01*
X207785340Y-113975340D01*
X207631509Y-114162784D01*
X207518983Y-114373305D01*
X207464157Y-114218748D01*
X207315178Y-113968645D01*
X207120269Y-113752412D01*
X206886920Y-113578359D01*
X206624099Y-113453175D01*
X206476890Y-113408524D01*
X206247000Y-113529845D01*
X206247000Y-114723000D01*
X206267000Y-114723000D01*
X206267000Y-114977000D01*
X206247000Y-114977000D01*
X206247000Y-114997000D01*
X205993000Y-114997000D01*
X205993000Y-114977000D01*
X204799186Y-114977000D01*
X204678519Y-115206891D01*
X204775843Y-115481252D01*
X204924822Y-115731355D01*
X205119731Y-115947588D01*
X205176109Y-115989640D01*
X204675215Y-115989640D01*
X204586385Y-115978423D01*
X204499659Y-115956155D01*
X204416419Y-115923203D01*
X204337929Y-115880042D01*
X204265476Y-115827418D01*
X204200228Y-115766137D01*
X204143137Y-115697128D01*
X204095165Y-115621534D01*
X204057034Y-115540490D01*
X204029362Y-115455346D01*
X204012590Y-115367387D01*
X204006010Y-115262899D01*
X204006010Y-114493109D01*
X204678519Y-114493109D01*
X204799186Y-114723000D01*
X205993000Y-114723000D01*
X205993000Y-113529845D01*
X205763110Y-113408524D01*
X205615901Y-113453175D01*
X205353080Y-113578359D01*
X205119731Y-113752412D01*
X204924822Y-113968645D01*
X204775843Y-114218748D01*
X204678519Y-114493109D01*
X204006010Y-114493109D01*
X204006010Y-106916093D01*
X208225100Y-106916093D01*
X208225100Y-107383907D01*
X208316366Y-107842733D01*
X208495391Y-108274937D01*
X208755295Y-108663910D01*
X209086090Y-108994705D01*
X209475063Y-109254609D01*
X209907267Y-109433634D01*
X210366093Y-109524900D01*
X210833907Y-109524900D01*
X211292733Y-109433634D01*
X211724937Y-109254609D01*
X212113910Y-108994705D01*
X212444705Y-108663910D01*
X212704609Y-108274937D01*
X212883634Y-107842733D01*
X212974900Y-107383907D01*
X212974900Y-106916093D01*
X212883634Y-106457267D01*
X212704609Y-106025063D01*
X212444705Y-105636090D01*
X212113910Y-105305295D01*
X211724937Y-105045391D01*
X211292733Y-104866366D01*
X210833907Y-104775100D01*
X210366093Y-104775100D01*
X209907267Y-104866366D01*
X209475063Y-105045391D01*
X209086090Y-105305295D01*
X208755295Y-105636090D01*
X208495391Y-106025063D01*
X208316366Y-106457267D01*
X208225100Y-106916093D01*
X204006010Y-106916093D01*
X204006010Y-104473983D01*
X205409000Y-104473983D01*
X205409000Y-104746017D01*
X205462071Y-105012823D01*
X205566174Y-105264149D01*
X205717307Y-105490336D01*
X205909664Y-105682693D01*
X206135851Y-105833826D01*
X206387177Y-105937929D01*
X206653983Y-105991000D01*
X206926017Y-105991000D01*
X207192823Y-105937929D01*
X207444149Y-105833826D01*
X207670336Y-105682693D01*
X207862693Y-105490336D01*
X208013826Y-105264149D01*
X208117929Y-105012823D01*
X208171000Y-104746017D01*
X208171000Y-104473983D01*
X213029000Y-104473983D01*
X213029000Y-104746017D01*
X213082071Y-105012823D01*
X213186174Y-105264149D01*
X213337307Y-105490336D01*
X213529664Y-105682693D01*
X213755851Y-105833826D01*
X214007177Y-105937929D01*
X214273983Y-105991000D01*
X214546017Y-105991000D01*
X214812823Y-105937929D01*
X215064149Y-105833826D01*
X215290336Y-105682693D01*
X215482693Y-105490336D01*
X215633826Y-105264149D01*
X215737929Y-105012823D01*
X215791000Y-104746017D01*
X215791000Y-104473983D01*
X215737929Y-104207177D01*
X215633826Y-103955851D01*
X215482693Y-103729664D01*
X215290336Y-103537307D01*
X215064149Y-103386174D01*
X214812823Y-103282071D01*
X214546017Y-103229000D01*
X214273983Y-103229000D01*
X214007177Y-103282071D01*
X213755851Y-103386174D01*
X213529664Y-103537307D01*
X213337307Y-103729664D01*
X213186174Y-103955851D01*
X213082071Y-104207177D01*
X213029000Y-104473983D01*
X208171000Y-104473983D01*
X208117929Y-104207177D01*
X208013826Y-103955851D01*
X207862693Y-103729664D01*
X207670336Y-103537307D01*
X207444149Y-103386174D01*
X207192823Y-103282071D01*
X206926017Y-103229000D01*
X206653983Y-103229000D01*
X206387177Y-103282071D01*
X206135851Y-103386174D01*
X205909664Y-103537307D01*
X205717307Y-103729664D01*
X205566174Y-103955851D01*
X205462071Y-104207177D01*
X205409000Y-104473983D01*
X204006010Y-104473983D01*
X204006010Y-101933983D01*
X206679000Y-101933983D01*
X206679000Y-102206017D01*
X206732071Y-102472823D01*
X206836174Y-102724149D01*
X206987307Y-102950336D01*
X207179664Y-103142693D01*
X207405851Y-103293826D01*
X207657177Y-103397929D01*
X207923983Y-103451000D01*
X208196017Y-103451000D01*
X208462823Y-103397929D01*
X208714149Y-103293826D01*
X208940336Y-103142693D01*
X209132693Y-102950336D01*
X209283826Y-102724149D01*
X209387929Y-102472823D01*
X209441000Y-102206017D01*
X209441000Y-101933983D01*
X211759000Y-101933983D01*
X211759000Y-102206017D01*
X211812071Y-102472823D01*
X211916174Y-102724149D01*
X212067307Y-102950336D01*
X212259664Y-103142693D01*
X212485851Y-103293826D01*
X212737177Y-103397929D01*
X213003983Y-103451000D01*
X213276017Y-103451000D01*
X213542823Y-103397929D01*
X213794149Y-103293826D01*
X214020336Y-103142693D01*
X214212693Y-102950336D01*
X214363826Y-102724149D01*
X214467929Y-102472823D01*
X214521000Y-102206017D01*
X214521000Y-101933983D01*
X214467929Y-101667177D01*
X214363826Y-101415851D01*
X214212693Y-101189664D01*
X214020336Y-100997307D01*
X213794149Y-100846174D01*
X213542823Y-100742071D01*
X213276017Y-100689000D01*
X213003983Y-100689000D01*
X212737177Y-100742071D01*
X212485851Y-100846174D01*
X212259664Y-100997307D01*
X212067307Y-101189664D01*
X211916174Y-101415851D01*
X211812071Y-101667177D01*
X211759000Y-101933983D01*
X209441000Y-101933983D01*
X209387929Y-101667177D01*
X209283826Y-101415851D01*
X209132693Y-101189664D01*
X208940336Y-100997307D01*
X208714149Y-100846174D01*
X208462823Y-100742071D01*
X208196017Y-100689000D01*
X207923983Y-100689000D01*
X207657177Y-100742071D01*
X207405851Y-100846174D01*
X207179664Y-100997307D01*
X206987307Y-101189664D01*
X206836174Y-101415851D01*
X206732071Y-101667177D01*
X206679000Y-101933983D01*
X204006010Y-101933983D01*
X204006010Y-98924618D01*
X204012590Y-98820100D01*
X204029359Y-98732165D01*
X204057033Y-98647018D01*
X204095164Y-98565972D01*
X204143115Y-98490415D01*
X204200251Y-98421370D01*
X204265540Y-98360014D01*
X204337932Y-98307428D01*
X204416351Y-98264312D01*
X204499573Y-98231391D01*
X204586352Y-98209121D01*
X204675215Y-98197900D01*
X205654707Y-98197900D01*
X205601804Y-98226178D01*
M02*
