G04 #@! TF.GenerationSoftware,KiCad,Pcbnew,(5.1.0)-1*
G04 #@! TF.CreationDate,2020-01-19T23:16:31+11:00*
G04 #@! TF.ProjectId,oddball,6f646462-616c-46c2-9e6b-696361645f70,rev?*
G04 #@! TF.SameCoordinates,Original*
G04 #@! TF.FileFunction,Profile,NP*
%FSLAX46Y46*%
G04 Gerber Fmt 4.6, Leading zero omitted, Abs format (unit mm)*
G04 Created by KiCad (PCBNEW (5.1.0)-1) date 2020-01-19 23:16:31*
%MOMM*%
%LPD*%
G04 APERTURE LIST*
%ADD10C,0.200000*%
G04 APERTURE END LIST*
D10*
X204079700Y-116286970D02*
X204211200Y-116359280D01*
X203608930Y-115717910D02*
X203672820Y-115853700D01*
X203848890Y-98091500D02*
X203753230Y-98207100D01*
X203958280Y-97988700D02*
X203848890Y-98091500D01*
X203525010Y-115278020D02*
X203534440Y-115427780D01*
X203672820Y-115853700D02*
X203753230Y-115980410D01*
X204211200Y-97828200D02*
X204079700Y-97900500D01*
X204350740Y-116414520D02*
X204496090Y-116451840D01*
X218687500Y-99273600D02*
X218335300Y-99080000D01*
X222382700Y-98568700D02*
X222089800Y-98843800D01*
X223129100Y-95519700D02*
X223149500Y-95582300D01*
X203562550Y-98612300D02*
X203534440Y-98759700D01*
X204496090Y-116451840D02*
X204644970Y-116470640D01*
X203534440Y-98759700D02*
X203525010Y-98909500D01*
X203753230Y-115980410D02*
X203848890Y-116096040D01*
X203608930Y-98469600D02*
X203562550Y-98612300D01*
X203848890Y-116096040D02*
X203958280Y-116198780D01*
X203534440Y-115427780D02*
X203562550Y-115575200D01*
X218335300Y-99080000D02*
X218010200Y-98843800D01*
X203958280Y-116198780D02*
X204079700Y-116286970D01*
X204350740Y-97773000D02*
X204211200Y-97828200D01*
X204496090Y-97735700D02*
X204350740Y-97773000D01*
X203672820Y-98333800D02*
X203608930Y-98469600D01*
X203753230Y-98207100D02*
X203672820Y-98333800D01*
X204211200Y-116359280D02*
X204350740Y-116414520D01*
X204079700Y-97900500D02*
X203958280Y-97988700D01*
X204644970Y-116470640D02*
X216405000Y-116470640D01*
X216405000Y-116470640D02*
X216553900Y-116451840D01*
X203525010Y-98909500D02*
X203525010Y-115278020D01*
X203562550Y-115575200D02*
X203608930Y-115717910D01*
X217717300Y-98568700D02*
X217461100Y-98259000D01*
X223224800Y-96779200D02*
X223149500Y-97173900D01*
X220250900Y-99571800D02*
X219849100Y-99571800D01*
X219849100Y-99571800D02*
X219450400Y-99521500D01*
X223250000Y-96378100D02*
X223224800Y-96779200D01*
X223025300Y-97556100D02*
X222854200Y-97919700D01*
X222089800Y-98843800D02*
X221764600Y-99080000D01*
X223224800Y-95977100D02*
X223250000Y-96378100D01*
X219450400Y-99521500D02*
X219061100Y-99421500D01*
X217245800Y-97919700D02*
X217150300Y-97716900D01*
X220649600Y-99521500D02*
X220250900Y-99571800D01*
X217461100Y-98259000D02*
X217245800Y-97919700D01*
X222638800Y-98259000D02*
X222382700Y-98568700D01*
X218010200Y-98843800D02*
X217717300Y-98568700D01*
X223129700Y-95519300D02*
X223129100Y-95519700D01*
X222854200Y-97919700D02*
X222638800Y-98259000D01*
X217150300Y-97716900D02*
X204644970Y-97716900D01*
X223149500Y-97173900D02*
X223025300Y-97556100D01*
X223149500Y-95582300D02*
X223224800Y-95977100D01*
X221412500Y-99273600D02*
X221038800Y-99421500D01*
X204644970Y-97716900D02*
X204496090Y-97735700D01*
X221764600Y-99080000D02*
X221412500Y-99273600D01*
X219061100Y-99421500D02*
X218687500Y-99273600D01*
X221038800Y-99421500D02*
X220649600Y-99521500D01*
X216950500Y-114632320D02*
X217074700Y-114250140D01*
X221412500Y-112532680D02*
X221764600Y-112726290D01*
X236575000Y-112896770D02*
X236575000Y-96528200D01*
X236346800Y-113599170D02*
X236427200Y-113472460D01*
X236251100Y-113714800D02*
X236346800Y-113599170D01*
X219450400Y-112284820D02*
X219849100Y-112234450D01*
X222949600Y-114089400D02*
X235454999Y-114089400D01*
X217461100Y-113547230D02*
X217717300Y-113237580D01*
X235454999Y-95335600D02*
X223695000Y-95335600D01*
X216850000Y-115428130D02*
X216875200Y-115027070D01*
X236537400Y-113193950D02*
X236565600Y-113046540D01*
X218335300Y-112726290D02*
X218687500Y-112532680D01*
X216838800Y-116359280D02*
X216970300Y-116286970D01*
X219061100Y-112384750D02*
X219450400Y-112284820D01*
X216970900Y-116286540D02*
X216950500Y-116223940D01*
X216699200Y-116414520D02*
X216838800Y-116359280D01*
X216875200Y-115027070D02*
X216950500Y-114632320D01*
X219849100Y-112234450D02*
X220250900Y-112234450D01*
X216970300Y-116286970D02*
X216970900Y-116286540D01*
X216875200Y-115829190D02*
X216850000Y-115428130D01*
X218687500Y-112532680D02*
X219061100Y-112384750D01*
X220250900Y-112234450D02*
X220649600Y-112284820D01*
X222089800Y-112962490D02*
X222382700Y-113237580D01*
X223695000Y-95335600D02*
X223546100Y-95354400D01*
X217717300Y-113237580D02*
X218010200Y-112962490D01*
X236575000Y-96528200D02*
X236565600Y-96378500D01*
X217245800Y-113886520D02*
X217461100Y-113547230D01*
X235888800Y-113978040D02*
X236020300Y-113905730D01*
X216950500Y-116223940D02*
X216875200Y-115829190D01*
X220649600Y-112284820D02*
X221038800Y-112384750D01*
X236491100Y-96088300D02*
X236427200Y-95952600D01*
X223546100Y-95354400D02*
X223400700Y-95391700D01*
X222854200Y-113886520D02*
X222949600Y-114089400D01*
X223400700Y-95391700D02*
X223261200Y-95447000D01*
X236565600Y-113046540D02*
X236575000Y-112896770D01*
X236020300Y-113905730D02*
X236141700Y-113817540D01*
X236565600Y-96378500D02*
X236537400Y-96231100D01*
X221038800Y-112384750D02*
X221412500Y-112532680D01*
X235749300Y-114033280D02*
X235888800Y-113978040D01*
X236346800Y-95825900D02*
X236251100Y-95710200D01*
X218010200Y-112962490D02*
X218335300Y-112726290D01*
X235749300Y-95391700D02*
X235603900Y-95354400D01*
X216553900Y-116451840D02*
X216699200Y-116414520D01*
X221764600Y-112726290D02*
X222089800Y-112962490D01*
X236427200Y-95952600D02*
X236346800Y-95825900D01*
X236251100Y-95710200D02*
X236141700Y-95607500D01*
X236537400Y-96231100D02*
X236491100Y-96088300D01*
X235888800Y-95447000D02*
X235749300Y-95391700D01*
X217074700Y-114250140D02*
X217245800Y-113886520D01*
X235603900Y-114070600D02*
X235749300Y-114033280D01*
X236141700Y-113817540D02*
X236251100Y-113714800D01*
X222638800Y-113547230D02*
X222854200Y-113886520D01*
X235454999Y-114089400D02*
X235603900Y-114070600D01*
X222382700Y-113237580D02*
X222638800Y-113547230D01*
X236020300Y-95519300D02*
X235888800Y-95447000D01*
X236491100Y-113336670D02*
X236537400Y-113193950D01*
X236141700Y-95607500D02*
X236020300Y-95519300D01*
X235603900Y-95354400D02*
X235454999Y-95335600D01*
X223261200Y-95447000D02*
X223129700Y-95519300D01*
X236427200Y-113472460D02*
X236491100Y-113336670D01*
M02*
