M48
INCH
T1C0.0310
T2C0.1570
%
G90
G05
T2
X8.2913Y-4.2185
X9.0413Y-4.1252
T1
G00X8.6654Y-3.9882
M15
G01X8.6654Y-3.9882
M16
G05
G00X8.6654Y-4.1063
M15
G01X8.6654Y-4.1063
M16
G05
G00X8.6654Y-3.9331
M15
G01X8.6654Y-3.9331
M16
G05
G00X8.6654Y-4.2874
M15
G01X8.6654Y-4.2874
M16
G05
G00X8.6654Y-4.3465
M15
G01X8.6654Y-4.3465
M16
G05
G00X8.6654Y-4.2283
M15
G01X8.6654Y-4.2283
M16
G05
G00X8.6654Y-4.4055
M15
G01X8.6654Y-4.4055
M16
G05
G00X8.6654Y-4.1654
M15
G01X8.6654Y-4.1654
M16
G05
G00X8.6654Y-4.0472
M15
G01X8.6654Y-4.0472
M16
G05
T0
M30
