G04 #@! TF.GenerationSoftware,KiCad,Pcbnew,(5.1.0)-1*
G04 #@! TF.CreationDate,2020-01-19T23:16:31+11:00*
G04 #@! TF.ProjectId,oddball,6f646462-616c-46c2-9e6b-696361645f70,rev?*
G04 #@! TF.SameCoordinates,Original*
G04 #@! TF.FileFunction,Copper,L2,Bot*
G04 #@! TF.FilePolarity,Positive*
%FSLAX46Y46*%
G04 Gerber Fmt 4.6, Leading zero omitted, Abs format (unit mm)*
G04 Created by KiCad (PCBNEW (5.1.0)-1) date 2020-01-19 23:16:31*
%MOMM*%
%LPD*%
G04 APERTURE LIST*
%ADD10R,1.651000X1.651000*%
%ADD11C,1.651000*%
%ADD12O,1.700000X1.700000*%
%ADD13R,1.700000X1.700000*%
%ADD14C,2.000000*%
%ADD15C,0.250000*%
%ADD16C,0.254000*%
G04 APERTURE END LIST*
D10*
X206640000Y-99370000D03*
D11*
X214260000Y-99370000D03*
D10*
X225660000Y-97060000D03*
D11*
X233280000Y-97060000D03*
D12*
X206120000Y-114850000D03*
X208660000Y-114850000D03*
X211200000Y-114850000D03*
D13*
X213740000Y-114850000D03*
D14*
X208060000Y-102070000D03*
X214410000Y-104610000D03*
X206790000Y-104610000D03*
X213140000Y-102070000D03*
X227110000Y-99700000D03*
X233460000Y-102240000D03*
X225840000Y-102240000D03*
X232190000Y-99700000D03*
D15*
X206640000Y-99370000D02*
X206640000Y-100650000D01*
X206640000Y-100650000D02*
X208060000Y-102070000D01*
X208060000Y-102070000D02*
X206790000Y-103340000D01*
X206790000Y-103340000D02*
X206790000Y-104610000D01*
X225660000Y-97060000D02*
X225660000Y-98250000D01*
X225660000Y-98250000D02*
X227110000Y-99700000D01*
X227110000Y-99700000D02*
X225840000Y-100970000D01*
X225840000Y-100970000D02*
X225840000Y-102240000D01*
X213140000Y-102070000D02*
X214410000Y-103340000D01*
X214410000Y-109100000D02*
X208660000Y-114850000D01*
X214410000Y-104610000D02*
X214410000Y-109100000D01*
X214410000Y-103340000D02*
X214410000Y-104610000D01*
X213740000Y-114850000D02*
X213740000Y-113750000D01*
X217871299Y-109618701D02*
X231221299Y-109618701D01*
X231221299Y-109618701D02*
X233460000Y-107380000D01*
X213740000Y-113750000D02*
X217871299Y-109618701D01*
X233460000Y-107380000D02*
X233460000Y-102240000D01*
X232190000Y-99700000D02*
X233460000Y-100970000D01*
X233460000Y-100970000D02*
X233460000Y-102240000D01*
D16*
G36*
X235513656Y-95827824D02*
G01*
X235600318Y-95850056D01*
X235683500Y-95883031D01*
X235762055Y-95926221D01*
X235834526Y-95978873D01*
X235899785Y-96040136D01*
X235956880Y-96109163D01*
X236004894Y-96184826D01*
X236042949Y-96265641D01*
X236070602Y-96350931D01*
X236087452Y-96439004D01*
X236094001Y-96543290D01*
X236094000Y-112881698D01*
X236087451Y-112986048D01*
X236070609Y-113074083D01*
X236042948Y-113159350D01*
X236004861Y-113240287D01*
X235956911Y-113315856D01*
X235899805Y-113384854D01*
X235834500Y-113446183D01*
X235762053Y-113498812D01*
X235683562Y-113541973D01*
X235600374Y-113574914D01*
X235513625Y-113597180D01*
X235424761Y-113608400D01*
X223248379Y-113608400D01*
X223243055Y-113599473D01*
X223238522Y-113594449D01*
X223066734Y-113323856D01*
X223064186Y-113317771D01*
X223041366Y-113283898D01*
X223032215Y-113269484D01*
X223028181Y-113264328D01*
X223024512Y-113258881D01*
X223013597Y-113245684D01*
X222988464Y-113213555D01*
X222983469Y-113209256D01*
X222779290Y-112962384D01*
X222775958Y-112956595D01*
X222749132Y-112925921D01*
X222738297Y-112912820D01*
X222733588Y-112908147D01*
X222729213Y-112903144D01*
X222716797Y-112891483D01*
X222687896Y-112862801D01*
X222682333Y-112859114D01*
X222448724Y-112639710D01*
X222444670Y-112634356D01*
X222414252Y-112607335D01*
X222401870Y-112595705D01*
X222396572Y-112591629D01*
X222391584Y-112587197D01*
X222377855Y-112577226D01*
X222345595Y-112552401D01*
X222339576Y-112549422D01*
X222080247Y-112361066D01*
X222075632Y-112356340D01*
X222041984Y-112333275D01*
X222028152Y-112323228D01*
X222022480Y-112319905D01*
X222017064Y-112316192D01*
X222002103Y-112307965D01*
X221966886Y-112287331D01*
X221960641Y-112285166D01*
X221679898Y-112130794D01*
X221674649Y-112126623D01*
X221638441Y-112107998D01*
X221623558Y-112099814D01*
X221617433Y-112097191D01*
X221611505Y-112094142D01*
X221595701Y-112087886D01*
X221558283Y-112071864D01*
X221551727Y-112070479D01*
X221253701Y-111952505D01*
X221248018Y-111949053D01*
X221209721Y-111935095D01*
X221193871Y-111928821D01*
X221187512Y-111927001D01*
X221181303Y-111924738D01*
X221164809Y-111920503D01*
X221125604Y-111909282D01*
X221118973Y-111908734D01*
X220873090Y-111845602D01*
X220863490Y-111748132D01*
X220819192Y-111602101D01*
X220747256Y-111467517D01*
X220650446Y-111349554D01*
X220532483Y-111252744D01*
X220397899Y-111180808D01*
X220296339Y-111150000D01*
X220397899Y-111119192D01*
X220532483Y-111047256D01*
X220650446Y-110950446D01*
X220747256Y-110832483D01*
X220819192Y-110697899D01*
X220863490Y-110551868D01*
X220878448Y-110400000D01*
X220863490Y-110248132D01*
X220826048Y-110124701D01*
X231196453Y-110124701D01*
X231221299Y-110127148D01*
X231246145Y-110124701D01*
X231246153Y-110124701D01*
X231320492Y-110117379D01*
X231415874Y-110088446D01*
X231503778Y-110041460D01*
X231580826Y-109978228D01*
X231596675Y-109958916D01*
X233800220Y-107755372D01*
X233819527Y-107739527D01*
X233882759Y-107662479D01*
X233929745Y-107574575D01*
X233958678Y-107479193D01*
X233966000Y-107404854D01*
X233966000Y-107404847D01*
X233968447Y-107380001D01*
X233966000Y-107355155D01*
X233966000Y-103525192D01*
X234114149Y-103463826D01*
X234340336Y-103312693D01*
X234532693Y-103120336D01*
X234683826Y-102894149D01*
X234787929Y-102642823D01*
X234841000Y-102376017D01*
X234841000Y-102103983D01*
X234787929Y-101837177D01*
X234683826Y-101585851D01*
X234532693Y-101359664D01*
X234340336Y-101167307D01*
X234114149Y-101016174D01*
X233966991Y-100955219D01*
X233966000Y-100945153D01*
X233966000Y-100945146D01*
X233958678Y-100870807D01*
X233955097Y-100859000D01*
X233929745Y-100775425D01*
X233928285Y-100772693D01*
X233882759Y-100687521D01*
X233819527Y-100610473D01*
X233800220Y-100594628D01*
X233456564Y-100250972D01*
X233517929Y-100102823D01*
X233571000Y-99836017D01*
X233571000Y-99563983D01*
X233517929Y-99297177D01*
X233413826Y-99045851D01*
X233262693Y-98819664D01*
X233070336Y-98627307D01*
X232844149Y-98476174D01*
X232592823Y-98372071D01*
X232326017Y-98319000D01*
X232053983Y-98319000D01*
X231787177Y-98372071D01*
X231535851Y-98476174D01*
X231309664Y-98627307D01*
X231117307Y-98819664D01*
X230966174Y-99045851D01*
X230862071Y-99297177D01*
X230809000Y-99563983D01*
X230809000Y-99836017D01*
X230862071Y-100102823D01*
X230966174Y-100354149D01*
X231117307Y-100580336D01*
X231309664Y-100772693D01*
X231535851Y-100923826D01*
X231787177Y-101027929D01*
X232053983Y-101081000D01*
X232326017Y-101081000D01*
X232592823Y-101027929D01*
X232740972Y-100966564D01*
X232796698Y-101022290D01*
X232579664Y-101167307D01*
X232387307Y-101359664D01*
X232236174Y-101585851D01*
X232132071Y-101837177D01*
X232079000Y-102103983D01*
X232079000Y-102376017D01*
X232132071Y-102642823D01*
X232236174Y-102894149D01*
X232387307Y-103120336D01*
X232579664Y-103312693D01*
X232805851Y-103463826D01*
X232954001Y-103525192D01*
X232954000Y-107170408D01*
X231011708Y-109112701D01*
X220845037Y-109112701D01*
X220863490Y-109051868D01*
X220878448Y-108900000D01*
X220863490Y-108748132D01*
X220819192Y-108602101D01*
X220747256Y-108467517D01*
X220650446Y-108349554D01*
X220532483Y-108252744D01*
X220397899Y-108180808D01*
X220296339Y-108150000D01*
X220397899Y-108119192D01*
X220532483Y-108047256D01*
X220650446Y-107950446D01*
X220747256Y-107832483D01*
X220819192Y-107697899D01*
X220863490Y-107551868D01*
X220878448Y-107400000D01*
X220863490Y-107248132D01*
X220819192Y-107102101D01*
X220747256Y-106967517D01*
X220650446Y-106849554D01*
X220532483Y-106752744D01*
X220397899Y-106680808D01*
X220251868Y-106636510D01*
X220138053Y-106625300D01*
X220061947Y-106625300D01*
X219948132Y-106636510D01*
X219802101Y-106680808D01*
X219667517Y-106752744D01*
X219549554Y-106849554D01*
X219452744Y-106967517D01*
X219380808Y-107102101D01*
X219336510Y-107248132D01*
X219321552Y-107400000D01*
X219336510Y-107551868D01*
X219380808Y-107697899D01*
X219452744Y-107832483D01*
X219549554Y-107950446D01*
X219667517Y-108047256D01*
X219802101Y-108119192D01*
X219903661Y-108150000D01*
X219802101Y-108180808D01*
X219667517Y-108252744D01*
X219549554Y-108349554D01*
X219452744Y-108467517D01*
X219380808Y-108602101D01*
X219336510Y-108748132D01*
X219321552Y-108900000D01*
X219336510Y-109051868D01*
X219354963Y-109112701D01*
X217896144Y-109112701D01*
X217871298Y-109110254D01*
X217846452Y-109112701D01*
X217846445Y-109112701D01*
X217772106Y-109120023D01*
X217676724Y-109148956D01*
X217588820Y-109195942D01*
X217511772Y-109259174D01*
X217495928Y-109278480D01*
X213399781Y-113374628D01*
X213380474Y-113390473D01*
X213317242Y-113467521D01*
X213297859Y-113503784D01*
X213270255Y-113555426D01*
X213251530Y-113617157D01*
X212890000Y-113617157D01*
X212815311Y-113624513D01*
X212743492Y-113646299D01*
X212677304Y-113681678D01*
X212619289Y-113729289D01*
X212571678Y-113787304D01*
X212536299Y-113853492D01*
X212514513Y-113925311D01*
X212507157Y-114000000D01*
X212507157Y-115700000D01*
X212514513Y-115774689D01*
X212536299Y-115846508D01*
X212571678Y-115912696D01*
X212619289Y-115970711D01*
X212642354Y-115989640D01*
X211679271Y-115989640D01*
X211887216Y-115878491D01*
X212074660Y-115724660D01*
X212228491Y-115537216D01*
X212342798Y-115323363D01*
X212413188Y-115091318D01*
X212436956Y-114850000D01*
X212413188Y-114608682D01*
X212342798Y-114376637D01*
X212228491Y-114162784D01*
X212074660Y-113975340D01*
X211887216Y-113821509D01*
X211673363Y-113707202D01*
X211441318Y-113636812D01*
X211260472Y-113619000D01*
X211139528Y-113619000D01*
X210958682Y-113636812D01*
X210726637Y-113707202D01*
X210512784Y-113821509D01*
X210325340Y-113975340D01*
X210171509Y-114162784D01*
X210057202Y-114376637D01*
X209986812Y-114608682D01*
X209963044Y-114850000D01*
X209986812Y-115091318D01*
X210057202Y-115323363D01*
X210171509Y-115537216D01*
X210325340Y-115724660D01*
X210512784Y-115878491D01*
X210720729Y-115989640D01*
X209139271Y-115989640D01*
X209347216Y-115878491D01*
X209534660Y-115724660D01*
X209688491Y-115537216D01*
X209802798Y-115323363D01*
X209873188Y-115091318D01*
X209896956Y-114850000D01*
X209873188Y-114608682D01*
X209813541Y-114412051D01*
X214750220Y-109475372D01*
X214769527Y-109459527D01*
X214832759Y-109382479D01*
X214879745Y-109294575D01*
X214908678Y-109199193D01*
X214916000Y-109124854D01*
X214916000Y-109124846D01*
X214918447Y-109100000D01*
X214916000Y-109075154D01*
X214916000Y-105895192D01*
X215064149Y-105833826D01*
X215290336Y-105682693D01*
X215482693Y-105490336D01*
X215633826Y-105264149D01*
X215737929Y-105012823D01*
X215791000Y-104746017D01*
X215791000Y-104473983D01*
X215737929Y-104207177D01*
X215633826Y-103955851D01*
X215482693Y-103729664D01*
X215290336Y-103537307D01*
X215064149Y-103386174D01*
X214916991Y-103325219D01*
X214916000Y-103315153D01*
X214916000Y-103315146D01*
X214908678Y-103240807D01*
X214905097Y-103229000D01*
X214879745Y-103145425D01*
X214878285Y-103142693D01*
X214832759Y-103057521D01*
X214769527Y-102980473D01*
X214750220Y-102964628D01*
X214406564Y-102620972D01*
X214467929Y-102472823D01*
X214521000Y-102206017D01*
X214521000Y-101933983D01*
X214467929Y-101667177D01*
X214363826Y-101415851D01*
X214212693Y-101189664D01*
X214020336Y-100997307D01*
X213794149Y-100846174D01*
X213542823Y-100742071D01*
X213276017Y-100689000D01*
X213003983Y-100689000D01*
X212737177Y-100742071D01*
X212485851Y-100846174D01*
X212259664Y-100997307D01*
X212067307Y-101189664D01*
X211916174Y-101415851D01*
X211812071Y-101667177D01*
X211759000Y-101933983D01*
X211759000Y-102206017D01*
X211812071Y-102472823D01*
X211916174Y-102724149D01*
X212067307Y-102950336D01*
X212259664Y-103142693D01*
X212485851Y-103293826D01*
X212737177Y-103397929D01*
X213003983Y-103451000D01*
X213276017Y-103451000D01*
X213542823Y-103397929D01*
X213690972Y-103336564D01*
X213746698Y-103392290D01*
X213529664Y-103537307D01*
X213337307Y-103729664D01*
X213186174Y-103955851D01*
X213082071Y-104207177D01*
X213029000Y-104473983D01*
X213029000Y-104746017D01*
X213082071Y-105012823D01*
X213186174Y-105264149D01*
X213337307Y-105490336D01*
X213529664Y-105682693D01*
X213755851Y-105833826D01*
X213904000Y-105895192D01*
X213904001Y-108890407D01*
X209097949Y-113696459D01*
X208901318Y-113636812D01*
X208720472Y-113619000D01*
X208599528Y-113619000D01*
X208418682Y-113636812D01*
X208186637Y-113707202D01*
X207972784Y-113821509D01*
X207785340Y-113975340D01*
X207631509Y-114162784D01*
X207518983Y-114373305D01*
X207464157Y-114218748D01*
X207315178Y-113968645D01*
X207120269Y-113752412D01*
X206886920Y-113578359D01*
X206624099Y-113453175D01*
X206476890Y-113408524D01*
X206247000Y-113529845D01*
X206247000Y-114723000D01*
X206267000Y-114723000D01*
X206267000Y-114977000D01*
X206247000Y-114977000D01*
X206247000Y-114997000D01*
X205993000Y-114997000D01*
X205993000Y-114977000D01*
X204799186Y-114977000D01*
X204678519Y-115206891D01*
X204775843Y-115481252D01*
X204924822Y-115731355D01*
X205119731Y-115947588D01*
X205176109Y-115989640D01*
X204675215Y-115989640D01*
X204586385Y-115978423D01*
X204499659Y-115956155D01*
X204416419Y-115923203D01*
X204337929Y-115880042D01*
X204265476Y-115827418D01*
X204200228Y-115766137D01*
X204143137Y-115697128D01*
X204095165Y-115621534D01*
X204057034Y-115540490D01*
X204029362Y-115455346D01*
X204012590Y-115367387D01*
X204006010Y-115262899D01*
X204006010Y-114493109D01*
X204678519Y-114493109D01*
X204799186Y-114723000D01*
X205993000Y-114723000D01*
X205993000Y-113529845D01*
X205763110Y-113408524D01*
X205615901Y-113453175D01*
X205353080Y-113578359D01*
X205119731Y-113752412D01*
X204924822Y-113968645D01*
X204775843Y-114218748D01*
X204678519Y-114493109D01*
X204006010Y-114493109D01*
X204006010Y-106916093D01*
X208225100Y-106916093D01*
X208225100Y-107383907D01*
X208316366Y-107842733D01*
X208495391Y-108274937D01*
X208755295Y-108663910D01*
X209086090Y-108994705D01*
X209475063Y-109254609D01*
X209907267Y-109433634D01*
X210366093Y-109524900D01*
X210833907Y-109524900D01*
X211292733Y-109433634D01*
X211724937Y-109254609D01*
X212113910Y-108994705D01*
X212444705Y-108663910D01*
X212704609Y-108274937D01*
X212883634Y-107842733D01*
X212974900Y-107383907D01*
X212974900Y-106916093D01*
X212883634Y-106457267D01*
X212704609Y-106025063D01*
X212444705Y-105636090D01*
X212113910Y-105305295D01*
X211724937Y-105045391D01*
X211292733Y-104866366D01*
X210833907Y-104775100D01*
X210366093Y-104775100D01*
X209907267Y-104866366D01*
X209475063Y-105045391D01*
X209086090Y-105305295D01*
X208755295Y-105636090D01*
X208495391Y-106025063D01*
X208316366Y-106457267D01*
X208225100Y-106916093D01*
X204006010Y-106916093D01*
X204006010Y-98924618D01*
X204012590Y-98820100D01*
X204029359Y-98732165D01*
X204057033Y-98647018D01*
X204095164Y-98565972D01*
X204143115Y-98490415D01*
X204200251Y-98421370D01*
X204265540Y-98360014D01*
X204337932Y-98307428D01*
X204416351Y-98264312D01*
X204499573Y-98231391D01*
X204586352Y-98209121D01*
X204675215Y-98197900D01*
X205654707Y-98197900D01*
X205601804Y-98226178D01*
X205543789Y-98273789D01*
X205496178Y-98331804D01*
X205460799Y-98397992D01*
X205439013Y-98469811D01*
X205431657Y-98544500D01*
X205431657Y-100195500D01*
X205439013Y-100270189D01*
X205460799Y-100342008D01*
X205496178Y-100408196D01*
X205543789Y-100466211D01*
X205601804Y-100513822D01*
X205667992Y-100549201D01*
X205739811Y-100570987D01*
X205814500Y-100578343D01*
X206134001Y-100578343D01*
X206134001Y-100625144D01*
X206131553Y-100650000D01*
X206141322Y-100749192D01*
X206170255Y-100844574D01*
X206177966Y-100859000D01*
X206217242Y-100932479D01*
X206280474Y-101009527D01*
X206299780Y-101025372D01*
X206793437Y-101519028D01*
X206732071Y-101667177D01*
X206679000Y-101933983D01*
X206679000Y-102206017D01*
X206732071Y-102472823D01*
X206793437Y-102620972D01*
X206449785Y-102964624D01*
X206430473Y-102980473D01*
X206367241Y-103057521D01*
X206320255Y-103145426D01*
X206291322Y-103240808D01*
X206284000Y-103315147D01*
X206284000Y-103315154D01*
X206283009Y-103325219D01*
X206135851Y-103386174D01*
X205909664Y-103537307D01*
X205717307Y-103729664D01*
X205566174Y-103955851D01*
X205462071Y-104207177D01*
X205409000Y-104473983D01*
X205409000Y-104746017D01*
X205462071Y-105012823D01*
X205566174Y-105264149D01*
X205717307Y-105490336D01*
X205909664Y-105682693D01*
X206135851Y-105833826D01*
X206387177Y-105937929D01*
X206653983Y-105991000D01*
X206926017Y-105991000D01*
X207192823Y-105937929D01*
X207444149Y-105833826D01*
X207670336Y-105682693D01*
X207862693Y-105490336D01*
X208013826Y-105264149D01*
X208117929Y-105012823D01*
X208171000Y-104746017D01*
X208171000Y-104473983D01*
X208117929Y-104207177D01*
X208013826Y-103955851D01*
X207862693Y-103729664D01*
X207670336Y-103537307D01*
X207453302Y-103392290D01*
X207509028Y-103336563D01*
X207657177Y-103397929D01*
X207923983Y-103451000D01*
X208196017Y-103451000D01*
X208462823Y-103397929D01*
X208714149Y-103293826D01*
X208940336Y-103142693D01*
X209132693Y-102950336D01*
X209283826Y-102724149D01*
X209387929Y-102472823D01*
X209441000Y-102206017D01*
X209441000Y-101933983D01*
X209387929Y-101667177D01*
X209283826Y-101415851D01*
X209132693Y-101189664D01*
X208940336Y-100997307D01*
X208714149Y-100846174D01*
X208462823Y-100742071D01*
X208196017Y-100689000D01*
X207923983Y-100689000D01*
X207657177Y-100742071D01*
X207509028Y-100803437D01*
X207283934Y-100578343D01*
X207465500Y-100578343D01*
X207540189Y-100570987D01*
X207612008Y-100549201D01*
X207678196Y-100513822D01*
X207736211Y-100466211D01*
X207783822Y-100408196D01*
X207819201Y-100342008D01*
X207840987Y-100270189D01*
X207848343Y-100195500D01*
X207848343Y-98544500D01*
X207840987Y-98469811D01*
X207819201Y-98397992D01*
X207783822Y-98331804D01*
X207736211Y-98273789D01*
X207678196Y-98226178D01*
X207625293Y-98197900D01*
X213968229Y-98197900D01*
X213908077Y-98209865D01*
X213688508Y-98300813D01*
X213490901Y-98432850D01*
X213322850Y-98600901D01*
X213190813Y-98798508D01*
X213099865Y-99018077D01*
X213053500Y-99251170D01*
X213053500Y-99488830D01*
X213099865Y-99721923D01*
X213190813Y-99941492D01*
X213322850Y-100139099D01*
X213490901Y-100307150D01*
X213688508Y-100439187D01*
X213908077Y-100530135D01*
X214141170Y-100576500D01*
X214378830Y-100576500D01*
X214611923Y-100530135D01*
X214831492Y-100439187D01*
X215029099Y-100307150D01*
X215197150Y-100139099D01*
X215329187Y-99941492D01*
X215420135Y-99721923D01*
X215466500Y-99488830D01*
X215466500Y-99251170D01*
X215420135Y-99018077D01*
X215329187Y-98798508D01*
X215197150Y-98600901D01*
X215029099Y-98432850D01*
X214831492Y-98300813D01*
X214611923Y-98209865D01*
X214551771Y-98197900D01*
X216851694Y-98197900D01*
X216857105Y-98206963D01*
X216861515Y-98211845D01*
X217033162Y-98482350D01*
X217035740Y-98488506D01*
X217058507Y-98522293D01*
X217067623Y-98536659D01*
X217071709Y-98541884D01*
X217075420Y-98547392D01*
X217086275Y-98560514D01*
X217111361Y-98592597D01*
X217116418Y-98596951D01*
X217320720Y-98843915D01*
X217324037Y-98849678D01*
X217350893Y-98880388D01*
X217361740Y-98893500D01*
X217366423Y-98898146D01*
X217370781Y-98903130D01*
X217383221Y-98914814D01*
X217412146Y-98943514D01*
X217417686Y-98947185D01*
X217651245Y-99166549D01*
X217655282Y-99171882D01*
X217685739Y-99198946D01*
X217698124Y-99210579D01*
X217703389Y-99214631D01*
X217708361Y-99219049D01*
X217722119Y-99229045D01*
X217754397Y-99253885D01*
X217760391Y-99256852D01*
X218019656Y-99445219D01*
X218024320Y-99449994D01*
X218057914Y-99473015D01*
X218071688Y-99483023D01*
X218077419Y-99486382D01*
X218082894Y-99490134D01*
X218097794Y-99498324D01*
X218132948Y-99518929D01*
X218139260Y-99521118D01*
X218420129Y-99675508D01*
X218425342Y-99679651D01*
X218461552Y-99698278D01*
X218476502Y-99706496D01*
X218482605Y-99709108D01*
X218488485Y-99712133D01*
X218504294Y-99718391D01*
X218541782Y-99734437D01*
X218548303Y-99735814D01*
X218846171Y-99853734D01*
X218851835Y-99857175D01*
X218890143Y-99871141D01*
X218906018Y-99877426D01*
X218912359Y-99879241D01*
X218918547Y-99881497D01*
X218935062Y-99885739D01*
X218974285Y-99896966D01*
X218980892Y-99897512D01*
X219291370Y-99977265D01*
X219297515Y-99980009D01*
X219330164Y-99987436D01*
X219336510Y-100051868D01*
X219380808Y-100197899D01*
X219452744Y-100332483D01*
X219549554Y-100450446D01*
X219667517Y-100547256D01*
X219766195Y-100600000D01*
X219667517Y-100652744D01*
X219549554Y-100749554D01*
X219452744Y-100867517D01*
X219380808Y-101002101D01*
X219336510Y-101148132D01*
X219321552Y-101300000D01*
X219336510Y-101451868D01*
X219380808Y-101597899D01*
X219452744Y-101732483D01*
X219549554Y-101850446D01*
X219667517Y-101947256D01*
X219802101Y-102019192D01*
X219903661Y-102050000D01*
X219802101Y-102080808D01*
X219667517Y-102152744D01*
X219549554Y-102249554D01*
X219452744Y-102367517D01*
X219380808Y-102502101D01*
X219336510Y-102648132D01*
X219321552Y-102800000D01*
X219336510Y-102951868D01*
X219380808Y-103097899D01*
X219452744Y-103232483D01*
X219549554Y-103350446D01*
X219667517Y-103447256D01*
X219802101Y-103519192D01*
X219903661Y-103550000D01*
X219802101Y-103580808D01*
X219667517Y-103652744D01*
X219549554Y-103749554D01*
X219452744Y-103867517D01*
X219380808Y-104002101D01*
X219336510Y-104148132D01*
X219321552Y-104300000D01*
X219336510Y-104451868D01*
X219380808Y-104597899D01*
X219452744Y-104732483D01*
X219549554Y-104850446D01*
X219667517Y-104947256D01*
X219802101Y-105019192D01*
X219903661Y-105050000D01*
X219802101Y-105080808D01*
X219667517Y-105152744D01*
X219549554Y-105249554D01*
X219452744Y-105367517D01*
X219380808Y-105502101D01*
X219336510Y-105648132D01*
X219321552Y-105800000D01*
X219336510Y-105951868D01*
X219380808Y-106097899D01*
X219452744Y-106232483D01*
X219549554Y-106350446D01*
X219667517Y-106447256D01*
X219802101Y-106519192D01*
X219948132Y-106563490D01*
X220061947Y-106574700D01*
X220138053Y-106574700D01*
X220251868Y-106563490D01*
X220397899Y-106519192D01*
X220532483Y-106447256D01*
X220650446Y-106350446D01*
X220747256Y-106232483D01*
X220819192Y-106097899D01*
X220863490Y-105951868D01*
X220878448Y-105800000D01*
X220863490Y-105648132D01*
X220819192Y-105502101D01*
X220747256Y-105367517D01*
X220650446Y-105249554D01*
X220532483Y-105152744D01*
X220397899Y-105080808D01*
X220296339Y-105050000D01*
X220397899Y-105019192D01*
X220532483Y-104947256D01*
X220650446Y-104850446D01*
X220747256Y-104732483D01*
X220819192Y-104597899D01*
X220834907Y-104546093D01*
X227275100Y-104546093D01*
X227275100Y-105013907D01*
X227366366Y-105472733D01*
X227545391Y-105904937D01*
X227805295Y-106293910D01*
X228136090Y-106624705D01*
X228525063Y-106884609D01*
X228957267Y-107063634D01*
X229416093Y-107154900D01*
X229883907Y-107154900D01*
X230342733Y-107063634D01*
X230774937Y-106884609D01*
X231163910Y-106624705D01*
X231494705Y-106293910D01*
X231754609Y-105904937D01*
X231933634Y-105472733D01*
X232024900Y-105013907D01*
X232024900Y-104546093D01*
X231933634Y-104087267D01*
X231754609Y-103655063D01*
X231494705Y-103266090D01*
X231163910Y-102935295D01*
X230774937Y-102675391D01*
X230342733Y-102496366D01*
X229883907Y-102405100D01*
X229416093Y-102405100D01*
X228957267Y-102496366D01*
X228525063Y-102675391D01*
X228136090Y-102935295D01*
X227805295Y-103266090D01*
X227545391Y-103655063D01*
X227366366Y-104087267D01*
X227275100Y-104546093D01*
X220834907Y-104546093D01*
X220863490Y-104451868D01*
X220878448Y-104300000D01*
X220863490Y-104148132D01*
X220819192Y-104002101D01*
X220747256Y-103867517D01*
X220650446Y-103749554D01*
X220532483Y-103652744D01*
X220397899Y-103580808D01*
X220296339Y-103550000D01*
X220397899Y-103519192D01*
X220532483Y-103447256D01*
X220650446Y-103350446D01*
X220747256Y-103232483D01*
X220819192Y-103097899D01*
X220863490Y-102951868D01*
X220878448Y-102800000D01*
X220863490Y-102648132D01*
X220819192Y-102502101D01*
X220747256Y-102367517D01*
X220650446Y-102249554D01*
X220532483Y-102152744D01*
X220397899Y-102080808D01*
X220296339Y-102050000D01*
X220397899Y-102019192D01*
X220532483Y-101947256D01*
X220650446Y-101850446D01*
X220747256Y-101732483D01*
X220819192Y-101597899D01*
X220863490Y-101451868D01*
X220878448Y-101300000D01*
X220863490Y-101148132D01*
X220819192Y-101002101D01*
X220747256Y-100867517D01*
X220650446Y-100749554D01*
X220532483Y-100652744D01*
X220433805Y-100600000D01*
X220532483Y-100547256D01*
X220650446Y-100450446D01*
X220747256Y-100332483D01*
X220819192Y-100197899D01*
X220863490Y-100051868D01*
X220872453Y-99960863D01*
X221119000Y-99897516D01*
X221125571Y-99896974D01*
X221164820Y-99885743D01*
X221181382Y-99881488D01*
X221187541Y-99879242D01*
X221193839Y-99877440D01*
X221209730Y-99871151D01*
X221248092Y-99857162D01*
X221253726Y-99853738D01*
X221551708Y-99735806D01*
X221558273Y-99734419D01*
X221595661Y-99718411D01*
X221611475Y-99712152D01*
X221617422Y-99709093D01*
X221623549Y-99706470D01*
X221638407Y-99698300D01*
X221674621Y-99679675D01*
X221679879Y-99675497D01*
X221960637Y-99521125D01*
X221966886Y-99518959D01*
X222002087Y-99498334D01*
X222017055Y-99490104D01*
X222022480Y-99486385D01*
X222028152Y-99483062D01*
X222041971Y-99473025D01*
X222075624Y-99449957D01*
X222080244Y-99445227D01*
X222339578Y-99256866D01*
X222345602Y-99253885D01*
X222377851Y-99229068D01*
X222391584Y-99219093D01*
X222396582Y-99214653D01*
X222401876Y-99210579D01*
X222414238Y-99198968D01*
X222444670Y-99171934D01*
X222448729Y-99166573D01*
X222682349Y-98947151D01*
X222687926Y-98943455D01*
X222716819Y-98914776D01*
X222729219Y-98903130D01*
X222733602Y-98898118D01*
X222738323Y-98893432D01*
X222749153Y-98880335D01*
X222775963Y-98849678D01*
X222779301Y-98843878D01*
X222983488Y-98596957D01*
X222988469Y-98592670D01*
X223013608Y-98560533D01*
X223024535Y-98547319D01*
X223028195Y-98541885D01*
X223032219Y-98536741D01*
X223041383Y-98522306D01*
X223064204Y-98488425D01*
X223066744Y-98482357D01*
X223238488Y-98211825D01*
X223242974Y-98206856D01*
X223263813Y-98171932D01*
X223272944Y-98157550D01*
X223275954Y-98151586D01*
X223279360Y-98145879D01*
X223286579Y-98130538D01*
X223304942Y-98094160D01*
X223306738Y-98087700D01*
X223443186Y-97797739D01*
X223446992Y-97792279D01*
X223463312Y-97754971D01*
X223470580Y-97739526D01*
X223472804Y-97733272D01*
X223475450Y-97727223D01*
X223480701Y-97711064D01*
X223494371Y-97672622D01*
X223495336Y-97666029D01*
X223594375Y-97361258D01*
X223597471Y-97355355D01*
X223608989Y-97316288D01*
X223614254Y-97300085D01*
X223615676Y-97293605D01*
X223617551Y-97287245D01*
X223620742Y-97270520D01*
X223629474Y-97230727D01*
X223629605Y-97224061D01*
X223689656Y-96909293D01*
X223691994Y-96903030D01*
X223698517Y-96862846D01*
X223701706Y-96846131D01*
X223702306Y-96839504D01*
X223703372Y-96832939D01*
X223704438Y-96815972D01*
X223708112Y-96775413D01*
X223707404Y-96768760D01*
X223727498Y-96448923D01*
X223729020Y-96442474D01*
X223730464Y-96401710D01*
X223731534Y-96384681D01*
X223731301Y-96378097D01*
X223731534Y-96371511D01*
X223730464Y-96354476D01*
X223729019Y-96313718D01*
X223727497Y-96307269D01*
X223722925Y-96234500D01*
X224451657Y-96234500D01*
X224451657Y-97885500D01*
X224459013Y-97960189D01*
X224480799Y-98032008D01*
X224516178Y-98098196D01*
X224563789Y-98156211D01*
X224621804Y-98203822D01*
X224687992Y-98239201D01*
X224759811Y-98260987D01*
X224834500Y-98268343D01*
X225153360Y-98268343D01*
X225161322Y-98349192D01*
X225190255Y-98444574D01*
X225190256Y-98444575D01*
X225237242Y-98532479D01*
X225300474Y-98609527D01*
X225319780Y-98625372D01*
X225843437Y-99149028D01*
X225782071Y-99297177D01*
X225729000Y-99563983D01*
X225729000Y-99836017D01*
X225782071Y-100102823D01*
X225843437Y-100250972D01*
X225499785Y-100594624D01*
X225480473Y-100610473D01*
X225417241Y-100687521D01*
X225370255Y-100775426D01*
X225341322Y-100870808D01*
X225334000Y-100945147D01*
X225334000Y-100945154D01*
X225333009Y-100955219D01*
X225185851Y-101016174D01*
X224959664Y-101167307D01*
X224767307Y-101359664D01*
X224616174Y-101585851D01*
X224512071Y-101837177D01*
X224459000Y-102103983D01*
X224459000Y-102376017D01*
X224512071Y-102642823D01*
X224616174Y-102894149D01*
X224767307Y-103120336D01*
X224959664Y-103312693D01*
X225185851Y-103463826D01*
X225437177Y-103567929D01*
X225703983Y-103621000D01*
X225976017Y-103621000D01*
X226242823Y-103567929D01*
X226494149Y-103463826D01*
X226720336Y-103312693D01*
X226912693Y-103120336D01*
X227063826Y-102894149D01*
X227167929Y-102642823D01*
X227221000Y-102376017D01*
X227221000Y-102103983D01*
X227167929Y-101837177D01*
X227063826Y-101585851D01*
X226912693Y-101359664D01*
X226720336Y-101167307D01*
X226503302Y-101022290D01*
X226559028Y-100966563D01*
X226707177Y-101027929D01*
X226973983Y-101081000D01*
X227246017Y-101081000D01*
X227512823Y-101027929D01*
X227764149Y-100923826D01*
X227990336Y-100772693D01*
X228182693Y-100580336D01*
X228333826Y-100354149D01*
X228437929Y-100102823D01*
X228491000Y-99836017D01*
X228491000Y-99563983D01*
X228437929Y-99297177D01*
X228333826Y-99045851D01*
X228182693Y-98819664D01*
X227990336Y-98627307D01*
X227764149Y-98476174D01*
X227512823Y-98372071D01*
X227246017Y-98319000D01*
X226973983Y-98319000D01*
X226707177Y-98372071D01*
X226559028Y-98433437D01*
X226393934Y-98268343D01*
X226485500Y-98268343D01*
X226560189Y-98260987D01*
X226632008Y-98239201D01*
X226698196Y-98203822D01*
X226756211Y-98156211D01*
X226803822Y-98098196D01*
X226839201Y-98032008D01*
X226860987Y-97960189D01*
X226868343Y-97885500D01*
X226868343Y-96941170D01*
X232073500Y-96941170D01*
X232073500Y-97178830D01*
X232119865Y-97411923D01*
X232210813Y-97631492D01*
X232342850Y-97829099D01*
X232510901Y-97997150D01*
X232708508Y-98129187D01*
X232928077Y-98220135D01*
X233161170Y-98266500D01*
X233398830Y-98266500D01*
X233631923Y-98220135D01*
X233851492Y-98129187D01*
X234049099Y-97997150D01*
X234217150Y-97829099D01*
X234349187Y-97631492D01*
X234440135Y-97411923D01*
X234486500Y-97178830D01*
X234486500Y-96941170D01*
X234440135Y-96708077D01*
X234349187Y-96488508D01*
X234217150Y-96290901D01*
X234049099Y-96122850D01*
X233851492Y-95990813D01*
X233631923Y-95899865D01*
X233398830Y-95853500D01*
X233161170Y-95853500D01*
X232928077Y-95899865D01*
X232708508Y-95990813D01*
X232510901Y-96122850D01*
X232342850Y-96290901D01*
X232210813Y-96488508D01*
X232119865Y-96708077D01*
X232073500Y-96941170D01*
X226868343Y-96941170D01*
X226868343Y-96234500D01*
X226860987Y-96159811D01*
X226839201Y-96087992D01*
X226803822Y-96021804D01*
X226756211Y-95963789D01*
X226698196Y-95916178D01*
X226632008Y-95880799D01*
X226560189Y-95859013D01*
X226485500Y-95851657D01*
X224834500Y-95851657D01*
X224759811Y-95859013D01*
X224687992Y-95880799D01*
X224621804Y-95916178D01*
X224563789Y-95963789D01*
X224516178Y-96021804D01*
X224480799Y-96087992D01*
X224459013Y-96159811D01*
X224451657Y-96234500D01*
X223722925Y-96234500D01*
X223707405Y-95987543D01*
X223708111Y-95980910D01*
X223704439Y-95940347D01*
X223703371Y-95923353D01*
X223702308Y-95916802D01*
X223701709Y-95910191D01*
X223698518Y-95893461D01*
X223691992Y-95853263D01*
X223689659Y-95847014D01*
X223684831Y-95821702D01*
X223725238Y-95816600D01*
X235424761Y-95816600D01*
X235513656Y-95827824D01*
X235513656Y-95827824D01*
G37*
X235513656Y-95827824D02*
X235600318Y-95850056D01*
X235683500Y-95883031D01*
X235762055Y-95926221D01*
X235834526Y-95978873D01*
X235899785Y-96040136D01*
X235956880Y-96109163D01*
X236004894Y-96184826D01*
X236042949Y-96265641D01*
X236070602Y-96350931D01*
X236087452Y-96439004D01*
X236094001Y-96543290D01*
X236094000Y-112881698D01*
X236087451Y-112986048D01*
X236070609Y-113074083D01*
X236042948Y-113159350D01*
X236004861Y-113240287D01*
X235956911Y-113315856D01*
X235899805Y-113384854D01*
X235834500Y-113446183D01*
X235762053Y-113498812D01*
X235683562Y-113541973D01*
X235600374Y-113574914D01*
X235513625Y-113597180D01*
X235424761Y-113608400D01*
X223248379Y-113608400D01*
X223243055Y-113599473D01*
X223238522Y-113594449D01*
X223066734Y-113323856D01*
X223064186Y-113317771D01*
X223041366Y-113283898D01*
X223032215Y-113269484D01*
X223028181Y-113264328D01*
X223024512Y-113258881D01*
X223013597Y-113245684D01*
X222988464Y-113213555D01*
X222983469Y-113209256D01*
X222779290Y-112962384D01*
X222775958Y-112956595D01*
X222749132Y-112925921D01*
X222738297Y-112912820D01*
X222733588Y-112908147D01*
X222729213Y-112903144D01*
X222716797Y-112891483D01*
X222687896Y-112862801D01*
X222682333Y-112859114D01*
X222448724Y-112639710D01*
X222444670Y-112634356D01*
X222414252Y-112607335D01*
X222401870Y-112595705D01*
X222396572Y-112591629D01*
X222391584Y-112587197D01*
X222377855Y-112577226D01*
X222345595Y-112552401D01*
X222339576Y-112549422D01*
X222080247Y-112361066D01*
X222075632Y-112356340D01*
X222041984Y-112333275D01*
X222028152Y-112323228D01*
X222022480Y-112319905D01*
X222017064Y-112316192D01*
X222002103Y-112307965D01*
X221966886Y-112287331D01*
X221960641Y-112285166D01*
X221679898Y-112130794D01*
X221674649Y-112126623D01*
X221638441Y-112107998D01*
X221623558Y-112099814D01*
X221617433Y-112097191D01*
X221611505Y-112094142D01*
X221595701Y-112087886D01*
X221558283Y-112071864D01*
X221551727Y-112070479D01*
X221253701Y-111952505D01*
X221248018Y-111949053D01*
X221209721Y-111935095D01*
X221193871Y-111928821D01*
X221187512Y-111927001D01*
X221181303Y-111924738D01*
X221164809Y-111920503D01*
X221125604Y-111909282D01*
X221118973Y-111908734D01*
X220873090Y-111845602D01*
X220863490Y-111748132D01*
X220819192Y-111602101D01*
X220747256Y-111467517D01*
X220650446Y-111349554D01*
X220532483Y-111252744D01*
X220397899Y-111180808D01*
X220296339Y-111150000D01*
X220397899Y-111119192D01*
X220532483Y-111047256D01*
X220650446Y-110950446D01*
X220747256Y-110832483D01*
X220819192Y-110697899D01*
X220863490Y-110551868D01*
X220878448Y-110400000D01*
X220863490Y-110248132D01*
X220826048Y-110124701D01*
X231196453Y-110124701D01*
X231221299Y-110127148D01*
X231246145Y-110124701D01*
X231246153Y-110124701D01*
X231320492Y-110117379D01*
X231415874Y-110088446D01*
X231503778Y-110041460D01*
X231580826Y-109978228D01*
X231596675Y-109958916D01*
X233800220Y-107755372D01*
X233819527Y-107739527D01*
X233882759Y-107662479D01*
X233929745Y-107574575D01*
X233958678Y-107479193D01*
X233966000Y-107404854D01*
X233966000Y-107404847D01*
X233968447Y-107380001D01*
X233966000Y-107355155D01*
X233966000Y-103525192D01*
X234114149Y-103463826D01*
X234340336Y-103312693D01*
X234532693Y-103120336D01*
X234683826Y-102894149D01*
X234787929Y-102642823D01*
X234841000Y-102376017D01*
X234841000Y-102103983D01*
X234787929Y-101837177D01*
X234683826Y-101585851D01*
X234532693Y-101359664D01*
X234340336Y-101167307D01*
X234114149Y-101016174D01*
X233966991Y-100955219D01*
X233966000Y-100945153D01*
X233966000Y-100945146D01*
X233958678Y-100870807D01*
X233955097Y-100859000D01*
X233929745Y-100775425D01*
X233928285Y-100772693D01*
X233882759Y-100687521D01*
X233819527Y-100610473D01*
X233800220Y-100594628D01*
X233456564Y-100250972D01*
X233517929Y-100102823D01*
X233571000Y-99836017D01*
X233571000Y-99563983D01*
X233517929Y-99297177D01*
X233413826Y-99045851D01*
X233262693Y-98819664D01*
X233070336Y-98627307D01*
X232844149Y-98476174D01*
X232592823Y-98372071D01*
X232326017Y-98319000D01*
X232053983Y-98319000D01*
X231787177Y-98372071D01*
X231535851Y-98476174D01*
X231309664Y-98627307D01*
X231117307Y-98819664D01*
X230966174Y-99045851D01*
X230862071Y-99297177D01*
X230809000Y-99563983D01*
X230809000Y-99836017D01*
X230862071Y-100102823D01*
X230966174Y-100354149D01*
X231117307Y-100580336D01*
X231309664Y-100772693D01*
X231535851Y-100923826D01*
X231787177Y-101027929D01*
X232053983Y-101081000D01*
X232326017Y-101081000D01*
X232592823Y-101027929D01*
X232740972Y-100966564D01*
X232796698Y-101022290D01*
X232579664Y-101167307D01*
X232387307Y-101359664D01*
X232236174Y-101585851D01*
X232132071Y-101837177D01*
X232079000Y-102103983D01*
X232079000Y-102376017D01*
X232132071Y-102642823D01*
X232236174Y-102894149D01*
X232387307Y-103120336D01*
X232579664Y-103312693D01*
X232805851Y-103463826D01*
X232954001Y-103525192D01*
X232954000Y-107170408D01*
X231011708Y-109112701D01*
X220845037Y-109112701D01*
X220863490Y-109051868D01*
X220878448Y-108900000D01*
X220863490Y-108748132D01*
X220819192Y-108602101D01*
X220747256Y-108467517D01*
X220650446Y-108349554D01*
X220532483Y-108252744D01*
X220397899Y-108180808D01*
X220296339Y-108150000D01*
X220397899Y-108119192D01*
X220532483Y-108047256D01*
X220650446Y-107950446D01*
X220747256Y-107832483D01*
X220819192Y-107697899D01*
X220863490Y-107551868D01*
X220878448Y-107400000D01*
X220863490Y-107248132D01*
X220819192Y-107102101D01*
X220747256Y-106967517D01*
X220650446Y-106849554D01*
X220532483Y-106752744D01*
X220397899Y-106680808D01*
X220251868Y-106636510D01*
X220138053Y-106625300D01*
X220061947Y-106625300D01*
X219948132Y-106636510D01*
X219802101Y-106680808D01*
X219667517Y-106752744D01*
X219549554Y-106849554D01*
X219452744Y-106967517D01*
X219380808Y-107102101D01*
X219336510Y-107248132D01*
X219321552Y-107400000D01*
X219336510Y-107551868D01*
X219380808Y-107697899D01*
X219452744Y-107832483D01*
X219549554Y-107950446D01*
X219667517Y-108047256D01*
X219802101Y-108119192D01*
X219903661Y-108150000D01*
X219802101Y-108180808D01*
X219667517Y-108252744D01*
X219549554Y-108349554D01*
X219452744Y-108467517D01*
X219380808Y-108602101D01*
X219336510Y-108748132D01*
X219321552Y-108900000D01*
X219336510Y-109051868D01*
X219354963Y-109112701D01*
X217896144Y-109112701D01*
X217871298Y-109110254D01*
X217846452Y-109112701D01*
X217846445Y-109112701D01*
X217772106Y-109120023D01*
X217676724Y-109148956D01*
X217588820Y-109195942D01*
X217511772Y-109259174D01*
X217495928Y-109278480D01*
X213399781Y-113374628D01*
X213380474Y-113390473D01*
X213317242Y-113467521D01*
X213297859Y-113503784D01*
X213270255Y-113555426D01*
X213251530Y-113617157D01*
X212890000Y-113617157D01*
X212815311Y-113624513D01*
X212743492Y-113646299D01*
X212677304Y-113681678D01*
X212619289Y-113729289D01*
X212571678Y-113787304D01*
X212536299Y-113853492D01*
X212514513Y-113925311D01*
X212507157Y-114000000D01*
X212507157Y-115700000D01*
X212514513Y-115774689D01*
X212536299Y-115846508D01*
X212571678Y-115912696D01*
X212619289Y-115970711D01*
X212642354Y-115989640D01*
X211679271Y-115989640D01*
X211887216Y-115878491D01*
X212074660Y-115724660D01*
X212228491Y-115537216D01*
X212342798Y-115323363D01*
X212413188Y-115091318D01*
X212436956Y-114850000D01*
X212413188Y-114608682D01*
X212342798Y-114376637D01*
X212228491Y-114162784D01*
X212074660Y-113975340D01*
X211887216Y-113821509D01*
X211673363Y-113707202D01*
X211441318Y-113636812D01*
X211260472Y-113619000D01*
X211139528Y-113619000D01*
X210958682Y-113636812D01*
X210726637Y-113707202D01*
X210512784Y-113821509D01*
X210325340Y-113975340D01*
X210171509Y-114162784D01*
X210057202Y-114376637D01*
X209986812Y-114608682D01*
X209963044Y-114850000D01*
X209986812Y-115091318D01*
X210057202Y-115323363D01*
X210171509Y-115537216D01*
X210325340Y-115724660D01*
X210512784Y-115878491D01*
X210720729Y-115989640D01*
X209139271Y-115989640D01*
X209347216Y-115878491D01*
X209534660Y-115724660D01*
X209688491Y-115537216D01*
X209802798Y-115323363D01*
X209873188Y-115091318D01*
X209896956Y-114850000D01*
X209873188Y-114608682D01*
X209813541Y-114412051D01*
X214750220Y-109475372D01*
X214769527Y-109459527D01*
X214832759Y-109382479D01*
X214879745Y-109294575D01*
X214908678Y-109199193D01*
X214916000Y-109124854D01*
X214916000Y-109124846D01*
X214918447Y-109100000D01*
X214916000Y-109075154D01*
X214916000Y-105895192D01*
X215064149Y-105833826D01*
X215290336Y-105682693D01*
X215482693Y-105490336D01*
X215633826Y-105264149D01*
X215737929Y-105012823D01*
X215791000Y-104746017D01*
X215791000Y-104473983D01*
X215737929Y-104207177D01*
X215633826Y-103955851D01*
X215482693Y-103729664D01*
X215290336Y-103537307D01*
X215064149Y-103386174D01*
X214916991Y-103325219D01*
X214916000Y-103315153D01*
X214916000Y-103315146D01*
X214908678Y-103240807D01*
X214905097Y-103229000D01*
X214879745Y-103145425D01*
X214878285Y-103142693D01*
X214832759Y-103057521D01*
X214769527Y-102980473D01*
X214750220Y-102964628D01*
X214406564Y-102620972D01*
X214467929Y-102472823D01*
X214521000Y-102206017D01*
X214521000Y-101933983D01*
X214467929Y-101667177D01*
X214363826Y-101415851D01*
X214212693Y-101189664D01*
X214020336Y-100997307D01*
X213794149Y-100846174D01*
X213542823Y-100742071D01*
X213276017Y-100689000D01*
X213003983Y-100689000D01*
X212737177Y-100742071D01*
X212485851Y-100846174D01*
X212259664Y-100997307D01*
X212067307Y-101189664D01*
X211916174Y-101415851D01*
X211812071Y-101667177D01*
X211759000Y-101933983D01*
X211759000Y-102206017D01*
X211812071Y-102472823D01*
X211916174Y-102724149D01*
X212067307Y-102950336D01*
X212259664Y-103142693D01*
X212485851Y-103293826D01*
X212737177Y-103397929D01*
X213003983Y-103451000D01*
X213276017Y-103451000D01*
X213542823Y-103397929D01*
X213690972Y-103336564D01*
X213746698Y-103392290D01*
X213529664Y-103537307D01*
X213337307Y-103729664D01*
X213186174Y-103955851D01*
X213082071Y-104207177D01*
X213029000Y-104473983D01*
X213029000Y-104746017D01*
X213082071Y-105012823D01*
X213186174Y-105264149D01*
X213337307Y-105490336D01*
X213529664Y-105682693D01*
X213755851Y-105833826D01*
X213904000Y-105895192D01*
X213904001Y-108890407D01*
X209097949Y-113696459D01*
X208901318Y-113636812D01*
X208720472Y-113619000D01*
X208599528Y-113619000D01*
X208418682Y-113636812D01*
X208186637Y-113707202D01*
X207972784Y-113821509D01*
X207785340Y-113975340D01*
X207631509Y-114162784D01*
X207518983Y-114373305D01*
X207464157Y-114218748D01*
X207315178Y-113968645D01*
X207120269Y-113752412D01*
X206886920Y-113578359D01*
X206624099Y-113453175D01*
X206476890Y-113408524D01*
X206247000Y-113529845D01*
X206247000Y-114723000D01*
X206267000Y-114723000D01*
X206267000Y-114977000D01*
X206247000Y-114977000D01*
X206247000Y-114997000D01*
X205993000Y-114997000D01*
X205993000Y-114977000D01*
X204799186Y-114977000D01*
X204678519Y-115206891D01*
X204775843Y-115481252D01*
X204924822Y-115731355D01*
X205119731Y-115947588D01*
X205176109Y-115989640D01*
X204675215Y-115989640D01*
X204586385Y-115978423D01*
X204499659Y-115956155D01*
X204416419Y-115923203D01*
X204337929Y-115880042D01*
X204265476Y-115827418D01*
X204200228Y-115766137D01*
X204143137Y-115697128D01*
X204095165Y-115621534D01*
X204057034Y-115540490D01*
X204029362Y-115455346D01*
X204012590Y-115367387D01*
X204006010Y-115262899D01*
X204006010Y-114493109D01*
X204678519Y-114493109D01*
X204799186Y-114723000D01*
X205993000Y-114723000D01*
X205993000Y-113529845D01*
X205763110Y-113408524D01*
X205615901Y-113453175D01*
X205353080Y-113578359D01*
X205119731Y-113752412D01*
X204924822Y-113968645D01*
X204775843Y-114218748D01*
X204678519Y-114493109D01*
X204006010Y-114493109D01*
X204006010Y-106916093D01*
X208225100Y-106916093D01*
X208225100Y-107383907D01*
X208316366Y-107842733D01*
X208495391Y-108274937D01*
X208755295Y-108663910D01*
X209086090Y-108994705D01*
X209475063Y-109254609D01*
X209907267Y-109433634D01*
X210366093Y-109524900D01*
X210833907Y-109524900D01*
X211292733Y-109433634D01*
X211724937Y-109254609D01*
X212113910Y-108994705D01*
X212444705Y-108663910D01*
X212704609Y-108274937D01*
X212883634Y-107842733D01*
X212974900Y-107383907D01*
X212974900Y-106916093D01*
X212883634Y-106457267D01*
X212704609Y-106025063D01*
X212444705Y-105636090D01*
X212113910Y-105305295D01*
X211724937Y-105045391D01*
X211292733Y-104866366D01*
X210833907Y-104775100D01*
X210366093Y-104775100D01*
X209907267Y-104866366D01*
X209475063Y-105045391D01*
X209086090Y-105305295D01*
X208755295Y-105636090D01*
X208495391Y-106025063D01*
X208316366Y-106457267D01*
X208225100Y-106916093D01*
X204006010Y-106916093D01*
X204006010Y-98924618D01*
X204012590Y-98820100D01*
X204029359Y-98732165D01*
X204057033Y-98647018D01*
X204095164Y-98565972D01*
X204143115Y-98490415D01*
X204200251Y-98421370D01*
X204265540Y-98360014D01*
X204337932Y-98307428D01*
X204416351Y-98264312D01*
X204499573Y-98231391D01*
X204586352Y-98209121D01*
X204675215Y-98197900D01*
X205654707Y-98197900D01*
X205601804Y-98226178D01*
X205543789Y-98273789D01*
X205496178Y-98331804D01*
X205460799Y-98397992D01*
X205439013Y-98469811D01*
X205431657Y-98544500D01*
X205431657Y-100195500D01*
X205439013Y-100270189D01*
X205460799Y-100342008D01*
X205496178Y-100408196D01*
X205543789Y-100466211D01*
X205601804Y-100513822D01*
X205667992Y-100549201D01*
X205739811Y-100570987D01*
X205814500Y-100578343D01*
X206134001Y-100578343D01*
X206134001Y-100625144D01*
X206131553Y-100650000D01*
X206141322Y-100749192D01*
X206170255Y-100844574D01*
X206177966Y-100859000D01*
X206217242Y-100932479D01*
X206280474Y-101009527D01*
X206299780Y-101025372D01*
X206793437Y-101519028D01*
X206732071Y-101667177D01*
X206679000Y-101933983D01*
X206679000Y-102206017D01*
X206732071Y-102472823D01*
X206793437Y-102620972D01*
X206449785Y-102964624D01*
X206430473Y-102980473D01*
X206367241Y-103057521D01*
X206320255Y-103145426D01*
X206291322Y-103240808D01*
X206284000Y-103315147D01*
X206284000Y-103315154D01*
X206283009Y-103325219D01*
X206135851Y-103386174D01*
X205909664Y-103537307D01*
X205717307Y-103729664D01*
X205566174Y-103955851D01*
X205462071Y-104207177D01*
X205409000Y-104473983D01*
X205409000Y-104746017D01*
X205462071Y-105012823D01*
X205566174Y-105264149D01*
X205717307Y-105490336D01*
X205909664Y-105682693D01*
X206135851Y-105833826D01*
X206387177Y-105937929D01*
X206653983Y-105991000D01*
X206926017Y-105991000D01*
X207192823Y-105937929D01*
X207444149Y-105833826D01*
X207670336Y-105682693D01*
X207862693Y-105490336D01*
X208013826Y-105264149D01*
X208117929Y-105012823D01*
X208171000Y-104746017D01*
X208171000Y-104473983D01*
X208117929Y-104207177D01*
X208013826Y-103955851D01*
X207862693Y-103729664D01*
X207670336Y-103537307D01*
X207453302Y-103392290D01*
X207509028Y-103336563D01*
X207657177Y-103397929D01*
X207923983Y-103451000D01*
X208196017Y-103451000D01*
X208462823Y-103397929D01*
X208714149Y-103293826D01*
X208940336Y-103142693D01*
X209132693Y-102950336D01*
X209283826Y-102724149D01*
X209387929Y-102472823D01*
X209441000Y-102206017D01*
X209441000Y-101933983D01*
X209387929Y-101667177D01*
X209283826Y-101415851D01*
X209132693Y-101189664D01*
X208940336Y-100997307D01*
X208714149Y-100846174D01*
X208462823Y-100742071D01*
X208196017Y-100689000D01*
X207923983Y-100689000D01*
X207657177Y-100742071D01*
X207509028Y-100803437D01*
X207283934Y-100578343D01*
X207465500Y-100578343D01*
X207540189Y-100570987D01*
X207612008Y-100549201D01*
X207678196Y-100513822D01*
X207736211Y-100466211D01*
X207783822Y-100408196D01*
X207819201Y-100342008D01*
X207840987Y-100270189D01*
X207848343Y-100195500D01*
X207848343Y-98544500D01*
X207840987Y-98469811D01*
X207819201Y-98397992D01*
X207783822Y-98331804D01*
X207736211Y-98273789D01*
X207678196Y-98226178D01*
X207625293Y-98197900D01*
X213968229Y-98197900D01*
X213908077Y-98209865D01*
X213688508Y-98300813D01*
X213490901Y-98432850D01*
X213322850Y-98600901D01*
X213190813Y-98798508D01*
X213099865Y-99018077D01*
X213053500Y-99251170D01*
X213053500Y-99488830D01*
X213099865Y-99721923D01*
X213190813Y-99941492D01*
X213322850Y-100139099D01*
X213490901Y-100307150D01*
X213688508Y-100439187D01*
X213908077Y-100530135D01*
X214141170Y-100576500D01*
X214378830Y-100576500D01*
X214611923Y-100530135D01*
X214831492Y-100439187D01*
X215029099Y-100307150D01*
X215197150Y-100139099D01*
X215329187Y-99941492D01*
X215420135Y-99721923D01*
X215466500Y-99488830D01*
X215466500Y-99251170D01*
X215420135Y-99018077D01*
X215329187Y-98798508D01*
X215197150Y-98600901D01*
X215029099Y-98432850D01*
X214831492Y-98300813D01*
X214611923Y-98209865D01*
X214551771Y-98197900D01*
X216851694Y-98197900D01*
X216857105Y-98206963D01*
X216861515Y-98211845D01*
X217033162Y-98482350D01*
X217035740Y-98488506D01*
X217058507Y-98522293D01*
X217067623Y-98536659D01*
X217071709Y-98541884D01*
X217075420Y-98547392D01*
X217086275Y-98560514D01*
X217111361Y-98592597D01*
X217116418Y-98596951D01*
X217320720Y-98843915D01*
X217324037Y-98849678D01*
X217350893Y-98880388D01*
X217361740Y-98893500D01*
X217366423Y-98898146D01*
X217370781Y-98903130D01*
X217383221Y-98914814D01*
X217412146Y-98943514D01*
X217417686Y-98947185D01*
X217651245Y-99166549D01*
X217655282Y-99171882D01*
X217685739Y-99198946D01*
X217698124Y-99210579D01*
X217703389Y-99214631D01*
X217708361Y-99219049D01*
X217722119Y-99229045D01*
X217754397Y-99253885D01*
X217760391Y-99256852D01*
X218019656Y-99445219D01*
X218024320Y-99449994D01*
X218057914Y-99473015D01*
X218071688Y-99483023D01*
X218077419Y-99486382D01*
X218082894Y-99490134D01*
X218097794Y-99498324D01*
X218132948Y-99518929D01*
X218139260Y-99521118D01*
X218420129Y-99675508D01*
X218425342Y-99679651D01*
X218461552Y-99698278D01*
X218476502Y-99706496D01*
X218482605Y-99709108D01*
X218488485Y-99712133D01*
X218504294Y-99718391D01*
X218541782Y-99734437D01*
X218548303Y-99735814D01*
X218846171Y-99853734D01*
X218851835Y-99857175D01*
X218890143Y-99871141D01*
X218906018Y-99877426D01*
X218912359Y-99879241D01*
X218918547Y-99881497D01*
X218935062Y-99885739D01*
X218974285Y-99896966D01*
X218980892Y-99897512D01*
X219291370Y-99977265D01*
X219297515Y-99980009D01*
X219330164Y-99987436D01*
X219336510Y-100051868D01*
X219380808Y-100197899D01*
X219452744Y-100332483D01*
X219549554Y-100450446D01*
X219667517Y-100547256D01*
X219766195Y-100600000D01*
X219667517Y-100652744D01*
X219549554Y-100749554D01*
X219452744Y-100867517D01*
X219380808Y-101002101D01*
X219336510Y-101148132D01*
X219321552Y-101300000D01*
X219336510Y-101451868D01*
X219380808Y-101597899D01*
X219452744Y-101732483D01*
X219549554Y-101850446D01*
X219667517Y-101947256D01*
X219802101Y-102019192D01*
X219903661Y-102050000D01*
X219802101Y-102080808D01*
X219667517Y-102152744D01*
X219549554Y-102249554D01*
X219452744Y-102367517D01*
X219380808Y-102502101D01*
X219336510Y-102648132D01*
X219321552Y-102800000D01*
X219336510Y-102951868D01*
X219380808Y-103097899D01*
X219452744Y-103232483D01*
X219549554Y-103350446D01*
X219667517Y-103447256D01*
X219802101Y-103519192D01*
X219903661Y-103550000D01*
X219802101Y-103580808D01*
X219667517Y-103652744D01*
X219549554Y-103749554D01*
X219452744Y-103867517D01*
X219380808Y-104002101D01*
X219336510Y-104148132D01*
X219321552Y-104300000D01*
X219336510Y-104451868D01*
X219380808Y-104597899D01*
X219452744Y-104732483D01*
X219549554Y-104850446D01*
X219667517Y-104947256D01*
X219802101Y-105019192D01*
X219903661Y-105050000D01*
X219802101Y-105080808D01*
X219667517Y-105152744D01*
X219549554Y-105249554D01*
X219452744Y-105367517D01*
X219380808Y-105502101D01*
X219336510Y-105648132D01*
X219321552Y-105800000D01*
X219336510Y-105951868D01*
X219380808Y-106097899D01*
X219452744Y-106232483D01*
X219549554Y-106350446D01*
X219667517Y-106447256D01*
X219802101Y-106519192D01*
X219948132Y-106563490D01*
X220061947Y-106574700D01*
X220138053Y-106574700D01*
X220251868Y-106563490D01*
X220397899Y-106519192D01*
X220532483Y-106447256D01*
X220650446Y-106350446D01*
X220747256Y-106232483D01*
X220819192Y-106097899D01*
X220863490Y-105951868D01*
X220878448Y-105800000D01*
X220863490Y-105648132D01*
X220819192Y-105502101D01*
X220747256Y-105367517D01*
X220650446Y-105249554D01*
X220532483Y-105152744D01*
X220397899Y-105080808D01*
X220296339Y-105050000D01*
X220397899Y-105019192D01*
X220532483Y-104947256D01*
X220650446Y-104850446D01*
X220747256Y-104732483D01*
X220819192Y-104597899D01*
X220834907Y-104546093D01*
X227275100Y-104546093D01*
X227275100Y-105013907D01*
X227366366Y-105472733D01*
X227545391Y-105904937D01*
X227805295Y-106293910D01*
X228136090Y-106624705D01*
X228525063Y-106884609D01*
X228957267Y-107063634D01*
X229416093Y-107154900D01*
X229883907Y-107154900D01*
X230342733Y-107063634D01*
X230774937Y-106884609D01*
X231163910Y-106624705D01*
X231494705Y-106293910D01*
X231754609Y-105904937D01*
X231933634Y-105472733D01*
X232024900Y-105013907D01*
X232024900Y-104546093D01*
X231933634Y-104087267D01*
X231754609Y-103655063D01*
X231494705Y-103266090D01*
X231163910Y-102935295D01*
X230774937Y-102675391D01*
X230342733Y-102496366D01*
X229883907Y-102405100D01*
X229416093Y-102405100D01*
X228957267Y-102496366D01*
X228525063Y-102675391D01*
X228136090Y-102935295D01*
X227805295Y-103266090D01*
X227545391Y-103655063D01*
X227366366Y-104087267D01*
X227275100Y-104546093D01*
X220834907Y-104546093D01*
X220863490Y-104451868D01*
X220878448Y-104300000D01*
X220863490Y-104148132D01*
X220819192Y-104002101D01*
X220747256Y-103867517D01*
X220650446Y-103749554D01*
X220532483Y-103652744D01*
X220397899Y-103580808D01*
X220296339Y-103550000D01*
X220397899Y-103519192D01*
X220532483Y-103447256D01*
X220650446Y-103350446D01*
X220747256Y-103232483D01*
X220819192Y-103097899D01*
X220863490Y-102951868D01*
X220878448Y-102800000D01*
X220863490Y-102648132D01*
X220819192Y-102502101D01*
X220747256Y-102367517D01*
X220650446Y-102249554D01*
X220532483Y-102152744D01*
X220397899Y-102080808D01*
X220296339Y-102050000D01*
X220397899Y-102019192D01*
X220532483Y-101947256D01*
X220650446Y-101850446D01*
X220747256Y-101732483D01*
X220819192Y-101597899D01*
X220863490Y-101451868D01*
X220878448Y-101300000D01*
X220863490Y-101148132D01*
X220819192Y-101002101D01*
X220747256Y-100867517D01*
X220650446Y-100749554D01*
X220532483Y-100652744D01*
X220433805Y-100600000D01*
X220532483Y-100547256D01*
X220650446Y-100450446D01*
X220747256Y-100332483D01*
X220819192Y-100197899D01*
X220863490Y-100051868D01*
X220872453Y-99960863D01*
X221119000Y-99897516D01*
X221125571Y-99896974D01*
X221164820Y-99885743D01*
X221181382Y-99881488D01*
X221187541Y-99879242D01*
X221193839Y-99877440D01*
X221209730Y-99871151D01*
X221248092Y-99857162D01*
X221253726Y-99853738D01*
X221551708Y-99735806D01*
X221558273Y-99734419D01*
X221595661Y-99718411D01*
X221611475Y-99712152D01*
X221617422Y-99709093D01*
X221623549Y-99706470D01*
X221638407Y-99698300D01*
X221674621Y-99679675D01*
X221679879Y-99675497D01*
X221960637Y-99521125D01*
X221966886Y-99518959D01*
X222002087Y-99498334D01*
X222017055Y-99490104D01*
X222022480Y-99486385D01*
X222028152Y-99483062D01*
X222041971Y-99473025D01*
X222075624Y-99449957D01*
X222080244Y-99445227D01*
X222339578Y-99256866D01*
X222345602Y-99253885D01*
X222377851Y-99229068D01*
X222391584Y-99219093D01*
X222396582Y-99214653D01*
X222401876Y-99210579D01*
X222414238Y-99198968D01*
X222444670Y-99171934D01*
X222448729Y-99166573D01*
X222682349Y-98947151D01*
X222687926Y-98943455D01*
X222716819Y-98914776D01*
X222729219Y-98903130D01*
X222733602Y-98898118D01*
X222738323Y-98893432D01*
X222749153Y-98880335D01*
X222775963Y-98849678D01*
X222779301Y-98843878D01*
X222983488Y-98596957D01*
X222988469Y-98592670D01*
X223013608Y-98560533D01*
X223024535Y-98547319D01*
X223028195Y-98541885D01*
X223032219Y-98536741D01*
X223041383Y-98522306D01*
X223064204Y-98488425D01*
X223066744Y-98482357D01*
X223238488Y-98211825D01*
X223242974Y-98206856D01*
X223263813Y-98171932D01*
X223272944Y-98157550D01*
X223275954Y-98151586D01*
X223279360Y-98145879D01*
X223286579Y-98130538D01*
X223304942Y-98094160D01*
X223306738Y-98087700D01*
X223443186Y-97797739D01*
X223446992Y-97792279D01*
X223463312Y-97754971D01*
X223470580Y-97739526D01*
X223472804Y-97733272D01*
X223475450Y-97727223D01*
X223480701Y-97711064D01*
X223494371Y-97672622D01*
X223495336Y-97666029D01*
X223594375Y-97361258D01*
X223597471Y-97355355D01*
X223608989Y-97316288D01*
X223614254Y-97300085D01*
X223615676Y-97293605D01*
X223617551Y-97287245D01*
X223620742Y-97270520D01*
X223629474Y-97230727D01*
X223629605Y-97224061D01*
X223689656Y-96909293D01*
X223691994Y-96903030D01*
X223698517Y-96862846D01*
X223701706Y-96846131D01*
X223702306Y-96839504D01*
X223703372Y-96832939D01*
X223704438Y-96815972D01*
X223708112Y-96775413D01*
X223707404Y-96768760D01*
X223727498Y-96448923D01*
X223729020Y-96442474D01*
X223730464Y-96401710D01*
X223731534Y-96384681D01*
X223731301Y-96378097D01*
X223731534Y-96371511D01*
X223730464Y-96354476D01*
X223729019Y-96313718D01*
X223727497Y-96307269D01*
X223722925Y-96234500D01*
X224451657Y-96234500D01*
X224451657Y-97885500D01*
X224459013Y-97960189D01*
X224480799Y-98032008D01*
X224516178Y-98098196D01*
X224563789Y-98156211D01*
X224621804Y-98203822D01*
X224687992Y-98239201D01*
X224759811Y-98260987D01*
X224834500Y-98268343D01*
X225153360Y-98268343D01*
X225161322Y-98349192D01*
X225190255Y-98444574D01*
X225190256Y-98444575D01*
X225237242Y-98532479D01*
X225300474Y-98609527D01*
X225319780Y-98625372D01*
X225843437Y-99149028D01*
X225782071Y-99297177D01*
X225729000Y-99563983D01*
X225729000Y-99836017D01*
X225782071Y-100102823D01*
X225843437Y-100250972D01*
X225499785Y-100594624D01*
X225480473Y-100610473D01*
X225417241Y-100687521D01*
X225370255Y-100775426D01*
X225341322Y-100870808D01*
X225334000Y-100945147D01*
X225334000Y-100945154D01*
X225333009Y-100955219D01*
X225185851Y-101016174D01*
X224959664Y-101167307D01*
X224767307Y-101359664D01*
X224616174Y-101585851D01*
X224512071Y-101837177D01*
X224459000Y-102103983D01*
X224459000Y-102376017D01*
X224512071Y-102642823D01*
X224616174Y-102894149D01*
X224767307Y-103120336D01*
X224959664Y-103312693D01*
X225185851Y-103463826D01*
X225437177Y-103567929D01*
X225703983Y-103621000D01*
X225976017Y-103621000D01*
X226242823Y-103567929D01*
X226494149Y-103463826D01*
X226720336Y-103312693D01*
X226912693Y-103120336D01*
X227063826Y-102894149D01*
X227167929Y-102642823D01*
X227221000Y-102376017D01*
X227221000Y-102103983D01*
X227167929Y-101837177D01*
X227063826Y-101585851D01*
X226912693Y-101359664D01*
X226720336Y-101167307D01*
X226503302Y-101022290D01*
X226559028Y-100966563D01*
X226707177Y-101027929D01*
X226973983Y-101081000D01*
X227246017Y-101081000D01*
X227512823Y-101027929D01*
X227764149Y-100923826D01*
X227990336Y-100772693D01*
X228182693Y-100580336D01*
X228333826Y-100354149D01*
X228437929Y-100102823D01*
X228491000Y-99836017D01*
X228491000Y-99563983D01*
X228437929Y-99297177D01*
X228333826Y-99045851D01*
X228182693Y-98819664D01*
X227990336Y-98627307D01*
X227764149Y-98476174D01*
X227512823Y-98372071D01*
X227246017Y-98319000D01*
X226973983Y-98319000D01*
X226707177Y-98372071D01*
X226559028Y-98433437D01*
X226393934Y-98268343D01*
X226485500Y-98268343D01*
X226560189Y-98260987D01*
X226632008Y-98239201D01*
X226698196Y-98203822D01*
X226756211Y-98156211D01*
X226803822Y-98098196D01*
X226839201Y-98032008D01*
X226860987Y-97960189D01*
X226868343Y-97885500D01*
X226868343Y-96941170D01*
X232073500Y-96941170D01*
X232073500Y-97178830D01*
X232119865Y-97411923D01*
X232210813Y-97631492D01*
X232342850Y-97829099D01*
X232510901Y-97997150D01*
X232708508Y-98129187D01*
X232928077Y-98220135D01*
X233161170Y-98266500D01*
X233398830Y-98266500D01*
X233631923Y-98220135D01*
X233851492Y-98129187D01*
X234049099Y-97997150D01*
X234217150Y-97829099D01*
X234349187Y-97631492D01*
X234440135Y-97411923D01*
X234486500Y-97178830D01*
X234486500Y-96941170D01*
X234440135Y-96708077D01*
X234349187Y-96488508D01*
X234217150Y-96290901D01*
X234049099Y-96122850D01*
X233851492Y-95990813D01*
X233631923Y-95899865D01*
X233398830Y-95853500D01*
X233161170Y-95853500D01*
X232928077Y-95899865D01*
X232708508Y-95990813D01*
X232510901Y-96122850D01*
X232342850Y-96290901D01*
X232210813Y-96488508D01*
X232119865Y-96708077D01*
X232073500Y-96941170D01*
X226868343Y-96941170D01*
X226868343Y-96234500D01*
X226860987Y-96159811D01*
X226839201Y-96087992D01*
X226803822Y-96021804D01*
X226756211Y-95963789D01*
X226698196Y-95916178D01*
X226632008Y-95880799D01*
X226560189Y-95859013D01*
X226485500Y-95851657D01*
X224834500Y-95851657D01*
X224759811Y-95859013D01*
X224687992Y-95880799D01*
X224621804Y-95916178D01*
X224563789Y-95963789D01*
X224516178Y-96021804D01*
X224480799Y-96087992D01*
X224459013Y-96159811D01*
X224451657Y-96234500D01*
X223722925Y-96234500D01*
X223707405Y-95987543D01*
X223708111Y-95980910D01*
X223704439Y-95940347D01*
X223703371Y-95923353D01*
X223702308Y-95916802D01*
X223701709Y-95910191D01*
X223698518Y-95893461D01*
X223691992Y-95853263D01*
X223689659Y-95847014D01*
X223684831Y-95821702D01*
X223725238Y-95816600D01*
X235424761Y-95816600D01*
X235513656Y-95827824D01*
M02*
