M48
INCH
T1C0.0472
T2C0.0591
T3C0.1570
T4C0.2559
%
G90
G05
T1
X4.315Y-2.6378
T2
X6.4606Y-2.3701
X6.4606Y-2.6457
X6.6417Y-2.3701
X6.6417Y-2.6457
T3
X6.9201Y-4.2205
X6.9201Y-2.7193
X3.9209Y-3.5598
X6.1701Y-3.372
X3.1701Y-4.3098
X3.9209Y-4.3098
X5.4201Y-4.0323
X6.1701Y-2.6228
X3.1705Y-3.5602
X5.4201Y-3.2827
X3.1705Y-2.8102
X3.9209Y-2.8098
X4.6701Y-4.122
X6.1701Y-4.1224
X4.6701Y-2.6228
X4.6701Y-3.372
X5.4201Y-2.5315
X6.9201Y-3.4693
T4
G00X3.5433Y-3.937
M15
G01X3.5433Y-3.937
M16
G05
G00X6.5433Y-3.0472
M15
G01X6.5433Y-3.0472
M16
G05
G00X3.5433Y-3.1811
M15
G01X3.5433Y-3.1811
M16
G05
G00X6.5433Y-3.7953
M15
G01X6.5433Y-3.7953
M16
G05
T0
M30
