  0
SECTION
  2
BLOCKS
  0
ENDSEC
  0
SECTION
  2
ENTITIES
  0
LINE
  8
0
 10
39.2874
 20
0.0177155
 11
39.409
 21
0.0489502
  0
LINE
  8
0
 10
39.409
 20
0.0489502
 11
39.5258
 21
0.0951843
  0
LINE
  8
0
 10
39.5258
 20
0.0951843
 11
39.6358
 21
0.155685
  0
LINE
  8
0
 10
39.6358
 20
0.155685
 11
39.7374
 21
0.229492
  0
LINE
  8
0
 10
39.7374
 20
0.229492
 11
39.8289
 21
0.31546
  0
LINE
  8
0
 10
39.8289
 20
0.31546
 11
39.909
 21
0.412216
  0
LINE
  8
0
 10
39.909
 20
0.412216
 11
39.9763
 21
0.51825
  0
LINE
  8
0
 10
39.9763
 20
0.51825
 11
40.0298
 21
0.631882
  0
LINE
  8
0
 10
40.0298
 20
0.631882
 11
40.0686
 21
0.751312
  0
LINE
  8
0
 10
40.0686
 20
0.751312
 11
40.0921
 21
0.87468
  0
LINE
  8
0
 10
40.0921
 20
0.87468
 11
40.1
 21
1
  0
LINE
  8
0
 10
40.1
 20
1
 11
40.1
 21
4.76448
  0
LINE
  8
0
 10
40.1
 20
4.76448
 11
58.2128
 21
4.76448
  0
LINE
  8
0
 10
58.2128
 20
4.76448
 11
58.3374
 21
4.78021
  0
LINE
  8
0
 10
58.3374
 20
4.78021
 11
58.459
 21
4.81145
  0
LINE
  8
0
 10
58.459
 20
4.81145
 11
58.5758
 21
4.85768
  0
LINE
  8
0
 10
58.5758
 20
4.85768
 11
58.6858
 21
4.91818
  0
LINE
  8
0
 10
58.6858
 20
4.91818
 11
58.7874
 21
4.99199
  0
LINE
  8
0
 10
58.7874
 20
4.99199
 11
58.879
 21
5.07796
  0
LINE
  8
0
 10
58.879
 20
5.07796
 11
58.959
 21
5.17471
  0
LINE
  8
0
 10
58.959
 20
5.17471
 11
59.0263
 21
5.28075
  0
LINE
  8
0
 10
59.0263
 20
5.28075
 11
59.0798
 21
5.39438
  0
LINE
  8
0
 10
59.0798
 20
5.39438
 11
59.1186
 21
5.51381
  0
LINE
  8
0
 10
59.1186
 20
5.51381
 11
59.1421
 21
5.63718
  0
LINE
  8
0
 10
59.1421
 20
5.63718
 11
59.15
 21
5.7625
  0
LINE
  8
0
 10
59.15
 20
5.7625
 11
59.15
 21
7.05048
  0
LINE
  8
0
 10
59.15
 20
7.05048
 11
76.2
 21
7.05048
  0
LINE
  8
0
 10
76.2
 20
7.05048
 11
76.2
 21
5.7625
  0
LINE
  8
0
 10
76.2
 20
5.7625
 11
76.2079
 21
5.63718
  0
LINE
  8
0
 10
76.2079
 20
5.63718
 11
76.2314
 21
5.51381
  0
LINE
  8
0
 10
76.2314
 20
5.51381
 11
76.2702
 21
5.39438
  0
LINE
  8
0
 10
76.2702
 20
5.39438
 11
76.3237
 21
5.28075
  0
LINE
  8
0
 10
76.3237
 20
5.28075
 11
76.391
 21
5.17471
  0
LINE
  8
0
 10
76.391
 20
5.17471
 11
76.471
 21
5.07796
  0
LINE
  8
0
 10
76.471
 20
5.07796
 11
76.5626
 21
4.99199
  0
LINE
  8
0
 10
76.5626
 20
4.99199
 11
76.6642
 21
4.91818
  0
LINE
  8
0
 10
76.6642
 20
4.91818
 11
76.7742
 21
4.85768
  0
LINE
  8
0
 10
76.7742
 20
4.85768
 11
76.891
 21
4.81145
  0
LINE
  8
0
 10
76.891
 20
4.81145
 11
77.0126
 21
4.78021
  0
LINE
  8
0
 10
77.0126
 20
4.78021
 11
77.1372
 21
4.76448
  0
LINE
  8
0
 10
77.1372
 20
4.76448
 11
95.25
 21
4.76448
  0
LINE
  8
0
 10
95.25
 20
4.76448
 11
95.25
 21
3.286
  0
LINE
  8
0
 10
95.25
 20
3.286
 11
95.2579
 21
3.16068
  0
LINE
  8
0
 10
95.2579
 20
3.16068
 11
95.2814
 21
3.03731
  0
LINE
  8
0
 10
95.2814
 20
3.03731
 11
95.3202
 21
2.91788
  0
LINE
  8
0
 10
95.3202
 20
2.91788
 11
95.3737
 21
2.80424
  0
LINE
  8
0
 10
95.3737
 20
2.80424
 11
95.441
 21
2.69821
  0
LINE
  8
0
 10
95.441
 20
2.69821
 11
95.521
 21
2.60146
  0
LINE
  8
0
 10
95.521
 20
2.60146
 11
95.6126
 21
2.51549
  0
LINE
  8
0
 10
95.6126
 20
2.51549
 11
95.7142
 21
2.44168
  0
LINE
  8
0
 10
95.7142
 20
2.44168
 11
95.8242
 21
2.38118
  0
LINE
  8
0
 10
95.8242
 20
2.38118
 11
95.941
 21
2.33495
  0
LINE
  8
0
 10
95.941
 20
2.33495
 11
96.0626
 21
2.30371
  0
LINE
  8
0
 10
96.0626
 20
2.30371
 11
96.1872
 21
2.28798
  0
LINE
  8
0
 10
96.1872
 20
2.28798
 11
115.363
 21
2.28798
  0
LINE
  8
0
 10
115.363
 20
2.28798
 11
115.487
 21
2.30371
  0
LINE
  8
0
 10
115.487
 20
2.30371
 11
115.609
 21
2.33495
  0
LINE
  8
0
 10
115.609
 20
2.33495
 11
115.726
 21
2.38118
  0
LINE
  8
0
 10
115.726
 20
2.38118
 11
115.836
 21
2.44168
  0
LINE
  8
0
 10
115.836
 20
2.44168
 11
115.937
 21
2.51549
  0
LINE
  8
0
 10
115.937
 20
2.51549
 11
116.029
 21
2.60146
  0
LINE
  8
0
 10
116.029
 20
2.60146
 11
116.109
 21
2.69821
  0
LINE
  8
0
 10
116.109
 20
2.69821
 11
116.176
 21
2.80424
  0
LINE
  8
0
 10
116.176
 20
2.80424
 11
116.23
 21
2.91788
  0
LINE
  8
0
 10
116.23
 20
2.91788
 11
116.269
 21
3.03731
  0
LINE
  8
0
 10
116.269
 20
3.03731
 11
116.292
 21
3.16068
  0
LINE
  8
0
 10
116.292
 20
3.16068
 11
116.3
 21
3.286
  0
LINE
  8
0
 10
116.3
 20
3.286
 11
116.3
 21
60.436
  0
LINE
  8
0
 10
116.3
 20
60.436
 11
116.292
 21
60.5613
  0
LINE
  8
0
 10
116.292
 20
60.5613
 11
116.269
 21
60.6847
  0
LINE
  8
0
 10
116.269
 20
60.6847
 11
116.23
 21
60.8041
  0
LINE
  8
0
 10
116.23
 20
60.8041
 11
116.176
 21
60.9177
  0
LINE
  8
0
 10
116.176
 20
60.9177
 11
116.109
 21
61.0238
  0
LINE
  8
0
 10
116.109
 20
61.0238
 11
116.029
 21
61.1205
  0
LINE
  8
0
 10
116.029
 20
61.1205
 11
115.937
 21
61.2065
  0
LINE
  8
0
 10
115.937
 20
61.2065
 11
115.836
 21
61.2803
  0
LINE
  8
0
 10
115.836
 20
61.2803
 11
115.726
 21
61.3408
  0
LINE
  8
0
 10
115.726
 20
61.3408
 11
115.609
 21
61.387
  0
LINE
  8
0
 10
115.609
 20
61.387
 11
115.487
 21
61.4183
  0
LINE
  8
0
 10
115.487
 20
61.4183
 11
115.363
 21
61.434
  0
LINE
  8
0
 10
115.363
 20
61.434
 11
97.25
 21
61.434
  0
LINE
  8
0
 10
97.25
 20
61.434
 11
97.25
 21
62.9125
  0
LINE
  8
0
 10
97.25
 20
62.9125
 11
97.2421
 21
63.0378
  0
LINE
  8
0
 10
97.2421
 20
63.0378
 11
97.2186
 21
63.1612
  0
LINE
  8
0
 10
97.2186
 20
63.1612
 11
97.1798
 21
63.2806
  0
LINE
  8
0
 10
97.1798
 20
63.2806
 11
97.1263
 21
63.3942
  0
LINE
  8
0
 10
97.1263
 20
63.3942
 11
97.059
 21
63.5003
  0
LINE
  8
0
 10
97.059
 20
63.5003
 11
96.979
 21
63.597
  0
LINE
  8
0
 10
96.979
 20
63.597
 11
96.8874
 21
63.683
  0
LINE
  8
0
 10
96.8874
 20
63.683
 11
96.7858
 21
63.7568
  0
LINE
  8
0
 10
96.7858
 20
63.7568
 11
96.6758
 21
63.8173
  0
LINE
  8
0
 10
96.6758
 20
63.8173
 11
96.559
 21
63.8635
  0
LINE
  8
0
 10
96.559
 20
63.8635
 11
96.4374
 21
63.8948
  0
LINE
  8
0
 10
96.4374
 20
63.8948
 11
96.3128
 21
63.9105
  0
LINE
  8
0
 10
96.3128
 20
63.9105
 11
78.2
 21
63.9105
  0
LINE
  8
0
 10
78.2
 20
63.9105
 11
78.2
 21
65.1985
  0
LINE
  8
0
 10
78.2
 20
65.1985
 11
78.1921
 21
65.3238
  0
LINE
  8
0
 10
78.1921
 20
65.3238
 11
78.1686
 21
65.4472
  0
LINE
  8
0
 10
78.1686
 20
65.4472
 11
78.1298
 21
65.5666
  0
LINE
  8
0
 10
78.1298
 20
65.5666
 11
78.0763
 21
65.6802
  0
LINE
  8
0
 10
78.0763
 20
65.6802
 11
78.009
 21
65.7863
  0
LINE
  8
0
 10
78.009
 20
65.7863
 11
77.929
 21
65.883
  0
LINE
  8
0
 10
77.929
 20
65.883
 11
77.8374
 21
65.969
  0
LINE
  8
0
 10
77.8374
 20
65.969
 11
77.7358
 21
66.0428
  0
LINE
  8
0
 10
77.7358
 20
66.0428
 11
77.6258
 21
66.1033
  0
LINE
  8
0
 10
77.6258
 20
66.1033
 11
77.509
 21
66.1495
  0
LINE
  8
0
 10
77.509
 20
66.1495
 11
77.3874
 21
66.1808
  0
LINE
  8
0
 10
77.3874
 20
66.1808
 11
77.2628
 21
66.1965
  0
LINE
  8
0
 10
77.2628
 20
66.1965
 11
58.0872
 21
66.1965
  0
LINE
  8
0
 10
58.0872
 20
66.1965
 11
57.9626
 21
66.1808
  0
LINE
  8
0
 10
57.9626
 20
66.1808
 11
57.841
 21
66.1495
  0
LINE
  8
0
 10
57.841
 20
66.1495
 11
57.7242
 21
66.1033
  0
LINE
  8
0
 10
57.7242
 20
66.1033
 11
57.6142
 21
66.0428
  0
LINE
  8
0
 10
57.6142
 20
66.0428
 11
57.5126
 21
65.969
  0
LINE
  8
0
 10
57.5126
 20
65.969
 11
57.421
 21
65.883
  0
LINE
  8
0
 10
57.421
 20
65.883
 11
57.341
 21
65.7863
  0
LINE
  8
0
 10
57.341
 20
65.7863
 11
57.2737
 21
65.6802
  0
LINE
  8
0
 10
57.2737
 20
65.6802
 11
57.2202
 21
65.5666
  0
LINE
  8
0
 10
57.2202
 20
65.5666
 11
57.1814
 21
65.4472
  0
LINE
  8
0
 10
57.1814
 20
65.4472
 11
57.1579
 21
65.3238
  0
LINE
  8
0
 10
57.1579
 20
65.3238
 11
57.15
 21
65.1985
  0
LINE
  8
0
 10
57.15
 20
65.1985
 11
57.15
 21
63.9105
  0
LINE
  8
0
 10
57.15
 20
63.9105
 11
39.0372
 21
63.9105
  0
LINE
  8
0
 10
39.0372
 20
63.9105
 11
38.9126
 21
63.8948
  0
LINE
  8
0
 10
38.9126
 20
63.8948
 11
38.791
 21
63.8635
  0
LINE
  8
0
 10
38.791
 20
63.8635
 11
38.6742
 21
63.8173
  0
LINE
  8
0
 10
38.6742
 20
63.8173
 11
38.5642
 21
63.7568
  0
LINE
  8
0
 10
38.5642
 20
63.7568
 11
38.4626
 21
63.683
  0
LINE
  8
0
 10
38.4626
 20
63.683
 11
38.371
 21
63.597
  0
LINE
  8
0
 10
38.371
 20
63.597
 11
38.291
 21
63.5003
  0
LINE
  8
0
 10
38.291
 20
63.5003
 11
38.2237
 21
63.3942
  0
LINE
  8
0
 10
38.2237
 20
63.3942
 11
38.1702
 21
63.2806
  0
LINE
  8
0
 10
38.1702
 20
63.2806
 11
38.1314
 21
63.1612
  0
LINE
  8
0
 10
38.1314
 20
63.1612
 11
38.1079
 21
63.0378
  0
LINE
  8
0
 10
38.1079
 20
63.0378
 11
38.1
 21
62.9125
  0
LINE
  8
0
 10
38.1
 20
62.9125
 11
38.1
 21
59.148
  0
LINE
  8
0
 10
38.1
 20
59.148
 11
0.93721
 21
59.148
  0
LINE
  8
0
 10
0.93721
 20
59.148
 11
0.812622
 21
59.1323
  0
LINE
  8
0
 10
0.812622
 20
59.1323
 11
0.690994
 21
59.101
  0
LINE
  8
0
 10
0.690994
 20
59.101
 11
0.574234
 21
59.0548
  0
LINE
  8
0
 10
0.574234
 20
59.0548
 11
0.464188
 21
58.9943
  0
LINE
  8
0
 10
0.464188
 20
58.9943
 11
0.362579
 21
58.9205
  0
LINE
  8
0
 10
0.362579
 20
58.9205
 11
0.271042
 21
58.8345
  0
LINE
  8
0
 10
0.271042
 20
58.8345
 11
0.190994
 21
58.7378
  0
LINE
  8
0
 10
0.190994
 20
58.7378
 11
0.123703
 21
58.6317
  0
LINE
  8
0
 10
0.123703
 20
58.6317
 11
0.0702362
 21
58.5181
  0
LINE
  8
0
 10
0.0702362
 20
58.5181
 11
0.0314178
 21
58.3987
  0
LINE
  8
0
 10
0.0314178
 20
58.3987
 11
0.00788879
 21
58.2753
  0
LINE
  8
0
 10
0.00788879
 20
58.2753
 11
0
 21
58.15
  0
LINE
  8
0
 10
0
 20
58.15
 11
0
 21
1
  0
LINE
  8
0
 10
0
 20
1
 11
0.00788879
 21
0.87468
  0
LINE
  8
0
 10
0.00788879
 20
0.87468
 11
0.0314178
 21
0.751312
  0
LINE
  8
0
 10
0.0314178
 20
0.751312
 11
0.0702362
 21
0.631882
  0
LINE
  8
0
 10
0.0702362
 20
0.631882
 11
0.123703
 21
0.51825
  0
LINE
  8
0
 10
0.123703
 20
0.51825
 11
0.190994
 21
0.412216
  0
LINE
  8
0
 10
0.190994
 20
0.412216
 11
0.271042
 21
0.31546
  0
LINE
  8
0
 10
0.271042
 20
0.31546
 11
0.362579
 21
0.229492
  0
LINE
  8
0
 10
0.362579
 20
0.229492
 11
0.464188
 21
0.155685
  0
LINE
  8
0
 10
0.464188
 20
0.155685
 11
0.574234
 21
0.0951843
  0
LINE
  8
0
 10
0.574234
 20
0.0951843
 11
0.690994
 21
0.0489502
  0
LINE
  8
0
 10
0.690994
 20
0.0489502
 11
0.812622
 21
0.0177155
  0
LINE
  8
0
 10
0.812622
 20
0.0177155
 11
0.93721
 21
0.00198364
  0
LINE
  8
0
 10
0.93721
 20
0.00198364
 11
39.1628
 21
0.00198364
  0
LINE
  8
0
 10
39.1628
 20
0.00198364
 11
39.2874
 21
0.0177155
  0
LINE
  8
0
 10
60.675
 20
48.6735
 11
60.675
 21
62.6735
  0
LINE
  8
0
 10
60.675
 20
62.6735
 11
74.675
 21
62.6735
  0
LINE
  8
0
 10
74.675
 20
62.6735
 11
74.675
 21
48.6735
  0
LINE
  8
0
 10
74.675
 20
48.6735
 11
60.675
 21
48.6735
  0
LINE
  8
0
 10
41.625
 20
46.3875
 11
41.625
 21
60.3875
  0
LINE
  8
0
 10
41.625
 20
60.3875
 11
55.625
 21
60.3875
  0
LINE
  8
0
 10
55.625
 20
60.3875
 11
55.625
 21
46.3875
  0
LINE
  8
0
 10
55.625
 20
46.3875
 11
41.625
 21
46.3875
  0
LINE
  8
0
 10
79.725
 20
46.3875
 11
79.725
 21
60.3875
  0
LINE
  8
0
 10
79.725
 20
60.3875
 11
93.725
 21
60.3875
  0
LINE
  8
0
 10
93.725
 20
60.3875
 11
93.725
 21
46.3875
  0
LINE
  8
0
 10
93.725
 20
46.3875
 11
79.725
 21
46.3875
  0
LINE
  8
0
 10
98.775
 20
43.911
 11
98.775
 21
57.911
  0
LINE
  8
0
 10
98.775
 20
57.911
 11
112.775
 21
57.911
  0
LINE
  8
0
 10
112.775
 20
57.911
 11
112.775
 21
43.911
  0
LINE
  8
0
 10
112.775
 20
43.911
 11
98.775
 21
43.911
  0
LINE
  8
0
 10
22.575
 20
41.625
 11
22.575
 21
55.625
  0
LINE
  8
0
 10
22.575
 20
55.625
 11
36.575
 21
55.625
  0
LINE
  8
0
 10
36.575
 20
55.625
 11
36.575
 21
41.625
  0
LINE
  8
0
 10
36.575
 20
41.625
 11
22.575
 21
41.625
  0
LINE
  8
0
 10
3.52499
 20
41.625
 11
3.52499
 21
55.625
  0
LINE
  8
0
 10
3.52499
 20
55.625
 11
17.525
 21
55.625
  0
LINE
  8
0
 10
17.525
 20
55.625
 11
17.525
 21
41.625
  0
LINE
  8
0
 10
17.525
 20
41.625
 11
3.52499
 21
41.625
  0
LINE
  8
0
 10
96.1715
 20
41.3767
 11
96.0933
 21
41.3841
  0
LINE
  8
0
 10
96.0933
 20
41.3841
 11
96.0158
 21
41.3964
  0
LINE
  8
0
 10
96.0158
 20
41.3964
 11
95.9391
 21
41.4135
  0
LINE
  8
0
 10
95.9391
 20
41.4135
 11
95.8637
 21
41.4354
  0
LINE
  8
0
 10
95.8637
 20
41.4354
 11
95.7898
 21
41.462
  0
LINE
  8
0
 10
95.7898
 20
41.462
 11
95.7178
 21
41.4932
  0
LINE
  8
0
 10
95.7178
 20
41.4932
 11
95.6478
 21
41.5289
  0
LINE
  8
0
 10
95.6478
 20
41.5289
 11
95.5802
 21
41.5688
  0
LINE
  8
0
 10
95.5802
 20
41.5688
 11
95.5153
 21
41.613
  0
LINE
  8
0
 10
95.5153
 20
41.613
 11
95.4532
 21
41.6611
  0
LINE
  8
0
 10
95.4532
 20
41.6611
 11
95.3943
 21
41.713
  0
LINE
  8
0
 10
95.3943
 20
41.713
 11
95.3388
 21
41.7686
  0
LINE
  8
0
 10
95.3388
 20
41.7686
 11
95.2868
 21
41.8275
  0
LINE
  8
0
 10
95.2868
 20
41.8275
 11
95.2387
 21
41.8895
  0
LINE
  8
0
 10
95.2387
 20
41.8895
 11
95.1946
 21
41.9545
  0
LINE
  8
0
 10
95.1946
 20
41.9545
 11
95.1546
 21
42.022
  0
LINE
  8
0
 10
95.1546
 20
42.022
 11
95.119
 21
42.092
  0
LINE
  8
0
 10
95.119
 20
42.092
 11
95.0878
 21
42.1641
  0
LINE
  8
0
 10
95.0878
 20
42.1641
 11
95.0612
 21
42.238
  0
LINE
  8
0
 10
95.0612
 20
42.238
 11
95.0393
 21
42.3134
  0
LINE
  8
0
 10
95.0393
 20
42.3134
 11
95.0221
 21
42.39
  0
LINE
  8
0
 10
95.0221
 20
42.39
 11
95.0098
 21
42.4676
  0
LINE
  8
0
 10
95.0098
 20
42.4676
 11
95.0025
 21
42.5458
  0
LINE
  8
0
 10
95.0025
 20
42.5458
 11
95
 21
42.6242
  0
LINE
  8
0
 10
95
 20
42.6242
 11
95.0025
 21
42.7027
  0
LINE
  8
0
 10
95.0025
 20
42.7027
 11
95.0098
 21
42.7809
  0
LINE
  8
0
 10
95.0098
 20
42.7809
 11
95.0221
 21
42.8585
  0
LINE
  8
0
 10
95.0221
 20
42.8585
 11
95.0393
 21
42.9351
  0
LINE
  8
0
 10
95.0393
 20
42.9351
 11
95.0612
 21
43.0105
  0
LINE
  8
0
 10
95.0612
 20
43.0105
 11
95.0878
 21
43.0844
  0
LINE
  8
0
 10
95.0878
 20
43.0844
 11
95.119
 21
43.1565
  0
LINE
  8
0
 10
95.119
 20
43.1565
 11
95.1546
 21
43.2264
  0
LINE
  8
0
 10
95.1546
 20
43.2264
 11
95.1946
 21
43.294
  0
LINE
  8
0
 10
95.1946
 20
43.294
 11
95.2387
 21
43.359
  0
LINE
  8
0
 10
95.2387
 20
43.359
 11
95.2868
 21
43.421
  0
LINE
  8
0
 10
95.2868
 20
43.421
 11
95.3388
 21
43.4799
  0
LINE
  8
0
 10
95.3388
 20
43.4799
 11
95.3943
 21
43.5354
  0
LINE
  8
0
 10
95.3943
 20
43.5354
 11
95.4532
 21
43.5874
  0
LINE
  8
0
 10
95.4532
 20
43.5874
 11
95.5153
 21
43.6355
  0
LINE
  8
0
 10
95.5153
 20
43.6355
 11
95.5802
 21
43.6797
  0
LINE
  8
0
 10
95.5802
 20
43.6797
 11
95.6478
 21
43.7196
  0
LINE
  8
0
 10
95.6478
 20
43.7196
 11
95.7178
 21
43.7553
  0
LINE
  8
0
 10
95.7178
 20
43.7553
 11
95.7898
 21
43.7865
  0
LINE
  8
0
 10
95.7898
 20
43.7865
 11
95.8637
 21
43.8131
  0
LINE
  8
0
 10
95.8637
 20
43.8131
 11
95.9391
 21
43.835
  0
LINE
  8
0
 10
95.9391
 20
43.835
 11
96.0158
 21
43.8521
  0
LINE
  8
0
 10
96.0158
 20
43.8521
 11
96.0933
 21
43.8644
  0
LINE
  8
0
 10
96.0933
 20
43.8644
 11
96.1715
 21
43.8718
  0
LINE
  8
0
 10
96.1715
 20
43.8718
 11
96.25
 21
43.8742
  0
LINE
  8
0
 10
96.25
 20
43.8742
 11
96.3285
 21
43.8718
  0
LINE
  8
0
 10
96.3285
 20
43.8718
 11
96.4067
 21
43.8644
  0
LINE
  8
0
 10
96.4067
 20
43.8644
 11
96.4842
 21
43.8521
  0
LINE
  8
0
 10
96.4842
 20
43.8521
 11
96.5609
 21
43.835
  0
LINE
  8
0
 10
96.5609
 20
43.835
 11
96.6363
 21
43.8131
  0
LINE
  8
0
 10
96.6363
 20
43.8131
 11
96.7101
 21
43.7865
  0
LINE
  8
0
 10
96.7101
 20
43.7865
 11
96.7822
 21
43.7553
  0
LINE
  8
0
 10
96.7822
 20
43.7553
 11
96.8522
 21
43.7196
  0
LINE
  8
0
 10
96.8522
 20
43.7196
 11
96.9198
 21
43.6797
  0
LINE
  8
0
 10
96.9198
 20
43.6797
 11
96.9847
 21
43.6355
  0
LINE
  8
0
 10
96.9847
 20
43.6355
 11
97.0468
 21
43.5874
  0
LINE
  8
0
 10
97.0468
 20
43.5874
 11
97.1057
 21
43.5354
  0
LINE
  8
0
 10
97.1057
 20
43.5354
 11
97.1612
 21
43.4799
  0
LINE
  8
0
 10
97.1612
 20
43.4799
 11
97.2131
 21
43.421
  0
LINE
  8
0
 10
97.2131
 20
43.421
 11
97.2613
 21
43.359
  0
LINE
  8
0
 10
97.2613
 20
43.359
 11
97.3054
 21
43.294
  0
LINE
  8
0
 10
97.3054
 20
43.294
 11
97.3454
 21
43.2264
  0
LINE
  8
0
 10
97.3454
 20
43.2264
 11
97.381
 21
43.1565
  0
LINE
  8
0
 10
97.381
 20
43.1565
 11
97.4122
 21
43.0844
  0
LINE
  8
0
 10
97.4122
 20
43.0844
 11
97.4388
 21
43.0105
  0
LINE
  8
0
 10
97.4388
 20
43.0105
 11
97.4607
 21
42.9351
  0
LINE
  8
0
 10
97.4607
 20
42.9351
 11
97.4778
 21
42.8585
  0
LINE
  8
0
 10
97.4778
 20
42.8585
 11
97.4901
 21
42.7809
  0
LINE
  8
0
 10
97.4901
 20
42.7809
 11
97.4975
 21
42.7027
  0
LINE
  8
0
 10
97.4975
 20
42.7027
 11
97.5
 21
42.6242
  0
LINE
  8
0
 10
97.5
 20
42.6242
 11
97.4975
 21
42.5458
  0
LINE
  8
0
 10
97.4975
 20
42.5458
 11
97.4901
 21
42.4676
  0
LINE
  8
0
 10
97.4901
 20
42.4676
 11
97.4778
 21
42.39
  0
LINE
  8
0
 10
97.4778
 20
42.39
 11
97.4607
 21
42.3134
  0
LINE
  8
0
 10
97.4607
 20
42.3134
 11
97.4388
 21
42.238
  0
LINE
  8
0
 10
97.4388
 20
42.238
 11
97.4122
 21
42.1641
  0
LINE
  8
0
 10
97.4122
 20
42.1641
 11
97.381
 21
42.092
  0
LINE
  8
0
 10
97.381
 20
42.092
 11
97.3454
 21
42.022
  0
LINE
  8
0
 10
97.3454
 20
42.022
 11
97.3054
 21
41.9545
  0
LINE
  8
0
 10
97.3054
 20
41.9545
 11
97.2613
 21
41.8895
  0
LINE
  8
0
 10
97.2613
 20
41.8895
 11
97.2131
 21
41.8275
  0
LINE
  8
0
 10
97.2131
 20
41.8275
 11
97.1612
 21
41.7686
  0
LINE
  8
0
 10
97.1612
 20
41.7686
 11
97.1057
 21
41.713
  0
LINE
  8
0
 10
97.1057
 20
41.713
 11
97.0468
 21
41.6611
  0
LINE
  8
0
 10
97.0468
 20
41.6611
 11
96.9847
 21
41.613
  0
LINE
  8
0
 10
96.9847
 20
41.613
 11
96.9198
 21
41.5688
  0
LINE
  8
0
 10
96.9198
 20
41.5688
 11
96.8522
 21
41.5289
  0
LINE
  8
0
 10
96.8522
 20
41.5289
 11
96.7822
 21
41.4932
  0
LINE
  8
0
 10
96.7822
 20
41.4932
 11
96.7101
 21
41.462
  0
LINE
  8
0
 10
96.7101
 20
41.462
 11
96.6363
 21
41.4354
  0
LINE
  8
0
 10
96.6363
 20
41.4354
 11
96.5609
 21
41.4135
  0
LINE
  8
0
 10
96.5609
 20
41.4135
 11
96.4842
 21
41.3964
  0
LINE
  8
0
 10
96.4842
 20
41.3964
 11
96.4067
 21
41.3841
  0
LINE
  8
0
 10
96.4067
 20
41.3841
 11
96.3285
 21
41.3767
  0
LINE
  8
0
 10
96.3285
 20
41.3767
 11
96.25
 21
41.3742
  0
LINE
  8
0
 10
96.25
 20
41.3742
 11
96.1715
 21
41.3767
  0
LINE
  8
0
 10
60.675
 20
29.6235
 11
60.675
 21
43.6235
  0
LINE
  8
0
 10
60.675
 20
43.6235
 11
74.675
 21
43.6235
  0
LINE
  8
0
 10
74.675
 20
43.6235
 11
74.675
 21
29.6235
  0
LINE
  8
0
 10
74.675
 20
29.6235
 11
60.675
 21
29.6235
  0
LINE
  8
0
 10
41.625
 20
27.3375
 11
41.625
 21
41.3375
  0
LINE
  8
0
 10
41.625
 20
41.3375
 11
55.625
 21
41.3375
  0
LINE
  8
0
 10
55.625
 20
41.3375
 11
55.625
 21
27.3375
  0
LINE
  8
0
 10
55.625
 20
27.3375
 11
41.625
 21
27.3375
  0
LINE
  8
0
 10
79.725
 20
27.3375
 11
79.725
 21
41.3375
  0
LINE
  8
0
 10
79.725
 20
41.3375
 11
93.725
 21
41.3375
  0
LINE
  8
0
 10
93.725
 20
41.3375
 11
93.725
 21
27.3375
  0
LINE
  8
0
 10
93.725
 20
27.3375
 11
79.725
 21
27.3375
  0
LINE
  8
0
 10
19.9715
 20
37.8525
 11
19.8933
 21
37.8598
  0
LINE
  8
0
 10
19.8933
 20
37.8598
 11
19.8158
 21
37.8721
  0
LINE
  8
0
 10
19.8158
 20
37.8721
 11
19.7391
 21
37.8893
  0
LINE
  8
0
 10
19.7391
 20
37.8893
 11
19.6637
 21
37.9112
  0
LINE
  8
0
 10
19.6637
 20
37.9112
 11
19.5898
 21
37.9378
  0
LINE
  8
0
 10
19.5898
 20
37.9378
 11
19.5178
 21
37.969
  0
LINE
  8
0
 10
19.5178
 20
37.969
 11
19.4478
 21
38.0046
  0
LINE
  8
0
 10
19.4478
 20
38.0046
 11
19.3802
 21
38.0446
  0
LINE
  8
0
 10
19.3802
 20
38.0446
 11
19.3153
 21
38.0887
  0
LINE
  8
0
 10
19.3153
 20
38.0887
 11
19.2532
 21
38.1369
  0
LINE
  8
0
 10
19.2532
 20
38.1369
 11
19.1943
 21
38.1888
  0
LINE
  8
0
 10
19.1943
 20
38.1888
 11
19.1388
 21
38.2443
  0
LINE
  8
0
 10
19.1388
 20
38.2443
 11
19.0869
 21
38.3032
  0
LINE
  8
0
 10
19.0869
 20
38.3032
 11
19.0387
 21
38.3653
  0
LINE
  8
0
 10
19.0387
 20
38.3653
 11
18.9946
 21
38.4302
  0
LINE
  8
0
 10
18.9946
 20
38.4302
 11
18.9546
 21
38.4978
  0
LINE
  8
0
 10
18.9546
 20
38.4978
 11
18.919
 21
38.5678
  0
LINE
  8
0
 10
18.919
 20
38.5678
 11
18.8878
 21
38.6398
  0
LINE
  8
0
 10
18.8878
 20
38.6398
 11
18.8612
 21
38.7137
  0
LINE
  8
0
 10
18.8612
 20
38.7137
 11
18.8393
 21
38.7891
  0
LINE
  8
0
 10
18.8393
 20
38.7891
 11
18.8221
 21
38.8658
  0
LINE
  8
0
 10
18.8221
 20
38.8658
 11
18.8098
 21
38.9433
  0
LINE
  8
0
 10
18.8098
 20
38.9433
 11
18.8025
 21
39.0215
  0
LINE
  8
0
 10
18.8025
 20
39.0215
 11
18.8
 21
39.1
  0
LINE
  8
0
 10
18.8
 20
39.1
 11
18.8025
 21
39.1785
  0
LINE
  8
0
 10
18.8025
 20
39.1785
 11
18.8098
 21
39.2567
  0
LINE
  8
0
 10
18.8098
 20
39.2567
 11
18.8221
 21
39.3342
  0
LINE
  8
0
 10
18.8221
 20
39.3342
 11
18.8393
 21
39.4109
  0
LINE
  8
0
 10
18.8393
 20
39.4109
 11
18.8612
 21
39.4863
  0
LINE
  8
0
 10
18.8612
 20
39.4863
 11
18.8878
 21
39.5602
  0
LINE
  8
0
 10
18.8878
 20
39.5602
 11
18.919
 21
39.6322
  0
LINE
  8
0
 10
18.919
 20
39.6322
 11
18.9546
 21
39.7022
  0
LINE
  8
0
 10
18.9546
 20
39.7022
 11
18.9946
 21
39.7698
  0
LINE
  8
0
 10
18.9946
 20
39.7698
 11
19.0387
 21
39.8347
  0
LINE
  8
0
 10
19.0387
 20
39.8347
 11
19.0869
 21
39.8968
  0
LINE
  8
0
 10
19.0869
 20
39.8968
 11
19.1388
 21
39.9557
  0
LINE
  8
0
 10
19.1388
 20
39.9557
 11
19.1943
 21
40.0112
  0
LINE
  8
0
 10
19.1943
 20
40.0112
 11
19.2532
 21
40.0631
  0
LINE
  8
0
 10
19.2532
 20
40.0631
 11
19.3153
 21
40.1113
  0
LINE
  8
0
 10
19.3153
 20
40.1113
 11
19.3802
 21
40.1554
  0
LINE
  8
0
 10
19.3802
 20
40.1554
 11
19.4478
 21
40.1954
  0
LINE
  8
0
 10
19.4478
 20
40.1954
 11
19.5178
 21
40.231
  0
LINE
  8
0
 10
19.5178
 20
40.231
 11
19.5898
 21
40.2622
  0
LINE
  8
0
 10
19.5898
 20
40.2622
 11
19.6637
 21
40.2888
  0
LINE
  8
0
 10
19.6637
 20
40.2888
 11
19.7391
 21
40.3107
  0
LINE
  8
0
 10
19.7391
 20
40.3107
 11
19.8158
 21
40.3279
  0
LINE
  8
0
 10
19.8158
 20
40.3279
 11
19.8933
 21
40.3401
  0
LINE
  8
0
 10
19.8933
 20
40.3401
 11
19.9715
 21
40.3475
  0
LINE
  8
0
 10
19.9715
 20
40.3475
 11
20.05
 21
40.35
  0
LINE
  8
0
 10
20.05
 20
40.35
 11
20.1285
 21
40.3475
  0
LINE
  8
0
 10
20.1285
 20
40.3475
 11
20.2067
 21
40.3401
  0
LINE
  8
0
 10
20.2067
 20
40.3401
 11
20.2842
 21
40.3279
  0
LINE
  8
0
 10
20.2842
 20
40.3279
 11
20.3609
 21
40.3107
  0
LINE
  8
0
 10
20.3609
 20
40.3107
 11
20.4363
 21
40.2888
  0
LINE
  8
0
 10
20.4363
 20
40.2888
 11
20.5101
 21
40.2622
  0
LINE
  8
0
 10
20.5101
 20
40.2622
 11
20.5822
 21
40.231
  0
LINE
  8
0
 10
20.5822
 20
40.231
 11
20.6522
 21
40.1954
  0
LINE
  8
0
 10
20.6522
 20
40.1954
 11
20.7198
 21
40.1554
  0
LINE
  8
0
 10
20.7198
 20
40.1554
 11
20.7847
 21
40.1113
  0
LINE
  8
0
 10
20.7847
 20
40.1113
 11
20.8468
 21
40.0631
  0
LINE
  8
0
 10
20.8468
 20
40.0631
 11
20.9057
 21
40.0112
  0
LINE
  8
0
 10
20.9057
 20
40.0112
 11
20.9612
 21
39.9557
  0
LINE
  8
0
 10
20.9612
 20
39.9557
 11
21.0131
 21
39.8968
  0
LINE
  8
0
 10
21.0131
 20
39.8968
 11
21.0613
 21
39.8347
  0
LINE
  8
0
 10
21.0613
 20
39.8347
 11
21.1054
 21
39.7698
  0
LINE
  8
0
 10
21.1054
 20
39.7698
 11
21.1454
 21
39.7022
  0
LINE
  8
0
 10
21.1454
 20
39.7022
 11
21.181
 21
39.6322
  0
LINE
  8
0
 10
21.181
 20
39.6322
 11
21.2122
 21
39.5602
  0
LINE
  8
0
 10
21.2122
 20
39.5602
 11
21.2388
 21
39.4863
  0
LINE
  8
0
 10
21.2388
 20
39.4863
 11
21.2607
 21
39.4109
  0
LINE
  8
0
 10
21.2607
 20
39.4109
 11
21.2778
 21
39.3342
  0
LINE
  8
0
 10
21.2778
 20
39.3342
 11
21.2901
 21
39.2567
  0
LINE
  8
0
 10
21.2901
 20
39.2567
 11
21.2975
 21
39.1785
  0
LINE
  8
0
 10
21.2975
 20
39.1785
 11
21.3
 21
39.1
  0
LINE
  8
0
 10
21.3
 20
39.1
 11
21.2975
 21
39.0215
  0
LINE
  8
0
 10
21.2975
 20
39.0215
 11
21.2901
 21
38.9433
  0
LINE
  8
0
 10
21.2901
 20
38.9433
 11
21.2778
 21
38.8658
  0
LINE
  8
0
 10
21.2778
 20
38.8658
 11
21.2607
 21
38.7891
  0
LINE
  8
0
 10
21.2607
 20
38.7891
 11
21.2388
 21
38.7137
  0
LINE
  8
0
 10
21.2388
 20
38.7137
 11
21.2122
 21
38.6398
  0
LINE
  8
0
 10
21.2122
 20
38.6398
 11
21.181
 21
38.5678
  0
LINE
  8
0
 10
21.181
 20
38.5678
 11
21.1454
 21
38.4978
  0
LINE
  8
0
 10
21.1454
 20
38.4978
 11
21.1054
 21
38.4302
  0
LINE
  8
0
 10
21.1054
 20
38.4302
 11
21.0613
 21
38.3653
  0
LINE
  8
0
 10
21.0613
 20
38.3653
 11
21.0131
 21
38.3032
  0
LINE
  8
0
 10
21.0131
 20
38.3032
 11
20.9612
 21
38.2443
  0
LINE
  8
0
 10
20.9612
 20
38.2443
 11
20.9057
 21
38.1888
  0
LINE
  8
0
 10
20.9057
 20
38.1888
 11
20.8468
 21
38.1369
  0
LINE
  8
0
 10
20.8468
 20
38.1369
 11
20.7847
 21
38.0887
  0
LINE
  8
0
 10
20.7847
 20
38.0887
 11
20.7198
 21
38.0446
  0
LINE
  8
0
 10
20.7198
 20
38.0446
 11
20.6522
 21
38.0046
  0
LINE
  8
0
 10
20.6522
 20
38.0046
 11
20.5822
 21
37.969
  0
LINE
  8
0
 10
20.5822
 20
37.969
 11
20.5101
 21
37.9378
  0
LINE
  8
0
 10
20.5101
 20
37.9378
 11
20.4363
 21
37.9112
  0
LINE
  8
0
 10
20.4363
 20
37.9112
 11
20.3609
 21
37.8893
  0
LINE
  8
0
 10
20.3609
 20
37.8893
 11
20.2842
 21
37.8721
  0
LINE
  8
0
 10
20.2842
 20
37.8721
 11
20.2067
 21
37.8598
  0
LINE
  8
0
 10
20.2067
 20
37.8598
 11
20.1285
 21
37.8525
  0
LINE
  8
0
 10
20.1285
 20
37.8525
 11
20.05
 21
37.85
  0
LINE
  8
0
 10
20.05
 20
37.85
 11
19.9715
 21
37.8525
  0
LINE
  8
0
 10
98.775
 20
24.861
 11
98.775
 21
38.861
  0
LINE
  8
0
 10
98.775
 20
38.861
 11
112.775
 21
38.861
  0
LINE
  8
0
 10
112.775
 20
38.861
 11
112.775
 21
24.861
  0
LINE
  8
0
 10
112.775
 20
24.861
 11
98.775
 21
24.861
  0
LINE
  8
0
 10
3.52499
 20
22.575
 11
3.52499
 21
36.575
  0
LINE
  8
0
 10
3.52499
 20
36.575
 11
17.525
 21
36.575
  0
LINE
  8
0
 10
17.525
 20
36.575
 11
17.525
 21
22.575
  0
LINE
  8
0
 10
17.525
 20
22.575
 11
3.52499
 21
22.575
  0
LINE
  8
0
 10
22.575
 20
22.575
 11
22.575
 21
36.575
  0
LINE
  8
0
 10
22.575
 20
36.575
 11
36.575
 21
36.575
  0
LINE
  8
0
 10
36.575
 20
36.575
 11
36.575
 21
22.575
  0
LINE
  8
0
 10
36.575
 20
22.575
 11
22.575
 21
22.575
  0
LINE
  8
0
 10
96.1715
 20
22.3267
 11
96.0933
 21
22.3341
  0
LINE
  8
0
 10
96.0933
 20
22.3341
 11
96.0158
 21
22.3464
  0
LINE
  8
0
 10
96.0158
 20
22.3464
 11
95.9391
 21
22.3635
  0
LINE
  8
0
 10
95.9391
 20
22.3635
 11
95.8637
 21
22.3854
  0
LINE
  8
0
 10
95.8637
 20
22.3854
 11
95.7898
 21
22.412
  0
LINE
  8
0
 10
95.7898
 20
22.412
 11
95.7178
 21
22.4432
  0
LINE
  8
0
 10
95.7178
 20
22.4432
 11
95.6478
 21
22.4789
  0
LINE
  8
0
 10
95.6478
 20
22.4789
 11
95.5802
 21
22.5188
  0
LINE
  8
0
 10
95.5802
 20
22.5188
 11
95.5153
 21
22.563
  0
LINE
  8
0
 10
95.5153
 20
22.563
 11
95.4532
 21
22.6111
  0
LINE
  8
0
 10
95.4532
 20
22.6111
 11
95.3943
 21
22.663
  0
LINE
  8
0
 10
95.3943
 20
22.663
 11
95.3388
 21
22.7186
  0
LINE
  8
0
 10
95.3388
 20
22.7186
 11
95.2868
 21
22.7775
  0
LINE
  8
0
 10
95.2868
 20
22.7775
 11
95.2387
 21
22.8395
  0
LINE
  8
0
 10
95.2387
 20
22.8395
 11
95.1946
 21
22.9045
  0
LINE
  8
0
 10
95.1946
 20
22.9045
 11
95.1546
 21
22.972
  0
LINE
  8
0
 10
95.1546
 20
22.972
 11
95.119
 21
23.042
  0
LINE
  8
0
 10
95.119
 20
23.042
 11
95.0878
 21
23.1141
  0
LINE
  8
0
 10
95.0878
 20
23.1141
 11
95.0612
 21
23.188
  0
LINE
  8
0
 10
95.0612
 20
23.188
 11
95.0393
 21
23.2634
  0
LINE
  8
0
 10
95.0393
 20
23.2634
 11
95.0221
 21
23.34
  0
LINE
  8
0
 10
95.0221
 20
23.34
 11
95.0098
 21
23.4176
  0
LINE
  8
0
 10
95.0098
 20
23.4176
 11
95.0025
 21
23.4958
  0
LINE
  8
0
 10
95.0025
 20
23.4958
 11
95
 21
23.5742
  0
LINE
  8
0
 10
95
 20
23.5742
 11
95.0025
 21
23.6527
  0
LINE
  8
0
 10
95.0025
 20
23.6527
 11
95.0098
 21
23.7309
  0
LINE
  8
0
 10
95.0098
 20
23.7309
 11
95.0221
 21
23.8085
  0
LINE
  8
0
 10
95.0221
 20
23.8085
 11
95.0393
 21
23.8851
  0
LINE
  8
0
 10
95.0393
 20
23.8851
 11
95.0612
 21
23.9605
  0
LINE
  8
0
 10
95.0612
 20
23.9605
 11
95.0878
 21
24.0344
  0
LINE
  8
0
 10
95.0878
 20
24.0344
 11
95.119
 21
24.1065
  0
LINE
  8
0
 10
95.119
 20
24.1065
 11
95.1546
 21
24.1764
  0
LINE
  8
0
 10
95.1546
 20
24.1764
 11
95.1946
 21
24.244
  0
LINE
  8
0
 10
95.1946
 20
24.244
 11
95.2387
 21
24.309
  0
LINE
  8
0
 10
95.2387
 20
24.309
 11
95.2868
 21
24.371
  0
LINE
  8
0
 10
95.2868
 20
24.371
 11
95.3388
 21
24.4299
  0
LINE
  8
0
 10
95.3388
 20
24.4299
 11
95.3943
 21
24.4855
  0
LINE
  8
0
 10
95.3943
 20
24.4855
 11
95.4532
 21
24.5374
  0
LINE
  8
0
 10
95.4532
 20
24.5374
 11
95.5153
 21
24.5855
  0
LINE
  8
0
 10
95.5153
 20
24.5855
 11
95.5802
 21
24.6297
  0
LINE
  8
0
 10
95.5802
 20
24.6297
 11
95.6478
 21
24.6696
  0
LINE
  8
0
 10
95.6478
 20
24.6696
 11
95.7178
 21
24.7053
  0
LINE
  8
0
 10
95.7178
 20
24.7053
 11
95.7898
 21
24.7365
  0
LINE
  8
0
 10
95.7898
 20
24.7365
 11
95.8637
 21
24.7631
  0
LINE
  8
0
 10
95.8637
 20
24.7631
 11
95.9391
 21
24.785
  0
LINE
  8
0
 10
95.9391
 20
24.785
 11
96.0158
 21
24.8021
  0
LINE
  8
0
 10
96.0158
 20
24.8021
 11
96.0933
 21
24.8144
  0
LINE
  8
0
 10
96.0933
 20
24.8144
 11
96.1715
 21
24.8218
  0
LINE
  8
0
 10
96.1715
 20
24.8218
 11
96.25
 21
24.8242
  0
LINE
  8
0
 10
96.25
 20
24.8242
 11
96.3285
 21
24.8218
  0
LINE
  8
0
 10
96.3285
 20
24.8218
 11
96.4067
 21
24.8144
  0
LINE
  8
0
 10
96.4067
 20
24.8144
 11
96.4842
 21
24.8021
  0
LINE
  8
0
 10
96.4842
 20
24.8021
 11
96.5609
 21
24.785
  0
LINE
  8
0
 10
96.5609
 20
24.785
 11
96.6363
 21
24.7631
  0
LINE
  8
0
 10
96.6363
 20
24.7631
 11
96.7101
 21
24.7365
  0
LINE
  8
0
 10
96.7101
 20
24.7365
 11
96.7822
 21
24.7053
  0
LINE
  8
0
 10
96.7822
 20
24.7053
 11
96.8522
 21
24.6696
  0
LINE
  8
0
 10
96.8522
 20
24.6696
 11
96.9198
 21
24.6297
  0
LINE
  8
0
 10
96.9198
 20
24.6297
 11
96.9847
 21
24.5855
  0
LINE
  8
0
 10
96.9847
 20
24.5855
 11
97.0468
 21
24.5374
  0
LINE
  8
0
 10
97.0468
 20
24.5374
 11
97.1057
 21
24.4855
  0
LINE
  8
0
 10
97.1057
 20
24.4855
 11
97.1612
 21
24.4299
  0
LINE
  8
0
 10
97.1612
 20
24.4299
 11
97.2131
 21
24.371
  0
LINE
  8
0
 10
97.2131
 20
24.371
 11
97.2613
 21
24.309
  0
LINE
  8
0
 10
97.2613
 20
24.309
 11
97.3054
 21
24.244
  0
LINE
  8
0
 10
97.3054
 20
24.244
 11
97.3454
 21
24.1764
  0
LINE
  8
0
 10
97.3454
 20
24.1764
 11
97.381
 21
24.1065
  0
LINE
  8
0
 10
97.381
 20
24.1065
 11
97.4122
 21
24.0344
  0
LINE
  8
0
 10
97.4122
 20
24.0344
 11
97.4388
 21
23.9605
  0
LINE
  8
0
 10
97.4388
 20
23.9605
 11
97.4607
 21
23.8851
  0
LINE
  8
0
 10
97.4607
 20
23.8851
 11
97.4778
 21
23.8085
  0
LINE
  8
0
 10
97.4778
 20
23.8085
 11
97.4901
 21
23.7309
  0
LINE
  8
0
 10
97.4901
 20
23.7309
 11
97.4975
 21
23.6527
  0
LINE
  8
0
 10
97.4975
 20
23.6527
 11
97.5
 21
23.5742
  0
LINE
  8
0
 10
97.5
 20
23.5742
 11
97.4975
 21
23.4958
  0
LINE
  8
0
 10
97.4975
 20
23.4958
 11
97.4901
 21
23.4176
  0
LINE
  8
0
 10
97.4901
 20
23.4176
 11
97.4778
 21
23.34
  0
LINE
  8
0
 10
97.4778
 20
23.34
 11
97.4607
 21
23.2634
  0
LINE
  8
0
 10
97.4607
 20
23.2634
 11
97.4388
 21
23.188
  0
LINE
  8
0
 10
97.4388
 20
23.188
 11
97.4122
 21
23.1141
  0
LINE
  8
0
 10
97.4122
 20
23.1141
 11
97.381
 21
23.042
  0
LINE
  8
0
 10
97.381
 20
23.042
 11
97.3454
 21
22.972
  0
LINE
  8
0
 10
97.3454
 20
22.972
 11
97.3054
 21
22.9045
  0
LINE
  8
0
 10
97.3054
 20
22.9045
 11
97.2613
 21
22.8395
  0
LINE
  8
0
 10
97.2613
 20
22.8395
 11
97.2131
 21
22.7775
  0
LINE
  8
0
 10
97.2131
 20
22.7775
 11
97.1612
 21
22.7186
  0
LINE
  8
0
 10
97.1612
 20
22.7186
 11
97.1057
 21
22.663
  0
LINE
  8
0
 10
97.1057
 20
22.663
 11
97.0468
 21
22.6111
  0
LINE
  8
0
 10
97.0468
 20
22.6111
 11
96.9847
 21
22.563
  0
LINE
  8
0
 10
96.9847
 20
22.563
 11
96.9198
 21
22.5188
  0
LINE
  8
0
 10
96.9198
 20
22.5188
 11
96.8522
 21
22.4789
  0
LINE
  8
0
 10
96.8522
 20
22.4789
 11
96.7822
 21
22.4432
  0
LINE
  8
0
 10
96.7822
 20
22.4432
 11
96.7101
 21
22.412
  0
LINE
  8
0
 10
96.7101
 20
22.412
 11
96.6363
 21
22.3854
  0
LINE
  8
0
 10
96.6363
 20
22.3854
 11
96.5609
 21
22.3635
  0
LINE
  8
0
 10
96.5609
 20
22.3635
 11
96.4842
 21
22.3464
  0
LINE
  8
0
 10
96.4842
 20
22.3464
 11
96.4067
 21
22.3341
  0
LINE
  8
0
 10
96.4067
 20
22.3341
 11
96.3285
 21
22.3267
  0
LINE
  8
0
 10
96.3285
 20
22.3267
 11
96.25
 21
22.3242
  0
LINE
  8
0
 10
96.25
 20
22.3242
 11
96.1715
 21
22.3267
  0
LINE
  8
0
 10
60.675
 20
10.5735
 11
60.675
 21
24.5735
  0
LINE
  8
0
 10
60.675
 20
24.5735
 11
74.675
 21
24.5735
  0
LINE
  8
0
 10
74.675
 20
24.5735
 11
74.675
 21
10.5735
  0
LINE
  8
0
 10
74.675
 20
10.5735
 11
60.675
 21
10.5735
  0
LINE
  8
0
 10
41.625
 20
8.28749
 11
41.625
 21
22.2875
  0
LINE
  8
0
 10
41.625
 20
22.2875
 11
55.625
 21
22.2875
  0
LINE
  8
0
 10
55.625
 20
22.2875
 11
55.625
 21
8.28749
  0
LINE
  8
0
 10
55.625
 20
8.28749
 11
41.625
 21
8.28749
  0
LINE
  8
0
 10
79.725
 20
8.28749
 11
79.725
 21
22.2875
  0
LINE
  8
0
 10
79.725
 20
22.2875
 11
93.725
 21
22.2875
  0
LINE
  8
0
 10
93.725
 20
22.2875
 11
93.725
 21
8.28749
  0
LINE
  8
0
 10
93.725
 20
8.28749
 11
79.725
 21
8.28749
  0
LINE
  8
0
 10
19.9715
 20
18.8025
 11
19.8933
 21
18.8098
  0
LINE
  8
0
 10
19.8933
 20
18.8098
 11
19.8158
 21
18.8221
  0
LINE
  8
0
 10
19.8158
 20
18.8221
 11
19.7391
 21
18.8393
  0
LINE
  8
0
 10
19.7391
 20
18.8393
 11
19.6637
 21
18.8612
  0
LINE
  8
0
 10
19.6637
 20
18.8612
 11
19.5898
 21
18.8878
  0
LINE
  8
0
 10
19.5898
 20
18.8878
 11
19.5178
 21
18.919
  0
LINE
  8
0
 10
19.5178
 20
18.919
 11
19.4478
 21
18.9546
  0
LINE
  8
0
 10
19.4478
 20
18.9546
 11
19.3802
 21
18.9946
  0
LINE
  8
0
 10
19.3802
 20
18.9946
 11
19.3153
 21
19.0387
  0
LINE
  8
0
 10
19.3153
 20
19.0387
 11
19.2532
 21
19.0869
  0
LINE
  8
0
 10
19.2532
 20
19.0869
 11
19.1943
 21
19.1388
  0
LINE
  8
0
 10
19.1943
 20
19.1388
 11
19.1388
 21
19.1943
  0
LINE
  8
0
 10
19.1388
 20
19.1943
 11
19.0869
 21
19.2532
  0
LINE
  8
0
 10
19.0869
 20
19.2532
 11
19.0387
 21
19.3153
  0
LINE
  8
0
 10
19.0387
 20
19.3153
 11
18.9946
 21
19.3802
  0
LINE
  8
0
 10
18.9946
 20
19.3802
 11
18.9546
 21
19.4478
  0
LINE
  8
0
 10
18.9546
 20
19.4478
 11
18.919
 21
19.5178
  0
LINE
  8
0
 10
18.919
 20
19.5178
 11
18.8878
 21
19.5898
  0
LINE
  8
0
 10
18.8878
 20
19.5898
 11
18.8612
 21
19.6637
  0
LINE
  8
0
 10
18.8612
 20
19.6637
 11
18.8393
 21
19.7391
  0
LINE
  8
0
 10
18.8393
 20
19.7391
 11
18.8221
 21
19.8158
  0
LINE
  8
0
 10
18.8221
 20
19.8158
 11
18.8098
 21
19.8933
  0
LINE
  8
0
 10
18.8098
 20
19.8933
 11
18.8025
 21
19.9715
  0
LINE
  8
0
 10
18.8025
 20
19.9715
 11
18.8
 21
20.05
  0
LINE
  8
0
 10
18.8
 20
20.05
 11
18.8025
 21
20.1285
  0
LINE
  8
0
 10
18.8025
 20
20.1285
 11
18.8098
 21
20.2067
  0
LINE
  8
0
 10
18.8098
 20
20.2067
 11
18.8221
 21
20.2842
  0
LINE
  8
0
 10
18.8221
 20
20.2842
 11
18.8393
 21
20.3609
  0
LINE
  8
0
 10
18.8393
 20
20.3609
 11
18.8612
 21
20.4363
  0
LINE
  8
0
 10
18.8612
 20
20.4363
 11
18.8878
 21
20.5101
  0
LINE
  8
0
 10
18.8878
 20
20.5101
 11
18.919
 21
20.5822
  0
LINE
  8
0
 10
18.919
 20
20.5822
 11
18.9546
 21
20.6522
  0
LINE
  8
0
 10
18.9546
 20
20.6522
 11
18.9946
 21
20.7198
  0
LINE
  8
0
 10
18.9946
 20
20.7198
 11
19.0387
 21
20.7847
  0
LINE
  8
0
 10
19.0387
 20
20.7847
 11
19.0869
 21
20.8468
  0
LINE
  8
0
 10
19.0869
 20
20.8468
 11
19.1388
 21
20.9057
  0
LINE
  8
0
 10
19.1388
 20
20.9057
 11
19.1943
 21
20.9612
  0
LINE
  8
0
 10
19.1943
 20
20.9612
 11
19.2532
 21
21.0131
  0
LINE
  8
0
 10
19.2532
 20
21.0131
 11
19.3153
 21
21.0613
  0
LINE
  8
0
 10
19.3153
 20
21.0613
 11
19.3802
 21
21.1054
  0
LINE
  8
0
 10
19.3802
 20
21.1054
 11
19.4478
 21
21.1454
  0
LINE
  8
0
 10
19.4478
 20
21.1454
 11
19.5178
 21
21.181
  0
LINE
  8
0
 10
19.5178
 20
21.181
 11
19.5898
 21
21.2122
  0
LINE
  8
0
 10
19.5898
 20
21.2122
 11
19.6637
 21
21.2388
  0
LINE
  8
0
 10
19.6637
 20
21.2388
 11
19.7391
 21
21.2607
  0
LINE
  8
0
 10
19.7391
 20
21.2607
 11
19.8158
 21
21.2778
  0
LINE
  8
0
 10
19.8158
 20
21.2778
 11
19.8933
 21
21.2901
  0
LINE
  8
0
 10
19.8933
 20
21.2901
 11
19.9715
 21
21.2975
  0
LINE
  8
0
 10
19.9715
 20
21.2975
 11
20.05
 21
21.3
  0
LINE
  8
0
 10
20.05
 20
21.3
 11
20.1285
 21
21.2975
  0
LINE
  8
0
 10
20.1285
 20
21.2975
 11
20.2067
 21
21.2901
  0
LINE
  8
0
 10
20.2067
 20
21.2901
 11
20.2842
 21
21.2778
  0
LINE
  8
0
 10
20.2842
 20
21.2778
 11
20.3609
 21
21.2607
  0
LINE
  8
0
 10
20.3609
 20
21.2607
 11
20.4363
 21
21.2388
  0
LINE
  8
0
 10
20.4363
 20
21.2388
 11
20.5101
 21
21.2122
  0
LINE
  8
0
 10
20.5101
 20
21.2122
 11
20.5822
 21
21.181
  0
LINE
  8
0
 10
20.5822
 20
21.181
 11
20.6522
 21
21.1454
  0
LINE
  8
0
 10
20.6522
 20
21.1454
 11
20.7198
 21
21.1054
  0
LINE
  8
0
 10
20.7198
 20
21.1054
 11
20.7847
 21
21.0613
  0
LINE
  8
0
 10
20.7847
 20
21.0613
 11
20.8468
 21
21.0131
  0
LINE
  8
0
 10
20.8468
 20
21.0131
 11
20.9057
 21
20.9612
  0
LINE
  8
0
 10
20.9057
 20
20.9612
 11
20.9612
 21
20.9057
  0
LINE
  8
0
 10
20.9612
 20
20.9057
 11
21.0131
 21
20.8468
  0
LINE
  8
0
 10
21.0131
 20
20.8468
 11
21.0613
 21
20.7847
  0
LINE
  8
0
 10
21.0613
 20
20.7847
 11
21.1054
 21
20.7198
  0
LINE
  8
0
 10
21.1054
 20
20.7198
 11
21.1454
 21
20.6522
  0
LINE
  8
0
 10
21.1454
 20
20.6522
 11
21.181
 21
20.5822
  0
LINE
  8
0
 10
21.181
 20
20.5822
 11
21.2122
 21
20.5101
  0
LINE
  8
0
 10
21.2122
 20
20.5101
 11
21.2388
 21
20.4363
  0
LINE
  8
0
 10
21.2388
 20
20.4363
 11
21.2607
 21
20.3609
  0
LINE
  8
0
 10
21.2607
 20
20.3609
 11
21.2778
 21
20.2842
  0
LINE
  8
0
 10
21.2778
 20
20.2842
 11
21.2901
 21
20.2067
  0
LINE
  8
0
 10
21.2901
 20
20.2067
 11
21.2975
 21
20.1285
  0
LINE
  8
0
 10
21.2975
 20
20.1285
 11
21.3
 21
20.05
  0
LINE
  8
0
 10
21.3
 20
20.05
 11
21.2975
 21
19.9715
  0
LINE
  8
0
 10
21.2975
 20
19.9715
 11
21.2901
 21
19.8933
  0
LINE
  8
0
 10
21.2901
 20
19.8933
 11
21.2778
 21
19.8158
  0
LINE
  8
0
 10
21.2778
 20
19.8158
 11
21.2607
 21
19.7391
  0
LINE
  8
0
 10
21.2607
 20
19.7391
 11
21.2388
 21
19.6637
  0
LINE
  8
0
 10
21.2388
 20
19.6637
 11
21.2122
 21
19.5898
  0
LINE
  8
0
 10
21.2122
 20
19.5898
 11
21.181
 21
19.5178
  0
LINE
  8
0
 10
21.181
 20
19.5178
 11
21.1454
 21
19.4478
  0
LINE
  8
0
 10
21.1454
 20
19.4478
 11
21.1054
 21
19.3802
  0
LINE
  8
0
 10
21.1054
 20
19.3802
 11
21.0613
 21
19.3153
  0
LINE
  8
0
 10
21.0613
 20
19.3153
 11
21.0131
 21
19.2532
  0
LINE
  8
0
 10
21.0131
 20
19.2532
 11
20.9612
 21
19.1943
  0
LINE
  8
0
 10
20.9612
 20
19.1943
 11
20.9057
 21
19.1388
  0
LINE
  8
0
 10
20.9057
 20
19.1388
 11
20.8468
 21
19.0869
  0
LINE
  8
0
 10
20.8468
 20
19.0869
 11
20.7847
 21
19.0387
  0
LINE
  8
0
 10
20.7847
 20
19.0387
 11
20.7198
 21
18.9946
  0
LINE
  8
0
 10
20.7198
 20
18.9946
 11
20.6522
 21
18.9546
  0
LINE
  8
0
 10
20.6522
 20
18.9546
 11
20.5822
 21
18.919
  0
LINE
  8
0
 10
20.5822
 20
18.919
 11
20.5101
 21
18.8878
  0
LINE
  8
0
 10
20.5101
 20
18.8878
 11
20.4363
 21
18.8612
  0
LINE
  8
0
 10
20.4363
 20
18.8612
 11
20.3609
 21
18.8393
  0
LINE
  8
0
 10
20.3609
 20
18.8393
 11
20.2842
 21
18.8221
  0
LINE
  8
0
 10
20.2842
 20
18.8221
 11
20.2067
 21
18.8098
  0
LINE
  8
0
 10
20.2067
 20
18.8098
 11
20.1285
 21
18.8025
  0
LINE
  8
0
 10
20.1285
 20
18.8025
 11
20.05
 21
18.8
  0
LINE
  8
0
 10
20.05
 20
18.8
 11
19.9715
 21
18.8025
  0
LINE
  8
0
 10
98.775
 20
5.81099
 11
98.775
 21
19.811
  0
LINE
  8
0
 10
98.775
 20
19.811
 11
112.775
 21
19.811
  0
LINE
  8
0
 10
112.775
 20
19.811
 11
112.775
 21
5.81099
  0
LINE
  8
0
 10
112.775
 20
5.81099
 11
98.775
 21
5.81099
  0
LINE
  8
0
 10
3.52499
 20
3.52499
 11
3.52499
 21
17.525
  0
LINE
  8
0
 10
3.52499
 20
17.525
 11
17.525
 21
17.525
  0
LINE
  8
0
 10
17.525
 20
17.525
 11
17.525
 21
3.52499
  0
LINE
  8
0
 10
17.525
 20
3.52499
 11
3.52499
 21
3.52499
  0
LINE
  8
0
 10
22.575
 20
3.52499
 11
22.575
 21
17.525
  0
LINE
  8
0
 10
22.575
 20
17.525
 11
36.575
 21
17.525
  0
LINE
  8
0
 10
36.575
 20
17.525
 11
36.575
 21
3.52499
  0
LINE
  8
0
 10
36.575
 20
3.52499
 11
22.575
 21
3.52499
  0
ENDSEC
  0
SECTION
  2
OBJECTS
  0
DICTIONARY
  0
ENDSEC
  0
EOF
