  0
SECTION
  2
BLOCKS
  0
ENDSEC
  0
SECTION
  2
ENTITIES
  0
LINE
  8
0
 10
20.2374
 20
0.0177155
 11
20.359
 21
0.0489502
  0
LINE
  8
0
 10
20.359
 20
0.0489502
 11
20.4758
 21
0.0951843
  0
LINE
  8
0
 10
20.4758
 20
0.0951843
 11
20.5858
 21
0.155685
  0
LINE
  8
0
 10
20.5858
 20
0.155685
 11
20.6874
 21
0.229492
  0
LINE
  8
0
 10
20.6874
 20
0.229492
 11
20.7789
 21
0.31546
  0
LINE
  8
0
 10
20.7789
 20
0.31546
 11
20.859
 21
0.412216
  0
LINE
  8
0
 10
20.859
 20
0.412216
 11
20.9263
 21
0.51825
  0
LINE
  8
0
 10
20.9263
 20
0.51825
 11
20.9798
 21
0.631882
  0
LINE
  8
0
 10
20.9798
 20
0.631882
 11
21.0186
 21
0.751312
  0
LINE
  8
0
 10
21.0186
 20
0.751312
 11
21.0421
 21
0.87468
  0
LINE
  8
0
 10
21.0421
 20
0.87468
 11
21.05
 21
1
  0
LINE
  8
0
 10
21.05
 20
1
 11
21.05
 21
2.38322
  0
LINE
  8
0
 10
21.05
 20
2.38322
 11
39.1628
 21
2.38322
  0
LINE
  8
0
 10
39.1628
 20
2.38322
 11
39.2874
 21
2.39896
  0
LINE
  8
0
 10
39.2874
 20
2.39896
 11
39.409
 21
2.43019
  0
LINE
  8
0
 10
39.409
 20
2.43019
 11
39.5258
 21
2.47643
  0
LINE
  8
0
 10
39.5258
 20
2.47643
 11
39.6358
 21
2.53693
  0
LINE
  8
0
 10
39.6358
 20
2.53693
 11
39.7374
 21
2.61073
  0
LINE
  8
0
 10
39.7374
 20
2.61073
 11
39.8289
 21
2.6967
  0
LINE
  8
0
 10
39.8289
 20
2.6967
 11
39.909
 21
2.79346
  0
LINE
  8
0
 10
39.909
 20
2.79346
 11
39.9763
 21
2.89949
  0
LINE
  8
0
 10
39.9763
 20
2.89949
 11
40.0298
 21
3.01312
  0
LINE
  8
0
 10
40.0298
 20
3.01312
 11
40.0686
 21
3.13255
  0
LINE
  8
0
 10
40.0686
 20
3.13255
 11
40.0921
 21
3.25592
  0
LINE
  8
0
 10
40.0921
 20
3.25592
 11
40.1
 21
3.38124
  0
LINE
  8
0
 10
40.1
 20
3.38124
 11
40.1
 21
27.1937
  0
LINE
  8
0
 10
40.1
 20
27.1937
 11
40.0921
 21
27.3191
  0
LINE
  8
0
 10
40.0921
 20
27.3191
 11
40.0686
 21
27.4424
  0
LINE
  8
0
 10
40.0686
 20
27.4424
 11
40.0298
 21
27.5619
  0
LINE
  8
0
 10
40.0298
 20
27.5619
 11
39.9763
 21
27.6755
  0
LINE
  8
0
 10
39.9763
 20
27.6755
 11
39.909
 21
27.7815
  0
LINE
  8
0
 10
39.909
 20
27.7815
 11
39.8289
 21
27.8783
  0
LINE
  8
0
 10
39.8289
 20
27.8783
 11
39.7374
 21
27.9642
  0
LINE
  8
0
 10
39.7374
 20
27.9642
 11
39.6358
 21
28.0381
  0
LINE
  8
0
 10
39.6358
 20
28.0381
 11
39.5258
 21
28.0986
  0
LINE
  8
0
 10
39.5258
 20
28.0986
 11
39.409
 21
28.1448
  0
LINE
  8
0
 10
39.409
 20
28.1448
 11
39.2874
 21
28.176
  0
LINE
  8
0
 10
39.2874
 20
28.176
 11
39.1628
 21
28.1918
  0
LINE
  8
0
 10
39.1628
 20
28.1918
 11
19.9872
 21
28.1918
  0
LINE
  8
0
 10
19.9872
 20
28.1918
 11
19.8626
 21
28.176
  0
LINE
  8
0
 10
19.8626
 20
28.176
 11
19.741
 21
28.1448
  0
LINE
  8
0
 10
19.741
 20
28.1448
 11
19.6242
 21
28.0986
  0
LINE
  8
0
 10
19.6242
 20
28.0986
 11
19.5142
 21
28.0381
  0
LINE
  8
0
 10
19.5142
 20
28.0381
 11
19.4126
 21
27.9642
  0
LINE
  8
0
 10
19.4126
 20
27.9642
 11
19.321
 21
27.8783
  0
LINE
  8
0
 10
19.321
 20
27.8783
 11
19.241
 21
27.7815
  0
LINE
  8
0
 10
19.241
 20
27.7815
 11
19.1737
 21
27.6755
  0
LINE
  8
0
 10
19.1737
 20
27.6755
 11
19.1202
 21
27.5619
  0
LINE
  8
0
 10
19.1202
 20
27.5619
 11
19.0814
 21
27.4424
  0
LINE
  8
0
 10
19.0814
 20
27.4424
 11
19.0579
 21
27.3191
  0
LINE
  8
0
 10
19.0579
 20
27.3191
 11
19.05
 21
27.1937
  0
LINE
  8
0
 10
19.05
 20
27.1937
 11
19.05
 21
25.8105
  0
LINE
  8
0
 10
19.05
 20
25.8105
 11
0.93721
 21
25.8105
  0
LINE
  8
0
 10
0.93721
 20
25.8105
 11
0.812622
 21
25.7948
  0
LINE
  8
0
 10
0.812622
 20
25.7948
 11
0.690994
 21
25.7635
  0
LINE
  8
0
 10
0.690994
 20
25.7635
 11
0.574234
 21
25.7173
  0
LINE
  8
0
 10
0.574234
 20
25.7173
 11
0.464188
 21
25.6568
  0
LINE
  8
0
 10
0.464188
 20
25.6568
 11
0.362579
 21
25.583
  0
LINE
  8
0
 10
0.362579
 20
25.583
 11
0.271042
 21
25.497
  0
LINE
  8
0
 10
0.271042
 20
25.497
 11
0.190994
 21
25.4003
  0
LINE
  8
0
 10
0.190994
 20
25.4003
 11
0.123703
 21
25.2943
  0
LINE
  8
0
 10
0.123703
 20
25.2943
 11
0.0702362
 21
25.1806
  0
LINE
  8
0
 10
0.0702362
 20
25.1806
 11
0.0314178
 21
25.0612
  0
LINE
  8
0
 10
0.0314178
 20
25.0612
 11
0.00788879
 21
24.9378
  0
LINE
  8
0
 10
0.00788879
 20
24.9378
 11
0
 21
24.8125
  0
LINE
  8
0
 10
0
 20
24.8125
 11
0
 21
1
  0
LINE
  8
0
 10
0
 20
1
 11
0.00788879
 21
0.87468
  0
LINE
  8
0
 10
0.00788879
 20
0.87468
 11
0.0314178
 21
0.751312
  0
LINE
  8
0
 10
0.0314178
 20
0.751312
 11
0.0702362
 21
0.631882
  0
LINE
  8
0
 10
0.0702362
 20
0.631882
 11
0.123703
 21
0.51825
  0
LINE
  8
0
 10
0.123703
 20
0.51825
 11
0.190994
 21
0.412216
  0
LINE
  8
0
 10
0.190994
 20
0.412216
 11
0.271042
 21
0.31546
  0
LINE
  8
0
 10
0.271042
 20
0.31546
 11
0.362579
 21
0.229492
  0
LINE
  8
0
 10
0.362579
 20
0.229492
 11
0.464188
 21
0.155685
  0
LINE
  8
0
 10
0.464188
 20
0.155685
 11
0.574234
 21
0.0951843
  0
LINE
  8
0
 10
0.574234
 20
0.0951843
 11
0.690994
 21
0.0489502
  0
LINE
  8
0
 10
0.690994
 20
0.0489502
 11
0.812622
 21
0.0177155
  0
LINE
  8
0
 10
0.812622
 20
0.0177155
 11
0.93721
 21
0.00198364
  0
LINE
  8
0
 10
0.93721
 20
0.00198364
 11
20.1128
 21
0.00198364
  0
LINE
  8
0
 10
20.1128
 20
0.00198364
 11
20.2374
 21
0.0177155
  0
LINE
  8
0
 10
19.9715
 20
22.3743
 11
19.8933
 21
22.3817
  0
LINE
  8
0
 10
19.8933
 20
22.3817
 11
19.8158
 21
22.394
  0
LINE
  8
0
 10
19.8158
 20
22.394
 11
19.7391
 21
22.4111
  0
LINE
  8
0
 10
19.7391
 20
22.4111
 11
19.6637
 21
22.433
  0
LINE
  8
0
 10
19.6637
 20
22.433
 11
19.5898
 21
22.4596
  0
LINE
  8
0
 10
19.5898
 20
22.4596
 11
19.5178
 21
22.4908
  0
LINE
  8
0
 10
19.5178
 20
22.4908
 11
19.4478
 21
22.5265
  0
LINE
  8
0
 10
19.4478
 20
22.5265
 11
19.3802
 21
22.5665
  0
LINE
  8
0
 10
19.3802
 20
22.5665
 11
19.3153
 21
22.6106
  0
LINE
  8
0
 10
19.3153
 20
22.6106
 11
19.2532
 21
22.6587
  0
LINE
  8
0
 10
19.2532
 20
22.6587
 11
19.1943
 21
22.7107
  0
LINE
  8
0
 10
19.1943
 20
22.7107
 11
19.1388
 21
22.7662
  0
LINE
  8
0
 10
19.1388
 20
22.7662
 11
19.0869
 21
22.8251
  0
LINE
  8
0
 10
19.0869
 20
22.8251
 11
19.0387
 21
22.8871
  0
LINE
  8
0
 10
19.0387
 20
22.8871
 11
18.9946
 21
22.9521
  0
LINE
  8
0
 10
18.9946
 20
22.9521
 11
18.9546
 21
23.0197
  0
LINE
  8
0
 10
18.9546
 20
23.0197
 11
18.919
 21
23.0896
  0
LINE
  8
0
 10
18.919
 20
23.0896
 11
18.8878
 21
23.1617
  0
LINE
  8
0
 10
18.8878
 20
23.1617
 11
18.8612
 21
23.2356
  0
LINE
  8
0
 10
18.8612
 20
23.2356
 11
18.8393
 21
23.311
  0
LINE
  8
0
 10
18.8393
 20
23.311
 11
18.8221
 21
23.3876
  0
LINE
  8
0
 10
18.8221
 20
23.3876
 11
18.8098
 21
23.4652
  0
LINE
  8
0
 10
18.8098
 20
23.4652
 11
18.8025
 21
23.5434
  0
LINE
  8
0
 10
18.8025
 20
23.5434
 11
18.8
 21
23.6219
  0
LINE
  8
0
 10
18.8
 20
23.6219
 11
18.8025
 21
23.7003
  0
LINE
  8
0
 10
18.8025
 20
23.7003
 11
18.8098
 21
23.7785
  0
LINE
  8
0
 10
18.8098
 20
23.7785
 11
18.8221
 21
23.8561
  0
LINE
  8
0
 10
18.8221
 20
23.8561
 11
18.8393
 21
23.9327
  0
LINE
  8
0
 10
18.8393
 20
23.9327
 11
18.8612
 21
24.0081
  0
LINE
  8
0
 10
18.8612
 20
24.0081
 11
18.8878
 21
24.082
  0
LINE
  8
0
 10
18.8878
 20
24.082
 11
18.919
 21
24.1541
  0
LINE
  8
0
 10
18.919
 20
24.1541
 11
18.9546
 21
24.2241
  0
LINE
  8
0
 10
18.9546
 20
24.2241
 11
18.9946
 21
24.2917
  0
LINE
  8
0
 10
18.9946
 20
24.2917
 11
19.0387
 21
24.3566
  0
LINE
  8
0
 10
19.0387
 20
24.3566
 11
19.0869
 21
24.4186
  0
LINE
  8
0
 10
19.0869
 20
24.4186
 11
19.1388
 21
24.4776
  0
LINE
  8
0
 10
19.1388
 20
24.4776
 11
19.1943
 21
24.5331
  0
LINE
  8
0
 10
19.1943
 20
24.5331
 11
19.2532
 21
24.585
  0
LINE
  8
0
 10
19.2532
 20
24.585
 11
19.3153
 21
24.6331
  0
LINE
  8
0
 10
19.3153
 20
24.6331
 11
19.3802
 21
24.6773
  0
LINE
  8
0
 10
19.3802
 20
24.6773
 11
19.4478
 21
24.7173
  0
LINE
  8
0
 10
19.4478
 20
24.7173
 11
19.5178
 21
24.7529
  0
LINE
  8
0
 10
19.5178
 20
24.7529
 11
19.5898
 21
24.7841
  0
LINE
  8
0
 10
19.5898
 20
24.7841
 11
19.6637
 21
24.8107
  0
LINE
  8
0
 10
19.6637
 20
24.8107
 11
19.7391
 21
24.8326
  0
LINE
  8
0
 10
19.7391
 20
24.8326
 11
19.8158
 21
24.8497
  0
LINE
  8
0
 10
19.8158
 20
24.8497
 11
19.8933
 21
24.862
  0
LINE
  8
0
 10
19.8933
 20
24.862
 11
19.9715
 21
24.8694
  0
LINE
  8
0
 10
19.9715
 20
24.8694
 11
20.05
 21
24.8719
  0
LINE
  8
0
 10
20.05
 20
24.8719
 11
20.1285
 21
24.8694
  0
LINE
  8
0
 10
20.1285
 20
24.8694
 11
20.2067
 21
24.862
  0
LINE
  8
0
 10
20.2067
 20
24.862
 11
20.2842
 21
24.8497
  0
LINE
  8
0
 10
20.2842
 20
24.8497
 11
20.3609
 21
24.8326
  0
LINE
  8
0
 10
20.3609
 20
24.8326
 11
20.4363
 21
24.8107
  0
LINE
  8
0
 10
20.4363
 20
24.8107
 11
20.5101
 21
24.7841
  0
LINE
  8
0
 10
20.5101
 20
24.7841
 11
20.5822
 21
24.7529
  0
LINE
  8
0
 10
20.5822
 20
24.7529
 11
20.6522
 21
24.7173
  0
LINE
  8
0
 10
20.6522
 20
24.7173
 11
20.7198
 21
24.6773
  0
LINE
  8
0
 10
20.7198
 20
24.6773
 11
20.7847
 21
24.6331
  0
LINE
  8
0
 10
20.7847
 20
24.6331
 11
20.8468
 21
24.585
  0
LINE
  8
0
 10
20.8468
 20
24.585
 11
20.9057
 21
24.5331
  0
LINE
  8
0
 10
20.9057
 20
24.5331
 11
20.9612
 21
24.4776
  0
LINE
  8
0
 10
20.9612
 20
24.4776
 11
21.0131
 21
24.4186
  0
LINE
  8
0
 10
21.0131
 20
24.4186
 11
21.0613
 21
24.3566
  0
LINE
  8
0
 10
21.0613
 20
24.3566
 11
21.1054
 21
24.2917
  0
LINE
  8
0
 10
21.1054
 20
24.2917
 11
21.1454
 21
24.2241
  0
LINE
  8
0
 10
21.1454
 20
24.2241
 11
21.181
 21
24.1541
  0
LINE
  8
0
 10
21.181
 20
24.1541
 11
21.2122
 21
24.082
  0
LINE
  8
0
 10
21.2122
 20
24.082
 11
21.2388
 21
24.0081
  0
LINE
  8
0
 10
21.2388
 20
24.0081
 11
21.2607
 21
23.9327
  0
LINE
  8
0
 10
21.2607
 20
23.9327
 11
21.2778
 21
23.8561
  0
LINE
  8
0
 10
21.2778
 20
23.8561
 11
21.2901
 21
23.7785
  0
LINE
  8
0
 10
21.2901
 20
23.7785
 11
21.2975
 21
23.7003
  0
LINE
  8
0
 10
21.2975
 20
23.7003
 11
21.3
 21
23.6219
  0
LINE
  8
0
 10
21.3
 20
23.6219
 11
21.2975
 21
23.5434
  0
LINE
  8
0
 10
21.2975
 20
23.5434
 11
21.2901
 21
23.4652
  0
LINE
  8
0
 10
21.2901
 20
23.4652
 11
21.2778
 21
23.3876
  0
LINE
  8
0
 10
21.2778
 20
23.3876
 11
21.2607
 21
23.311
  0
LINE
  8
0
 10
21.2607
 20
23.311
 11
21.2388
 21
23.2356
  0
LINE
  8
0
 10
21.2388
 20
23.2356
 11
21.2122
 21
23.1617
  0
LINE
  8
0
 10
21.2122
 20
23.1617
 11
21.181
 21
23.0896
  0
LINE
  8
0
 10
21.181
 20
23.0896
 11
21.1454
 21
23.0197
  0
LINE
  8
0
 10
21.1454
 20
23.0197
 11
21.1054
 21
22.9521
  0
LINE
  8
0
 10
21.1054
 20
22.9521
 11
21.0613
 21
22.8871
  0
LINE
  8
0
 10
21.0613
 20
22.8871
 11
21.0131
 21
22.8251
  0
LINE
  8
0
 10
21.0131
 20
22.8251
 11
20.9612
 21
22.7662
  0
LINE
  8
0
 10
20.9612
 20
22.7662
 11
20.9057
 21
22.7107
  0
LINE
  8
0
 10
20.9057
 20
22.7107
 11
20.8468
 21
22.6587
  0
LINE
  8
0
 10
20.8468
 20
22.6587
 11
20.7847
 21
22.6106
  0
LINE
  8
0
 10
20.7847
 20
22.6106
 11
20.7198
 21
22.5665
  0
LINE
  8
0
 10
20.7198
 20
22.5665
 11
20.6522
 21
22.5265
  0
LINE
  8
0
 10
20.6522
 20
22.5265
 11
20.5822
 21
22.4908
  0
LINE
  8
0
 10
20.5822
 20
22.4908
 11
20.5101
 21
22.4596
  0
LINE
  8
0
 10
20.5101
 20
22.4596
 11
20.4363
 21
22.433
  0
LINE
  8
0
 10
20.4363
 20
22.433
 11
20.3609
 21
22.4111
  0
LINE
  8
0
 10
20.3609
 20
22.4111
 11
20.2842
 21
22.394
  0
LINE
  8
0
 10
20.2842
 20
22.394
 11
20.2067
 21
22.3817
  0
LINE
  8
0
 10
20.2067
 20
22.3817
 11
20.1285
 21
22.3743
  0
LINE
  8
0
 10
20.1285
 20
22.3743
 11
20.05
 21
22.3719
  0
LINE
  8
0
 10
20.05
 20
22.3719
 11
19.9715
 21
22.3743
  0
LINE
  8
0
 10
22.575
 20
8.28749
 11
22.575
 21
22.2875
  0
LINE
  8
0
 10
22.575
 20
22.2875
 11
36.575
 21
22.2875
  0
LINE
  8
0
 10
36.575
 20
22.2875
 11
36.575
 21
8.28749
  0
LINE
  8
0
 10
36.575
 20
8.28749
 11
22.575
 21
8.28749
  0
LINE
  8
0
 10
3.52499
 20
5.90625
 11
3.52499
 21
19.9062
  0
LINE
  8
0
 10
3.52499
 20
19.9062
 11
17.525
 21
19.9062
  0
LINE
  8
0
 10
17.525
 20
19.9062
 11
17.525
 21
5.90625
  0
LINE
  8
0
 10
17.525
 20
5.90625
 11
3.52499
 21
5.90625
  0
LINE
  8
0
 10
19.9715
 20
3.32434
 11
19.8933
 21
3.33173
  0
LINE
  8
0
 10
19.8933
 20
3.33173
 11
19.8158
 21
3.34401
  0
LINE
  8
0
 10
19.8158
 20
3.34401
 11
19.7391
 21
3.36115
  0
LINE
  8
0
 10
19.7391
 20
3.36115
 11
19.6637
 21
3.38304
  0
LINE
  8
0
 10
19.6637
 20
3.38304
 11
19.5898
 21
3.40965
  0
LINE
  8
0
 10
19.5898
 20
3.40965
 11
19.5178
 21
3.44083
  0
LINE
  8
0
 10
19.5178
 20
3.44083
 11
19.4478
 21
3.47649
  0
LINE
  8
0
 10
19.4478
 20
3.47649
 11
19.3802
 21
3.51646
  0
LINE
  8
0
 10
19.3802
 20
3.51646
 11
19.3153
 21
3.56059
  0
LINE
  8
0
 10
19.3153
 20
3.56059
 11
19.2532
 21
3.60872
  0
LINE
  8
0
 10
19.2532
 20
3.60872
 11
19.1943
 21
3.66066
  0
LINE
  8
0
 10
19.1943
 20
3.66066
 11
19.1388
 21
3.71619
  0
LINE
  8
0
 10
19.1388
 20
3.71619
 11
19.0869
 21
3.77509
  0
LINE
  8
0
 10
19.0869
 20
3.77509
 11
19.0387
 21
3.83714
  0
LINE
  8
0
 10
19.0387
 20
3.83714
 11
18.9946
 21
3.90208
  0
LINE
  8
0
 10
18.9946
 20
3.90208
 11
18.9546
 21
3.96968
  0
LINE
  8
0
 10
18.9546
 20
3.96968
 11
18.919
 21
4.03964
  0
LINE
  8
0
 10
18.919
 20
4.03964
 11
18.8878
 21
4.11171
  0
LINE
  8
0
 10
18.8878
 20
4.11171
 11
18.8612
 21
4.18559
  0
LINE
  8
0
 10
18.8612
 20
4.18559
 11
18.8393
 21
4.261
  0
LINE
  8
0
 10
18.8393
 20
4.261
 11
18.8221
 21
4.33765
  0
LINE
  8
0
 10
18.8221
 20
4.33765
 11
18.8098
 21
4.41521
  0
LINE
  8
0
 10
18.8098
 20
4.41521
 11
18.8025
 21
4.49338
  0
LINE
  8
0
 10
18.8025
 20
4.49338
 11
18.8
 21
4.57187
  0
LINE
  8
0
 10
18.8
 20
4.57187
 11
18.8025
 21
4.65036
  0
LINE
  8
0
 10
18.8025
 20
4.65036
 11
18.8098
 21
4.72853
  0
LINE
  8
0
 10
18.8098
 20
4.72853
 11
18.8221
 21
4.80609
  0
LINE
  8
0
 10
18.8221
 20
4.80609
 11
18.8393
 21
4.88274
  0
LINE
  8
0
 10
18.8393
 20
4.88274
 11
18.8612
 21
4.95815
  0
LINE
  8
0
 10
18.8612
 20
4.95815
 11
18.8878
 21
5.03203
  0
LINE
  8
0
 10
18.8878
 20
5.03203
 11
18.919
 21
5.1041
  0
LINE
  8
0
 10
18.919
 20
5.1041
 11
18.9546
 21
5.17406
  0
LINE
  8
0
 10
18.9546
 20
5.17406
 11
18.9946
 21
5.24165
  0
LINE
  8
0
 10
18.9946
 20
5.24165
 11
19.0387
 21
5.30659
  0
LINE
  8
0
 10
19.0387
 20
5.30659
 11
19.0869
 21
5.36865
  0
LINE
  8
0
 10
19.0869
 20
5.36865
 11
19.1388
 21
5.42755
  0
LINE
  8
0
 10
19.1388
 20
5.42755
 11
19.1943
 21
5.48308
  0
LINE
  8
0
 10
19.1943
 20
5.48308
 11
19.2532
 21
5.535
  0
LINE
  8
0
 10
19.2532
 20
5.535
 11
19.3153
 21
5.58315
  0
LINE
  8
0
 10
19.3153
 20
5.58315
 11
19.3802
 21
5.62727
  0
LINE
  8
0
 10
19.3802
 20
5.62727
 11
19.4478
 21
5.66725
  0
LINE
  8
0
 10
19.4478
 20
5.66725
 11
19.5178
 21
5.7029
  0
LINE
  8
0
 10
19.5178
 20
5.7029
 11
19.5898
 21
5.73409
  0
LINE
  8
0
 10
19.5898
 20
5.73409
 11
19.6637
 21
5.76068
  0
LINE
  8
0
 10
19.6637
 20
5.76068
 11
19.7391
 21
5.78259
  0
LINE
  8
0
 10
19.7391
 20
5.78259
 11
19.8158
 21
5.79973
  0
LINE
  8
0
 10
19.8158
 20
5.79973
 11
19.8933
 21
5.81201
  0
LINE
  8
0
 10
19.8933
 20
5.81201
 11
19.9715
 21
5.8194
  0
LINE
  8
0
 10
19.9715
 20
5.8194
 11
20.05
 21
5.82187
  0
LINE
  8
0
 10
20.05
 20
5.82187
 11
20.1285
 21
5.8194
  0
LINE
  8
0
 10
20.1285
 20
5.8194
 11
20.2067
 21
5.81201
  0
LINE
  8
0
 10
20.2067
 20
5.81201
 11
20.2842
 21
5.79973
  0
LINE
  8
0
 10
20.2842
 20
5.79973
 11
20.3609
 21
5.78259
  0
LINE
  8
0
 10
20.3609
 20
5.78259
 11
20.4363
 21
5.76068
  0
LINE
  8
0
 10
20.4363
 20
5.76068
 11
20.5101
 21
5.73409
  0
LINE
  8
0
 10
20.5101
 20
5.73409
 11
20.5822
 21
5.7029
  0
LINE
  8
0
 10
20.5822
 20
5.7029
 11
20.6522
 21
5.66725
  0
LINE
  8
0
 10
20.6522
 20
5.66725
 11
20.7198
 21
5.62727
  0
LINE
  8
0
 10
20.7198
 20
5.62727
 11
20.7847
 21
5.58315
  0
LINE
  8
0
 10
20.7847
 20
5.58315
 11
20.8468
 21
5.535
  0
LINE
  8
0
 10
20.8468
 20
5.535
 11
20.9057
 21
5.48308
  0
LINE
  8
0
 10
20.9057
 20
5.48308
 11
20.9612
 21
5.42755
  0
LINE
  8
0
 10
20.9612
 20
5.42755
 11
21.0131
 21
5.36865
  0
LINE
  8
0
 10
21.0131
 20
5.36865
 11
21.0613
 21
5.30659
  0
LINE
  8
0
 10
21.0613
 20
5.30659
 11
21.1054
 21
5.24165
  0
LINE
  8
0
 10
21.1054
 20
5.24165
 11
21.1454
 21
5.17406
  0
LINE
  8
0
 10
21.1454
 20
5.17406
 11
21.181
 21
5.1041
  0
LINE
  8
0
 10
21.181
 20
5.1041
 11
21.2122
 21
5.03203
  0
LINE
  8
0
 10
21.2122
 20
5.03203
 11
21.2388
 21
4.95815
  0
LINE
  8
0
 10
21.2388
 20
4.95815
 11
21.2607
 21
4.88274
  0
LINE
  8
0
 10
21.2607
 20
4.88274
 11
21.2778
 21
4.80609
  0
LINE
  8
0
 10
21.2778
 20
4.80609
 11
21.2901
 21
4.72853
  0
LINE
  8
0
 10
21.2901
 20
4.72853
 11
21.2975
 21
4.65036
  0
LINE
  8
0
 10
21.2975
 20
4.65036
 11
21.3
 21
4.57187
  0
LINE
  8
0
 10
21.3
 20
4.57187
 11
21.2975
 21
4.49338
  0
LINE
  8
0
 10
21.2975
 20
4.49338
 11
21.2901
 21
4.41521
  0
LINE
  8
0
 10
21.2901
 20
4.41521
 11
21.2778
 21
4.33765
  0
LINE
  8
0
 10
21.2778
 20
4.33765
 11
21.2607
 21
4.261
  0
LINE
  8
0
 10
21.2607
 20
4.261
 11
21.2388
 21
4.18559
  0
LINE
  8
0
 10
21.2388
 20
4.18559
 11
21.2122
 21
4.11171
  0
LINE
  8
0
 10
21.2122
 20
4.11171
 11
21.181
 21
4.03964
  0
LINE
  8
0
 10
21.181
 20
4.03964
 11
21.1454
 21
3.96968
  0
LINE
  8
0
 10
21.1454
 20
3.96968
 11
21.1054
 21
3.90208
  0
LINE
  8
0
 10
21.1054
 20
3.90208
 11
21.0613
 21
3.83714
  0
LINE
  8
0
 10
21.0613
 20
3.83714
 11
21.0131
 21
3.77509
  0
LINE
  8
0
 10
21.0131
 20
3.77509
 11
20.9612
 21
3.71619
  0
LINE
  8
0
 10
20.9612
 20
3.71619
 11
20.9057
 21
3.66066
  0
LINE
  8
0
 10
20.9057
 20
3.66066
 11
20.8468
 21
3.60872
  0
LINE
  8
0
 10
20.8468
 20
3.60872
 11
20.7847
 21
3.56059
  0
LINE
  8
0
 10
20.7847
 20
3.56059
 11
20.7198
 21
3.51646
  0
LINE
  8
0
 10
20.7198
 20
3.51646
 11
20.6522
 21
3.47649
  0
LINE
  8
0
 10
20.6522
 20
3.47649
 11
20.5822
 21
3.44083
  0
LINE
  8
0
 10
20.5822
 20
3.44083
 11
20.5101
 21
3.40965
  0
LINE
  8
0
 10
20.5101
 20
3.40965
 11
20.4363
 21
3.38304
  0
LINE
  8
0
 10
20.4363
 20
3.38304
 11
20.3609
 21
3.36115
  0
LINE
  8
0
 10
20.3609
 20
3.36115
 11
20.2842
 21
3.34401
  0
LINE
  8
0
 10
20.2842
 20
3.34401
 11
20.2067
 21
3.33173
  0
LINE
  8
0
 10
20.2067
 20
3.33173
 11
20.1285
 21
3.32434
  0
LINE
  8
0
 10
20.1285
 20
3.32434
 11
20.05
 21
3.32187
  0
LINE
  8
0
 10
20.05
 20
3.32187
 11
19.9715
 21
3.32434
  0
ENDSEC
  0
SECTION
  2
OBJECTS
  0
DICTIONARY
  0
ENDSEC
  0
EOF
