G04 #@! TF.GenerationSoftware,KiCad,Pcbnew,(5.1.0)-1*
G04 #@! TF.CreationDate,2020-09-29T23:23:54+10:00*
G04 #@! TF.ProjectId,oddball,6f646462-616c-46c2-9e6b-696361645f70,rev?*
G04 #@! TF.SameCoordinates,Original*
G04 #@! TF.FileFunction,Soldermask,Top*
G04 #@! TF.FilePolarity,Negative*
%FSLAX46Y46*%
G04 Gerber Fmt 4.6, Leading zero omitted, Abs format (unit mm)*
G04 Created by KiCad (PCBNEW (5.1.0)-1) date 2020-09-29 23:23:54*
%MOMM*%
%LPD*%
G04 APERTURE LIST*
%ADD10C,0.100000*%
G04 APERTURE END LIST*
D10*
G36*
X100186474Y-107503684D02*
G01*
X100404474Y-107593983D01*
X100558623Y-107657833D01*
X100893548Y-107881623D01*
X101178377Y-108166452D01*
X101402167Y-108501377D01*
X101403066Y-108503548D01*
X101556316Y-108873526D01*
X101634900Y-109268594D01*
X101634900Y-109671406D01*
X101556316Y-110066474D01*
X101466017Y-110284474D01*
X101402167Y-110438623D01*
X101178377Y-110773548D01*
X100893548Y-111058377D01*
X100558623Y-111282167D01*
X100404474Y-111346017D01*
X100186474Y-111436316D01*
X99791406Y-111514900D01*
X99388594Y-111514900D01*
X98993526Y-111436316D01*
X98775526Y-111346017D01*
X98621377Y-111282167D01*
X98286452Y-111058377D01*
X98001623Y-110773548D01*
X97777833Y-110438623D01*
X97713983Y-110284474D01*
X97623684Y-110066474D01*
X97545100Y-109671406D01*
X97545100Y-109268594D01*
X97623684Y-108873526D01*
X97776934Y-108503548D01*
X97777833Y-108501377D01*
X98001623Y-108166452D01*
X98286452Y-107881623D01*
X98621377Y-107657833D01*
X98775526Y-107593983D01*
X98993526Y-107503684D01*
X99388594Y-107425100D01*
X99791406Y-107425100D01*
X100186474Y-107503684D01*
X100186474Y-107503684D01*
G37*
G36*
X81116474Y-107503684D02*
G01*
X81334474Y-107593983D01*
X81488623Y-107657833D01*
X81823548Y-107881623D01*
X82108377Y-108166452D01*
X82332167Y-108501377D01*
X82333066Y-108503548D01*
X82486316Y-108873526D01*
X82564900Y-109268594D01*
X82564900Y-109671406D01*
X82486316Y-110066474D01*
X82396017Y-110284474D01*
X82332167Y-110438623D01*
X82108377Y-110773548D01*
X81823548Y-111058377D01*
X81488623Y-111282167D01*
X81334474Y-111346017D01*
X81116474Y-111436316D01*
X80721406Y-111514900D01*
X80318594Y-111514900D01*
X79923526Y-111436316D01*
X79705526Y-111346017D01*
X79551377Y-111282167D01*
X79216452Y-111058377D01*
X78931623Y-110773548D01*
X78707833Y-110438623D01*
X78643983Y-110284474D01*
X78553684Y-110066474D01*
X78475100Y-109671406D01*
X78475100Y-109268594D01*
X78553684Y-108873526D01*
X78706934Y-108503548D01*
X78707833Y-108501377D01*
X78931623Y-108166452D01*
X79216452Y-107881623D01*
X79551377Y-107657833D01*
X79705526Y-107593983D01*
X79923526Y-107503684D01*
X80318594Y-107425100D01*
X80721406Y-107425100D01*
X81116474Y-107503684D01*
X81116474Y-107503684D01*
G37*
G36*
X176366474Y-105233684D02*
G01*
X176578200Y-105321384D01*
X176738623Y-105387833D01*
X177073548Y-105611623D01*
X177358377Y-105896452D01*
X177582167Y-106231377D01*
X177582167Y-106231378D01*
X177736316Y-106603526D01*
X177814900Y-106998594D01*
X177814900Y-107401406D01*
X177736316Y-107796474D01*
X177709429Y-107861384D01*
X177582167Y-108168623D01*
X177358377Y-108503548D01*
X177073548Y-108788377D01*
X176738623Y-109012167D01*
X176584474Y-109076017D01*
X176366474Y-109166316D01*
X175971406Y-109244900D01*
X175568594Y-109244900D01*
X175173526Y-109166316D01*
X174955526Y-109076017D01*
X174801377Y-109012167D01*
X174466452Y-108788377D01*
X174181623Y-108503548D01*
X173957833Y-108168623D01*
X173830571Y-107861384D01*
X173803684Y-107796474D01*
X173725100Y-107401406D01*
X173725100Y-106998594D01*
X173803684Y-106603526D01*
X173957833Y-106231378D01*
X173957833Y-106231377D01*
X174181623Y-105896452D01*
X174466452Y-105611623D01*
X174801377Y-105387833D01*
X174961800Y-105321384D01*
X175173526Y-105233684D01*
X175568594Y-105155100D01*
X175971406Y-105155100D01*
X176366474Y-105233684D01*
X176366474Y-105233684D01*
G37*
G36*
X103706564Y-105919389D02*
G01*
X103897833Y-105998615D01*
X103897835Y-105998616D01*
X103920182Y-106013548D01*
X104069973Y-106113635D01*
X104216365Y-106260027D01*
X104331385Y-106432167D01*
X104410611Y-106623436D01*
X104451000Y-106826484D01*
X104451000Y-107033516D01*
X104410611Y-107236564D01*
X104342332Y-107401405D01*
X104331384Y-107427835D01*
X104216365Y-107599973D01*
X104069973Y-107746365D01*
X103897835Y-107861384D01*
X103897834Y-107861385D01*
X103897833Y-107861385D01*
X103706564Y-107940611D01*
X103503516Y-107981000D01*
X103296484Y-107981000D01*
X103093436Y-107940611D01*
X102902167Y-107861385D01*
X102902166Y-107861385D01*
X102902165Y-107861384D01*
X102730027Y-107746365D01*
X102583635Y-107599973D01*
X102468616Y-107427835D01*
X102457668Y-107401405D01*
X102389389Y-107236564D01*
X102349000Y-107033516D01*
X102349000Y-106826484D01*
X102389389Y-106623436D01*
X102468615Y-106432167D01*
X102583635Y-106260027D01*
X102730027Y-106113635D01*
X102879818Y-106013548D01*
X102902165Y-105998616D01*
X102902167Y-105998615D01*
X103093436Y-105919389D01*
X103296484Y-105879000D01*
X103503516Y-105879000D01*
X103706564Y-105919389D01*
X103706564Y-105919389D01*
G37*
G36*
X77016564Y-105919389D02*
G01*
X77207833Y-105998615D01*
X77207835Y-105998616D01*
X77230182Y-106013548D01*
X77379973Y-106113635D01*
X77526365Y-106260027D01*
X77641385Y-106432167D01*
X77720611Y-106623436D01*
X77761000Y-106826484D01*
X77761000Y-107033516D01*
X77720611Y-107236564D01*
X77652332Y-107401405D01*
X77641384Y-107427835D01*
X77526365Y-107599973D01*
X77379973Y-107746365D01*
X77207835Y-107861384D01*
X77207834Y-107861385D01*
X77207833Y-107861385D01*
X77016564Y-107940611D01*
X76813516Y-107981000D01*
X76606484Y-107981000D01*
X76403436Y-107940611D01*
X76212167Y-107861385D01*
X76212166Y-107861385D01*
X76212165Y-107861384D01*
X76040027Y-107746365D01*
X75893635Y-107599973D01*
X75778616Y-107427835D01*
X75767668Y-107401405D01*
X75699389Y-107236564D01*
X75659000Y-107033516D01*
X75659000Y-106826484D01*
X75699389Y-106623436D01*
X75778615Y-106432167D01*
X75893635Y-106260027D01*
X76040027Y-106113635D01*
X76189818Y-106013548D01*
X76212165Y-105998616D01*
X76212167Y-105998615D01*
X76403436Y-105919389D01*
X76606484Y-105879000D01*
X76813516Y-105879000D01*
X77016564Y-105919389D01*
X77016564Y-105919389D01*
G37*
G36*
X96086564Y-105919389D02*
G01*
X96277833Y-105998615D01*
X96277835Y-105998616D01*
X96300182Y-106013548D01*
X96449973Y-106113635D01*
X96596365Y-106260027D01*
X96711385Y-106432167D01*
X96790611Y-106623436D01*
X96831000Y-106826484D01*
X96831000Y-107033516D01*
X96790611Y-107236564D01*
X96722332Y-107401405D01*
X96711384Y-107427835D01*
X96596365Y-107599973D01*
X96449973Y-107746365D01*
X96277835Y-107861384D01*
X96277834Y-107861385D01*
X96277833Y-107861385D01*
X96086564Y-107940611D01*
X95883516Y-107981000D01*
X95676484Y-107981000D01*
X95473436Y-107940611D01*
X95282167Y-107861385D01*
X95282166Y-107861385D01*
X95282165Y-107861384D01*
X95110027Y-107746365D01*
X94963635Y-107599973D01*
X94848616Y-107427835D01*
X94837668Y-107401405D01*
X94769389Y-107236564D01*
X94729000Y-107033516D01*
X94729000Y-106826484D01*
X94769389Y-106623436D01*
X94848615Y-106432167D01*
X94963635Y-106260027D01*
X95110027Y-106113635D01*
X95259818Y-106013548D01*
X95282165Y-105998616D01*
X95282167Y-105998615D01*
X95473436Y-105919389D01*
X95676484Y-105879000D01*
X95883516Y-105879000D01*
X96086564Y-105919389D01*
X96086564Y-105919389D01*
G37*
G36*
X84636564Y-105919389D02*
G01*
X84827833Y-105998615D01*
X84827835Y-105998616D01*
X84850182Y-106013548D01*
X84999973Y-106113635D01*
X85146365Y-106260027D01*
X85261385Y-106432167D01*
X85340611Y-106623436D01*
X85381000Y-106826484D01*
X85381000Y-107033516D01*
X85340611Y-107236564D01*
X85272332Y-107401405D01*
X85261384Y-107427835D01*
X85146365Y-107599973D01*
X84999973Y-107746365D01*
X84827835Y-107861384D01*
X84827834Y-107861385D01*
X84827833Y-107861385D01*
X84636564Y-107940611D01*
X84433516Y-107981000D01*
X84226484Y-107981000D01*
X84023436Y-107940611D01*
X83832167Y-107861385D01*
X83832166Y-107861385D01*
X83832165Y-107861384D01*
X83660027Y-107746365D01*
X83513635Y-107599973D01*
X83398616Y-107427835D01*
X83387668Y-107401405D01*
X83319389Y-107236564D01*
X83279000Y-107033516D01*
X83279000Y-106826484D01*
X83319389Y-106623436D01*
X83398615Y-106432167D01*
X83513635Y-106260027D01*
X83660027Y-106113635D01*
X83809818Y-106013548D01*
X83832165Y-105998616D01*
X83832167Y-105998615D01*
X84023436Y-105919389D01*
X84226484Y-105879000D01*
X84433516Y-105879000D01*
X84636564Y-105919389D01*
X84636564Y-105919389D01*
G37*
G36*
X157316474Y-102743684D02*
G01*
X157524794Y-102829973D01*
X157688623Y-102897833D01*
X158023548Y-103121623D01*
X158308377Y-103406452D01*
X158532167Y-103741377D01*
X158532167Y-103741378D01*
X158686316Y-104113526D01*
X158764900Y-104508594D01*
X158764900Y-104911406D01*
X158686316Y-105306474D01*
X158647323Y-105400611D01*
X158532167Y-105678623D01*
X158308377Y-106013548D01*
X158023548Y-106298377D01*
X157688623Y-106522167D01*
X157534474Y-106586017D01*
X157316474Y-106676316D01*
X156921406Y-106754900D01*
X156518594Y-106754900D01*
X156123526Y-106676316D01*
X155905526Y-106586017D01*
X155751377Y-106522167D01*
X155416452Y-106298377D01*
X155131623Y-106013548D01*
X154907833Y-105678623D01*
X154792677Y-105400611D01*
X154753684Y-105306474D01*
X154675100Y-104911406D01*
X154675100Y-104508594D01*
X154753684Y-104113526D01*
X154907833Y-103741378D01*
X154907833Y-103741377D01*
X155131623Y-103406452D01*
X155416452Y-103121623D01*
X155751377Y-102897833D01*
X155915206Y-102829973D01*
X156123526Y-102743684D01*
X156518594Y-102665100D01*
X156921406Y-102665100D01*
X157316474Y-102743684D01*
X157316474Y-102743684D01*
G37*
G36*
X119216474Y-102733684D02*
G01*
X119434474Y-102823983D01*
X119588623Y-102887833D01*
X119923548Y-103111623D01*
X120208377Y-103396452D01*
X120432167Y-103731377D01*
X120496017Y-103885526D01*
X120586316Y-104103526D01*
X120664900Y-104498594D01*
X120664900Y-104901406D01*
X120586316Y-105296474D01*
X120496017Y-105514474D01*
X120432167Y-105668623D01*
X120208377Y-106003548D01*
X119923548Y-106288377D01*
X119588623Y-106512167D01*
X119434474Y-106576017D01*
X119216474Y-106666316D01*
X118821406Y-106744900D01*
X118418594Y-106744900D01*
X118023526Y-106666316D01*
X117805526Y-106576017D01*
X117651377Y-106512167D01*
X117316452Y-106288377D01*
X117031623Y-106003548D01*
X116807833Y-105668623D01*
X116743983Y-105514474D01*
X116653684Y-105296474D01*
X116575100Y-104901406D01*
X116575100Y-104498594D01*
X116653684Y-104103526D01*
X116743983Y-103885526D01*
X116807833Y-103731377D01*
X117031623Y-103396452D01*
X117316452Y-103111623D01*
X117651377Y-102887833D01*
X117805526Y-102823983D01*
X118023526Y-102733684D01*
X118418594Y-102655100D01*
X118821406Y-102655100D01*
X119216474Y-102733684D01*
X119216474Y-102733684D01*
G37*
G36*
X149381000Y-106071000D02*
G01*
X147579000Y-106071000D01*
X147579000Y-104269000D01*
X149381000Y-104269000D01*
X149381000Y-106071000D01*
X149381000Y-106071000D01*
G37*
G36*
X146841000Y-106071000D02*
G01*
X145039000Y-106071000D01*
X145039000Y-104269000D01*
X146841000Y-104269000D01*
X146841000Y-106071000D01*
X146841000Y-106071000D01*
G37*
G36*
X172266564Y-103649389D02*
G01*
X172445600Y-103723548D01*
X172457835Y-103728616D01*
X172629973Y-103843635D01*
X172776365Y-103990027D01*
X172852203Y-104103526D01*
X172891385Y-104162167D01*
X172970611Y-104353436D01*
X173011000Y-104556484D01*
X173011000Y-104763516D01*
X172970611Y-104966564D01*
X172892517Y-105155100D01*
X172891384Y-105157835D01*
X172776365Y-105329973D01*
X172629973Y-105476365D01*
X172457835Y-105591384D01*
X172457834Y-105591385D01*
X172457833Y-105591385D01*
X172266564Y-105670611D01*
X172063516Y-105711000D01*
X171856484Y-105711000D01*
X171653436Y-105670611D01*
X171462167Y-105591385D01*
X171462166Y-105591385D01*
X171462165Y-105591384D01*
X171290027Y-105476365D01*
X171143635Y-105329973D01*
X171028616Y-105157835D01*
X171027483Y-105155100D01*
X170949389Y-104966564D01*
X170909000Y-104763516D01*
X170909000Y-104556484D01*
X170949389Y-104353436D01*
X171028615Y-104162167D01*
X171067798Y-104103526D01*
X171143635Y-103990027D01*
X171290027Y-103843635D01*
X171462165Y-103728616D01*
X171474400Y-103723548D01*
X171653436Y-103649389D01*
X171856484Y-103609000D01*
X172063516Y-103609000D01*
X172266564Y-103649389D01*
X172266564Y-103649389D01*
G37*
G36*
X179886564Y-103649389D02*
G01*
X180065600Y-103723548D01*
X180077835Y-103728616D01*
X180249973Y-103843635D01*
X180396365Y-103990027D01*
X180472203Y-104103526D01*
X180511385Y-104162167D01*
X180590611Y-104353436D01*
X180631000Y-104556484D01*
X180631000Y-104763516D01*
X180590611Y-104966564D01*
X180512517Y-105155100D01*
X180511384Y-105157835D01*
X180396365Y-105329973D01*
X180249973Y-105476365D01*
X180077835Y-105591384D01*
X180077834Y-105591385D01*
X180077833Y-105591385D01*
X179886564Y-105670611D01*
X179683516Y-105711000D01*
X179476484Y-105711000D01*
X179273436Y-105670611D01*
X179082167Y-105591385D01*
X179082166Y-105591385D01*
X179082165Y-105591384D01*
X178910027Y-105476365D01*
X178763635Y-105329973D01*
X178648616Y-105157835D01*
X178647483Y-105155100D01*
X178569389Y-104966564D01*
X178529000Y-104763516D01*
X178529000Y-104556484D01*
X178569389Y-104353436D01*
X178648615Y-104162167D01*
X178687798Y-104103526D01*
X178763635Y-103990027D01*
X178910027Y-103843635D01*
X179082165Y-103728616D01*
X179094400Y-103723548D01*
X179273436Y-103649389D01*
X179476484Y-103609000D01*
X179683516Y-103609000D01*
X179886564Y-103649389D01*
X179886564Y-103649389D01*
G37*
G36*
X102436564Y-103379389D02*
G01*
X102627833Y-103458615D01*
X102627835Y-103458616D01*
X102799973Y-103573635D01*
X102946365Y-103720027D01*
X102953950Y-103731378D01*
X103061385Y-103892167D01*
X103140611Y-104083436D01*
X103181000Y-104286484D01*
X103181000Y-104493516D01*
X103140611Y-104696564D01*
X103061385Y-104887833D01*
X103061384Y-104887835D01*
X102946365Y-105059973D01*
X102799973Y-105206365D01*
X102627835Y-105321384D01*
X102627834Y-105321385D01*
X102627833Y-105321385D01*
X102436564Y-105400611D01*
X102233516Y-105441000D01*
X102026484Y-105441000D01*
X101823436Y-105400611D01*
X101632167Y-105321385D01*
X101632166Y-105321385D01*
X101632165Y-105321384D01*
X101460027Y-105206365D01*
X101313635Y-105059973D01*
X101198616Y-104887835D01*
X101198615Y-104887833D01*
X101119389Y-104696564D01*
X101079000Y-104493516D01*
X101079000Y-104286484D01*
X101119389Y-104083436D01*
X101198615Y-103892167D01*
X101306051Y-103731378D01*
X101313635Y-103720027D01*
X101460027Y-103573635D01*
X101632165Y-103458616D01*
X101632167Y-103458615D01*
X101823436Y-103379389D01*
X102026484Y-103339000D01*
X102233516Y-103339000D01*
X102436564Y-103379389D01*
X102436564Y-103379389D01*
G37*
G36*
X83366564Y-103379389D02*
G01*
X83557833Y-103458615D01*
X83557835Y-103458616D01*
X83729973Y-103573635D01*
X83876365Y-103720027D01*
X83883950Y-103731378D01*
X83991385Y-103892167D01*
X84070611Y-104083436D01*
X84111000Y-104286484D01*
X84111000Y-104493516D01*
X84070611Y-104696564D01*
X83991385Y-104887833D01*
X83991384Y-104887835D01*
X83876365Y-105059973D01*
X83729973Y-105206365D01*
X83557835Y-105321384D01*
X83557834Y-105321385D01*
X83557833Y-105321385D01*
X83366564Y-105400611D01*
X83163516Y-105441000D01*
X82956484Y-105441000D01*
X82753436Y-105400611D01*
X82562167Y-105321385D01*
X82562166Y-105321385D01*
X82562165Y-105321384D01*
X82390027Y-105206365D01*
X82243635Y-105059973D01*
X82128616Y-104887835D01*
X82128615Y-104887833D01*
X82049389Y-104696564D01*
X82009000Y-104493516D01*
X82009000Y-104286484D01*
X82049389Y-104083436D01*
X82128615Y-103892167D01*
X82236051Y-103731378D01*
X82243635Y-103720027D01*
X82390027Y-103573635D01*
X82562165Y-103458616D01*
X82562167Y-103458615D01*
X82753436Y-103379389D01*
X82956484Y-103339000D01*
X83163516Y-103339000D01*
X83366564Y-103379389D01*
X83366564Y-103379389D01*
G37*
G36*
X78286564Y-103379389D02*
G01*
X78477833Y-103458615D01*
X78477835Y-103458616D01*
X78649973Y-103573635D01*
X78796365Y-103720027D01*
X78803950Y-103731378D01*
X78911385Y-103892167D01*
X78990611Y-104083436D01*
X79031000Y-104286484D01*
X79031000Y-104493516D01*
X78990611Y-104696564D01*
X78911385Y-104887833D01*
X78911384Y-104887835D01*
X78796365Y-105059973D01*
X78649973Y-105206365D01*
X78477835Y-105321384D01*
X78477834Y-105321385D01*
X78477833Y-105321385D01*
X78286564Y-105400611D01*
X78083516Y-105441000D01*
X77876484Y-105441000D01*
X77673436Y-105400611D01*
X77482167Y-105321385D01*
X77482166Y-105321385D01*
X77482165Y-105321384D01*
X77310027Y-105206365D01*
X77163635Y-105059973D01*
X77048616Y-104887835D01*
X77048615Y-104887833D01*
X76969389Y-104696564D01*
X76929000Y-104493516D01*
X76929000Y-104286484D01*
X76969389Y-104083436D01*
X77048615Y-103892167D01*
X77156051Y-103731378D01*
X77163635Y-103720027D01*
X77310027Y-103573635D01*
X77482165Y-103458616D01*
X77482167Y-103458615D01*
X77673436Y-103379389D01*
X77876484Y-103339000D01*
X78083516Y-103339000D01*
X78286564Y-103379389D01*
X78286564Y-103379389D01*
G37*
G36*
X97356564Y-103379389D02*
G01*
X97547833Y-103458615D01*
X97547835Y-103458616D01*
X97719973Y-103573635D01*
X97866365Y-103720027D01*
X97873950Y-103731378D01*
X97981385Y-103892167D01*
X98060611Y-104083436D01*
X98101000Y-104286484D01*
X98101000Y-104493516D01*
X98060611Y-104696564D01*
X97981385Y-104887833D01*
X97981384Y-104887835D01*
X97866365Y-105059973D01*
X97719973Y-105206365D01*
X97547835Y-105321384D01*
X97547834Y-105321385D01*
X97547833Y-105321385D01*
X97356564Y-105400611D01*
X97153516Y-105441000D01*
X96946484Y-105441000D01*
X96743436Y-105400611D01*
X96552167Y-105321385D01*
X96552166Y-105321385D01*
X96552165Y-105321384D01*
X96380027Y-105206365D01*
X96233635Y-105059973D01*
X96118616Y-104887835D01*
X96118615Y-104887833D01*
X96039389Y-104696564D01*
X95999000Y-104493516D01*
X95999000Y-104286484D01*
X96039389Y-104083436D01*
X96118615Y-103892167D01*
X96226051Y-103731378D01*
X96233635Y-103720027D01*
X96380027Y-103573635D01*
X96552165Y-103458616D01*
X96552167Y-103458615D01*
X96743436Y-103379389D01*
X96946484Y-103339000D01*
X97153516Y-103339000D01*
X97356564Y-103379389D01*
X97356564Y-103379389D01*
G37*
G36*
X138266474Y-100453684D02*
G01*
X138386151Y-100503256D01*
X138638623Y-100607833D01*
X138973548Y-100831623D01*
X139258377Y-101116452D01*
X139482167Y-101451377D01*
X139482167Y-101451378D01*
X139636316Y-101823526D01*
X139714900Y-102218594D01*
X139714900Y-102621406D01*
X139636316Y-103016474D01*
X139551598Y-103221000D01*
X139482167Y-103388623D01*
X139258377Y-103723548D01*
X138973548Y-104008377D01*
X138638623Y-104232167D01*
X138507485Y-104286486D01*
X138266474Y-104386316D01*
X137871406Y-104464900D01*
X137468594Y-104464900D01*
X137073526Y-104386316D01*
X136832515Y-104286486D01*
X136701377Y-104232167D01*
X136366452Y-104008377D01*
X136081623Y-103723548D01*
X135857833Y-103388623D01*
X135788402Y-103221000D01*
X135703684Y-103016474D01*
X135625100Y-102621406D01*
X135625100Y-102218594D01*
X135703684Y-101823526D01*
X135857833Y-101451378D01*
X135857833Y-101451377D01*
X136081623Y-101116452D01*
X136366452Y-100831623D01*
X136701377Y-100607833D01*
X136953849Y-100503256D01*
X137073526Y-100453684D01*
X137468594Y-100375100D01*
X137871406Y-100375100D01*
X138266474Y-100453684D01*
X138266474Y-100453684D01*
G37*
G36*
X148590442Y-101735518D02*
G01*
X148656627Y-101742037D01*
X148826466Y-101793557D01*
X148982991Y-101877222D01*
X149018729Y-101906552D01*
X149120186Y-101989814D01*
X149183108Y-102066486D01*
X149232778Y-102127009D01*
X149316443Y-102283534D01*
X149367963Y-102453373D01*
X149385359Y-102630000D01*
X149367963Y-102806627D01*
X149316443Y-102976466D01*
X149232778Y-103132991D01*
X149203448Y-103168729D01*
X149120186Y-103270186D01*
X149018729Y-103353448D01*
X148982991Y-103382778D01*
X148826466Y-103466443D01*
X148656627Y-103517963D01*
X148590443Y-103524481D01*
X148524260Y-103531000D01*
X148435740Y-103531000D01*
X148369557Y-103524481D01*
X148303373Y-103517963D01*
X148133534Y-103466443D01*
X147977009Y-103382778D01*
X147941271Y-103353448D01*
X147839814Y-103270186D01*
X147756552Y-103168729D01*
X147727222Y-103132991D01*
X147643557Y-102976466D01*
X147592037Y-102806627D01*
X147574641Y-102630000D01*
X147592037Y-102453373D01*
X147643557Y-102283534D01*
X147727222Y-102127009D01*
X147776892Y-102066486D01*
X147839814Y-101989814D01*
X147941271Y-101906552D01*
X147977009Y-101877222D01*
X148133534Y-101793557D01*
X148303373Y-101742037D01*
X148369557Y-101735519D01*
X148435740Y-101729000D01*
X148524260Y-101729000D01*
X148590442Y-101735518D01*
X148590442Y-101735518D01*
G37*
G36*
X146050442Y-101735518D02*
G01*
X146116627Y-101742037D01*
X146286466Y-101793557D01*
X146442991Y-101877222D01*
X146478729Y-101906552D01*
X146580186Y-101989814D01*
X146643108Y-102066486D01*
X146692778Y-102127009D01*
X146776443Y-102283534D01*
X146827963Y-102453373D01*
X146845359Y-102630000D01*
X146827963Y-102806627D01*
X146776443Y-102976466D01*
X146692778Y-103132991D01*
X146663448Y-103168729D01*
X146580186Y-103270186D01*
X146478729Y-103353448D01*
X146442991Y-103382778D01*
X146286466Y-103466443D01*
X146116627Y-103517963D01*
X146050443Y-103524481D01*
X145984260Y-103531000D01*
X145895740Y-103531000D01*
X145829557Y-103524481D01*
X145763373Y-103517963D01*
X145593534Y-103466443D01*
X145437009Y-103382778D01*
X145401271Y-103353448D01*
X145299814Y-103270186D01*
X145216552Y-103168729D01*
X145187222Y-103132991D01*
X145103557Y-102976466D01*
X145052037Y-102806627D01*
X145034641Y-102630000D01*
X145052037Y-102453373D01*
X145103557Y-102283534D01*
X145187222Y-102127009D01*
X145236892Y-102066486D01*
X145299814Y-101989814D01*
X145401271Y-101906552D01*
X145437009Y-101877222D01*
X145593534Y-101793557D01*
X145763373Y-101742037D01*
X145829557Y-101735519D01*
X145895740Y-101729000D01*
X145984260Y-101729000D01*
X146050442Y-101735518D01*
X146050442Y-101735518D01*
G37*
G36*
X90647109Y-96746763D02*
G01*
X91269350Y-96935517D01*
X91651657Y-97139865D01*
X91842810Y-97242038D01*
X92345453Y-97654547D01*
X92757962Y-98157190D01*
X92803727Y-98242811D01*
X93064483Y-98730650D01*
X93253237Y-99352891D01*
X93316972Y-100000000D01*
X93253237Y-100647109D01*
X93064483Y-101269350D01*
X92946528Y-101490027D01*
X92757962Y-101842810D01*
X92345453Y-102345453D01*
X91842810Y-102757962D01*
X91689378Y-102839973D01*
X91269350Y-103064483D01*
X90647109Y-103253237D01*
X90162166Y-103301000D01*
X89837834Y-103301000D01*
X89352891Y-103253237D01*
X88730650Y-103064483D01*
X88310622Y-102839973D01*
X88157190Y-102757962D01*
X87654547Y-102345453D01*
X87242038Y-101842810D01*
X87053472Y-101490027D01*
X86935517Y-101269350D01*
X86746763Y-100647109D01*
X86683028Y-100000000D01*
X86746763Y-99352891D01*
X86935517Y-98730650D01*
X87196273Y-98242811D01*
X87242038Y-98157190D01*
X87654547Y-97654547D01*
X88157190Y-97242038D01*
X88348343Y-97139865D01*
X88730650Y-96935517D01*
X89352891Y-96746763D01*
X89837834Y-96699000D01*
X90162166Y-96699000D01*
X90647109Y-96746763D01*
X90647109Y-96746763D01*
G37*
G36*
X153216564Y-101159389D02*
G01*
X153383693Y-101228616D01*
X153407835Y-101238616D01*
X153579973Y-101353635D01*
X153726365Y-101500027D01*
X153834704Y-101662167D01*
X153841385Y-101672167D01*
X153920611Y-101863436D01*
X153961000Y-102066484D01*
X153961000Y-102273516D01*
X153920611Y-102476564D01*
X153857056Y-102630000D01*
X153841384Y-102667835D01*
X153726365Y-102839973D01*
X153579973Y-102986365D01*
X153407835Y-103101384D01*
X153407834Y-103101385D01*
X153407833Y-103101385D01*
X153216564Y-103180611D01*
X153013516Y-103221000D01*
X152806484Y-103221000D01*
X152603436Y-103180611D01*
X152412167Y-103101385D01*
X152412166Y-103101385D01*
X152412165Y-103101384D01*
X152240027Y-102986365D01*
X152093635Y-102839973D01*
X151978616Y-102667835D01*
X151962944Y-102630000D01*
X151899389Y-102476564D01*
X151859000Y-102273516D01*
X151859000Y-102066484D01*
X151899389Y-101863436D01*
X151978615Y-101672167D01*
X151985297Y-101662167D01*
X152093635Y-101500027D01*
X152240027Y-101353635D01*
X152412165Y-101238616D01*
X152436307Y-101228616D01*
X152603436Y-101159389D01*
X152806484Y-101119000D01*
X153013516Y-101119000D01*
X153216564Y-101159389D01*
X153216564Y-101159389D01*
G37*
G36*
X160836564Y-101159389D02*
G01*
X161003693Y-101228616D01*
X161027835Y-101238616D01*
X161199973Y-101353635D01*
X161346365Y-101500027D01*
X161454704Y-101662167D01*
X161461385Y-101672167D01*
X161540611Y-101863436D01*
X161581000Y-102066484D01*
X161581000Y-102273516D01*
X161540611Y-102476564D01*
X161477056Y-102630000D01*
X161461384Y-102667835D01*
X161346365Y-102839973D01*
X161199973Y-102986365D01*
X161027835Y-103101384D01*
X161027834Y-103101385D01*
X161027833Y-103101385D01*
X160836564Y-103180611D01*
X160633516Y-103221000D01*
X160426484Y-103221000D01*
X160223436Y-103180611D01*
X160032167Y-103101385D01*
X160032166Y-103101385D01*
X160032165Y-103101384D01*
X159860027Y-102986365D01*
X159713635Y-102839973D01*
X159598616Y-102667835D01*
X159582944Y-102630000D01*
X159519389Y-102476564D01*
X159479000Y-102273516D01*
X159479000Y-102066484D01*
X159519389Y-101863436D01*
X159598615Y-101672167D01*
X159605297Y-101662167D01*
X159713635Y-101500027D01*
X159860027Y-101353635D01*
X160032165Y-101238616D01*
X160056307Y-101228616D01*
X160223436Y-101159389D01*
X160426484Y-101119000D01*
X160633516Y-101119000D01*
X160836564Y-101159389D01*
X160836564Y-101159389D01*
G37*
G36*
X122736564Y-101149389D02*
G01*
X122927833Y-101228615D01*
X122927835Y-101228616D01*
X123099973Y-101343635D01*
X123246365Y-101490027D01*
X123270178Y-101525665D01*
X123361385Y-101662167D01*
X123440611Y-101853436D01*
X123481000Y-102056484D01*
X123481000Y-102263516D01*
X123440611Y-102466564D01*
X123372914Y-102630000D01*
X123361384Y-102657835D01*
X123246365Y-102829973D01*
X123099973Y-102976365D01*
X122927835Y-103091384D01*
X122927834Y-103091385D01*
X122927833Y-103091385D01*
X122736564Y-103170611D01*
X122533516Y-103211000D01*
X122326484Y-103211000D01*
X122123436Y-103170611D01*
X121932167Y-103091385D01*
X121932166Y-103091385D01*
X121932165Y-103091384D01*
X121760027Y-102976365D01*
X121613635Y-102829973D01*
X121498616Y-102657835D01*
X121487086Y-102630000D01*
X121419389Y-102466564D01*
X121379000Y-102263516D01*
X121379000Y-102056484D01*
X121419389Y-101853436D01*
X121498615Y-101662167D01*
X121589823Y-101525665D01*
X121613635Y-101490027D01*
X121760027Y-101343635D01*
X121932165Y-101228616D01*
X121932167Y-101228615D01*
X122123436Y-101149389D01*
X122326484Y-101109000D01*
X122533516Y-101109000D01*
X122736564Y-101149389D01*
X122736564Y-101149389D01*
G37*
G36*
X115116564Y-101149389D02*
G01*
X115307833Y-101228615D01*
X115307835Y-101228616D01*
X115479973Y-101343635D01*
X115626365Y-101490027D01*
X115650178Y-101525665D01*
X115741385Y-101662167D01*
X115820611Y-101853436D01*
X115861000Y-102056484D01*
X115861000Y-102263516D01*
X115820611Y-102466564D01*
X115752914Y-102630000D01*
X115741384Y-102657835D01*
X115626365Y-102829973D01*
X115479973Y-102976365D01*
X115307835Y-103091384D01*
X115307834Y-103091385D01*
X115307833Y-103091385D01*
X115116564Y-103170611D01*
X114913516Y-103211000D01*
X114706484Y-103211000D01*
X114503436Y-103170611D01*
X114312167Y-103091385D01*
X114312166Y-103091385D01*
X114312165Y-103091384D01*
X114140027Y-102976365D01*
X113993635Y-102829973D01*
X113878616Y-102657835D01*
X113867086Y-102630000D01*
X113799389Y-102466564D01*
X113759000Y-102263516D01*
X113759000Y-102056484D01*
X113799389Y-101853436D01*
X113878615Y-101662167D01*
X113969823Y-101525665D01*
X113993635Y-101490027D01*
X114140027Y-101343635D01*
X114312165Y-101228616D01*
X114312167Y-101228615D01*
X114503436Y-101149389D01*
X114706484Y-101109000D01*
X114913516Y-101109000D01*
X115116564Y-101149389D01*
X115116564Y-101149389D01*
G37*
G36*
X178616564Y-101109389D02*
G01*
X178807833Y-101188615D01*
X178807835Y-101188616D01*
X178979973Y-101303635D01*
X179126365Y-101450027D01*
X179183587Y-101535665D01*
X179241385Y-101622167D01*
X179320611Y-101813436D01*
X179361000Y-102016484D01*
X179361000Y-102223516D01*
X179320611Y-102426564D01*
X179241385Y-102617833D01*
X179241384Y-102617835D01*
X179126365Y-102789973D01*
X178979973Y-102936365D01*
X178807835Y-103051384D01*
X178807834Y-103051385D01*
X178807833Y-103051385D01*
X178616564Y-103130611D01*
X178413516Y-103171000D01*
X178206484Y-103171000D01*
X178003436Y-103130611D01*
X177812167Y-103051385D01*
X177812166Y-103051385D01*
X177812165Y-103051384D01*
X177640027Y-102936365D01*
X177493635Y-102789973D01*
X177378616Y-102617835D01*
X177378615Y-102617833D01*
X177299389Y-102426564D01*
X177259000Y-102223516D01*
X177259000Y-102016484D01*
X177299389Y-101813436D01*
X177378615Y-101622167D01*
X177436414Y-101535665D01*
X177493635Y-101450027D01*
X177640027Y-101303635D01*
X177812165Y-101188616D01*
X177812167Y-101188615D01*
X178003436Y-101109389D01*
X178206484Y-101069000D01*
X178413516Y-101069000D01*
X178616564Y-101109389D01*
X178616564Y-101109389D01*
G37*
G36*
X173536564Y-101109389D02*
G01*
X173727833Y-101188615D01*
X173727835Y-101188616D01*
X173899973Y-101303635D01*
X174046365Y-101450027D01*
X174103587Y-101535665D01*
X174161385Y-101622167D01*
X174240611Y-101813436D01*
X174281000Y-102016484D01*
X174281000Y-102223516D01*
X174240611Y-102426564D01*
X174161385Y-102617833D01*
X174161384Y-102617835D01*
X174046365Y-102789973D01*
X173899973Y-102936365D01*
X173727835Y-103051384D01*
X173727834Y-103051385D01*
X173727833Y-103051385D01*
X173536564Y-103130611D01*
X173333516Y-103171000D01*
X173126484Y-103171000D01*
X172923436Y-103130611D01*
X172732167Y-103051385D01*
X172732166Y-103051385D01*
X172732165Y-103051384D01*
X172560027Y-102936365D01*
X172413635Y-102789973D01*
X172298616Y-102617835D01*
X172298615Y-102617833D01*
X172219389Y-102426564D01*
X172179000Y-102223516D01*
X172179000Y-102016484D01*
X172219389Y-101813436D01*
X172298615Y-101622167D01*
X172356414Y-101535665D01*
X172413635Y-101450027D01*
X172560027Y-101303635D01*
X172732165Y-101188616D01*
X172732167Y-101188615D01*
X172923436Y-101109389D01*
X173126484Y-101069000D01*
X173333516Y-101069000D01*
X173536564Y-101109389D01*
X173536564Y-101109389D01*
G37*
G36*
X103570997Y-100420341D02*
G01*
X103655666Y-100437183D01*
X103721738Y-100464551D01*
X103815177Y-100503255D01*
X103958736Y-100599178D01*
X104080822Y-100721264D01*
X104176745Y-100864823D01*
X104202268Y-100926442D01*
X104242817Y-101024334D01*
X104259658Y-101109000D01*
X104276500Y-101193671D01*
X104276500Y-101366329D01*
X104242817Y-101535665D01*
X104176745Y-101695177D01*
X104080822Y-101838736D01*
X103958736Y-101960822D01*
X103815177Y-102056745D01*
X103721738Y-102095449D01*
X103655666Y-102122817D01*
X103570997Y-102139659D01*
X103486329Y-102156500D01*
X103313671Y-102156500D01*
X103229003Y-102139659D01*
X103144334Y-102122817D01*
X103078262Y-102095449D01*
X102984823Y-102056745D01*
X102841264Y-101960822D01*
X102719178Y-101838736D01*
X102623255Y-101695177D01*
X102557183Y-101535665D01*
X102523500Y-101366329D01*
X102523500Y-101193671D01*
X102540342Y-101109000D01*
X102557183Y-101024334D01*
X102597732Y-100926442D01*
X102623255Y-100864823D01*
X102719178Y-100721264D01*
X102841264Y-100599178D01*
X102984823Y-100503255D01*
X103078262Y-100464551D01*
X103144334Y-100437183D01*
X103229003Y-100420342D01*
X103313671Y-100403500D01*
X103486329Y-100403500D01*
X103570997Y-100420341D01*
X103570997Y-100420341D01*
G37*
G36*
X96656500Y-102156500D02*
G01*
X94903500Y-102156500D01*
X94903500Y-100403500D01*
X96656500Y-100403500D01*
X96656500Y-102156500D01*
X96656500Y-102156500D01*
G37*
G36*
X84466602Y-100403500D02*
G01*
X84585666Y-100427183D01*
X84649644Y-100453684D01*
X84745177Y-100493255D01*
X84888736Y-100589178D01*
X85010822Y-100711264D01*
X85106745Y-100854823D01*
X85145449Y-100948262D01*
X85163152Y-100991000D01*
X85172817Y-101014335D01*
X85193130Y-101116453D01*
X85206500Y-101183672D01*
X85206500Y-101356328D01*
X85172817Y-101525666D01*
X85145449Y-101591738D01*
X85106745Y-101685177D01*
X85010822Y-101828736D01*
X84888736Y-101950822D01*
X84745177Y-102046745D01*
X84651738Y-102085449D01*
X84585666Y-102112817D01*
X84535392Y-102122817D01*
X84416329Y-102146500D01*
X84243671Y-102146500D01*
X84124608Y-102122817D01*
X84074334Y-102112817D01*
X84008262Y-102085449D01*
X83914823Y-102046745D01*
X83771264Y-101950822D01*
X83649178Y-101828736D01*
X83553255Y-101685177D01*
X83514551Y-101591738D01*
X83487183Y-101525666D01*
X83453500Y-101356328D01*
X83453500Y-101183672D01*
X83466871Y-101116453D01*
X83487183Y-101014335D01*
X83496849Y-100991000D01*
X83514551Y-100948262D01*
X83553255Y-100854823D01*
X83649178Y-100711264D01*
X83771264Y-100589178D01*
X83914823Y-100493255D01*
X84010356Y-100453684D01*
X84074334Y-100427183D01*
X84193398Y-100403500D01*
X84243671Y-100393500D01*
X84416329Y-100393500D01*
X84466602Y-100403500D01*
X84466602Y-100403500D01*
G37*
G36*
X77586500Y-102146500D02*
G01*
X75833500Y-102146500D01*
X75833500Y-100393500D01*
X77586500Y-100393500D01*
X77586500Y-102146500D01*
X77586500Y-102146500D01*
G37*
G36*
X148590443Y-99195519D02*
G01*
X148656627Y-99202037D01*
X148826466Y-99253557D01*
X148982991Y-99337222D01*
X149002086Y-99352893D01*
X149120186Y-99449814D01*
X149203448Y-99551271D01*
X149232778Y-99587009D01*
X149316443Y-99743534D01*
X149367963Y-99913373D01*
X149385359Y-100090000D01*
X149367963Y-100266627D01*
X149316443Y-100436466D01*
X149232778Y-100592991D01*
X149227700Y-100599178D01*
X149120186Y-100730186D01*
X149021244Y-100811384D01*
X148982991Y-100842778D01*
X148826466Y-100926443D01*
X148656627Y-100977963D01*
X148590442Y-100984482D01*
X148524260Y-100991000D01*
X148435740Y-100991000D01*
X148369557Y-100984481D01*
X148303373Y-100977963D01*
X148133534Y-100926443D01*
X147977009Y-100842778D01*
X147938756Y-100811384D01*
X147839814Y-100730186D01*
X147732300Y-100599178D01*
X147727222Y-100592991D01*
X147643557Y-100436466D01*
X147592037Y-100266627D01*
X147574641Y-100090000D01*
X147592037Y-99913373D01*
X147643557Y-99743534D01*
X147727222Y-99587009D01*
X147756552Y-99551271D01*
X147839814Y-99449814D01*
X147957914Y-99352893D01*
X147977009Y-99337222D01*
X148133534Y-99253557D01*
X148303373Y-99202037D01*
X148369557Y-99195519D01*
X148435740Y-99189000D01*
X148524260Y-99189000D01*
X148590443Y-99195519D01*
X148590443Y-99195519D01*
G37*
G36*
X146050443Y-99195519D02*
G01*
X146116627Y-99202037D01*
X146286466Y-99253557D01*
X146442991Y-99337222D01*
X146462086Y-99352893D01*
X146580186Y-99449814D01*
X146663448Y-99551271D01*
X146692778Y-99587009D01*
X146776443Y-99743534D01*
X146827963Y-99913373D01*
X146845359Y-100090000D01*
X146827963Y-100266627D01*
X146776443Y-100436466D01*
X146692778Y-100592991D01*
X146687700Y-100599178D01*
X146580186Y-100730186D01*
X146481244Y-100811384D01*
X146442991Y-100842778D01*
X146286466Y-100926443D01*
X146116627Y-100977963D01*
X146050442Y-100984482D01*
X145984260Y-100991000D01*
X145895740Y-100991000D01*
X145829557Y-100984481D01*
X145763373Y-100977963D01*
X145593534Y-100926443D01*
X145437009Y-100842778D01*
X145398756Y-100811384D01*
X145299814Y-100730186D01*
X145192300Y-100599178D01*
X145187222Y-100592991D01*
X145103557Y-100436466D01*
X145052037Y-100266627D01*
X145034641Y-100090000D01*
X145052037Y-99913373D01*
X145103557Y-99743534D01*
X145187222Y-99587009D01*
X145216552Y-99551271D01*
X145299814Y-99449814D01*
X145417914Y-99352893D01*
X145437009Y-99337222D01*
X145593534Y-99253557D01*
X145763373Y-99202037D01*
X145829557Y-99195519D01*
X145895740Y-99189000D01*
X145984260Y-99189000D01*
X146050443Y-99195519D01*
X146050443Y-99195519D01*
G37*
G36*
X141786564Y-98869389D02*
G01*
X141977833Y-98948615D01*
X141977835Y-98948616D01*
X142149973Y-99063635D01*
X142296365Y-99210027D01*
X142407762Y-99376744D01*
X142411385Y-99382167D01*
X142490611Y-99573436D01*
X142531000Y-99776484D01*
X142531000Y-99983516D01*
X142490611Y-100186564D01*
X142412517Y-100375100D01*
X142411384Y-100377835D01*
X142296365Y-100549973D01*
X142149973Y-100696365D01*
X141977835Y-100811384D01*
X141977834Y-100811385D01*
X141977833Y-100811385D01*
X141786564Y-100890611D01*
X141583516Y-100931000D01*
X141376484Y-100931000D01*
X141173436Y-100890611D01*
X140982167Y-100811385D01*
X140982166Y-100811385D01*
X140982165Y-100811384D01*
X140810027Y-100696365D01*
X140663635Y-100549973D01*
X140548616Y-100377835D01*
X140547483Y-100375100D01*
X140469389Y-100186564D01*
X140429000Y-99983516D01*
X140429000Y-99776484D01*
X140469389Y-99573436D01*
X140548615Y-99382167D01*
X140552239Y-99376744D01*
X140663635Y-99210027D01*
X140810027Y-99063635D01*
X140982165Y-98948616D01*
X140982167Y-98948615D01*
X141173436Y-98869389D01*
X141376484Y-98829000D01*
X141583516Y-98829000D01*
X141786564Y-98869389D01*
X141786564Y-98869389D01*
G37*
G36*
X134166564Y-98869389D02*
G01*
X134357833Y-98948615D01*
X134357835Y-98948616D01*
X134529973Y-99063635D01*
X134676365Y-99210027D01*
X134787762Y-99376744D01*
X134791385Y-99382167D01*
X134870611Y-99573436D01*
X134911000Y-99776484D01*
X134911000Y-99983516D01*
X134870611Y-100186564D01*
X134792517Y-100375100D01*
X134791384Y-100377835D01*
X134676365Y-100549973D01*
X134529973Y-100696365D01*
X134357835Y-100811384D01*
X134357834Y-100811385D01*
X134357833Y-100811385D01*
X134166564Y-100890611D01*
X133963516Y-100931000D01*
X133756484Y-100931000D01*
X133553436Y-100890611D01*
X133362167Y-100811385D01*
X133362166Y-100811385D01*
X133362165Y-100811384D01*
X133190027Y-100696365D01*
X133043635Y-100549973D01*
X132928616Y-100377835D01*
X132927483Y-100375100D01*
X132849389Y-100186564D01*
X132809000Y-99983516D01*
X132809000Y-99776484D01*
X132849389Y-99573436D01*
X132928615Y-99382167D01*
X132932239Y-99376744D01*
X133043635Y-99210027D01*
X133190027Y-99063635D01*
X133362165Y-98948616D01*
X133362167Y-98948615D01*
X133553436Y-98869389D01*
X133756484Y-98829000D01*
X133963516Y-98829000D01*
X134166564Y-98869389D01*
X134166564Y-98869389D01*
G37*
G36*
X154486564Y-98619389D02*
G01*
X154672314Y-98696329D01*
X154677835Y-98698616D01*
X154849973Y-98813635D01*
X154996365Y-98960027D01*
X155104704Y-99122167D01*
X155111385Y-99132167D01*
X155190611Y-99323436D01*
X155231000Y-99526484D01*
X155231000Y-99733516D01*
X155190611Y-99936564D01*
X155164335Y-100000000D01*
X155111384Y-100127835D01*
X154996365Y-100299973D01*
X154849973Y-100446365D01*
X154677835Y-100561384D01*
X154677834Y-100561385D01*
X154677833Y-100561385D01*
X154486564Y-100640611D01*
X154283516Y-100681000D01*
X154076484Y-100681000D01*
X153873436Y-100640611D01*
X153682167Y-100561385D01*
X153682166Y-100561385D01*
X153682165Y-100561384D01*
X153510027Y-100446365D01*
X153363635Y-100299973D01*
X153248616Y-100127835D01*
X153195665Y-100000000D01*
X153169389Y-99936564D01*
X153129000Y-99733516D01*
X153129000Y-99526484D01*
X153169389Y-99323436D01*
X153248615Y-99132167D01*
X153255297Y-99122167D01*
X153363635Y-98960027D01*
X153510027Y-98813635D01*
X153682165Y-98698616D01*
X153687686Y-98696329D01*
X153873436Y-98619389D01*
X154076484Y-98579000D01*
X154283516Y-98579000D01*
X154486564Y-98619389D01*
X154486564Y-98619389D01*
G37*
G36*
X159566564Y-98619389D02*
G01*
X159752314Y-98696329D01*
X159757835Y-98698616D01*
X159929973Y-98813635D01*
X160076365Y-98960027D01*
X160184704Y-99122167D01*
X160191385Y-99132167D01*
X160270611Y-99323436D01*
X160311000Y-99526484D01*
X160311000Y-99733516D01*
X160270611Y-99936564D01*
X160244335Y-100000000D01*
X160191384Y-100127835D01*
X160076365Y-100299973D01*
X159929973Y-100446365D01*
X159757835Y-100561384D01*
X159757834Y-100561385D01*
X159757833Y-100561385D01*
X159566564Y-100640611D01*
X159363516Y-100681000D01*
X159156484Y-100681000D01*
X158953436Y-100640611D01*
X158762167Y-100561385D01*
X158762166Y-100561385D01*
X158762165Y-100561384D01*
X158590027Y-100446365D01*
X158443635Y-100299973D01*
X158328616Y-100127835D01*
X158275665Y-100000000D01*
X158249389Y-99936564D01*
X158209000Y-99733516D01*
X158209000Y-99526484D01*
X158249389Y-99323436D01*
X158328615Y-99132167D01*
X158335297Y-99122167D01*
X158443635Y-98960027D01*
X158590027Y-98813635D01*
X158762165Y-98698616D01*
X158767686Y-98696329D01*
X158953436Y-98619389D01*
X159156484Y-98579000D01*
X159363516Y-98579000D01*
X159566564Y-98619389D01*
X159566564Y-98619389D01*
G37*
G36*
X121466564Y-98609389D02*
G01*
X121652314Y-98686329D01*
X121657835Y-98688616D01*
X121829973Y-98803635D01*
X121976365Y-98950027D01*
X122019898Y-99015178D01*
X122091385Y-99122167D01*
X122170611Y-99313436D01*
X122211000Y-99516484D01*
X122211000Y-99723516D01*
X122170611Y-99926564D01*
X122102914Y-100090000D01*
X122091384Y-100117835D01*
X121976365Y-100289973D01*
X121829973Y-100436365D01*
X121657835Y-100551384D01*
X121657834Y-100551385D01*
X121657833Y-100551385D01*
X121466564Y-100630611D01*
X121263516Y-100671000D01*
X121056484Y-100671000D01*
X120853436Y-100630611D01*
X120662167Y-100551385D01*
X120662166Y-100551385D01*
X120662165Y-100551384D01*
X120490027Y-100436365D01*
X120343635Y-100289973D01*
X120228616Y-100117835D01*
X120217086Y-100090000D01*
X120149389Y-99926564D01*
X120109000Y-99723516D01*
X120109000Y-99516484D01*
X120149389Y-99313436D01*
X120228615Y-99122167D01*
X120300103Y-99015178D01*
X120343635Y-98950027D01*
X120490027Y-98803635D01*
X120662165Y-98688616D01*
X120667686Y-98686329D01*
X120853436Y-98609389D01*
X121056484Y-98569000D01*
X121263516Y-98569000D01*
X121466564Y-98609389D01*
X121466564Y-98609389D01*
G37*
G36*
X116386564Y-98609389D02*
G01*
X116572314Y-98686329D01*
X116577835Y-98688616D01*
X116749973Y-98803635D01*
X116896365Y-98950027D01*
X116939898Y-99015178D01*
X117011385Y-99122167D01*
X117090611Y-99313436D01*
X117131000Y-99516484D01*
X117131000Y-99723516D01*
X117090611Y-99926564D01*
X117022914Y-100090000D01*
X117011384Y-100117835D01*
X116896365Y-100289973D01*
X116749973Y-100436365D01*
X116577835Y-100551384D01*
X116577834Y-100551385D01*
X116577833Y-100551385D01*
X116386564Y-100630611D01*
X116183516Y-100671000D01*
X115976484Y-100671000D01*
X115773436Y-100630611D01*
X115582167Y-100551385D01*
X115582166Y-100551385D01*
X115582165Y-100551384D01*
X115410027Y-100436365D01*
X115263635Y-100289973D01*
X115148616Y-100117835D01*
X115137086Y-100090000D01*
X115069389Y-99926564D01*
X115029000Y-99723516D01*
X115029000Y-99516484D01*
X115069389Y-99313436D01*
X115148615Y-99122167D01*
X115220103Y-99015178D01*
X115263635Y-98950027D01*
X115410027Y-98803635D01*
X115582165Y-98688616D01*
X115587686Y-98686329D01*
X115773436Y-98609389D01*
X115976484Y-98569000D01*
X116183516Y-98569000D01*
X116386564Y-98609389D01*
X116386564Y-98609389D01*
G37*
G36*
X165040795Y-91314334D02*
G01*
X165155666Y-91337183D01*
X165221738Y-91364551D01*
X165315177Y-91403255D01*
X165458736Y-91499178D01*
X165580822Y-91621264D01*
X165676745Y-91764823D01*
X165701947Y-91825666D01*
X165742817Y-91924334D01*
X165776500Y-92093672D01*
X165776500Y-92266328D01*
X165742817Y-92435666D01*
X165715449Y-92501738D01*
X165676745Y-92595177D01*
X165580822Y-92738736D01*
X165458736Y-92860822D01*
X165315179Y-92956744D01*
X165301558Y-92962386D01*
X165279948Y-92973937D01*
X165261006Y-92989483D01*
X165245461Y-93008425D01*
X165233910Y-93030036D01*
X165226797Y-93053485D01*
X165224395Y-93077871D01*
X165226797Y-93102257D01*
X165233910Y-93125706D01*
X165245461Y-93147316D01*
X165261007Y-93166258D01*
X165279949Y-93181803D01*
X165301560Y-93193354D01*
X165325009Y-93200467D01*
X165349395Y-93202869D01*
X165385673Y-93197488D01*
X165552891Y-93146763D01*
X166037834Y-93099000D01*
X166362166Y-93099000D01*
X166847109Y-93146763D01*
X167469350Y-93335517D01*
X167851657Y-93539865D01*
X168042810Y-93642038D01*
X168545453Y-94054547D01*
X168957962Y-94557190D01*
X169004992Y-94645177D01*
X169264483Y-95130650D01*
X169453237Y-95752891D01*
X169516972Y-96400000D01*
X169453237Y-97047109D01*
X169264483Y-97669350D01*
X169102042Y-97973255D01*
X168957962Y-98242810D01*
X168545453Y-98745453D01*
X168042810Y-99157962D01*
X167960351Y-99202037D01*
X167469350Y-99464483D01*
X166847109Y-99653237D01*
X166362166Y-99701000D01*
X166037834Y-99701000D01*
X165552891Y-99653237D01*
X164930650Y-99464483D01*
X164439649Y-99202037D01*
X164357190Y-99157962D01*
X163854547Y-98745453D01*
X163442038Y-98242810D01*
X163297958Y-97973255D01*
X163135517Y-97669350D01*
X162946763Y-97047109D01*
X162883028Y-96400000D01*
X162946763Y-95752891D01*
X163135517Y-95130650D01*
X163395008Y-94645177D01*
X163442038Y-94557190D01*
X163854547Y-94054547D01*
X164357190Y-93642038D01*
X164548343Y-93539865D01*
X164930650Y-93335517D01*
X165061471Y-93295833D01*
X165084098Y-93286460D01*
X165104472Y-93272847D01*
X165121799Y-93255520D01*
X165135413Y-93235145D01*
X165144791Y-93212506D01*
X165149571Y-93188473D01*
X165149571Y-93163969D01*
X165144791Y-93139936D01*
X165135413Y-93117297D01*
X165121800Y-93096923D01*
X165104473Y-93079596D01*
X165084098Y-93065982D01*
X165061459Y-93056604D01*
X165037426Y-93051824D01*
X165000789Y-93053624D01*
X164986330Y-93056500D01*
X164813671Y-93056500D01*
X164680627Y-93030036D01*
X164644334Y-93022817D01*
X164558307Y-92987183D01*
X164484823Y-92956745D01*
X164341264Y-92860822D01*
X164219178Y-92738736D01*
X164123255Y-92595177D01*
X164084551Y-92501738D01*
X164057183Y-92435666D01*
X164023500Y-92266328D01*
X164023500Y-92093672D01*
X164057183Y-91924334D01*
X164098053Y-91825666D01*
X164123255Y-91764823D01*
X164219178Y-91621264D01*
X164341264Y-91499178D01*
X164484823Y-91403255D01*
X164578262Y-91364551D01*
X164644334Y-91337183D01*
X164759205Y-91314334D01*
X164813671Y-91303500D01*
X164986329Y-91303500D01*
X165040795Y-91314334D01*
X165040795Y-91314334D01*
G37*
G36*
X172316500Y-99626500D02*
G01*
X170563500Y-99626500D01*
X170563500Y-97873500D01*
X172316500Y-97873500D01*
X172316500Y-99626500D01*
X172316500Y-99626500D01*
G37*
G36*
X179230997Y-97890342D02*
G01*
X179315666Y-97907183D01*
X179344624Y-97919178D01*
X179475177Y-97973255D01*
X179618736Y-98069178D01*
X179740822Y-98191264D01*
X179836745Y-98334823D01*
X179860014Y-98391000D01*
X179902817Y-98494334D01*
X179917669Y-98569000D01*
X179936500Y-98663671D01*
X179936500Y-98836329D01*
X179929924Y-98869389D01*
X179902817Y-99005666D01*
X179878805Y-99063635D01*
X179836745Y-99165177D01*
X179740822Y-99308736D01*
X179618736Y-99430822D01*
X179475177Y-99526745D01*
X179381738Y-99565449D01*
X179315666Y-99592817D01*
X179230997Y-99609659D01*
X179146329Y-99626500D01*
X178973671Y-99626500D01*
X178889003Y-99609659D01*
X178804334Y-99592817D01*
X178738262Y-99565449D01*
X178644823Y-99526745D01*
X178501264Y-99430822D01*
X178379178Y-99308736D01*
X178283255Y-99165177D01*
X178241195Y-99063635D01*
X178217183Y-99005666D01*
X178190076Y-98869389D01*
X178183500Y-98836329D01*
X178183500Y-98663671D01*
X178202331Y-98569000D01*
X178217183Y-98494334D01*
X178259986Y-98391000D01*
X178283255Y-98334823D01*
X178379178Y-98191264D01*
X178501264Y-98069178D01*
X178644823Y-97973255D01*
X178775376Y-97919178D01*
X178804334Y-97907183D01*
X178889003Y-97890341D01*
X178973671Y-97873500D01*
X179146329Y-97873500D01*
X179230997Y-97890342D01*
X179230997Y-97890342D01*
G37*
G36*
X103570997Y-97750342D02*
G01*
X103655666Y-97767183D01*
X103721738Y-97794551D01*
X103815177Y-97833255D01*
X103958736Y-97929178D01*
X104080822Y-98051264D01*
X104176745Y-98194823D01*
X104208458Y-98271385D01*
X104242817Y-98354334D01*
X104249204Y-98386443D01*
X104276500Y-98523671D01*
X104276500Y-98696329D01*
X104269673Y-98730650D01*
X104242817Y-98865666D01*
X104241274Y-98869390D01*
X104176745Y-99025177D01*
X104080822Y-99168736D01*
X103958736Y-99290822D01*
X103815177Y-99386745D01*
X103721738Y-99425449D01*
X103655666Y-99452817D01*
X103597026Y-99464481D01*
X103486329Y-99486500D01*
X103313671Y-99486500D01*
X103202974Y-99464481D01*
X103144334Y-99452817D01*
X103078262Y-99425449D01*
X102984823Y-99386745D01*
X102841264Y-99290822D01*
X102719178Y-99168736D01*
X102623255Y-99025177D01*
X102558726Y-98869390D01*
X102557183Y-98865666D01*
X102530327Y-98730650D01*
X102523500Y-98696329D01*
X102523500Y-98523671D01*
X102550796Y-98386443D01*
X102557183Y-98354334D01*
X102591542Y-98271385D01*
X102623255Y-98194823D01*
X102719178Y-98051264D01*
X102841264Y-97929178D01*
X102984823Y-97833255D01*
X103078262Y-97794551D01*
X103144334Y-97767183D01*
X103229003Y-97750341D01*
X103313671Y-97733500D01*
X103486329Y-97733500D01*
X103570997Y-97750342D01*
X103570997Y-97750342D01*
G37*
G36*
X96656500Y-99486500D02*
G01*
X94903500Y-99486500D01*
X94903500Y-97733500D01*
X96656500Y-97733500D01*
X96656500Y-99486500D01*
X96656500Y-99486500D01*
G37*
G36*
X84466602Y-97733500D02*
G01*
X84585666Y-97757183D01*
X84651738Y-97784551D01*
X84745177Y-97823255D01*
X84888736Y-97919178D01*
X85010822Y-98041264D01*
X85106745Y-98184823D01*
X85110887Y-98194823D01*
X85172817Y-98344334D01*
X85174806Y-98354334D01*
X85206500Y-98513671D01*
X85206500Y-98686329D01*
X85189659Y-98770997D01*
X85172817Y-98855666D01*
X85167132Y-98869390D01*
X85106745Y-99015177D01*
X85010822Y-99158736D01*
X84888736Y-99280822D01*
X84745177Y-99376745D01*
X84651738Y-99415449D01*
X84585666Y-99442817D01*
X84550489Y-99449814D01*
X84416329Y-99476500D01*
X84243671Y-99476500D01*
X84109511Y-99449814D01*
X84074334Y-99442817D01*
X84008262Y-99415449D01*
X83914823Y-99376745D01*
X83771264Y-99280822D01*
X83649178Y-99158736D01*
X83553255Y-99015177D01*
X83492868Y-98869390D01*
X83487183Y-98855666D01*
X83470342Y-98770997D01*
X83453500Y-98686329D01*
X83453500Y-98513671D01*
X83485194Y-98354334D01*
X83487183Y-98344334D01*
X83549113Y-98194823D01*
X83553255Y-98184823D01*
X83649178Y-98041264D01*
X83771264Y-97919178D01*
X83914823Y-97823255D01*
X84008262Y-97784551D01*
X84074334Y-97757183D01*
X84193398Y-97733500D01*
X84243671Y-97723500D01*
X84416329Y-97723500D01*
X84466602Y-97733500D01*
X84466602Y-97733500D01*
G37*
G36*
X77586500Y-99476500D02*
G01*
X75833500Y-99476500D01*
X75833500Y-97723500D01*
X77586500Y-97723500D01*
X77586500Y-99476500D01*
X77586500Y-99476500D01*
G37*
G36*
X148590443Y-96655519D02*
G01*
X148656627Y-96662037D01*
X148826466Y-96713557D01*
X148982991Y-96797222D01*
X149018729Y-96826552D01*
X149120186Y-96909814D01*
X149194873Y-97000822D01*
X149232778Y-97047009D01*
X149316443Y-97203534D01*
X149367963Y-97373373D01*
X149385359Y-97550000D01*
X149367963Y-97726627D01*
X149316443Y-97896466D01*
X149232778Y-98052991D01*
X149203448Y-98088729D01*
X149120186Y-98190186D01*
X149021244Y-98271384D01*
X148982991Y-98302778D01*
X148826466Y-98386443D01*
X148656627Y-98437963D01*
X148590443Y-98444481D01*
X148524260Y-98451000D01*
X148435740Y-98451000D01*
X148369558Y-98444482D01*
X148303373Y-98437963D01*
X148133534Y-98386443D01*
X147977009Y-98302778D01*
X147938756Y-98271384D01*
X147839814Y-98190186D01*
X147756552Y-98088729D01*
X147727222Y-98052991D01*
X147643557Y-97896466D01*
X147592037Y-97726627D01*
X147574641Y-97550000D01*
X147592037Y-97373373D01*
X147643557Y-97203534D01*
X147727222Y-97047009D01*
X147765127Y-97000822D01*
X147839814Y-96909814D01*
X147941271Y-96826552D01*
X147977009Y-96797222D01*
X148133534Y-96713557D01*
X148303373Y-96662037D01*
X148369557Y-96655519D01*
X148435740Y-96649000D01*
X148524260Y-96649000D01*
X148590443Y-96655519D01*
X148590443Y-96655519D01*
G37*
G36*
X146050443Y-96655519D02*
G01*
X146116627Y-96662037D01*
X146286466Y-96713557D01*
X146442991Y-96797222D01*
X146478729Y-96826552D01*
X146580186Y-96909814D01*
X146654873Y-97000822D01*
X146692778Y-97047009D01*
X146776443Y-97203534D01*
X146827963Y-97373373D01*
X146845359Y-97550000D01*
X146827963Y-97726627D01*
X146776443Y-97896466D01*
X146692778Y-98052991D01*
X146663448Y-98088729D01*
X146580186Y-98190186D01*
X146481244Y-98271384D01*
X146442991Y-98302778D01*
X146286466Y-98386443D01*
X146116627Y-98437963D01*
X146050443Y-98444481D01*
X145984260Y-98451000D01*
X145895740Y-98451000D01*
X145829558Y-98444482D01*
X145763373Y-98437963D01*
X145593534Y-98386443D01*
X145437009Y-98302778D01*
X145398756Y-98271384D01*
X145299814Y-98190186D01*
X145216552Y-98088729D01*
X145187222Y-98052991D01*
X145103557Y-97896466D01*
X145052037Y-97726627D01*
X145034641Y-97550000D01*
X145052037Y-97373373D01*
X145103557Y-97203534D01*
X145187222Y-97047009D01*
X145225127Y-97000822D01*
X145299814Y-96909814D01*
X145401271Y-96826552D01*
X145437009Y-96797222D01*
X145593534Y-96713557D01*
X145763373Y-96662037D01*
X145829557Y-96655519D01*
X145895740Y-96649000D01*
X145984260Y-96649000D01*
X146050443Y-96655519D01*
X146050443Y-96655519D01*
G37*
G36*
X135436564Y-96329389D02*
G01*
X135622314Y-96406329D01*
X135627835Y-96408616D01*
X135799973Y-96523635D01*
X135946365Y-96670027D01*
X135989898Y-96735178D01*
X136061385Y-96842167D01*
X136140611Y-97033436D01*
X136181000Y-97236484D01*
X136181000Y-97443516D01*
X136140611Y-97646564D01*
X136104601Y-97733500D01*
X136061384Y-97837835D01*
X135946365Y-98009973D01*
X135799973Y-98156365D01*
X135627835Y-98271384D01*
X135627834Y-98271385D01*
X135627833Y-98271385D01*
X135436564Y-98350611D01*
X135233516Y-98391000D01*
X135026484Y-98391000D01*
X134823436Y-98350611D01*
X134632167Y-98271385D01*
X134632166Y-98271385D01*
X134632165Y-98271384D01*
X134460027Y-98156365D01*
X134313635Y-98009973D01*
X134198616Y-97837835D01*
X134155399Y-97733500D01*
X134119389Y-97646564D01*
X134079000Y-97443516D01*
X134079000Y-97236484D01*
X134119389Y-97033436D01*
X134198615Y-96842167D01*
X134270103Y-96735178D01*
X134313635Y-96670027D01*
X134460027Y-96523635D01*
X134632165Y-96408616D01*
X134637686Y-96406329D01*
X134823436Y-96329389D01*
X135026484Y-96289000D01*
X135233516Y-96289000D01*
X135436564Y-96329389D01*
X135436564Y-96329389D01*
G37*
G36*
X140516564Y-96329389D02*
G01*
X140702314Y-96406329D01*
X140707835Y-96408616D01*
X140879973Y-96523635D01*
X141026365Y-96670027D01*
X141069898Y-96735178D01*
X141141385Y-96842167D01*
X141220611Y-97033436D01*
X141261000Y-97236484D01*
X141261000Y-97443516D01*
X141220611Y-97646564D01*
X141184601Y-97733500D01*
X141141384Y-97837835D01*
X141026365Y-98009973D01*
X140879973Y-98156365D01*
X140707835Y-98271384D01*
X140707834Y-98271385D01*
X140707833Y-98271385D01*
X140516564Y-98350611D01*
X140313516Y-98391000D01*
X140106484Y-98391000D01*
X139903436Y-98350611D01*
X139712167Y-98271385D01*
X139712166Y-98271385D01*
X139712165Y-98271384D01*
X139540027Y-98156365D01*
X139393635Y-98009973D01*
X139278616Y-97837835D01*
X139235399Y-97733500D01*
X139199389Y-97646564D01*
X139159000Y-97443516D01*
X139159000Y-97236484D01*
X139199389Y-97033436D01*
X139278615Y-96842167D01*
X139350103Y-96735178D01*
X139393635Y-96670027D01*
X139540027Y-96523635D01*
X139712165Y-96408616D01*
X139717686Y-96406329D01*
X139903436Y-96329389D01*
X140106484Y-96289000D01*
X140313516Y-96289000D01*
X140516564Y-96329389D01*
X140516564Y-96329389D01*
G37*
G36*
X160700997Y-95660342D02*
G01*
X160785666Y-95677183D01*
X160851738Y-95704551D01*
X160945177Y-95743255D01*
X161088736Y-95839178D01*
X161210822Y-95961264D01*
X161306745Y-96104823D01*
X161345449Y-96198262D01*
X161368675Y-96254334D01*
X161372817Y-96264335D01*
X161406500Y-96433671D01*
X161406500Y-96606329D01*
X161372817Y-96775665D01*
X161306745Y-96935177D01*
X161210822Y-97078736D01*
X161088736Y-97200822D01*
X160945177Y-97296745D01*
X160851738Y-97335449D01*
X160785666Y-97362817D01*
X160700997Y-97379659D01*
X160616329Y-97396500D01*
X160443671Y-97396500D01*
X160359003Y-97379658D01*
X160274334Y-97362817D01*
X160208262Y-97335449D01*
X160114823Y-97296745D01*
X159971264Y-97200822D01*
X159849178Y-97078736D01*
X159753255Y-96935177D01*
X159687183Y-96775665D01*
X159653500Y-96606329D01*
X159653500Y-96433671D01*
X159687183Y-96264335D01*
X159691326Y-96254334D01*
X159714551Y-96198262D01*
X159753255Y-96104823D01*
X159849178Y-95961264D01*
X159971264Y-95839178D01*
X160114823Y-95743255D01*
X160208262Y-95704551D01*
X160274334Y-95677183D01*
X160359003Y-95660342D01*
X160443671Y-95643500D01*
X160616329Y-95643500D01*
X160700997Y-95660342D01*
X160700997Y-95660342D01*
G37*
G36*
X153786500Y-97396500D02*
G01*
X152033500Y-97396500D01*
X152033500Y-95643500D01*
X153786500Y-95643500D01*
X153786500Y-97396500D01*
X153786500Y-97396500D01*
G37*
G36*
X122534874Y-95639178D02*
G01*
X122675666Y-95667183D01*
X122741738Y-95694551D01*
X122835177Y-95733255D01*
X122978736Y-95829178D01*
X123100822Y-95951264D01*
X123196745Y-96094823D01*
X123262817Y-96254335D01*
X123291792Y-96400000D01*
X123296500Y-96423672D01*
X123296500Y-96596328D01*
X123262817Y-96765666D01*
X123249746Y-96797221D01*
X123196745Y-96925177D01*
X123100822Y-97068736D01*
X122978736Y-97190822D01*
X122835177Y-97286745D01*
X122741738Y-97325449D01*
X122675666Y-97352817D01*
X122625392Y-97362817D01*
X122506329Y-97386500D01*
X122333671Y-97386500D01*
X122214608Y-97362817D01*
X122164334Y-97352817D01*
X122098262Y-97325449D01*
X122004823Y-97286745D01*
X121861264Y-97190822D01*
X121739178Y-97068736D01*
X121643255Y-96925177D01*
X121590254Y-96797221D01*
X121577183Y-96765666D01*
X121543500Y-96596328D01*
X121543500Y-96423672D01*
X121548209Y-96400000D01*
X121577183Y-96254335D01*
X121643255Y-96094823D01*
X121739178Y-95951264D01*
X121861264Y-95829178D01*
X122004823Y-95733255D01*
X122098262Y-95694551D01*
X122164334Y-95667183D01*
X122305126Y-95639178D01*
X122333671Y-95633500D01*
X122506329Y-95633500D01*
X122534874Y-95639178D01*
X122534874Y-95639178D01*
G37*
G36*
X115676500Y-97386500D02*
G01*
X113923500Y-97386500D01*
X113923500Y-95633500D01*
X115676500Y-95633500D01*
X115676500Y-97386500D01*
X115676500Y-97386500D01*
G37*
G36*
X179250997Y-95460342D02*
G01*
X179335666Y-95477183D01*
X179401738Y-95504551D01*
X179495177Y-95543255D01*
X179638736Y-95639178D01*
X179760822Y-95761264D01*
X179856745Y-95904823D01*
X179895449Y-95998262D01*
X179922817Y-96064334D01*
X179930870Y-96104822D01*
X179956500Y-96233671D01*
X179956500Y-96406329D01*
X179922817Y-96575665D01*
X179856745Y-96735177D01*
X179760822Y-96878736D01*
X179638736Y-97000822D01*
X179495177Y-97096745D01*
X179401738Y-97135449D01*
X179335666Y-97162817D01*
X179250997Y-97179658D01*
X179166329Y-97196500D01*
X178993671Y-97196500D01*
X178909003Y-97179658D01*
X178824334Y-97162817D01*
X178758262Y-97135449D01*
X178664823Y-97096745D01*
X178521264Y-97000822D01*
X178399178Y-96878736D01*
X178303255Y-96735177D01*
X178237183Y-96575665D01*
X178203500Y-96406329D01*
X178203500Y-96233671D01*
X178229130Y-96104822D01*
X178237183Y-96064334D01*
X178264551Y-95998262D01*
X178303255Y-95904823D01*
X178399178Y-95761264D01*
X178521264Y-95639178D01*
X178664823Y-95543255D01*
X178758262Y-95504551D01*
X178824334Y-95477183D01*
X178909003Y-95460342D01*
X178993671Y-95443500D01*
X179166329Y-95443500D01*
X179250997Y-95460342D01*
X179250997Y-95460342D01*
G37*
G36*
X172336500Y-97196500D02*
G01*
X170583500Y-97196500D01*
X170583500Y-95443500D01*
X172336500Y-95443500D01*
X172336500Y-97196500D01*
X172336500Y-97196500D01*
G37*
G36*
X141650997Y-93370342D02*
G01*
X141735666Y-93387183D01*
X141801738Y-93414551D01*
X141895177Y-93453255D01*
X142038736Y-93549178D01*
X142160822Y-93671264D01*
X142256745Y-93814823D01*
X142322817Y-93974335D01*
X142356500Y-94143671D01*
X142356500Y-94316329D01*
X142322817Y-94485665D01*
X142256745Y-94645177D01*
X142160822Y-94788736D01*
X142038736Y-94910822D01*
X141895177Y-95006745D01*
X141801738Y-95045449D01*
X141735666Y-95072817D01*
X141650997Y-95089658D01*
X141566329Y-95106500D01*
X141393671Y-95106500D01*
X141309003Y-95089658D01*
X141224334Y-95072817D01*
X141158262Y-95045449D01*
X141064823Y-95006745D01*
X140921264Y-94910822D01*
X140799178Y-94788736D01*
X140703255Y-94645177D01*
X140637183Y-94485665D01*
X140603500Y-94316329D01*
X140603500Y-94143671D01*
X140637183Y-93974335D01*
X140703255Y-93814823D01*
X140799178Y-93671264D01*
X140921264Y-93549178D01*
X141064823Y-93453255D01*
X141158262Y-93414551D01*
X141224334Y-93387183D01*
X141309003Y-93370341D01*
X141393671Y-93353500D01*
X141566329Y-93353500D01*
X141650997Y-93370342D01*
X141650997Y-93370342D01*
G37*
G36*
X134736500Y-95106500D02*
G01*
X132983500Y-95106500D01*
X132983500Y-93353500D01*
X134736500Y-93353500D01*
X134736500Y-95106500D01*
X134736500Y-95106500D01*
G37*
G36*
X160668799Y-92973937D02*
G01*
X160785666Y-92997183D01*
X160812806Y-93008425D01*
X160945177Y-93063255D01*
X161088736Y-93159178D01*
X161210822Y-93281264D01*
X161306745Y-93424823D01*
X161318522Y-93453255D01*
X161368675Y-93574334D01*
X161372817Y-93584335D01*
X161406500Y-93753671D01*
X161406500Y-93926329D01*
X161372817Y-94095665D01*
X161306745Y-94255177D01*
X161210822Y-94398736D01*
X161088736Y-94520822D01*
X160945177Y-94616745D01*
X160851738Y-94655449D01*
X160785666Y-94682817D01*
X160700997Y-94699658D01*
X160616329Y-94716500D01*
X160443671Y-94716500D01*
X160359003Y-94699658D01*
X160274334Y-94682817D01*
X160208262Y-94655449D01*
X160114823Y-94616745D01*
X159971264Y-94520822D01*
X159849178Y-94398736D01*
X159753255Y-94255177D01*
X159687183Y-94095665D01*
X159653500Y-93926329D01*
X159653500Y-93753671D01*
X159687183Y-93584335D01*
X159691326Y-93574334D01*
X159741478Y-93453255D01*
X159753255Y-93424823D01*
X159849178Y-93281264D01*
X159971264Y-93159178D01*
X160114823Y-93063255D01*
X160247194Y-93008425D01*
X160274334Y-92997183D01*
X160391201Y-92973937D01*
X160443671Y-92963500D01*
X160616329Y-92963500D01*
X160668799Y-92973937D01*
X160668799Y-92973937D01*
G37*
G36*
X153786500Y-94716500D02*
G01*
X152033500Y-94716500D01*
X152033500Y-92963500D01*
X153786500Y-92963500D01*
X153786500Y-94716500D01*
X153786500Y-94716500D01*
G37*
G36*
X122556602Y-92963500D02*
G01*
X122675666Y-92987183D01*
X122726948Y-93008425D01*
X122835177Y-93053255D01*
X122978736Y-93149178D01*
X123100822Y-93271264D01*
X123196745Y-93414823D01*
X123200887Y-93424823D01*
X123262817Y-93574334D01*
X123296500Y-93743672D01*
X123296500Y-93916328D01*
X123262817Y-94085666D01*
X123238790Y-94143671D01*
X123196745Y-94245177D01*
X123100822Y-94388736D01*
X122978736Y-94510822D01*
X122835177Y-94606745D01*
X122742394Y-94645177D01*
X122675666Y-94672817D01*
X122625392Y-94682817D01*
X122506329Y-94706500D01*
X122333671Y-94706500D01*
X122214608Y-94682817D01*
X122164334Y-94672817D01*
X122097606Y-94645177D01*
X122004823Y-94606745D01*
X121861264Y-94510822D01*
X121739178Y-94388736D01*
X121643255Y-94245177D01*
X121601210Y-94143671D01*
X121577183Y-94085666D01*
X121543500Y-93916328D01*
X121543500Y-93743672D01*
X121577183Y-93574334D01*
X121639113Y-93424823D01*
X121643255Y-93414823D01*
X121739178Y-93271264D01*
X121861264Y-93149178D01*
X122004823Y-93053255D01*
X122113052Y-93008425D01*
X122164334Y-92987183D01*
X122283398Y-92963500D01*
X122333671Y-92953500D01*
X122506329Y-92953500D01*
X122556602Y-92963500D01*
X122556602Y-92963500D01*
G37*
G36*
X115676500Y-94706500D02*
G01*
X113923500Y-94706500D01*
X113923500Y-92953500D01*
X115676500Y-92953500D01*
X115676500Y-94706500D01*
X115676500Y-94706500D01*
G37*
G36*
X167740795Y-91314334D02*
G01*
X167855666Y-91337183D01*
X167921738Y-91364551D01*
X168015177Y-91403255D01*
X168158736Y-91499178D01*
X168280822Y-91621264D01*
X168376745Y-91764823D01*
X168401947Y-91825666D01*
X168442817Y-91924334D01*
X168476500Y-92093672D01*
X168476500Y-92266328D01*
X168442817Y-92435666D01*
X168415449Y-92501738D01*
X168376745Y-92595177D01*
X168280822Y-92738736D01*
X168158736Y-92860822D01*
X168015177Y-92956745D01*
X167941693Y-92987183D01*
X167855666Y-93022817D01*
X167819373Y-93030036D01*
X167686329Y-93056500D01*
X167513671Y-93056500D01*
X167380627Y-93030036D01*
X167344334Y-93022817D01*
X167258307Y-92987183D01*
X167184823Y-92956745D01*
X167041264Y-92860822D01*
X166919178Y-92738736D01*
X166823255Y-92595177D01*
X166784551Y-92501738D01*
X166757183Y-92435666D01*
X166723500Y-92266328D01*
X166723500Y-92093672D01*
X166757183Y-91924334D01*
X166798053Y-91825666D01*
X166823255Y-91764823D01*
X166919178Y-91621264D01*
X167041264Y-91499178D01*
X167184823Y-91403255D01*
X167278262Y-91364551D01*
X167344334Y-91337183D01*
X167459205Y-91314334D01*
X167513671Y-91303500D01*
X167686329Y-91303500D01*
X167740795Y-91314334D01*
X167740795Y-91314334D01*
G37*
G36*
X81126474Y-88463684D02*
G01*
X81334794Y-88549973D01*
X81498623Y-88617833D01*
X81833548Y-88841623D01*
X82118377Y-89126452D01*
X82342167Y-89461377D01*
X82342167Y-89461378D01*
X82496316Y-89833526D01*
X82574900Y-90228594D01*
X82574900Y-90631406D01*
X82496316Y-91026474D01*
X82443152Y-91154822D01*
X82342167Y-91398623D01*
X82118377Y-91733548D01*
X81833548Y-92018377D01*
X81498623Y-92242167D01*
X81440290Y-92266329D01*
X81126474Y-92396316D01*
X80731406Y-92474900D01*
X80328594Y-92474900D01*
X79933526Y-92396316D01*
X79619710Y-92266329D01*
X79561377Y-92242167D01*
X79226452Y-92018377D01*
X78941623Y-91733548D01*
X78717833Y-91398623D01*
X78616848Y-91154822D01*
X78563684Y-91026474D01*
X78485100Y-90631406D01*
X78485100Y-90228594D01*
X78563684Y-89833526D01*
X78717833Y-89461378D01*
X78717833Y-89461377D01*
X78941623Y-89126452D01*
X79226452Y-88841623D01*
X79561377Y-88617833D01*
X79725206Y-88549973D01*
X79933526Y-88463684D01*
X80328594Y-88385100D01*
X80731406Y-88385100D01*
X81126474Y-88463684D01*
X81126474Y-88463684D01*
G37*
G36*
X100186474Y-88453684D02*
G01*
X100404474Y-88543983D01*
X100558623Y-88607833D01*
X100893548Y-88831623D01*
X101178377Y-89116452D01*
X101402167Y-89451377D01*
X101466017Y-89605526D01*
X101556316Y-89823526D01*
X101634900Y-90218594D01*
X101634900Y-90621406D01*
X101556316Y-91016474D01*
X101552173Y-91026475D01*
X101402167Y-91388623D01*
X101178377Y-91723548D01*
X100893548Y-92008377D01*
X100558623Y-92232167D01*
X100476148Y-92266329D01*
X100186474Y-92386316D01*
X99791406Y-92464900D01*
X99388594Y-92464900D01*
X98993526Y-92386316D01*
X98703852Y-92266329D01*
X98621377Y-92232167D01*
X98286452Y-92008377D01*
X98001623Y-91723548D01*
X97777833Y-91388623D01*
X97627827Y-91026475D01*
X97623684Y-91016474D01*
X97545100Y-90621406D01*
X97545100Y-90218594D01*
X97623684Y-89823526D01*
X97713983Y-89605526D01*
X97777833Y-89451377D01*
X98001623Y-89116452D01*
X98286452Y-88831623D01*
X98621377Y-88607833D01*
X98775526Y-88543983D01*
X98993526Y-88453684D01*
X99388594Y-88375100D01*
X99791406Y-88375100D01*
X100186474Y-88453684D01*
X100186474Y-88453684D01*
G37*
G36*
X134736500Y-92446500D02*
G01*
X132983500Y-92446500D01*
X132983500Y-90693500D01*
X134736500Y-90693500D01*
X134736500Y-92446500D01*
X134736500Y-92446500D01*
G37*
G36*
X141650997Y-90710341D02*
G01*
X141735666Y-90727183D01*
X141801738Y-90754551D01*
X141895177Y-90793255D01*
X142038736Y-90889178D01*
X142160822Y-91011264D01*
X142256745Y-91154823D01*
X142322817Y-91314335D01*
X142356500Y-91483671D01*
X142356500Y-91656329D01*
X142322817Y-91825665D01*
X142256745Y-91985177D01*
X142160822Y-92128736D01*
X142038736Y-92250822D01*
X141895177Y-92346745D01*
X141801738Y-92385449D01*
X141735666Y-92412817D01*
X141650997Y-92429659D01*
X141566329Y-92446500D01*
X141393671Y-92446500D01*
X141309003Y-92429658D01*
X141224334Y-92412817D01*
X141158262Y-92385449D01*
X141064823Y-92346745D01*
X140921264Y-92250822D01*
X140799178Y-92128736D01*
X140703255Y-91985177D01*
X140637183Y-91825665D01*
X140603500Y-91656329D01*
X140603500Y-91483671D01*
X140637183Y-91314335D01*
X140703255Y-91154823D01*
X140799178Y-91011264D01*
X140921264Y-90889178D01*
X141064823Y-90793255D01*
X141158262Y-90754551D01*
X141224334Y-90727183D01*
X141309003Y-90710341D01*
X141393671Y-90693500D01*
X141566329Y-90693500D01*
X141650997Y-90710341D01*
X141650997Y-90710341D01*
G37*
G36*
X176366474Y-86153684D02*
G01*
X176504267Y-86210760D01*
X176738623Y-86307833D01*
X177073548Y-86531623D01*
X177358377Y-86816452D01*
X177582167Y-87151377D01*
X177618203Y-87238377D01*
X177736316Y-87523526D01*
X177814900Y-87918594D01*
X177814900Y-88321406D01*
X177736316Y-88716474D01*
X177664186Y-88890610D01*
X177582167Y-89088623D01*
X177358377Y-89423548D01*
X177073548Y-89708377D01*
X176738623Y-89932167D01*
X176584474Y-89996017D01*
X176366474Y-90086316D01*
X175971406Y-90164900D01*
X175568594Y-90164900D01*
X175173526Y-90086316D01*
X174955526Y-89996017D01*
X174801377Y-89932167D01*
X174466452Y-89708377D01*
X174181623Y-89423548D01*
X173957833Y-89088623D01*
X173875814Y-88890610D01*
X173803684Y-88716474D01*
X173725100Y-88321406D01*
X173725100Y-87918594D01*
X173803684Y-87523526D01*
X173921797Y-87238377D01*
X173957833Y-87151377D01*
X174181623Y-86816452D01*
X174466452Y-86531623D01*
X174801377Y-86307833D01*
X175035733Y-86210760D01*
X175173526Y-86153684D01*
X175568594Y-86075100D01*
X175971406Y-86075100D01*
X176366474Y-86153684D01*
X176366474Y-86153684D01*
G37*
G36*
X77026564Y-86879389D02*
G01*
X77205600Y-86953548D01*
X77217835Y-86958616D01*
X77389973Y-87073635D01*
X77536365Y-87220027D01*
X77644704Y-87382167D01*
X77651385Y-87392167D01*
X77730611Y-87583436D01*
X77771000Y-87786484D01*
X77771000Y-87993516D01*
X77730611Y-88196564D01*
X77678900Y-88321405D01*
X77651384Y-88387835D01*
X77536365Y-88559973D01*
X77389973Y-88706365D01*
X77217835Y-88821384D01*
X77217834Y-88821385D01*
X77217833Y-88821385D01*
X77026564Y-88900611D01*
X76823516Y-88941000D01*
X76616484Y-88941000D01*
X76413436Y-88900611D01*
X76222167Y-88821385D01*
X76222166Y-88821385D01*
X76222165Y-88821384D01*
X76050027Y-88706365D01*
X75903635Y-88559973D01*
X75788616Y-88387835D01*
X75761100Y-88321405D01*
X75709389Y-88196564D01*
X75669000Y-87993516D01*
X75669000Y-87786484D01*
X75709389Y-87583436D01*
X75788615Y-87392167D01*
X75795297Y-87382167D01*
X75903635Y-87220027D01*
X76050027Y-87073635D01*
X76222165Y-86958616D01*
X76234400Y-86953548D01*
X76413436Y-86879389D01*
X76616484Y-86839000D01*
X76823516Y-86839000D01*
X77026564Y-86879389D01*
X77026564Y-86879389D01*
G37*
G36*
X84646564Y-86879389D02*
G01*
X84825600Y-86953548D01*
X84837835Y-86958616D01*
X85009973Y-87073635D01*
X85156365Y-87220027D01*
X85264704Y-87382167D01*
X85271385Y-87392167D01*
X85350611Y-87583436D01*
X85391000Y-87786484D01*
X85391000Y-87993516D01*
X85350611Y-88196564D01*
X85298900Y-88321405D01*
X85271384Y-88387835D01*
X85156365Y-88559973D01*
X85009973Y-88706365D01*
X84837835Y-88821384D01*
X84837834Y-88821385D01*
X84837833Y-88821385D01*
X84646564Y-88900611D01*
X84443516Y-88941000D01*
X84236484Y-88941000D01*
X84033436Y-88900611D01*
X83842167Y-88821385D01*
X83842166Y-88821385D01*
X83842165Y-88821384D01*
X83670027Y-88706365D01*
X83523635Y-88559973D01*
X83408616Y-88387835D01*
X83381100Y-88321405D01*
X83329389Y-88196564D01*
X83289000Y-87993516D01*
X83289000Y-87786484D01*
X83329389Y-87583436D01*
X83408615Y-87392167D01*
X83415297Y-87382167D01*
X83523635Y-87220027D01*
X83670027Y-87073635D01*
X83842165Y-86958616D01*
X83854400Y-86953548D01*
X84033436Y-86879389D01*
X84236484Y-86839000D01*
X84443516Y-86839000D01*
X84646564Y-86879389D01*
X84646564Y-86879389D01*
G37*
G36*
X96086564Y-86869389D02*
G01*
X96277833Y-86948615D01*
X96277835Y-86948616D01*
X96292801Y-86958616D01*
X96449973Y-87063635D01*
X96596365Y-87210027D01*
X96711385Y-87382167D01*
X96790611Y-87573436D01*
X96831000Y-87776484D01*
X96831000Y-87983516D01*
X96790611Y-88186564D01*
X96712517Y-88375100D01*
X96711384Y-88377835D01*
X96596365Y-88549973D01*
X96449973Y-88696365D01*
X96277835Y-88811384D01*
X96277834Y-88811385D01*
X96277833Y-88811385D01*
X96086564Y-88890611D01*
X95883516Y-88931000D01*
X95676484Y-88931000D01*
X95473436Y-88890611D01*
X95282167Y-88811385D01*
X95282166Y-88811385D01*
X95282165Y-88811384D01*
X95110027Y-88696365D01*
X94963635Y-88549973D01*
X94848616Y-88377835D01*
X94847483Y-88375100D01*
X94769389Y-88186564D01*
X94729000Y-87983516D01*
X94729000Y-87776484D01*
X94769389Y-87573436D01*
X94848615Y-87382167D01*
X94963635Y-87210027D01*
X95110027Y-87063635D01*
X95267199Y-86958616D01*
X95282165Y-86948616D01*
X95282167Y-86948615D01*
X95473436Y-86869389D01*
X95676484Y-86829000D01*
X95883516Y-86829000D01*
X96086564Y-86869389D01*
X96086564Y-86869389D01*
G37*
G36*
X103706564Y-86869389D02*
G01*
X103897833Y-86948615D01*
X103897835Y-86948616D01*
X103912801Y-86958616D01*
X104069973Y-87063635D01*
X104216365Y-87210027D01*
X104331385Y-87382167D01*
X104410611Y-87573436D01*
X104451000Y-87776484D01*
X104451000Y-87983516D01*
X104410611Y-88186564D01*
X104332517Y-88375100D01*
X104331384Y-88377835D01*
X104216365Y-88549973D01*
X104069973Y-88696365D01*
X103897835Y-88811384D01*
X103897834Y-88811385D01*
X103897833Y-88811385D01*
X103706564Y-88890611D01*
X103503516Y-88931000D01*
X103296484Y-88931000D01*
X103093436Y-88890611D01*
X102902167Y-88811385D01*
X102902166Y-88811385D01*
X102902165Y-88811384D01*
X102730027Y-88696365D01*
X102583635Y-88549973D01*
X102468616Y-88377835D01*
X102467483Y-88375100D01*
X102389389Y-88186564D01*
X102349000Y-87983516D01*
X102349000Y-87776484D01*
X102389389Y-87573436D01*
X102468615Y-87382167D01*
X102583635Y-87210027D01*
X102730027Y-87063635D01*
X102887199Y-86958616D01*
X102902165Y-86948616D01*
X102902167Y-86948615D01*
X103093436Y-86869389D01*
X103296484Y-86829000D01*
X103503516Y-86829000D01*
X103706564Y-86869389D01*
X103706564Y-86869389D01*
G37*
G36*
X157316474Y-83683684D02*
G01*
X157534474Y-83773983D01*
X157688623Y-83837833D01*
X158023548Y-84061623D01*
X158308377Y-84346452D01*
X158532167Y-84681377D01*
X158533066Y-84683548D01*
X158686316Y-85053526D01*
X158764900Y-85448594D01*
X158764900Y-85851406D01*
X158686316Y-86246474D01*
X158626451Y-86391000D01*
X158532167Y-86618623D01*
X158308377Y-86953548D01*
X158023548Y-87238377D01*
X157688623Y-87462167D01*
X157540491Y-87523525D01*
X157316474Y-87616316D01*
X156921406Y-87694900D01*
X156518594Y-87694900D01*
X156123526Y-87616316D01*
X155899509Y-87523525D01*
X155751377Y-87462167D01*
X155416452Y-87238377D01*
X155131623Y-86953548D01*
X154907833Y-86618623D01*
X154813549Y-86391000D01*
X154753684Y-86246474D01*
X154675100Y-85851406D01*
X154675100Y-85448594D01*
X154753684Y-85053526D01*
X154906934Y-84683548D01*
X154907833Y-84681377D01*
X155131623Y-84346452D01*
X155416452Y-84061623D01*
X155751377Y-83837833D01*
X155905526Y-83773983D01*
X156123526Y-83683684D01*
X156518594Y-83605100D01*
X156921406Y-83605100D01*
X157316474Y-83683684D01*
X157316474Y-83683684D01*
G37*
G36*
X119216474Y-83683684D02*
G01*
X119434474Y-83773983D01*
X119588623Y-83837833D01*
X119923548Y-84061623D01*
X120208377Y-84346452D01*
X120432167Y-84681377D01*
X120433066Y-84683548D01*
X120586316Y-85053526D01*
X120664900Y-85448594D01*
X120664900Y-85851406D01*
X120586316Y-86246474D01*
X120526451Y-86391000D01*
X120432167Y-86618623D01*
X120208377Y-86953548D01*
X119923548Y-87238377D01*
X119588623Y-87462167D01*
X119440491Y-87523525D01*
X119216474Y-87616316D01*
X118821406Y-87694900D01*
X118418594Y-87694900D01*
X118023526Y-87616316D01*
X117799509Y-87523525D01*
X117651377Y-87462167D01*
X117316452Y-87238377D01*
X117031623Y-86953548D01*
X116807833Y-86618623D01*
X116713549Y-86391000D01*
X116653684Y-86246474D01*
X116575100Y-85851406D01*
X116575100Y-85448594D01*
X116653684Y-85053526D01*
X116806934Y-84683548D01*
X116807833Y-84681377D01*
X117031623Y-84346452D01*
X117316452Y-84061623D01*
X117651377Y-83837833D01*
X117805526Y-83773983D01*
X118023526Y-83683684D01*
X118418594Y-83605100D01*
X118821406Y-83605100D01*
X119216474Y-83683684D01*
X119216474Y-83683684D01*
G37*
G36*
X145520483Y-85758335D02*
G01*
X145689240Y-85828236D01*
X145841118Y-85929718D01*
X145970282Y-86058882D01*
X146071764Y-86210760D01*
X146141665Y-86379517D01*
X146177300Y-86558668D01*
X146177300Y-86741332D01*
X146141665Y-86920483D01*
X146071764Y-87089240D01*
X145970282Y-87241118D01*
X145841118Y-87370282D01*
X145689240Y-87471764D01*
X145520483Y-87541665D01*
X145341332Y-87577300D01*
X145158668Y-87577300D01*
X144979517Y-87541665D01*
X144810760Y-87471764D01*
X144658882Y-87370282D01*
X144529718Y-87241118D01*
X144428236Y-87089240D01*
X144358335Y-86920483D01*
X144322700Y-86741332D01*
X144322700Y-86558668D01*
X144358335Y-86379517D01*
X144428236Y-86210760D01*
X144529718Y-86058882D01*
X144658882Y-85929718D01*
X144810760Y-85828236D01*
X144979517Y-85758335D01*
X145158668Y-85722700D01*
X145341332Y-85722700D01*
X145520483Y-85758335D01*
X145520483Y-85758335D01*
G37*
G36*
X132820483Y-85758335D02*
G01*
X132989240Y-85828236D01*
X133141118Y-85929718D01*
X133270282Y-86058882D01*
X133371764Y-86210760D01*
X133441665Y-86379517D01*
X133477300Y-86558668D01*
X133477300Y-86741332D01*
X133441665Y-86920483D01*
X133371764Y-87089240D01*
X133270282Y-87241118D01*
X133141118Y-87370282D01*
X132989240Y-87471764D01*
X132820483Y-87541665D01*
X132641332Y-87577300D01*
X132458668Y-87577300D01*
X132279517Y-87541665D01*
X132110760Y-87471764D01*
X131958882Y-87370282D01*
X131829718Y-87241118D01*
X131728236Y-87089240D01*
X131658335Y-86920483D01*
X131622700Y-86741332D01*
X131622700Y-86558668D01*
X131658335Y-86379517D01*
X131728236Y-86210760D01*
X131829718Y-86058882D01*
X131958882Y-85929718D01*
X132110760Y-85828236D01*
X132279517Y-85758335D01*
X132458668Y-85722700D01*
X132641332Y-85722700D01*
X132820483Y-85758335D01*
X132820483Y-85758335D01*
G37*
G36*
X130509083Y-85758335D02*
G01*
X130677840Y-85828236D01*
X130829718Y-85929718D01*
X130958882Y-86058882D01*
X131060364Y-86210760D01*
X131130265Y-86379517D01*
X131165900Y-86558668D01*
X131165900Y-86741332D01*
X131130265Y-86920483D01*
X131060364Y-87089240D01*
X130958882Y-87241118D01*
X130829718Y-87370282D01*
X130677840Y-87471764D01*
X130509083Y-87541665D01*
X130329932Y-87577300D01*
X130147268Y-87577300D01*
X129968117Y-87541665D01*
X129799360Y-87471764D01*
X129647482Y-87370282D01*
X129518318Y-87241118D01*
X129416836Y-87089240D01*
X129346935Y-86920483D01*
X129311300Y-86741332D01*
X129311300Y-86558668D01*
X129346935Y-86379517D01*
X129416836Y-86210760D01*
X129518318Y-86058882D01*
X129647482Y-85929718D01*
X129799360Y-85828236D01*
X129968117Y-85758335D01*
X130147268Y-85722700D01*
X130329932Y-85722700D01*
X130509083Y-85758335D01*
X130509083Y-85758335D01*
G37*
G36*
X135360483Y-85758335D02*
G01*
X135529240Y-85828236D01*
X135681118Y-85929718D01*
X135810282Y-86058882D01*
X135911764Y-86210760D01*
X135981665Y-86379517D01*
X136017300Y-86558668D01*
X136017300Y-86741332D01*
X135981665Y-86920483D01*
X135911764Y-87089240D01*
X135810282Y-87241118D01*
X135681118Y-87370282D01*
X135529240Y-87471764D01*
X135360483Y-87541665D01*
X135181332Y-87577300D01*
X134998668Y-87577300D01*
X134819517Y-87541665D01*
X134650760Y-87471764D01*
X134498882Y-87370282D01*
X134369718Y-87241118D01*
X134268236Y-87089240D01*
X134198335Y-86920483D01*
X134162700Y-86741332D01*
X134162700Y-86558668D01*
X134198335Y-86379517D01*
X134268236Y-86210760D01*
X134369718Y-86058882D01*
X134498882Y-85929718D01*
X134650760Y-85828236D01*
X134819517Y-85758335D01*
X134998668Y-85722700D01*
X135181332Y-85722700D01*
X135360483Y-85758335D01*
X135360483Y-85758335D01*
G37*
G36*
X142980483Y-85758335D02*
G01*
X143149240Y-85828236D01*
X143301118Y-85929718D01*
X143430282Y-86058882D01*
X143531764Y-86210760D01*
X143601665Y-86379517D01*
X143637300Y-86558668D01*
X143637300Y-86741332D01*
X143601665Y-86920483D01*
X143531764Y-87089240D01*
X143430282Y-87241118D01*
X143301118Y-87370282D01*
X143149240Y-87471764D01*
X142980483Y-87541665D01*
X142801332Y-87577300D01*
X142618668Y-87577300D01*
X142439517Y-87541665D01*
X142270760Y-87471764D01*
X142118882Y-87370282D01*
X141989718Y-87241118D01*
X141888236Y-87089240D01*
X141818335Y-86920483D01*
X141782700Y-86741332D01*
X141782700Y-86558668D01*
X141818335Y-86379517D01*
X141888236Y-86210760D01*
X141989718Y-86058882D01*
X142118882Y-85929718D01*
X142270760Y-85828236D01*
X142439517Y-85758335D01*
X142618668Y-85722700D01*
X142801332Y-85722700D01*
X142980483Y-85758335D01*
X142980483Y-85758335D01*
G37*
G36*
X140440483Y-85758335D02*
G01*
X140609240Y-85828236D01*
X140761118Y-85929718D01*
X140890282Y-86058882D01*
X140991764Y-86210760D01*
X141061665Y-86379517D01*
X141097300Y-86558668D01*
X141097300Y-86741332D01*
X141061665Y-86920483D01*
X140991764Y-87089240D01*
X140890282Y-87241118D01*
X140761118Y-87370282D01*
X140609240Y-87471764D01*
X140440483Y-87541665D01*
X140261332Y-87577300D01*
X140078668Y-87577300D01*
X139899517Y-87541665D01*
X139730760Y-87471764D01*
X139578882Y-87370282D01*
X139449718Y-87241118D01*
X139348236Y-87089240D01*
X139278335Y-86920483D01*
X139242700Y-86741332D01*
X139242700Y-86558668D01*
X139278335Y-86379517D01*
X139348236Y-86210760D01*
X139449718Y-86058882D01*
X139578882Y-85929718D01*
X139730760Y-85828236D01*
X139899517Y-85758335D01*
X140078668Y-85722700D01*
X140261332Y-85722700D01*
X140440483Y-85758335D01*
X140440483Y-85758335D01*
G37*
G36*
X137900483Y-85758335D02*
G01*
X138069240Y-85828236D01*
X138221118Y-85929718D01*
X138350282Y-86058882D01*
X138451764Y-86210760D01*
X138521665Y-86379517D01*
X138557300Y-86558668D01*
X138557300Y-86741332D01*
X138521665Y-86920483D01*
X138451764Y-87089240D01*
X138350282Y-87241118D01*
X138221118Y-87370282D01*
X138069240Y-87471764D01*
X137900483Y-87541665D01*
X137721332Y-87577300D01*
X137538668Y-87577300D01*
X137359517Y-87541665D01*
X137190760Y-87471764D01*
X137038882Y-87370282D01*
X136909718Y-87241118D01*
X136808236Y-87089240D01*
X136738335Y-86920483D01*
X136702700Y-86741332D01*
X136702700Y-86558668D01*
X136738335Y-86379517D01*
X136808236Y-86210760D01*
X136909718Y-86058882D01*
X137038882Y-85929718D01*
X137190760Y-85828236D01*
X137359517Y-85758335D01*
X137538668Y-85722700D01*
X137721332Y-85722700D01*
X137900483Y-85758335D01*
X137900483Y-85758335D01*
G37*
G36*
X172266564Y-84569389D02*
G01*
X172457833Y-84648615D01*
X172457835Y-84648616D01*
X172629973Y-84763635D01*
X172776365Y-84910027D01*
X172858824Y-85033435D01*
X172891385Y-85082167D01*
X172970611Y-85273436D01*
X173011000Y-85476484D01*
X173011000Y-85683516D01*
X172970611Y-85886564D01*
X172919493Y-86009973D01*
X172891384Y-86077835D01*
X172776365Y-86249973D01*
X172629973Y-86396365D01*
X172457835Y-86511384D01*
X172457834Y-86511385D01*
X172457833Y-86511385D01*
X172266564Y-86590611D01*
X172063516Y-86631000D01*
X171856484Y-86631000D01*
X171653436Y-86590611D01*
X171462167Y-86511385D01*
X171462166Y-86511385D01*
X171462165Y-86511384D01*
X171290027Y-86396365D01*
X171143635Y-86249973D01*
X171028616Y-86077835D01*
X171000507Y-86009973D01*
X170949389Y-85886564D01*
X170909000Y-85683516D01*
X170909000Y-85476484D01*
X170949389Y-85273436D01*
X171028615Y-85082167D01*
X171061177Y-85033435D01*
X171143635Y-84910027D01*
X171290027Y-84763635D01*
X171462165Y-84648616D01*
X171462167Y-84648615D01*
X171653436Y-84569389D01*
X171856484Y-84529000D01*
X172063516Y-84529000D01*
X172266564Y-84569389D01*
X172266564Y-84569389D01*
G37*
G36*
X179886564Y-84569389D02*
G01*
X180077833Y-84648615D01*
X180077835Y-84648616D01*
X180249973Y-84763635D01*
X180396365Y-84910027D01*
X180478824Y-85033435D01*
X180511385Y-85082167D01*
X180590611Y-85273436D01*
X180631000Y-85476484D01*
X180631000Y-85683516D01*
X180590611Y-85886564D01*
X180539493Y-86009973D01*
X180511384Y-86077835D01*
X180396365Y-86249973D01*
X180249973Y-86396365D01*
X180077835Y-86511384D01*
X180077834Y-86511385D01*
X180077833Y-86511385D01*
X179886564Y-86590611D01*
X179683516Y-86631000D01*
X179476484Y-86631000D01*
X179273436Y-86590611D01*
X179082167Y-86511385D01*
X179082166Y-86511385D01*
X179082165Y-86511384D01*
X178910027Y-86396365D01*
X178763635Y-86249973D01*
X178648616Y-86077835D01*
X178620507Y-86009973D01*
X178569389Y-85886564D01*
X178529000Y-85683516D01*
X178529000Y-85476484D01*
X178569389Y-85273436D01*
X178648615Y-85082167D01*
X178681177Y-85033435D01*
X178763635Y-84910027D01*
X178910027Y-84763635D01*
X179082165Y-84648616D01*
X179082167Y-84648615D01*
X179273436Y-84569389D01*
X179476484Y-84529000D01*
X179683516Y-84529000D01*
X179886564Y-84569389D01*
X179886564Y-84569389D01*
G37*
G36*
X78296564Y-84339389D02*
G01*
X78463693Y-84408616D01*
X78487835Y-84418616D01*
X78659973Y-84533635D01*
X78806365Y-84680027D01*
X78914704Y-84842167D01*
X78921385Y-84852167D01*
X79000611Y-85043436D01*
X79041000Y-85246484D01*
X79041000Y-85453516D01*
X79000611Y-85656564D01*
X78958456Y-85758335D01*
X78921384Y-85847835D01*
X78806365Y-86019973D01*
X78659973Y-86166365D01*
X78487835Y-86281384D01*
X78487834Y-86281385D01*
X78487833Y-86281385D01*
X78296564Y-86360611D01*
X78093516Y-86401000D01*
X77886484Y-86401000D01*
X77683436Y-86360611D01*
X77492167Y-86281385D01*
X77492166Y-86281385D01*
X77492165Y-86281384D01*
X77320027Y-86166365D01*
X77173635Y-86019973D01*
X77058616Y-85847835D01*
X77021544Y-85758335D01*
X76979389Y-85656564D01*
X76939000Y-85453516D01*
X76939000Y-85246484D01*
X76979389Y-85043436D01*
X77058615Y-84852167D01*
X77065297Y-84842167D01*
X77173635Y-84680027D01*
X77320027Y-84533635D01*
X77492165Y-84418616D01*
X77516307Y-84408616D01*
X77683436Y-84339389D01*
X77886484Y-84299000D01*
X78093516Y-84299000D01*
X78296564Y-84339389D01*
X78296564Y-84339389D01*
G37*
G36*
X83376564Y-84339389D02*
G01*
X83543693Y-84408616D01*
X83567835Y-84418616D01*
X83739973Y-84533635D01*
X83886365Y-84680027D01*
X83994704Y-84842167D01*
X84001385Y-84852167D01*
X84080611Y-85043436D01*
X84121000Y-85246484D01*
X84121000Y-85453516D01*
X84080611Y-85656564D01*
X84038456Y-85758335D01*
X84001384Y-85847835D01*
X83886365Y-86019973D01*
X83739973Y-86166365D01*
X83567835Y-86281384D01*
X83567834Y-86281385D01*
X83567833Y-86281385D01*
X83376564Y-86360611D01*
X83173516Y-86401000D01*
X82966484Y-86401000D01*
X82763436Y-86360611D01*
X82572167Y-86281385D01*
X82572166Y-86281385D01*
X82572165Y-86281384D01*
X82400027Y-86166365D01*
X82253635Y-86019973D01*
X82138616Y-85847835D01*
X82101544Y-85758335D01*
X82059389Y-85656564D01*
X82019000Y-85453516D01*
X82019000Y-85246484D01*
X82059389Y-85043436D01*
X82138615Y-84852167D01*
X82145297Y-84842167D01*
X82253635Y-84680027D01*
X82400027Y-84533635D01*
X82572165Y-84418616D01*
X82596307Y-84408616D01*
X82763436Y-84339389D01*
X82966484Y-84299000D01*
X83173516Y-84299000D01*
X83376564Y-84339389D01*
X83376564Y-84339389D01*
G37*
G36*
X102436564Y-84329389D02*
G01*
X102627833Y-84408615D01*
X102627835Y-84408616D01*
X102799973Y-84523635D01*
X102946365Y-84670027D01*
X102953950Y-84681378D01*
X103061385Y-84842167D01*
X103140611Y-85033436D01*
X103181000Y-85236484D01*
X103181000Y-85443516D01*
X103140611Y-85646564D01*
X103094314Y-85758335D01*
X103061384Y-85837835D01*
X102946365Y-86009973D01*
X102799973Y-86156365D01*
X102627835Y-86271384D01*
X102627834Y-86271385D01*
X102627833Y-86271385D01*
X102436564Y-86350611D01*
X102233516Y-86391000D01*
X102026484Y-86391000D01*
X101823436Y-86350611D01*
X101632167Y-86271385D01*
X101632166Y-86271385D01*
X101632165Y-86271384D01*
X101460027Y-86156365D01*
X101313635Y-86009973D01*
X101198616Y-85837835D01*
X101165686Y-85758335D01*
X101119389Y-85646564D01*
X101079000Y-85443516D01*
X101079000Y-85236484D01*
X101119389Y-85033436D01*
X101198615Y-84842167D01*
X101306051Y-84681378D01*
X101313635Y-84670027D01*
X101460027Y-84523635D01*
X101632165Y-84408616D01*
X101632167Y-84408615D01*
X101823436Y-84329389D01*
X102026484Y-84289000D01*
X102233516Y-84289000D01*
X102436564Y-84329389D01*
X102436564Y-84329389D01*
G37*
G36*
X97356564Y-84329389D02*
G01*
X97547833Y-84408615D01*
X97547835Y-84408616D01*
X97719973Y-84523635D01*
X97866365Y-84670027D01*
X97873950Y-84681378D01*
X97981385Y-84842167D01*
X98060611Y-85033436D01*
X98101000Y-85236484D01*
X98101000Y-85443516D01*
X98060611Y-85646564D01*
X98014314Y-85758335D01*
X97981384Y-85837835D01*
X97866365Y-86009973D01*
X97719973Y-86156365D01*
X97547835Y-86271384D01*
X97547834Y-86271385D01*
X97547833Y-86271385D01*
X97356564Y-86350611D01*
X97153516Y-86391000D01*
X96946484Y-86391000D01*
X96743436Y-86350611D01*
X96552167Y-86271385D01*
X96552166Y-86271385D01*
X96552165Y-86271384D01*
X96380027Y-86156365D01*
X96233635Y-86009973D01*
X96118616Y-85837835D01*
X96085686Y-85758335D01*
X96039389Y-85646564D01*
X95999000Y-85443516D01*
X95999000Y-85236484D01*
X96039389Y-85033436D01*
X96118615Y-84842167D01*
X96226051Y-84681378D01*
X96233635Y-84670027D01*
X96380027Y-84523635D01*
X96552165Y-84408616D01*
X96552167Y-84408615D01*
X96743436Y-84329389D01*
X96946484Y-84289000D01*
X97153516Y-84289000D01*
X97356564Y-84329389D01*
X97356564Y-84329389D01*
G37*
G36*
X138266474Y-81413684D02*
G01*
X138423359Y-81478668D01*
X138638623Y-81567833D01*
X138973548Y-81791623D01*
X139258377Y-82076452D01*
X139482167Y-82411377D01*
X139494034Y-82440027D01*
X139636316Y-82783526D01*
X139714900Y-83178594D01*
X139714900Y-83581406D01*
X139636316Y-83976474D01*
X139576613Y-84120610D01*
X139482167Y-84348623D01*
X139258377Y-84683548D01*
X138973548Y-84968377D01*
X138638623Y-85192167D01*
X138507485Y-85246486D01*
X138266474Y-85346316D01*
X137871406Y-85424900D01*
X137468594Y-85424900D01*
X137073526Y-85346316D01*
X136832515Y-85246486D01*
X136701377Y-85192167D01*
X136366452Y-84968377D01*
X136081623Y-84683548D01*
X135857833Y-84348623D01*
X135763387Y-84120610D01*
X135703684Y-83976474D01*
X135625100Y-83581406D01*
X135625100Y-83178594D01*
X135703684Y-82783526D01*
X135845966Y-82440027D01*
X135857833Y-82411377D01*
X136081623Y-82076452D01*
X136366452Y-81791623D01*
X136701377Y-81567833D01*
X136916641Y-81478668D01*
X137073526Y-81413684D01*
X137468594Y-81335100D01*
X137871406Y-81335100D01*
X138266474Y-81413684D01*
X138266474Y-81413684D01*
G37*
G36*
X130280483Y-83218335D02*
G01*
X130449240Y-83288236D01*
X130601118Y-83389718D01*
X130730282Y-83518882D01*
X130831764Y-83670760D01*
X130901665Y-83839517D01*
X130937300Y-84018668D01*
X130937300Y-84201332D01*
X130901665Y-84380483D01*
X130831764Y-84549240D01*
X130730282Y-84701118D01*
X130601118Y-84830282D01*
X130449240Y-84931764D01*
X130280483Y-85001665D01*
X130101332Y-85037300D01*
X129918668Y-85037300D01*
X129739517Y-85001665D01*
X129570760Y-84931764D01*
X129418882Y-84830282D01*
X129289718Y-84701118D01*
X129188236Y-84549240D01*
X129118335Y-84380483D01*
X129082700Y-84201332D01*
X129082700Y-84018668D01*
X129118335Y-83839517D01*
X129188236Y-83670760D01*
X129289718Y-83518882D01*
X129418882Y-83389718D01*
X129570760Y-83288236D01*
X129739517Y-83218335D01*
X129918668Y-83182700D01*
X130101332Y-83182700D01*
X130280483Y-83218335D01*
X130280483Y-83218335D01*
G37*
G36*
X145520483Y-83218335D02*
G01*
X145689240Y-83288236D01*
X145841118Y-83389718D01*
X145970282Y-83518882D01*
X146071764Y-83670760D01*
X146141665Y-83839517D01*
X146177300Y-84018668D01*
X146177300Y-84201332D01*
X146141665Y-84380483D01*
X146071764Y-84549240D01*
X145970282Y-84701118D01*
X145841118Y-84830282D01*
X145689240Y-84931764D01*
X145520483Y-85001665D01*
X145341332Y-85037300D01*
X145158668Y-85037300D01*
X144979517Y-85001665D01*
X144810760Y-84931764D01*
X144658882Y-84830282D01*
X144529718Y-84701118D01*
X144428236Y-84549240D01*
X144358335Y-84380483D01*
X144322700Y-84201332D01*
X144322700Y-84018668D01*
X144358335Y-83839517D01*
X144428236Y-83670760D01*
X144529718Y-83518882D01*
X144658882Y-83389718D01*
X144810760Y-83288236D01*
X144979517Y-83218335D01*
X145158668Y-83182700D01*
X145341332Y-83182700D01*
X145520483Y-83218335D01*
X145520483Y-83218335D01*
G37*
G36*
X160836564Y-82099389D02*
G01*
X161027833Y-82178615D01*
X161027835Y-82178616D01*
X161194953Y-82290281D01*
X161199973Y-82293635D01*
X161346365Y-82440027D01*
X161461385Y-82612167D01*
X161540611Y-82803436D01*
X161581000Y-83006484D01*
X161581000Y-83213516D01*
X161540611Y-83416564D01*
X161482042Y-83557962D01*
X161461384Y-83607835D01*
X161346365Y-83779973D01*
X161199973Y-83926365D01*
X161027835Y-84041384D01*
X161027834Y-84041385D01*
X161027833Y-84041385D01*
X160836564Y-84120611D01*
X160633516Y-84161000D01*
X160426484Y-84161000D01*
X160223436Y-84120611D01*
X160032167Y-84041385D01*
X160032166Y-84041385D01*
X160032165Y-84041384D01*
X159860027Y-83926365D01*
X159713635Y-83779973D01*
X159598616Y-83607835D01*
X159577958Y-83557962D01*
X159519389Y-83416564D01*
X159479000Y-83213516D01*
X159479000Y-83006484D01*
X159519389Y-82803436D01*
X159598615Y-82612167D01*
X159713635Y-82440027D01*
X159860027Y-82293635D01*
X159865047Y-82290281D01*
X160032165Y-82178616D01*
X160032167Y-82178615D01*
X160223436Y-82099389D01*
X160426484Y-82059000D01*
X160633516Y-82059000D01*
X160836564Y-82099389D01*
X160836564Y-82099389D01*
G37*
G36*
X115116564Y-82099389D02*
G01*
X115307833Y-82178615D01*
X115307835Y-82178616D01*
X115474953Y-82290281D01*
X115479973Y-82293635D01*
X115626365Y-82440027D01*
X115741385Y-82612167D01*
X115820611Y-82803436D01*
X115861000Y-83006484D01*
X115861000Y-83213516D01*
X115820611Y-83416564D01*
X115762042Y-83557962D01*
X115741384Y-83607835D01*
X115626365Y-83779973D01*
X115479973Y-83926365D01*
X115307835Y-84041384D01*
X115307834Y-84041385D01*
X115307833Y-84041385D01*
X115116564Y-84120611D01*
X114913516Y-84161000D01*
X114706484Y-84161000D01*
X114503436Y-84120611D01*
X114312167Y-84041385D01*
X114312166Y-84041385D01*
X114312165Y-84041384D01*
X114140027Y-83926365D01*
X113993635Y-83779973D01*
X113878616Y-83607835D01*
X113857958Y-83557962D01*
X113799389Y-83416564D01*
X113759000Y-83213516D01*
X113759000Y-83006484D01*
X113799389Y-82803436D01*
X113878615Y-82612167D01*
X113993635Y-82440027D01*
X114140027Y-82293635D01*
X114145047Y-82290281D01*
X114312165Y-82178616D01*
X114312167Y-82178615D01*
X114503436Y-82099389D01*
X114706484Y-82059000D01*
X114913516Y-82059000D01*
X115116564Y-82099389D01*
X115116564Y-82099389D01*
G37*
G36*
X153216564Y-82099389D02*
G01*
X153407833Y-82178615D01*
X153407835Y-82178616D01*
X153574953Y-82290281D01*
X153579973Y-82293635D01*
X153726365Y-82440027D01*
X153841385Y-82612167D01*
X153920611Y-82803436D01*
X153961000Y-83006484D01*
X153961000Y-83213516D01*
X153920611Y-83416564D01*
X153862042Y-83557962D01*
X153841384Y-83607835D01*
X153726365Y-83779973D01*
X153579973Y-83926365D01*
X153407835Y-84041384D01*
X153407834Y-84041385D01*
X153407833Y-84041385D01*
X153216564Y-84120611D01*
X153013516Y-84161000D01*
X152806484Y-84161000D01*
X152603436Y-84120611D01*
X152412167Y-84041385D01*
X152412166Y-84041385D01*
X152412165Y-84041384D01*
X152240027Y-83926365D01*
X152093635Y-83779973D01*
X151978616Y-83607835D01*
X151957958Y-83557962D01*
X151899389Y-83416564D01*
X151859000Y-83213516D01*
X151859000Y-83006484D01*
X151899389Y-82803436D01*
X151978615Y-82612167D01*
X152093635Y-82440027D01*
X152240027Y-82293635D01*
X152245047Y-82290281D01*
X152412165Y-82178616D01*
X152412167Y-82178615D01*
X152603436Y-82099389D01*
X152806484Y-82059000D01*
X153013516Y-82059000D01*
X153216564Y-82099389D01*
X153216564Y-82099389D01*
G37*
G36*
X122736564Y-82099389D02*
G01*
X122927833Y-82178615D01*
X122927835Y-82178616D01*
X123094953Y-82290281D01*
X123099973Y-82293635D01*
X123246365Y-82440027D01*
X123361385Y-82612167D01*
X123440611Y-82803436D01*
X123481000Y-83006484D01*
X123481000Y-83213516D01*
X123440611Y-83416564D01*
X123382042Y-83557962D01*
X123361384Y-83607835D01*
X123246365Y-83779973D01*
X123099973Y-83926365D01*
X122927835Y-84041384D01*
X122927834Y-84041385D01*
X122927833Y-84041385D01*
X122736564Y-84120611D01*
X122533516Y-84161000D01*
X122326484Y-84161000D01*
X122123436Y-84120611D01*
X121932167Y-84041385D01*
X121932166Y-84041385D01*
X121932165Y-84041384D01*
X121760027Y-83926365D01*
X121613635Y-83779973D01*
X121498616Y-83607835D01*
X121477958Y-83557962D01*
X121419389Y-83416564D01*
X121379000Y-83213516D01*
X121379000Y-83006484D01*
X121419389Y-82803436D01*
X121498615Y-82612167D01*
X121613635Y-82440027D01*
X121760027Y-82293635D01*
X121765047Y-82290281D01*
X121932165Y-82178616D01*
X121932167Y-82178615D01*
X122123436Y-82099389D01*
X122326484Y-82059000D01*
X122533516Y-82059000D01*
X122736564Y-82099389D01*
X122736564Y-82099389D01*
G37*
G36*
X90647109Y-77546763D02*
G01*
X91269350Y-77735517D01*
X91549345Y-77885178D01*
X91842810Y-78042038D01*
X92345453Y-78454547D01*
X92757962Y-78957190D01*
X92852908Y-79134822D01*
X93064483Y-79530650D01*
X93253237Y-80152891D01*
X93316972Y-80800000D01*
X93253237Y-81447109D01*
X93064483Y-82069350D01*
X92946392Y-82290282D01*
X92757962Y-82642810D01*
X92345453Y-83145453D01*
X91842810Y-83557962D01*
X91749504Y-83607835D01*
X91269350Y-83864483D01*
X90647109Y-84053237D01*
X90162166Y-84101000D01*
X89837834Y-84101000D01*
X89352891Y-84053237D01*
X88730650Y-83864483D01*
X88250496Y-83607835D01*
X88157190Y-83557962D01*
X87654547Y-83145453D01*
X87242038Y-82642810D01*
X87053608Y-82290282D01*
X86935517Y-82069350D01*
X86746763Y-81447109D01*
X86683028Y-80800000D01*
X86746763Y-80152891D01*
X86935517Y-79530650D01*
X87147092Y-79134822D01*
X87242038Y-78957190D01*
X87654547Y-78454547D01*
X88157190Y-78042038D01*
X88450655Y-77885178D01*
X88730650Y-77735517D01*
X89352891Y-77546763D01*
X89837834Y-77499000D01*
X90162166Y-77499000D01*
X90647109Y-77546763D01*
X90647109Y-77546763D01*
G37*
G36*
X173536564Y-82029389D02*
G01*
X173722314Y-82106329D01*
X173727835Y-82108616D01*
X173899973Y-82223635D01*
X174046365Y-82370027D01*
X174107596Y-82461665D01*
X174161385Y-82542167D01*
X174240611Y-82733436D01*
X174281000Y-82936484D01*
X174281000Y-83143516D01*
X174240611Y-83346564D01*
X174169235Y-83518881D01*
X174161384Y-83537835D01*
X174046365Y-83709973D01*
X173899973Y-83856365D01*
X173727835Y-83971384D01*
X173727834Y-83971385D01*
X173727833Y-83971385D01*
X173536564Y-84050611D01*
X173333516Y-84091000D01*
X173126484Y-84091000D01*
X172923436Y-84050611D01*
X172732167Y-83971385D01*
X172732166Y-83971385D01*
X172732165Y-83971384D01*
X172560027Y-83856365D01*
X172413635Y-83709973D01*
X172298616Y-83537835D01*
X172290765Y-83518881D01*
X172219389Y-83346564D01*
X172179000Y-83143516D01*
X172179000Y-82936484D01*
X172219389Y-82733436D01*
X172298615Y-82542167D01*
X172352405Y-82461665D01*
X172413635Y-82370027D01*
X172560027Y-82223635D01*
X172732165Y-82108616D01*
X172737686Y-82106329D01*
X172923436Y-82029389D01*
X173126484Y-81989000D01*
X173333516Y-81989000D01*
X173536564Y-82029389D01*
X173536564Y-82029389D01*
G37*
G36*
X178616564Y-82029389D02*
G01*
X178802314Y-82106329D01*
X178807835Y-82108616D01*
X178979973Y-82223635D01*
X179126365Y-82370027D01*
X179187596Y-82461665D01*
X179241385Y-82542167D01*
X179320611Y-82733436D01*
X179361000Y-82936484D01*
X179361000Y-83143516D01*
X179320611Y-83346564D01*
X179249235Y-83518881D01*
X179241384Y-83537835D01*
X179126365Y-83709973D01*
X178979973Y-83856365D01*
X178807835Y-83971384D01*
X178807834Y-83971385D01*
X178807833Y-83971385D01*
X178616564Y-84050611D01*
X178413516Y-84091000D01*
X178206484Y-84091000D01*
X178003436Y-84050611D01*
X177812167Y-83971385D01*
X177812166Y-83971385D01*
X177812165Y-83971384D01*
X177640027Y-83856365D01*
X177493635Y-83709973D01*
X177378616Y-83537835D01*
X177370765Y-83518881D01*
X177299389Y-83346564D01*
X177259000Y-83143516D01*
X177259000Y-82936484D01*
X177299389Y-82733436D01*
X177378615Y-82542167D01*
X177432405Y-82461665D01*
X177493635Y-82370027D01*
X177640027Y-82223635D01*
X177812165Y-82108616D01*
X177817686Y-82106329D01*
X178003436Y-82029389D01*
X178206484Y-81989000D01*
X178413516Y-81989000D01*
X178616564Y-82029389D01*
X178616564Y-82029389D01*
G37*
G36*
X165070997Y-81160342D02*
G01*
X165155666Y-81177183D01*
X165221738Y-81204551D01*
X165315177Y-81243255D01*
X165458736Y-81339178D01*
X165580822Y-81461264D01*
X165676745Y-81604823D01*
X165698094Y-81656365D01*
X165742817Y-81764334D01*
X165776500Y-81933672D01*
X165776500Y-82106328D01*
X165742817Y-82275666D01*
X165735374Y-82293635D01*
X165676745Y-82435177D01*
X165580822Y-82578736D01*
X165458736Y-82700822D01*
X165315177Y-82796745D01*
X165221738Y-82835449D01*
X165155666Y-82862817D01*
X165070997Y-82879658D01*
X164986329Y-82896500D01*
X164813671Y-82896500D01*
X164729003Y-82879659D01*
X164644334Y-82862817D01*
X164578262Y-82835449D01*
X164484823Y-82796745D01*
X164341264Y-82700822D01*
X164219178Y-82578736D01*
X164123255Y-82435177D01*
X164064626Y-82293635D01*
X164057183Y-82275666D01*
X164023500Y-82106328D01*
X164023500Y-81933672D01*
X164057183Y-81764334D01*
X164101906Y-81656365D01*
X164123255Y-81604823D01*
X164219178Y-81461264D01*
X164341264Y-81339178D01*
X164484823Y-81243255D01*
X164578262Y-81204551D01*
X164644334Y-81177183D01*
X164729003Y-81160341D01*
X164813671Y-81143500D01*
X164986329Y-81143500D01*
X165070997Y-81160342D01*
X165070997Y-81160342D01*
G37*
G36*
X167770997Y-81160342D02*
G01*
X167855666Y-81177183D01*
X167921738Y-81204551D01*
X168015177Y-81243255D01*
X168158736Y-81339178D01*
X168280822Y-81461264D01*
X168376745Y-81604823D01*
X168398094Y-81656365D01*
X168442817Y-81764334D01*
X168476500Y-81933672D01*
X168476500Y-82106328D01*
X168442817Y-82275666D01*
X168435374Y-82293635D01*
X168376745Y-82435177D01*
X168280822Y-82578736D01*
X168158736Y-82700822D01*
X168015177Y-82796745D01*
X167921738Y-82835449D01*
X167855666Y-82862817D01*
X167770997Y-82879658D01*
X167686329Y-82896500D01*
X167513671Y-82896500D01*
X167429003Y-82879659D01*
X167344334Y-82862817D01*
X167278262Y-82835449D01*
X167184823Y-82796745D01*
X167041264Y-82700822D01*
X166919178Y-82578736D01*
X166823255Y-82435177D01*
X166764626Y-82293635D01*
X166757183Y-82275666D01*
X166723500Y-82106328D01*
X166723500Y-81933672D01*
X166757183Y-81764334D01*
X166801906Y-81656365D01*
X166823255Y-81604823D01*
X166919178Y-81461264D01*
X167041264Y-81339178D01*
X167184823Y-81243255D01*
X167278262Y-81204551D01*
X167344334Y-81177183D01*
X167429003Y-81160341D01*
X167513671Y-81143500D01*
X167686329Y-81143500D01*
X167770997Y-81160342D01*
X167770997Y-81160342D01*
G37*
G36*
X130280483Y-80678335D02*
G01*
X130449240Y-80748236D01*
X130601118Y-80849718D01*
X130730282Y-80978882D01*
X130831764Y-81130760D01*
X130901665Y-81299517D01*
X130937300Y-81478668D01*
X130937300Y-81661332D01*
X130901665Y-81840483D01*
X130831764Y-82009240D01*
X130730282Y-82161118D01*
X130601118Y-82290282D01*
X130449240Y-82391764D01*
X130280483Y-82461665D01*
X130101332Y-82497300D01*
X129918668Y-82497300D01*
X129739517Y-82461665D01*
X129570760Y-82391764D01*
X129418882Y-82290282D01*
X129289718Y-82161118D01*
X129188236Y-82009240D01*
X129118335Y-81840483D01*
X129082700Y-81661332D01*
X129082700Y-81478668D01*
X129118335Y-81299517D01*
X129188236Y-81130760D01*
X129289718Y-80978882D01*
X129418882Y-80849718D01*
X129570760Y-80748236D01*
X129739517Y-80678335D01*
X129918668Y-80642700D01*
X130101332Y-80642700D01*
X130280483Y-80678335D01*
X130280483Y-80678335D01*
G37*
G36*
X145520483Y-80678335D02*
G01*
X145689240Y-80748236D01*
X145841118Y-80849718D01*
X145970282Y-80978882D01*
X146071764Y-81130760D01*
X146141665Y-81299517D01*
X146177300Y-81478668D01*
X146177300Y-81661332D01*
X146141665Y-81840483D01*
X146071764Y-82009240D01*
X145970282Y-82161118D01*
X145841118Y-82290282D01*
X145689240Y-82391764D01*
X145520483Y-82461665D01*
X145341332Y-82497300D01*
X145158668Y-82497300D01*
X144979517Y-82461665D01*
X144810760Y-82391764D01*
X144658882Y-82290282D01*
X144529718Y-82161118D01*
X144428236Y-82009240D01*
X144358335Y-81840483D01*
X144322700Y-81661332D01*
X144322700Y-81478668D01*
X144358335Y-81299517D01*
X144428236Y-81130760D01*
X144529718Y-80978882D01*
X144658882Y-80849718D01*
X144810760Y-80748236D01*
X144979517Y-80678335D01*
X145158668Y-80642700D01*
X145341332Y-80642700D01*
X145520483Y-80678335D01*
X145520483Y-80678335D01*
G37*
G36*
X141786564Y-79829389D02*
G01*
X141977833Y-79908615D01*
X141977835Y-79908616D01*
X142149973Y-80023635D01*
X142296365Y-80170027D01*
X142401081Y-80326745D01*
X142411385Y-80342167D01*
X142490611Y-80533436D01*
X142531000Y-80736484D01*
X142531000Y-80943516D01*
X142490611Y-81146564D01*
X142450560Y-81243255D01*
X142411384Y-81337835D01*
X142296365Y-81509973D01*
X142149973Y-81656365D01*
X141977835Y-81771384D01*
X141977834Y-81771385D01*
X141977833Y-81771385D01*
X141786564Y-81850611D01*
X141583516Y-81891000D01*
X141376484Y-81891000D01*
X141173436Y-81850611D01*
X140982167Y-81771385D01*
X140982166Y-81771385D01*
X140982165Y-81771384D01*
X140810027Y-81656365D01*
X140663635Y-81509973D01*
X140548616Y-81337835D01*
X140509440Y-81243255D01*
X140469389Y-81146564D01*
X140429000Y-80943516D01*
X140429000Y-80736484D01*
X140469389Y-80533436D01*
X140548615Y-80342167D01*
X140558920Y-80326745D01*
X140663635Y-80170027D01*
X140810027Y-80023635D01*
X140982165Y-79908616D01*
X140982167Y-79908615D01*
X141173436Y-79829389D01*
X141376484Y-79789000D01*
X141583516Y-79789000D01*
X141786564Y-79829389D01*
X141786564Y-79829389D01*
G37*
G36*
X134166564Y-79829389D02*
G01*
X134357833Y-79908615D01*
X134357835Y-79908616D01*
X134529973Y-80023635D01*
X134676365Y-80170027D01*
X134781081Y-80326745D01*
X134791385Y-80342167D01*
X134870611Y-80533436D01*
X134911000Y-80736484D01*
X134911000Y-80943516D01*
X134870611Y-81146564D01*
X134830560Y-81243255D01*
X134791384Y-81337835D01*
X134676365Y-81509973D01*
X134529973Y-81656365D01*
X134357835Y-81771384D01*
X134357834Y-81771385D01*
X134357833Y-81771385D01*
X134166564Y-81850611D01*
X133963516Y-81891000D01*
X133756484Y-81891000D01*
X133553436Y-81850611D01*
X133362167Y-81771385D01*
X133362166Y-81771385D01*
X133362165Y-81771384D01*
X133190027Y-81656365D01*
X133043635Y-81509973D01*
X132928616Y-81337835D01*
X132889440Y-81243255D01*
X132849389Y-81146564D01*
X132809000Y-80943516D01*
X132809000Y-80736484D01*
X132849389Y-80533436D01*
X132928615Y-80342167D01*
X132938920Y-80326745D01*
X133043635Y-80170027D01*
X133190027Y-80023635D01*
X133362165Y-79908616D01*
X133362167Y-79908615D01*
X133553436Y-79829389D01*
X133756484Y-79789000D01*
X133963516Y-79789000D01*
X134166564Y-79829389D01*
X134166564Y-79829389D01*
G37*
G36*
X116386564Y-79559389D02*
G01*
X116572314Y-79636329D01*
X116577835Y-79638616D01*
X116749973Y-79753635D01*
X116896365Y-79900027D01*
X116966625Y-80005178D01*
X117011385Y-80072167D01*
X117090611Y-80263436D01*
X117131000Y-80466484D01*
X117131000Y-80673516D01*
X117090611Y-80876564D01*
X117011385Y-81067833D01*
X117011384Y-81067835D01*
X116896365Y-81239973D01*
X116749973Y-81386365D01*
X116577835Y-81501384D01*
X116577834Y-81501385D01*
X116577833Y-81501385D01*
X116386564Y-81580611D01*
X116183516Y-81621000D01*
X115976484Y-81621000D01*
X115773436Y-81580611D01*
X115582167Y-81501385D01*
X115582166Y-81501385D01*
X115582165Y-81501384D01*
X115410027Y-81386365D01*
X115263635Y-81239973D01*
X115148616Y-81067835D01*
X115148615Y-81067833D01*
X115069389Y-80876564D01*
X115029000Y-80673516D01*
X115029000Y-80466484D01*
X115069389Y-80263436D01*
X115148615Y-80072167D01*
X115193376Y-80005178D01*
X115263635Y-79900027D01*
X115410027Y-79753635D01*
X115582165Y-79638616D01*
X115587686Y-79636329D01*
X115773436Y-79559389D01*
X115976484Y-79519000D01*
X116183516Y-79519000D01*
X116386564Y-79559389D01*
X116386564Y-79559389D01*
G37*
G36*
X159566564Y-79559389D02*
G01*
X159752314Y-79636329D01*
X159757835Y-79638616D01*
X159929973Y-79753635D01*
X160076365Y-79900027D01*
X160146625Y-80005178D01*
X160191385Y-80072167D01*
X160270611Y-80263436D01*
X160311000Y-80466484D01*
X160311000Y-80673516D01*
X160270611Y-80876564D01*
X160191385Y-81067833D01*
X160191384Y-81067835D01*
X160076365Y-81239973D01*
X159929973Y-81386365D01*
X159757835Y-81501384D01*
X159757834Y-81501385D01*
X159757833Y-81501385D01*
X159566564Y-81580611D01*
X159363516Y-81621000D01*
X159156484Y-81621000D01*
X158953436Y-81580611D01*
X158762167Y-81501385D01*
X158762166Y-81501385D01*
X158762165Y-81501384D01*
X158590027Y-81386365D01*
X158443635Y-81239973D01*
X158328616Y-81067835D01*
X158328615Y-81067833D01*
X158249389Y-80876564D01*
X158209000Y-80673516D01*
X158209000Y-80466484D01*
X158249389Y-80263436D01*
X158328615Y-80072167D01*
X158373376Y-80005178D01*
X158443635Y-79900027D01*
X158590027Y-79753635D01*
X158762165Y-79638616D01*
X158767686Y-79636329D01*
X158953436Y-79559389D01*
X159156484Y-79519000D01*
X159363516Y-79519000D01*
X159566564Y-79559389D01*
X159566564Y-79559389D01*
G37*
G36*
X154486564Y-79559389D02*
G01*
X154672314Y-79636329D01*
X154677835Y-79638616D01*
X154849973Y-79753635D01*
X154996365Y-79900027D01*
X155066625Y-80005178D01*
X155111385Y-80072167D01*
X155190611Y-80263436D01*
X155231000Y-80466484D01*
X155231000Y-80673516D01*
X155190611Y-80876564D01*
X155111385Y-81067833D01*
X155111384Y-81067835D01*
X154996365Y-81239973D01*
X154849973Y-81386365D01*
X154677835Y-81501384D01*
X154677834Y-81501385D01*
X154677833Y-81501385D01*
X154486564Y-81580611D01*
X154283516Y-81621000D01*
X154076484Y-81621000D01*
X153873436Y-81580611D01*
X153682167Y-81501385D01*
X153682166Y-81501385D01*
X153682165Y-81501384D01*
X153510027Y-81386365D01*
X153363635Y-81239973D01*
X153248616Y-81067835D01*
X153248615Y-81067833D01*
X153169389Y-80876564D01*
X153129000Y-80673516D01*
X153129000Y-80466484D01*
X153169389Y-80263436D01*
X153248615Y-80072167D01*
X153293376Y-80005178D01*
X153363635Y-79900027D01*
X153510027Y-79753635D01*
X153682165Y-79638616D01*
X153687686Y-79636329D01*
X153873436Y-79559389D01*
X154076484Y-79519000D01*
X154283516Y-79519000D01*
X154486564Y-79559389D01*
X154486564Y-79559389D01*
G37*
G36*
X121466564Y-79559389D02*
G01*
X121652314Y-79636329D01*
X121657835Y-79638616D01*
X121829973Y-79753635D01*
X121976365Y-79900027D01*
X122046625Y-80005178D01*
X122091385Y-80072167D01*
X122170611Y-80263436D01*
X122211000Y-80466484D01*
X122211000Y-80673516D01*
X122170611Y-80876564D01*
X122091385Y-81067833D01*
X122091384Y-81067835D01*
X121976365Y-81239973D01*
X121829973Y-81386365D01*
X121657835Y-81501384D01*
X121657834Y-81501385D01*
X121657833Y-81501385D01*
X121466564Y-81580611D01*
X121263516Y-81621000D01*
X121056484Y-81621000D01*
X120853436Y-81580611D01*
X120662167Y-81501385D01*
X120662166Y-81501385D01*
X120662165Y-81501384D01*
X120490027Y-81386365D01*
X120343635Y-81239973D01*
X120228616Y-81067835D01*
X120228615Y-81067833D01*
X120149389Y-80876564D01*
X120109000Y-80673516D01*
X120109000Y-80466484D01*
X120149389Y-80263436D01*
X120228615Y-80072167D01*
X120273376Y-80005178D01*
X120343635Y-79900027D01*
X120490027Y-79753635D01*
X120662165Y-79638616D01*
X120667686Y-79636329D01*
X120853436Y-79559389D01*
X121056484Y-79519000D01*
X121263516Y-79519000D01*
X121466564Y-79559389D01*
X121466564Y-79559389D01*
G37*
G36*
X180201000Y-80831000D02*
G01*
X178399000Y-80831000D01*
X178399000Y-79029000D01*
X180201000Y-79029000D01*
X180201000Y-80831000D01*
X180201000Y-80831000D01*
G37*
G36*
X176870442Y-79035518D02*
G01*
X176936627Y-79042037D01*
X177106466Y-79093557D01*
X177262991Y-79177222D01*
X177298729Y-79206552D01*
X177400186Y-79289814D01*
X177450399Y-79351000D01*
X177512778Y-79427009D01*
X177596443Y-79583534D01*
X177647963Y-79753373D01*
X177665359Y-79930000D01*
X177647963Y-80106627D01*
X177596443Y-80276466D01*
X177512778Y-80432991D01*
X177486935Y-80464481D01*
X177400186Y-80570186D01*
X177311826Y-80642700D01*
X177262991Y-80682778D01*
X177106466Y-80766443D01*
X176936627Y-80817963D01*
X176870442Y-80824482D01*
X176804260Y-80831000D01*
X176715740Y-80831000D01*
X176649558Y-80824482D01*
X176583373Y-80817963D01*
X176413534Y-80766443D01*
X176257009Y-80682778D01*
X176208174Y-80642700D01*
X176119814Y-80570186D01*
X176033065Y-80464481D01*
X176007222Y-80432991D01*
X175923557Y-80276466D01*
X175872037Y-80106627D01*
X175854641Y-79930000D01*
X175872037Y-79753373D01*
X175923557Y-79583534D01*
X176007222Y-79427009D01*
X176069601Y-79351000D01*
X176119814Y-79289814D01*
X176221271Y-79206552D01*
X176257009Y-79177222D01*
X176413534Y-79093557D01*
X176583373Y-79042037D01*
X176649558Y-79035518D01*
X176715740Y-79029000D01*
X176804260Y-79029000D01*
X176870442Y-79035518D01*
X176870442Y-79035518D01*
G37*
G36*
X174330442Y-79035518D02*
G01*
X174396627Y-79042037D01*
X174566466Y-79093557D01*
X174722991Y-79177222D01*
X174758729Y-79206552D01*
X174860186Y-79289814D01*
X174910399Y-79351000D01*
X174972778Y-79427009D01*
X175056443Y-79583534D01*
X175107963Y-79753373D01*
X175125359Y-79930000D01*
X175107963Y-80106627D01*
X175056443Y-80276466D01*
X174972778Y-80432991D01*
X174946935Y-80464481D01*
X174860186Y-80570186D01*
X174771826Y-80642700D01*
X174722991Y-80682778D01*
X174566466Y-80766443D01*
X174396627Y-80817963D01*
X174330442Y-80824482D01*
X174264260Y-80831000D01*
X174175740Y-80831000D01*
X174109558Y-80824482D01*
X174043373Y-80817963D01*
X173873534Y-80766443D01*
X173717009Y-80682778D01*
X173668174Y-80642700D01*
X173579814Y-80570186D01*
X173493065Y-80464481D01*
X173467222Y-80432991D01*
X173383557Y-80276466D01*
X173332037Y-80106627D01*
X173314641Y-79930000D01*
X173332037Y-79753373D01*
X173383557Y-79583534D01*
X173467222Y-79427009D01*
X173529601Y-79351000D01*
X173579814Y-79289814D01*
X173681271Y-79206552D01*
X173717009Y-79177222D01*
X173873534Y-79093557D01*
X174043373Y-79042037D01*
X174109558Y-79035518D01*
X174175740Y-79029000D01*
X174264260Y-79029000D01*
X174330442Y-79035518D01*
X174330442Y-79035518D01*
G37*
G36*
X171790442Y-79035518D02*
G01*
X171856627Y-79042037D01*
X172026466Y-79093557D01*
X172182991Y-79177222D01*
X172218729Y-79206552D01*
X172320186Y-79289814D01*
X172370399Y-79351000D01*
X172432778Y-79427009D01*
X172516443Y-79583534D01*
X172567963Y-79753373D01*
X172585359Y-79930000D01*
X172567963Y-80106627D01*
X172516443Y-80276466D01*
X172432778Y-80432991D01*
X172406935Y-80464481D01*
X172320186Y-80570186D01*
X172231826Y-80642700D01*
X172182991Y-80682778D01*
X172026466Y-80766443D01*
X171856627Y-80817963D01*
X171790442Y-80824482D01*
X171724260Y-80831000D01*
X171635740Y-80831000D01*
X171569558Y-80824482D01*
X171503373Y-80817963D01*
X171333534Y-80766443D01*
X171177009Y-80682778D01*
X171128174Y-80642700D01*
X171039814Y-80570186D01*
X170953065Y-80464481D01*
X170927222Y-80432991D01*
X170843557Y-80276466D01*
X170792037Y-80106627D01*
X170774641Y-79930000D01*
X170792037Y-79753373D01*
X170843557Y-79583534D01*
X170927222Y-79427009D01*
X170989601Y-79351000D01*
X171039814Y-79289814D01*
X171141271Y-79206552D01*
X171177009Y-79177222D01*
X171333534Y-79093557D01*
X171503373Y-79042037D01*
X171569558Y-79035518D01*
X171635740Y-79029000D01*
X171724260Y-79029000D01*
X171790442Y-79035518D01*
X171790442Y-79035518D01*
G37*
G36*
X166847109Y-74146763D02*
G01*
X167469350Y-74335517D01*
X167841310Y-74534334D01*
X168042810Y-74642038D01*
X168545453Y-75054547D01*
X168957962Y-75557190D01*
X168968414Y-75576745D01*
X169264483Y-76130650D01*
X169453237Y-76752891D01*
X169516972Y-77400000D01*
X169453237Y-78047109D01*
X169264483Y-78669350D01*
X169110629Y-78957189D01*
X168957962Y-79242810D01*
X168545453Y-79745453D01*
X168042810Y-80157962D01*
X167906498Y-80230822D01*
X167469350Y-80464483D01*
X166847109Y-80653237D01*
X166362166Y-80701000D01*
X166037834Y-80701000D01*
X165552891Y-80653237D01*
X164930650Y-80464483D01*
X164493502Y-80230822D01*
X164357190Y-80157962D01*
X163854547Y-79745453D01*
X163442038Y-79242810D01*
X163289371Y-78957189D01*
X163135517Y-78669350D01*
X162946763Y-78047109D01*
X162883028Y-77400000D01*
X162946763Y-76752891D01*
X163135517Y-76130650D01*
X163431586Y-75576745D01*
X163442038Y-75557190D01*
X163854547Y-75054547D01*
X164357190Y-74642038D01*
X164558690Y-74534334D01*
X164930650Y-74335517D01*
X165552891Y-74146763D01*
X166037834Y-74099000D01*
X166362166Y-74099000D01*
X166847109Y-74146763D01*
X166847109Y-74146763D01*
G37*
G36*
X84500997Y-78730341D02*
G01*
X84585666Y-78747183D01*
X84615442Y-78759517D01*
X84745177Y-78813255D01*
X84888736Y-78909178D01*
X85010822Y-79031264D01*
X85106745Y-79174823D01*
X85145449Y-79268262D01*
X85156249Y-79294335D01*
X85172817Y-79334335D01*
X85198544Y-79463671D01*
X85206500Y-79503672D01*
X85206500Y-79676328D01*
X85172817Y-79845666D01*
X85170291Y-79851764D01*
X85106745Y-80005177D01*
X85010822Y-80148736D01*
X84888736Y-80270822D01*
X84745177Y-80366745D01*
X84651738Y-80405449D01*
X84585666Y-80432817D01*
X84500997Y-80449659D01*
X84416329Y-80466500D01*
X84243671Y-80466500D01*
X84159003Y-80449659D01*
X84074334Y-80432817D01*
X84008262Y-80405449D01*
X83914823Y-80366745D01*
X83771264Y-80270822D01*
X83649178Y-80148736D01*
X83553255Y-80005177D01*
X83489709Y-79851764D01*
X83487183Y-79845666D01*
X83453500Y-79676328D01*
X83453500Y-79503672D01*
X83461457Y-79463671D01*
X83487183Y-79334335D01*
X83503752Y-79294335D01*
X83514551Y-79268262D01*
X83553255Y-79174823D01*
X83649178Y-79031264D01*
X83771264Y-78909178D01*
X83914823Y-78813255D01*
X84044558Y-78759517D01*
X84074334Y-78747183D01*
X84159003Y-78730341D01*
X84243671Y-78713500D01*
X84416329Y-78713500D01*
X84500997Y-78730341D01*
X84500997Y-78730341D01*
G37*
G36*
X77586500Y-80466500D02*
G01*
X75833500Y-80466500D01*
X75833500Y-78713500D01*
X77586500Y-78713500D01*
X77586500Y-80466500D01*
X77586500Y-80466500D01*
G37*
G36*
X96656500Y-80426500D02*
G01*
X94903500Y-80426500D01*
X94903500Y-78673500D01*
X96656500Y-78673500D01*
X96656500Y-80426500D01*
X96656500Y-80426500D01*
G37*
G36*
X103570997Y-78690341D02*
G01*
X103655666Y-78707183D01*
X103670916Y-78713500D01*
X103815177Y-78773255D01*
X103958736Y-78869178D01*
X104080822Y-78991264D01*
X104176745Y-79134823D01*
X104194307Y-79177222D01*
X104242817Y-79294334D01*
X104254088Y-79351000D01*
X104276500Y-79463671D01*
X104276500Y-79636329D01*
X104259658Y-79720997D01*
X104242817Y-79805666D01*
X104226248Y-79845666D01*
X104176745Y-79965177D01*
X104080822Y-80108736D01*
X103958736Y-80230822D01*
X103815177Y-80326745D01*
X103721738Y-80365449D01*
X103655666Y-80392817D01*
X103570997Y-80409659D01*
X103486329Y-80426500D01*
X103313671Y-80426500D01*
X103229003Y-80409659D01*
X103144334Y-80392817D01*
X103078262Y-80365449D01*
X102984823Y-80326745D01*
X102841264Y-80230822D01*
X102719178Y-80108736D01*
X102623255Y-79965177D01*
X102573752Y-79845666D01*
X102557183Y-79805666D01*
X102540342Y-79720997D01*
X102523500Y-79636329D01*
X102523500Y-79463671D01*
X102545912Y-79351000D01*
X102557183Y-79294334D01*
X102605693Y-79177222D01*
X102623255Y-79134823D01*
X102719178Y-78991264D01*
X102841264Y-78869178D01*
X102984823Y-78773255D01*
X103129084Y-78713500D01*
X103144334Y-78707183D01*
X103229003Y-78690341D01*
X103313671Y-78673500D01*
X103486329Y-78673500D01*
X103570997Y-78690341D01*
X103570997Y-78690341D01*
G37*
G36*
X130280483Y-78138335D02*
G01*
X130449240Y-78208236D01*
X130601118Y-78309718D01*
X130730282Y-78438882D01*
X130831764Y-78590760D01*
X130901665Y-78759517D01*
X130937300Y-78938668D01*
X130937300Y-79121332D01*
X130901665Y-79300483D01*
X130831764Y-79469240D01*
X130730282Y-79621118D01*
X130601118Y-79750282D01*
X130449240Y-79851764D01*
X130280483Y-79921665D01*
X130101332Y-79957300D01*
X129918668Y-79957300D01*
X129739517Y-79921665D01*
X129570760Y-79851764D01*
X129418882Y-79750282D01*
X129289718Y-79621118D01*
X129188236Y-79469240D01*
X129118335Y-79300483D01*
X129082700Y-79121332D01*
X129082700Y-78938668D01*
X129118335Y-78759517D01*
X129188236Y-78590760D01*
X129289718Y-78438882D01*
X129418882Y-78309718D01*
X129570760Y-78208236D01*
X129739517Y-78138335D01*
X129918668Y-78102700D01*
X130101332Y-78102700D01*
X130280483Y-78138335D01*
X130280483Y-78138335D01*
G37*
G36*
X145520483Y-78138335D02*
G01*
X145689240Y-78208236D01*
X145841118Y-78309718D01*
X145970282Y-78438882D01*
X146071764Y-78590760D01*
X146141665Y-78759517D01*
X146177300Y-78938668D01*
X146177300Y-79121332D01*
X146141665Y-79300483D01*
X146071764Y-79469240D01*
X145970282Y-79621118D01*
X145841118Y-79750282D01*
X145689240Y-79851764D01*
X145520483Y-79921665D01*
X145341332Y-79957300D01*
X145158668Y-79957300D01*
X144979517Y-79921665D01*
X144810760Y-79851764D01*
X144658882Y-79750282D01*
X144529718Y-79621118D01*
X144428236Y-79469240D01*
X144358335Y-79300483D01*
X144322700Y-79121332D01*
X144322700Y-78938668D01*
X144358335Y-78759517D01*
X144428236Y-78590760D01*
X144529718Y-78438882D01*
X144658882Y-78309718D01*
X144810760Y-78208236D01*
X144979517Y-78138335D01*
X145158668Y-78102700D01*
X145341332Y-78102700D01*
X145520483Y-78138335D01*
X145520483Y-78138335D01*
G37*
G36*
X140516564Y-77289389D02*
G01*
X140707833Y-77368615D01*
X140707835Y-77368616D01*
X140879973Y-77483635D01*
X141026365Y-77630027D01*
X141096853Y-77735519D01*
X141141385Y-77802167D01*
X141220611Y-77993436D01*
X141261000Y-78196484D01*
X141261000Y-78403516D01*
X141220611Y-78606564D01*
X141151565Y-78773256D01*
X141141384Y-78797835D01*
X141026365Y-78969973D01*
X140879973Y-79116365D01*
X140707835Y-79231384D01*
X140707834Y-79231385D01*
X140707833Y-79231385D01*
X140516564Y-79310611D01*
X140313516Y-79351000D01*
X140106484Y-79351000D01*
X139903436Y-79310611D01*
X139712167Y-79231385D01*
X139712166Y-79231385D01*
X139712165Y-79231384D01*
X139540027Y-79116365D01*
X139393635Y-78969973D01*
X139278616Y-78797835D01*
X139268435Y-78773256D01*
X139199389Y-78606564D01*
X139159000Y-78403516D01*
X139159000Y-78196484D01*
X139199389Y-77993436D01*
X139278615Y-77802167D01*
X139323148Y-77735519D01*
X139393635Y-77630027D01*
X139540027Y-77483635D01*
X139712165Y-77368616D01*
X139712167Y-77368615D01*
X139903436Y-77289389D01*
X140106484Y-77249000D01*
X140313516Y-77249000D01*
X140516564Y-77289389D01*
X140516564Y-77289389D01*
G37*
G36*
X135436564Y-77289389D02*
G01*
X135627833Y-77368615D01*
X135627835Y-77368616D01*
X135799973Y-77483635D01*
X135946365Y-77630027D01*
X136016853Y-77735519D01*
X136061385Y-77802167D01*
X136140611Y-77993436D01*
X136181000Y-78196484D01*
X136181000Y-78403516D01*
X136140611Y-78606564D01*
X136071565Y-78773256D01*
X136061384Y-78797835D01*
X135946365Y-78969973D01*
X135799973Y-79116365D01*
X135627835Y-79231384D01*
X135627834Y-79231385D01*
X135627833Y-79231385D01*
X135436564Y-79310611D01*
X135233516Y-79351000D01*
X135026484Y-79351000D01*
X134823436Y-79310611D01*
X134632167Y-79231385D01*
X134632166Y-79231385D01*
X134632165Y-79231384D01*
X134460027Y-79116365D01*
X134313635Y-78969973D01*
X134198616Y-78797835D01*
X134188435Y-78773256D01*
X134119389Y-78606564D01*
X134079000Y-78403516D01*
X134079000Y-78196484D01*
X134119389Y-77993436D01*
X134198615Y-77802167D01*
X134243148Y-77735519D01*
X134313635Y-77630027D01*
X134460027Y-77483635D01*
X134632165Y-77368616D01*
X134632167Y-77368615D01*
X134823436Y-77289389D01*
X135026484Y-77249000D01*
X135233516Y-77249000D01*
X135436564Y-77289389D01*
X135436564Y-77289389D01*
G37*
G36*
X172336500Y-78346500D02*
G01*
X170583500Y-78346500D01*
X170583500Y-76593500D01*
X172336500Y-76593500D01*
X172336500Y-78346500D01*
X172336500Y-78346500D01*
G37*
G36*
X179250997Y-76610342D02*
G01*
X179335666Y-76627183D01*
X179401738Y-76654551D01*
X179495177Y-76693255D01*
X179638736Y-76789178D01*
X179760822Y-76911264D01*
X179856745Y-77054823D01*
X179867637Y-77081119D01*
X179922817Y-77214334D01*
X179956500Y-77383672D01*
X179956500Y-77556328D01*
X179922817Y-77725666D01*
X179895449Y-77791738D01*
X179856745Y-77885177D01*
X179760822Y-78028736D01*
X179638736Y-78150822D01*
X179495177Y-78246745D01*
X179401738Y-78285449D01*
X179335666Y-78312817D01*
X179250997Y-78329659D01*
X179166329Y-78346500D01*
X178993671Y-78346500D01*
X178909003Y-78329658D01*
X178824334Y-78312817D01*
X178758262Y-78285449D01*
X178664823Y-78246745D01*
X178521264Y-78150822D01*
X178399178Y-78028736D01*
X178303255Y-77885177D01*
X178264551Y-77791738D01*
X178237183Y-77725666D01*
X178203500Y-77556328D01*
X178203500Y-77383672D01*
X178237183Y-77214334D01*
X178292363Y-77081119D01*
X178303255Y-77054823D01*
X178399178Y-76911264D01*
X178521264Y-76789178D01*
X178664823Y-76693255D01*
X178758262Y-76654551D01*
X178824334Y-76627183D01*
X178909003Y-76610342D01*
X178993671Y-76593500D01*
X179166329Y-76593500D01*
X179250997Y-76610342D01*
X179250997Y-76610342D01*
G37*
G36*
X145520483Y-75598335D02*
G01*
X145689240Y-75668236D01*
X145841118Y-75769718D01*
X145970282Y-75898882D01*
X146071764Y-76050760D01*
X146141665Y-76219517D01*
X146177300Y-76398668D01*
X146177300Y-76581332D01*
X146141665Y-76760483D01*
X146071764Y-76929240D01*
X145970282Y-77081118D01*
X145841118Y-77210282D01*
X145689240Y-77311764D01*
X145520483Y-77381665D01*
X145341332Y-77417300D01*
X145158668Y-77417300D01*
X144979517Y-77381665D01*
X144810760Y-77311764D01*
X144658882Y-77210282D01*
X144529718Y-77081118D01*
X144428236Y-76929240D01*
X144358335Y-76760483D01*
X144322700Y-76581332D01*
X144322700Y-76398668D01*
X144358335Y-76219517D01*
X144428236Y-76050760D01*
X144529718Y-75898882D01*
X144658882Y-75769718D01*
X144810760Y-75668236D01*
X144979517Y-75598335D01*
X145158668Y-75562700D01*
X145341332Y-75562700D01*
X145520483Y-75598335D01*
X145520483Y-75598335D01*
G37*
G36*
X130280483Y-75598335D02*
G01*
X130449240Y-75668236D01*
X130601118Y-75769718D01*
X130730282Y-75898882D01*
X130831764Y-76050760D01*
X130901665Y-76219517D01*
X130937300Y-76398668D01*
X130937300Y-76581332D01*
X130901665Y-76760483D01*
X130831764Y-76929240D01*
X130730282Y-77081118D01*
X130601118Y-77210282D01*
X130449240Y-77311764D01*
X130280483Y-77381665D01*
X130101332Y-77417300D01*
X129918668Y-77417300D01*
X129739517Y-77381665D01*
X129570760Y-77311764D01*
X129418882Y-77210282D01*
X129289718Y-77081118D01*
X129188236Y-76929240D01*
X129118335Y-76760483D01*
X129082700Y-76581332D01*
X129082700Y-76398668D01*
X129118335Y-76219517D01*
X129188236Y-76050760D01*
X129289718Y-75898882D01*
X129418882Y-75769718D01*
X129570760Y-75668236D01*
X129739517Y-75598335D01*
X129918668Y-75562700D01*
X130101332Y-75562700D01*
X130280483Y-75598335D01*
X130280483Y-75598335D01*
G37*
G36*
X115676500Y-75676500D02*
G01*
X113923500Y-75676500D01*
X113923500Y-73923500D01*
X115676500Y-73923500D01*
X115676500Y-75676500D01*
X115676500Y-75676500D01*
G37*
G36*
X122590997Y-73940341D02*
G01*
X122675666Y-73957183D01*
X122741738Y-73984551D01*
X122835177Y-74023255D01*
X122978736Y-74119178D01*
X123100822Y-74241264D01*
X123196745Y-74384823D01*
X123235449Y-74478262D01*
X123261485Y-74541118D01*
X123262817Y-74544335D01*
X123282252Y-74642039D01*
X123296500Y-74713672D01*
X123296500Y-74886328D01*
X123263040Y-75054547D01*
X123262817Y-75055665D01*
X123196745Y-75215177D01*
X123100822Y-75358736D01*
X122978736Y-75480822D01*
X122835177Y-75576745D01*
X122741738Y-75615449D01*
X122675666Y-75642817D01*
X122590997Y-75659658D01*
X122506329Y-75676500D01*
X122333671Y-75676500D01*
X122249003Y-75659658D01*
X122164334Y-75642817D01*
X122098262Y-75615449D01*
X122004823Y-75576745D01*
X121861264Y-75480822D01*
X121739178Y-75358736D01*
X121643255Y-75215177D01*
X121577183Y-75055665D01*
X121576961Y-75054547D01*
X121543500Y-74886328D01*
X121543500Y-74713672D01*
X121557749Y-74642039D01*
X121577183Y-74544335D01*
X121578516Y-74541118D01*
X121604551Y-74478262D01*
X121643255Y-74384823D01*
X121739178Y-74241264D01*
X121861264Y-74119178D01*
X122004823Y-74023255D01*
X122098262Y-73984551D01*
X122164334Y-73957183D01*
X122249003Y-73940341D01*
X122333671Y-73923500D01*
X122506329Y-73923500D01*
X122590997Y-73940341D01*
X122590997Y-73940341D01*
G37*
G36*
X160666602Y-73923500D02*
G01*
X160785666Y-73947183D01*
X160851738Y-73974551D01*
X160945177Y-74013255D01*
X161088736Y-74109178D01*
X161210822Y-74231264D01*
X161306745Y-74374823D01*
X161345449Y-74468262D01*
X161372817Y-74534334D01*
X161374806Y-74544334D01*
X161399859Y-74670282D01*
X161406500Y-74703672D01*
X161406500Y-74876328D01*
X161372817Y-75045666D01*
X161345449Y-75111738D01*
X161306745Y-75205177D01*
X161210822Y-75348736D01*
X161088736Y-75470822D01*
X160945177Y-75566745D01*
X160868912Y-75598335D01*
X160785666Y-75632817D01*
X160735392Y-75642817D01*
X160616329Y-75666500D01*
X160443671Y-75666500D01*
X160324608Y-75642817D01*
X160274334Y-75632817D01*
X160191088Y-75598335D01*
X160114823Y-75566745D01*
X159971264Y-75470822D01*
X159849178Y-75348736D01*
X159753255Y-75205177D01*
X159714551Y-75111738D01*
X159687183Y-75045666D01*
X159653500Y-74876328D01*
X159653500Y-74703672D01*
X159660142Y-74670282D01*
X159685194Y-74544334D01*
X159687183Y-74534334D01*
X159714551Y-74468262D01*
X159753255Y-74374823D01*
X159849178Y-74231264D01*
X159971264Y-74109178D01*
X160114823Y-74013255D01*
X160208262Y-73974551D01*
X160274334Y-73947183D01*
X160393398Y-73923500D01*
X160443671Y-73913500D01*
X160616329Y-73913500D01*
X160666602Y-73923500D01*
X160666602Y-73923500D01*
G37*
G36*
X153786500Y-75666500D02*
G01*
X152033500Y-75666500D01*
X152033500Y-73913500D01*
X153786500Y-73913500D01*
X153786500Y-75666500D01*
X153786500Y-75666500D01*
G37*
G36*
X145520483Y-73058335D02*
G01*
X145689240Y-73128236D01*
X145841118Y-73229718D01*
X145970282Y-73358882D01*
X146071764Y-73510760D01*
X146141665Y-73679517D01*
X146177300Y-73858668D01*
X146177300Y-74041332D01*
X146141665Y-74220483D01*
X146071764Y-74389240D01*
X145970282Y-74541118D01*
X145841118Y-74670282D01*
X145689240Y-74771764D01*
X145520483Y-74841665D01*
X145341332Y-74877300D01*
X145158668Y-74877300D01*
X144979517Y-74841665D01*
X144810760Y-74771764D01*
X144658882Y-74670282D01*
X144529718Y-74541118D01*
X144428236Y-74389240D01*
X144358335Y-74220483D01*
X144322700Y-74041332D01*
X144322700Y-73858668D01*
X144358335Y-73679517D01*
X144428236Y-73510760D01*
X144529718Y-73358882D01*
X144658882Y-73229718D01*
X144810760Y-73128236D01*
X144979517Y-73058335D01*
X145158668Y-73022700D01*
X145341332Y-73022700D01*
X145520483Y-73058335D01*
X145520483Y-73058335D01*
G37*
G36*
X130280483Y-73058335D02*
G01*
X130449240Y-73128236D01*
X130601118Y-73229718D01*
X130730282Y-73358882D01*
X130831764Y-73510760D01*
X130901665Y-73679517D01*
X130937300Y-73858668D01*
X130937300Y-74041332D01*
X130901665Y-74220483D01*
X130831764Y-74389240D01*
X130730282Y-74541118D01*
X130601118Y-74670282D01*
X130449240Y-74771764D01*
X130280483Y-74841665D01*
X130101332Y-74877300D01*
X129918668Y-74877300D01*
X129739517Y-74841665D01*
X129570760Y-74771764D01*
X129418882Y-74670282D01*
X129289718Y-74541118D01*
X129188236Y-74389240D01*
X129118335Y-74220483D01*
X129082700Y-74041332D01*
X129082700Y-73858668D01*
X129118335Y-73679517D01*
X129188236Y-73510760D01*
X129289718Y-73358882D01*
X129418882Y-73229718D01*
X129570760Y-73128236D01*
X129739517Y-73058335D01*
X129918668Y-73022700D01*
X130101332Y-73022700D01*
X130280483Y-73058335D01*
X130280483Y-73058335D01*
G37*
G36*
X162832822Y-72137313D02*
G01*
X162993241Y-72185976D01*
X163141077Y-72264995D01*
X163229180Y-72337300D01*
X163270659Y-72371341D01*
X163377004Y-72500922D01*
X163377005Y-72500924D01*
X163456024Y-72648758D01*
X163504687Y-72809177D01*
X163517000Y-72934196D01*
X163517000Y-73617803D01*
X163504687Y-73742822D01*
X163456024Y-73903242D01*
X163432537Y-73947183D01*
X163377004Y-74051078D01*
X163270659Y-74180659D01*
X163141078Y-74287004D01*
X163141076Y-74287005D01*
X162993242Y-74366024D01*
X162832823Y-74414687D01*
X162666000Y-74431117D01*
X162499178Y-74414687D01*
X162338759Y-74366024D01*
X162190925Y-74287005D01*
X162190923Y-74287004D01*
X162061342Y-74180659D01*
X161954997Y-74051078D01*
X161875975Y-73903239D01*
X161827313Y-73742826D01*
X161815000Y-73617804D01*
X161815000Y-72934197D01*
X161827313Y-72809178D01*
X161875976Y-72648759D01*
X161954995Y-72500923D01*
X162061341Y-72371341D01*
X162146241Y-72301665D01*
X162190922Y-72264996D01*
X162253097Y-72231763D01*
X162338758Y-72185976D01*
X162499177Y-72137313D01*
X162666000Y-72120883D01*
X162832822Y-72137313D01*
X162832822Y-72137313D01*
G37*
G36*
X169732822Y-72137313D02*
G01*
X169893241Y-72185976D01*
X170041077Y-72264995D01*
X170129180Y-72337300D01*
X170170659Y-72371341D01*
X170277004Y-72500922D01*
X170277005Y-72500924D01*
X170356024Y-72648758D01*
X170404687Y-72809177D01*
X170417000Y-72934196D01*
X170417000Y-73617803D01*
X170404687Y-73742822D01*
X170356024Y-73903242D01*
X170332537Y-73947183D01*
X170277004Y-74051078D01*
X170170659Y-74180659D01*
X170041078Y-74287004D01*
X170041076Y-74287005D01*
X169893242Y-74366024D01*
X169732823Y-74414687D01*
X169566000Y-74431117D01*
X169399178Y-74414687D01*
X169238759Y-74366024D01*
X169090925Y-74287005D01*
X169090923Y-74287004D01*
X168961342Y-74180659D01*
X168854997Y-74051078D01*
X168775975Y-73903239D01*
X168727313Y-73742826D01*
X168715000Y-73617804D01*
X168715000Y-72934197D01*
X168727313Y-72809178D01*
X168775976Y-72648759D01*
X168854995Y-72500923D01*
X168961341Y-72371341D01*
X169046241Y-72301665D01*
X169090922Y-72264996D01*
X169153097Y-72231763D01*
X169238758Y-72185976D01*
X169399177Y-72137313D01*
X169566000Y-72120883D01*
X169732822Y-72137313D01*
X169732822Y-72137313D01*
G37*
G36*
X81126474Y-69413684D02*
G01*
X81312293Y-69490653D01*
X81498623Y-69567833D01*
X81833548Y-69791623D01*
X82118377Y-70076452D01*
X82342167Y-70411377D01*
X82377677Y-70497107D01*
X82496316Y-70783526D01*
X82574900Y-71178594D01*
X82574900Y-71581406D01*
X82496316Y-71976474D01*
X82429694Y-72137313D01*
X82342167Y-72348623D01*
X82118377Y-72683548D01*
X81833548Y-72968377D01*
X81498623Y-73192167D01*
X81407966Y-73229718D01*
X81126474Y-73346316D01*
X80731406Y-73424900D01*
X80328594Y-73424900D01*
X79933526Y-73346316D01*
X79652034Y-73229718D01*
X79561377Y-73192167D01*
X79226452Y-72968377D01*
X78941623Y-72683548D01*
X78717833Y-72348623D01*
X78630306Y-72137313D01*
X78563684Y-71976474D01*
X78485100Y-71581406D01*
X78485100Y-71178594D01*
X78563684Y-70783526D01*
X78682323Y-70497107D01*
X78717833Y-70411377D01*
X78941623Y-70076452D01*
X79226452Y-69791623D01*
X79561377Y-69567833D01*
X79747707Y-69490653D01*
X79933526Y-69413684D01*
X80328594Y-69335100D01*
X80731406Y-69335100D01*
X81126474Y-69413684D01*
X81126474Y-69413684D01*
G37*
G36*
X100186474Y-69403684D02*
G01*
X100325134Y-69461119D01*
X100558623Y-69557833D01*
X100893548Y-69781623D01*
X101178377Y-70066452D01*
X101402167Y-70401377D01*
X101435852Y-70482700D01*
X101556316Y-70773526D01*
X101634900Y-71168594D01*
X101634900Y-71571406D01*
X101556316Y-71966474D01*
X101488465Y-72130281D01*
X101402167Y-72338623D01*
X101178377Y-72673548D01*
X100893548Y-72958377D01*
X100558623Y-73182167D01*
X100443824Y-73229718D01*
X100186474Y-73336316D01*
X99791406Y-73414900D01*
X99388594Y-73414900D01*
X98993526Y-73336316D01*
X98736176Y-73229718D01*
X98621377Y-73182167D01*
X98286452Y-72958377D01*
X98001623Y-72673548D01*
X97777833Y-72338623D01*
X97691535Y-72130281D01*
X97623684Y-71966474D01*
X97545100Y-71571406D01*
X97545100Y-71168594D01*
X97623684Y-70773526D01*
X97744148Y-70482700D01*
X97777833Y-70401377D01*
X98001623Y-70066452D01*
X98286452Y-69781623D01*
X98621377Y-69557833D01*
X98854866Y-69461119D01*
X98993526Y-69403684D01*
X99388594Y-69325100D01*
X99791406Y-69325100D01*
X100186474Y-69403684D01*
X100186474Y-69403684D01*
G37*
G36*
X167499642Y-69805781D02*
G01*
X167645414Y-69866162D01*
X167645416Y-69866163D01*
X167776608Y-69953822D01*
X167888178Y-70065392D01*
X167975837Y-70196584D01*
X167975838Y-70196586D01*
X168036219Y-70342358D01*
X168067000Y-70497107D01*
X168067000Y-70654893D01*
X168036219Y-70809642D01*
X167993488Y-70912803D01*
X167975837Y-70955416D01*
X167888178Y-71086608D01*
X167875391Y-71099395D01*
X167859851Y-71118331D01*
X167848300Y-71139942D01*
X167841187Y-71163391D01*
X167838785Y-71187777D01*
X167841187Y-71212163D01*
X167848300Y-71235612D01*
X167859851Y-71257223D01*
X167867159Y-71267076D01*
X167977005Y-71400923D01*
X168056024Y-71548758D01*
X168104687Y-71709177D01*
X168117000Y-71834196D01*
X168117000Y-72517803D01*
X168104687Y-72642822D01*
X168056024Y-72803242D01*
X168052851Y-72809178D01*
X167977004Y-72951078D01*
X167870659Y-73080659D01*
X167741078Y-73187004D01*
X167741076Y-73187005D01*
X167593242Y-73266024D01*
X167432823Y-73314687D01*
X167266000Y-73331117D01*
X167099178Y-73314687D01*
X166938759Y-73266024D01*
X166790925Y-73187005D01*
X166790923Y-73187004D01*
X166661342Y-73080659D01*
X166554997Y-72951078D01*
X166475975Y-72803239D01*
X166427313Y-72642826D01*
X166415000Y-72517804D01*
X166415000Y-71834197D01*
X166427313Y-71709178D01*
X166475976Y-71548759D01*
X166554995Y-71400923D01*
X166664841Y-71267076D01*
X166678455Y-71246701D01*
X166687833Y-71224062D01*
X166692613Y-71200029D01*
X166692613Y-71175525D01*
X166687833Y-71151492D01*
X166678455Y-71128853D01*
X166664842Y-71108479D01*
X166656614Y-71099400D01*
X166643822Y-71086608D01*
X166556163Y-70955416D01*
X166538512Y-70912803D01*
X166495781Y-70809642D01*
X166465000Y-70654893D01*
X166465000Y-70497107D01*
X166495781Y-70342358D01*
X166556162Y-70196586D01*
X166556163Y-70196584D01*
X166643822Y-70065392D01*
X166755392Y-69953822D01*
X166886584Y-69866163D01*
X166886586Y-69866162D01*
X167032358Y-69805781D01*
X167187107Y-69775000D01*
X167344893Y-69775000D01*
X167499642Y-69805781D01*
X167499642Y-69805781D01*
G37*
G36*
X165199642Y-69805781D02*
G01*
X165345414Y-69866162D01*
X165345416Y-69866163D01*
X165476608Y-69953822D01*
X165588178Y-70065392D01*
X165675837Y-70196584D01*
X165675838Y-70196586D01*
X165736219Y-70342358D01*
X165767000Y-70497107D01*
X165767000Y-70654893D01*
X165736219Y-70809642D01*
X165693488Y-70912803D01*
X165675837Y-70955416D01*
X165588178Y-71086608D01*
X165575391Y-71099395D01*
X165559851Y-71118331D01*
X165548300Y-71139942D01*
X165541187Y-71163391D01*
X165538785Y-71187777D01*
X165541187Y-71212163D01*
X165548300Y-71235612D01*
X165559851Y-71257223D01*
X165567159Y-71267076D01*
X165677005Y-71400923D01*
X165756024Y-71548758D01*
X165804687Y-71709177D01*
X165817000Y-71834196D01*
X165817000Y-72517803D01*
X165804687Y-72642822D01*
X165756024Y-72803242D01*
X165752851Y-72809178D01*
X165677004Y-72951078D01*
X165570659Y-73080659D01*
X165441078Y-73187004D01*
X165441076Y-73187005D01*
X165293242Y-73266024D01*
X165132823Y-73314687D01*
X164966000Y-73331117D01*
X164799178Y-73314687D01*
X164638759Y-73266024D01*
X164490925Y-73187005D01*
X164490923Y-73187004D01*
X164361342Y-73080659D01*
X164254997Y-72951078D01*
X164175975Y-72803239D01*
X164127313Y-72642826D01*
X164115000Y-72517804D01*
X164115000Y-71834197D01*
X164127313Y-71709178D01*
X164175976Y-71548759D01*
X164254995Y-71400923D01*
X164364841Y-71267076D01*
X164378455Y-71246701D01*
X164387833Y-71224062D01*
X164392613Y-71200029D01*
X164392613Y-71175525D01*
X164387833Y-71151492D01*
X164378455Y-71128853D01*
X164364842Y-71108479D01*
X164356614Y-71099400D01*
X164343822Y-71086608D01*
X164256163Y-70955416D01*
X164238512Y-70912803D01*
X164195781Y-70809642D01*
X164165000Y-70654893D01*
X164165000Y-70497107D01*
X164195781Y-70342358D01*
X164256162Y-70196586D01*
X164256163Y-70196584D01*
X164343822Y-70065392D01*
X164455392Y-69953822D01*
X164586584Y-69866163D01*
X164586586Y-69866162D01*
X164732358Y-69805781D01*
X164887107Y-69775000D01*
X165044893Y-69775000D01*
X165199642Y-69805781D01*
X165199642Y-69805781D01*
G37*
G36*
X127170997Y-70760342D02*
G01*
X127255666Y-70777183D01*
X127321738Y-70804551D01*
X127415177Y-70843255D01*
X127558736Y-70939178D01*
X127680822Y-71061264D01*
X127776745Y-71204823D01*
X127810302Y-71285837D01*
X127842817Y-71364334D01*
X127876500Y-71533672D01*
X127876500Y-71706328D01*
X127851066Y-71834197D01*
X127842817Y-71875665D01*
X127776745Y-72035177D01*
X127680822Y-72178736D01*
X127558736Y-72300822D01*
X127415177Y-72396745D01*
X127321738Y-72435449D01*
X127255666Y-72462817D01*
X127170997Y-72479659D01*
X127086329Y-72496500D01*
X126913671Y-72496500D01*
X126829003Y-72479659D01*
X126744334Y-72462817D01*
X126678262Y-72435449D01*
X126584823Y-72396745D01*
X126441264Y-72300822D01*
X126319178Y-72178736D01*
X126223255Y-72035177D01*
X126157183Y-71875665D01*
X126148935Y-71834197D01*
X126123500Y-71706328D01*
X126123500Y-71533672D01*
X126157183Y-71364334D01*
X126189698Y-71285837D01*
X126223255Y-71204823D01*
X126319178Y-71061264D01*
X126441264Y-70939178D01*
X126584823Y-70843255D01*
X126678262Y-70804551D01*
X126744334Y-70777183D01*
X126829003Y-70760342D01*
X126913671Y-70743500D01*
X127086329Y-70743500D01*
X127170997Y-70760342D01*
X127170997Y-70760342D01*
G37*
G36*
X145520483Y-70518335D02*
G01*
X145689240Y-70588236D01*
X145841118Y-70689718D01*
X145970282Y-70818882D01*
X146071764Y-70970760D01*
X146141665Y-71139517D01*
X146177300Y-71318668D01*
X146177300Y-71501332D01*
X146141665Y-71680483D01*
X146071764Y-71849240D01*
X145970282Y-72001118D01*
X145841118Y-72130282D01*
X145689240Y-72231764D01*
X145520483Y-72301665D01*
X145341332Y-72337300D01*
X145158668Y-72337300D01*
X144979517Y-72301665D01*
X144810760Y-72231764D01*
X144658882Y-72130282D01*
X144529718Y-72001118D01*
X144428236Y-71849240D01*
X144358335Y-71680483D01*
X144322700Y-71501332D01*
X144322700Y-71318668D01*
X144358335Y-71139517D01*
X144428236Y-70970760D01*
X144529718Y-70818882D01*
X144658882Y-70689718D01*
X144810760Y-70588236D01*
X144979517Y-70518335D01*
X145158668Y-70482700D01*
X145341332Y-70482700D01*
X145520483Y-70518335D01*
X145520483Y-70518335D01*
G37*
G36*
X130280483Y-70518335D02*
G01*
X130449240Y-70588236D01*
X130601118Y-70689718D01*
X130730282Y-70818882D01*
X130831764Y-70970760D01*
X130901665Y-71139517D01*
X130937300Y-71318668D01*
X130937300Y-71501332D01*
X130901665Y-71680483D01*
X130831764Y-71849240D01*
X130730282Y-72001118D01*
X130601118Y-72130282D01*
X130449240Y-72231764D01*
X130280483Y-72301665D01*
X130101332Y-72337300D01*
X129918668Y-72337300D01*
X129739517Y-72301665D01*
X129570760Y-72231764D01*
X129418882Y-72130282D01*
X129289718Y-72001118D01*
X129188236Y-71849240D01*
X129118335Y-71680483D01*
X129082700Y-71501332D01*
X129082700Y-71318668D01*
X129118335Y-71139517D01*
X129188236Y-70970760D01*
X129289718Y-70818882D01*
X129418882Y-70689718D01*
X129570760Y-70588236D01*
X129739517Y-70518335D01*
X129918668Y-70482700D01*
X130101332Y-70482700D01*
X130280483Y-70518335D01*
X130280483Y-70518335D01*
G37*
G36*
X113289197Y-69499973D02*
G01*
X113455053Y-69532964D01*
X113539234Y-69567833D01*
X113655423Y-69615960D01*
X113835747Y-69736448D01*
X113989108Y-69889809D01*
X114109596Y-70070133D01*
X114151094Y-70170319D01*
X114161974Y-70196584D01*
X114192592Y-70270504D01*
X114234903Y-70483213D01*
X114234903Y-70700093D01*
X114192592Y-70912802D01*
X114109596Y-71113173D01*
X113989108Y-71293497D01*
X113835747Y-71446858D01*
X113655423Y-71567346D01*
X113555237Y-71608844D01*
X113455053Y-71650342D01*
X113348698Y-71671497D01*
X113242343Y-71692653D01*
X113025463Y-71692653D01*
X112919108Y-71671497D01*
X112812753Y-71650342D01*
X112612383Y-71567346D01*
X112432059Y-71446858D01*
X112278698Y-71293497D01*
X112158210Y-71113173D01*
X112075214Y-70912802D01*
X112032903Y-70700093D01*
X112032903Y-70483213D01*
X112075214Y-70270504D01*
X112105833Y-70196584D01*
X112116712Y-70170319D01*
X112158210Y-70070133D01*
X112278698Y-69889809D01*
X112432059Y-69736448D01*
X112612383Y-69615960D01*
X112728572Y-69567833D01*
X112812753Y-69532964D01*
X112978609Y-69499973D01*
X113025463Y-69490653D01*
X113242343Y-69490653D01*
X113289197Y-69499973D01*
X113289197Y-69499973D01*
G37*
G36*
X106279197Y-69499973D02*
G01*
X106445053Y-69532964D01*
X106529234Y-69567833D01*
X106645423Y-69615960D01*
X106825747Y-69736448D01*
X106979108Y-69889809D01*
X107099596Y-70070133D01*
X107141094Y-70170319D01*
X107151974Y-70196584D01*
X107182592Y-70270504D01*
X107224903Y-70483213D01*
X107224903Y-70700093D01*
X107182592Y-70912802D01*
X107099596Y-71113173D01*
X106979108Y-71293497D01*
X106825747Y-71446858D01*
X106645423Y-71567346D01*
X106545237Y-71608844D01*
X106445053Y-71650342D01*
X106338698Y-71671497D01*
X106232343Y-71692653D01*
X106015463Y-71692653D01*
X105909108Y-71671497D01*
X105802753Y-71650342D01*
X105602383Y-71567346D01*
X105422059Y-71446858D01*
X105268698Y-71293497D01*
X105148210Y-71113173D01*
X105065214Y-70912802D01*
X105022903Y-70700093D01*
X105022903Y-70483213D01*
X105065214Y-70270504D01*
X105095833Y-70196584D01*
X105106712Y-70170319D01*
X105148210Y-70070133D01*
X105268698Y-69889809D01*
X105422059Y-69736448D01*
X105602383Y-69615960D01*
X105718572Y-69567833D01*
X105802753Y-69532964D01*
X105968609Y-69499973D01*
X106015463Y-69490653D01*
X106232343Y-69490653D01*
X106279197Y-69499973D01*
X106279197Y-69499973D01*
G37*
G36*
X176366474Y-67103684D02*
G01*
X176514494Y-67164996D01*
X176738623Y-67257833D01*
X177073548Y-67481623D01*
X177358377Y-67766452D01*
X177582167Y-68101377D01*
X177626488Y-68208377D01*
X177736316Y-68473526D01*
X177814900Y-68868594D01*
X177814900Y-69271406D01*
X177736316Y-69666474D01*
X177664186Y-69840610D01*
X177582167Y-70038623D01*
X177358377Y-70373548D01*
X177073548Y-70658377D01*
X176738623Y-70882167D01*
X176584474Y-70946017D01*
X176366474Y-71036316D01*
X175971406Y-71114900D01*
X175568594Y-71114900D01*
X175173526Y-71036316D01*
X174955526Y-70946017D01*
X174801377Y-70882167D01*
X174466452Y-70658377D01*
X174181623Y-70373548D01*
X173957833Y-70038623D01*
X173875814Y-69840610D01*
X173803684Y-69666474D01*
X173725100Y-69271406D01*
X173725100Y-68868594D01*
X173803684Y-68473526D01*
X173913512Y-68208377D01*
X173957833Y-68101377D01*
X174181623Y-67766452D01*
X174466452Y-67481623D01*
X174801377Y-67257833D01*
X175025506Y-67164996D01*
X175173526Y-67103684D01*
X175568594Y-67025100D01*
X175971406Y-67025100D01*
X176366474Y-67103684D01*
X176366474Y-67103684D01*
G37*
G36*
X77026564Y-67829389D02*
G01*
X77193693Y-67898616D01*
X77217835Y-67908616D01*
X77389973Y-68023635D01*
X77536365Y-68170027D01*
X77644704Y-68332167D01*
X77651385Y-68342167D01*
X77730611Y-68533436D01*
X77771000Y-68736484D01*
X77771000Y-68943516D01*
X77730611Y-69146564D01*
X77663228Y-69309241D01*
X77651384Y-69337835D01*
X77536365Y-69509973D01*
X77389973Y-69656365D01*
X77217835Y-69771384D01*
X77217834Y-69771385D01*
X77217833Y-69771385D01*
X77026564Y-69850611D01*
X76823516Y-69891000D01*
X76616484Y-69891000D01*
X76413436Y-69850611D01*
X76222167Y-69771385D01*
X76222166Y-69771385D01*
X76222165Y-69771384D01*
X76050027Y-69656365D01*
X75903635Y-69509973D01*
X75788616Y-69337835D01*
X75776772Y-69309241D01*
X75709389Y-69146564D01*
X75669000Y-68943516D01*
X75669000Y-68736484D01*
X75709389Y-68533436D01*
X75788615Y-68342167D01*
X75795297Y-68332167D01*
X75903635Y-68170027D01*
X76050027Y-68023635D01*
X76222165Y-67908616D01*
X76246307Y-67898616D01*
X76413436Y-67829389D01*
X76616484Y-67789000D01*
X76823516Y-67789000D01*
X77026564Y-67829389D01*
X77026564Y-67829389D01*
G37*
G36*
X84646564Y-67829389D02*
G01*
X84813693Y-67898616D01*
X84837835Y-67908616D01*
X85009973Y-68023635D01*
X85156365Y-68170027D01*
X85264704Y-68332167D01*
X85271385Y-68342167D01*
X85350611Y-68533436D01*
X85391000Y-68736484D01*
X85391000Y-68943516D01*
X85350611Y-69146564D01*
X85283228Y-69309241D01*
X85271384Y-69337835D01*
X85156365Y-69509973D01*
X85009973Y-69656365D01*
X84837835Y-69771384D01*
X84837834Y-69771385D01*
X84837833Y-69771385D01*
X84646564Y-69850611D01*
X84443516Y-69891000D01*
X84236484Y-69891000D01*
X84033436Y-69850611D01*
X83842167Y-69771385D01*
X83842166Y-69771385D01*
X83842165Y-69771384D01*
X83670027Y-69656365D01*
X83523635Y-69509973D01*
X83408616Y-69337835D01*
X83396772Y-69309241D01*
X83329389Y-69146564D01*
X83289000Y-68943516D01*
X83289000Y-68736484D01*
X83329389Y-68533436D01*
X83408615Y-68342167D01*
X83415297Y-68332167D01*
X83523635Y-68170027D01*
X83670027Y-68023635D01*
X83842165Y-67908616D01*
X83866307Y-67898616D01*
X84033436Y-67829389D01*
X84236484Y-67789000D01*
X84443516Y-67789000D01*
X84646564Y-67829389D01*
X84646564Y-67829389D01*
G37*
G36*
X96086564Y-67819389D02*
G01*
X96277833Y-67898615D01*
X96277835Y-67898616D01*
X96315148Y-67923548D01*
X96449973Y-68013635D01*
X96596365Y-68160027D01*
X96711385Y-68332167D01*
X96790611Y-68523436D01*
X96831000Y-68726484D01*
X96831000Y-68933516D01*
X96790611Y-69136564D01*
X96716830Y-69314687D01*
X96711384Y-69327835D01*
X96596365Y-69499973D01*
X96449973Y-69646365D01*
X96277835Y-69761384D01*
X96277834Y-69761385D01*
X96277833Y-69761385D01*
X96086564Y-69840611D01*
X95883516Y-69881000D01*
X95676484Y-69881000D01*
X95473436Y-69840611D01*
X95282167Y-69761385D01*
X95282166Y-69761385D01*
X95282165Y-69761384D01*
X95110027Y-69646365D01*
X94963635Y-69499973D01*
X94848616Y-69327835D01*
X94843170Y-69314687D01*
X94769389Y-69136564D01*
X94729000Y-68933516D01*
X94729000Y-68726484D01*
X94769389Y-68523436D01*
X94848615Y-68332167D01*
X94963635Y-68160027D01*
X95110027Y-68013635D01*
X95244852Y-67923548D01*
X95282165Y-67898616D01*
X95282167Y-67898615D01*
X95473436Y-67819389D01*
X95676484Y-67779000D01*
X95883516Y-67779000D01*
X96086564Y-67819389D01*
X96086564Y-67819389D01*
G37*
G36*
X103706564Y-67819389D02*
G01*
X103897833Y-67898615D01*
X103897835Y-67898616D01*
X103935148Y-67923548D01*
X104069973Y-68013635D01*
X104216365Y-68160027D01*
X104331385Y-68332167D01*
X104410611Y-68523436D01*
X104451000Y-68726484D01*
X104451000Y-68933516D01*
X104410611Y-69136564D01*
X104336830Y-69314687D01*
X104331384Y-69327835D01*
X104216365Y-69499973D01*
X104069973Y-69646365D01*
X103897835Y-69761384D01*
X103897834Y-69761385D01*
X103897833Y-69761385D01*
X103706564Y-69840611D01*
X103503516Y-69881000D01*
X103296484Y-69881000D01*
X103093436Y-69840611D01*
X102902167Y-69761385D01*
X102902166Y-69761385D01*
X102902165Y-69761384D01*
X102730027Y-69646365D01*
X102583635Y-69499973D01*
X102468616Y-69327835D01*
X102463170Y-69314687D01*
X102389389Y-69136564D01*
X102349000Y-68933516D01*
X102349000Y-68726484D01*
X102389389Y-68523436D01*
X102468615Y-68332167D01*
X102583635Y-68160027D01*
X102730027Y-68013635D01*
X102864852Y-67923548D01*
X102902165Y-67898616D01*
X102902167Y-67898615D01*
X103093436Y-67819389D01*
X103296484Y-67779000D01*
X103503516Y-67779000D01*
X103706564Y-67819389D01*
X103706564Y-67819389D01*
G37*
G36*
X145520483Y-67978335D02*
G01*
X145689240Y-68048236D01*
X145841118Y-68149718D01*
X145970282Y-68278882D01*
X146071764Y-68430760D01*
X146141665Y-68599517D01*
X146177300Y-68778668D01*
X146177300Y-68961332D01*
X146141665Y-69140483D01*
X146071764Y-69309240D01*
X145970282Y-69461118D01*
X145841118Y-69590282D01*
X145689240Y-69691764D01*
X145520483Y-69761665D01*
X145341332Y-69797300D01*
X145158668Y-69797300D01*
X144979517Y-69761665D01*
X144810760Y-69691764D01*
X144658882Y-69590282D01*
X144529718Y-69461118D01*
X144428236Y-69309240D01*
X144358335Y-69140483D01*
X144322700Y-68961332D01*
X144322700Y-68778668D01*
X144358335Y-68599517D01*
X144428236Y-68430760D01*
X144529718Y-68278882D01*
X144658882Y-68149718D01*
X144810760Y-68048236D01*
X144979517Y-67978335D01*
X145158668Y-67942700D01*
X145341332Y-67942700D01*
X145520483Y-67978335D01*
X145520483Y-67978335D01*
G37*
G36*
X130280483Y-67978335D02*
G01*
X130449240Y-68048236D01*
X130601118Y-68149718D01*
X130730282Y-68278882D01*
X130831764Y-68430760D01*
X130901665Y-68599517D01*
X130937300Y-68778668D01*
X130937300Y-68961332D01*
X130901665Y-69140483D01*
X130831764Y-69309240D01*
X130730282Y-69461118D01*
X130601118Y-69590282D01*
X130449240Y-69691764D01*
X130280483Y-69761665D01*
X130101332Y-69797300D01*
X129918668Y-69797300D01*
X129739517Y-69761665D01*
X129570760Y-69691764D01*
X129418882Y-69590282D01*
X129289718Y-69461118D01*
X129188236Y-69309240D01*
X129118335Y-69140483D01*
X129082700Y-68961332D01*
X129082700Y-68778668D01*
X129118335Y-68599517D01*
X129188236Y-68430760D01*
X129289718Y-68278882D01*
X129418882Y-68149718D01*
X129570760Y-68048236D01*
X129739517Y-67978335D01*
X129918668Y-67942700D01*
X130101332Y-67942700D01*
X130280483Y-67978335D01*
X130280483Y-67978335D01*
G37*
G36*
X165132822Y-67037313D02*
G01*
X165263379Y-67076917D01*
X165278628Y-67081543D01*
X165293241Y-67085976D01*
X165441077Y-67164995D01*
X165570659Y-67271341D01*
X165677004Y-67400922D01*
X165677005Y-67400924D01*
X165756024Y-67548758D01*
X165804687Y-67709177D01*
X165817000Y-67834196D01*
X165817000Y-68517803D01*
X165804687Y-68642822D01*
X165804686Y-68642825D01*
X165763479Y-68778668D01*
X165756024Y-68803242D01*
X165721092Y-68868595D01*
X165677004Y-68951078D01*
X165570659Y-69080659D01*
X165441078Y-69187004D01*
X165441076Y-69187005D01*
X165293242Y-69266024D01*
X165132823Y-69314687D01*
X164966000Y-69331117D01*
X164799178Y-69314687D01*
X164638759Y-69266024D01*
X164490925Y-69187005D01*
X164490923Y-69187004D01*
X164361342Y-69080659D01*
X164254997Y-68951078D01*
X164175975Y-68803239D01*
X164168521Y-68778668D01*
X164127313Y-68642826D01*
X164115000Y-68517804D01*
X164115000Y-67834197D01*
X164127313Y-67709178D01*
X164175976Y-67548759D01*
X164254995Y-67400923D01*
X164361341Y-67271341D01*
X164490922Y-67164996D01*
X164506094Y-67156886D01*
X164638758Y-67085976D01*
X164653372Y-67081543D01*
X164668620Y-67076917D01*
X164799177Y-67037313D01*
X164966000Y-67020883D01*
X165132822Y-67037313D01*
X165132822Y-67037313D01*
G37*
G36*
X167432822Y-67037313D02*
G01*
X167563379Y-67076917D01*
X167578628Y-67081543D01*
X167593241Y-67085976D01*
X167741077Y-67164995D01*
X167870659Y-67271341D01*
X167977004Y-67400922D01*
X167977005Y-67400924D01*
X168056024Y-67548758D01*
X168104687Y-67709177D01*
X168117000Y-67834196D01*
X168117000Y-68517803D01*
X168104687Y-68642822D01*
X168104686Y-68642825D01*
X168063479Y-68778668D01*
X168056024Y-68803242D01*
X168021092Y-68868595D01*
X167977004Y-68951078D01*
X167870659Y-69080659D01*
X167741078Y-69187004D01*
X167741076Y-69187005D01*
X167593242Y-69266024D01*
X167432823Y-69314687D01*
X167266000Y-69331117D01*
X167099178Y-69314687D01*
X166938759Y-69266024D01*
X166790925Y-69187005D01*
X166790923Y-69187004D01*
X166661342Y-69080659D01*
X166554997Y-68951078D01*
X166475975Y-68803239D01*
X166468521Y-68778668D01*
X166427313Y-68642826D01*
X166415000Y-68517804D01*
X166415000Y-67834197D01*
X166427313Y-67709178D01*
X166475976Y-67548759D01*
X166554995Y-67400923D01*
X166661341Y-67271341D01*
X166790922Y-67164996D01*
X166806094Y-67156886D01*
X166938758Y-67085976D01*
X166953372Y-67081543D01*
X166968620Y-67076917D01*
X167099177Y-67037313D01*
X167266000Y-67020883D01*
X167432822Y-67037313D01*
X167432822Y-67037313D01*
G37*
G36*
X112404007Y-67211238D02*
G01*
X112572529Y-67281042D01*
X112724194Y-67382381D01*
X112853175Y-67511362D01*
X112954514Y-67663027D01*
X113024318Y-67831549D01*
X113059903Y-68010450D01*
X113059903Y-68192856D01*
X113024318Y-68371757D01*
X112954514Y-68540279D01*
X112853175Y-68691944D01*
X112724194Y-68820925D01*
X112572529Y-68922264D01*
X112404007Y-68992068D01*
X112225106Y-69027653D01*
X112042700Y-69027653D01*
X111863799Y-68992068D01*
X111695277Y-68922264D01*
X111543612Y-68820925D01*
X111414631Y-68691944D01*
X111313292Y-68540279D01*
X111243488Y-68371757D01*
X111207903Y-68192856D01*
X111207903Y-68010450D01*
X111243488Y-67831549D01*
X111313292Y-67663027D01*
X111414631Y-67511362D01*
X111543612Y-67382381D01*
X111695277Y-67281042D01*
X111863799Y-67211238D01*
X112042700Y-67175653D01*
X112225106Y-67175653D01*
X112404007Y-67211238D01*
X112404007Y-67211238D01*
G37*
G36*
X107404007Y-67211238D02*
G01*
X107572529Y-67281042D01*
X107724194Y-67382381D01*
X107853175Y-67511362D01*
X107954514Y-67663027D01*
X108024318Y-67831549D01*
X108059903Y-68010450D01*
X108059903Y-68192856D01*
X108024318Y-68371757D01*
X107954514Y-68540279D01*
X107853175Y-68691944D01*
X107724194Y-68820925D01*
X107572529Y-68922264D01*
X107404007Y-68992068D01*
X107225106Y-69027653D01*
X107042700Y-69027653D01*
X106863799Y-68992068D01*
X106695277Y-68922264D01*
X106543612Y-68820925D01*
X106414631Y-68691944D01*
X106313292Y-68540279D01*
X106243488Y-68371757D01*
X106207903Y-68192856D01*
X106207903Y-68010450D01*
X106243488Y-67831549D01*
X106313292Y-67663027D01*
X106414631Y-67511362D01*
X106543612Y-67382381D01*
X106695277Y-67281042D01*
X106863799Y-67211238D01*
X107042700Y-67175653D01*
X107225106Y-67175653D01*
X107404007Y-67211238D01*
X107404007Y-67211238D01*
G37*
G36*
X119216474Y-64653684D02*
G01*
X119350448Y-64709178D01*
X119588623Y-64807833D01*
X119923548Y-65031623D01*
X120208377Y-65316452D01*
X120432167Y-65651377D01*
X120490483Y-65792165D01*
X120586316Y-66023526D01*
X120664900Y-66418594D01*
X120664900Y-66821406D01*
X120586316Y-67216474D01*
X120511408Y-67397318D01*
X120432167Y-67588623D01*
X120208377Y-67923548D01*
X119923548Y-68208377D01*
X119588623Y-68432167D01*
X119488775Y-68473525D01*
X119216474Y-68586316D01*
X118821406Y-68664900D01*
X118418594Y-68664900D01*
X118023526Y-68586316D01*
X117751225Y-68473525D01*
X117651377Y-68432167D01*
X117316452Y-68208377D01*
X117031623Y-67923548D01*
X116807833Y-67588623D01*
X116728592Y-67397318D01*
X116653684Y-67216474D01*
X116575100Y-66821406D01*
X116575100Y-66418594D01*
X116653684Y-66023526D01*
X116749517Y-65792165D01*
X116807833Y-65651377D01*
X117031623Y-65316452D01*
X117316452Y-65031623D01*
X117651377Y-64807833D01*
X117889552Y-64709178D01*
X118023526Y-64653684D01*
X118418594Y-64575100D01*
X118821406Y-64575100D01*
X119216474Y-64653684D01*
X119216474Y-64653684D01*
G37*
G36*
X157316474Y-64653684D02*
G01*
X157450448Y-64709178D01*
X157688623Y-64807833D01*
X158023548Y-65031623D01*
X158308377Y-65316452D01*
X158532167Y-65651377D01*
X158590483Y-65792165D01*
X158686316Y-66023526D01*
X158764900Y-66418594D01*
X158764900Y-66821406D01*
X158686316Y-67216474D01*
X158611408Y-67397318D01*
X158532167Y-67588623D01*
X158308377Y-67923548D01*
X158023548Y-68208377D01*
X157688623Y-68432167D01*
X157588775Y-68473525D01*
X157316474Y-68586316D01*
X156921406Y-68664900D01*
X156518594Y-68664900D01*
X156123526Y-68586316D01*
X155851225Y-68473525D01*
X155751377Y-68432167D01*
X155416452Y-68208377D01*
X155131623Y-67923548D01*
X154907833Y-67588623D01*
X154828592Y-67397318D01*
X154753684Y-67216474D01*
X154675100Y-66821406D01*
X154675100Y-66418594D01*
X154753684Y-66023526D01*
X154849517Y-65792165D01*
X154907833Y-65651377D01*
X155131623Y-65316452D01*
X155416452Y-65031623D01*
X155751377Y-64807833D01*
X155989552Y-64709178D01*
X156123526Y-64653684D01*
X156518594Y-64575100D01*
X156921406Y-64575100D01*
X157316474Y-64653684D01*
X157316474Y-64653684D01*
G37*
G36*
X172266564Y-65519389D02*
G01*
X172457833Y-65598615D01*
X172457835Y-65598616D01*
X172629973Y-65713635D01*
X172776365Y-65860027D01*
X172885612Y-66023526D01*
X172891385Y-66032167D01*
X172970611Y-66223436D01*
X173011000Y-66426484D01*
X173011000Y-66633516D01*
X172970611Y-66836564D01*
X172919493Y-66959973D01*
X172891384Y-67027835D01*
X172776365Y-67199973D01*
X172629973Y-67346365D01*
X172457835Y-67461384D01*
X172457834Y-67461385D01*
X172457833Y-67461385D01*
X172266564Y-67540611D01*
X172063516Y-67581000D01*
X171856484Y-67581000D01*
X171653436Y-67540611D01*
X171462167Y-67461385D01*
X171462166Y-67461385D01*
X171462165Y-67461384D01*
X171290027Y-67346365D01*
X171143635Y-67199973D01*
X171028616Y-67027835D01*
X171000507Y-66959973D01*
X170949389Y-66836564D01*
X170909000Y-66633516D01*
X170909000Y-66426484D01*
X170949389Y-66223436D01*
X171028615Y-66032167D01*
X171034389Y-66023526D01*
X171143635Y-65860027D01*
X171290027Y-65713635D01*
X171462165Y-65598616D01*
X171462167Y-65598615D01*
X171653436Y-65519389D01*
X171856484Y-65479000D01*
X172063516Y-65479000D01*
X172266564Y-65519389D01*
X172266564Y-65519389D01*
G37*
G36*
X179886564Y-65519389D02*
G01*
X180077833Y-65598615D01*
X180077835Y-65598616D01*
X180249973Y-65713635D01*
X180396365Y-65860027D01*
X180505612Y-66023526D01*
X180511385Y-66032167D01*
X180590611Y-66223436D01*
X180631000Y-66426484D01*
X180631000Y-66633516D01*
X180590611Y-66836564D01*
X180539493Y-66959973D01*
X180511384Y-67027835D01*
X180396365Y-67199973D01*
X180249973Y-67346365D01*
X180077835Y-67461384D01*
X180077834Y-67461385D01*
X180077833Y-67461385D01*
X179886564Y-67540611D01*
X179683516Y-67581000D01*
X179476484Y-67581000D01*
X179273436Y-67540611D01*
X179082167Y-67461385D01*
X179082166Y-67461385D01*
X179082165Y-67461384D01*
X178910027Y-67346365D01*
X178763635Y-67199973D01*
X178648616Y-67027835D01*
X178620507Y-66959973D01*
X178569389Y-66836564D01*
X178529000Y-66633516D01*
X178529000Y-66426484D01*
X178569389Y-66223436D01*
X178648615Y-66032167D01*
X178654389Y-66023526D01*
X178763635Y-65860027D01*
X178910027Y-65713635D01*
X179082165Y-65598616D01*
X179082167Y-65598615D01*
X179273436Y-65519389D01*
X179476484Y-65479000D01*
X179683516Y-65479000D01*
X179886564Y-65519389D01*
X179886564Y-65519389D01*
G37*
G36*
X109823793Y-66265670D02*
G01*
X109942130Y-66314687D01*
X109942267Y-66314744D01*
X110048891Y-66385988D01*
X110139568Y-66476665D01*
X110210813Y-66583291D01*
X110259886Y-66701763D01*
X110284903Y-66827534D01*
X110284903Y-66955772D01*
X110266104Y-67050281D01*
X110259886Y-67081543D01*
X110210812Y-67200017D01*
X110139568Y-67306641D01*
X110048891Y-67397318D01*
X109942267Y-67468562D01*
X109942266Y-67468563D01*
X109942265Y-67468563D01*
X109823793Y-67517636D01*
X109698022Y-67542653D01*
X109569784Y-67542653D01*
X109444013Y-67517636D01*
X109325541Y-67468563D01*
X109325540Y-67468563D01*
X109325539Y-67468562D01*
X109218915Y-67397318D01*
X109128238Y-67306641D01*
X109056994Y-67200017D01*
X109007920Y-67081543D01*
X109001702Y-67050281D01*
X108982903Y-66955772D01*
X108982903Y-66827534D01*
X109007920Y-66701763D01*
X109056993Y-66583291D01*
X109128238Y-66476665D01*
X109218915Y-66385988D01*
X109325539Y-66314744D01*
X109325677Y-66314687D01*
X109444013Y-66265670D01*
X109569784Y-66240653D01*
X109698022Y-66240653D01*
X109823793Y-66265670D01*
X109823793Y-66265670D01*
G37*
G36*
X83376564Y-65289389D02*
G01*
X83543693Y-65358616D01*
X83567835Y-65368616D01*
X83739973Y-65483635D01*
X83886365Y-65630027D01*
X83994704Y-65792167D01*
X84001385Y-65802167D01*
X84080611Y-65993436D01*
X84121000Y-66196484D01*
X84121000Y-66403516D01*
X84080611Y-66606564D01*
X84013228Y-66769241D01*
X84001384Y-66797835D01*
X83886365Y-66969973D01*
X83739973Y-67116365D01*
X83567835Y-67231384D01*
X83567834Y-67231385D01*
X83567833Y-67231385D01*
X83376564Y-67310611D01*
X83173516Y-67351000D01*
X82966484Y-67351000D01*
X82763436Y-67310611D01*
X82572167Y-67231385D01*
X82572166Y-67231385D01*
X82572165Y-67231384D01*
X82400027Y-67116365D01*
X82253635Y-66969973D01*
X82138616Y-66797835D01*
X82126772Y-66769241D01*
X82059389Y-66606564D01*
X82019000Y-66403516D01*
X82019000Y-66196484D01*
X82059389Y-65993436D01*
X82138615Y-65802167D01*
X82145297Y-65792167D01*
X82253635Y-65630027D01*
X82400027Y-65483635D01*
X82572165Y-65368616D01*
X82596307Y-65358616D01*
X82763436Y-65289389D01*
X82966484Y-65249000D01*
X83173516Y-65249000D01*
X83376564Y-65289389D01*
X83376564Y-65289389D01*
G37*
G36*
X78296564Y-65289389D02*
G01*
X78463693Y-65358616D01*
X78487835Y-65368616D01*
X78659973Y-65483635D01*
X78806365Y-65630027D01*
X78914704Y-65792167D01*
X78921385Y-65802167D01*
X79000611Y-65993436D01*
X79041000Y-66196484D01*
X79041000Y-66403516D01*
X79000611Y-66606564D01*
X78933228Y-66769241D01*
X78921384Y-66797835D01*
X78806365Y-66969973D01*
X78659973Y-67116365D01*
X78487835Y-67231384D01*
X78487834Y-67231385D01*
X78487833Y-67231385D01*
X78296564Y-67310611D01*
X78093516Y-67351000D01*
X77886484Y-67351000D01*
X77683436Y-67310611D01*
X77492167Y-67231385D01*
X77492166Y-67231385D01*
X77492165Y-67231384D01*
X77320027Y-67116365D01*
X77173635Y-66969973D01*
X77058616Y-66797835D01*
X77046772Y-66769241D01*
X76979389Y-66606564D01*
X76939000Y-66403516D01*
X76939000Y-66196484D01*
X76979389Y-65993436D01*
X77058615Y-65802167D01*
X77065297Y-65792167D01*
X77173635Y-65630027D01*
X77320027Y-65483635D01*
X77492165Y-65368616D01*
X77516307Y-65358616D01*
X77683436Y-65289389D01*
X77886484Y-65249000D01*
X78093516Y-65249000D01*
X78296564Y-65289389D01*
X78296564Y-65289389D01*
G37*
G36*
X102436564Y-65279389D02*
G01*
X102627833Y-65358615D01*
X102627835Y-65358616D01*
X102642801Y-65368616D01*
X102799973Y-65473635D01*
X102946365Y-65620027D01*
X103061385Y-65792167D01*
X103140611Y-65983436D01*
X103181000Y-66186484D01*
X103181000Y-66393516D01*
X103140611Y-66596564D01*
X103125305Y-66633516D01*
X103061384Y-66787835D01*
X102946365Y-66959973D01*
X102799973Y-67106365D01*
X102627835Y-67221384D01*
X102627834Y-67221385D01*
X102627833Y-67221385D01*
X102436564Y-67300611D01*
X102233516Y-67341000D01*
X102026484Y-67341000D01*
X101823436Y-67300611D01*
X101632167Y-67221385D01*
X101632166Y-67221385D01*
X101632165Y-67221384D01*
X101460027Y-67106365D01*
X101313635Y-66959973D01*
X101198616Y-66787835D01*
X101134695Y-66633516D01*
X101119389Y-66596564D01*
X101079000Y-66393516D01*
X101079000Y-66186484D01*
X101119389Y-65983436D01*
X101198615Y-65792167D01*
X101313635Y-65620027D01*
X101460027Y-65473635D01*
X101617199Y-65368616D01*
X101632165Y-65358616D01*
X101632167Y-65358615D01*
X101823436Y-65279389D01*
X102026484Y-65239000D01*
X102233516Y-65239000D01*
X102436564Y-65279389D01*
X102436564Y-65279389D01*
G37*
G36*
X97356564Y-65279389D02*
G01*
X97547833Y-65358615D01*
X97547835Y-65358616D01*
X97562801Y-65368616D01*
X97719973Y-65473635D01*
X97866365Y-65620027D01*
X97981385Y-65792167D01*
X98060611Y-65983436D01*
X98101000Y-66186484D01*
X98101000Y-66393516D01*
X98060611Y-66596564D01*
X98045305Y-66633516D01*
X97981384Y-66787835D01*
X97866365Y-66959973D01*
X97719973Y-67106365D01*
X97547835Y-67221384D01*
X97547834Y-67221385D01*
X97547833Y-67221385D01*
X97356564Y-67300611D01*
X97153516Y-67341000D01*
X96946484Y-67341000D01*
X96743436Y-67300611D01*
X96552167Y-67221385D01*
X96552166Y-67221385D01*
X96552165Y-67221384D01*
X96380027Y-67106365D01*
X96233635Y-66959973D01*
X96118616Y-66787835D01*
X96054695Y-66633516D01*
X96039389Y-66596564D01*
X95999000Y-66393516D01*
X95999000Y-66186484D01*
X96039389Y-65983436D01*
X96118615Y-65792167D01*
X96233635Y-65620027D01*
X96380027Y-65473635D01*
X96537199Y-65368616D01*
X96552165Y-65358616D01*
X96552167Y-65358615D01*
X96743436Y-65279389D01*
X96946484Y-65239000D01*
X97153516Y-65239000D01*
X97356564Y-65279389D01*
X97356564Y-65279389D01*
G37*
G36*
X130280483Y-65438335D02*
G01*
X130449240Y-65508236D01*
X130601118Y-65609718D01*
X130730282Y-65738882D01*
X130831764Y-65890760D01*
X130901665Y-66059517D01*
X130937300Y-66238668D01*
X130937300Y-66421332D01*
X130901665Y-66600483D01*
X130831764Y-66769240D01*
X130730282Y-66921118D01*
X130601118Y-67050282D01*
X130449240Y-67151764D01*
X130280483Y-67221665D01*
X130101332Y-67257300D01*
X129918668Y-67257300D01*
X129739517Y-67221665D01*
X129570760Y-67151764D01*
X129418882Y-67050282D01*
X129289718Y-66921118D01*
X129188236Y-66769240D01*
X129118335Y-66600483D01*
X129082700Y-66421332D01*
X129082700Y-66238668D01*
X129118335Y-66059517D01*
X129188236Y-65890760D01*
X129289718Y-65738882D01*
X129418882Y-65609718D01*
X129570760Y-65508236D01*
X129739517Y-65438335D01*
X129918668Y-65402700D01*
X130101332Y-65402700D01*
X130280483Y-65438335D01*
X130280483Y-65438335D01*
G37*
G36*
X145520483Y-65438335D02*
G01*
X145689240Y-65508236D01*
X145841118Y-65609718D01*
X145970282Y-65738882D01*
X146071764Y-65890760D01*
X146141665Y-66059517D01*
X146177300Y-66238668D01*
X146177300Y-66421332D01*
X146141665Y-66600483D01*
X146071764Y-66769240D01*
X145970282Y-66921118D01*
X145841118Y-67050282D01*
X145689240Y-67151764D01*
X145520483Y-67221665D01*
X145341332Y-67257300D01*
X145158668Y-67257300D01*
X144979517Y-67221665D01*
X144810760Y-67151764D01*
X144658882Y-67050282D01*
X144529718Y-66921118D01*
X144428236Y-66769240D01*
X144358335Y-66600483D01*
X144322700Y-66421332D01*
X144322700Y-66238668D01*
X144358335Y-66059517D01*
X144428236Y-65890760D01*
X144529718Y-65738882D01*
X144658882Y-65609718D01*
X144810760Y-65508236D01*
X144979517Y-65438335D01*
X145158668Y-65402700D01*
X145341332Y-65402700D01*
X145520483Y-65438335D01*
X145520483Y-65438335D01*
G37*
G36*
X138266474Y-62333684D02*
G01*
X138484474Y-62423983D01*
X138638623Y-62487833D01*
X138973548Y-62711623D01*
X139258377Y-62996452D01*
X139482167Y-63331377D01*
X139514745Y-63410027D01*
X139636316Y-63703526D01*
X139714900Y-64098594D01*
X139714900Y-64501406D01*
X139636316Y-64896474D01*
X139588718Y-65011385D01*
X139482167Y-65268623D01*
X139258377Y-65603548D01*
X138973548Y-65888377D01*
X138638623Y-66112167D01*
X138484474Y-66176017D01*
X138266474Y-66266316D01*
X137871406Y-66344900D01*
X137468594Y-66344900D01*
X137073526Y-66266316D01*
X136855526Y-66176017D01*
X136701377Y-66112167D01*
X136366452Y-65888377D01*
X136081623Y-65603548D01*
X135857833Y-65268623D01*
X135751282Y-65011385D01*
X135703684Y-64896474D01*
X135625100Y-64501406D01*
X135625100Y-64098594D01*
X135703684Y-63703526D01*
X135825255Y-63410027D01*
X135857833Y-63331377D01*
X136081623Y-62996452D01*
X136366452Y-62711623D01*
X136701377Y-62487833D01*
X136855526Y-62423983D01*
X137073526Y-62333684D01*
X137468594Y-62255100D01*
X137871406Y-62255100D01*
X138266474Y-62333684D01*
X138266474Y-62333684D01*
G37*
G36*
X167499642Y-62805781D02*
G01*
X167637056Y-62862700D01*
X167645416Y-62866163D01*
X167776608Y-62953822D01*
X167888178Y-63065392D01*
X167891069Y-63069719D01*
X167975838Y-63196586D01*
X168036219Y-63342358D01*
X168067000Y-63497107D01*
X168067000Y-63654893D01*
X168036219Y-63809642D01*
X168004389Y-63886486D01*
X167975837Y-63955416D01*
X167888178Y-64086608D01*
X167875391Y-64099395D01*
X167859851Y-64118331D01*
X167848300Y-64139942D01*
X167841187Y-64163391D01*
X167838785Y-64187777D01*
X167841187Y-64212163D01*
X167848300Y-64235612D01*
X167859851Y-64257223D01*
X167867159Y-64267076D01*
X167977005Y-64400923D01*
X168056024Y-64548758D01*
X168104687Y-64709177D01*
X168117000Y-64834196D01*
X168117000Y-65517803D01*
X168104687Y-65642822D01*
X168056024Y-65803242D01*
X167985114Y-65935906D01*
X167977004Y-65951078D01*
X167870659Y-66080659D01*
X167741078Y-66187004D01*
X167741076Y-66187005D01*
X167593242Y-66266024D01*
X167593239Y-66266025D01*
X167563380Y-66275083D01*
X167432823Y-66314687D01*
X167266000Y-66331117D01*
X167099178Y-66314687D01*
X166968621Y-66275083D01*
X166938762Y-66266025D01*
X166938759Y-66266024D01*
X166790925Y-66187005D01*
X166790923Y-66187004D01*
X166661342Y-66080659D01*
X166554997Y-65951078D01*
X166475975Y-65803239D01*
X166472616Y-65792165D01*
X166427313Y-65642826D01*
X166415000Y-65517804D01*
X166415000Y-64834197D01*
X166427313Y-64709178D01*
X166475976Y-64548759D01*
X166554995Y-64400923D01*
X166664841Y-64267076D01*
X166678455Y-64246701D01*
X166687833Y-64224062D01*
X166692613Y-64200029D01*
X166692613Y-64175525D01*
X166687833Y-64151492D01*
X166678455Y-64128853D01*
X166664842Y-64108479D01*
X166656614Y-64099400D01*
X166643822Y-64086608D01*
X166556163Y-63955416D01*
X166527611Y-63886486D01*
X166495781Y-63809642D01*
X166465000Y-63654893D01*
X166465000Y-63497107D01*
X166495781Y-63342358D01*
X166556162Y-63196586D01*
X166640931Y-63069719D01*
X166643822Y-63065392D01*
X166755392Y-62953822D01*
X166886584Y-62866163D01*
X166894944Y-62862700D01*
X167032358Y-62805781D01*
X167187107Y-62775000D01*
X167344893Y-62775000D01*
X167499642Y-62805781D01*
X167499642Y-62805781D01*
G37*
G36*
X165199642Y-62805781D02*
G01*
X165337056Y-62862700D01*
X165345416Y-62866163D01*
X165476608Y-62953822D01*
X165588178Y-63065392D01*
X165591069Y-63069719D01*
X165675838Y-63196586D01*
X165736219Y-63342358D01*
X165767000Y-63497107D01*
X165767000Y-63654893D01*
X165736219Y-63809642D01*
X165704389Y-63886486D01*
X165675837Y-63955416D01*
X165588178Y-64086608D01*
X165575391Y-64099395D01*
X165559851Y-64118331D01*
X165548300Y-64139942D01*
X165541187Y-64163391D01*
X165538785Y-64187777D01*
X165541187Y-64212163D01*
X165548300Y-64235612D01*
X165559851Y-64257223D01*
X165567159Y-64267076D01*
X165677005Y-64400923D01*
X165756024Y-64548758D01*
X165804687Y-64709177D01*
X165817000Y-64834196D01*
X165817000Y-65517803D01*
X165804687Y-65642822D01*
X165756024Y-65803242D01*
X165685114Y-65935906D01*
X165677004Y-65951078D01*
X165570659Y-66080659D01*
X165441078Y-66187004D01*
X165441076Y-66187005D01*
X165293242Y-66266024D01*
X165293239Y-66266025D01*
X165263380Y-66275083D01*
X165132823Y-66314687D01*
X164966000Y-66331117D01*
X164799178Y-66314687D01*
X164668621Y-66275083D01*
X164638762Y-66266025D01*
X164638759Y-66266024D01*
X164490925Y-66187005D01*
X164490923Y-66187004D01*
X164361342Y-66080659D01*
X164254997Y-65951078D01*
X164175975Y-65803239D01*
X164172616Y-65792165D01*
X164127313Y-65642826D01*
X164115000Y-65517804D01*
X164115000Y-64834197D01*
X164127313Y-64709178D01*
X164175976Y-64548759D01*
X164254995Y-64400923D01*
X164364841Y-64267076D01*
X164378455Y-64246701D01*
X164387833Y-64224062D01*
X164392613Y-64200029D01*
X164392613Y-64175525D01*
X164387833Y-64151492D01*
X164378455Y-64128853D01*
X164364842Y-64108479D01*
X164356614Y-64099400D01*
X164343822Y-64086608D01*
X164256163Y-63955416D01*
X164227611Y-63886486D01*
X164195781Y-63809642D01*
X164165000Y-63654893D01*
X164165000Y-63497107D01*
X164195781Y-63342358D01*
X164256162Y-63196586D01*
X164340931Y-63069719D01*
X164343822Y-63065392D01*
X164455392Y-62953822D01*
X164586584Y-62866163D01*
X164594944Y-62862700D01*
X164732358Y-62805781D01*
X164887107Y-62775000D01*
X165044893Y-62775000D01*
X165199642Y-62805781D01*
X165199642Y-62805781D01*
G37*
G36*
X122736564Y-63069389D02*
G01*
X122927833Y-63148615D01*
X122927835Y-63148616D01*
X122999624Y-63196584D01*
X123099973Y-63263635D01*
X123246365Y-63410027D01*
X123361385Y-63582167D01*
X123440611Y-63773436D01*
X123481000Y-63976484D01*
X123481000Y-64183516D01*
X123440611Y-64386564D01*
X123362517Y-64575100D01*
X123361384Y-64577835D01*
X123246365Y-64749973D01*
X123099973Y-64896365D01*
X122927835Y-65011384D01*
X122927834Y-65011385D01*
X122927833Y-65011385D01*
X122736564Y-65090611D01*
X122533516Y-65131000D01*
X122326484Y-65131000D01*
X122123436Y-65090611D01*
X121932167Y-65011385D01*
X121932166Y-65011385D01*
X121932165Y-65011384D01*
X121760027Y-64896365D01*
X121613635Y-64749973D01*
X121498616Y-64577835D01*
X121497483Y-64575100D01*
X121419389Y-64386564D01*
X121379000Y-64183516D01*
X121379000Y-63976484D01*
X121419389Y-63773436D01*
X121498615Y-63582167D01*
X121613635Y-63410027D01*
X121760027Y-63263635D01*
X121860376Y-63196584D01*
X121932165Y-63148616D01*
X121932167Y-63148615D01*
X122123436Y-63069389D01*
X122326484Y-63029000D01*
X122533516Y-63029000D01*
X122736564Y-63069389D01*
X122736564Y-63069389D01*
G37*
G36*
X160836564Y-63069389D02*
G01*
X161027833Y-63148615D01*
X161027835Y-63148616D01*
X161099624Y-63196584D01*
X161199973Y-63263635D01*
X161346365Y-63410027D01*
X161461385Y-63582167D01*
X161540611Y-63773436D01*
X161581000Y-63976484D01*
X161581000Y-64183516D01*
X161540611Y-64386564D01*
X161462517Y-64575100D01*
X161461384Y-64577835D01*
X161346365Y-64749973D01*
X161199973Y-64896365D01*
X161027835Y-65011384D01*
X161027834Y-65011385D01*
X161027833Y-65011385D01*
X160836564Y-65090611D01*
X160633516Y-65131000D01*
X160426484Y-65131000D01*
X160223436Y-65090611D01*
X160032167Y-65011385D01*
X160032166Y-65011385D01*
X160032165Y-65011384D01*
X159860027Y-64896365D01*
X159713635Y-64749973D01*
X159598616Y-64577835D01*
X159597483Y-64575100D01*
X159519389Y-64386564D01*
X159479000Y-64183516D01*
X159479000Y-63976484D01*
X159519389Y-63773436D01*
X159598615Y-63582167D01*
X159713635Y-63410027D01*
X159860027Y-63263635D01*
X159960376Y-63196584D01*
X160032165Y-63148616D01*
X160032167Y-63148615D01*
X160223436Y-63069389D01*
X160426484Y-63029000D01*
X160633516Y-63029000D01*
X160836564Y-63069389D01*
X160836564Y-63069389D01*
G37*
G36*
X153216564Y-63069389D02*
G01*
X153407833Y-63148615D01*
X153407835Y-63148616D01*
X153479624Y-63196584D01*
X153579973Y-63263635D01*
X153726365Y-63410027D01*
X153841385Y-63582167D01*
X153920611Y-63773436D01*
X153961000Y-63976484D01*
X153961000Y-64183516D01*
X153920611Y-64386564D01*
X153842517Y-64575100D01*
X153841384Y-64577835D01*
X153726365Y-64749973D01*
X153579973Y-64896365D01*
X153407835Y-65011384D01*
X153407834Y-65011385D01*
X153407833Y-65011385D01*
X153216564Y-65090611D01*
X153013516Y-65131000D01*
X152806484Y-65131000D01*
X152603436Y-65090611D01*
X152412167Y-65011385D01*
X152412166Y-65011385D01*
X152412165Y-65011384D01*
X152240027Y-64896365D01*
X152093635Y-64749973D01*
X151978616Y-64577835D01*
X151977483Y-64575100D01*
X151899389Y-64386564D01*
X151859000Y-64183516D01*
X151859000Y-63976484D01*
X151899389Y-63773436D01*
X151978615Y-63582167D01*
X152093635Y-63410027D01*
X152240027Y-63263635D01*
X152340376Y-63196584D01*
X152412165Y-63148616D01*
X152412167Y-63148615D01*
X152603436Y-63069389D01*
X152806484Y-63029000D01*
X153013516Y-63029000D01*
X153216564Y-63069389D01*
X153216564Y-63069389D01*
G37*
G36*
X115116564Y-63069389D02*
G01*
X115307833Y-63148615D01*
X115307835Y-63148616D01*
X115379624Y-63196584D01*
X115479973Y-63263635D01*
X115626365Y-63410027D01*
X115741385Y-63582167D01*
X115820611Y-63773436D01*
X115861000Y-63976484D01*
X115861000Y-64183516D01*
X115820611Y-64386564D01*
X115742517Y-64575100D01*
X115741384Y-64577835D01*
X115626365Y-64749973D01*
X115479973Y-64896365D01*
X115307835Y-65011384D01*
X115307834Y-65011385D01*
X115307833Y-65011385D01*
X115116564Y-65090611D01*
X114913516Y-65131000D01*
X114706484Y-65131000D01*
X114503436Y-65090611D01*
X114312167Y-65011385D01*
X114312166Y-65011385D01*
X114312165Y-65011384D01*
X114140027Y-64896365D01*
X113993635Y-64749973D01*
X113878616Y-64577835D01*
X113877483Y-64575100D01*
X113799389Y-64386564D01*
X113759000Y-64183516D01*
X113759000Y-63976484D01*
X113799389Y-63773436D01*
X113878615Y-63582167D01*
X113993635Y-63410027D01*
X114140027Y-63263635D01*
X114240376Y-63196584D01*
X114312165Y-63148616D01*
X114312167Y-63148615D01*
X114503436Y-63069389D01*
X114706484Y-63029000D01*
X114913516Y-63029000D01*
X115116564Y-63069389D01*
X115116564Y-63069389D01*
G37*
G36*
X178616564Y-62979389D02*
G01*
X178807833Y-63058615D01*
X178807835Y-63058616D01*
X178979973Y-63173635D01*
X179126365Y-63320027D01*
X179133950Y-63331378D01*
X179241385Y-63492167D01*
X179320611Y-63683436D01*
X179361000Y-63886484D01*
X179361000Y-64093516D01*
X179320611Y-64296564D01*
X179277384Y-64400923D01*
X179241384Y-64487835D01*
X179126365Y-64659973D01*
X178979973Y-64806365D01*
X178807835Y-64921384D01*
X178807834Y-64921385D01*
X178807833Y-64921385D01*
X178616564Y-65000611D01*
X178413516Y-65041000D01*
X178206484Y-65041000D01*
X178003436Y-65000611D01*
X177812167Y-64921385D01*
X177812166Y-64921385D01*
X177812165Y-64921384D01*
X177640027Y-64806365D01*
X177493635Y-64659973D01*
X177378616Y-64487835D01*
X177342616Y-64400923D01*
X177299389Y-64296564D01*
X177259000Y-64093516D01*
X177259000Y-63886484D01*
X177299389Y-63683436D01*
X177378615Y-63492167D01*
X177486051Y-63331378D01*
X177493635Y-63320027D01*
X177640027Y-63173635D01*
X177812165Y-63058616D01*
X177812167Y-63058615D01*
X178003436Y-62979389D01*
X178206484Y-62939000D01*
X178413516Y-62939000D01*
X178616564Y-62979389D01*
X178616564Y-62979389D01*
G37*
G36*
X173536564Y-62979389D02*
G01*
X173727833Y-63058615D01*
X173727835Y-63058616D01*
X173899973Y-63173635D01*
X174046365Y-63320027D01*
X174053950Y-63331378D01*
X174161385Y-63492167D01*
X174240611Y-63683436D01*
X174281000Y-63886484D01*
X174281000Y-64093516D01*
X174240611Y-64296564D01*
X174197384Y-64400923D01*
X174161384Y-64487835D01*
X174046365Y-64659973D01*
X173899973Y-64806365D01*
X173727835Y-64921384D01*
X173727834Y-64921385D01*
X173727833Y-64921385D01*
X173536564Y-65000611D01*
X173333516Y-65041000D01*
X173126484Y-65041000D01*
X172923436Y-65000611D01*
X172732167Y-64921385D01*
X172732166Y-64921385D01*
X172732165Y-64921384D01*
X172560027Y-64806365D01*
X172413635Y-64659973D01*
X172298616Y-64487835D01*
X172262616Y-64400923D01*
X172219389Y-64296564D01*
X172179000Y-64093516D01*
X172179000Y-63886484D01*
X172219389Y-63683436D01*
X172298615Y-63492167D01*
X172406051Y-63331378D01*
X172413635Y-63320027D01*
X172560027Y-63173635D01*
X172732165Y-63058616D01*
X172732167Y-63058615D01*
X172923436Y-62979389D01*
X173126484Y-62939000D01*
X173333516Y-62939000D01*
X173536564Y-62979389D01*
X173536564Y-62979389D01*
G37*
G36*
X127876500Y-64876500D02*
G01*
X126123500Y-64876500D01*
X126123500Y-63123500D01*
X127876500Y-63123500D01*
X127876500Y-64876500D01*
X127876500Y-64876500D01*
G37*
G36*
X130280483Y-62898335D02*
G01*
X130449240Y-62968236D01*
X130601118Y-63069718D01*
X130730282Y-63198882D01*
X130831764Y-63350760D01*
X130901665Y-63519517D01*
X130937300Y-63698668D01*
X130937300Y-63881332D01*
X130901665Y-64060483D01*
X130831764Y-64229240D01*
X130730282Y-64381118D01*
X130601118Y-64510282D01*
X130449240Y-64611764D01*
X130280483Y-64681665D01*
X130101332Y-64717300D01*
X129918668Y-64717300D01*
X129739517Y-64681665D01*
X129570760Y-64611764D01*
X129418882Y-64510282D01*
X129289718Y-64381118D01*
X129188236Y-64229240D01*
X129118335Y-64060483D01*
X129082700Y-63881332D01*
X129082700Y-63698668D01*
X129118335Y-63519517D01*
X129188236Y-63350760D01*
X129289718Y-63198882D01*
X129418882Y-63069718D01*
X129570760Y-62968236D01*
X129739517Y-62898335D01*
X129918668Y-62862700D01*
X130101332Y-62862700D01*
X130280483Y-62898335D01*
X130280483Y-62898335D01*
G37*
G36*
X145520483Y-62898335D02*
G01*
X145689240Y-62968236D01*
X145841118Y-63069718D01*
X145970282Y-63198882D01*
X146071764Y-63350760D01*
X146141665Y-63519517D01*
X146177300Y-63698668D01*
X146177300Y-63881332D01*
X146141665Y-64060483D01*
X146071764Y-64229240D01*
X145970282Y-64381118D01*
X145841118Y-64510282D01*
X145689240Y-64611764D01*
X145520483Y-64681665D01*
X145341332Y-64717300D01*
X145158668Y-64717300D01*
X144979517Y-64681665D01*
X144810760Y-64611764D01*
X144658882Y-64510282D01*
X144529718Y-64381118D01*
X144428236Y-64229240D01*
X144358335Y-64060483D01*
X144322700Y-63881332D01*
X144322700Y-63698668D01*
X144358335Y-63519517D01*
X144428236Y-63350760D01*
X144529718Y-63198882D01*
X144658882Y-63069718D01*
X144810760Y-62968236D01*
X144979517Y-62898335D01*
X145158668Y-62862700D01*
X145341332Y-62862700D01*
X145520483Y-62898335D01*
X145520483Y-62898335D01*
G37*
G36*
X141786564Y-60749389D02*
G01*
X141977833Y-60828615D01*
X141977835Y-60828616D01*
X142039811Y-60870027D01*
X142149973Y-60943635D01*
X142296365Y-61090027D01*
X142411385Y-61262167D01*
X142490611Y-61453436D01*
X142531000Y-61656484D01*
X142531000Y-61863516D01*
X142490611Y-62066564D01*
X142431209Y-62209973D01*
X142411384Y-62257835D01*
X142296365Y-62429973D01*
X142149973Y-62576365D01*
X141977835Y-62691384D01*
X141977834Y-62691385D01*
X141977833Y-62691385D01*
X141786564Y-62770611D01*
X141583516Y-62811000D01*
X141376484Y-62811000D01*
X141173436Y-62770611D01*
X140982167Y-62691385D01*
X140982166Y-62691385D01*
X140982165Y-62691384D01*
X140810027Y-62576365D01*
X140663635Y-62429973D01*
X140548616Y-62257835D01*
X140528791Y-62209973D01*
X140469389Y-62066564D01*
X140429000Y-61863516D01*
X140429000Y-61656484D01*
X140469389Y-61453436D01*
X140548615Y-61262167D01*
X140663635Y-61090027D01*
X140810027Y-60943635D01*
X140920189Y-60870027D01*
X140982165Y-60828616D01*
X140982167Y-60828615D01*
X141173436Y-60749389D01*
X141376484Y-60709000D01*
X141583516Y-60709000D01*
X141786564Y-60749389D01*
X141786564Y-60749389D01*
G37*
G36*
X134166564Y-60749389D02*
G01*
X134357833Y-60828615D01*
X134357835Y-60828616D01*
X134419811Y-60870027D01*
X134529973Y-60943635D01*
X134676365Y-61090027D01*
X134791385Y-61262167D01*
X134870611Y-61453436D01*
X134911000Y-61656484D01*
X134911000Y-61863516D01*
X134870611Y-62066564D01*
X134811209Y-62209973D01*
X134791384Y-62257835D01*
X134676365Y-62429973D01*
X134529973Y-62576365D01*
X134357835Y-62691384D01*
X134357834Y-62691385D01*
X134357833Y-62691385D01*
X134166564Y-62770611D01*
X133963516Y-62811000D01*
X133756484Y-62811000D01*
X133553436Y-62770611D01*
X133362167Y-62691385D01*
X133362166Y-62691385D01*
X133362165Y-62691384D01*
X133190027Y-62576365D01*
X133043635Y-62429973D01*
X132928616Y-62257835D01*
X132908791Y-62209973D01*
X132849389Y-62066564D01*
X132809000Y-61863516D01*
X132809000Y-61656484D01*
X132849389Y-61453436D01*
X132928615Y-61262167D01*
X133043635Y-61090027D01*
X133190027Y-60943635D01*
X133300189Y-60870027D01*
X133362165Y-60828616D01*
X133362167Y-60828615D01*
X133553436Y-60749389D01*
X133756484Y-60709000D01*
X133963516Y-60709000D01*
X134166564Y-60749389D01*
X134166564Y-60749389D01*
G37*
G36*
X159566564Y-60529389D02*
G01*
X159757833Y-60608615D01*
X159757835Y-60608616D01*
X159833062Y-60658881D01*
X159929973Y-60723635D01*
X160076365Y-60870027D01*
X160191385Y-61042167D01*
X160270611Y-61233436D01*
X160311000Y-61436484D01*
X160311000Y-61643516D01*
X160270611Y-61846564D01*
X160263590Y-61863514D01*
X160191384Y-62037835D01*
X160076365Y-62209973D01*
X159929973Y-62356365D01*
X159757835Y-62471384D01*
X159757834Y-62471385D01*
X159757833Y-62471385D01*
X159566564Y-62550611D01*
X159363516Y-62591000D01*
X159156484Y-62591000D01*
X158953436Y-62550611D01*
X158762167Y-62471385D01*
X158762166Y-62471385D01*
X158762165Y-62471384D01*
X158590027Y-62356365D01*
X158443635Y-62209973D01*
X158328616Y-62037835D01*
X158256410Y-61863514D01*
X158249389Y-61846564D01*
X158209000Y-61643516D01*
X158209000Y-61436484D01*
X158249389Y-61233436D01*
X158328615Y-61042167D01*
X158443635Y-60870027D01*
X158590027Y-60723635D01*
X158686938Y-60658881D01*
X158762165Y-60608616D01*
X158762167Y-60608615D01*
X158953436Y-60529389D01*
X159156484Y-60489000D01*
X159363516Y-60489000D01*
X159566564Y-60529389D01*
X159566564Y-60529389D01*
G37*
G36*
X154486564Y-60529389D02*
G01*
X154677833Y-60608615D01*
X154677835Y-60608616D01*
X154753062Y-60658881D01*
X154849973Y-60723635D01*
X154996365Y-60870027D01*
X155111385Y-61042167D01*
X155190611Y-61233436D01*
X155231000Y-61436484D01*
X155231000Y-61643516D01*
X155190611Y-61846564D01*
X155183590Y-61863514D01*
X155111384Y-62037835D01*
X154996365Y-62209973D01*
X154849973Y-62356365D01*
X154677835Y-62471384D01*
X154677834Y-62471385D01*
X154677833Y-62471385D01*
X154486564Y-62550611D01*
X154283516Y-62591000D01*
X154076484Y-62591000D01*
X153873436Y-62550611D01*
X153682167Y-62471385D01*
X153682166Y-62471385D01*
X153682165Y-62471384D01*
X153510027Y-62356365D01*
X153363635Y-62209973D01*
X153248616Y-62037835D01*
X153176410Y-61863514D01*
X153169389Y-61846564D01*
X153129000Y-61643516D01*
X153129000Y-61436484D01*
X153169389Y-61233436D01*
X153248615Y-61042167D01*
X153363635Y-60870027D01*
X153510027Y-60723635D01*
X153606938Y-60658881D01*
X153682165Y-60608616D01*
X153682167Y-60608615D01*
X153873436Y-60529389D01*
X154076484Y-60489000D01*
X154283516Y-60489000D01*
X154486564Y-60529389D01*
X154486564Y-60529389D01*
G37*
G36*
X121466564Y-60529389D02*
G01*
X121657833Y-60608615D01*
X121657835Y-60608616D01*
X121733062Y-60658881D01*
X121829973Y-60723635D01*
X121976365Y-60870027D01*
X122091385Y-61042167D01*
X122170611Y-61233436D01*
X122211000Y-61436484D01*
X122211000Y-61643516D01*
X122170611Y-61846564D01*
X122163590Y-61863514D01*
X122091384Y-62037835D01*
X121976365Y-62209973D01*
X121829973Y-62356365D01*
X121657835Y-62471384D01*
X121657834Y-62471385D01*
X121657833Y-62471385D01*
X121466564Y-62550611D01*
X121263516Y-62591000D01*
X121056484Y-62591000D01*
X120853436Y-62550611D01*
X120662167Y-62471385D01*
X120662166Y-62471385D01*
X120662165Y-62471384D01*
X120490027Y-62356365D01*
X120343635Y-62209973D01*
X120228616Y-62037835D01*
X120156410Y-61863514D01*
X120149389Y-61846564D01*
X120109000Y-61643516D01*
X120109000Y-61436484D01*
X120149389Y-61233436D01*
X120228615Y-61042167D01*
X120343635Y-60870027D01*
X120490027Y-60723635D01*
X120586938Y-60658881D01*
X120662165Y-60608616D01*
X120662167Y-60608615D01*
X120853436Y-60529389D01*
X121056484Y-60489000D01*
X121263516Y-60489000D01*
X121466564Y-60529389D01*
X121466564Y-60529389D01*
G37*
G36*
X116386564Y-60529389D02*
G01*
X116577833Y-60608615D01*
X116577835Y-60608616D01*
X116653062Y-60658881D01*
X116749973Y-60723635D01*
X116896365Y-60870027D01*
X117011385Y-61042167D01*
X117090611Y-61233436D01*
X117131000Y-61436484D01*
X117131000Y-61643516D01*
X117090611Y-61846564D01*
X117083590Y-61863514D01*
X117011384Y-62037835D01*
X116896365Y-62209973D01*
X116749973Y-62356365D01*
X116577835Y-62471384D01*
X116577834Y-62471385D01*
X116577833Y-62471385D01*
X116386564Y-62550611D01*
X116183516Y-62591000D01*
X115976484Y-62591000D01*
X115773436Y-62550611D01*
X115582167Y-62471385D01*
X115582166Y-62471385D01*
X115582165Y-62471384D01*
X115410027Y-62356365D01*
X115263635Y-62209973D01*
X115148616Y-62037835D01*
X115076410Y-61863514D01*
X115069389Y-61846564D01*
X115029000Y-61643516D01*
X115029000Y-61436484D01*
X115069389Y-61233436D01*
X115148615Y-61042167D01*
X115263635Y-60870027D01*
X115410027Y-60723635D01*
X115506938Y-60658881D01*
X115582165Y-60608616D01*
X115582167Y-60608615D01*
X115773436Y-60529389D01*
X115976484Y-60489000D01*
X116183516Y-60489000D01*
X116386564Y-60529389D01*
X116386564Y-60529389D01*
G37*
G36*
X145520483Y-60358335D02*
G01*
X145689240Y-60428236D01*
X145841118Y-60529718D01*
X145970282Y-60658882D01*
X146071764Y-60810760D01*
X146141665Y-60979517D01*
X146177300Y-61158668D01*
X146177300Y-61341332D01*
X146141665Y-61520483D01*
X146071764Y-61689240D01*
X145970282Y-61841118D01*
X145841118Y-61970282D01*
X145689240Y-62071764D01*
X145520483Y-62141665D01*
X145341332Y-62177300D01*
X145158668Y-62177300D01*
X144979517Y-62141665D01*
X144810760Y-62071764D01*
X144658882Y-61970282D01*
X144529718Y-61841118D01*
X144428236Y-61689240D01*
X144358335Y-61520483D01*
X144322700Y-61341332D01*
X144322700Y-61158668D01*
X144358335Y-60979517D01*
X144428236Y-60810760D01*
X144529718Y-60658882D01*
X144658882Y-60529718D01*
X144810760Y-60428236D01*
X144979517Y-60358335D01*
X145158668Y-60322700D01*
X145341332Y-60322700D01*
X145520483Y-60358335D01*
X145520483Y-60358335D01*
G37*
G36*
X130280483Y-60358335D02*
G01*
X130449240Y-60428236D01*
X130601118Y-60529718D01*
X130730282Y-60658882D01*
X130831764Y-60810760D01*
X130901665Y-60979517D01*
X130937300Y-61158668D01*
X130937300Y-61341332D01*
X130901665Y-61520483D01*
X130831764Y-61689240D01*
X130730282Y-61841118D01*
X130601118Y-61970282D01*
X130449240Y-62071764D01*
X130280483Y-62141665D01*
X130101332Y-62177300D01*
X129918668Y-62177300D01*
X129739517Y-62141665D01*
X129570760Y-62071764D01*
X129418882Y-61970282D01*
X129289718Y-61841118D01*
X129188236Y-61689240D01*
X129118335Y-61520483D01*
X129082700Y-61341332D01*
X129082700Y-61158668D01*
X129118335Y-60979517D01*
X129188236Y-60810760D01*
X129289718Y-60658882D01*
X129418882Y-60529718D01*
X129570760Y-60428236D01*
X129739517Y-60358335D01*
X129918668Y-60322700D01*
X130101332Y-60322700D01*
X130280483Y-60358335D01*
X130280483Y-60358335D01*
G37*
G36*
X135436564Y-58209389D02*
G01*
X135627833Y-58288615D01*
X135627835Y-58288616D01*
X135799973Y-58403635D01*
X135946365Y-58550027D01*
X136061385Y-58722167D01*
X136140611Y-58913436D01*
X136181000Y-59116484D01*
X136181000Y-59323516D01*
X136140611Y-59526564D01*
X136061385Y-59717833D01*
X136061384Y-59717835D01*
X135946365Y-59889973D01*
X135799973Y-60036365D01*
X135627835Y-60151384D01*
X135627834Y-60151385D01*
X135627833Y-60151385D01*
X135436564Y-60230611D01*
X135233516Y-60271000D01*
X135026484Y-60271000D01*
X134823436Y-60230611D01*
X134632167Y-60151385D01*
X134632166Y-60151385D01*
X134632165Y-60151384D01*
X134460027Y-60036365D01*
X134313635Y-59889973D01*
X134198616Y-59717835D01*
X134198615Y-59717833D01*
X134119389Y-59526564D01*
X134079000Y-59323516D01*
X134079000Y-59116484D01*
X134119389Y-58913436D01*
X134198615Y-58722167D01*
X134313635Y-58550027D01*
X134460027Y-58403635D01*
X134632165Y-58288616D01*
X134632167Y-58288615D01*
X134823436Y-58209389D01*
X135026484Y-58169000D01*
X135233516Y-58169000D01*
X135436564Y-58209389D01*
X135436564Y-58209389D01*
G37*
G36*
X140516564Y-58209389D02*
G01*
X140707833Y-58288615D01*
X140707835Y-58288616D01*
X140879973Y-58403635D01*
X141026365Y-58550027D01*
X141141385Y-58722167D01*
X141220611Y-58913436D01*
X141261000Y-59116484D01*
X141261000Y-59323516D01*
X141220611Y-59526564D01*
X141141385Y-59717833D01*
X141141384Y-59717835D01*
X141026365Y-59889973D01*
X140879973Y-60036365D01*
X140707835Y-60151384D01*
X140707834Y-60151385D01*
X140707833Y-60151385D01*
X140516564Y-60230611D01*
X140313516Y-60271000D01*
X140106484Y-60271000D01*
X139903436Y-60230611D01*
X139712167Y-60151385D01*
X139712166Y-60151385D01*
X139712165Y-60151384D01*
X139540027Y-60036365D01*
X139393635Y-59889973D01*
X139278616Y-59717835D01*
X139278615Y-59717833D01*
X139199389Y-59526564D01*
X139159000Y-59323516D01*
X139159000Y-59116484D01*
X139199389Y-58913436D01*
X139278615Y-58722167D01*
X139393635Y-58550027D01*
X139540027Y-58403635D01*
X139712165Y-58288616D01*
X139712167Y-58288615D01*
X139903436Y-58209389D01*
X140106484Y-58169000D01*
X140313516Y-58169000D01*
X140516564Y-58209389D01*
X140516564Y-58209389D01*
G37*
G36*
X130937300Y-59637300D02*
G01*
X129082700Y-59637300D01*
X129082700Y-57782700D01*
X130937300Y-57782700D01*
X130937300Y-59637300D01*
X130937300Y-59637300D01*
G37*
G36*
X145520483Y-57818335D02*
G01*
X145689240Y-57888236D01*
X145841118Y-57989718D01*
X145970282Y-58118882D01*
X146071764Y-58270760D01*
X146141665Y-58439517D01*
X146177300Y-58618668D01*
X146177300Y-58801332D01*
X146141665Y-58980483D01*
X146071764Y-59149240D01*
X145970282Y-59301118D01*
X145841118Y-59430282D01*
X145689240Y-59531764D01*
X145520483Y-59601665D01*
X145341332Y-59637300D01*
X145158668Y-59637300D01*
X144979517Y-59601665D01*
X144810760Y-59531764D01*
X144658882Y-59430282D01*
X144529718Y-59301118D01*
X144428236Y-59149240D01*
X144358335Y-58980483D01*
X144322700Y-58801332D01*
X144322700Y-58618668D01*
X144358335Y-58439517D01*
X144428236Y-58270760D01*
X144529718Y-58118882D01*
X144658882Y-57989718D01*
X144810760Y-57888236D01*
X144979517Y-57818335D01*
X145158668Y-57782700D01*
X145341332Y-57782700D01*
X145520483Y-57818335D01*
X145520483Y-57818335D01*
G37*
M02*
