  0
SECTION
  2
BLOCKS
  0
ENDSEC
  0
SECTION
  2
ENTITIES
  0
LINE
  8
0
 10
22.1128
 20
0.00198364
 11
22.1753
 21
0.00788879
  0
LINE
  8
0
 10
22.1753
 20
0.00788879
 11
22.2374
 21
0.0177155
  0
LINE
  8
0
 10
22.2374
 20
0.0177155
 11
22.2987
 21
0.0314178
  0
LINE
  8
0
 10
22.2987
 20
0.0314178
 11
22.359
 21
0.0489502
  0
LINE
  8
0
 10
22.359
 20
0.0489502
 11
22.4181
 21
0.0702362
  0
LINE
  8
0
 10
22.4181
 20
0.0702362
 11
22.4758
 21
0.0951843
  0
LINE
  8
0
 10
22.4758
 20
0.0951843
 11
22.5317
 21
0.123703
  0
LINE
  8
0
 10
22.5317
 20
0.123703
 11
22.5858
 21
0.155685
  0
LINE
  8
0
 10
22.5858
 20
0.155685
 11
22.6378
 21
0.190994
  0
LINE
  8
0
 10
22.6378
 20
0.190994
 11
22.6874
 21
0.229492
  0
LINE
  8
0
 10
22.6874
 20
0.229492
 11
22.7345
 21
0.271042
  0
LINE
  8
0
 10
22.7345
 20
0.271042
 11
22.7789
 21
0.31546
  0
LINE
  8
0
 10
22.7789
 20
0.31546
 11
22.8205
 21
0.362579
  0
LINE
  8
0
 10
22.8205
 20
0.362579
 11
22.859
 21
0.412216
  0
LINE
  8
0
 10
22.859
 20
0.412216
 11
22.8943
 21
0.464188
  0
LINE
  8
0
 10
22.8943
 20
0.464188
 11
22.9263
 21
0.51825
  0
LINE
  8
0
 10
22.9263
 20
0.51825
 11
22.9548
 21
0.574234
  0
LINE
  8
0
 10
22.9548
 20
0.574234
 11
22.9798
 21
0.631882
  0
LINE
  8
0
 10
22.9798
 20
0.631882
 11
23.001
 21
0.690994
  0
LINE
  8
0
 10
23.001
 20
0.690994
 11
23.0186
 21
0.751312
  0
LINE
  8
0
 10
23.0186
 20
0.751312
 11
23.0323
 21
0.812622
  0
LINE
  8
0
 10
23.0323
 20
0.812622
 11
23.0421
 21
0.87468
  0
LINE
  8
0
 10
23.0421
 20
0.87468
 11
23.048
 21
0.93721
  0
LINE
  8
0
 10
23.048
 20
0.93721
 11
23.05
 21
1
  0
LINE
  8
0
 10
23.05
 20
1
 11
23.05
 21
2.38124
  0
LINE
  8
0
 10
23.05
 20
2.38124
 11
41.1
 21
2.38124
  0
LINE
  8
0
 10
41.1
 20
2.38124
 11
41.1628
 21
2.38322
  0
LINE
  8
0
 10
41.1628
 20
2.38322
 11
41.2253
 21
2.38913
  0
LINE
  8
0
 10
41.2253
 20
2.38913
 11
41.2874
 21
2.39896
  0
LINE
  8
0
 10
41.2874
 20
2.39896
 11
41.3487
 21
2.41266
  0
LINE
  8
0
 10
41.3487
 20
2.41266
 11
41.409
 21
2.43019
  0
LINE
  8
0
 10
41.409
 20
2.43019
 11
41.4681
 21
2.45148
  0
LINE
  8
0
 10
41.4681
 20
2.45148
 11
41.5258
 21
2.47643
  0
LINE
  8
0
 10
41.5258
 20
2.47643
 11
41.5817
 21
2.50494
  0
LINE
  8
0
 10
41.5817
 20
2.50494
 11
41.6358
 21
2.53693
  0
LINE
  8
0
 10
41.6358
 20
2.53693
 11
41.6878
 21
2.57224
  0
LINE
  8
0
 10
41.6878
 20
2.57224
 11
41.7374
 21
2.61073
  0
LINE
  8
0
 10
41.7374
 20
2.61073
 11
41.7845
 21
2.65228
  0
LINE
  8
0
 10
41.7845
 20
2.65228
 11
41.8289
 21
2.6967
  0
LINE
  8
0
 10
41.8289
 20
2.6967
 11
41.8705
 21
2.74382
  0
LINE
  8
0
 10
41.8705
 20
2.74382
 11
41.909
 21
2.79346
  0
LINE
  8
0
 10
41.909
 20
2.79346
 11
41.9443
 21
2.84543
  0
LINE
  8
0
 10
41.9443
 20
2.84543
 11
41.9763
 21
2.89949
  0
LINE
  8
0
 10
41.9763
 20
2.89949
 11
42.0048
 21
2.95547
  0
LINE
  8
0
 10
42.0048
 20
2.95547
 11
42.0298
 21
3.01312
  0
LINE
  8
0
 10
42.0298
 20
3.01312
 11
42.051
 21
3.07224
  0
LINE
  8
0
 10
42.051
 20
3.07224
 11
42.0686
 21
3.13255
  0
LINE
  8
0
 10
42.0686
 20
3.13255
 11
42.0823
 21
3.19386
  0
LINE
  8
0
 10
42.0823
 20
3.19386
 11
42.0921
 21
3.25592
  0
LINE
  8
0
 10
42.0921
 20
3.25592
 11
42.098
 21
3.31845
  0
LINE
  8
0
 10
42.098
 20
3.31845
 11
42.1
 21
3.38124
  0
LINE
  8
0
 10
42.1
 20
3.38124
 11
42.1
 21
30.1937
  0
LINE
  8
0
 10
42.1
 20
30.1937
 11
42.098
 21
30.2565
  0
LINE
  8
0
 10
42.098
 20
30.2565
 11
42.0921
 21
30.3191
  0
LINE
  8
0
 10
42.0921
 20
30.3191
 11
42.0823
 21
30.3811
  0
LINE
  8
0
 10
42.0823
 20
30.3811
 11
42.0686
 21
30.4424
  0
LINE
  8
0
 10
42.0686
 20
30.4424
 11
42.051
 21
30.5027
  0
LINE
  8
0
 10
42.051
 20
30.5027
 11
42.0298
 21
30.5619
  0
LINE
  8
0
 10
42.0298
 20
30.5619
 11
42.0048
 21
30.6195
  0
LINE
  8
0
 10
42.0048
 20
30.6195
 11
41.9763
 21
30.6755
  0
LINE
  8
0
 10
41.9763
 20
30.6755
 11
41.9443
 21
30.7296
  0
LINE
  8
0
 10
41.9443
 20
30.7296
 11
41.909
 21
30.7815
  0
LINE
  8
0
 10
41.909
 20
30.7815
 11
41.8705
 21
30.8312
  0
LINE
  8
0
 10
41.8705
 20
30.8312
 11
41.8289
 21
30.8783
  0
LINE
  8
0
 10
41.8289
 20
30.8783
 11
41.7845
 21
30.9227
  0
LINE
  8
0
 10
41.7845
 20
30.9227
 11
41.7374
 21
30.9642
  0
LINE
  8
0
 10
41.7374
 20
30.9642
 11
41.6878
 21
31.0027
  0
LINE
  8
0
 10
41.6878
 20
31.0027
 11
41.6358
 21
31.0381
  0
LINE
  8
0
 10
41.6358
 20
31.0381
 11
41.5817
 21
31.07
  0
LINE
  8
0
 10
41.5817
 20
31.07
 11
41.5258
 21
31.0986
  0
LINE
  8
0
 10
41.5258
 20
31.0986
 11
41.4681
 21
31.1235
  0
LINE
  8
0
 10
41.4681
 20
31.1235
 11
41.409
 21
31.1448
  0
LINE
  8
0
 10
41.409
 20
31.1448
 11
41.3487
 21
31.1623
  0
LINE
  8
0
 10
41.3487
 20
31.1623
 11
41.2874
 21
31.176
  0
LINE
  8
0
 10
41.2874
 20
31.176
 11
41.2253
 21
31.1859
  0
LINE
  8
0
 10
41.2253
 20
31.1859
 11
41.1628
 21
31.1918
  0
LINE
  8
0
 10
41.1628
 20
31.1918
 11
41.1
 21
31.1937
  0
LINE
  8
0
 10
41.1
 20
31.1937
 11
20.05
 21
31.1937
  0
LINE
  8
0
 10
20.05
 20
31.1937
 11
19.9872
 21
31.1918
  0
LINE
  8
0
 10
19.9872
 20
31.1918
 11
19.9247
 21
31.1859
  0
LINE
  8
0
 10
19.9247
 20
31.1859
 11
19.8626
 21
31.176
  0
LINE
  8
0
 10
19.8626
 20
31.176
 11
19.8013
 21
31.1623
  0
LINE
  8
0
 10
19.8013
 20
31.1623
 11
19.741
 21
31.1448
  0
LINE
  8
0
 10
19.741
 20
31.1448
 11
19.6819
 21
31.1235
  0
LINE
  8
0
 10
19.6819
 20
31.1235
 11
19.6242
 21
31.0986
  0
LINE
  8
0
 10
19.6242
 20
31.0986
 11
19.5682
 21
31.07
  0
LINE
  8
0
 10
19.5682
 20
31.07
 11
19.5142
 21
31.0381
  0
LINE
  8
0
 10
19.5142
 20
31.0381
 11
19.4622
 21
31.0027
  0
LINE
  8
0
 10
19.4622
 20
31.0027
 11
19.4126
 21
30.9642
  0
LINE
  8
0
 10
19.4126
 20
30.9642
 11
19.3654
 21
30.9227
  0
LINE
  8
0
 10
19.3654
 20
30.9227
 11
19.321
 21
30.8783
  0
LINE
  8
0
 10
19.321
 20
30.8783
 11
19.2795
 21
30.8312
  0
LINE
  8
0
 10
19.2795
 20
30.8312
 11
19.241
 21
30.7815
  0
LINE
  8
0
 10
19.241
 20
30.7815
 11
19.2057
 21
30.7296
  0
LINE
  8
0
 10
19.2057
 20
30.7296
 11
19.1737
 21
30.6755
  0
LINE
  8
0
 10
19.1737
 20
30.6755
 11
19.1452
 21
30.6195
  0
LINE
  8
0
 10
19.1452
 20
30.6195
 11
19.1202
 21
30.5619
  0
LINE
  8
0
 10
19.1202
 20
30.5619
 11
19.0989
 21
30.5027
  0
LINE
  8
0
 10
19.0989
 20
30.5027
 11
19.0814
 21
30.4424
  0
LINE
  8
0
 10
19.0814
 20
30.4424
 11
19.0677
 21
30.3811
  0
LINE
  8
0
 10
19.0677
 20
30.3811
 11
19.0579
 21
30.3191
  0
LINE
  8
0
 10
19.0579
 20
30.3191
 11
19.052
 21
30.2565
  0
LINE
  8
0
 10
19.052
 20
30.2565
 11
19.05
 21
30.1937
  0
LINE
  8
0
 10
19.05
 20
30.1937
 11
19.05
 21
28.8125
  0
LINE
  8
0
 10
19.05
 20
28.8125
 11
1
 21
28.8125
  0
LINE
  8
0
 10
1
 20
28.8125
 11
0.93721
 21
28.8105
  0
LINE
  8
0
 10
0.93721
 20
28.8105
 11
0.87468
 21
28.8046
  0
LINE
  8
0
 10
0.87468
 20
28.8046
 11
0.812622
 21
28.7948
  0
LINE
  8
0
 10
0.812622
 20
28.7948
 11
0.751312
 21
28.7811
  0
LINE
  8
0
 10
0.751312
 20
28.7811
 11
0.690994
 21
28.7635
  0
LINE
  8
0
 10
0.690994
 20
28.7635
 11
0.631882
 21
28.7423
  0
LINE
  8
0
 10
0.631882
 20
28.7423
 11
0.574234
 21
28.7173
  0
LINE
  8
0
 10
0.574234
 20
28.7173
 11
0.51825
 21
28.6888
  0
LINE
  8
0
 10
0.51825
 20
28.6888
 11
0.464188
 21
28.6568
  0
LINE
  8
0
 10
0.464188
 20
28.6568
 11
0.412216
 21
28.6215
  0
LINE
  8
0
 10
0.412216
 20
28.6215
 11
0.362579
 21
28.583
  0
LINE
  8
0
 10
0.362579
 20
28.583
 11
0.31546
 21
28.5415
  0
LINE
  8
0
 10
0.31546
 20
28.5415
 11
0.271042
 21
28.497
  0
LINE
  8
0
 10
0.271042
 20
28.497
 11
0.229492
 21
28.4499
  0
LINE
  8
0
 10
0.229492
 20
28.4499
 11
0.190994
 21
28.4003
  0
LINE
  8
0
 10
0.190994
 20
28.4003
 11
0.155685
 21
28.3483
  0
LINE
  8
0
 10
0.155685
 20
28.3483
 11
0.123703
 21
28.2943
  0
LINE
  8
0
 10
0.123703
 20
28.2943
 11
0.0951843
 21
28.2383
  0
LINE
  8
0
 10
0.0951843
 20
28.2383
 11
0.0702362
 21
28.1806
  0
LINE
  8
0
 10
0.0702362
 20
28.1806
 11
0.0489502
 21
28.1215
  0
LINE
  8
0
 10
0.0489502
 20
28.1215
 11
0.0314178
 21
28.0612
  0
LINE
  8
0
 10
0.0314178
 20
28.0612
 11
0.0177155
 21
27.9999
  0
LINE
  8
0
 10
0.0177155
 20
27.9999
 11
0.00788879
 21
27.9378
  0
LINE
  8
0
 10
0.00788879
 20
27.9378
 11
0.00198364
 21
27.8753
  0
LINE
  8
0
 10
0.00198364
 20
27.8753
 11
0
 21
27.8125
  0
LINE
  8
0
 10
0
 20
27.8125
 11
0
 21
1
  0
LINE
  8
0
 10
0
 20
1
 11
0.00198364
 21
0.93721
  0
LINE
  8
0
 10
0.00198364
 20
0.93721
 11
0.00788879
 21
0.87468
  0
LINE
  8
0
 10
0.00788879
 20
0.87468
 11
0.0177155
 21
0.812622
  0
LINE
  8
0
 10
0.0177155
 20
0.812622
 11
0.0314178
 21
0.751312
  0
LINE
  8
0
 10
0.0314178
 20
0.751312
 11
0.0489502
 21
0.690994
  0
LINE
  8
0
 10
0.0489502
 20
0.690994
 11
0.0702362
 21
0.631882
  0
LINE
  8
0
 10
0.0702362
 20
0.631882
 11
0.0951843
 21
0.574234
  0
LINE
  8
0
 10
0.0951843
 20
0.574234
 11
0.123703
 21
0.51825
  0
LINE
  8
0
 10
0.123703
 20
0.51825
 11
0.155685
 21
0.464188
  0
LINE
  8
0
 10
0.155685
 20
0.464188
 11
0.190994
 21
0.412216
  0
LINE
  8
0
 10
0.190994
 20
0.412216
 11
0.229492
 21
0.362579
  0
LINE
  8
0
 10
0.229492
 20
0.362579
 11
0.271042
 21
0.31546
  0
LINE
  8
0
 10
0.271042
 20
0.31546
 11
0.31546
 21
0.271042
  0
LINE
  8
0
 10
0.31546
 20
0.271042
 11
0.362579
 21
0.229492
  0
LINE
  8
0
 10
0.362579
 20
0.229492
 11
0.412216
 21
0.190994
  0
LINE
  8
0
 10
0.412216
 20
0.190994
 11
0.464188
 21
0.155685
  0
LINE
  8
0
 10
0.464188
 20
0.155685
 11
0.51825
 21
0.123703
  0
LINE
  8
0
 10
0.51825
 20
0.123703
 11
0.574234
 21
0.0951843
  0
LINE
  8
0
 10
0.574234
 20
0.0951843
 11
0.631882
 21
0.0702362
  0
LINE
  8
0
 10
0.631882
 20
0.0702362
 11
0.690994
 21
0.0489502
  0
LINE
  8
0
 10
0.690994
 20
0.0489502
 11
0.751312
 21
0.0314178
  0
LINE
  8
0
 10
0.751312
 20
0.0314178
 11
0.812622
 21
0.0177155
  0
LINE
  8
0
 10
0.812622
 20
0.0177155
 11
0.87468
 21
0.00788879
  0
LINE
  8
0
 10
0.87468
 20
0.00788879
 11
0.93721
 21
0.00198364
  0
LINE
  8
0
 10
0.93721
 20
0.00198364
 11
1
 21
0
  0
LINE
  8
0
 10
1
 20
0
 11
22.05
 21
0
  0
LINE
  8
0
 10
22.05
 20
0
 11
22.1128
 21
0.00198364
  0
LINE
  8
0
 10
20.9684
 20
24.5151
 11
20.8871
 21
24.5228
  0
LINE
  8
0
 10
20.8871
 20
24.5228
 11
20.8064
 21
24.5355
  0
LINE
  8
0
 10
20.8064
 20
24.5355
 11
20.7267
 21
24.5533
  0
LINE
  8
0
 10
20.7267
 20
24.5533
 11
20.6483
 21
24.5761
  0
LINE
  8
0
 10
20.6483
 20
24.5761
 11
20.5714
 21
24.6038
  0
LINE
  8
0
 10
20.5714
 20
24.6038
 11
20.4965
 21
24.6362
  0
LINE
  8
0
 10
20.4965
 20
24.6362
 11
20.4237
 21
24.6733
  0
LINE
  8
0
 10
20.4237
 20
24.6733
 11
20.3534
 21
24.7149
  0
LINE
  8
0
 10
20.3534
 20
24.7149
 11
20.2859
 21
24.7608
  0
LINE
  8
0
 10
20.2859
 20
24.7608
 11
20.2213
 21
24.8108
  0
LINE
  8
0
 10
20.2213
 20
24.8108
 11
20.1601
 21
24.8648
  0
LINE
  8
0
 10
20.1601
 20
24.8648
 11
20.1023
 21
24.9226
  0
LINE
  8
0
 10
20.1023
 20
24.9226
 11
20.0483
 21
24.9838
  0
LINE
  8
0
 10
20.0483
 20
24.9838
 11
19.9983
 21
25.0484
  0
LINE
  8
0
 10
19.9983
 20
25.0484
 11
19.9524
 21
25.1159
  0
LINE
  8
0
 10
19.9524
 20
25.1159
 11
19.9108
 21
25.1862
  0
LINE
  8
0
 10
19.9108
 20
25.1862
 11
19.8737
 21
25.259
  0
LINE
  8
0
 10
19.8737
 20
25.259
 11
19.8413
 21
25.3339
  0
LINE
  8
0
 10
19.8413
 20
25.3339
 11
19.8136
 21
25.4108
  0
LINE
  8
0
 10
19.8136
 20
25.4108
 11
19.7908
 21
25.4892
  0
LINE
  8
0
 10
19.7908
 20
25.4892
 11
19.773
 21
25.5689
  0
LINE
  8
0
 10
19.773
 20
25.5689
 11
19.7602
 21
25.6496
  0
LINE
  8
0
 10
19.7602
 20
25.6496
 11
19.7526
 21
25.7309
  0
LINE
  8
0
 10
19.7526
 20
25.7309
 11
19.75
 21
25.8125
  0
LINE
  8
0
 10
19.75
 20
25.8125
 11
19.7526
 21
25.8941
  0
LINE
  8
0
 10
19.7526
 20
25.8941
 11
19.7602
 21
25.9754
  0
LINE
  8
0
 10
19.7602
 20
25.9754
 11
19.773
 21
26.0561
  0
LINE
  8
0
 10
19.773
 20
26.0561
 11
19.7908
 21
26.1358
  0
LINE
  8
0
 10
19.7908
 20
26.1358
 11
19.8136
 21
26.2142
  0
LINE
  8
0
 10
19.8136
 20
26.2142
 11
19.8413
 21
26.2911
  0
LINE
  8
0
 10
19.8413
 20
26.2911
 11
19.8737
 21
26.366
  0
LINE
  8
0
 10
19.8737
 20
26.366
 11
19.9108
 21
26.4388
  0
LINE
  8
0
 10
19.9108
 20
26.4388
 11
19.9524
 21
26.5091
  0
LINE
  8
0
 10
19.9524
 20
26.5091
 11
19.9983
 21
26.5766
  0
LINE
  8
0
 10
19.9983
 20
26.5766
 11
20.0483
 21
26.6411
  0
LINE
  8
0
 10
20.0483
 20
26.6411
 11
20.1023
 21
26.7024
  0
LINE
  8
0
 10
20.1023
 20
26.7024
 11
20.1601
 21
26.7601
  0
LINE
  8
0
 10
20.1601
 20
26.7601
 11
20.2213
 21
26.8142
  0
LINE
  8
0
 10
20.2213
 20
26.8142
 11
20.2859
 21
26.8642
  0
LINE
  8
0
 10
20.2859
 20
26.8642
 11
20.3534
 21
26.9101
  0
LINE
  8
0
 10
20.3534
 20
26.9101
 11
20.4237
 21
26.9517
  0
LINE
  8
0
 10
20.4237
 20
26.9517
 11
20.4965
 21
26.9888
  0
LINE
  8
0
 10
20.4965
 20
26.9888
 11
20.5714
 21
27.0212
  0
LINE
  8
0
 10
20.5714
 20
27.0212
 11
20.6483
 21
27.0489
  0
LINE
  8
0
 10
20.6483
 20
27.0489
 11
20.7267
 21
27.0717
  0
LINE
  8
0
 10
20.7267
 20
27.0717
 11
20.8064
 21
27.0895
  0
LINE
  8
0
 10
20.8064
 20
27.0895
 11
20.8871
 21
27.1022
  0
LINE
  8
0
 10
20.8871
 20
27.1022
 11
20.9684
 21
27.1099
  0
LINE
  8
0
 10
20.9684
 20
27.1099
 11
21.05
 21
27.1125
  0
LINE
  8
0
 10
21.05
 20
27.1125
 11
21.1316
 21
27.1099
  0
LINE
  8
0
 10
21.1316
 20
27.1099
 11
21.2129
 21
27.1022
  0
LINE
  8
0
 10
21.2129
 20
27.1022
 11
21.2936
 21
27.0895
  0
LINE
  8
0
 10
21.2936
 20
27.0895
 11
21.3733
 21
27.0717
  0
LINE
  8
0
 10
21.3733
 20
27.0717
 11
21.4517
 21
27.0489
  0
LINE
  8
0
 10
21.4517
 20
27.0489
 11
21.5285
 21
27.0212
  0
LINE
  8
0
 10
21.5285
 20
27.0212
 11
21.6035
 21
26.9888
  0
LINE
  8
0
 10
21.6035
 20
26.9888
 11
21.6763
 21
26.9517
  0
LINE
  8
0
 10
21.6763
 20
26.9517
 11
21.7466
 21
26.9101
  0
LINE
  8
0
 10
21.7466
 20
26.9101
 11
21.8141
 21
26.8642
  0
LINE
  8
0
 10
21.8141
 20
26.8642
 11
21.8786
 21
26.8142
  0
LINE
  8
0
 10
21.8786
 20
26.8142
 11
21.9399
 21
26.7601
  0
LINE
  8
0
 10
21.9399
 20
26.7601
 11
21.9977
 21
26.7024
  0
LINE
  8
0
 10
21.9977
 20
26.7024
 11
22.0517
 21
26.6411
  0
LINE
  8
0
 10
22.0517
 20
26.6411
 11
22.1017
 21
26.5766
  0
LINE
  8
0
 10
22.1017
 20
26.5766
 11
22.1476
 21
26.5091
  0
LINE
  8
0
 10
22.1476
 20
26.5091
 11
22.1892
 21
26.4388
  0
LINE
  8
0
 10
22.1892
 20
26.4388
 11
22.2263
 21
26.366
  0
LINE
  8
0
 10
22.2263
 20
26.366
 11
22.2587
 21
26.2911
  0
LINE
  8
0
 10
22.2587
 20
26.2911
 11
22.2864
 21
26.2142
  0
LINE
  8
0
 10
22.2864
 20
26.2142
 11
22.3091
 21
26.1358
  0
LINE
  8
0
 10
22.3091
 20
26.1358
 11
22.327
 21
26.0561
  0
LINE
  8
0
 10
22.327
 20
26.0561
 11
22.3397
 21
25.9754
  0
LINE
  8
0
 10
22.3397
 20
25.9754
 11
22.3474
 21
25.8941
  0
LINE
  8
0
 10
22.3474
 20
25.8941
 11
22.35
 21
25.8125
  0
LINE
  8
0
 10
22.35
 20
25.8125
 11
22.3474
 21
25.7309
  0
LINE
  8
0
 10
22.3474
 20
25.7309
 11
22.3397
 21
25.6496
  0
LINE
  8
0
 10
22.3397
 20
25.6496
 11
22.327
 21
25.5689
  0
LINE
  8
0
 10
22.327
 20
25.5689
 11
22.3091
 21
25.4892
  0
LINE
  8
0
 10
22.3091
 20
25.4892
 11
22.2864
 21
25.4108
  0
LINE
  8
0
 10
22.2864
 20
25.4108
 11
22.2587
 21
25.3339
  0
LINE
  8
0
 10
22.2587
 20
25.3339
 11
22.2263
 21
25.259
  0
LINE
  8
0
 10
22.2263
 20
25.259
 11
22.1892
 21
25.1862
  0
LINE
  8
0
 10
22.1892
 20
25.1862
 11
22.1476
 21
25.1159
  0
LINE
  8
0
 10
22.1476
 20
25.1159
 11
22.1017
 21
25.0484
  0
LINE
  8
0
 10
22.1017
 20
25.0484
 11
22.0517
 21
24.9838
  0
LINE
  8
0
 10
22.0517
 20
24.9838
 11
21.9977
 21
24.9226
  0
LINE
  8
0
 10
21.9977
 20
24.9226
 11
21.9399
 21
24.8648
  0
LINE
  8
0
 10
21.9399
 20
24.8648
 11
21.8786
 21
24.8108
  0
LINE
  8
0
 10
21.8786
 20
24.8108
 11
21.8141
 21
24.7608
  0
LINE
  8
0
 10
21.8141
 20
24.7608
 11
21.7466
 21
24.7149
  0
LINE
  8
0
 10
21.7466
 20
24.7149
 11
21.6763
 21
24.6733
  0
LINE
  8
0
 10
21.6763
 20
24.6733
 11
21.6035
 21
24.6362
  0
LINE
  8
0
 10
21.6035
 20
24.6362
 11
21.5285
 21
24.6038
  0
LINE
  8
0
 10
21.5285
 20
24.6038
 11
21.4517
 21
24.5761
  0
LINE
  8
0
 10
21.4517
 20
24.5761
 11
21.3733
 21
24.5533
  0
LINE
  8
0
 10
21.3733
 20
24.5533
 11
21.2936
 21
24.5355
  0
LINE
  8
0
 10
21.2936
 20
24.5355
 11
21.2129
 21
24.5228
  0
LINE
  8
0
 10
21.2129
 20
24.5228
 11
21.1316
 21
24.5151
  0
LINE
  8
0
 10
21.1316
 20
24.5151
 11
21.05
 21
24.5125
  0
LINE
  8
0
 10
21.05
 20
24.5125
 11
20.9684
 21
24.5151
  0
LINE
  8
0
 10
23.575
 20
9.28749
 11
23.575
 21
23.2875
  0
LINE
  8
0
 10
23.575
 20
23.2875
 11
37.575
 21
23.2875
  0
LINE
  8
0
 10
37.575
 20
23.2875
 11
37.575
 21
9.28749
  0
LINE
  8
0
 10
37.575
 20
9.28749
 11
23.575
 21
9.28749
  0
LINE
  8
0
 10
4.52499
 20
6.90625
 11
4.52499
 21
20.9062
  0
LINE
  8
0
 10
4.52499
 20
20.9062
 11
18.525
 21
20.9062
  0
LINE
  8
0
 10
18.525
 20
20.9062
 11
18.525
 21
6.90625
  0
LINE
  8
0
 10
18.525
 20
6.90625
 11
4.52499
 21
6.90625
  0
LINE
  8
0
 10
20.9684
 20
2.90521
 11
20.8871
 21
2.9129
  0
LINE
  8
0
 10
20.8871
 20
2.9129
 11
20.8064
 21
2.92567
  0
LINE
  8
0
 10
20.8064
 20
2.92567
 11
20.7267
 21
2.9435
  0
LINE
  8
0
 10
20.7267
 20
2.9435
 11
20.6483
 21
2.96628
  0
LINE
  8
0
 10
20.6483
 20
2.96628
 11
20.5714
 21
2.99394
  0
LINE
  8
0
 10
20.5714
 20
2.99394
 11
20.4965
 21
3.02637
  0
LINE
  8
0
 10
20.4965
 20
3.02637
 11
20.4237
 21
3.06345
  0
LINE
  8
0
 10
20.4237
 20
3.06345
 11
20.3534
 21
3.10503
  0
LINE
  8
0
 10
20.3534
 20
3.10503
 11
20.2859
 21
3.15092
  0
LINE
  8
0
 10
20.2859
 20
3.15092
 11
20.2213
 21
3.20099
  0
LINE
  8
0
 10
20.2213
 20
3.20099
 11
20.1601
 21
3.25499
  0
LINE
  8
0
 10
20.1601
 20
3.25499
 11
20.1023
 21
3.31274
  0
LINE
  8
0
 10
20.1023
 20
3.31274
 11
20.0483
 21
3.37399
  0
LINE
  8
0
 10
20.0483
 20
3.37399
 11
19.9983
 21
3.43852
  0
LINE
  8
0
 10
19.9983
 20
3.43852
 11
19.9524
 21
3.50607
  0
LINE
  8
0
 10
19.9524
 20
3.50607
 11
19.9108
 21
3.57637
  0
LINE
  8
0
 10
19.9108
 20
3.57637
 11
19.8737
 21
3.64914
  0
LINE
  8
0
 10
19.8737
 20
3.64914
 11
19.8413
 21
3.72409
  0
LINE
  8
0
 10
19.8413
 20
3.72409
 11
19.8136
 21
3.80093
  0
LINE
  8
0
 10
19.8136
 20
3.80093
 11
19.7908
 21
3.87935
  0
LINE
  8
0
 10
19.7908
 20
3.87935
 11
19.773
 21
3.95905
  0
LINE
  8
0
 10
19.773
 20
3.95905
 11
19.7602
 21
4.03972
  0
LINE
  8
0
 10
19.7602
 20
4.03972
 11
19.7526
 21
4.12102
  0
LINE
  8
0
 10
19.7526
 20
4.12102
 11
19.75
 21
4.20265
  0
LINE
  8
0
 10
19.75
 20
4.20265
 11
19.7526
 21
4.28427
  0
LINE
  8
0
 10
19.7526
 20
4.28427
 11
19.7602
 21
4.36559
  0
LINE
  8
0
 10
19.7602
 20
4.36559
 11
19.773
 21
4.44624
  0
LINE
  8
0
 10
19.773
 20
4.44624
 11
19.7908
 21
4.52594
  0
LINE
  8
0
 10
19.7908
 20
4.52594
 11
19.8136
 21
4.60437
  0
LINE
  8
0
 10
19.8136
 20
4.60437
 11
19.8413
 21
4.68121
  0
LINE
  8
0
 10
19.8413
 20
4.68121
 11
19.8737
 21
4.75616
  0
LINE
  8
0
 10
19.8737
 20
4.75616
 11
19.9108
 21
4.82893
  0
LINE
  8
0
 10
19.9108
 20
4.82893
 11
19.9524
 21
4.89923
  0
LINE
  8
0
 10
19.9524
 20
4.89923
 11
19.9983
 21
4.96677
  0
LINE
  8
0
 10
19.9983
 20
4.96677
 11
20.0483
 21
5.0313
  0
LINE
  8
0
 10
20.0483
 20
5.0313
 11
20.1023
 21
5.09256
  0
LINE
  8
0
 10
20.1023
 20
5.09256
 11
20.1601
 21
5.15031
  0
LINE
  8
0
 10
20.1601
 20
5.15031
 11
20.2213
 21
5.20432
  0
LINE
  8
0
 10
20.2213
 20
5.20432
 11
20.2859
 21
5.25436
  0
LINE
  8
0
 10
20.2859
 20
5.25436
 11
20.3534
 21
5.30028
  0
LINE
  8
0
 10
20.3534
 20
5.30028
 11
20.4237
 21
5.34184
  0
LINE
  8
0
 10
20.4237
 20
5.34184
 11
20.4965
 21
5.37892
  0
LINE
  8
0
 10
20.4965
 20
5.37892
 11
20.5714
 21
5.41136
  0
LINE
  8
0
 10
20.5714
 20
5.41136
 11
20.6483
 21
5.43903
  0
LINE
  8
0
 10
20.6483
 20
5.43903
 11
20.7267
 21
5.46181
  0
LINE
  8
0
 10
20.7267
 20
5.46181
 11
20.8064
 21
5.47963
  0
LINE
  8
0
 10
20.8064
 20
5.47963
 11
20.8871
 21
5.4924
  0
LINE
  8
0
 10
20.8871
 20
5.4924
 11
20.9684
 21
5.50008
  0
LINE
  8
0
 10
20.9684
 20
5.50008
 11
21.05
 21
5.50266
  0
LINE
  8
0
 10
21.05
 20
5.50266
 11
21.1316
 21
5.50008
  0
LINE
  8
0
 10
21.1316
 20
5.50008
 11
21.2129
 21
5.4924
  0
LINE
  8
0
 10
21.2129
 20
5.4924
 11
21.2936
 21
5.47963
  0
LINE
  8
0
 10
21.2936
 20
5.47963
 11
21.3733
 21
5.46181
  0
LINE
  8
0
 10
21.3733
 20
5.46181
 11
21.4517
 21
5.43903
  0
LINE
  8
0
 10
21.4517
 20
5.43903
 11
21.5285
 21
5.41136
  0
LINE
  8
0
 10
21.5285
 20
5.41136
 11
21.6035
 21
5.37892
  0
LINE
  8
0
 10
21.6035
 20
5.37892
 11
21.6763
 21
5.34184
  0
LINE
  8
0
 10
21.6763
 20
5.34184
 11
21.7466
 21
5.30028
  0
LINE
  8
0
 10
21.7466
 20
5.30028
 11
21.8141
 21
5.25436
  0
LINE
  8
0
 10
21.8141
 20
5.25436
 11
21.8786
 21
5.20432
  0
LINE
  8
0
 10
21.8786
 20
5.20432
 11
21.9399
 21
5.15031
  0
LINE
  8
0
 10
21.9399
 20
5.15031
 11
21.9977
 21
5.09256
  0
LINE
  8
0
 10
21.9977
 20
5.09256
 11
22.0517
 21
5.0313
  0
LINE
  8
0
 10
22.0517
 20
5.0313
 11
22.1017
 21
4.96677
  0
LINE
  8
0
 10
22.1017
 20
4.96677
 11
22.1476
 21
4.89923
  0
LINE
  8
0
 10
22.1476
 20
4.89923
 11
22.1892
 21
4.82893
  0
LINE
  8
0
 10
22.1892
 20
4.82893
 11
22.2263
 21
4.75616
  0
LINE
  8
0
 10
22.2263
 20
4.75616
 11
22.2587
 21
4.68121
  0
LINE
  8
0
 10
22.2587
 20
4.68121
 11
22.2864
 21
4.60437
  0
LINE
  8
0
 10
22.2864
 20
4.60437
 11
22.3091
 21
4.52594
  0
LINE
  8
0
 10
22.3091
 20
4.52594
 11
22.327
 21
4.44624
  0
LINE
  8
0
 10
22.327
 20
4.44624
 11
22.3397
 21
4.36559
  0
LINE
  8
0
 10
22.3397
 20
4.36559
 11
22.3474
 21
4.28427
  0
LINE
  8
0
 10
22.3474
 20
4.28427
 11
22.35
 21
4.20265
  0
LINE
  8
0
 10
22.35
 20
4.20265
 11
22.3474
 21
4.12102
  0
LINE
  8
0
 10
22.3474
 20
4.12102
 11
22.3397
 21
4.03972
  0
LINE
  8
0
 10
22.3397
 20
4.03972
 11
22.327
 21
3.95905
  0
LINE
  8
0
 10
22.327
 20
3.95905
 11
22.3091
 21
3.87935
  0
LINE
  8
0
 10
22.3091
 20
3.87935
 11
22.2864
 21
3.80093
  0
LINE
  8
0
 10
22.2864
 20
3.80093
 11
22.2587
 21
3.72409
  0
LINE
  8
0
 10
22.2587
 20
3.72409
 11
22.2263
 21
3.64914
  0
LINE
  8
0
 10
22.2263
 20
3.64914
 11
22.1892
 21
3.57637
  0
LINE
  8
0
 10
22.1892
 20
3.57637
 11
22.1476
 21
3.50607
  0
LINE
  8
0
 10
22.1476
 20
3.50607
 11
22.1017
 21
3.43852
  0
LINE
  8
0
 10
22.1017
 20
3.43852
 11
22.0517
 21
3.37399
  0
LINE
  8
0
 10
22.0517
 20
3.37399
 11
21.9977
 21
3.31274
  0
LINE
  8
0
 10
21.9977
 20
3.31274
 11
21.9399
 21
3.25499
  0
LINE
  8
0
 10
21.9399
 20
3.25499
 11
21.8786
 21
3.20099
  0
LINE
  8
0
 10
21.8786
 20
3.20099
 11
21.8141
 21
3.15092
  0
LINE
  8
0
 10
21.8141
 20
3.15092
 11
21.7466
 21
3.10503
  0
LINE
  8
0
 10
21.7466
 20
3.10503
 11
21.6763
 21
3.06345
  0
LINE
  8
0
 10
21.6763
 20
3.06345
 11
21.6035
 21
3.02637
  0
LINE
  8
0
 10
21.6035
 20
3.02637
 11
21.5285
 21
2.99394
  0
LINE
  8
0
 10
21.5285
 20
2.99394
 11
21.4517
 21
2.96628
  0
LINE
  8
0
 10
21.4517
 20
2.96628
 11
21.3733
 21
2.9435
  0
LINE
  8
0
 10
21.3733
 20
2.9435
 11
21.2936
 21
2.92567
  0
LINE
  8
0
 10
21.2936
 20
2.92567
 11
21.2129
 21
2.9129
  0
LINE
  8
0
 10
21.2129
 20
2.9129
 11
21.1316
 21
2.90521
  0
LINE
  8
0
 10
21.1316
 20
2.90521
 11
21.05
 21
2.90265
  0
LINE
  8
0
 10
21.05
 20
2.90265
 11
20.9684
 21
2.90521
  0
ENDSEC
  0
SECTION
  2
OBJECTS
  0
DICTIONARY
  0
ENDSEC
  0
EOF
