  0
SECTION
  2
BLOCKS
  0
ENDSEC
  0
SECTION
  2
ENTITIES
  0
LINE
  8
0
 10
20.1128
 20
0.00198364
 11
20.1753
 21
0.00788879
  0
LINE
  8
0
 10
20.1753
 20
0.00788879
 11
20.2374
 21
0.0177155
  0
LINE
  8
0
 10
20.2374
 20
0.0177155
 11
20.2987
 21
0.0314178
  0
LINE
  8
0
 10
20.2987
 20
0.0314178
 11
20.359
 21
0.0489502
  0
LINE
  8
0
 10
20.359
 20
0.0489502
 11
20.4181
 21
0.0702362
  0
LINE
  8
0
 10
20.4181
 20
0.0702362
 11
20.4758
 21
0.0951843
  0
LINE
  8
0
 10
20.4758
 20
0.0951843
 11
20.5317
 21
0.123703
  0
LINE
  8
0
 10
20.5317
 20
0.123703
 11
20.5858
 21
0.155685
  0
LINE
  8
0
 10
20.5858
 20
0.155685
 11
20.6378
 21
0.190994
  0
LINE
  8
0
 10
20.6378
 20
0.190994
 11
20.6874
 21
0.229492
  0
LINE
  8
0
 10
20.6874
 20
0.229492
 11
20.7345
 21
0.271042
  0
LINE
  8
0
 10
20.7345
 20
0.271042
 11
20.7789
 21
0.31546
  0
LINE
  8
0
 10
20.7789
 20
0.31546
 11
20.8205
 21
0.362579
  0
LINE
  8
0
 10
20.8205
 20
0.362579
 11
20.859
 21
0.412216
  0
LINE
  8
0
 10
20.859
 20
0.412216
 11
20.8943
 21
0.464188
  0
LINE
  8
0
 10
20.8943
 20
0.464188
 11
20.9263
 21
0.51825
  0
LINE
  8
0
 10
20.9263
 20
0.51825
 11
20.9548
 21
0.574234
  0
LINE
  8
0
 10
20.9548
 20
0.574234
 11
20.9798
 21
0.631882
  0
LINE
  8
0
 10
20.9798
 20
0.631882
 11
21.001
 21
0.690994
  0
LINE
  8
0
 10
21.001
 20
0.690994
 11
21.0186
 21
0.751312
  0
LINE
  8
0
 10
21.0186
 20
0.751312
 11
21.0323
 21
0.812622
  0
LINE
  8
0
 10
21.0323
 20
0.812622
 11
21.0421
 21
0.87468
  0
LINE
  8
0
 10
21.0421
 20
0.87468
 11
21.048
 21
0.93721
  0
LINE
  8
0
 10
21.048
 20
0.93721
 11
21.05
 21
1
  0
LINE
  8
0
 10
21.05
 20
1
 11
21.05
 21
2.38124
  0
LINE
  8
0
 10
21.05
 20
2.38124
 11
39.1
 21
2.38124
  0
LINE
  8
0
 10
39.1
 20
2.38124
 11
39.1628
 21
2.38322
  0
LINE
  8
0
 10
39.1628
 20
2.38322
 11
39.2253
 21
2.38913
  0
LINE
  8
0
 10
39.2253
 20
2.38913
 11
39.2874
 21
2.39896
  0
LINE
  8
0
 10
39.2874
 20
2.39896
 11
39.3487
 21
2.41266
  0
LINE
  8
0
 10
39.3487
 20
2.41266
 11
39.409
 21
2.43019
  0
LINE
  8
0
 10
39.409
 20
2.43019
 11
39.4681
 21
2.45148
  0
LINE
  8
0
 10
39.4681
 20
2.45148
 11
39.5258
 21
2.47643
  0
LINE
  8
0
 10
39.5258
 20
2.47643
 11
39.5817
 21
2.50494
  0
LINE
  8
0
 10
39.5817
 20
2.50494
 11
39.6358
 21
2.53693
  0
LINE
  8
0
 10
39.6358
 20
2.53693
 11
39.6878
 21
2.57224
  0
LINE
  8
0
 10
39.6878
 20
2.57224
 11
39.7374
 21
2.61073
  0
LINE
  8
0
 10
39.7374
 20
2.61073
 11
39.7845
 21
2.65228
  0
LINE
  8
0
 10
39.7845
 20
2.65228
 11
39.8289
 21
2.6967
  0
LINE
  8
0
 10
39.8289
 20
2.6967
 11
39.8705
 21
2.74382
  0
LINE
  8
0
 10
39.8705
 20
2.74382
 11
39.909
 21
2.79346
  0
LINE
  8
0
 10
39.909
 20
2.79346
 11
39.9443
 21
2.84543
  0
LINE
  8
0
 10
39.9443
 20
2.84543
 11
39.9763
 21
2.89949
  0
LINE
  8
0
 10
39.9763
 20
2.89949
 11
40.0048
 21
2.95547
  0
LINE
  8
0
 10
40.0048
 20
2.95547
 11
40.0298
 21
3.01312
  0
LINE
  8
0
 10
40.0298
 20
3.01312
 11
40.051
 21
3.07224
  0
LINE
  8
0
 10
40.051
 20
3.07224
 11
40.0686
 21
3.13255
  0
LINE
  8
0
 10
40.0686
 20
3.13255
 11
40.0823
 21
3.19386
  0
LINE
  8
0
 10
40.0823
 20
3.19386
 11
40.0921
 21
3.25592
  0
LINE
  8
0
 10
40.0921
 20
3.25592
 11
40.098
 21
3.31845
  0
LINE
  8
0
 10
40.098
 20
3.31845
 11
40.1
 21
3.38124
  0
LINE
  8
0
 10
40.1
 20
3.38124
 11
40.1
 21
27.1937
  0
LINE
  8
0
 10
40.1
 20
27.1937
 11
40.098
 21
27.2565
  0
LINE
  8
0
 10
40.098
 20
27.2565
 11
40.0921
 21
27.3191
  0
LINE
  8
0
 10
40.0921
 20
27.3191
 11
40.0823
 21
27.3811
  0
LINE
  8
0
 10
40.0823
 20
27.3811
 11
40.0686
 21
27.4424
  0
LINE
  8
0
 10
40.0686
 20
27.4424
 11
40.051
 21
27.5027
  0
LINE
  8
0
 10
40.051
 20
27.5027
 11
40.0298
 21
27.5619
  0
LINE
  8
0
 10
40.0298
 20
27.5619
 11
40.0048
 21
27.6195
  0
LINE
  8
0
 10
40.0048
 20
27.6195
 11
39.9763
 21
27.6755
  0
LINE
  8
0
 10
39.9763
 20
27.6755
 11
39.9443
 21
27.7296
  0
LINE
  8
0
 10
39.9443
 20
27.7296
 11
39.909
 21
27.7815
  0
LINE
  8
0
 10
39.909
 20
27.7815
 11
39.8705
 21
27.8312
  0
LINE
  8
0
 10
39.8705
 20
27.8312
 11
39.8289
 21
27.8783
  0
LINE
  8
0
 10
39.8289
 20
27.8783
 11
39.7845
 21
27.9227
  0
LINE
  8
0
 10
39.7845
 20
27.9227
 11
39.7374
 21
27.9642
  0
LINE
  8
0
 10
39.7374
 20
27.9642
 11
39.6878
 21
28.0027
  0
LINE
  8
0
 10
39.6878
 20
28.0027
 11
39.6358
 21
28.0381
  0
LINE
  8
0
 10
39.6358
 20
28.0381
 11
39.5817
 21
28.07
  0
LINE
  8
0
 10
39.5817
 20
28.07
 11
39.5258
 21
28.0986
  0
LINE
  8
0
 10
39.5258
 20
28.0986
 11
39.4681
 21
28.1235
  0
LINE
  8
0
 10
39.4681
 20
28.1235
 11
39.409
 21
28.1448
  0
LINE
  8
0
 10
39.409
 20
28.1448
 11
39.3487
 21
28.1623
  0
LINE
  8
0
 10
39.3487
 20
28.1623
 11
39.2874
 21
28.176
  0
LINE
  8
0
 10
39.2874
 20
28.176
 11
39.2253
 21
28.1859
  0
LINE
  8
0
 10
39.2253
 20
28.1859
 11
39.1628
 21
28.1918
  0
LINE
  8
0
 10
39.1628
 20
28.1918
 11
39.1
 21
28.1937
  0
LINE
  8
0
 10
39.1
 20
28.1937
 11
20.05
 21
28.1937
  0
LINE
  8
0
 10
20.05
 20
28.1937
 11
19.9872
 21
28.1918
  0
LINE
  8
0
 10
19.9872
 20
28.1918
 11
19.9247
 21
28.1859
  0
LINE
  8
0
 10
19.9247
 20
28.1859
 11
19.8626
 21
28.176
  0
LINE
  8
0
 10
19.8626
 20
28.176
 11
19.8013
 21
28.1623
  0
LINE
  8
0
 10
19.8013
 20
28.1623
 11
19.741
 21
28.1448
  0
LINE
  8
0
 10
19.741
 20
28.1448
 11
19.6819
 21
28.1235
  0
LINE
  8
0
 10
19.6819
 20
28.1235
 11
19.6242
 21
28.0986
  0
LINE
  8
0
 10
19.6242
 20
28.0986
 11
19.5682
 21
28.07
  0
LINE
  8
0
 10
19.5682
 20
28.07
 11
19.5142
 21
28.0381
  0
LINE
  8
0
 10
19.5142
 20
28.0381
 11
19.4622
 21
28.0027
  0
LINE
  8
0
 10
19.4622
 20
28.0027
 11
19.4126
 21
27.9642
  0
LINE
  8
0
 10
19.4126
 20
27.9642
 11
19.3654
 21
27.9227
  0
LINE
  8
0
 10
19.3654
 20
27.9227
 11
19.321
 21
27.8783
  0
LINE
  8
0
 10
19.321
 20
27.8783
 11
19.2795
 21
27.8312
  0
LINE
  8
0
 10
19.2795
 20
27.8312
 11
19.241
 21
27.7815
  0
LINE
  8
0
 10
19.241
 20
27.7815
 11
19.2057
 21
27.7296
  0
LINE
  8
0
 10
19.2057
 20
27.7296
 11
19.1737
 21
27.6755
  0
LINE
  8
0
 10
19.1737
 20
27.6755
 11
19.1452
 21
27.6195
  0
LINE
  8
0
 10
19.1452
 20
27.6195
 11
19.1202
 21
27.5619
  0
LINE
  8
0
 10
19.1202
 20
27.5619
 11
19.0989
 21
27.5027
  0
LINE
  8
0
 10
19.0989
 20
27.5027
 11
19.0814
 21
27.4424
  0
LINE
  8
0
 10
19.0814
 20
27.4424
 11
19.0677
 21
27.3811
  0
LINE
  8
0
 10
19.0677
 20
27.3811
 11
19.0579
 21
27.3191
  0
LINE
  8
0
 10
19.0579
 20
27.3191
 11
19.052
 21
27.2565
  0
LINE
  8
0
 10
19.052
 20
27.2565
 11
19.05
 21
27.1937
  0
LINE
  8
0
 10
19.05
 20
27.1937
 11
19.05
 21
25.8125
  0
LINE
  8
0
 10
19.05
 20
25.8125
 11
1
 21
25.8125
  0
LINE
  8
0
 10
1
 20
25.8125
 11
0.93721
 21
25.8105
  0
LINE
  8
0
 10
0.93721
 20
25.8105
 11
0.87468
 21
25.8046
  0
LINE
  8
0
 10
0.87468
 20
25.8046
 11
0.812622
 21
25.7948
  0
LINE
  8
0
 10
0.812622
 20
25.7948
 11
0.751312
 21
25.7811
  0
LINE
  8
0
 10
0.751312
 20
25.7811
 11
0.690994
 21
25.7635
  0
LINE
  8
0
 10
0.690994
 20
25.7635
 11
0.631882
 21
25.7423
  0
LINE
  8
0
 10
0.631882
 20
25.7423
 11
0.574234
 21
25.7173
  0
LINE
  8
0
 10
0.574234
 20
25.7173
 11
0.51825
 21
25.6888
  0
LINE
  8
0
 10
0.51825
 20
25.6888
 11
0.464188
 21
25.6568
  0
LINE
  8
0
 10
0.464188
 20
25.6568
 11
0.412216
 21
25.6215
  0
LINE
  8
0
 10
0.412216
 20
25.6215
 11
0.362579
 21
25.583
  0
LINE
  8
0
 10
0.362579
 20
25.583
 11
0.31546
 21
25.5415
  0
LINE
  8
0
 10
0.31546
 20
25.5415
 11
0.271042
 21
25.497
  0
LINE
  8
0
 10
0.271042
 20
25.497
 11
0.229492
 21
25.4499
  0
LINE
  8
0
 10
0.229492
 20
25.4499
 11
0.190994
 21
25.4003
  0
LINE
  8
0
 10
0.190994
 20
25.4003
 11
0.155685
 21
25.3483
  0
LINE
  8
0
 10
0.155685
 20
25.3483
 11
0.123703
 21
25.2943
  0
LINE
  8
0
 10
0.123703
 20
25.2943
 11
0.0951843
 21
25.2383
  0
LINE
  8
0
 10
0.0951843
 20
25.2383
 11
0.0702362
 21
25.1806
  0
LINE
  8
0
 10
0.0702362
 20
25.1806
 11
0.0489502
 21
25.1215
  0
LINE
  8
0
 10
0.0489502
 20
25.1215
 11
0.0314178
 21
25.0612
  0
LINE
  8
0
 10
0.0314178
 20
25.0612
 11
0.0177155
 21
24.9999
  0
LINE
  8
0
 10
0.0177155
 20
24.9999
 11
0.00788879
 21
24.9378
  0
LINE
  8
0
 10
0.00788879
 20
24.9378
 11
0.00198364
 21
24.8753
  0
LINE
  8
0
 10
0.00198364
 20
24.8753
 11
0
 21
24.8125
  0
LINE
  8
0
 10
0
 20
24.8125
 11
0
 21
1
  0
LINE
  8
0
 10
0
 20
1
 11
0.00198364
 21
0.93721
  0
LINE
  8
0
 10
0.00198364
 20
0.93721
 11
0.00788879
 21
0.87468
  0
LINE
  8
0
 10
0.00788879
 20
0.87468
 11
0.0177155
 21
0.812622
  0
LINE
  8
0
 10
0.0177155
 20
0.812622
 11
0.0314178
 21
0.751312
  0
LINE
  8
0
 10
0.0314178
 20
0.751312
 11
0.0489502
 21
0.690994
  0
LINE
  8
0
 10
0.0489502
 20
0.690994
 11
0.0702362
 21
0.631882
  0
LINE
  8
0
 10
0.0702362
 20
0.631882
 11
0.0951843
 21
0.574234
  0
LINE
  8
0
 10
0.0951843
 20
0.574234
 11
0.123703
 21
0.51825
  0
LINE
  8
0
 10
0.123703
 20
0.51825
 11
0.155685
 21
0.464188
  0
LINE
  8
0
 10
0.155685
 20
0.464188
 11
0.190994
 21
0.412216
  0
LINE
  8
0
 10
0.190994
 20
0.412216
 11
0.229492
 21
0.362579
  0
LINE
  8
0
 10
0.229492
 20
0.362579
 11
0.271042
 21
0.31546
  0
LINE
  8
0
 10
0.271042
 20
0.31546
 11
0.31546
 21
0.271042
  0
LINE
  8
0
 10
0.31546
 20
0.271042
 11
0.362579
 21
0.229492
  0
LINE
  8
0
 10
0.362579
 20
0.229492
 11
0.412216
 21
0.190994
  0
LINE
  8
0
 10
0.412216
 20
0.190994
 11
0.464188
 21
0.155685
  0
LINE
  8
0
 10
0.464188
 20
0.155685
 11
0.51825
 21
0.123703
  0
LINE
  8
0
 10
0.51825
 20
0.123703
 11
0.574234
 21
0.0951843
  0
LINE
  8
0
 10
0.574234
 20
0.0951843
 11
0.631882
 21
0.0702362
  0
LINE
  8
0
 10
0.631882
 20
0.0702362
 11
0.690994
 21
0.0489502
  0
LINE
  8
0
 10
0.690994
 20
0.0489502
 11
0.751312
 21
0.0314178
  0
LINE
  8
0
 10
0.751312
 20
0.0314178
 11
0.812622
 21
0.0177155
  0
LINE
  8
0
 10
0.812622
 20
0.0177155
 11
0.87468
 21
0.00788879
  0
LINE
  8
0
 10
0.87468
 20
0.00788879
 11
0.93721
 21
0.00198364
  0
LINE
  8
0
 10
0.93721
 20
0.00198364
 11
1
 21
0
  0
LINE
  8
0
 10
1
 20
0
 11
20.05
 21
0
  0
LINE
  8
0
 10
20.05
 20
0
 11
20.1128
 21
0.00198364
  0
LINE
  8
0
 10
19.0159
 20
21.7291
 11
18.9346
 21
21.7368
  0
LINE
  8
0
 10
18.9346
 20
21.7368
 11
18.8539
 21
21.7496
  0
LINE
  8
0
 10
18.8539
 20
21.7496
 11
18.7742
 21
21.7674
  0
LINE
  8
0
 10
18.7742
 20
21.7674
 11
18.6958
 21
21.7902
  0
LINE
  8
0
 10
18.6958
 20
21.7902
 11
18.6189
 21
21.8178
  0
LINE
  8
0
 10
18.6189
 20
21.8178
 11
18.544
 21
21.8503
  0
LINE
  8
0
 10
18.544
 20
21.8503
 11
18.4712
 21
21.8874
  0
LINE
  8
0
 10
18.4712
 20
21.8874
 11
18.4009
 21
21.9289
  0
LINE
  8
0
 10
18.4009
 20
21.9289
 11
18.3334
 21
21.9748
  0
LINE
  8
0
 10
18.3334
 20
21.9748
 11
18.2688
 21
22.0249
  0
LINE
  8
0
 10
18.2688
 20
22.0249
 11
18.2076
 21
22.0789
  0
LINE
  8
0
 10
18.2076
 20
22.0789
 11
18.1498
 21
22.1366
  0
LINE
  8
0
 10
18.1498
 20
22.1366
 11
18.0958
 21
22.1979
  0
LINE
  8
0
 10
18.0958
 20
22.1979
 11
18.0458
 21
22.2624
  0
LINE
  8
0
 10
18.0458
 20
22.2624
 11
17.9999
 21
22.33
  0
LINE
  8
0
 10
17.9999
 20
22.33
 11
17.9583
 21
22.4003
  0
LINE
  8
0
 10
17.9583
 20
22.4003
 11
17.9212
 21
22.473
  0
LINE
  8
0
 10
17.9212
 20
22.473
 11
17.8888
 21
22.548
  0
LINE
  8
0
 10
17.8888
 20
22.548
 11
17.8611
 21
22.6248
  0
LINE
  8
0
 10
17.8611
 20
22.6248
 11
17.8383
 21
22.7033
  0
LINE
  8
0
 10
17.8383
 20
22.7033
 11
17.8205
 21
22.783
  0
LINE
  8
0
 10
17.8205
 20
22.783
 11
17.8077
 21
22.8636
  0
LINE
  8
0
 10
17.8077
 20
22.8636
 11
17.8001
 21
22.9449
  0
LINE
  8
0
 10
17.8001
 20
22.9449
 11
17.7975
 21
23.0266
  0
LINE
  8
0
 10
17.7975
 20
23.0266
 11
17.8001
 21
23.1082
  0
LINE
  8
0
 10
17.8001
 20
23.1082
 11
17.8077
 21
23.1895
  0
LINE
  8
0
 10
17.8077
 20
23.1895
 11
17.8205
 21
23.2702
  0
LINE
  8
0
 10
17.8205
 20
23.2702
 11
17.8383
 21
23.3499
  0
LINE
  8
0
 10
17.8383
 20
23.3499
 11
17.8611
 21
23.4283
  0
LINE
  8
0
 10
17.8611
 20
23.4283
 11
17.8888
 21
23.5051
  0
LINE
  8
0
 10
17.8888
 20
23.5051
 11
17.9212
 21
23.5801
  0
LINE
  8
0
 10
17.9212
 20
23.5801
 11
17.9583
 21
23.6528
  0
LINE
  8
0
 10
17.9583
 20
23.6528
 11
17.9999
 21
23.7231
  0
LINE
  8
0
 10
17.9999
 20
23.7231
 11
18.0458
 21
23.7907
  0
LINE
  8
0
 10
18.0458
 20
23.7907
 11
18.0958
 21
23.8552
  0
LINE
  8
0
 10
18.0958
 20
23.8552
 11
18.1498
 21
23.9165
  0
LINE
  8
0
 10
18.1498
 20
23.9165
 11
18.2076
 21
23.9742
  0
LINE
  8
0
 10
18.2076
 20
23.9742
 11
18.2688
 21
24.0282
  0
LINE
  8
0
 10
18.2688
 20
24.0282
 11
18.3334
 21
24.0783
  0
LINE
  8
0
 10
18.3334
 20
24.0783
 11
18.4009
 21
24.1242
  0
LINE
  8
0
 10
18.4009
 20
24.1242
 11
18.4712
 21
24.1658
  0
LINE
  8
0
 10
18.4712
 20
24.1658
 11
18.544
 21
24.2028
  0
LINE
  8
0
 10
18.544
 20
24.2028
 11
18.6189
 21
24.2353
  0
LINE
  8
0
 10
18.6189
 20
24.2353
 11
18.6958
 21
24.2629
  0
LINE
  8
0
 10
18.6958
 20
24.2629
 11
18.7742
 21
24.2857
  0
LINE
  8
0
 10
18.7742
 20
24.2857
 11
18.8539
 21
24.3035
  0
LINE
  8
0
 10
18.8539
 20
24.3035
 11
18.9346
 21
24.3163
  0
LINE
  8
0
 10
18.9346
 20
24.3163
 11
19.0159
 21
24.324
  0
LINE
  8
0
 10
19.0159
 20
24.324
 11
19.0975
 21
24.3266
  0
LINE
  8
0
 10
19.0975
 20
24.3266
 11
19.1791
 21
24.324
  0
LINE
  8
0
 10
19.1791
 20
24.324
 11
19.2604
 21
24.3163
  0
LINE
  8
0
 10
19.2604
 20
24.3163
 11
19.3411
 21
24.3035
  0
LINE
  8
0
 10
19.3411
 20
24.3035
 11
19.4208
 21
24.2857
  0
LINE
  8
0
 10
19.4208
 20
24.2857
 11
19.4992
 21
24.2629
  0
LINE
  8
0
 10
19.4992
 20
24.2629
 11
19.576
 21
24.2353
  0
LINE
  8
0
 10
19.576
 20
24.2353
 11
19.651
 21
24.2028
  0
LINE
  8
0
 10
19.651
 20
24.2028
 11
19.7238
 21
24.1658
  0
LINE
  8
0
 10
19.7238
 20
24.1658
 11
19.7941
 21
24.1242
  0
LINE
  8
0
 10
19.7941
 20
24.1242
 11
19.8616
 21
24.0783
  0
LINE
  8
0
 10
19.8616
 20
24.0783
 11
19.9261
 21
24.0282
  0
LINE
  8
0
 10
19.9261
 20
24.0282
 11
19.9874
 21
23.9742
  0
LINE
  8
0
 10
19.9874
 20
23.9742
 11
20.0452
 21
23.9165
  0
LINE
  8
0
 10
20.0452
 20
23.9165
 11
20.0992
 21
23.8552
  0
LINE
  8
0
 10
20.0992
 20
23.8552
 11
20.1492
 21
23.7907
  0
LINE
  8
0
 10
20.1492
 20
23.7907
 11
20.1951
 21
23.7231
  0
LINE
  8
0
 10
20.1951
 20
23.7231
 11
20.2367
 21
23.6528
  0
LINE
  8
0
 10
20.2367
 20
23.6528
 11
20.2738
 21
23.5801
  0
LINE
  8
0
 10
20.2738
 20
23.5801
 11
20.3062
 21
23.5051
  0
LINE
  8
0
 10
20.3062
 20
23.5051
 11
20.3339
 21
23.4283
  0
LINE
  8
0
 10
20.3339
 20
23.4283
 11
20.3566
 21
23.3499
  0
LINE
  8
0
 10
20.3566
 20
23.3499
 11
20.3745
 21
23.2702
  0
LINE
  8
0
 10
20.3745
 20
23.2702
 11
20.3872
 21
23.1895
  0
LINE
  8
0
 10
20.3872
 20
23.1895
 11
20.3949
 21
23.1082
  0
LINE
  8
0
 10
20.3949
 20
23.1082
 11
20.3975
 21
23.0266
  0
LINE
  8
0
 10
20.3975
 20
23.0266
 11
20.3949
 21
22.9449
  0
LINE
  8
0
 10
20.3949
 20
22.9449
 11
20.3872
 21
22.8636
  0
LINE
  8
0
 10
20.3872
 20
22.8636
 11
20.3745
 21
22.783
  0
LINE
  8
0
 10
20.3745
 20
22.783
 11
20.3566
 21
22.7033
  0
LINE
  8
0
 10
20.3566
 20
22.7033
 11
20.3339
 21
22.6248
  0
LINE
  8
0
 10
20.3339
 20
22.6248
 11
20.3062
 21
22.548
  0
LINE
  8
0
 10
20.3062
 20
22.548
 11
20.2738
 21
22.473
  0
LINE
  8
0
 10
20.2738
 20
22.473
 11
20.2367
 21
22.4003
  0
LINE
  8
0
 10
20.2367
 20
22.4003
 11
20.1951
 21
22.33
  0
LINE
  8
0
 10
20.1951
 20
22.33
 11
20.1492
 21
22.2624
  0
LINE
  8
0
 10
20.1492
 20
22.2624
 11
20.0992
 21
22.1979
  0
LINE
  8
0
 10
20.0992
 20
22.1979
 11
20.0452
 21
22.1366
  0
LINE
  8
0
 10
20.0452
 20
22.1366
 11
19.9874
 21
22.0789
  0
LINE
  8
0
 10
19.9874
 20
22.0789
 11
19.9261
 21
22.0249
  0
LINE
  8
0
 10
19.9261
 20
22.0249
 11
19.8616
 21
21.9748
  0
LINE
  8
0
 10
19.8616
 20
21.9748
 11
19.7941
 21
21.9289
  0
LINE
  8
0
 10
19.7941
 20
21.9289
 11
19.7238
 21
21.8874
  0
LINE
  8
0
 10
19.7238
 20
21.8874
 11
19.651
 21
21.8503
  0
LINE
  8
0
 10
19.651
 20
21.8503
 11
19.576
 21
21.8178
  0
LINE
  8
0
 10
19.576
 20
21.8178
 11
19.4992
 21
21.7902
  0
LINE
  8
0
 10
19.4992
 20
21.7902
 11
19.4208
 21
21.7674
  0
LINE
  8
0
 10
19.4208
 20
21.7674
 11
19.3411
 21
21.7496
  0
LINE
  8
0
 10
19.3411
 20
21.7496
 11
19.2604
 21
21.7368
  0
LINE
  8
0
 10
19.2604
 20
21.7368
 11
19.1791
 21
21.7291
  0
LINE
  8
0
 10
19.1791
 20
21.7291
 11
19.0975
 21
21.7266
  0
LINE
  8
0
 10
19.0975
 20
21.7266
 11
19.0159
 21
21.7291
  0
LINE
  8
0
 10
22.575
 20
8.28749
 11
22.575
 21
22.2875
  0
LINE
  8
0
 10
22.575
 20
22.2875
 11
36.575
 21
22.2875
  0
LINE
  8
0
 10
36.575
 20
22.2875
 11
36.575
 21
8.28749
  0
LINE
  8
0
 10
36.575
 20
8.28749
 11
22.575
 21
8.28749
  0
LINE
  8
0
 10
3.52499
 20
5.90625
 11
3.52499
 21
19.9062
  0
LINE
  8
0
 10
3.52499
 20
19.9062
 11
17.525
 21
19.9062
  0
LINE
  8
0
 10
17.525
 20
19.9062
 11
17.525
 21
5.90625
  0
LINE
  8
0
 10
17.525
 20
5.90625
 11
3.52499
 21
5.90625
  0
LINE
  8
0
 10
20.9209
 20
3.86975
 11
20.8396
 21
3.87743
  0
LINE
  8
0
 10
20.8396
 20
3.87743
 11
20.7589
 21
3.89021
  0
LINE
  8
0
 10
20.7589
 20
3.89021
 11
20.6792
 21
3.90802
  0
LINE
  8
0
 10
20.6792
 20
3.90802
 11
20.6008
 21
3.9308
  0
LINE
  8
0
 10
20.6008
 20
3.9308
 11
20.5239
 21
3.95847
  0
LINE
  8
0
 10
20.5239
 20
3.95847
 11
20.449
 21
3.99091
  0
LINE
  8
0
 10
20.449
 20
3.99091
 11
20.3762
 21
4.02798
  0
LINE
  8
0
 10
20.3762
 20
4.02798
 11
20.3059
 21
4.06955
  0
LINE
  8
0
 10
20.3059
 20
4.06955
 11
20.2384
 21
4.11546
  0
LINE
  8
0
 10
20.2384
 20
4.11546
 11
20.1738
 21
4.16551
  0
LINE
  8
0
 10
20.1738
 20
4.16551
 11
20.1126
 21
4.21953
  0
LINE
  8
0
 10
20.1126
 20
4.21953
 11
20.0548
 21
4.27727
  0
LINE
  8
0
 10
20.0548
 20
4.27727
 11
20.0008
 21
4.33853
  0
LINE
  8
0
 10
20.0008
 20
4.33853
 11
19.9508
 21
4.40306
  0
LINE
  8
0
 10
19.9508
 20
4.40306
 11
19.9049
 21
4.47061
  0
LINE
  8
0
 10
19.9049
 20
4.47061
 11
19.8633
 21
4.54089
  0
LINE
  8
0
 10
19.8633
 20
4.54089
 11
19.8262
 21
4.61366
  0
LINE
  8
0
 10
19.8262
 20
4.61366
 11
19.7938
 21
4.68861
  0
LINE
  8
0
 10
19.7938
 20
4.68861
 11
19.7661
 21
4.76546
  0
LINE
  8
0
 10
19.7661
 20
4.76546
 11
19.7433
 21
4.84389
  0
LINE
  8
0
 10
19.7433
 20
4.84389
 11
19.7255
 21
4.92358
  0
LINE
  8
0
 10
19.7255
 20
4.92358
 11
19.7127
 21
5.00424
  0
LINE
  8
0
 10
19.7127
 20
5.00424
 11
19.7051
 21
5.08556
  0
LINE
  8
0
 10
19.7051
 20
5.08556
 11
19.7025
 21
5.16718
  0
LINE
  8
0
 10
19.7025
 20
5.16718
 11
19.7051
 21
5.24881
  0
LINE
  8
0
 10
19.7051
 20
5.24881
 11
19.7127
 21
5.33011
  0
LINE
  8
0
 10
19.7127
 20
5.33011
 11
19.7255
 21
5.41078
  0
LINE
  8
0
 10
19.7255
 20
5.41078
 11
19.7433
 21
5.49048
  0
LINE
  8
0
 10
19.7433
 20
5.49048
 11
19.7661
 21
5.56891
  0
LINE
  8
0
 10
19.7661
 20
5.56891
 11
19.7938
 21
5.64574
  0
LINE
  8
0
 10
19.7938
 20
5.64574
 11
19.8262
 21
5.72069
  0
LINE
  8
0
 10
19.8262
 20
5.72069
 11
19.8633
 21
5.79346
  0
LINE
  8
0
 10
19.8633
 20
5.79346
 11
19.9049
 21
5.86375
  0
LINE
  8
0
 10
19.9049
 20
5.86375
 11
19.9508
 21
5.9313
  0
LINE
  8
0
 10
19.9508
 20
5.9313
 11
20.0008
 21
5.99583
  0
LINE
  8
0
 10
20.0008
 20
5.99583
 11
20.0548
 21
6.0571
  0
LINE
  8
0
 10
20.0548
 20
6.0571
 11
20.1126
 21
6.11484
  0
LINE
  8
0
 10
20.1126
 20
6.11484
 11
20.1738
 21
6.16885
  0
LINE
  8
0
 10
20.1738
 20
6.16885
 11
20.2384
 21
6.2189
  0
LINE
  8
0
 10
20.2384
 20
6.2189
 11
20.3059
 21
6.2648
  0
LINE
  8
0
 10
20.3059
 20
6.2648
 11
20.3762
 21
6.30638
  0
LINE
  8
0
 10
20.3762
 20
6.30638
 11
20.449
 21
6.34346
  0
LINE
  8
0
 10
20.449
 20
6.34346
 11
20.5239
 21
6.37589
  0
LINE
  8
0
 10
20.5239
 20
6.37589
 11
20.6008
 21
6.40355
  0
LINE
  8
0
 10
20.6008
 20
6.40355
 11
20.6792
 21
6.42633
  0
LINE
  8
0
 10
20.6792
 20
6.42633
 11
20.7589
 21
6.44415
  0
LINE
  8
0
 10
20.7589
 20
6.44415
 11
20.8396
 21
6.45692
  0
LINE
  8
0
 10
20.8396
 20
6.45692
 11
20.9209
 21
6.46461
  0
LINE
  8
0
 10
20.9209
 20
6.46461
 11
21.0025
 21
6.46718
  0
LINE
  8
0
 10
21.0025
 20
6.46718
 11
21.0841
 21
6.46461
  0
LINE
  8
0
 10
21.0841
 20
6.46461
 11
21.1654
 21
6.45692
  0
LINE
  8
0
 10
21.1654
 20
6.45692
 11
21.2461
 21
6.44415
  0
LINE
  8
0
 10
21.2461
 20
6.44415
 11
21.3258
 21
6.42633
  0
LINE
  8
0
 10
21.3258
 20
6.42633
 11
21.4042
 21
6.40355
  0
LINE
  8
0
 10
21.4042
 20
6.40355
 11
21.481
 21
6.37589
  0
LINE
  8
0
 10
21.481
 20
6.37589
 11
21.556
 21
6.34346
  0
LINE
  8
0
 10
21.556
 20
6.34346
 11
21.6288
 21
6.30638
  0
LINE
  8
0
 10
21.6288
 20
6.30638
 11
21.6991
 21
6.2648
  0
LINE
  8
0
 10
21.6991
 20
6.2648
 11
21.7666
 21
6.2189
  0
LINE
  8
0
 10
21.7666
 20
6.2189
 11
21.8311
 21
6.16885
  0
LINE
  8
0
 10
21.8311
 20
6.16885
 11
21.8924
 21
6.11484
  0
LINE
  8
0
 10
21.8924
 20
6.11484
 11
21.9501
 21
6.0571
  0
LINE
  8
0
 10
21.9501
 20
6.0571
 11
22.0042
 21
5.99583
  0
LINE
  8
0
 10
22.0042
 20
5.99583
 11
22.0542
 21
5.9313
  0
LINE
  8
0
 10
22.0542
 20
5.9313
 11
22.1001
 21
5.86375
  0
LINE
  8
0
 10
22.1001
 20
5.86375
 11
22.1417
 21
5.79346
  0
LINE
  8
0
 10
22.1417
 20
5.79346
 11
22.1788
 21
5.72069
  0
LINE
  8
0
 10
22.1788
 20
5.72069
 11
22.2112
 21
5.64574
  0
LINE
  8
0
 10
22.2112
 20
5.64574
 11
22.2389
 21
5.56891
  0
LINE
  8
0
 10
22.2389
 20
5.56891
 11
22.2617
 21
5.49048
  0
LINE
  8
0
 10
22.2617
 20
5.49048
 11
22.2795
 21
5.41078
  0
LINE
  8
0
 10
22.2795
 20
5.41078
 11
22.2922
 21
5.33011
  0
LINE
  8
0
 10
22.2922
 20
5.33011
 11
22.2999
 21
5.24881
  0
LINE
  8
0
 10
22.2999
 20
5.24881
 11
22.3025
 21
5.16718
  0
LINE
  8
0
 10
22.3025
 20
5.16718
 11
22.2999
 21
5.08556
  0
LINE
  8
0
 10
22.2999
 20
5.08556
 11
22.2922
 21
5.00424
  0
LINE
  8
0
 10
22.2922
 20
5.00424
 11
22.2795
 21
4.92358
  0
LINE
  8
0
 10
22.2795
 20
4.92358
 11
22.2617
 21
4.84389
  0
LINE
  8
0
 10
22.2617
 20
4.84389
 11
22.2389
 21
4.76546
  0
LINE
  8
0
 10
22.2389
 20
4.76546
 11
22.2112
 21
4.68861
  0
LINE
  8
0
 10
22.2112
 20
4.68861
 11
22.1788
 21
4.61366
  0
LINE
  8
0
 10
22.1788
 20
4.61366
 11
22.1417
 21
4.54089
  0
LINE
  8
0
 10
22.1417
 20
4.54089
 11
22.1001
 21
4.47061
  0
LINE
  8
0
 10
22.1001
 20
4.47061
 11
22.0542
 21
4.40306
  0
LINE
  8
0
 10
22.0542
 20
4.40306
 11
22.0042
 21
4.33853
  0
LINE
  8
0
 10
22.0042
 20
4.33853
 11
21.9501
 21
4.27727
  0
LINE
  8
0
 10
21.9501
 20
4.27727
 11
21.8924
 21
4.21953
  0
LINE
  8
0
 10
21.8924
 20
4.21953
 11
21.8311
 21
4.16551
  0
LINE
  8
0
 10
21.8311
 20
4.16551
 11
21.7666
 21
4.11546
  0
LINE
  8
0
 10
21.7666
 20
4.11546
 11
21.6991
 21
4.06955
  0
LINE
  8
0
 10
21.6991
 20
4.06955
 11
21.6288
 21
4.02798
  0
LINE
  8
0
 10
21.6288
 20
4.02798
 11
21.556
 21
3.99091
  0
LINE
  8
0
 10
21.556
 20
3.99091
 11
21.481
 21
3.95847
  0
LINE
  8
0
 10
21.481
 20
3.95847
 11
21.4042
 21
3.9308
  0
LINE
  8
0
 10
21.4042
 20
3.9308
 11
21.3258
 21
3.90802
  0
LINE
  8
0
 10
21.3258
 20
3.90802
 11
21.2461
 21
3.89021
  0
LINE
  8
0
 10
21.2461
 20
3.89021
 11
21.1654
 21
3.87743
  0
LINE
  8
0
 10
21.1654
 20
3.87743
 11
21.0841
 21
3.86975
  0
LINE
  8
0
 10
21.0841
 20
3.86975
 11
21.0025
 21
3.86719
  0
LINE
  8
0
 10
21.0025
 20
3.86719
 11
20.9209
 21
3.86975
  0
ENDSEC
  0
SECTION
  2
OBJECTS
  0
DICTIONARY
  0
ENDSEC
  0
EOF
