  0
SECTION
  2
BLOCKS
  0
ENDSEC
  0
SECTION
  2
ENTITIES
  0
LINE
  8
0
 10
-36.5743
 20
-1.75681
 11
-0.93721
 21
0.00198364
  0
LINE
  8
0
 10
-0.93721
 20
0.00198364
 11
-0.87468
 21
0.00788879
  0
LINE
  8
0
 10
-0.87468
 20
0.00788879
 11
-0.812622
 21
0.0177155
  0
LINE
  8
0
 10
-0.812622
 20
0.0177155
 11
-0.751312
 21
0.0314178
  0
LINE
  8
0
 10
-0.751312
 20
0.0314178
 11
-0.690994
 21
0.0489502
  0
LINE
  8
0
 10
-0.690994
 20
0.0489502
 11
-0.631882
 21
0.0702362
  0
LINE
  8
0
 10
-0.631882
 20
0.0702362
 11
-0.574234
 21
0.0951843
  0
LINE
  8
0
 10
-0.574234
 20
0.0951843
 11
-0.51825
 21
0.123703
  0
LINE
  8
0
 10
-0.51825
 20
0.123703
 11
-0.464188
 21
0.155685
  0
LINE
  8
0
 10
-0.464188
 20
0.155685
 11
-0.412216
 21
0.190994
  0
LINE
  8
0
 10
-0.412216
 20
0.190994
 11
-0.362579
 21
0.229492
  0
LINE
  8
0
 10
-0.362579
 20
0.229492
 11
-0.31546
 21
0.271042
  0
LINE
  8
0
 10
-0.31546
 20
0.271042
 11
-0.271042
 21
0.31546
  0
LINE
  8
0
 10
-0.271042
 20
0.31546
 11
-0.229492
 21
0.362579
  0
LINE
  8
0
 10
-0.229492
 20
0.362579
 11
-0.190994
 21
0.412216
  0
LINE
  8
0
 10
-0.190994
 20
0.412216
 11
-0.155685
 21
0.464188
  0
LINE
  8
0
 10
-0.155685
 20
0.464188
 11
-0.123703
 21
0.51825
  0
LINE
  8
0
 10
-0.123703
 20
0.51825
 11
-0.0951843
 21
0.574234
  0
LINE
  8
0
 10
-0.0951843
 20
0.574234
 11
-0.0702362
 21
0.631882
  0
LINE
  8
0
 10
-0.0702362
 20
0.631882
 11
-0.0489502
 21
0.690994
  0
LINE
  8
0
 10
-0.0489502
 20
0.690994
 11
-0.0314178
 21
0.751312
  0
LINE
  8
0
 10
-0.0314178
 20
0.751312
 11
-0.0177155
 21
0.812622
  0
LINE
  8
0
 10
-0.0177155
 20
0.812622
 11
-0.00788879
 21
0.87468
  0
LINE
  8
0
 10
-0.00788879
 20
0.87468
 11
-0.00198364
 21
0.93721
  0
LINE
  8
0
 10
-0.00198364
 20
0.93721
 11
0
 21
1
  0
LINE
  8
0
 10
0
 20
1
 11
0
 21
27.8125
  0
LINE
  8
0
 10
0
 20
27.8125
 11
-0.00198364
 21
27.8753
  0
LINE
  8
0
 10
-0.00198364
 20
27.8753
 11
-0.00788879
 21
27.9378
  0
LINE
  8
0
 10
-0.00788879
 20
27.9378
 11
-0.0177155
 21
27.9999
  0
LINE
  8
0
 10
-0.0177155
 20
27.9999
 11
-0.0314178
 21
28.0612
  0
LINE
  8
0
 10
-0.0314178
 20
28.0612
 11
-0.0489502
 21
28.1215
  0
LINE
  8
0
 10
-0.0489502
 20
28.1215
 11
-0.0702362
 21
28.1806
  0
LINE
  8
0
 10
-0.0702362
 20
28.1806
 11
-0.0951843
 21
28.2383
  0
LINE
  8
0
 10
-0.0951843
 20
28.2383
 11
-0.123703
 21
28.2943
  0
LINE
  8
0
 10
-0.123703
 20
28.2943
 11
-0.155685
 21
28.3483
  0
LINE
  8
0
 10
-0.155685
 20
28.3483
 11
-0.190994
 21
28.4003
  0
LINE
  8
0
 10
-0.190994
 20
28.4003
 11
-0.229492
 21
28.4499
  0
LINE
  8
0
 10
-0.229492
 20
28.4499
 11
-0.271042
 21
28.497
  0
LINE
  8
0
 10
-0.271042
 20
28.497
 11
-0.31546
 21
28.5415
  0
LINE
  8
0
 10
-0.31546
 20
28.5415
 11
-0.362579
 21
28.583
  0
LINE
  8
0
 10
-0.362579
 20
28.583
 11
-0.412216
 21
28.6215
  0
LINE
  8
0
 10
-0.412216
 20
28.6215
 11
-0.464188
 21
28.6568
  0
LINE
  8
0
 10
-0.464188
 20
28.6568
 11
-0.51825
 21
28.6888
  0
LINE
  8
0
 10
-0.51825
 20
28.6888
 11
-0.574234
 21
28.7173
  0
LINE
  8
0
 10
-0.574234
 20
28.7173
 11
-0.631882
 21
28.7423
  0
LINE
  8
0
 10
-0.631882
 20
28.7423
 11
-0.690994
 21
28.7635
  0
LINE
  8
0
 10
-0.690994
 20
28.7635
 11
-0.751312
 21
28.7811
  0
LINE
  8
0
 10
-0.751312
 20
28.7811
 11
-0.812622
 21
28.7948
  0
LINE
  8
0
 10
-0.812622
 20
28.7948
 11
-0.87468
 21
28.8046
  0
LINE
  8
0
 10
-0.87468
 20
28.8046
 11
-0.93721
 21
28.8105
  0
LINE
  8
0
 10
-0.93721
 20
28.8105
 11
-1
 21
28.8125
  0
LINE
  8
0
 10
-1
 20
28.8125
 11
-37.3067
 21
29.5923
  0
LINE
  8
0
 10
-37.3067
 20
29.5923
 11
-37.5593
 21
29.5923
  0
LINE
  8
0
 10
-37.5593
 20
29.5923
 11
-38.2917
 21
29.5693
  0
LINE
  8
0
 10
-38.2917
 20
29.5693
 11
-38.5444
 21
29.5534
  0
LINE
  8
0
 10
-38.5444
 20
29.5534
 11
-39.2736
 21
29.4845
  0
LINE
  8
0
 10
-39.2736
 20
29.4845
 11
-39.5243
 21
29.4528
  0
LINE
  8
0
 10
-39.5243
 20
29.4528
 11
-40.248
 21
29.3382
  0
LINE
  8
0
 10
-40.248
 20
29.3382
 11
-40.4963
 21
29.2908
  0
LINE
  8
0
 10
-40.4963
 20
29.2908
 11
-41.2118
 21
29.1309
  0
LINE
  8
0
 10
-41.2118
 20
29.1309
 11
-41.4563
 21
29.0681
  0
LINE
  8
0
 10
-41.4563
 20
29.0681
 11
-42.1599
 21
28.8637
  0
LINE
  8
0
 10
-42.1599
 20
28.8637
 11
-42.4007
 21
28.7855
  0
LINE
  8
0
 10
-42.4007
 20
28.7855
 11
-43.0896
 21
28.5374
  0
LINE
  8
0
 10
-43.0896
 20
28.5374
 11
-43.3252
 21
28.4442
  0
LINE
  8
0
 10
-43.3252
 20
28.4442
 11
-43.9974
 21
28.1533
  0
LINE
  8
0
 10
-43.9974
 20
28.1533
 11
-44.2263
 21
28.0456
  0
LINE
  8
0
 10
-44.2263
 20
28.0456
 11
-44.8788
 21
27.7131
  0
LINE
  8
0
 10
-44.8788
 20
27.7131
 11
-45.1009
 21
27.591
  0
LINE
  8
0
 10
-45.1009
 20
27.591
 11
-45.7313
 21
27.2182
  0
LINE
  8
0
 10
-45.7313
 20
27.2182
 11
-45.9448
 21
27.0827
  0
LINE
  8
0
 10
-45.9448
 20
27.0827
 11
-46.5505
 21
26.671
  0
LINE
  8
0
 10
-46.5505
 20
26.671
 11
-46.7554
 21
26.5222
  0
LINE
  8
0
 10
-46.7554
 20
26.5222
 11
-47.3342
 21
26.0732
  0
LINE
  8
0
 10
-47.3342
 20
26.0732
 11
-47.5291
 21
25.912
  0
LINE
  8
0
 10
-47.5291
 20
25.912
 11
-48.0785
 21
25.4276
  0
LINE
  8
0
 10
-48.0785
 20
25.4276
 11
-48.2632
 21
25.2542
  0
LINE
  8
0
 10
-48.2632
 20
25.2542
 11
-48.7809
 21
24.7365
  0
LINE
  8
0
 10
-48.7809
 20
24.7365
 11
-48.9544
 21
24.5517
  0
LINE
  8
0
 10
-48.9544
 20
24.5517
 11
-49.4387
 21
24.0024
  0
LINE
  8
0
 10
-49.4387
 20
24.0024
 11
-49.6
 21
23.8075
  0
LINE
  8
0
 10
-49.6
 20
23.8075
 11
-50.0489
 21
23.2287
  0
LINE
  8
0
 10
-50.0489
 20
23.2287
 11
-50.1978
 21
23.0238
  0
LINE
  8
0
 10
-50.1978
 20
23.0238
 11
-50.6094
 21
22.4181
  0
LINE
  8
0
 10
-50.6094
 20
22.4181
 11
-50.7449
 21
22.2045
  0
LINE
  8
0
 10
-50.7449
 20
22.2045
 11
-51.1178
 21
21.5741
  0
LINE
  8
0
 10
-51.1178
 20
21.5741
 11
-51.2399
 21
21.352
  0
LINE
  8
0
 10
-51.2399
 20
21.352
 11
-51.5723
 21
20.6995
  0
LINE
  8
0
 10
-51.5723
 20
20.6995
 11
-51.68
 21
20.4706
  0
LINE
  8
0
 10
-51.68
 20
20.4706
 11
-51.9709
 21
19.7984
  0
LINE
  8
0
 10
-51.9709
 20
19.7984
 11
-52.0642
 21
19.5628
  0
LINE
  8
0
 10
-52.0642
 20
19.5628
 11
-52.3122
 21
18.8739
  0
LINE
  8
0
 10
-52.3122
 20
18.8739
 11
-52.3904
 21
18.6332
  0
LINE
  8
0
 10
-52.3904
 20
18.6332
 11
-52.5949
 21
17.9295
  0
LINE
  8
0
 10
-52.5949
 20
17.9295
 11
-52.6576
 21
17.6851
  0
LINE
  8
0
 10
-52.6576
 20
17.6851
 11
-52.8176
 21
16.9696
  0
LINE
  8
0
 10
-52.8176
 20
16.9696
 11
-52.8649
 21
16.7213
  0
LINE
  8
0
 10
-52.8649
 20
16.7213
 11
-52.9796
 21
15.9976
  0
LINE
  8
0
 10
-52.9796
 20
15.9976
 11
-53.0112
 21
15.7468
  0
LINE
  8
0
 10
-53.0112
 20
15.7468
 11
-53.0802
 21
15.0176
  0
LINE
  8
0
 10
-53.0802
 20
15.0176
 11
-53.0961
 21
14.765
  0
LINE
  8
0
 10
-53.0961
 20
14.765
 11
-53.1191
 21
14.0325
  0
LINE
  8
0
 10
-53.1191
 20
14.0325
 11
-53.1191
 21
13.78
  0
LINE
  8
0
 10
-53.1191
 20
13.78
 11
-53.0961
 21
13.0475
  0
LINE
  8
0
 10
-53.0961
 20
13.0475
 11
-53.0802
 21
12.7949
  0
LINE
  8
0
 10
-53.0802
 20
12.7949
 11
-53.0112
 21
12.0657
  0
LINE
  8
0
 10
-53.0112
 20
12.0657
 11
-52.9796
 21
11.8149
  0
LINE
  8
0
 10
-52.9796
 20
11.8149
 11
-52.8649
 21
11.0912
  0
LINE
  8
0
 10
-52.8649
 20
11.0912
 11
-52.8176
 21
10.8429
  0
LINE
  8
0
 10
-52.8176
 20
10.8429
 11
-52.6576
 21
10.1274
  0
LINE
  8
0
 10
-52.6576
 20
10.1274
 11
-52.5949
 21
9.88297
  0
LINE
  8
0
 10
-52.5949
 20
9.88297
 11
-52.3904
 21
9.17931
  0
LINE
  8
0
 10
-52.3904
 20
9.17931
 11
-52.3122
 21
8.93858
  0
LINE
  8
0
 10
-52.3122
 20
8.93858
 11
-52.0642
 21
8.24968
  0
LINE
  8
0
 10
-52.0642
 20
8.24968
 11
-51.9709
 21
8.01408
  0
LINE
  8
0
 10
-51.9709
 20
8.01408
 11
-51.68
 21
7.34189
  0
LINE
  8
0
 10
-51.68
 20
7.34189
 11
-51.5723
 21
7.11298
  0
LINE
  8
0
 10
-51.5723
 20
7.11298
 11
-51.2399
 21
6.46048
  0
LINE
  8
0
 10
-51.2399
 20
6.46048
 11
-51.1178
 21
6.23836
  0
LINE
  8
0
 10
-51.1178
 20
6.23836
 11
-50.7449
 21
5.60797
  0
LINE
  8
0
 10
-50.7449
 20
5.60797
 11
-50.6094
 21
5.39444
  0
LINE
  8
0
 10
-50.6094
 20
5.39444
 11
-50.1978
 21
4.78871
  0
LINE
  8
0
 10
-50.1978
 20
4.78871
 11
-50.0489
 21
4.5838
  0
LINE
  8
0
 10
-50.0489
 20
4.5838
 11
-49.6
 21
4.00504
  0
LINE
  8
0
 10
-49.6
 20
4.00504
 11
-49.4387
 21
3.8101
  0
LINE
  8
0
 10
-49.4387
 20
3.8101
 11
-48.9544
 21
3.26077
  0
LINE
  8
0
 10
-48.9544
 20
3.26077
 11
-48.7809
 21
3.07603
  0
LINE
  8
0
 10
-48.7809
 20
3.07603
 11
-48.2632
 21
2.55833
  0
LINE
  8
0
 10
-48.2632
 20
2.55833
 11
-48.0785
 21
2.38486
  0
LINE
  8
0
 10
-48.0785
 20
2.38486
 11
-47.5291
 21
1.90054
  0
LINE
  8
0
 10
-47.5291
 20
1.90054
 11
-47.3342
 21
1.73927
  0
LINE
  8
0
 10
-47.3342
 20
1.73927
 11
-46.7554
 21
1.29034
  0
LINE
  8
0
 10
-46.7554
 20
1.29034
 11
-46.5505
 21
1.14148
  0
LINE
  8
0
 10
-46.5505
 20
1.14148
 11
-45.9448
 21
0.729843
  0
LINE
  8
0
 10
-45.9448
 20
0.729843
 11
-45.7313
 21
0.594315
  0
LINE
  8
0
 10
-45.7313
 20
0.594315
 11
-45.1009
 21
0.221481
  0
LINE
  8
0
 10
-45.1009
 20
0.221481
 11
-44.8788
 21
0.0993805
  0
LINE
  8
0
 10
-44.8788
 20
0.0993805
 11
-44.2263
 21
-0.233078
  0
LINE
  8
0
 10
-44.2263
 20
-0.233078
 11
-43.9974
 21
-0.340775
  0
LINE
  8
0
 10
-43.9974
 20
-0.340775
 11
-43.3252
 21
-0.631668
  0
LINE
  8
0
 10
-43.3252
 20
-0.631668
 11
-43.0896
 21
-0.724945
  0
LINE
  8
0
 10
-43.0896
 20
-0.724945
 11
-42.4007
 21
-0.972977
  0
LINE
  8
0
 10
-42.4007
 20
-0.972977
 11
-42.1599
 21
-1.05119
  0
LINE
  8
0
 10
-42.1599
 20
-1.05119
 11
-41.4563
 21
-1.25563
  0
LINE
  8
0
 10
-41.4563
 20
-1.25563
 11
-41.2118
 21
-1.31839
  0
LINE
  8
0
 10
-41.2118
 20
-1.31839
 11
-40.4963
 21
-1.47833
  0
LINE
  8
0
 10
-40.4963
 20
-1.47833
 11
-40.248
 21
-1.5257
  0
LINE
  8
0
 10
-40.248
 20
-1.5257
 11
-39.5243
 21
-1.64032
  0
LINE
  8
0
 10
-39.5243
 20
-1.64032
 11
-39.2736
 21
-1.67198
  0
LINE
  8
0
 10
-39.2736
 20
-1.67198
 11
-38.5444
 21
-1.74091
  0
LINE
  8
0
 10
-38.5444
 20
-1.74091
 11
-38.2917
 21
-1.75681
  0
LINE
  8
0
 10
-38.2917
 20
-1.75681
 11
-37.5593
 21
-1.77985
  0
LINE
  8
0
 10
-37.5593
 20
-1.77985
 11
-37.3067
 21
-1.77985
  0
LINE
  8
0
 10
-37.3067
 20
-1.77985
 11
-36.5743
 21
-1.75681
  0
LINE
  8
0
 10
-37.5146
 20
26.1088
 11
-37.5959
 21
26.1165
  0
LINE
  8
0
 10
-37.5959
 20
26.1165
 11
-37.6766
 21
26.1293
  0
LINE
  8
0
 10
-37.6766
 20
26.1293
 11
-37.7563
 21
26.1471
  0
LINE
  8
0
 10
-37.7563
 20
26.1471
 11
-37.8347
 21
26.1699
  0
LINE
  8
0
 10
-37.8347
 20
26.1699
 11
-37.9116
 21
26.1975
  0
LINE
  8
0
 10
-37.9116
 20
26.1975
 11
-37.9865
 21
26.23
  0
LINE
  8
0
 10
-37.9865
 20
26.23
 11
-38.0593
 21
26.267
  0
LINE
  8
0
 10
-38.0593
 20
26.267
 11
-38.1296
 21
26.3086
  0
LINE
  8
0
 10
-38.1296
 20
26.3086
 11
-38.1971
 21
26.3545
  0
LINE
  8
0
 10
-38.1971
 20
26.3545
 11
-38.2616
 21
26.4046
  0
LINE
  8
0
 10
-38.2616
 20
26.4046
 11
-38.3229
 21
26.4586
  0
LINE
  8
0
 10
-38.3229
 20
26.4586
 11
-38.3806
 21
26.5163
  0
LINE
  8
0
 10
-38.3806
 20
26.5163
 11
-38.4347
 21
26.5776
  0
LINE
  8
0
 10
-38.4347
 20
26.5776
 11
-38.4847
 21
26.6421
  0
LINE
  8
0
 10
-38.4847
 20
26.6421
 11
-38.5306
 21
26.7097
  0
LINE
  8
0
 10
-38.5306
 20
26.7097
 11
-38.5722
 21
26.78
  0
LINE
  8
0
 10
-38.5722
 20
26.78
 11
-38.6093
 21
26.8527
  0
LINE
  8
0
 10
-38.6093
 20
26.8527
 11
-38.6417
 21
26.9277
  0
LINE
  8
0
 10
-38.6417
 20
26.9277
 11
-38.6694
 21
27.0045
  0
LINE
  8
0
 10
-38.6694
 20
27.0045
 11
-38.6922
 21
27.0829
  0
LINE
  8
0
 10
-38.6922
 20
27.0829
 11
-38.71
 21
27.1626
  0
LINE
  8
0
 10
-38.71
 20
27.1626
 11
-38.7227
 21
27.2433
  0
LINE
  8
0
 10
-38.7227
 20
27.2433
 11
-38.7304
 21
27.3246
  0
LINE
  8
0
 10
-38.7304
 20
27.3246
 11
-38.733
 21
27.4062
  0
LINE
  8
0
 10
-38.733
 20
27.4062
 11
-38.7304
 21
27.4879
  0
LINE
  8
0
 10
-38.7304
 20
27.4879
 11
-38.7227
 21
27.5692
  0
LINE
  8
0
 10
-38.7227
 20
27.5692
 11
-38.71
 21
27.6498
  0
LINE
  8
0
 10
-38.71
 20
27.6498
 11
-38.6922
 21
27.7295
  0
LINE
  8
0
 10
-38.6922
 20
27.7295
 11
-38.6694
 21
27.808
  0
LINE
  8
0
 10
-38.6694
 20
27.808
 11
-38.6417
 21
27.8848
  0
LINE
  8
0
 10
-38.6417
 20
27.8848
 11
-38.6093
 21
27.9598
  0
LINE
  8
0
 10
-38.6093
 20
27.9598
 11
-38.5722
 21
28.0325
  0
LINE
  8
0
 10
-38.5722
 20
28.0325
 11
-38.5306
 21
28.1028
  0
LINE
  8
0
 10
-38.5306
 20
28.1028
 11
-38.4847
 21
28.1704
  0
LINE
  8
0
 10
-38.4847
 20
28.1704
 11
-38.4347
 21
28.2349
  0
LINE
  8
0
 10
-38.4347
 20
28.2349
 11
-38.3806
 21
28.2962
  0
LINE
  8
0
 10
-38.3806
 20
28.2962
 11
-38.3229
 21
28.3539
  0
LINE
  8
0
 10
-38.3229
 20
28.3539
 11
-38.2616
 21
28.4079
  0
LINE
  8
0
 10
-38.2616
 20
28.4079
 11
-38.1971
 21
28.458
  0
LINE
  8
0
 10
-38.1971
 20
28.458
 11
-38.1296
 21
28.5039
  0
LINE
  8
0
 10
-38.1296
 20
28.5039
 11
-38.0593
 21
28.5454
  0
LINE
  8
0
 10
-38.0593
 20
28.5454
 11
-37.9865
 21
28.5825
  0
LINE
  8
0
 10
-37.9865
 20
28.5825
 11
-37.9116
 21
28.6149
  0
LINE
  8
0
 10
-37.9116
 20
28.6149
 11
-37.8347
 21
28.6426
  0
LINE
  8
0
 10
-37.8347
 20
28.6426
 11
-37.7563
 21
28.6654
  0
LINE
  8
0
 10
-37.7563
 20
28.6654
 11
-37.6766
 21
28.6832
  0
LINE
  8
0
 10
-37.6766
 20
28.6832
 11
-37.5959
 21
28.696
  0
LINE
  8
0
 10
-37.5959
 20
28.696
 11
-37.5146
 21
28.7037
  0
LINE
  8
0
 10
-37.5146
 20
28.7037
 11
-37.433
 21
28.7062
  0
LINE
  8
0
 10
-37.433
 20
28.7062
 11
-37.3514
 21
28.7037
  0
LINE
  8
0
 10
-37.3514
 20
28.7037
 11
-37.2701
 21
28.696
  0
LINE
  8
0
 10
-37.2701
 20
28.696
 11
-37.1894
 21
28.6832
  0
LINE
  8
0
 10
-37.1894
 20
28.6832
 11
-37.1097
 21
28.6654
  0
LINE
  8
0
 10
-37.1097
 20
28.6654
 11
-37.0313
 21
28.6426
  0
LINE
  8
0
 10
-37.0313
 20
28.6426
 11
-36.9544
 21
28.6149
  0
LINE
  8
0
 10
-36.9544
 20
28.6149
 11
-36.8795
 21
28.5825
  0
LINE
  8
0
 10
-36.8795
 20
28.5825
 11
-36.8067
 21
28.5454
  0
LINE
  8
0
 10
-36.8067
 20
28.5454
 11
-36.7364
 21
28.5039
  0
LINE
  8
0
 10
-36.7364
 20
28.5039
 11
-36.6689
 21
28.458
  0
LINE
  8
0
 10
-36.6689
 20
28.458
 11
-36.6044
 21
28.4079
  0
LINE
  8
0
 10
-36.6044
 20
28.4079
 11
-36.5431
 21
28.3539
  0
LINE
  8
0
 10
-36.5431
 20
28.3539
 11
-36.4854
 21
28.2962
  0
LINE
  8
0
 10
-36.4854
 20
28.2962
 11
-36.4313
 21
28.2349
  0
LINE
  8
0
 10
-36.4313
 20
28.2349
 11
-36.3813
 21
28.1704
  0
LINE
  8
0
 10
-36.3813
 20
28.1704
 11
-36.3354
 21
28.1028
  0
LINE
  8
0
 10
-36.3354
 20
28.1028
 11
-36.2938
 21
28.0325
  0
LINE
  8
0
 10
-36.2938
 20
28.0325
 11
-36.2567
 21
27.9598
  0
LINE
  8
0
 10
-36.2567
 20
27.9598
 11
-36.2243
 21
27.8848
  0
LINE
  8
0
 10
-36.2243
 20
27.8848
 11
-36.1966
 21
27.808
  0
LINE
  8
0
 10
-36.1966
 20
27.808
 11
-36.1738
 21
27.7295
  0
LINE
  8
0
 10
-36.1738
 20
27.7295
 11
-36.156
 21
27.6498
  0
LINE
  8
0
 10
-36.156
 20
27.6498
 11
-36.1433
 21
27.5692
  0
LINE
  8
0
 10
-36.1433
 20
27.5692
 11
-36.1356
 21
27.4879
  0
LINE
  8
0
 10
-36.1356
 20
27.4879
 11
-36.133
 21
27.4062
  0
LINE
  8
0
 10
-36.133
 20
27.4062
 11
-36.1356
 21
27.3246
  0
LINE
  8
0
 10
-36.1356
 20
27.3246
 11
-36.1433
 21
27.2433
  0
LINE
  8
0
 10
-36.1433
 20
27.2433
 11
-36.156
 21
27.1626
  0
LINE
  8
0
 10
-36.156
 20
27.1626
 11
-36.1738
 21
27.0829
  0
LINE
  8
0
 10
-36.1738
 20
27.0829
 11
-36.1966
 21
27.0045
  0
LINE
  8
0
 10
-36.1966
 20
27.0045
 11
-36.2243
 21
26.9277
  0
LINE
  8
0
 10
-36.2243
 20
26.9277
 11
-36.2567
 21
26.8527
  0
LINE
  8
0
 10
-36.2567
 20
26.8527
 11
-36.2938
 21
26.78
  0
LINE
  8
0
 10
-36.2938
 20
26.78
 11
-36.3354
 21
26.7097
  0
LINE
  8
0
 10
-36.3354
 20
26.7097
 11
-36.3813
 21
26.6421
  0
LINE
  8
0
 10
-36.3813
 20
26.6421
 11
-36.4313
 21
26.5776
  0
LINE
  8
0
 10
-36.4313
 20
26.5776
 11
-36.4854
 21
26.5163
  0
LINE
  8
0
 10
-36.4854
 20
26.5163
 11
-36.5431
 21
26.4586
  0
LINE
  8
0
 10
-36.5431
 20
26.4586
 11
-36.6044
 21
26.4046
  0
LINE
  8
0
 10
-36.6044
 20
26.4046
 11
-36.6689
 21
26.3545
  0
LINE
  8
0
 10
-36.6689
 20
26.3545
 11
-36.7364
 21
26.3086
  0
LINE
  8
0
 10
-36.7364
 20
26.3086
 11
-36.8067
 21
26.267
  0
LINE
  8
0
 10
-36.8067
 20
26.267
 11
-36.8795
 21
26.23
  0
LINE
  8
0
 10
-36.8795
 20
26.23
 11
-36.9544
 21
26.1975
  0
LINE
  8
0
 10
-36.9544
 20
26.1975
 11
-37.0313
 21
26.1699
  0
LINE
  8
0
 10
-37.0313
 20
26.1699
 11
-37.1097
 21
26.1471
  0
LINE
  8
0
 10
-37.1097
 20
26.1471
 11
-37.1894
 21
26.1293
  0
LINE
  8
0
 10
-37.1894
 20
26.1293
 11
-37.2701
 21
26.1165
  0
LINE
  8
0
 10
-37.2701
 20
26.1165
 11
-37.3514
 21
26.1088
  0
LINE
  8
0
 10
-37.3514
 20
26.1088
 11
-37.433
 21
26.1062
  0
LINE
  8
0
 10
-37.433
 20
26.1062
 11
-37.5146
 21
26.1088
  0
LINE
  8
0
 10
-38.1339
 20
2.76494
 11
-38.8321
 21
2.83093
  0
LINE
  8
0
 10
-38.8321
 20
2.83093
 11
-39.5248
 21
2.94064
  0
LINE
  8
0
 10
-39.5248
 20
2.94064
 11
-40.2092
 21
3.09363
  0
LINE
  8
0
 10
-40.2092
 20
3.09363
 11
-40.8826
 21
3.28928
  0
LINE
  8
0
 10
-40.8826
 20
3.28928
 11
-41.5425
 21
3.52684
  0
LINE
  8
0
 10
-41.5425
 20
3.52684
 11
-42.1861
 21
3.80536
  0
LINE
  8
0
 10
-42.1861
 20
3.80536
 11
-42.811
 21
4.12373
  0
LINE
  8
0
 10
-42.811
 20
4.12373
 11
-43.4146
 21
4.48073
  0
LINE
  8
0
 10
-43.4146
 20
4.48073
 11
-43.9946
 21
4.87492
  0
LINE
  8
0
 10
-43.9946
 20
4.87492
 11
-44.5488
 21
5.30475
  0
LINE
  8
0
 10
-44.5488
 20
5.30475
 11
-45.0748
 21
5.76852
  0
LINE
  8
0
 10
-45.0748
 20
5.76852
 11
-45.5707
 21
6.26442
  0
LINE
  8
0
 10
-45.5707
 20
6.26442
 11
-46.0345
 21
6.79047
  0
LINE
  8
0
 10
-46.0345
 20
6.79047
 11
-46.4643
 21
7.3446
  0
LINE
  8
0
 10
-46.4643
 20
7.3446
 11
-46.8585
 21
7.92464
  0
LINE
  8
0
 10
-46.8585
 20
7.92464
 11
-47.2155
 21
8.52826
  0
LINE
  8
0
 10
-47.2155
 20
8.52826
 11
-47.5339
 21
9.15312
  0
LINE
  8
0
 10
-47.5339
 20
9.15312
 11
-47.8124
 21
9.79675
  0
LINE
  8
0
 10
-47.8124
 20
9.79675
 11
-48.05
 21
10.4566
  0
LINE
  8
0
 10
-48.05
 20
10.4566
 11
-48.2456
 21
11.13
  0
LINE
  8
0
 10
-48.2456
 20
11.13
 11
-48.3986
 21
11.8144
  0
LINE
  8
0
 10
-48.3986
 20
11.8144
 11
-48.5083
 21
12.5071
  0
LINE
  8
0
 10
-48.5083
 20
12.5071
 11
-48.5743
 21
13.2053
  0
LINE
  8
0
 10
-48.5743
 20
13.2053
 11
-48.5963
 21
13.9062
  0
LINE
  8
0
 10
-48.5963
 20
13.9062
 11
-48.5743
 21
14.6072
  0
LINE
  8
0
 10
-48.5743
 20
14.6072
 11
-48.5083
 21
15.3054
  0
LINE
  8
0
 10
-48.5083
 20
15.3054
 11
-48.3986
 21
15.998
  0
LINE
  8
0
 10
-48.3986
 20
15.998
 11
-48.2456
 21
16.6824
  0
LINE
  8
0
 10
-48.2456
 20
16.6824
 11
-48.05
 21
17.3559
  0
LINE
  8
0
 10
-48.05
 20
17.3559
 11
-47.8124
 21
18.0157
  0
LINE
  8
0
 10
-47.8124
 20
18.0157
 11
-47.5339
 21
18.6594
  0
LINE
  8
0
 10
-47.5339
 20
18.6594
 11
-47.2155
 21
19.2842
  0
LINE
  8
0
 10
-47.2155
 20
19.2842
 11
-46.8585
 21
19.8878
  0
LINE
  8
0
 10
-46.8585
 20
19.8878
 11
-46.4643
 21
20.4679
  0
LINE
  8
0
 10
-46.4643
 20
20.4679
 11
-46.0345
 21
21.022
  0
LINE
  8
0
 10
-46.0345
 20
21.022
 11
-45.5707
 21
21.5481
  0
LINE
  8
0
 10
-45.5707
 20
21.5481
 11
-45.0748
 21
22.044
  0
LINE
  8
0
 10
-45.0748
 20
22.044
 11
-44.5488
 21
22.5077
  0
LINE
  8
0
 10
-44.5488
 20
22.5077
 11
-43.9946
 21
22.9376
  0
LINE
  8
0
 10
-43.9946
 20
22.9376
 11
-43.4146
 21
23.3318
  0
LINE
  8
0
 10
-43.4146
 20
23.3318
 11
-42.811
 21
23.6888
  0
LINE
  8
0
 10
-42.811
 20
23.6888
 11
-42.1861
 21
24.0071
  0
LINE
  8
0
 10
-42.1861
 20
24.0071
 11
-41.5425
 21
24.2856
  0
LINE
  8
0
 10
-41.5425
 20
24.2856
 11
-40.8826
 21
24.5232
  0
LINE
  8
0
 10
-40.8826
 20
24.5232
 11
-40.2092
 21
24.7189
  0
LINE
  8
0
 10
-40.2092
 20
24.7189
 11
-39.5248
 21
24.8718
  0
LINE
  8
0
 10
-39.5248
 20
24.8718
 11
-38.8321
 21
24.9816
  0
LINE
  8
0
 10
-38.8321
 20
24.9816
 11
-38.1339
 21
25.0475
  0
LINE
  8
0
 10
-38.1339
 20
25.0475
 11
-37.433
 21
25.0696
  0
LINE
  8
0
 10
-37.433
 20
25.0696
 11
-36.732
 21
25.0475
  0
LINE
  8
0
 10
-36.732
 20
25.0475
 11
-36.0339
 21
24.9816
  0
LINE
  8
0
 10
-36.0339
 20
24.9816
 11
-35.3412
 21
24.8718
  0
LINE
  8
0
 10
-35.3412
 20
24.8718
 11
-34.6568
 21
24.7189
  0
LINE
  8
0
 10
-34.6568
 20
24.7189
 11
-33.9833
 21
24.5232
  0
LINE
  8
0
 10
-33.9833
 20
24.5232
 11
-33.3235
 21
24.2856
  0
LINE
  8
0
 10
-33.3235
 20
24.2856
 11
-32.6799
 21
24.0071
  0
LINE
  8
0
 10
-32.6799
 20
24.0071
 11
-32.055
 21
23.6888
  0
LINE
  8
0
 10
-32.055
 20
23.6888
 11
-31.4514
 21
23.3318
  0
LINE
  8
0
 10
-31.4514
 20
23.3318
 11
-30.8714
 21
22.9376
  0
LINE
  8
0
 10
-30.8714
 20
22.9376
 11
-30.3172
 21
22.5077
  0
LINE
  8
0
 10
-30.3172
 20
22.5077
 11
-29.7912
 21
22.044
  0
LINE
  8
0
 10
-29.7912
 20
22.044
 11
-29.2953
 21
21.5481
  0
LINE
  8
0
 10
-29.2953
 20
21.5481
 11
-28.8315
 21
21.022
  0
LINE
  8
0
 10
-28.8315
 20
21.022
 11
-28.4017
 21
20.4679
  0
LINE
  8
0
 10
-28.4017
 20
20.4679
 11
-28.0075
 21
19.8878
  0
LINE
  8
0
 10
-28.0075
 20
19.8878
 11
-27.6505
 21
19.2842
  0
LINE
  8
0
 10
-27.6505
 20
19.2842
 11
-27.3321
 21
18.6594
  0
LINE
  8
0
 10
-27.3321
 20
18.6594
 11
-27.0536
 21
18.0157
  0
LINE
  8
0
 10
-27.0536
 20
18.0157
 11
-26.816
 21
17.3559
  0
LINE
  8
0
 10
-26.816
 20
17.3559
 11
-26.6204
 21
16.6824
  0
LINE
  8
0
 10
-26.6204
 20
16.6824
 11
-26.4674
 21
15.998
  0
LINE
  8
0
 10
-26.4674
 20
15.998
 11
-26.3577
 21
15.3054
  0
LINE
  8
0
 10
-26.3577
 20
15.3054
 11
-26.2917
 21
14.6072
  0
LINE
  8
0
 10
-26.2917
 20
14.6072
 11
-26.2697
 21
13.9062
  0
LINE
  8
0
 10
-26.2697
 20
13.9062
 11
-26.2917
 21
13.2053
  0
LINE
  8
0
 10
-26.2917
 20
13.2053
 11
-26.3577
 21
12.5071
  0
LINE
  8
0
 10
-26.3577
 20
12.5071
 11
-26.4674
 21
11.8144
  0
LINE
  8
0
 10
-26.4674
 20
11.8144
 11
-26.6204
 21
11.13
  0
LINE
  8
0
 10
-26.6204
 20
11.13
 11
-26.816
 21
10.4566
  0
LINE
  8
0
 10
-26.816
 20
10.4566
 11
-27.0536
 21
9.79675
  0
LINE
  8
0
 10
-27.0536
 20
9.79675
 11
-27.3321
 21
9.15312
  0
LINE
  8
0
 10
-27.3321
 20
9.15312
 11
-27.6505
 21
8.52826
  0
LINE
  8
0
 10
-27.6505
 20
8.52826
 11
-28.0075
 21
7.92464
  0
LINE
  8
0
 10
-28.0075
 20
7.92464
 11
-28.4017
 21
7.3446
  0
LINE
  8
0
 10
-28.4017
 20
7.3446
 11
-28.8315
 21
6.79047
  0
LINE
  8
0
 10
-28.8315
 20
6.79047
 11
-29.2953
 21
6.26442
  0
LINE
  8
0
 10
-29.2953
 20
6.26442
 11
-29.7912
 21
5.76852
  0
LINE
  8
0
 10
-29.7912
 20
5.76852
 11
-30.3172
 21
5.30475
  0
LINE
  8
0
 10
-30.3172
 20
5.30475
 11
-30.8714
 21
4.87492
  0
LINE
  8
0
 10
-30.8714
 20
4.87492
 11
-31.4514
 21
4.48073
  0
LINE
  8
0
 10
-31.4514
 20
4.48073
 11
-32.055
 21
4.12373
  0
LINE
  8
0
 10
-32.055
 20
4.12373
 11
-32.6799
 21
3.80536
  0
LINE
  8
0
 10
-32.6799
 20
3.80536
 11
-33.3235
 21
3.52684
  0
LINE
  8
0
 10
-33.3235
 20
3.52684
 11
-33.9833
 21
3.28928
  0
LINE
  8
0
 10
-33.9833
 20
3.28928
 11
-34.6568
 21
3.09363
  0
LINE
  8
0
 10
-34.6568
 20
3.09363
 11
-35.3412
 21
2.94064
  0
LINE
  8
0
 10
-35.3412
 20
2.94064
 11
-36.0339
 21
2.83093
  0
LINE
  8
0
 10
-36.0339
 20
2.83093
 11
-36.732
 21
2.76494
  0
LINE
  8
0
 10
-36.732
 20
2.76494
 11
-37.433
 21
2.7429
  0
LINE
  8
0
 10
-37.433
 20
2.7429
 11
-38.1339
 21
2.76494
  0
LINE
  8
0
 10
-21.1316
 20
22.3124
 11
-21.2129
 21
22.3201
  0
LINE
  8
0
 10
-21.2129
 20
22.3201
 11
-21.2936
 21
22.3329
  0
LINE
  8
0
 10
-21.2936
 20
22.3329
 11
-21.3733
 21
22.3507
  0
LINE
  8
0
 10
-21.3733
 20
22.3507
 11
-21.4517
 21
22.3735
  0
LINE
  8
0
 10
-21.4517
 20
22.3735
 11
-21.5285
 21
22.4011
  0
LINE
  8
0
 10
-21.5285
 20
22.4011
 11
-21.6035
 21
22.4336
  0
LINE
  8
0
 10
-21.6035
 20
22.4336
 11
-21.6763
 21
22.4706
  0
LINE
  8
0
 10
-21.6763
 20
22.4706
 11
-21.7466
 21
22.5122
  0
LINE
  8
0
 10
-21.7466
 20
22.5122
 11
-21.8141
 21
22.5581
  0
LINE
  8
0
 10
-21.8141
 20
22.5581
 11
-21.8786
 21
22.6082
  0
LINE
  8
0
 10
-21.8786
 20
22.6082
 11
-21.9399
 21
22.6622
  0
LINE
  8
0
 10
-21.9399
 20
22.6622
 11
-21.9977
 21
22.7199
  0
LINE
  8
0
 10
-21.9977
 20
22.7199
 11
-22.0517
 21
22.7812
  0
LINE
  8
0
 10
-22.0517
 20
22.7812
 11
-22.1017
 21
22.8457
  0
LINE
  8
0
 10
-22.1017
 20
22.8457
 11
-22.1476
 21
22.9133
  0
LINE
  8
0
 10
-22.1476
 20
22.9133
 11
-22.1892
 21
22.9836
  0
LINE
  8
0
 10
-22.1892
 20
22.9836
 11
-22.2263
 21
23.0563
  0
LINE
  8
0
 10
-22.2263
 20
23.0563
 11
-22.2587
 21
23.1313
  0
LINE
  8
0
 10
-22.2587
 20
23.1313
 11
-22.2864
 21
23.2081
  0
LINE
  8
0
 10
-22.2864
 20
23.2081
 11
-22.3091
 21
23.2865
  0
LINE
  8
0
 10
-22.3091
 20
23.2865
 11
-22.327
 21
23.3662
  0
LINE
  8
0
 10
-22.327
 20
23.3662
 11
-22.3397
 21
23.4469
  0
LINE
  8
0
 10
-22.3397
 20
23.4469
 11
-22.3474
 21
23.5282
  0
LINE
  8
0
 10
-22.3474
 20
23.5282
 11
-22.35
 21
23.6098
  0
LINE
  8
0
 10
-22.35
 20
23.6098
 11
-22.3474
 21
23.6915
  0
LINE
  8
0
 10
-22.3474
 20
23.6915
 11
-22.3397
 21
23.7728
  0
LINE
  8
0
 10
-22.3397
 20
23.7728
 11
-22.327
 21
23.8534
  0
LINE
  8
0
 10
-22.327
 20
23.8534
 11
-22.3091
 21
23.9331
  0
LINE
  8
0
 10
-22.3091
 20
23.9331
 11
-22.2864
 21
24.0116
  0
LINE
  8
0
 10
-22.2864
 20
24.0116
 11
-22.2587
 21
24.0884
  0
LINE
  8
0
 10
-22.2587
 20
24.0884
 11
-22.2263
 21
24.1633
  0
LINE
  8
0
 10
-22.2263
 20
24.1633
 11
-22.1892
 21
24.2361
  0
LINE
  8
0
 10
-22.1892
 20
24.2361
 11
-22.1476
 21
24.3064
  0
LINE
  8
0
 10
-22.1476
 20
24.3064
 11
-22.1017
 21
24.374
  0
LINE
  8
0
 10
-22.1017
 20
24.374
 11
-22.0517
 21
24.4385
  0
LINE
  8
0
 10
-22.0517
 20
24.4385
 11
-21.9977
 21
24.4997
  0
LINE
  8
0
 10
-21.9977
 20
24.4997
 11
-21.9399
 21
24.5575
  0
LINE
  8
0
 10
-21.9399
 20
24.5575
 11
-21.8786
 21
24.6115
  0
LINE
  8
0
 10
-21.8786
 20
24.6115
 11
-21.8141
 21
24.6616
  0
LINE
  8
0
 10
-21.8141
 20
24.6616
 11
-21.7466
 21
24.7075
  0
LINE
  8
0
 10
-21.7466
 20
24.7075
 11
-21.6763
 21
24.749
  0
LINE
  8
0
 10
-21.6763
 20
24.749
 11
-21.6035
 21
24.7861
  0
LINE
  8
0
 10
-21.6035
 20
24.7861
 11
-21.5285
 21
24.8185
  0
LINE
  8
0
 10
-21.5285
 20
24.8185
 11
-21.4517
 21
24.8462
  0
LINE
  8
0
 10
-21.4517
 20
24.8462
 11
-21.3733
 21
24.869
  0
LINE
  8
0
 10
-21.3733
 20
24.869
 11
-21.2936
 21
24.8868
  0
LINE
  8
0
 10
-21.2936
 20
24.8868
 11
-21.2129
 21
24.8996
  0
LINE
  8
0
 10
-21.2129
 20
24.8996
 11
-21.1316
 21
24.9073
  0
LINE
  8
0
 10
-21.1316
 20
24.9073
 11
-21.05
 21
24.9098
  0
LINE
  8
0
 10
-21.05
 20
24.9098
 11
-20.9684
 21
24.9073
  0
LINE
  8
0
 10
-20.9684
 20
24.9073
 11
-20.8871
 21
24.8996
  0
LINE
  8
0
 10
-20.8871
 20
24.8996
 11
-20.8064
 21
24.8868
  0
LINE
  8
0
 10
-20.8064
 20
24.8868
 11
-20.7267
 21
24.869
  0
LINE
  8
0
 10
-20.7267
 20
24.869
 11
-20.6483
 21
24.8462
  0
LINE
  8
0
 10
-20.6483
 20
24.8462
 11
-20.5714
 21
24.8185
  0
LINE
  8
0
 10
-20.5714
 20
24.8185
 11
-20.4965
 21
24.7861
  0
LINE
  8
0
 10
-20.4965
 20
24.7861
 11
-20.4237
 21
24.749
  0
LINE
  8
0
 10
-20.4237
 20
24.749
 11
-20.3534
 21
24.7075
  0
LINE
  8
0
 10
-20.3534
 20
24.7075
 11
-20.2859
 21
24.6616
  0
LINE
  8
0
 10
-20.2859
 20
24.6616
 11
-20.2213
 21
24.6115
  0
LINE
  8
0
 10
-20.2213
 20
24.6115
 11
-20.1601
 21
24.5575
  0
LINE
  8
0
 10
-20.1601
 20
24.5575
 11
-20.1023
 21
24.4997
  0
LINE
  8
0
 10
-20.1023
 20
24.4997
 11
-20.0483
 21
24.4385
  0
LINE
  8
0
 10
-20.0483
 20
24.4385
 11
-19.9983
 21
24.374
  0
LINE
  8
0
 10
-19.9983
 20
24.374
 11
-19.9524
 21
24.3064
  0
LINE
  8
0
 10
-19.9524
 20
24.3064
 11
-19.9108
 21
24.2361
  0
LINE
  8
0
 10
-19.9108
 20
24.2361
 11
-19.8737
 21
24.1633
  0
LINE
  8
0
 10
-19.8737
 20
24.1633
 11
-19.8413
 21
24.0884
  0
LINE
  8
0
 10
-19.8413
 20
24.0884
 11
-19.8136
 21
24.0116
  0
LINE
  8
0
 10
-19.8136
 20
24.0116
 11
-19.7908
 21
23.9331
  0
LINE
  8
0
 10
-19.7908
 20
23.9331
 11
-19.773
 21
23.8534
  0
LINE
  8
0
 10
-19.773
 20
23.8534
 11
-19.7602
 21
23.7728
  0
LINE
  8
0
 10
-19.7602
 20
23.7728
 11
-19.7526
 21
23.6915
  0
LINE
  8
0
 10
-19.7526
 20
23.6915
 11
-19.75
 21
23.6098
  0
LINE
  8
0
 10
-19.75
 20
23.6098
 11
-19.7526
 21
23.5282
  0
LINE
  8
0
 10
-19.7526
 20
23.5282
 11
-19.7602
 21
23.4469
  0
LINE
  8
0
 10
-19.7602
 20
23.4469
 11
-19.773
 21
23.3662
  0
LINE
  8
0
 10
-19.773
 20
23.3662
 11
-19.7908
 21
23.2865
  0
LINE
  8
0
 10
-19.7908
 20
23.2865
 11
-19.8136
 21
23.2081
  0
LINE
  8
0
 10
-19.8136
 20
23.2081
 11
-19.8413
 21
23.1313
  0
LINE
  8
0
 10
-19.8413
 20
23.1313
 11
-19.8737
 21
23.0563
  0
LINE
  8
0
 10
-19.8737
 20
23.0563
 11
-19.9108
 21
22.9836
  0
LINE
  8
0
 10
-19.9108
 20
22.9836
 11
-19.9524
 21
22.9133
  0
LINE
  8
0
 10
-19.9524
 20
22.9133
 11
-19.9983
 21
22.8457
  0
LINE
  8
0
 10
-19.9983
 20
22.8457
 11
-20.0483
 21
22.7812
  0
LINE
  8
0
 10
-20.0483
 20
22.7812
 11
-20.1023
 21
22.7199
  0
LINE
  8
0
 10
-20.1023
 20
22.7199
 11
-20.1601
 21
22.6622
  0
LINE
  8
0
 10
-20.1601
 20
22.6622
 11
-20.2213
 21
22.6082
  0
LINE
  8
0
 10
-20.2213
 20
22.6082
 11
-20.2859
 21
22.5581
  0
LINE
  8
0
 10
-20.2859
 20
22.5581
 11
-20.3534
 21
22.5122
  0
LINE
  8
0
 10
-20.3534
 20
22.5122
 11
-20.4237
 21
22.4706
  0
LINE
  8
0
 10
-20.4237
 20
22.4706
 11
-20.4965
 21
22.4336
  0
LINE
  8
0
 10
-20.4965
 20
22.4336
 11
-20.5714
 21
22.4011
  0
LINE
  8
0
 10
-20.5714
 20
22.4011
 11
-20.6483
 21
22.3735
  0
LINE
  8
0
 10
-20.6483
 20
22.3735
 11
-20.7267
 21
22.3507
  0
LINE
  8
0
 10
-20.7267
 20
22.3507
 11
-20.8064
 21
22.3329
  0
LINE
  8
0
 10
-20.8064
 20
22.3329
 11
-20.8871
 21
22.3201
  0
LINE
  8
0
 10
-20.8871
 20
22.3201
 11
-20.9684
 21
22.3124
  0
LINE
  8
0
 10
-20.9684
 20
22.3124
 11
-21.05
 21
22.3098
  0
LINE
  8
0
 10
-21.05
 20
22.3098
 11
-21.1316
 21
22.3124
  0
LINE
  8
0
 10
-18.525
 20
6.90625
 11
-18.525
 21
20.9062
  0
LINE
  8
0
 10
-18.525
 20
20.9062
 11
-4.52499
 21
20.9062
  0
LINE
  8
0
 10
-4.52499
 20
20.9062
 11
-4.52499
 21
6.90625
  0
LINE
  8
0
 10
-4.52499
 20
6.90625
 11
-18.525
 21
6.90625
  0
LINE
  8
0
 10
-21.1316
 20
2.90521
 11
-21.2129
 21
2.9129
  0
LINE
  8
0
 10
-21.2129
 20
2.9129
 11
-21.2936
 21
2.92567
  0
LINE
  8
0
 10
-21.2936
 20
2.92567
 11
-21.3733
 21
2.9435
  0
LINE
  8
0
 10
-21.3733
 20
2.9435
 11
-21.4517
 21
2.96628
  0
LINE
  8
0
 10
-21.4517
 20
2.96628
 11
-21.5285
 21
2.99394
  0
LINE
  8
0
 10
-21.5285
 20
2.99394
 11
-21.6035
 21
3.02637
  0
LINE
  8
0
 10
-21.6035
 20
3.02637
 11
-21.6763
 21
3.06345
  0
LINE
  8
0
 10
-21.6763
 20
3.06345
 11
-21.7466
 21
3.10503
  0
LINE
  8
0
 10
-21.7466
 20
3.10503
 11
-21.8141
 21
3.15092
  0
LINE
  8
0
 10
-21.8141
 20
3.15092
 11
-21.8786
 21
3.20099
  0
LINE
  8
0
 10
-21.8786
 20
3.20099
 11
-21.9399
 21
3.25499
  0
LINE
  8
0
 10
-21.9399
 20
3.25499
 11
-21.9977
 21
3.31274
  0
LINE
  8
0
 10
-21.9977
 20
3.31274
 11
-22.0517
 21
3.37399
  0
LINE
  8
0
 10
-22.0517
 20
3.37399
 11
-22.1017
 21
3.43852
  0
LINE
  8
0
 10
-22.1017
 20
3.43852
 11
-22.1476
 21
3.50607
  0
LINE
  8
0
 10
-22.1476
 20
3.50607
 11
-22.1892
 21
3.57637
  0
LINE
  8
0
 10
-22.1892
 20
3.57637
 11
-22.2263
 21
3.64914
  0
LINE
  8
0
 10
-22.2263
 20
3.64914
 11
-22.2587
 21
3.72409
  0
LINE
  8
0
 10
-22.2587
 20
3.72409
 11
-22.2864
 21
3.80093
  0
LINE
  8
0
 10
-22.2864
 20
3.80093
 11
-22.3091
 21
3.87935
  0
LINE
  8
0
 10
-22.3091
 20
3.87935
 11
-22.327
 21
3.95905
  0
LINE
  8
0
 10
-22.327
 20
3.95905
 11
-22.3397
 21
4.03972
  0
LINE
  8
0
 10
-22.3397
 20
4.03972
 11
-22.3474
 21
4.12102
  0
LINE
  8
0
 10
-22.3474
 20
4.12102
 11
-22.35
 21
4.20265
  0
LINE
  8
0
 10
-22.35
 20
4.20265
 11
-22.3474
 21
4.28427
  0
LINE
  8
0
 10
-22.3474
 20
4.28427
 11
-22.3397
 21
4.36559
  0
LINE
  8
0
 10
-22.3397
 20
4.36559
 11
-22.327
 21
4.44624
  0
LINE
  8
0
 10
-22.327
 20
4.44624
 11
-22.3091
 21
4.52594
  0
LINE
  8
0
 10
-22.3091
 20
4.52594
 11
-22.2864
 21
4.60437
  0
LINE
  8
0
 10
-22.2864
 20
4.60437
 11
-22.2587
 21
4.68121
  0
LINE
  8
0
 10
-22.2587
 20
4.68121
 11
-22.2263
 21
4.75616
  0
LINE
  8
0
 10
-22.2263
 20
4.75616
 11
-22.1892
 21
4.82893
  0
LINE
  8
0
 10
-22.1892
 20
4.82893
 11
-22.1476
 21
4.89923
  0
LINE
  8
0
 10
-22.1476
 20
4.89923
 11
-22.1017
 21
4.96677
  0
LINE
  8
0
 10
-22.1017
 20
4.96677
 11
-22.0517
 21
5.0313
  0
LINE
  8
0
 10
-22.0517
 20
5.0313
 11
-21.9977
 21
5.09256
  0
LINE
  8
0
 10
-21.9977
 20
5.09256
 11
-21.9399
 21
5.15031
  0
LINE
  8
0
 10
-21.9399
 20
5.15031
 11
-21.8786
 21
5.20432
  0
LINE
  8
0
 10
-21.8786
 20
5.20432
 11
-21.8141
 21
5.25436
  0
LINE
  8
0
 10
-21.8141
 20
5.25436
 11
-21.7466
 21
5.30028
  0
LINE
  8
0
 10
-21.7466
 20
5.30028
 11
-21.6763
 21
5.34184
  0
LINE
  8
0
 10
-21.6763
 20
5.34184
 11
-21.6035
 21
5.37892
  0
LINE
  8
0
 10
-21.6035
 20
5.37892
 11
-21.5285
 21
5.41136
  0
LINE
  8
0
 10
-21.5285
 20
5.41136
 11
-21.4517
 21
5.43903
  0
LINE
  8
0
 10
-21.4517
 20
5.43903
 11
-21.3733
 21
5.46181
  0
LINE
  8
0
 10
-21.3733
 20
5.46181
 11
-21.2936
 21
5.47963
  0
LINE
  8
0
 10
-21.2936
 20
5.47963
 11
-21.2129
 21
5.4924
  0
LINE
  8
0
 10
-21.2129
 20
5.4924
 11
-21.1316
 21
5.50008
  0
LINE
  8
0
 10
-21.1316
 20
5.50008
 11
-21.05
 21
5.50266
  0
LINE
  8
0
 10
-21.05
 20
5.50266
 11
-20.9684
 21
5.50008
  0
LINE
  8
0
 10
-20.9684
 20
5.50008
 11
-20.8871
 21
5.4924
  0
LINE
  8
0
 10
-20.8871
 20
5.4924
 11
-20.8064
 21
5.47963
  0
LINE
  8
0
 10
-20.8064
 20
5.47963
 11
-20.7267
 21
5.46181
  0
LINE
  8
0
 10
-20.7267
 20
5.46181
 11
-20.6483
 21
5.43903
  0
LINE
  8
0
 10
-20.6483
 20
5.43903
 11
-20.5714
 21
5.41136
  0
LINE
  8
0
 10
-20.5714
 20
5.41136
 11
-20.4965
 21
5.37892
  0
LINE
  8
0
 10
-20.4965
 20
5.37892
 11
-20.4237
 21
5.34184
  0
LINE
  8
0
 10
-20.4237
 20
5.34184
 11
-20.3534
 21
5.30028
  0
LINE
  8
0
 10
-20.3534
 20
5.30028
 11
-20.2859
 21
5.25436
  0
LINE
  8
0
 10
-20.2859
 20
5.25436
 11
-20.2213
 21
5.20432
  0
LINE
  8
0
 10
-20.2213
 20
5.20432
 11
-20.1601
 21
5.15031
  0
LINE
  8
0
 10
-20.1601
 20
5.15031
 11
-20.1023
 21
5.09256
  0
LINE
  8
0
 10
-20.1023
 20
5.09256
 11
-20.0483
 21
5.0313
  0
LINE
  8
0
 10
-20.0483
 20
5.0313
 11
-19.9983
 21
4.96677
  0
LINE
  8
0
 10
-19.9983
 20
4.96677
 11
-19.9524
 21
4.89923
  0
LINE
  8
0
 10
-19.9524
 20
4.89923
 11
-19.9108
 21
4.82893
  0
LINE
  8
0
 10
-19.9108
 20
4.82893
 11
-19.8737
 21
4.75616
  0
LINE
  8
0
 10
-19.8737
 20
4.75616
 11
-19.8413
 21
4.68121
  0
LINE
  8
0
 10
-19.8413
 20
4.68121
 11
-19.8136
 21
4.60437
  0
LINE
  8
0
 10
-19.8136
 20
4.60437
 11
-19.7908
 21
4.52594
  0
LINE
  8
0
 10
-19.7908
 20
4.52594
 11
-19.773
 21
4.44624
  0
LINE
  8
0
 10
-19.773
 20
4.44624
 11
-19.7602
 21
4.36559
  0
LINE
  8
0
 10
-19.7602
 20
4.36559
 11
-19.7526
 21
4.28427
  0
LINE
  8
0
 10
-19.7526
 20
4.28427
 11
-19.75
 21
4.20265
  0
LINE
  8
0
 10
-19.75
 20
4.20265
 11
-19.7526
 21
4.12102
  0
LINE
  8
0
 10
-19.7526
 20
4.12102
 11
-19.7602
 21
4.03972
  0
LINE
  8
0
 10
-19.7602
 20
4.03972
 11
-19.773
 21
3.95905
  0
LINE
  8
0
 10
-19.773
 20
3.95905
 11
-19.7908
 21
3.87935
  0
LINE
  8
0
 10
-19.7908
 20
3.87935
 11
-19.8136
 21
3.80093
  0
LINE
  8
0
 10
-19.8136
 20
3.80093
 11
-19.8413
 21
3.72409
  0
LINE
  8
0
 10
-19.8413
 20
3.72409
 11
-19.8737
 21
3.64914
  0
LINE
  8
0
 10
-19.8737
 20
3.64914
 11
-19.9108
 21
3.57637
  0
LINE
  8
0
 10
-19.9108
 20
3.57637
 11
-19.9524
 21
3.50607
  0
LINE
  8
0
 10
-19.9524
 20
3.50607
 11
-19.9983
 21
3.43852
  0
LINE
  8
0
 10
-19.9983
 20
3.43852
 11
-20.0483
 21
3.37399
  0
LINE
  8
0
 10
-20.0483
 20
3.37399
 11
-20.1023
 21
3.31274
  0
LINE
  8
0
 10
-20.1023
 20
3.31274
 11
-20.1601
 21
3.25499
  0
LINE
  8
0
 10
-20.1601
 20
3.25499
 11
-20.2213
 21
3.20099
  0
LINE
  8
0
 10
-20.2213
 20
3.20099
 11
-20.2859
 21
3.15092
  0
LINE
  8
0
 10
-20.2859
 20
3.15092
 11
-20.3534
 21
3.10503
  0
LINE
  8
0
 10
-20.3534
 20
3.10503
 11
-20.4237
 21
3.06345
  0
LINE
  8
0
 10
-20.4237
 20
3.06345
 11
-20.4965
 21
3.02637
  0
LINE
  8
0
 10
-20.4965
 20
3.02637
 11
-20.5714
 21
2.99394
  0
LINE
  8
0
 10
-20.5714
 20
2.99394
 11
-20.6483
 21
2.96628
  0
LINE
  8
0
 10
-20.6483
 20
2.96628
 11
-20.7267
 21
2.9435
  0
LINE
  8
0
 10
-20.7267
 20
2.9435
 11
-20.8064
 21
2.92567
  0
LINE
  8
0
 10
-20.8064
 20
2.92567
 11
-20.8871
 21
2.9129
  0
LINE
  8
0
 10
-20.8871
 20
2.9129
 11
-20.9684
 21
2.90521
  0
LINE
  8
0
 10
-20.9684
 20
2.90521
 11
-21.05
 21
2.90265
  0
LINE
  8
0
 10
-21.05
 20
2.90265
 11
-21.1316
 21
2.90521
  0
LINE
  8
0
 10
-37.5146
 20
-0.891174
 11
-37.5959
 21
-0.883484
  0
LINE
  8
0
 10
-37.5959
 20
-0.883484
 11
-37.6766
 21
-0.870712
  0
LINE
  8
0
 10
-37.6766
 20
-0.870712
 11
-37.7563
 21
-0.852905
  0
LINE
  8
0
 10
-37.7563
 20
-0.852905
 11
-37.8347
 21
-0.830109
  0
LINE
  8
0
 10
-37.8347
 20
-0.830109
 11
-37.9116
 21
-0.802444
  0
LINE
  8
0
 10
-37.9116
 20
-0.802444
 11
-37.9865
 21
-0.77002
  0
LINE
  8
0
 10
-37.9865
 20
-0.77002
 11
-38.0593
 21
-0.732941
  0
LINE
  8
0
 10
-38.0593
 20
-0.732941
 11
-38.1296
 21
-0.691376
  0
LINE
  8
0
 10
-38.1296
 20
-0.691376
 11
-38.1971
 21
-0.645462
  0
LINE
  8
0
 10
-38.1971
 20
-0.645462
 11
-38.2616
 21
-0.595413
  0
LINE
  8
0
 10
-38.2616
 20
-0.595413
 11
-38.3229
 21
-0.541397
  0
LINE
  8
0
 10
-38.3229
 20
-0.541397
 11
-38.3806
 21
-0.483658
  0
LINE
  8
0
 10
-38.3806
 20
-0.483658
 11
-38.4347
 21
-0.422394
  0
LINE
  8
0
 10
-38.4347
 20
-0.422394
 11
-38.4847
 21
-0.357864
  0
LINE
  8
0
 10
-38.4847
 20
-0.357864
 11
-38.5306
 21
-0.290314
  0
LINE
  8
0
 10
-38.5306
 20
-0.290314
 11
-38.5722
 21
-0.220016
  0
LINE
  8
0
 10
-38.5722
 20
-0.220016
 11
-38.6093
 21
-0.147263
  0
LINE
  8
0
 10
-38.6093
 20
-0.147263
 11
-38.6417
 21
-0.0723114
  0
LINE
  8
0
 10
-38.6417
 20
-0.0723114
 11
-38.6694
 21
0.00453186
  0
LINE
  8
0
 10
-38.6694
 20
0.00453186
 11
-38.6922
 21
0.082962
  0
LINE
  8
0
 10
-38.6922
 20
0.082962
 11
-38.71
 21
0.162659
  0
LINE
  8
0
 10
-38.71
 20
0.162659
 11
-38.7227
 21
0.243332
  0
LINE
  8
0
 10
-38.7227
 20
0.243332
 11
-38.7304
 21
0.324631
  0
LINE
  8
0
 10
-38.7304
 20
0.324631
 11
-38.733
 21
0.40625
  0
LINE
  8
0
 10
-38.733
 20
0.40625
 11
-38.7304
 21
0.487885
  0
LINE
  8
0
 10
-38.7304
 20
0.487885
 11
-38.7227
 21
0.569183
  0
LINE
  8
0
 10
-38.7227
 20
0.569183
 11
-38.71
 21
0.649857
  0
LINE
  8
0
 10
-38.71
 20
0.649857
 11
-38.6922
 21
0.729553
  0
LINE
  8
0
 10
-38.6922
 20
0.729553
 11
-38.6694
 21
0.807983
  0
LINE
  8
0
 10
-38.6694
 20
0.807983
 11
-38.6417
 21
0.884827
  0
LINE
  8
0
 10
-38.6417
 20
0.884827
 11
-38.6093
 21
0.959778
  0
LINE
  8
0
 10
-38.6093
 20
0.959778
 11
-38.5722
 21
1.03253
  0
LINE
  8
0
 10
-38.5722
 20
1.03253
 11
-38.5306
 21
1.10283
  0
LINE
  8
0
 10
-38.5306
 20
1.10283
 11
-38.4847
 21
1.17038
  0
LINE
  8
0
 10
-38.4847
 20
1.17038
 11
-38.4347
 21
1.23491
  0
LINE
  8
0
 10
-38.4347
 20
1.23491
 11
-38.3806
 21
1.29617
  0
LINE
  8
0
 10
-38.3806
 20
1.29617
 11
-38.3229
 21
1.35391
  0
LINE
  8
0
 10
-38.3229
 20
1.35391
 11
-38.2616
 21
1.40793
  0
LINE
  8
0
 10
-38.2616
 20
1.40793
 11
-38.1971
 21
1.45798
  0
LINE
  8
0
 10
-38.1971
 20
1.45798
 11
-38.1296
 21
1.50389
  0
LINE
  8
0
 10
-38.1296
 20
1.50389
 11
-38.0593
 21
1.54546
  0
LINE
  8
0
 10
-38.0593
 20
1.54546
 11
-37.9865
 21
1.58253
  0
LINE
  8
0
 10
-37.9865
 20
1.58253
 11
-37.9116
 21
1.61496
  0
LINE
  8
0
 10
-37.9116
 20
1.61496
 11
-37.8347
 21
1.64262
  0
LINE
  8
0
 10
-37.8347
 20
1.64262
 11
-37.7563
 21
1.66542
  0
LINE
  8
0
 10
-37.7563
 20
1.66542
 11
-37.6766
 21
1.68323
  0
LINE
  8
0
 10
-37.6766
 20
1.68323
 11
-37.5959
 21
1.696
  0
LINE
  8
0
 10
-37.5959
 20
1.696
 11
-37.5146
 21
1.70369
  0
LINE
  8
0
 10
-37.5146
 20
1.70369
 11
-37.433
 21
1.70625
  0
LINE
  8
0
 10
-37.433
 20
1.70625
 11
-37.3514
 21
1.70369
  0
LINE
  8
0
 10
-37.3514
 20
1.70369
 11
-37.2701
 21
1.696
  0
LINE
  8
0
 10
-37.2701
 20
1.696
 11
-37.1894
 21
1.68323
  0
LINE
  8
0
 10
-37.1894
 20
1.68323
 11
-37.1097
 21
1.66542
  0
LINE
  8
0
 10
-37.1097
 20
1.66542
 11
-37.0313
 21
1.64262
  0
LINE
  8
0
 10
-37.0313
 20
1.64262
 11
-36.9544
 21
1.61496
  0
LINE
  8
0
 10
-36.9544
 20
1.61496
 11
-36.8795
 21
1.58253
  0
LINE
  8
0
 10
-36.8795
 20
1.58253
 11
-36.8067
 21
1.54546
  0
LINE
  8
0
 10
-36.8067
 20
1.54546
 11
-36.7364
 21
1.50389
  0
LINE
  8
0
 10
-36.7364
 20
1.50389
 11
-36.6689
 21
1.45798
  0
LINE
  8
0
 10
-36.6689
 20
1.45798
 11
-36.6044
 21
1.40793
  0
LINE
  8
0
 10
-36.6044
 20
1.40793
 11
-36.5431
 21
1.35391
  0
LINE
  8
0
 10
-36.5431
 20
1.35391
 11
-36.4854
 21
1.29617
  0
LINE
  8
0
 10
-36.4854
 20
1.29617
 11
-36.4313
 21
1.23491
  0
LINE
  8
0
 10
-36.4313
 20
1.23491
 11
-36.3813
 21
1.17038
  0
LINE
  8
0
 10
-36.3813
 20
1.17038
 11
-36.3354
 21
1.10283
  0
LINE
  8
0
 10
-36.3354
 20
1.10283
 11
-36.2938
 21
1.03253
  0
LINE
  8
0
 10
-36.2938
 20
1.03253
 11
-36.2567
 21
0.959778
  0
LINE
  8
0
 10
-36.2567
 20
0.959778
 11
-36.2243
 21
0.884827
  0
LINE
  8
0
 10
-36.2243
 20
0.884827
 11
-36.1966
 21
0.807983
  0
LINE
  8
0
 10
-36.1966
 20
0.807983
 11
-36.1738
 21
0.729553
  0
LINE
  8
0
 10
-36.1738
 20
0.729553
 11
-36.156
 21
0.649857
  0
LINE
  8
0
 10
-36.156
 20
0.649857
 11
-36.1433
 21
0.569183
  0
LINE
  8
0
 10
-36.1433
 20
0.569183
 11
-36.1356
 21
0.487885
  0
LINE
  8
0
 10
-36.1356
 20
0.487885
 11
-36.133
 21
0.40625
  0
LINE
  8
0
 10
-36.133
 20
0.40625
 11
-36.1356
 21
0.324631
  0
LINE
  8
0
 10
-36.1356
 20
0.324631
 11
-36.1433
 21
0.243332
  0
LINE
  8
0
 10
-36.1433
 20
0.243332
 11
-36.156
 21
0.162659
  0
LINE
  8
0
 10
-36.156
 20
0.162659
 11
-36.1738
 21
0.082962
  0
LINE
  8
0
 10
-36.1738
 20
0.082962
 11
-36.1966
 21
0.00453186
  0
LINE
  8
0
 10
-36.1966
 20
0.00453186
 11
-36.2243
 21
-0.0723114
  0
LINE
  8
0
 10
-36.2243
 20
-0.0723114
 11
-36.2567
 21
-0.147263
  0
LINE
  8
0
 10
-36.2567
 20
-0.147263
 11
-36.2938
 21
-0.220016
  0
LINE
  8
0
 10
-36.2938
 20
-0.220016
 11
-36.3354
 21
-0.290314
  0
LINE
  8
0
 10
-36.3354
 20
-0.290314
 11
-36.3813
 21
-0.357864
  0
LINE
  8
0
 10
-36.3813
 20
-0.357864
 11
-36.4313
 21
-0.422394
  0
LINE
  8
0
 10
-36.4313
 20
-0.422394
 11
-36.4854
 21
-0.483658
  0
LINE
  8
0
 10
-36.4854
 20
-0.483658
 11
-36.5431
 21
-0.541397
  0
LINE
  8
0
 10
-36.5431
 20
-0.541397
 11
-36.6044
 21
-0.595413
  0
LINE
  8
0
 10
-36.6044
 20
-0.595413
 11
-36.6689
 21
-0.645462
  0
LINE
  8
0
 10
-36.6689
 20
-0.645462
 11
-36.7364
 21
-0.691376
  0
LINE
  8
0
 10
-36.7364
 20
-0.691376
 11
-36.8067
 21
-0.732941
  0
LINE
  8
0
 10
-36.8067
 20
-0.732941
 11
-36.8795
 21
-0.77002
  0
LINE
  8
0
 10
-36.8795
 20
-0.77002
 11
-36.9544
 21
-0.802444
  0
LINE
  8
0
 10
-36.9544
 20
-0.802444
 11
-37.0313
 21
-0.830109
  0
LINE
  8
0
 10
-37.0313
 20
-0.830109
 11
-37.1097
 21
-0.852905
  0
LINE
  8
0
 10
-37.1097
 20
-0.852905
 11
-37.1894
 21
-0.870712
  0
LINE
  8
0
 10
-37.1894
 20
-0.870712
 11
-37.2701
 21
-0.883484
  0
LINE
  8
0
 10
-37.2701
 20
-0.883484
 11
-37.3514
 21
-0.891174
  0
LINE
  8
0
 10
-37.3514
 20
-0.891174
 11
-37.433
 21
-0.893738
  0
LINE
  8
0
 10
-37.433
 20
-0.893738
 11
-37.5146
 21
-0.891174
  0
ENDSEC
  0
SECTION
  2
OBJECTS
  0
DICTIONARY
  0
ENDSEC
  0
EOF
