  0
SECTION
  2
BLOCKS
  0
ENDSEC
  0
SECTION
  2
ENTITIES
  0
LINE
  8
0
 10
-35.5428
 20
-3.75632
 11
-35.2276
 21
-3.7365
  0
LINE
  8
0
 10
-35.2276
 20
-3.7365
 11
-34.4985
 21
-3.66759
  0
LINE
  8
0
 10
-34.4985
 20
-3.66759
 11
-0.87468
 21
0.00788879
  0
LINE
  8
0
 10
-0.87468
 20
0.00788879
 11
-0.812622
 21
0.0177155
  0
LINE
  8
0
 10
-0.812622
 20
0.0177155
 11
-0.751312
 21
0.0314178
  0
LINE
  8
0
 10
-0.751312
 20
0.0314178
 11
-0.690994
 21
0.0489502
  0
LINE
  8
0
 10
-0.690994
 20
0.0489502
 11
-0.631882
 21
0.0702362
  0
LINE
  8
0
 10
-0.631882
 20
0.0702362
 11
-0.574234
 21
0.0951843
  0
LINE
  8
0
 10
-0.574234
 20
0.0951843
 11
-0.51825
 21
0.123703
  0
LINE
  8
0
 10
-0.51825
 20
0.123703
 11
-0.464188
 21
0.155685
  0
LINE
  8
0
 10
-0.464188
 20
0.155685
 11
-0.412216
 21
0.190994
  0
LINE
  8
0
 10
-0.412216
 20
0.190994
 11
-0.362579
 21
0.229492
  0
LINE
  8
0
 10
-0.362579
 20
0.229492
 11
-0.31546
 21
0.271042
  0
LINE
  8
0
 10
-0.31546
 20
0.271042
 11
-0.271042
 21
0.31546
  0
LINE
  8
0
 10
-0.271042
 20
0.31546
 11
-0.229492
 21
0.362579
  0
LINE
  8
0
 10
-0.229492
 20
0.362579
 11
-0.190994
 21
0.412216
  0
LINE
  8
0
 10
-0.190994
 20
0.412216
 11
-0.155685
 21
0.464188
  0
LINE
  8
0
 10
-0.155685
 20
0.464188
 11
-0.123703
 21
0.51825
  0
LINE
  8
0
 10
-0.123703
 20
0.51825
 11
-0.0951843
 21
0.574234
  0
LINE
  8
0
 10
-0.0951843
 20
0.574234
 11
-0.0702362
 21
0.631882
  0
LINE
  8
0
 10
-0.0702362
 20
0.631882
 11
-0.0489502
 21
0.690994
  0
LINE
  8
0
 10
-0.0489502
 20
0.690994
 11
-0.0314178
 21
0.751312
  0
LINE
  8
0
 10
-0.0314178
 20
0.751312
 11
-0.0177155
 21
0.812622
  0
LINE
  8
0
 10
-0.0177155
 20
0.812622
 11
-0.00788879
 21
0.87468
  0
LINE
  8
0
 10
-0.00788879
 20
0.87468
 11
-0.00198364
 21
0.93721
  0
LINE
  8
0
 10
-0.00198364
 20
0.93721
 11
0
 21
1
  0
LINE
  8
0
 10
0
 20
1
 11
0
 21
24.8125
  0
LINE
  8
0
 10
0
 20
24.8125
 11
-0.00198364
 21
24.8753
  0
LINE
  8
0
 10
-0.00198364
 20
24.8753
 11
-0.00788879
 21
24.9378
  0
LINE
  8
0
 10
-0.00788879
 20
24.9378
 11
-0.0177155
 21
24.9999
  0
LINE
  8
0
 10
-0.0177155
 20
24.9999
 11
-0.0314178
 21
25.0612
  0
LINE
  8
0
 10
-0.0314178
 20
25.0612
 11
-0.0489502
 21
25.1215
  0
LINE
  8
0
 10
-0.0489502
 20
25.1215
 11
-0.0702362
 21
25.1806
  0
LINE
  8
0
 10
-0.0702362
 20
25.1806
 11
-0.0951843
 21
25.2383
  0
LINE
  8
0
 10
-0.0951843
 20
25.2383
 11
-0.123703
 21
25.2943
  0
LINE
  8
0
 10
-0.123703
 20
25.2943
 11
-0.155685
 21
25.3483
  0
LINE
  8
0
 10
-0.155685
 20
25.3483
 11
-0.190994
 21
25.4003
  0
LINE
  8
0
 10
-0.190994
 20
25.4003
 11
-0.229492
 21
25.4499
  0
LINE
  8
0
 10
-0.229492
 20
25.4499
 11
-0.271042
 21
25.497
  0
LINE
  8
0
 10
-0.271042
 20
25.497
 11
-0.31546
 21
25.5415
  0
LINE
  8
0
 10
-0.31546
 20
25.5415
 11
-0.362579
 21
25.583
  0
LINE
  8
0
 10
-0.362579
 20
25.583
 11
-0.412216
 21
25.6215
  0
LINE
  8
0
 10
-0.412216
 20
25.6215
 11
-0.464188
 21
25.6568
  0
LINE
  8
0
 10
-0.464188
 20
25.6568
 11
-0.51825
 21
25.6888
  0
LINE
  8
0
 10
-0.51825
 20
25.6888
 11
-0.574234
 21
25.7173
  0
LINE
  8
0
 10
-0.574234
 20
25.7173
 11
-0.631882
 21
25.7423
  0
LINE
  8
0
 10
-0.631882
 20
25.7423
 11
-0.690994
 21
25.7635
  0
LINE
  8
0
 10
-0.690994
 20
25.7635
 11
-0.751312
 21
25.7811
  0
LINE
  8
0
 10
-0.751312
 20
25.7811
 11
-0.812622
 21
25.7948
  0
LINE
  8
0
 10
-0.812622
 20
25.7948
 11
-0.87468
 21
25.8046
  0
LINE
  8
0
 10
-0.87468
 20
25.8046
 11
-34.4985
 21
29.4801
  0
LINE
  8
0
 10
-34.4985
 20
29.4801
 11
-35.2276
 21
29.549
  0
LINE
  8
0
 10
-35.2276
 20
29.549
 11
-35.5428
 21
29.5688
  0
LINE
  8
0
 10
-35.5428
 20
29.5688
 11
-36.2753
 21
29.5919
  0
LINE
  8
0
 10
-36.2753
 20
29.5919
 11
-36.5907
 21
29.5919
  0
LINE
  8
0
 10
-36.5907
 20
29.5919
 11
-37.3232
 21
29.5688
  0
LINE
  8
0
 10
-37.3232
 20
29.5688
 11
-37.6384
 21
29.549
  0
LINE
  8
0
 10
-37.6384
 20
29.549
 11
-38.3675
 21
29.4801
  0
LINE
  8
0
 10
-38.3675
 20
29.4801
 11
-38.6809
 21
29.4405
  0
LINE
  8
0
 10
-38.6809
 20
29.4405
 11
-39.4047
 21
29.3259
  0
LINE
  8
0
 10
-39.4047
 20
29.3259
 11
-39.7143
 21
29.2668
  0
LINE
  8
0
 10
-39.7143
 20
29.2668
 11
-40.4297
 21
29.1069
  0
LINE
  8
0
 10
-40.4297
 20
29.1069
 11
-40.7355
 21
29.0284
  0
LINE
  8
0
 10
-40.7355
 20
29.0284
 11
-41.4388
 21
28.824
  0
LINE
  8
0
 10
-41.4388
 20
28.824
 11
-41.7396
 21
28.7263
  0
LINE
  8
0
 10
-41.7396
 20
28.7263
 11
-42.4286
 21
28.4782
  0
LINE
  8
0
 10
-42.4286
 20
28.4782
 11
-42.7221
 21
28.362
  0
LINE
  8
0
 10
-42.7221
 20
28.362
 11
-43.3945
 21
28.071
  0
LINE
  8
0
 10
-43.3945
 20
28.071
 11
-43.6802
 21
27.9366
  0
LINE
  8
0
 10
-43.6802
 20
27.9366
 11
-44.3327
 21
27.6041
  0
LINE
  8
0
 10
-44.3327
 20
27.6041
 11
-44.6099
 21
27.4518
  0
LINE
  8
0
 10
-44.6099
 20
27.4518
 11
-45.2403
 21
27.0789
  0
LINE
  8
0
 10
-45.2403
 20
27.0789
 11
-45.5069
 21
26.9097
  0
LINE
  8
0
 10
-45.5069
 20
26.9097
 11
-46.1127
 21
26.498
  0
LINE
  8
0
 10
-46.1127
 20
26.498
 11
-46.3682
 21
26.3124
  0
LINE
  8
0
 10
-46.3682
 20
26.3124
 11
-46.9473
 21
25.8632
  0
LINE
  8
0
 10
-46.9473
 20
25.8632
 11
-47.1903
 21
25.6622
  0
LINE
  8
0
 10
-47.1903
 20
25.6622
 11
-47.7398
 21
25.1777
  0
LINE
  8
0
 10
-47.7398
 20
25.1777
 11
-47.9703
 21
24.9613
  0
LINE
  8
0
 10
-47.9703
 20
24.9613
 11
-48.488
 21
24.4436
  0
LINE
  8
0
 10
-48.488
 20
24.4436
 11
-48.7045
 21
24.213
  0
LINE
  8
0
 10
-48.7045
 20
24.213
 11
-49.189
 21
23.6635
  0
LINE
  8
0
 10
-49.189
 20
23.6635
 11
-49.39
 21
23.4205
  0
LINE
  8
0
 10
-49.39
 20
23.4205
 11
-49.8391
 21
22.8415
  0
LINE
  8
0
 10
-49.8391
 20
22.8415
 11
-50.0248
 21
22.586
  0
LINE
  8
0
 10
-50.0248
 20
22.586
 11
-50.4365
 21
21.9801
  0
LINE
  8
0
 10
-50.4365
 20
21.9801
 11
-50.6057
 21
21.7136
  0
LINE
  8
0
 10
-50.6057
 20
21.7136
 11
-50.9785
 21
21.0832
  0
LINE
  8
0
 10
-50.9785
 20
21.0832
 11
-51.1309
 21
20.806
  0
LINE
  8
0
 10
-51.1309
 20
20.806
 11
-51.4633
 21
20.1535
  0
LINE
  8
0
 10
-51.4633
 20
20.1535
 11
-51.5978
 21
19.8678
  0
LINE
  8
0
 10
-51.5978
 20
19.8678
 11
-51.8888
 21
19.1953
  0
LINE
  8
0
 10
-51.8888
 20
19.1953
 11
-52.005
 21
18.9018
  0
LINE
  8
0
 10
-52.005
 20
18.9018
 11
-52.2531
 21
18.2128
  0
LINE
  8
0
 10
-52.2531
 20
18.2128
 11
-52.3508
 21
17.912
  0
LINE
  8
0
 10
-52.3508
 20
17.912
 11
-52.5551
 21
17.2087
  0
LINE
  8
0
 10
-52.5551
 20
17.2087
 11
-52.6336
 21
16.903
  0
LINE
  8
0
 10
-52.6336
 20
16.903
 11
-52.7935
 21
16.1876
  0
LINE
  8
0
 10
-52.7935
 20
16.1876
 11
-52.8526
 21
15.8779
  0
LINE
  8
0
 10
-52.8526
 20
15.8779
 11
-52.9672
 21
15.1542
  0
LINE
  8
0
 10
-52.9672
 20
15.1542
 11
-53.0068
 21
14.8407
  0
LINE
  8
0
 10
-53.0068
 20
14.8407
 11
-53.0757
 21
14.1117
  0
LINE
  8
0
 10
-53.0757
 20
14.1117
 11
-53.0956
 21
13.7965
  0
LINE
  8
0
 10
-53.0956
 20
13.7965
 11
-53.1186
 21
13.0639
  0
LINE
  8
0
 10
-53.1186
 20
13.0639
 11
-53.1186
 21
12.7486
  0
LINE
  8
0
 10
-53.1186
 20
12.7486
 11
-53.0956
 21
12.016
  0
LINE
  8
0
 10
-53.0956
 20
12.016
 11
-53.0757
 21
11.7008
  0
LINE
  8
0
 10
-53.0757
 20
11.7008
 11
-53.0068
 21
10.9718
  0
LINE
  8
0
 10
-53.0068
 20
10.9718
 11
-52.9672
 21
10.6583
  0
LINE
  8
0
 10
-52.9672
 20
10.6583
 11
-52.8526
 21
9.93459
  0
LINE
  8
0
 10
-52.8526
 20
9.93459
 11
-52.7935
 21
9.62494
  0
LINE
  8
0
 10
-52.7935
 20
9.62494
 11
-52.6336
 21
8.90953
  0
LINE
  8
0
 10
-52.6336
 20
8.90953
 11
-52.5551
 21
8.60378
  0
LINE
  8
0
 10
-52.5551
 20
8.60378
 11
-52.3508
 21
7.90047
  0
LINE
  8
0
 10
-52.3508
 20
7.90047
 11
-52.2531
 21
7.59967
  0
LINE
  8
0
 10
-52.2531
 20
7.59967
 11
-52.005
 21
6.91068
  0
LINE
  8
0
 10
-52.005
 20
6.91068
 11
-51.8888
 21
6.61719
  0
LINE
  8
0
 10
-51.8888
 20
6.61719
 11
-51.5978
 21
5.94472
  0
LINE
  8
0
 10
-51.5978
 20
5.94472
 11
-51.4633
 21
5.65903
  0
LINE
  8
0
 10
-51.4633
 20
5.65903
 11
-51.1309
 21
5.0065
  0
LINE
  8
0
 10
-51.1309
 20
5.0065
 11
-50.9785
 21
4.72931
  0
LINE
  8
0
 10
-50.9785
 20
4.72931
 11
-50.6057
 21
4.09892
  0
LINE
  8
0
 10
-50.6057
 20
4.09892
 11
-50.4365
 21
3.83235
  0
LINE
  8
0
 10
-50.4365
 20
3.83235
 11
-50.0248
 21
3.22655
  0
LINE
  8
0
 10
-50.0248
 20
3.22655
 11
-49.8391
 21
2.97101
  0
LINE
  8
0
 10
-49.8391
 20
2.97101
 11
-49.39
 21
2.39195
  0
LINE
  8
0
 10
-49.39
 20
2.39195
 11
-49.189
 21
2.14897
  0
LINE
  8
0
 10
-49.189
 20
2.14897
 11
-48.7045
 21
1.59946
  0
LINE
  8
0
 10
-48.7045
 20
1.59946
 11
-48.488
 21
1.36893
  0
LINE
  8
0
 10
-48.488
 20
1.36893
 11
-47.9703
 21
0.851227
  0
LINE
  8
0
 10
-47.9703
 20
0.851227
 11
-47.7398
 21
0.63475
  0
LINE
  8
0
 10
-47.7398
 20
0.63475
 11
-47.1903
 21
0.150284
  0
LINE
  8
0
 10
-47.1903
 20
0.150284
 11
-46.9473
 21
-0.0507355
  0
LINE
  8
0
 10
-46.9473
 20
-0.0507355
 11
-46.3682
 21
-0.499878
  0
LINE
  8
0
 10
-46.3682
 20
-0.499878
 11
-46.1127
 21
-0.685532
  0
LINE
  8
0
 10
-46.1127
 20
-0.685532
 11
-45.5069
 21
-1.09723
  0
LINE
  8
0
 10
-45.5069
 20
-1.09723
 11
-45.2403
 21
-1.26642
  0
LINE
  8
0
 10
-45.2403
 20
-1.26642
 11
-44.6099
 21
-1.63925
  0
LINE
  8
0
 10
-44.6099
 20
-1.63925
 11
-44.3327
 21
-1.79163
  0
LINE
  8
0
 10
-44.3327
 20
-1.79163
 11
-43.6802
 21
-2.1241
  0
LINE
  8
0
 10
-43.6802
 20
-2.1241
 11
-43.3945
 21
-2.25853
  0
LINE
  8
0
 10
-43.3945
 20
-2.25853
 11
-42.7221
 21
-2.54953
  0
LINE
  8
0
 10
-42.7221
 20
-2.54953
 11
-42.4286
 21
-2.66574
  0
LINE
  8
0
 10
-42.4286
 20
-2.66574
 11
-41.7396
 21
-2.9138
  0
LINE
  8
0
 10
-41.7396
 20
-2.9138
 11
-41.4388
 21
-3.01154
  0
LINE
  8
0
 10
-41.4388
 20
-3.01154
 11
-40.7355
 21
-3.21587
  0
LINE
  8
0
 10
-40.7355
 20
-3.21587
 11
-40.4297
 21
-3.29437
  0
LINE
  8
0
 10
-40.4297
 20
-3.29437
 11
-39.7143
 21
-3.45428
  0
LINE
  8
0
 10
-39.7143
 20
-3.45428
 11
-39.4047
 21
-3.51335
  0
LINE
  8
0
 10
-39.4047
 20
-3.51335
 11
-38.6809
 21
-3.62798
  0
LINE
  8
0
 10
-38.6809
 20
-3.62798
 11
-38.3675
 21
-3.66759
  0
LINE
  8
0
 10
-38.3675
 20
-3.66759
 11
-37.6384
 21
-3.7365
  0
LINE
  8
0
 10
-37.6384
 20
-3.7365
 11
-37.3232
 21
-3.75632
  0
LINE
  8
0
 10
-37.3232
 20
-3.75632
 11
-36.5907
 21
-3.77936
  0
LINE
  8
0
 10
-36.5907
 20
-3.77936
 11
-36.2753
 21
-3.77936
  0
LINE
  8
0
 10
-36.2753
 20
-3.77936
 11
-35.5428
 21
-3.75632
  0
LINE
  8
0
 10
-36.5146
 20
25.1088
 11
-36.5959
 21
25.1165
  0
LINE
  8
0
 10
-36.5959
 20
25.1165
 11
-36.6766
 21
25.1293
  0
LINE
  8
0
 10
-36.6766
 20
25.1293
 11
-36.7563
 21
25.1471
  0
LINE
  8
0
 10
-36.7563
 20
25.1471
 11
-36.8347
 21
25.1699
  0
LINE
  8
0
 10
-36.8347
 20
25.1699
 11
-36.9116
 21
25.1975
  0
LINE
  8
0
 10
-36.9116
 20
25.1975
 11
-36.9865
 21
25.23
  0
LINE
  8
0
 10
-36.9865
 20
25.23
 11
-37.0593
 21
25.267
  0
LINE
  8
0
 10
-37.0593
 20
25.267
 11
-37.1296
 21
25.3086
  0
LINE
  8
0
 10
-37.1296
 20
25.3086
 11
-37.1971
 21
25.3545
  0
LINE
  8
0
 10
-37.1971
 20
25.3545
 11
-37.2616
 21
25.4046
  0
LINE
  8
0
 10
-37.2616
 20
25.4046
 11
-37.3229
 21
25.4586
  0
LINE
  8
0
 10
-37.3229
 20
25.4586
 11
-37.3806
 21
25.5163
  0
LINE
  8
0
 10
-37.3806
 20
25.5163
 11
-37.4347
 21
25.5776
  0
LINE
  8
0
 10
-37.4347
 20
25.5776
 11
-37.4847
 21
25.6421
  0
LINE
  8
0
 10
-37.4847
 20
25.6421
 11
-37.5306
 21
25.7097
  0
LINE
  8
0
 10
-37.5306
 20
25.7097
 11
-37.5722
 21
25.78
  0
LINE
  8
0
 10
-37.5722
 20
25.78
 11
-37.6093
 21
25.8527
  0
LINE
  8
0
 10
-37.6093
 20
25.8527
 11
-37.6417
 21
25.9277
  0
LINE
  8
0
 10
-37.6417
 20
25.9277
 11
-37.6694
 21
26.0045
  0
LINE
  8
0
 10
-37.6694
 20
26.0045
 11
-37.6922
 21
26.0829
  0
LINE
  8
0
 10
-37.6922
 20
26.0829
 11
-37.71
 21
26.1626
  0
LINE
  8
0
 10
-37.71
 20
26.1626
 11
-37.7227
 21
26.2433
  0
LINE
  8
0
 10
-37.7227
 20
26.2433
 11
-37.7304
 21
26.3246
  0
LINE
  8
0
 10
-37.7304
 20
26.3246
 11
-37.733
 21
26.4062
  0
LINE
  8
0
 10
-37.733
 20
26.4062
 11
-37.7304
 21
26.4879
  0
LINE
  8
0
 10
-37.7304
 20
26.4879
 11
-37.7227
 21
26.5692
  0
LINE
  8
0
 10
-37.7227
 20
26.5692
 11
-37.71
 21
26.6498
  0
LINE
  8
0
 10
-37.71
 20
26.6498
 11
-37.6922
 21
26.7295
  0
LINE
  8
0
 10
-37.6922
 20
26.7295
 11
-37.6694
 21
26.808
  0
LINE
  8
0
 10
-37.6694
 20
26.808
 11
-37.6417
 21
26.8848
  0
LINE
  8
0
 10
-37.6417
 20
26.8848
 11
-37.6093
 21
26.9598
  0
LINE
  8
0
 10
-37.6093
 20
26.9598
 11
-37.5722
 21
27.0325
  0
LINE
  8
0
 10
-37.5722
 20
27.0325
 11
-37.5306
 21
27.1028
  0
LINE
  8
0
 10
-37.5306
 20
27.1028
 11
-37.4847
 21
27.1704
  0
LINE
  8
0
 10
-37.4847
 20
27.1704
 11
-37.4347
 21
27.2349
  0
LINE
  8
0
 10
-37.4347
 20
27.2349
 11
-37.3806
 21
27.2962
  0
LINE
  8
0
 10
-37.3806
 20
27.2962
 11
-37.3229
 21
27.3539
  0
LINE
  8
0
 10
-37.3229
 20
27.3539
 11
-37.2616
 21
27.4079
  0
LINE
  8
0
 10
-37.2616
 20
27.4079
 11
-37.1971
 21
27.458
  0
LINE
  8
0
 10
-37.1971
 20
27.458
 11
-37.1296
 21
27.5039
  0
LINE
  8
0
 10
-37.1296
 20
27.5039
 11
-37.0593
 21
27.5454
  0
LINE
  8
0
 10
-37.0593
 20
27.5454
 11
-36.9865
 21
27.5825
  0
LINE
  8
0
 10
-36.9865
 20
27.5825
 11
-36.9116
 21
27.6149
  0
LINE
  8
0
 10
-36.9116
 20
27.6149
 11
-36.8347
 21
27.6426
  0
LINE
  8
0
 10
-36.8347
 20
27.6426
 11
-36.7563
 21
27.6654
  0
LINE
  8
0
 10
-36.7563
 20
27.6654
 11
-36.6766
 21
27.6832
  0
LINE
  8
0
 10
-36.6766
 20
27.6832
 11
-36.5959
 21
27.696
  0
LINE
  8
0
 10
-36.5959
 20
27.696
 11
-36.5146
 21
27.7037
  0
LINE
  8
0
 10
-36.5146
 20
27.7037
 11
-36.433
 21
27.7062
  0
LINE
  8
0
 10
-36.433
 20
27.7062
 11
-36.3514
 21
27.7037
  0
LINE
  8
0
 10
-36.3514
 20
27.7037
 11
-36.2701
 21
27.696
  0
LINE
  8
0
 10
-36.2701
 20
27.696
 11
-36.1894
 21
27.6832
  0
LINE
  8
0
 10
-36.1894
 20
27.6832
 11
-36.1097
 21
27.6654
  0
LINE
  8
0
 10
-36.1097
 20
27.6654
 11
-36.0313
 21
27.6426
  0
LINE
  8
0
 10
-36.0313
 20
27.6426
 11
-35.9544
 21
27.6149
  0
LINE
  8
0
 10
-35.9544
 20
27.6149
 11
-35.8795
 21
27.5825
  0
LINE
  8
0
 10
-35.8795
 20
27.5825
 11
-35.8067
 21
27.5454
  0
LINE
  8
0
 10
-35.8067
 20
27.5454
 11
-35.7364
 21
27.5039
  0
LINE
  8
0
 10
-35.7364
 20
27.5039
 11
-35.6689
 21
27.458
  0
LINE
  8
0
 10
-35.6689
 20
27.458
 11
-35.6044
 21
27.4079
  0
LINE
  8
0
 10
-35.6044
 20
27.4079
 11
-35.5431
 21
27.3539
  0
LINE
  8
0
 10
-35.5431
 20
27.3539
 11
-35.4854
 21
27.2962
  0
LINE
  8
0
 10
-35.4854
 20
27.2962
 11
-35.4313
 21
27.2349
  0
LINE
  8
0
 10
-35.4313
 20
27.2349
 11
-35.3813
 21
27.1704
  0
LINE
  8
0
 10
-35.3813
 20
27.1704
 11
-35.3354
 21
27.1028
  0
LINE
  8
0
 10
-35.3354
 20
27.1028
 11
-35.2938
 21
27.0325
  0
LINE
  8
0
 10
-35.2938
 20
27.0325
 11
-35.2567
 21
26.9598
  0
LINE
  8
0
 10
-35.2567
 20
26.9598
 11
-35.2243
 21
26.8848
  0
LINE
  8
0
 10
-35.2243
 20
26.8848
 11
-35.1966
 21
26.808
  0
LINE
  8
0
 10
-35.1966
 20
26.808
 11
-35.1738
 21
26.7295
  0
LINE
  8
0
 10
-35.1738
 20
26.7295
 11
-35.156
 21
26.6498
  0
LINE
  8
0
 10
-35.156
 20
26.6498
 11
-35.1433
 21
26.5692
  0
LINE
  8
0
 10
-35.1433
 20
26.5692
 11
-35.1356
 21
26.4879
  0
LINE
  8
0
 10
-35.1356
 20
26.4879
 11
-35.133
 21
26.4062
  0
LINE
  8
0
 10
-35.133
 20
26.4062
 11
-35.1356
 21
26.3246
  0
LINE
  8
0
 10
-35.1356
 20
26.3246
 11
-35.1433
 21
26.2433
  0
LINE
  8
0
 10
-35.1433
 20
26.2433
 11
-35.156
 21
26.1626
  0
LINE
  8
0
 10
-35.156
 20
26.1626
 11
-35.1738
 21
26.0829
  0
LINE
  8
0
 10
-35.1738
 20
26.0829
 11
-35.1966
 21
26.0045
  0
LINE
  8
0
 10
-35.1966
 20
26.0045
 11
-35.2243
 21
25.9277
  0
LINE
  8
0
 10
-35.2243
 20
25.9277
 11
-35.2567
 21
25.8527
  0
LINE
  8
0
 10
-35.2567
 20
25.8527
 11
-35.2938
 21
25.78
  0
LINE
  8
0
 10
-35.2938
 20
25.78
 11
-35.3354
 21
25.7097
  0
LINE
  8
0
 10
-35.3354
 20
25.7097
 11
-35.3813
 21
25.6421
  0
LINE
  8
0
 10
-35.3813
 20
25.6421
 11
-35.4313
 21
25.5776
  0
LINE
  8
0
 10
-35.4313
 20
25.5776
 11
-35.4854
 21
25.5163
  0
LINE
  8
0
 10
-35.4854
 20
25.5163
 11
-35.5431
 21
25.4586
  0
LINE
  8
0
 10
-35.5431
 20
25.4586
 11
-35.6044
 21
25.4046
  0
LINE
  8
0
 10
-35.6044
 20
25.4046
 11
-35.6689
 21
25.3545
  0
LINE
  8
0
 10
-35.6689
 20
25.3545
 11
-35.7364
 21
25.3086
  0
LINE
  8
0
 10
-35.7364
 20
25.3086
 11
-35.8067
 21
25.267
  0
LINE
  8
0
 10
-35.8067
 20
25.267
 11
-35.8795
 21
25.23
  0
LINE
  8
0
 10
-35.8795
 20
25.23
 11
-35.9544
 21
25.1975
  0
LINE
  8
0
 10
-35.9544
 20
25.1975
 11
-36.0313
 21
25.1699
  0
LINE
  8
0
 10
-36.0313
 20
25.1699
 11
-36.1097
 21
25.1471
  0
LINE
  8
0
 10
-36.1097
 20
25.1471
 11
-36.1894
 21
25.1293
  0
LINE
  8
0
 10
-36.1894
 20
25.1293
 11
-36.2701
 21
25.1165
  0
LINE
  8
0
 10
-36.2701
 20
25.1165
 11
-36.3514
 21
25.1088
  0
LINE
  8
0
 10
-36.3514
 20
25.1088
 11
-36.433
 21
25.1062
  0
LINE
  8
0
 10
-36.433
 20
25.1062
 11
-36.5146
 21
25.1088
  0
LINE
  8
0
 10
-37.1339
 20
1.76494
 11
-37.8321
 21
1.83093
  0
LINE
  8
0
 10
-37.8321
 20
1.83093
 11
-38.5248
 21
1.94064
  0
LINE
  8
0
 10
-38.5248
 20
1.94064
 11
-39.2092
 21
2.09363
  0
LINE
  8
0
 10
-39.2092
 20
2.09363
 11
-39.8826
 21
2.28928
  0
LINE
  8
0
 10
-39.8826
 20
2.28928
 11
-40.5425
 21
2.52684
  0
LINE
  8
0
 10
-40.5425
 20
2.52684
 11
-41.1861
 21
2.80536
  0
LINE
  8
0
 10
-41.1861
 20
2.80536
 11
-41.811
 21
3.12373
  0
LINE
  8
0
 10
-41.811
 20
3.12373
 11
-42.4146
 21
3.48073
  0
LINE
  8
0
 10
-42.4146
 20
3.48073
 11
-42.9946
 21
3.87492
  0
LINE
  8
0
 10
-42.9946
 20
3.87492
 11
-43.5488
 21
4.30475
  0
LINE
  8
0
 10
-43.5488
 20
4.30475
 11
-44.0748
 21
4.76852
  0
LINE
  8
0
 10
-44.0748
 20
4.76852
 11
-44.5707
 21
5.26442
  0
LINE
  8
0
 10
-44.5707
 20
5.26442
 11
-45.0345
 21
5.79047
  0
LINE
  8
0
 10
-45.0345
 20
5.79047
 11
-45.4643
 21
6.3446
  0
LINE
  8
0
 10
-45.4643
 20
6.3446
 11
-45.8585
 21
6.92464
  0
LINE
  8
0
 10
-45.8585
 20
6.92464
 11
-46.2155
 21
7.52826
  0
LINE
  8
0
 10
-46.2155
 20
7.52826
 11
-46.5339
 21
8.15312
  0
LINE
  8
0
 10
-46.5339
 20
8.15312
 11
-46.8124
 21
8.79675
  0
LINE
  8
0
 10
-46.8124
 20
8.79675
 11
-47.05
 21
9.45659
  0
LINE
  8
0
 10
-47.05
 20
9.45659
 11
-47.2456
 21
10.13
  0
LINE
  8
0
 10
-47.2456
 20
10.13
 11
-47.3986
 21
10.8144
  0
LINE
  8
0
 10
-47.3986
 20
10.8144
 11
-47.5083
 21
11.5071
  0
LINE
  8
0
 10
-47.5083
 20
11.5071
 11
-47.5743
 21
12.2053
  0
LINE
  8
0
 10
-47.5743
 20
12.2053
 11
-47.5963
 21
12.9062
  0
LINE
  8
0
 10
-47.5963
 20
12.9062
 11
-47.5743
 21
13.6072
  0
LINE
  8
0
 10
-47.5743
 20
13.6072
 11
-47.5083
 21
14.3054
  0
LINE
  8
0
 10
-47.5083
 20
14.3054
 11
-47.3986
 21
14.998
  0
LINE
  8
0
 10
-47.3986
 20
14.998
 11
-47.2456
 21
15.6824
  0
LINE
  8
0
 10
-47.2456
 20
15.6824
 11
-47.05
 21
16.3559
  0
LINE
  8
0
 10
-47.05
 20
16.3559
 11
-46.8124
 21
17.0157
  0
LINE
  8
0
 10
-46.8124
 20
17.0157
 11
-46.5339
 21
17.6594
  0
LINE
  8
0
 10
-46.5339
 20
17.6594
 11
-46.2155
 21
18.2842
  0
LINE
  8
0
 10
-46.2155
 20
18.2842
 11
-45.8585
 21
18.8878
  0
LINE
  8
0
 10
-45.8585
 20
18.8878
 11
-45.4643
 21
19.4679
  0
LINE
  8
0
 10
-45.4643
 20
19.4679
 11
-45.0345
 21
20.022
  0
LINE
  8
0
 10
-45.0345
 20
20.022
 11
-44.5707
 21
20.5481
  0
LINE
  8
0
 10
-44.5707
 20
20.5481
 11
-44.0748
 21
21.044
  0
LINE
  8
0
 10
-44.0748
 20
21.044
 11
-43.5488
 21
21.5077
  0
LINE
  8
0
 10
-43.5488
 20
21.5077
 11
-42.9946
 21
21.9376
  0
LINE
  8
0
 10
-42.9946
 20
21.9376
 11
-42.4146
 21
22.3318
  0
LINE
  8
0
 10
-42.4146
 20
22.3318
 11
-41.811
 21
22.6888
  0
LINE
  8
0
 10
-41.811
 20
22.6888
 11
-41.1861
 21
23.0071
  0
LINE
  8
0
 10
-41.1861
 20
23.0071
 11
-40.5425
 21
23.2856
  0
LINE
  8
0
 10
-40.5425
 20
23.2856
 11
-39.8826
 21
23.5232
  0
LINE
  8
0
 10
-39.8826
 20
23.5232
 11
-39.2092
 21
23.7189
  0
LINE
  8
0
 10
-39.2092
 20
23.7189
 11
-38.5248
 21
23.8718
  0
LINE
  8
0
 10
-38.5248
 20
23.8718
 11
-37.8321
 21
23.9816
  0
LINE
  8
0
 10
-37.8321
 20
23.9816
 11
-37.1339
 21
24.0475
  0
LINE
  8
0
 10
-37.1339
 20
24.0475
 11
-36.433
 21
24.0696
  0
LINE
  8
0
 10
-36.433
 20
24.0696
 11
-35.732
 21
24.0475
  0
LINE
  8
0
 10
-35.732
 20
24.0475
 11
-35.0339
 21
23.9816
  0
LINE
  8
0
 10
-35.0339
 20
23.9816
 11
-34.3412
 21
23.8718
  0
LINE
  8
0
 10
-34.3412
 20
23.8718
 11
-33.6568
 21
23.7189
  0
LINE
  8
0
 10
-33.6568
 20
23.7189
 11
-32.9833
 21
23.5232
  0
LINE
  8
0
 10
-32.9833
 20
23.5232
 11
-32.3235
 21
23.2856
  0
LINE
  8
0
 10
-32.3235
 20
23.2856
 11
-31.6799
 21
23.0071
  0
LINE
  8
0
 10
-31.6799
 20
23.0071
 11
-31.055
 21
22.6888
  0
LINE
  8
0
 10
-31.055
 20
22.6888
 11
-30.4514
 21
22.3318
  0
LINE
  8
0
 10
-30.4514
 20
22.3318
 11
-29.8714
 21
21.9376
  0
LINE
  8
0
 10
-29.8714
 20
21.9376
 11
-29.3172
 21
21.5077
  0
LINE
  8
0
 10
-29.3172
 20
21.5077
 11
-28.7912
 21
21.044
  0
LINE
  8
0
 10
-28.7912
 20
21.044
 11
-28.2953
 21
20.5481
  0
LINE
  8
0
 10
-28.2953
 20
20.5481
 11
-27.8315
 21
20.022
  0
LINE
  8
0
 10
-27.8315
 20
20.022
 11
-27.4017
 21
19.4679
  0
LINE
  8
0
 10
-27.4017
 20
19.4679
 11
-27.0075
 21
18.8878
  0
LINE
  8
0
 10
-27.0075
 20
18.8878
 11
-26.6505
 21
18.2842
  0
LINE
  8
0
 10
-26.6505
 20
18.2842
 11
-26.3321
 21
17.6594
  0
LINE
  8
0
 10
-26.3321
 20
17.6594
 11
-26.0536
 21
17.0157
  0
LINE
  8
0
 10
-26.0536
 20
17.0157
 11
-25.816
 21
16.3559
  0
LINE
  8
0
 10
-25.816
 20
16.3559
 11
-25.6204
 21
15.6824
  0
LINE
  8
0
 10
-25.6204
 20
15.6824
 11
-25.4674
 21
14.998
  0
LINE
  8
0
 10
-25.4674
 20
14.998
 11
-25.3577
 21
14.3054
  0
LINE
  8
0
 10
-25.3577
 20
14.3054
 11
-25.2917
 21
13.6072
  0
LINE
  8
0
 10
-25.2917
 20
13.6072
 11
-25.2697
 21
12.9062
  0
LINE
  8
0
 10
-25.2697
 20
12.9062
 11
-25.2917
 21
12.2053
  0
LINE
  8
0
 10
-25.2917
 20
12.2053
 11
-25.3577
 21
11.5071
  0
LINE
  8
0
 10
-25.3577
 20
11.5071
 11
-25.4674
 21
10.8144
  0
LINE
  8
0
 10
-25.4674
 20
10.8144
 11
-25.6204
 21
10.13
  0
LINE
  8
0
 10
-25.6204
 20
10.13
 11
-25.816
 21
9.45659
  0
LINE
  8
0
 10
-25.816
 20
9.45659
 11
-26.0536
 21
8.79675
  0
LINE
  8
0
 10
-26.0536
 20
8.79675
 11
-26.3321
 21
8.15312
  0
LINE
  8
0
 10
-26.3321
 20
8.15312
 11
-26.6505
 21
7.52826
  0
LINE
  8
0
 10
-26.6505
 20
7.52826
 11
-27.0075
 21
6.92464
  0
LINE
  8
0
 10
-27.0075
 20
6.92464
 11
-27.4017
 21
6.3446
  0
LINE
  8
0
 10
-27.4017
 20
6.3446
 11
-27.8315
 21
5.79047
  0
LINE
  8
0
 10
-27.8315
 20
5.79047
 11
-28.2953
 21
5.26442
  0
LINE
  8
0
 10
-28.2953
 20
5.26442
 11
-28.7912
 21
4.76852
  0
LINE
  8
0
 10
-28.7912
 20
4.76852
 11
-29.3172
 21
4.30475
  0
LINE
  8
0
 10
-29.3172
 20
4.30475
 11
-29.8714
 21
3.87492
  0
LINE
  8
0
 10
-29.8714
 20
3.87492
 11
-30.4514
 21
3.48073
  0
LINE
  8
0
 10
-30.4514
 20
3.48073
 11
-31.055
 21
3.12373
  0
LINE
  8
0
 10
-31.055
 20
3.12373
 11
-31.6799
 21
2.80536
  0
LINE
  8
0
 10
-31.6799
 20
2.80536
 11
-32.3235
 21
2.52684
  0
LINE
  8
0
 10
-32.3235
 20
2.52684
 11
-32.9833
 21
2.28928
  0
LINE
  8
0
 10
-32.9833
 20
2.28928
 11
-33.6568
 21
2.09363
  0
LINE
  8
0
 10
-33.6568
 20
2.09363
 11
-34.3412
 21
1.94064
  0
LINE
  8
0
 10
-34.3412
 20
1.94064
 11
-35.0339
 21
1.83093
  0
LINE
  8
0
 10
-35.0339
 20
1.83093
 11
-35.732
 21
1.76494
  0
LINE
  8
0
 10
-35.732
 20
1.76494
 11
-36.433
 21
1.7429
  0
LINE
  8
0
 10
-36.433
 20
1.7429
 11
-37.1339
 21
1.76494
  0
LINE
  8
0
 10
-20.1316
 20
21.3124
 11
-20.2129
 21
21.3201
  0
LINE
  8
0
 10
-20.2129
 20
21.3201
 11
-20.2936
 21
21.3329
  0
LINE
  8
0
 10
-20.2936
 20
21.3329
 11
-20.3733
 21
21.3507
  0
LINE
  8
0
 10
-20.3733
 20
21.3507
 11
-20.4517
 21
21.3735
  0
LINE
  8
0
 10
-20.4517
 20
21.3735
 11
-20.5285
 21
21.4011
  0
LINE
  8
0
 10
-20.5285
 20
21.4011
 11
-20.6035
 21
21.4336
  0
LINE
  8
0
 10
-20.6035
 20
21.4336
 11
-20.6763
 21
21.4706
  0
LINE
  8
0
 10
-20.6763
 20
21.4706
 11
-20.7466
 21
21.5122
  0
LINE
  8
0
 10
-20.7466
 20
21.5122
 11
-20.8141
 21
21.5581
  0
LINE
  8
0
 10
-20.8141
 20
21.5581
 11
-20.8786
 21
21.6082
  0
LINE
  8
0
 10
-20.8786
 20
21.6082
 11
-20.9399
 21
21.6622
  0
LINE
  8
0
 10
-20.9399
 20
21.6622
 11
-20.9977
 21
21.7199
  0
LINE
  8
0
 10
-20.9977
 20
21.7199
 11
-21.0517
 21
21.7812
  0
LINE
  8
0
 10
-21.0517
 20
21.7812
 11
-21.1017
 21
21.8457
  0
LINE
  8
0
 10
-21.1017
 20
21.8457
 11
-21.1476
 21
21.9133
  0
LINE
  8
0
 10
-21.1476
 20
21.9133
 11
-21.1892
 21
21.9836
  0
LINE
  8
0
 10
-21.1892
 20
21.9836
 11
-21.2263
 21
22.0563
  0
LINE
  8
0
 10
-21.2263
 20
22.0563
 11
-21.2587
 21
22.1313
  0
LINE
  8
0
 10
-21.2587
 20
22.1313
 11
-21.2864
 21
22.2081
  0
LINE
  8
0
 10
-21.2864
 20
22.2081
 11
-21.3091
 21
22.2865
  0
LINE
  8
0
 10
-21.3091
 20
22.2865
 11
-21.327
 21
22.3662
  0
LINE
  8
0
 10
-21.327
 20
22.3662
 11
-21.3397
 21
22.4469
  0
LINE
  8
0
 10
-21.3397
 20
22.4469
 11
-21.3474
 21
22.5282
  0
LINE
  8
0
 10
-21.3474
 20
22.5282
 11
-21.35
 21
22.6098
  0
LINE
  8
0
 10
-21.35
 20
22.6098
 11
-21.3474
 21
22.6915
  0
LINE
  8
0
 10
-21.3474
 20
22.6915
 11
-21.3397
 21
22.7728
  0
LINE
  8
0
 10
-21.3397
 20
22.7728
 11
-21.327
 21
22.8534
  0
LINE
  8
0
 10
-21.327
 20
22.8534
 11
-21.3091
 21
22.9331
  0
LINE
  8
0
 10
-21.3091
 20
22.9331
 11
-21.2864
 21
23.0116
  0
LINE
  8
0
 10
-21.2864
 20
23.0116
 11
-21.2587
 21
23.0884
  0
LINE
  8
0
 10
-21.2587
 20
23.0884
 11
-21.2263
 21
23.1633
  0
LINE
  8
0
 10
-21.2263
 20
23.1633
 11
-21.1892
 21
23.2361
  0
LINE
  8
0
 10
-21.1892
 20
23.2361
 11
-21.1476
 21
23.3064
  0
LINE
  8
0
 10
-21.1476
 20
23.3064
 11
-21.1017
 21
23.374
  0
LINE
  8
0
 10
-21.1017
 20
23.374
 11
-21.0517
 21
23.4385
  0
LINE
  8
0
 10
-21.0517
 20
23.4385
 11
-20.9977
 21
23.4997
  0
LINE
  8
0
 10
-20.9977
 20
23.4997
 11
-20.9399
 21
23.5575
  0
LINE
  8
0
 10
-20.9399
 20
23.5575
 11
-20.8786
 21
23.6115
  0
LINE
  8
0
 10
-20.8786
 20
23.6115
 11
-20.8141
 21
23.6616
  0
LINE
  8
0
 10
-20.8141
 20
23.6616
 11
-20.7466
 21
23.7075
  0
LINE
  8
0
 10
-20.7466
 20
23.7075
 11
-20.6763
 21
23.749
  0
LINE
  8
0
 10
-20.6763
 20
23.749
 11
-20.6035
 21
23.7861
  0
LINE
  8
0
 10
-20.6035
 20
23.7861
 11
-20.5285
 21
23.8185
  0
LINE
  8
0
 10
-20.5285
 20
23.8185
 11
-20.4517
 21
23.8462
  0
LINE
  8
0
 10
-20.4517
 20
23.8462
 11
-20.3733
 21
23.869
  0
LINE
  8
0
 10
-20.3733
 20
23.869
 11
-20.2936
 21
23.8868
  0
LINE
  8
0
 10
-20.2936
 20
23.8868
 11
-20.2129
 21
23.8996
  0
LINE
  8
0
 10
-20.2129
 20
23.8996
 11
-20.1316
 21
23.9073
  0
LINE
  8
0
 10
-20.1316
 20
23.9073
 11
-20.05
 21
23.9098
  0
LINE
  8
0
 10
-20.05
 20
23.9098
 11
-19.9684
 21
23.9073
  0
LINE
  8
0
 10
-19.9684
 20
23.9073
 11
-19.8871
 21
23.8996
  0
LINE
  8
0
 10
-19.8871
 20
23.8996
 11
-19.8064
 21
23.8868
  0
LINE
  8
0
 10
-19.8064
 20
23.8868
 11
-19.7267
 21
23.869
  0
LINE
  8
0
 10
-19.7267
 20
23.869
 11
-19.6483
 21
23.8462
  0
LINE
  8
0
 10
-19.6483
 20
23.8462
 11
-19.5714
 21
23.8185
  0
LINE
  8
0
 10
-19.5714
 20
23.8185
 11
-19.4965
 21
23.7861
  0
LINE
  8
0
 10
-19.4965
 20
23.7861
 11
-19.4237
 21
23.749
  0
LINE
  8
0
 10
-19.4237
 20
23.749
 11
-19.3534
 21
23.7075
  0
LINE
  8
0
 10
-19.3534
 20
23.7075
 11
-19.2859
 21
23.6616
  0
LINE
  8
0
 10
-19.2859
 20
23.6616
 11
-19.2213
 21
23.6115
  0
LINE
  8
0
 10
-19.2213
 20
23.6115
 11
-19.1601
 21
23.5575
  0
LINE
  8
0
 10
-19.1601
 20
23.5575
 11
-19.1023
 21
23.4997
  0
LINE
  8
0
 10
-19.1023
 20
23.4997
 11
-19.0483
 21
23.4385
  0
LINE
  8
0
 10
-19.0483
 20
23.4385
 11
-18.9983
 21
23.374
  0
LINE
  8
0
 10
-18.9983
 20
23.374
 11
-18.9524
 21
23.3064
  0
LINE
  8
0
 10
-18.9524
 20
23.3064
 11
-18.9108
 21
23.2361
  0
LINE
  8
0
 10
-18.9108
 20
23.2361
 11
-18.8737
 21
23.1633
  0
LINE
  8
0
 10
-18.8737
 20
23.1633
 11
-18.8413
 21
23.0884
  0
LINE
  8
0
 10
-18.8413
 20
23.0884
 11
-18.8136
 21
23.0116
  0
LINE
  8
0
 10
-18.8136
 20
23.0116
 11
-18.7908
 21
22.9331
  0
LINE
  8
0
 10
-18.7908
 20
22.9331
 11
-18.773
 21
22.8534
  0
LINE
  8
0
 10
-18.773
 20
22.8534
 11
-18.7602
 21
22.7728
  0
LINE
  8
0
 10
-18.7602
 20
22.7728
 11
-18.7526
 21
22.6915
  0
LINE
  8
0
 10
-18.7526
 20
22.6915
 11
-18.75
 21
22.6098
  0
LINE
  8
0
 10
-18.75
 20
22.6098
 11
-18.7526
 21
22.5282
  0
LINE
  8
0
 10
-18.7526
 20
22.5282
 11
-18.7602
 21
22.4469
  0
LINE
  8
0
 10
-18.7602
 20
22.4469
 11
-18.773
 21
22.3662
  0
LINE
  8
0
 10
-18.773
 20
22.3662
 11
-18.7908
 21
22.2865
  0
LINE
  8
0
 10
-18.7908
 20
22.2865
 11
-18.8136
 21
22.2081
  0
LINE
  8
0
 10
-18.8136
 20
22.2081
 11
-18.8413
 21
22.1313
  0
LINE
  8
0
 10
-18.8413
 20
22.1313
 11
-18.8737
 21
22.0563
  0
LINE
  8
0
 10
-18.8737
 20
22.0563
 11
-18.9108
 21
21.9836
  0
LINE
  8
0
 10
-18.9108
 20
21.9836
 11
-18.9524
 21
21.9133
  0
LINE
  8
0
 10
-18.9524
 20
21.9133
 11
-18.9983
 21
21.8457
  0
LINE
  8
0
 10
-18.9983
 20
21.8457
 11
-19.0483
 21
21.7812
  0
LINE
  8
0
 10
-19.0483
 20
21.7812
 11
-19.1023
 21
21.7199
  0
LINE
  8
0
 10
-19.1023
 20
21.7199
 11
-19.1601
 21
21.6622
  0
LINE
  8
0
 10
-19.1601
 20
21.6622
 11
-19.2213
 21
21.6082
  0
LINE
  8
0
 10
-19.2213
 20
21.6082
 11
-19.2859
 21
21.5581
  0
LINE
  8
0
 10
-19.2859
 20
21.5581
 11
-19.3534
 21
21.5122
  0
LINE
  8
0
 10
-19.3534
 20
21.5122
 11
-19.4237
 21
21.4706
  0
LINE
  8
0
 10
-19.4237
 20
21.4706
 11
-19.4965
 21
21.4336
  0
LINE
  8
0
 10
-19.4965
 20
21.4336
 11
-19.5714
 21
21.4011
  0
LINE
  8
0
 10
-19.5714
 20
21.4011
 11
-19.6483
 21
21.3735
  0
LINE
  8
0
 10
-19.6483
 20
21.3735
 11
-19.7267
 21
21.3507
  0
LINE
  8
0
 10
-19.7267
 20
21.3507
 11
-19.8064
 21
21.3329
  0
LINE
  8
0
 10
-19.8064
 20
21.3329
 11
-19.8871
 21
21.3201
  0
LINE
  8
0
 10
-19.8871
 20
21.3201
 11
-19.9684
 21
21.3124
  0
LINE
  8
0
 10
-19.9684
 20
21.3124
 11
-20.05
 21
21.3098
  0
LINE
  8
0
 10
-20.05
 20
21.3098
 11
-20.1316
 21
21.3124
  0
LINE
  8
0
 10
-17.525
 20
5.90625
 11
-17.525
 21
19.9062
  0
LINE
  8
0
 10
-17.525
 20
19.9062
 11
-3.52499
 21
19.9062
  0
LINE
  8
0
 10
-3.52499
 20
19.9062
 11
-3.52499
 21
5.90625
  0
LINE
  8
0
 10
-3.52499
 20
5.90625
 11
-17.525
 21
5.90625
  0
LINE
  8
0
 10
-20.1316
 20
1.90521
 11
-20.2129
 21
1.9129
  0
LINE
  8
0
 10
-20.2129
 20
1.9129
 11
-20.2936
 21
1.92567
  0
LINE
  8
0
 10
-20.2936
 20
1.92567
 11
-20.3733
 21
1.9435
  0
LINE
  8
0
 10
-20.3733
 20
1.9435
 11
-20.4517
 21
1.96628
  0
LINE
  8
0
 10
-20.4517
 20
1.96628
 11
-20.5285
 21
1.99394
  0
LINE
  8
0
 10
-20.5285
 20
1.99394
 11
-20.6035
 21
2.02637
  0
LINE
  8
0
 10
-20.6035
 20
2.02637
 11
-20.6763
 21
2.06345
  0
LINE
  8
0
 10
-20.6763
 20
2.06345
 11
-20.7466
 21
2.10503
  0
LINE
  8
0
 10
-20.7466
 20
2.10503
 11
-20.8141
 21
2.15092
  0
LINE
  8
0
 10
-20.8141
 20
2.15092
 11
-20.8786
 21
2.20099
  0
LINE
  8
0
 10
-20.8786
 20
2.20099
 11
-20.9399
 21
2.25499
  0
LINE
  8
0
 10
-20.9399
 20
2.25499
 11
-20.9977
 21
2.31274
  0
LINE
  8
0
 10
-20.9977
 20
2.31274
 11
-21.0517
 21
2.37399
  0
LINE
  8
0
 10
-21.0517
 20
2.37399
 11
-21.1017
 21
2.43852
  0
LINE
  8
0
 10
-21.1017
 20
2.43852
 11
-21.1476
 21
2.50607
  0
LINE
  8
0
 10
-21.1476
 20
2.50607
 11
-21.1892
 21
2.57637
  0
LINE
  8
0
 10
-21.1892
 20
2.57637
 11
-21.2263
 21
2.64914
  0
LINE
  8
0
 10
-21.2263
 20
2.64914
 11
-21.2587
 21
2.72409
  0
LINE
  8
0
 10
-21.2587
 20
2.72409
 11
-21.2864
 21
2.80093
  0
LINE
  8
0
 10
-21.2864
 20
2.80093
 11
-21.3091
 21
2.87935
  0
LINE
  8
0
 10
-21.3091
 20
2.87935
 11
-21.327
 21
2.95905
  0
LINE
  8
0
 10
-21.327
 20
2.95905
 11
-21.3397
 21
3.03972
  0
LINE
  8
0
 10
-21.3397
 20
3.03972
 11
-21.3474
 21
3.12102
  0
LINE
  8
0
 10
-21.3474
 20
3.12102
 11
-21.35
 21
3.20265
  0
LINE
  8
0
 10
-21.35
 20
3.20265
 11
-21.3474
 21
3.28427
  0
LINE
  8
0
 10
-21.3474
 20
3.28427
 11
-21.3397
 21
3.36559
  0
LINE
  8
0
 10
-21.3397
 20
3.36559
 11
-21.327
 21
3.44624
  0
LINE
  8
0
 10
-21.327
 20
3.44624
 11
-21.3091
 21
3.52594
  0
LINE
  8
0
 10
-21.3091
 20
3.52594
 11
-21.2864
 21
3.60437
  0
LINE
  8
0
 10
-21.2864
 20
3.60437
 11
-21.2587
 21
3.68121
  0
LINE
  8
0
 10
-21.2587
 20
3.68121
 11
-21.2263
 21
3.75616
  0
LINE
  8
0
 10
-21.2263
 20
3.75616
 11
-21.1892
 21
3.82893
  0
LINE
  8
0
 10
-21.1892
 20
3.82893
 11
-21.1476
 21
3.89923
  0
LINE
  8
0
 10
-21.1476
 20
3.89923
 11
-21.1017
 21
3.96677
  0
LINE
  8
0
 10
-21.1017
 20
3.96677
 11
-21.0517
 21
4.0313
  0
LINE
  8
0
 10
-21.0517
 20
4.0313
 11
-20.9977
 21
4.09256
  0
LINE
  8
0
 10
-20.9977
 20
4.09256
 11
-20.9399
 21
4.15031
  0
LINE
  8
0
 10
-20.9399
 20
4.15031
 11
-20.8786
 21
4.20432
  0
LINE
  8
0
 10
-20.8786
 20
4.20432
 11
-20.8141
 21
4.25436
  0
LINE
  8
0
 10
-20.8141
 20
4.25436
 11
-20.7466
 21
4.30028
  0
LINE
  8
0
 10
-20.7466
 20
4.30028
 11
-20.6763
 21
4.34184
  0
LINE
  8
0
 10
-20.6763
 20
4.34184
 11
-20.6035
 21
4.37892
  0
LINE
  8
0
 10
-20.6035
 20
4.37892
 11
-20.5285
 21
4.41136
  0
LINE
  8
0
 10
-20.5285
 20
4.41136
 11
-20.4517
 21
4.43903
  0
LINE
  8
0
 10
-20.4517
 20
4.43903
 11
-20.3733
 21
4.46181
  0
LINE
  8
0
 10
-20.3733
 20
4.46181
 11
-20.2936
 21
4.47963
  0
LINE
  8
0
 10
-20.2936
 20
4.47963
 11
-20.2129
 21
4.4924
  0
LINE
  8
0
 10
-20.2129
 20
4.4924
 11
-20.1316
 21
4.50008
  0
LINE
  8
0
 10
-20.1316
 20
4.50008
 11
-20.05
 21
4.50266
  0
LINE
  8
0
 10
-20.05
 20
4.50266
 11
-19.9684
 21
4.50008
  0
LINE
  8
0
 10
-19.9684
 20
4.50008
 11
-19.8871
 21
4.4924
  0
LINE
  8
0
 10
-19.8871
 20
4.4924
 11
-19.8064
 21
4.47963
  0
LINE
  8
0
 10
-19.8064
 20
4.47963
 11
-19.7267
 21
4.46181
  0
LINE
  8
0
 10
-19.7267
 20
4.46181
 11
-19.6483
 21
4.43903
  0
LINE
  8
0
 10
-19.6483
 20
4.43903
 11
-19.5714
 21
4.41136
  0
LINE
  8
0
 10
-19.5714
 20
4.41136
 11
-19.4965
 21
4.37892
  0
LINE
  8
0
 10
-19.4965
 20
4.37892
 11
-19.4237
 21
4.34184
  0
LINE
  8
0
 10
-19.4237
 20
4.34184
 11
-19.3534
 21
4.30028
  0
LINE
  8
0
 10
-19.3534
 20
4.30028
 11
-19.2859
 21
4.25436
  0
LINE
  8
0
 10
-19.2859
 20
4.25436
 11
-19.2213
 21
4.20432
  0
LINE
  8
0
 10
-19.2213
 20
4.20432
 11
-19.1601
 21
4.15031
  0
LINE
  8
0
 10
-19.1601
 20
4.15031
 11
-19.1023
 21
4.09256
  0
LINE
  8
0
 10
-19.1023
 20
4.09256
 11
-19.0483
 21
4.0313
  0
LINE
  8
0
 10
-19.0483
 20
4.0313
 11
-18.9983
 21
3.96677
  0
LINE
  8
0
 10
-18.9983
 20
3.96677
 11
-18.9524
 21
3.89923
  0
LINE
  8
0
 10
-18.9524
 20
3.89923
 11
-18.9108
 21
3.82893
  0
LINE
  8
0
 10
-18.9108
 20
3.82893
 11
-18.8737
 21
3.75616
  0
LINE
  8
0
 10
-18.8737
 20
3.75616
 11
-18.8413
 21
3.68121
  0
LINE
  8
0
 10
-18.8413
 20
3.68121
 11
-18.8136
 21
3.60437
  0
LINE
  8
0
 10
-18.8136
 20
3.60437
 11
-18.7908
 21
3.52594
  0
LINE
  8
0
 10
-18.7908
 20
3.52594
 11
-18.773
 21
3.44624
  0
LINE
  8
0
 10
-18.773
 20
3.44624
 11
-18.7602
 21
3.36559
  0
LINE
  8
0
 10
-18.7602
 20
3.36559
 11
-18.7526
 21
3.28427
  0
LINE
  8
0
 10
-18.7526
 20
3.28427
 11
-18.75
 21
3.20265
  0
LINE
  8
0
 10
-18.75
 20
3.20265
 11
-18.7526
 21
3.12102
  0
LINE
  8
0
 10
-18.7526
 20
3.12102
 11
-18.7602
 21
3.03972
  0
LINE
  8
0
 10
-18.7602
 20
3.03972
 11
-18.773
 21
2.95905
  0
LINE
  8
0
 10
-18.773
 20
2.95905
 11
-18.7908
 21
2.87935
  0
LINE
  8
0
 10
-18.7908
 20
2.87935
 11
-18.8136
 21
2.80093
  0
LINE
  8
0
 10
-18.8136
 20
2.80093
 11
-18.8413
 21
2.72409
  0
LINE
  8
0
 10
-18.8413
 20
2.72409
 11
-18.8737
 21
2.64914
  0
LINE
  8
0
 10
-18.8737
 20
2.64914
 11
-18.9108
 21
2.57637
  0
LINE
  8
0
 10
-18.9108
 20
2.57637
 11
-18.9524
 21
2.50607
  0
LINE
  8
0
 10
-18.9524
 20
2.50607
 11
-18.9983
 21
2.43852
  0
LINE
  8
0
 10
-18.9983
 20
2.43852
 11
-19.0483
 21
2.37399
  0
LINE
  8
0
 10
-19.0483
 20
2.37399
 11
-19.1023
 21
2.31274
  0
LINE
  8
0
 10
-19.1023
 20
2.31274
 11
-19.1601
 21
2.25499
  0
LINE
  8
0
 10
-19.1601
 20
2.25499
 11
-19.2213
 21
2.20099
  0
LINE
  8
0
 10
-19.2213
 20
2.20099
 11
-19.2859
 21
2.15092
  0
LINE
  8
0
 10
-19.2859
 20
2.15092
 11
-19.3534
 21
2.10503
  0
LINE
  8
0
 10
-19.3534
 20
2.10503
 11
-19.4237
 21
2.06345
  0
LINE
  8
0
 10
-19.4237
 20
2.06345
 11
-19.4965
 21
2.02637
  0
LINE
  8
0
 10
-19.4965
 20
2.02637
 11
-19.5714
 21
1.99394
  0
LINE
  8
0
 10
-19.5714
 20
1.99394
 11
-19.6483
 21
1.96628
  0
LINE
  8
0
 10
-19.6483
 20
1.96628
 11
-19.7267
 21
1.9435
  0
LINE
  8
0
 10
-19.7267
 20
1.9435
 11
-19.8064
 21
1.92567
  0
LINE
  8
0
 10
-19.8064
 20
1.92567
 11
-19.8871
 21
1.9129
  0
LINE
  8
0
 10
-19.8871
 20
1.9129
 11
-19.9684
 21
1.90521
  0
LINE
  8
0
 10
-19.9684
 20
1.90521
 11
-20.05
 21
1.90265
  0
LINE
  8
0
 10
-20.05
 20
1.90265
 11
-20.1316
 21
1.90521
  0
LINE
  8
0
 10
-36.5146
 20
-1.89117
 11
-36.5959
 21
-1.88348
  0
LINE
  8
0
 10
-36.5959
 20
-1.88348
 11
-36.6766
 21
-1.87071
  0
LINE
  8
0
 10
-36.6766
 20
-1.87071
 11
-36.7563
 21
-1.85291
  0
LINE
  8
0
 10
-36.7563
 20
-1.85291
 11
-36.8347
 21
-1.83011
  0
LINE
  8
0
 10
-36.8347
 20
-1.83011
 11
-36.9116
 21
-1.80244
  0
LINE
  8
0
 10
-36.9116
 20
-1.80244
 11
-36.9865
 21
-1.77002
  0
LINE
  8
0
 10
-36.9865
 20
-1.77002
 11
-37.0593
 21
-1.73294
  0
LINE
  8
0
 10
-37.0593
 20
-1.73294
 11
-37.1296
 21
-1.69138
  0
LINE
  8
0
 10
-37.1296
 20
-1.69138
 11
-37.1971
 21
-1.64546
  0
LINE
  8
0
 10
-37.1971
 20
-1.64546
 11
-37.2616
 21
-1.59541
  0
LINE
  8
0
 10
-37.2616
 20
-1.59541
 11
-37.3229
 21
-1.5414
  0
LINE
  8
0
 10
-37.3229
 20
-1.5414
 11
-37.3806
 21
-1.48366
  0
LINE
  8
0
 10
-37.3806
 20
-1.48366
 11
-37.4347
 21
-1.42239
  0
LINE
  8
0
 10
-37.4347
 20
-1.42239
 11
-37.4847
 21
-1.35786
  0
LINE
  8
0
 10
-37.4847
 20
-1.35786
 11
-37.5306
 21
-1.29031
  0
LINE
  8
0
 10
-37.5306
 20
-1.29031
 11
-37.5722
 21
-1.22002
  0
LINE
  8
0
 10
-37.5722
 20
-1.22002
 11
-37.6093
 21
-1.14726
  0
LINE
  8
0
 10
-37.6093
 20
-1.14726
 11
-37.6417
 21
-1.07231
  0
LINE
  8
0
 10
-37.6417
 20
-1.07231
 11
-37.6694
 21
-0.995468
  0
LINE
  8
0
 10
-37.6694
 20
-0.995468
 11
-37.6922
 21
-0.917038
  0
LINE
  8
0
 10
-37.6922
 20
-0.917038
 11
-37.71
 21
-0.837341
  0
LINE
  8
0
 10
-37.71
 20
-0.837341
 11
-37.7227
 21
-0.756668
  0
LINE
  8
0
 10
-37.7227
 20
-0.756668
 11
-37.7304
 21
-0.675369
  0
LINE
  8
0
 10
-37.7304
 20
-0.675369
 11
-37.733
 21
-0.59375
  0
LINE
  8
0
 10
-37.733
 20
-0.59375
 11
-37.7304
 21
-0.512115
  0
LINE
  8
0
 10
-37.7304
 20
-0.512115
 11
-37.7227
 21
-0.430817
  0
LINE
  8
0
 10
-37.7227
 20
-0.430817
 11
-37.71
 21
-0.350143
  0
LINE
  8
0
 10
-37.71
 20
-0.350143
 11
-37.6922
 21
-0.270447
  0
LINE
  8
0
 10
-37.6922
 20
-0.270447
 11
-37.6694
 21
-0.192017
  0
LINE
  8
0
 10
-37.6694
 20
-0.192017
 11
-37.6417
 21
-0.115173
  0
LINE
  8
0
 10
-37.6417
 20
-0.115173
 11
-37.6093
 21
-0.0402222
  0
LINE
  8
0
 10
-37.6093
 20
-0.0402222
 11
-37.5722
 21
0.0325317
  0
LINE
  8
0
 10
-37.5722
 20
0.0325317
 11
-37.5306
 21
0.102829
  0
LINE
  8
0
 10
-37.5306
 20
0.102829
 11
-37.4847
 21
0.17038
  0
LINE
  8
0
 10
-37.4847
 20
0.17038
 11
-37.4347
 21
0.234909
  0
LINE
  8
0
 10
-37.4347
 20
0.234909
 11
-37.3806
 21
0.296173
  0
LINE
  8
0
 10
-37.3806
 20
0.296173
 11
-37.3229
 21
0.353912
  0
LINE
  8
0
 10
-37.3229
 20
0.353912
 11
-37.2616
 21
0.407928
  0
LINE
  8
0
 10
-37.2616
 20
0.407928
 11
-37.1971
 21
0.457977
  0
LINE
  8
0
 10
-37.1971
 20
0.457977
 11
-37.1296
 21
0.503891
  0
LINE
  8
0
 10
-37.1296
 20
0.503891
 11
-37.0593
 21
0.545456
  0
LINE
  8
0
 10
-37.0593
 20
0.545456
 11
-36.9865
 21
0.582535
  0
LINE
  8
0
 10
-36.9865
 20
0.582535
 11
-36.9116
 21
0.61496
  0
LINE
  8
0
 10
-36.9116
 20
0.61496
 11
-36.8347
 21
0.642624
  0
LINE
  8
0
 10
-36.8347
 20
0.642624
 11
-36.7563
 21
0.665421
  0
LINE
  8
0
 10
-36.7563
 20
0.665421
 11
-36.6766
 21
0.683228
  0
LINE
  8
0
 10
-36.6766
 20
0.683228
 11
-36.5959
 21
0.695999
  0
LINE
  8
0
 10
-36.5959
 20
0.695999
 11
-36.5146
 21
0.70369
  0
LINE
  8
0
 10
-36.5146
 20
0.70369
 11
-36.433
 21
0.706253
  0
LINE
  8
0
 10
-36.433
 20
0.706253
 11
-36.3514
 21
0.70369
  0
LINE
  8
0
 10
-36.3514
 20
0.70369
 11
-36.2701
 21
0.695999
  0
LINE
  8
0
 10
-36.2701
 20
0.695999
 11
-36.1894
 21
0.683228
  0
LINE
  8
0
 10
-36.1894
 20
0.683228
 11
-36.1097
 21
0.665421
  0
LINE
  8
0
 10
-36.1097
 20
0.665421
 11
-36.0313
 21
0.642624
  0
LINE
  8
0
 10
-36.0313
 20
0.642624
 11
-35.9544
 21
0.61496
  0
LINE
  8
0
 10
-35.9544
 20
0.61496
 11
-35.8795
 21
0.582535
  0
LINE
  8
0
 10
-35.8795
 20
0.582535
 11
-35.8067
 21
0.545456
  0
LINE
  8
0
 10
-35.8067
 20
0.545456
 11
-35.7364
 21
0.503891
  0
LINE
  8
0
 10
-35.7364
 20
0.503891
 11
-35.6689
 21
0.457977
  0
LINE
  8
0
 10
-35.6689
 20
0.457977
 11
-35.6044
 21
0.407928
  0
LINE
  8
0
 10
-35.6044
 20
0.407928
 11
-35.5431
 21
0.353912
  0
LINE
  8
0
 10
-35.5431
 20
0.353912
 11
-35.4854
 21
0.296173
  0
LINE
  8
0
 10
-35.4854
 20
0.296173
 11
-35.4313
 21
0.234909
  0
LINE
  8
0
 10
-35.4313
 20
0.234909
 11
-35.3813
 21
0.17038
  0
LINE
  8
0
 10
-35.3813
 20
0.17038
 11
-35.3354
 21
0.102829
  0
LINE
  8
0
 10
-35.3354
 20
0.102829
 11
-35.2938
 21
0.0325317
  0
LINE
  8
0
 10
-35.2938
 20
0.0325317
 11
-35.2567
 21
-0.0402222
  0
LINE
  8
0
 10
-35.2567
 20
-0.0402222
 11
-35.2243
 21
-0.115173
  0
LINE
  8
0
 10
-35.2243
 20
-0.115173
 11
-35.1966
 21
-0.192017
  0
LINE
  8
0
 10
-35.1966
 20
-0.192017
 11
-35.1738
 21
-0.270447
  0
LINE
  8
0
 10
-35.1738
 20
-0.270447
 11
-35.156
 21
-0.350143
  0
LINE
  8
0
 10
-35.156
 20
-0.350143
 11
-35.1433
 21
-0.430817
  0
LINE
  8
0
 10
-35.1433
 20
-0.430817
 11
-35.1356
 21
-0.512115
  0
LINE
  8
0
 10
-35.1356
 20
-0.512115
 11
-35.133
 21
-0.59375
  0
LINE
  8
0
 10
-35.133
 20
-0.59375
 11
-35.1356
 21
-0.675369
  0
LINE
  8
0
 10
-35.1356
 20
-0.675369
 11
-35.1433
 21
-0.756668
  0
LINE
  8
0
 10
-35.1433
 20
-0.756668
 11
-35.156
 21
-0.837341
  0
LINE
  8
0
 10
-35.156
 20
-0.837341
 11
-35.1738
 21
-0.917038
  0
LINE
  8
0
 10
-35.1738
 20
-0.917038
 11
-35.1966
 21
-0.995468
  0
LINE
  8
0
 10
-35.1966
 20
-0.995468
 11
-35.2243
 21
-1.07231
  0
LINE
  8
0
 10
-35.2243
 20
-1.07231
 11
-35.2567
 21
-1.14726
  0
LINE
  8
0
 10
-35.2567
 20
-1.14726
 11
-35.2938
 21
-1.22002
  0
LINE
  8
0
 10
-35.2938
 20
-1.22002
 11
-35.3354
 21
-1.29031
  0
LINE
  8
0
 10
-35.3354
 20
-1.29031
 11
-35.3813
 21
-1.35786
  0
LINE
  8
0
 10
-35.3813
 20
-1.35786
 11
-35.4313
 21
-1.42239
  0
LINE
  8
0
 10
-35.4313
 20
-1.42239
 11
-35.4854
 21
-1.48366
  0
LINE
  8
0
 10
-35.4854
 20
-1.48366
 11
-35.5431
 21
-1.5414
  0
LINE
  8
0
 10
-35.5431
 20
-1.5414
 11
-35.6044
 21
-1.59541
  0
LINE
  8
0
 10
-35.6044
 20
-1.59541
 11
-35.6689
 21
-1.64546
  0
LINE
  8
0
 10
-35.6689
 20
-1.64546
 11
-35.7364
 21
-1.69138
  0
LINE
  8
0
 10
-35.7364
 20
-1.69138
 11
-35.8067
 21
-1.73294
  0
LINE
  8
0
 10
-35.8067
 20
-1.73294
 11
-35.8795
 21
-1.77002
  0
LINE
  8
0
 10
-35.8795
 20
-1.77002
 11
-35.9544
 21
-1.80244
  0
LINE
  8
0
 10
-35.9544
 20
-1.80244
 11
-36.0313
 21
-1.83011
  0
LINE
  8
0
 10
-36.0313
 20
-1.83011
 11
-36.1097
 21
-1.85291
  0
LINE
  8
0
 10
-36.1097
 20
-1.85291
 11
-36.1894
 21
-1.87071
  0
LINE
  8
0
 10
-36.1894
 20
-1.87071
 11
-36.2701
 21
-1.88348
  0
LINE
  8
0
 10
-36.2701
 20
-1.88348
 11
-36.3514
 21
-1.89117
  0
LINE
  8
0
 10
-36.3514
 20
-1.89117
 11
-36.433
 21
-1.89374
  0
LINE
  8
0
 10
-36.433
 20
-1.89374
 11
-36.5146
 21
-1.89117
  0
ENDSEC
  0
SECTION
  2
OBJECTS
  0
DICTIONARY
  0
ENDSEC
  0
EOF
