  0
SECTION
  2
BLOCKS
  0
ENDSEC
  0
SECTION
  2
ENTITIES
  0
LINE
  8
0
 10
41.1628
 20
0.00198364
 11
41.2253
 21
0.00788879
  0
LINE
  8
0
 10
41.2253
 20
0.00788879
 11
41.2874
 21
0.0177155
  0
LINE
  8
0
 10
41.2874
 20
0.0177155
 11
41.3487
 21
0.0314178
  0
LINE
  8
0
 10
41.3487
 20
0.0314178
 11
41.409
 21
0.0489502
  0
LINE
  8
0
 10
41.409
 20
0.0489502
 11
41.4681
 21
0.0702362
  0
LINE
  8
0
 10
41.4681
 20
0.0702362
 11
41.5258
 21
0.0951843
  0
LINE
  8
0
 10
41.5258
 20
0.0951843
 11
41.5817
 21
0.123703
  0
LINE
  8
0
 10
41.5817
 20
0.123703
 11
41.6358
 21
0.155685
  0
LINE
  8
0
 10
41.6358
 20
0.155685
 11
41.6878
 21
0.190994
  0
LINE
  8
0
 10
41.6878
 20
0.190994
 11
41.7374
 21
0.229492
  0
LINE
  8
0
 10
41.7374
 20
0.229492
 11
41.7845
 21
0.271042
  0
LINE
  8
0
 10
41.7845
 20
0.271042
 11
41.8289
 21
0.31546
  0
LINE
  8
0
 10
41.8289
 20
0.31546
 11
41.8705
 21
0.362579
  0
LINE
  8
0
 10
41.8705
 20
0.362579
 11
41.909
 21
0.412216
  0
LINE
  8
0
 10
41.909
 20
0.412216
 11
41.9443
 21
0.464188
  0
LINE
  8
0
 10
41.9443
 20
0.464188
 11
41.9763
 21
0.51825
  0
LINE
  8
0
 10
41.9763
 20
0.51825
 11
42.0048
 21
0.574234
  0
LINE
  8
0
 10
42.0048
 20
0.574234
 11
42.0298
 21
0.631882
  0
LINE
  8
0
 10
42.0298
 20
0.631882
 11
42.051
 21
0.690994
  0
LINE
  8
0
 10
42.051
 20
0.690994
 11
42.0686
 21
0.751312
  0
LINE
  8
0
 10
42.0686
 20
0.751312
 11
42.0823
 21
0.812622
  0
LINE
  8
0
 10
42.0823
 20
0.812622
 11
42.0921
 21
0.87468
  0
LINE
  8
0
 10
42.0921
 20
0.87468
 11
42.098
 21
0.93721
  0
LINE
  8
0
 10
42.098
 20
0.93721
 11
42.1
 21
1
  0
LINE
  8
0
 10
42.1
 20
1
 11
42.1
 21
4.7625
  0
LINE
  8
0
 10
42.1
 20
4.7625
 11
60.15
 21
4.7625
  0
LINE
  8
0
 10
60.15
 20
4.7625
 11
60.2128
 21
4.76448
  0
LINE
  8
0
 10
60.2128
 20
4.76448
 11
60.2753
 21
4.77039
  0
LINE
  8
0
 10
60.2753
 20
4.77039
 11
60.3374
 21
4.78021
  0
LINE
  8
0
 10
60.3374
 20
4.78021
 11
60.3987
 21
4.79391
  0
LINE
  8
0
 10
60.3987
 20
4.79391
 11
60.459
 21
4.81145
  0
LINE
  8
0
 10
60.459
 20
4.81145
 11
60.5181
 21
4.83273
  0
LINE
  8
0
 10
60.5181
 20
4.83273
 11
60.5758
 21
4.85768
  0
LINE
  8
0
 10
60.5758
 20
4.85768
 11
60.6317
 21
4.8862
  0
LINE
  8
0
 10
60.6317
 20
4.8862
 11
60.6858
 21
4.91818
  0
LINE
  8
0
 10
60.6858
 20
4.91818
 11
60.7378
 21
4.95349
  0
LINE
  8
0
 10
60.7378
 20
4.95349
 11
60.7874
 21
4.99199
  0
LINE
  8
0
 10
60.7874
 20
4.99199
 11
60.8345
 21
5.03354
  0
LINE
  8
0
 10
60.8345
 20
5.03354
 11
60.879
 21
5.07796
  0
LINE
  8
0
 10
60.879
 20
5.07796
 11
60.9205
 21
5.12508
  0
LINE
  8
0
 10
60.9205
 20
5.12508
 11
60.959
 21
5.17471
  0
LINE
  8
0
 10
60.959
 20
5.17471
 11
60.9943
 21
5.22668
  0
LINE
  8
0
 10
60.9943
 20
5.22668
 11
61.0263
 21
5.28075
  0
LINE
  8
0
 10
61.0263
 20
5.28075
 11
61.0548
 21
5.33673
  0
LINE
  8
0
 10
61.0548
 20
5.33673
 11
61.0798
 21
5.39438
  0
LINE
  8
0
 10
61.0798
 20
5.39438
 11
61.101
 21
5.45349
  0
LINE
  8
0
 10
61.101
 20
5.45349
 11
61.1186
 21
5.51381
  0
LINE
  8
0
 10
61.1186
 20
5.51381
 11
61.1323
 21
5.57512
  0
LINE
  8
0
 10
61.1323
 20
5.57512
 11
61.1421
 21
5.63718
  0
LINE
  8
0
 10
61.1421
 20
5.63718
 11
61.148
 21
5.69971
  0
LINE
  8
0
 10
61.148
 20
5.69971
 11
61.15
 21
5.7625
  0
LINE
  8
0
 10
61.15
 20
5.7625
 11
61.15
 21
7.04849
  0
LINE
  8
0
 10
61.15
 20
7.04849
 11
76.2
 21
7.04849
  0
LINE
  8
0
 10
76.2
 20
7.04849
 11
76.2
 21
5.7625
  0
LINE
  8
0
 10
76.2
 20
5.7625
 11
76.202
 21
5.69971
  0
LINE
  8
0
 10
76.202
 20
5.69971
 11
76.2079
 21
5.63718
  0
LINE
  8
0
 10
76.2079
 20
5.63718
 11
76.2177
 21
5.57512
  0
LINE
  8
0
 10
76.2177
 20
5.57512
 11
76.2314
 21
5.51381
  0
LINE
  8
0
 10
76.2314
 20
5.51381
 11
76.2489
 21
5.45349
  0
LINE
  8
0
 10
76.2489
 20
5.45349
 11
76.2702
 21
5.39438
  0
LINE
  8
0
 10
76.2702
 20
5.39438
 11
76.2952
 21
5.33673
  0
LINE
  8
0
 10
76.2952
 20
5.33673
 11
76.3237
 21
5.28075
  0
LINE
  8
0
 10
76.3237
 20
5.28075
 11
76.3557
 21
5.22668
  0
LINE
  8
0
 10
76.3557
 20
5.22668
 11
76.391
 21
5.17471
  0
LINE
  8
0
 10
76.391
 20
5.17471
 11
76.4295
 21
5.12508
  0
LINE
  8
0
 10
76.4295
 20
5.12508
 11
76.471
 21
5.07796
  0
LINE
  8
0
 10
76.471
 20
5.07796
 11
76.5155
 21
5.03354
  0
LINE
  8
0
 10
76.5155
 20
5.03354
 11
76.5626
 21
4.99199
  0
LINE
  8
0
 10
76.5626
 20
4.99199
 11
76.6122
 21
4.95349
  0
LINE
  8
0
 10
76.6122
 20
4.95349
 11
76.6642
 21
4.91818
  0
LINE
  8
0
 10
76.6642
 20
4.91818
 11
76.7182
 21
4.8862
  0
LINE
  8
0
 10
76.7182
 20
4.8862
 11
76.7742
 21
4.85768
  0
LINE
  8
0
 10
76.7742
 20
4.85768
 11
76.8319
 21
4.83273
  0
LINE
  8
0
 10
76.8319
 20
4.83273
 11
76.891
 21
4.81145
  0
LINE
  8
0
 10
76.891
 20
4.81145
 11
76.9513
 21
4.79391
  0
LINE
  8
0
 10
76.9513
 20
4.79391
 11
77.0126
 21
4.78021
  0
LINE
  8
0
 10
77.0126
 20
4.78021
 11
77.0747
 21
4.77039
  0
LINE
  8
0
 10
77.0747
 20
4.77039
 11
77.1372
 21
4.76448
  0
LINE
  8
0
 10
77.1372
 20
4.76448
 11
77.2
 21
4.7625
  0
LINE
  8
0
 10
77.2
 20
4.7625
 11
95.25
 21
4.7625
  0
LINE
  8
0
 10
95.25
 20
4.7625
 11
95.25
 21
3.286
  0
LINE
  8
0
 10
95.25
 20
3.286
 11
95.252
 21
3.22321
  0
LINE
  8
0
 10
95.252
 20
3.22321
 11
95.2579
 21
3.16068
  0
LINE
  8
0
 10
95.2579
 20
3.16068
 11
95.2677
 21
3.09862
  0
LINE
  8
0
 10
95.2677
 20
3.09862
 11
95.2814
 21
3.03731
  0
LINE
  8
0
 10
95.2814
 20
3.03731
 11
95.299
 21
2.97699
  0
LINE
  8
0
 10
95.299
 20
2.97699
 11
95.3202
 21
2.91788
  0
LINE
  8
0
 10
95.3202
 20
2.91788
 11
95.3452
 21
2.86023
  0
LINE
  8
0
 10
95.3452
 20
2.86023
 11
95.3737
 21
2.80424
  0
LINE
  8
0
 10
95.3737
 20
2.80424
 11
95.4057
 21
2.75018
  0
LINE
  8
0
 10
95.4057
 20
2.75018
 11
95.441
 21
2.69821
  0
LINE
  8
0
 10
95.441
 20
2.69821
 11
95.4795
 21
2.64857
  0
LINE
  8
0
 10
95.4795
 20
2.64857
 11
95.521
 21
2.60146
  0
LINE
  8
0
 10
95.521
 20
2.60146
 11
95.5655
 21
2.55704
  0
LINE
  8
0
 10
95.5655
 20
2.55704
 11
95.6126
 21
2.51549
  0
LINE
  8
0
 10
95.6126
 20
2.51549
 11
95.6622
 21
2.47699
  0
LINE
  8
0
 10
95.6622
 20
2.47699
 11
95.7142
 21
2.44168
  0
LINE
  8
0
 10
95.7142
 20
2.44168
 11
95.7682
 21
2.4097
  0
LINE
  8
0
 10
95.7682
 20
2.4097
 11
95.8242
 21
2.38118
  0
LINE
  8
0
 10
95.8242
 20
2.38118
 11
95.8819
 21
2.35623
  0
LINE
  8
0
 10
95.8819
 20
2.35623
 11
95.941
 21
2.33495
  0
LINE
  8
0
 10
95.941
 20
2.33495
 11
96.0013
 21
2.31741
  0
LINE
  8
0
 10
96.0013
 20
2.31741
 11
96.0626
 21
2.30371
  0
LINE
  8
0
 10
96.0626
 20
2.30371
 11
96.1247
 21
2.29388
  0
LINE
  8
0
 10
96.1247
 20
2.29388
 11
96.1872
 21
2.28798
  0
LINE
  8
0
 10
96.1872
 20
2.28798
 11
96.25
 21
2.286
  0
LINE
  8
0
 10
96.25
 20
2.286
 11
117.3
 21
2.286
  0
LINE
  8
0
 10
117.3
 20
2.286
 11
117.363
 21
2.28798
  0
LINE
  8
0
 10
117.363
 20
2.28798
 11
117.425
 21
2.29388
  0
LINE
  8
0
 10
117.425
 20
2.29388
 11
117.487
 21
2.30371
  0
LINE
  8
0
 10
117.487
 20
2.30371
 11
117.549
 21
2.31741
  0
LINE
  8
0
 10
117.549
 20
2.31741
 11
117.609
 21
2.33495
  0
LINE
  8
0
 10
117.609
 20
2.33495
 11
117.668
 21
2.35623
  0
LINE
  8
0
 10
117.668
 20
2.35623
 11
117.726
 21
2.38118
  0
LINE
  8
0
 10
117.726
 20
2.38118
 11
117.782
 21
2.4097
  0
LINE
  8
0
 10
117.782
 20
2.4097
 11
117.836
 21
2.44168
  0
LINE
  8
0
 10
117.836
 20
2.44168
 11
117.888
 21
2.47699
  0
LINE
  8
0
 10
117.888
 20
2.47699
 11
117.937
 21
2.51549
  0
LINE
  8
0
 10
117.937
 20
2.51549
 11
117.985
 21
2.55704
  0
LINE
  8
0
 10
117.985
 20
2.55704
 11
118.029
 21
2.60146
  0
LINE
  8
0
 10
118.029
 20
2.60146
 11
118.07
 21
2.64857
  0
LINE
  8
0
 10
118.07
 20
2.64857
 11
118.109
 21
2.69821
  0
LINE
  8
0
 10
118.109
 20
2.69821
 11
118.144
 21
2.75018
  0
LINE
  8
0
 10
118.144
 20
2.75018
 11
118.176
 21
2.80424
  0
LINE
  8
0
 10
118.176
 20
2.80424
 11
118.205
 21
2.86023
  0
LINE
  8
0
 10
118.205
 20
2.86023
 11
118.23
 21
2.91788
  0
LINE
  8
0
 10
118.23
 20
2.91788
 11
118.251
 21
2.97699
  0
LINE
  8
0
 10
118.251
 20
2.97699
 11
118.269
 21
3.03731
  0
LINE
  8
0
 10
118.269
 20
3.03731
 11
118.282
 21
3.09862
  0
LINE
  8
0
 10
118.282
 20
3.09862
 11
118.292
 21
3.16068
  0
LINE
  8
0
 10
118.292
 20
3.16068
 11
118.298
 21
3.22321
  0
LINE
  8
0
 10
118.298
 20
3.22321
 11
118.3
 21
3.286
  0
LINE
  8
0
 10
118.3
 20
3.286
 11
118.3
 21
62.436
  0
LINE
  8
0
 10
118.3
 20
62.436
 11
118.298
 21
62.4988
  0
LINE
  8
0
 10
118.298
 20
62.4988
 11
118.292
 21
62.5613
  0
LINE
  8
0
 10
118.292
 20
62.5613
 11
118.282
 21
62.6234
  0
LINE
  8
0
 10
118.282
 20
62.6234
 11
118.269
 21
62.6847
  0
LINE
  8
0
 10
118.269
 20
62.6847
 11
118.251
 21
62.745
  0
LINE
  8
0
 10
118.251
 20
62.745
 11
118.23
 21
62.8041
  0
LINE
  8
0
 10
118.23
 20
62.8041
 11
118.205
 21
62.8618
  0
LINE
  8
0
 10
118.205
 20
62.8618
 11
118.176
 21
62.9177
  0
LINE
  8
0
 10
118.176
 20
62.9177
 11
118.144
 21
62.9718
  0
LINE
  8
0
 10
118.144
 20
62.9718
 11
118.109
 21
63.0238
  0
LINE
  8
0
 10
118.109
 20
63.0238
 11
118.07
 21
63.0734
  0
LINE
  8
0
 10
118.07
 20
63.0734
 11
118.029
 21
63.1205
  0
LINE
  8
0
 10
118.029
 20
63.1205
 11
117.985
 21
63.1649
  0
LINE
  8
0
 10
117.985
 20
63.1649
 11
117.937
 21
63.2065
  0
LINE
  8
0
 10
117.937
 20
63.2065
 11
117.888
 21
63.245
  0
LINE
  8
0
 10
117.888
 20
63.245
 11
117.836
 21
63.2803
  0
LINE
  8
0
 10
117.836
 20
63.2803
 11
117.782
 21
63.3123
  0
LINE
  8
0
 10
117.782
 20
63.3123
 11
117.726
 21
63.3408
  0
LINE
  8
0
 10
117.726
 20
63.3408
 11
117.668
 21
63.3658
  0
LINE
  8
0
 10
117.668
 20
63.3658
 11
117.609
 21
63.387
  0
LINE
  8
0
 10
117.609
 20
63.387
 11
117.549
 21
63.4046
  0
LINE
  8
0
 10
117.549
 20
63.4046
 11
117.487
 21
63.4183
  0
LINE
  8
0
 10
117.487
 20
63.4183
 11
117.425
 21
63.4281
  0
LINE
  8
0
 10
117.425
 20
63.4281
 11
117.363
 21
63.434
  0
LINE
  8
0
 10
117.363
 20
63.434
 11
117.3
 21
63.436
  0
LINE
  8
0
 10
117.3
 20
63.436
 11
99.25
 21
63.436
  0
LINE
  8
0
 10
99.25
 20
63.436
 11
99.25
 21
64.9125
  0
LINE
  8
0
 10
99.25
 20
64.9125
 11
99.248
 21
64.9753
  0
LINE
  8
0
 10
99.248
 20
64.9753
 11
99.2421
 21
65.0378
  0
LINE
  8
0
 10
99.2421
 20
65.0378
 11
99.2323
 21
65.0999
  0
LINE
  8
0
 10
99.2323
 20
65.0999
 11
99.2186
 21
65.1612
  0
LINE
  8
0
 10
99.2186
 20
65.1612
 11
99.201
 21
65.2215
  0
LINE
  8
0
 10
99.201
 20
65.2215
 11
99.1798
 21
65.2806
  0
LINE
  8
0
 10
99.1798
 20
65.2806
 11
99.1548
 21
65.3383
  0
LINE
  8
0
 10
99.1548
 20
65.3383
 11
99.1263
 21
65.3942
  0
LINE
  8
0
 10
99.1263
 20
65.3942
 11
99.0943
 21
65.4483
  0
LINE
  8
0
 10
99.0943
 20
65.4483
 11
99.059
 21
65.5003
  0
LINE
  8
0
 10
99.059
 20
65.5003
 11
99.0205
 21
65.5499
  0
LINE
  8
0
 10
99.0205
 20
65.5499
 11
98.979
 21
65.597
  0
LINE
  8
0
 10
98.979
 20
65.597
 11
98.9345
 21
65.6414
  0
LINE
  8
0
 10
98.9345
 20
65.6414
 11
98.8874
 21
65.683
  0
LINE
  8
0
 10
98.8874
 20
65.683
 11
98.8378
 21
65.7215
  0
LINE
  8
0
 10
98.8378
 20
65.7215
 11
98.7858
 21
65.7568
  0
LINE
  8
0
 10
98.7858
 20
65.7568
 11
98.7318
 21
65.7888
  0
LINE
  8
0
 10
98.7318
 20
65.7888
 11
98.6758
 21
65.8173
  0
LINE
  8
0
 10
98.6758
 20
65.8173
 11
98.6181
 21
65.8423
  0
LINE
  8
0
 10
98.6181
 20
65.8423
 11
98.559
 21
65.8635
  0
LINE
  8
0
 10
98.559
 20
65.8635
 11
98.4987
 21
65.8811
  0
LINE
  8
0
 10
98.4987
 20
65.8811
 11
98.4374
 21
65.8948
  0
LINE
  8
0
 10
98.4374
 20
65.8948
 11
98.3753
 21
65.9046
  0
LINE
  8
0
 10
98.3753
 20
65.9046
 11
98.3128
 21
65.9105
  0
LINE
  8
0
 10
98.3128
 20
65.9105
 11
98.25
 21
65.9125
  0
LINE
  8
0
 10
98.25
 20
65.9125
 11
80.2
 21
65.9125
  0
LINE
  8
0
 10
80.2
 20
65.9125
 11
80.2
 21
67.1985
  0
LINE
  8
0
 10
80.2
 20
67.1985
 11
80.198
 21
67.2613
  0
LINE
  8
0
 10
80.198
 20
67.2613
 11
80.1921
 21
67.3238
  0
LINE
  8
0
 10
80.1921
 20
67.3238
 11
80.1823
 21
67.3859
  0
LINE
  8
0
 10
80.1823
 20
67.3859
 11
80.1686
 21
67.4472
  0
LINE
  8
0
 10
80.1686
 20
67.4472
 11
80.151
 21
67.5075
  0
LINE
  8
0
 10
80.151
 20
67.5075
 11
80.1298
 21
67.5666
  0
LINE
  8
0
 10
80.1298
 20
67.5666
 11
80.1048
 21
67.6243
  0
LINE
  8
0
 10
80.1048
 20
67.6243
 11
80.0763
 21
67.6802
  0
LINE
  8
0
 10
80.0763
 20
67.6802
 11
80.0443
 21
67.7343
  0
LINE
  8
0
 10
80.0443
 20
67.7343
 11
80.009
 21
67.7863
  0
LINE
  8
0
 10
80.009
 20
67.7863
 11
79.9705
 21
67.8359
  0
LINE
  8
0
 10
79.9705
 20
67.8359
 11
79.929
 21
67.883
  0
LINE
  8
0
 10
79.929
 20
67.883
 11
79.8845
 21
67.9274
  0
LINE
  8
0
 10
79.8845
 20
67.9274
 11
79.8374
 21
67.969
  0
LINE
  8
0
 10
79.8374
 20
67.969
 11
79.7878
 21
68.0075
  0
LINE
  8
0
 10
79.7878
 20
68.0075
 11
79.7358
 21
68.0428
  0
LINE
  8
0
 10
79.7358
 20
68.0428
 11
79.6817
 21
68.0748
  0
LINE
  8
0
 10
79.6817
 20
68.0748
 11
79.6258
 21
68.1033
  0
LINE
  8
0
 10
79.6258
 20
68.1033
 11
79.5681
 21
68.1283
  0
LINE
  8
0
 10
79.5681
 20
68.1283
 11
79.509
 21
68.1495
  0
LINE
  8
0
 10
79.509
 20
68.1495
 11
79.4487
 21
68.1671
  0
LINE
  8
0
 10
79.4487
 20
68.1671
 11
79.3874
 21
68.1808
  0
LINE
  8
0
 10
79.3874
 20
68.1808
 11
79.3253
 21
68.1906
  0
LINE
  8
0
 10
79.3253
 20
68.1906
 11
79.2628
 21
68.1965
  0
LINE
  8
0
 10
79.2628
 20
68.1965
 11
79.2
 21
68.1985
  0
LINE
  8
0
 10
79.2
 20
68.1985
 11
58.15
 21
68.1985
  0
LINE
  8
0
 10
58.15
 20
68.1985
 11
58.0872
 21
68.1965
  0
LINE
  8
0
 10
58.0872
 20
68.1965
 11
58.0247
 21
68.1906
  0
LINE
  8
0
 10
58.0247
 20
68.1906
 11
57.9626
 21
68.1808
  0
LINE
  8
0
 10
57.9626
 20
68.1808
 11
57.9013
 21
68.1671
  0
LINE
  8
0
 10
57.9013
 20
68.1671
 11
57.841
 21
68.1495
  0
LINE
  8
0
 10
57.841
 20
68.1495
 11
57.7819
 21
68.1283
  0
LINE
  8
0
 10
57.7819
 20
68.1283
 11
57.7242
 21
68.1033
  0
LINE
  8
0
 10
57.7242
 20
68.1033
 11
57.6682
 21
68.0748
  0
LINE
  8
0
 10
57.6682
 20
68.0748
 11
57.6142
 21
68.0428
  0
LINE
  8
0
 10
57.6142
 20
68.0428
 11
57.5622
 21
68.0075
  0
LINE
  8
0
 10
57.5622
 20
68.0075
 11
57.5126
 21
67.969
  0
LINE
  8
0
 10
57.5126
 20
67.969
 11
57.4655
 21
67.9274
  0
LINE
  8
0
 10
57.4655
 20
67.9274
 11
57.421
 21
67.883
  0
LINE
  8
0
 10
57.421
 20
67.883
 11
57.3795
 21
67.8359
  0
LINE
  8
0
 10
57.3795
 20
67.8359
 11
57.341
 21
67.7863
  0
LINE
  8
0
 10
57.341
 20
67.7863
 11
57.3057
 21
67.7343
  0
LINE
  8
0
 10
57.3057
 20
67.7343
 11
57.2737
 21
67.6802
  0
LINE
  8
0
 10
57.2737
 20
67.6802
 11
57.2452
 21
67.6243
  0
LINE
  8
0
 10
57.2452
 20
67.6243
 11
57.2202
 21
67.5666
  0
LINE
  8
0
 10
57.2202
 20
67.5666
 11
57.1989
 21
67.5075
  0
LINE
  8
0
 10
57.1989
 20
67.5075
 11
57.1814
 21
67.4472
  0
LINE
  8
0
 10
57.1814
 20
67.4472
 11
57.1677
 21
67.3859
  0
LINE
  8
0
 10
57.1677
 20
67.3859
 11
57.1579
 21
67.3238
  0
LINE
  8
0
 10
57.1579
 20
67.3238
 11
57.152
 21
67.2613
  0
LINE
  8
0
 10
57.152
 20
67.2613
 11
57.15
 21
67.1985
  0
LINE
  8
0
 10
57.15
 20
67.1985
 11
57.15
 21
65.9125
  0
LINE
  8
0
 10
57.15
 20
65.9125
 11
39.1
 21
65.9125
  0
LINE
  8
0
 10
39.1
 20
65.9125
 11
39.0372
 21
65.9105
  0
LINE
  8
0
 10
39.0372
 20
65.9105
 11
38.9747
 21
65.9046
  0
LINE
  8
0
 10
38.9747
 20
65.9046
 11
38.9126
 21
65.8948
  0
LINE
  8
0
 10
38.9126
 20
65.8948
 11
38.8513
 21
65.8811
  0
LINE
  8
0
 10
38.8513
 20
65.8811
 11
38.791
 21
65.8635
  0
LINE
  8
0
 10
38.791
 20
65.8635
 11
38.7319
 21
65.8423
  0
LINE
  8
0
 10
38.7319
 20
65.8423
 11
38.6742
 21
65.8173
  0
LINE
  8
0
 10
38.6742
 20
65.8173
 11
38.6182
 21
65.7888
  0
LINE
  8
0
 10
38.6182
 20
65.7888
 11
38.5642
 21
65.7568
  0
LINE
  8
0
 10
38.5642
 20
65.7568
 11
38.5122
 21
65.7215
  0
LINE
  8
0
 10
38.5122
 20
65.7215
 11
38.4626
 21
65.683
  0
LINE
  8
0
 10
38.4626
 20
65.683
 11
38.4155
 21
65.6414
  0
LINE
  8
0
 10
38.4155
 20
65.6414
 11
38.371
 21
65.597
  0
LINE
  8
0
 10
38.371
 20
65.597
 11
38.3295
 21
65.5499
  0
LINE
  8
0
 10
38.3295
 20
65.5499
 11
38.291
 21
65.5003
  0
LINE
  8
0
 10
38.291
 20
65.5003
 11
38.2557
 21
65.4483
  0
LINE
  8
0
 10
38.2557
 20
65.4483
 11
38.2237
 21
65.3942
  0
LINE
  8
0
 10
38.2237
 20
65.3942
 11
38.1952
 21
65.3383
  0
LINE
  8
0
 10
38.1952
 20
65.3383
 11
38.1702
 21
65.2806
  0
LINE
  8
0
 10
38.1702
 20
65.2806
 11
38.1489
 21
65.2215
  0
LINE
  8
0
 10
38.1489
 20
65.2215
 11
38.1314
 21
65.1612
  0
LINE
  8
0
 10
38.1314
 20
65.1612
 11
38.1177
 21
65.0999
  0
LINE
  8
0
 10
38.1177
 20
65.0999
 11
38.1079
 21
65.0378
  0
LINE
  8
0
 10
38.1079
 20
65.0378
 11
38.102
 21
64.9753
  0
LINE
  8
0
 10
38.102
 20
64.9753
 11
38.1
 21
64.9125
  0
LINE
  8
0
 10
38.1
 20
64.9125
 11
38.1
 21
61.15
  0
LINE
  8
0
 10
38.1
 20
61.15
 11
1
 21
61.15
  0
LINE
  8
0
 10
1
 20
61.15
 11
0.93721
 21
61.148
  0
LINE
  8
0
 10
0.93721
 20
61.148
 11
0.87468
 21
61.1421
  0
LINE
  8
0
 10
0.87468
 20
61.1421
 11
0.812622
 21
61.1323
  0
LINE
  8
0
 10
0.812622
 20
61.1323
 11
0.751312
 21
61.1186
  0
LINE
  8
0
 10
0.751312
 20
61.1186
 11
0.690994
 21
61.101
  0
LINE
  8
0
 10
0.690994
 20
61.101
 11
0.631882
 21
61.0798
  0
LINE
  8
0
 10
0.631882
 20
61.0798
 11
0.574234
 21
61.0548
  0
LINE
  8
0
 10
0.574234
 20
61.0548
 11
0.51825
 21
61.0263
  0
LINE
  8
0
 10
0.51825
 20
61.0263
 11
0.464188
 21
60.9943
  0
LINE
  8
0
 10
0.464188
 20
60.9943
 11
0.412216
 21
60.959
  0
LINE
  8
0
 10
0.412216
 20
60.959
 11
0.362579
 21
60.9205
  0
LINE
  8
0
 10
0.362579
 20
60.9205
 11
0.31546
 21
60.879
  0
LINE
  8
0
 10
0.31546
 20
60.879
 11
0.271042
 21
60.8345
  0
LINE
  8
0
 10
0.271042
 20
60.8345
 11
0.229492
 21
60.7874
  0
LINE
  8
0
 10
0.229492
 20
60.7874
 11
0.190994
 21
60.7378
  0
LINE
  8
0
 10
0.190994
 20
60.7378
 11
0.155685
 21
60.6858
  0
LINE
  8
0
 10
0.155685
 20
60.6858
 11
0.123703
 21
60.6317
  0
LINE
  8
0
 10
0.123703
 20
60.6317
 11
0.0951843
 21
60.5758
  0
LINE
  8
0
 10
0.0951843
 20
60.5758
 11
0.0702362
 21
60.5181
  0
LINE
  8
0
 10
0.0702362
 20
60.5181
 11
0.0489502
 21
60.459
  0
LINE
  8
0
 10
0.0489502
 20
60.459
 11
0.0314178
 21
60.3987
  0
LINE
  8
0
 10
0.0314178
 20
60.3987
 11
0.0177155
 21
60.3374
  0
LINE
  8
0
 10
0.0177155
 20
60.3374
 11
0.00788879
 21
60.2753
  0
LINE
  8
0
 10
0.00788879
 20
60.2753
 11
0.00198364
 21
60.2128
  0
LINE
  8
0
 10
0.00198364
 20
60.2128
 11
0
 21
60.15
  0
LINE
  8
0
 10
0
 20
60.15
 11
0
 21
1
  0
LINE
  8
0
 10
0
 20
1
 11
0.00198364
 21
0.93721
  0
LINE
  8
0
 10
0.00198364
 20
0.93721
 11
0.00788879
 21
0.87468
  0
LINE
  8
0
 10
0.00788879
 20
0.87468
 11
0.0177155
 21
0.812622
  0
LINE
  8
0
 10
0.0177155
 20
0.812622
 11
0.0314178
 21
0.751312
  0
LINE
  8
0
 10
0.0314178
 20
0.751312
 11
0.0489502
 21
0.690994
  0
LINE
  8
0
 10
0.0489502
 20
0.690994
 11
0.0702362
 21
0.631882
  0
LINE
  8
0
 10
0.0702362
 20
0.631882
 11
0.0951843
 21
0.574234
  0
LINE
  8
0
 10
0.0951843
 20
0.574234
 11
0.123703
 21
0.51825
  0
LINE
  8
0
 10
0.123703
 20
0.51825
 11
0.155685
 21
0.464188
  0
LINE
  8
0
 10
0.155685
 20
0.464188
 11
0.190994
 21
0.412216
  0
LINE
  8
0
 10
0.190994
 20
0.412216
 11
0.229492
 21
0.362579
  0
LINE
  8
0
 10
0.229492
 20
0.362579
 11
0.271042
 21
0.31546
  0
LINE
  8
0
 10
0.271042
 20
0.31546
 11
0.31546
 21
0.271042
  0
LINE
  8
0
 10
0.31546
 20
0.271042
 11
0.362579
 21
0.229492
  0
LINE
  8
0
 10
0.362579
 20
0.229492
 11
0.412216
 21
0.190994
  0
LINE
  8
0
 10
0.412216
 20
0.190994
 11
0.464188
 21
0.155685
  0
LINE
  8
0
 10
0.464188
 20
0.155685
 11
0.51825
 21
0.123703
  0
LINE
  8
0
 10
0.51825
 20
0.123703
 11
0.574234
 21
0.0951843
  0
LINE
  8
0
 10
0.574234
 20
0.0951843
 11
0.631882
 21
0.0702362
  0
LINE
  8
0
 10
0.631882
 20
0.0702362
 11
0.690994
 21
0.0489502
  0
LINE
  8
0
 10
0.690994
 20
0.0489502
 11
0.751312
 21
0.0314178
  0
LINE
  8
0
 10
0.751312
 20
0.0314178
 11
0.812622
 21
0.0177155
  0
LINE
  8
0
 10
0.812622
 20
0.0177155
 11
0.87468
 21
0.00788879
  0
LINE
  8
0
 10
0.87468
 20
0.00788879
 11
0.93721
 21
0.00198364
  0
LINE
  8
0
 10
0.93721
 20
0.00198364
 11
1
 21
0
  0
LINE
  8
0
 10
1
 20
0
 11
41.1
 21
0
  0
LINE
  8
0
 10
41.1
 20
0
 11
41.1628
 21
0.00198364
  0
LINE
  8
0
 10
61.675
 20
49.6735
 11
61.675
 21
63.6735
  0
LINE
  8
0
 10
61.675
 20
63.6735
 11
75.675
 21
63.6735
  0
LINE
  8
0
 10
75.675
 20
63.6735
 11
75.675
 21
49.6735
  0
LINE
  8
0
 10
75.675
 20
49.6735
 11
61.675
 21
49.6735
  0
LINE
  8
0
 10
42.625
 20
47.3875
 11
42.625
 21
61.3875
  0
LINE
  8
0
 10
42.625
 20
61.3875
 11
56.625
 21
61.3875
  0
LINE
  8
0
 10
56.625
 20
61.3875
 11
56.625
 21
47.3875
  0
LINE
  8
0
 10
56.625
 20
47.3875
 11
42.625
 21
47.3875
  0
LINE
  8
0
 10
80.725
 20
47.3875
 11
80.725
 21
61.3875
  0
LINE
  8
0
 10
80.725
 20
61.3875
 11
94.725
 21
61.3875
  0
LINE
  8
0
 10
94.725
 20
61.3875
 11
94.725
 21
47.3875
  0
LINE
  8
0
 10
94.725
 20
47.3875
 11
80.725
 21
47.3875
  0
LINE
  8
0
 10
99.775
 20
44.911
 11
99.775
 21
58.911
  0
LINE
  8
0
 10
99.775
 20
58.911
 11
113.775
 21
58.911
  0
LINE
  8
0
 10
113.775
 20
58.911
 11
113.775
 21
44.911
  0
LINE
  8
0
 10
113.775
 20
44.911
 11
99.775
 21
44.911
  0
LINE
  8
0
 10
23.575
 20
42.625
 11
23.575
 21
56.625
  0
LINE
  8
0
 10
23.575
 20
56.625
 11
37.575
 21
56.625
  0
LINE
  8
0
 10
37.575
 20
56.625
 11
37.575
 21
42.625
  0
LINE
  8
0
 10
37.575
 20
42.625
 11
23.575
 21
42.625
  0
LINE
  8
0
 10
4.52499
 20
42.625
 11
4.52499
 21
56.625
  0
LINE
  8
0
 10
4.52499
 20
56.625
 11
18.525
 21
56.625
  0
LINE
  8
0
 10
18.525
 20
56.625
 11
18.525
 21
42.625
  0
LINE
  8
0
 10
18.525
 20
42.625
 11
4.52499
 21
42.625
  0
LINE
  8
0
 10
97.1684
 20
42.3268
 11
97.0871
 21
42.3345
  0
LINE
  8
0
 10
97.0871
 20
42.3345
 11
97.0064
 21
42.3473
  0
LINE
  8
0
 10
97.0064
 20
42.3473
 11
96.9267
 21
42.3651
  0
LINE
  8
0
 10
96.9267
 20
42.3651
 11
96.8483
 21
42.3879
  0
LINE
  8
0
 10
96.8483
 20
42.3879
 11
96.7714
 21
42.4155
  0
LINE
  8
0
 10
96.7714
 20
42.4155
 11
96.6965
 21
42.448
  0
LINE
  8
0
 10
96.6965
 20
42.448
 11
96.6237
 21
42.485
  0
LINE
  8
0
 10
96.6237
 20
42.485
 11
96.5534
 21
42.5266
  0
LINE
  8
0
 10
96.5534
 20
42.5266
 11
96.4859
 21
42.5725
  0
LINE
  8
0
 10
96.4859
 20
42.5725
 11
96.4213
 21
42.6226
  0
LINE
  8
0
 10
96.4213
 20
42.6226
 11
96.3601
 21
42.6766
  0
LINE
  8
0
 10
96.3601
 20
42.6766
 11
96.3023
 21
42.7343
  0
LINE
  8
0
 10
96.3023
 20
42.7343
 11
96.2483
 21
42.7956
  0
LINE
  8
0
 10
96.2483
 20
42.7956
 11
96.1983
 21
42.8601
  0
LINE
  8
0
 10
96.1983
 20
42.8601
 11
96.1524
 21
42.9277
  0
LINE
  8
0
 10
96.1524
 20
42.9277
 11
96.1108
 21
42.998
  0
LINE
  8
0
 10
96.1108
 20
42.998
 11
96.0737
 21
43.0707
  0
LINE
  8
0
 10
96.0737
 20
43.0707
 11
96.0413
 21
43.1457
  0
LINE
  8
0
 10
96.0413
 20
43.1457
 11
96.0136
 21
43.2225
  0
LINE
  8
0
 10
96.0136
 20
43.2225
 11
95.9908
 21
43.3009
  0
LINE
  8
0
 10
95.9908
 20
43.3009
 11
95.973
 21
43.3806
  0
LINE
  8
0
 10
95.973
 20
43.3806
 11
95.9603
 21
43.4613
  0
LINE
  8
0
 10
95.9603
 20
43.4613
 11
95.9526
 21
43.5426
  0
LINE
  8
0
 10
95.9526
 20
43.5426
 11
95.95
 21
43.6242
  0
LINE
  8
0
 10
95.95
 20
43.6242
 11
95.9526
 21
43.7059
  0
LINE
  8
0
 10
95.9526
 20
43.7059
 11
95.9603
 21
43.7872
  0
LINE
  8
0
 10
95.9603
 20
43.7872
 11
95.973
 21
43.8678
  0
LINE
  8
0
 10
95.973
 20
43.8678
 11
95.9908
 21
43.9475
  0
LINE
  8
0
 10
95.9908
 20
43.9475
 11
96.0136
 21
44.026
  0
LINE
  8
0
 10
96.0136
 20
44.026
 11
96.0413
 21
44.1028
  0
LINE
  8
0
 10
96.0413
 20
44.1028
 11
96.0737
 21
44.1777
  0
LINE
  8
0
 10
96.0737
 20
44.1777
 11
96.1108
 21
44.2505
  0
LINE
  8
0
 10
96.1108
 20
44.2505
 11
96.1524
 21
44.3208
  0
LINE
  8
0
 10
96.1524
 20
44.3208
 11
96.1983
 21
44.3884
  0
LINE
  8
0
 10
96.1983
 20
44.3884
 11
96.2483
 21
44.4529
  0
LINE
  8
0
 10
96.2483
 20
44.4529
 11
96.3023
 21
44.5142
  0
LINE
  8
0
 10
96.3023
 20
44.5142
 11
96.3601
 21
44.5719
  0
LINE
  8
0
 10
96.3601
 20
44.5719
 11
96.4213
 21
44.6259
  0
LINE
  8
0
 10
96.4213
 20
44.6259
 11
96.4859
 21
44.676
  0
LINE
  8
0
 10
96.4859
 20
44.676
 11
96.5534
 21
44.7219
  0
LINE
  8
0
 10
96.5534
 20
44.7219
 11
96.6237
 21
44.7634
  0
LINE
  8
0
 10
96.6237
 20
44.7634
 11
96.6965
 21
44.8005
  0
LINE
  8
0
 10
96.6965
 20
44.8005
 11
96.7714
 21
44.8329
  0
LINE
  8
0
 10
96.7714
 20
44.8329
 11
96.8483
 21
44.8606
  0
LINE
  8
0
 10
96.8483
 20
44.8606
 11
96.9267
 21
44.8834
  0
LINE
  8
0
 10
96.9267
 20
44.8834
 11
97.0064
 21
44.9012
  0
LINE
  8
0
 10
97.0064
 20
44.9012
 11
97.0871
 21
44.914
  0
LINE
  8
0
 10
97.0871
 20
44.914
 11
97.1684
 21
44.9217
  0
LINE
  8
0
 10
97.1684
 20
44.9217
 11
97.25
 21
44.9242
  0
LINE
  8
0
 10
97.25
 20
44.9242
 11
97.3316
 21
44.9217
  0
LINE
  8
0
 10
97.3316
 20
44.9217
 11
97.4129
 21
44.914
  0
LINE
  8
0
 10
97.4129
 20
44.914
 11
97.4936
 21
44.9012
  0
LINE
  8
0
 10
97.4936
 20
44.9012
 11
97.5733
 21
44.8834
  0
LINE
  8
0
 10
97.5733
 20
44.8834
 11
97.6517
 21
44.8606
  0
LINE
  8
0
 10
97.6517
 20
44.8606
 11
97.7286
 21
44.8329
  0
LINE
  8
0
 10
97.7286
 20
44.8329
 11
97.8035
 21
44.8005
  0
LINE
  8
0
 10
97.8035
 20
44.8005
 11
97.8763
 21
44.7634
  0
LINE
  8
0
 10
97.8763
 20
44.7634
 11
97.9466
 21
44.7219
  0
LINE
  8
0
 10
97.9466
 20
44.7219
 11
98.0141
 21
44.676
  0
LINE
  8
0
 10
98.0141
 20
44.676
 11
98.0786
 21
44.6259
  0
LINE
  8
0
 10
98.0786
 20
44.6259
 11
98.1399
 21
44.5719
  0
LINE
  8
0
 10
98.1399
 20
44.5719
 11
98.1976
 21
44.5142
  0
LINE
  8
0
 10
98.1976
 20
44.5142
 11
98.2517
 21
44.4529
  0
LINE
  8
0
 10
98.2517
 20
44.4529
 11
98.3017
 21
44.3884
  0
LINE
  8
0
 10
98.3017
 20
44.3884
 11
98.3476
 21
44.3208
  0
LINE
  8
0
 10
98.3476
 20
44.3208
 11
98.3892
 21
44.2505
  0
LINE
  8
0
 10
98.3892
 20
44.2505
 11
98.4263
 21
44.1777
  0
LINE
  8
0
 10
98.4263
 20
44.1777
 11
98.4587
 21
44.1028
  0
LINE
  8
0
 10
98.4587
 20
44.1028
 11
98.4864
 21
44.026
  0
LINE
  8
0
 10
98.4864
 20
44.026
 11
98.5092
 21
43.9475
  0
LINE
  8
0
 10
98.5092
 20
43.9475
 11
98.527
 21
43.8678
  0
LINE
  8
0
 10
98.527
 20
43.8678
 11
98.5397
 21
43.7872
  0
LINE
  8
0
 10
98.5397
 20
43.7872
 11
98.5474
 21
43.7059
  0
LINE
  8
0
 10
98.5474
 20
43.7059
 11
98.55
 21
43.6242
  0
LINE
  8
0
 10
98.55
 20
43.6242
 11
98.5474
 21
43.5426
  0
LINE
  8
0
 10
98.5474
 20
43.5426
 11
98.5397
 21
43.4613
  0
LINE
  8
0
 10
98.5397
 20
43.4613
 11
98.527
 21
43.3806
  0
LINE
  8
0
 10
98.527
 20
43.3806
 11
98.5092
 21
43.3009
  0
LINE
  8
0
 10
98.5092
 20
43.3009
 11
98.4864
 21
43.2225
  0
LINE
  8
0
 10
98.4864
 20
43.2225
 11
98.4587
 21
43.1457
  0
LINE
  8
0
 10
98.4587
 20
43.1457
 11
98.4263
 21
43.0707
  0
LINE
  8
0
 10
98.4263
 20
43.0707
 11
98.3892
 21
42.998
  0
LINE
  8
0
 10
98.3892
 20
42.998
 11
98.3476
 21
42.9277
  0
LINE
  8
0
 10
98.3476
 20
42.9277
 11
98.3017
 21
42.8601
  0
LINE
  8
0
 10
98.3017
 20
42.8601
 11
98.2517
 21
42.7956
  0
LINE
  8
0
 10
98.2517
 20
42.7956
 11
98.1976
 21
42.7343
  0
LINE
  8
0
 10
98.1976
 20
42.7343
 11
98.1399
 21
42.6766
  0
LINE
  8
0
 10
98.1399
 20
42.6766
 11
98.0786
 21
42.6226
  0
LINE
  8
0
 10
98.0786
 20
42.6226
 11
98.0141
 21
42.5725
  0
LINE
  8
0
 10
98.0141
 20
42.5725
 11
97.9466
 21
42.5266
  0
LINE
  8
0
 10
97.9466
 20
42.5266
 11
97.8763
 21
42.485
  0
LINE
  8
0
 10
97.8763
 20
42.485
 11
97.8035
 21
42.448
  0
LINE
  8
0
 10
97.8035
 20
42.448
 11
97.7286
 21
42.4155
  0
LINE
  8
0
 10
97.7286
 20
42.4155
 11
97.6517
 21
42.3879
  0
LINE
  8
0
 10
97.6517
 20
42.3879
 11
97.5733
 21
42.3651
  0
LINE
  8
0
 10
97.5733
 20
42.3651
 11
97.4936
 21
42.3473
  0
LINE
  8
0
 10
97.4936
 20
42.3473
 11
97.4129
 21
42.3345
  0
LINE
  8
0
 10
97.4129
 20
42.3345
 11
97.3316
 21
42.3268
  0
LINE
  8
0
 10
97.3316
 20
42.3268
 11
97.25
 21
42.3242
  0
LINE
  8
0
 10
97.25
 20
42.3242
 11
97.1684
 21
42.3268
  0
LINE
  8
0
 10
61.675
 20
30.6235
 11
61.675
 21
44.6235
  0
LINE
  8
0
 10
61.675
 20
44.6235
 11
75.675
 21
44.6235
  0
LINE
  8
0
 10
75.675
 20
44.6235
 11
75.675
 21
30.6235
  0
LINE
  8
0
 10
75.675
 20
30.6235
 11
61.675
 21
30.6235
  0
LINE
  8
0
 10
42.625
 20
28.3375
 11
42.625
 21
42.3375
  0
LINE
  8
0
 10
42.625
 20
42.3375
 11
56.625
 21
42.3375
  0
LINE
  8
0
 10
56.625
 20
42.3375
 11
56.625
 21
28.3375
  0
LINE
  8
0
 10
56.625
 20
28.3375
 11
42.625
 21
28.3375
  0
LINE
  8
0
 10
80.725
 20
28.3375
 11
80.725
 21
42.3375
  0
LINE
  8
0
 10
80.725
 20
42.3375
 11
94.725
 21
42.3375
  0
LINE
  8
0
 10
94.725
 20
42.3375
 11
94.725
 21
28.3375
  0
LINE
  8
0
 10
94.725
 20
28.3375
 11
80.725
 21
28.3375
  0
LINE
  8
0
 10
20.9684
 20
38.8026
 11
20.8871
 21
38.8102
  0
LINE
  8
0
 10
20.8871
 20
38.8102
 11
20.8064
 21
38.823
  0
LINE
  8
0
 10
20.8064
 20
38.823
 11
20.7267
 21
38.8408
  0
LINE
  8
0
 10
20.7267
 20
38.8408
 11
20.6483
 21
38.8636
  0
LINE
  8
0
 10
20.6483
 20
38.8636
 11
20.5714
 21
38.8913
  0
LINE
  8
0
 10
20.5714
 20
38.8913
 11
20.4965
 21
38.9237
  0
LINE
  8
0
 10
20.4965
 20
38.9237
 11
20.4237
 21
38.9608
  0
LINE
  8
0
 10
20.4237
 20
38.9608
 11
20.3534
 21
39.0024
  0
LINE
  8
0
 10
20.3534
 20
39.0024
 11
20.2859
 21
39.0483
  0
LINE
  8
0
 10
20.2859
 20
39.0483
 11
20.2213
 21
39.0983
  0
LINE
  8
0
 10
20.2213
 20
39.0983
 11
20.1601
 21
39.1523
  0
LINE
  8
0
 10
20.1601
 20
39.1523
 11
20.1023
 21
39.2101
  0
LINE
  8
0
 10
20.1023
 20
39.2101
 11
20.0483
 21
39.2713
  0
LINE
  8
0
 10
20.0483
 20
39.2713
 11
19.9983
 21
39.3359
  0
LINE
  8
0
 10
19.9983
 20
39.3359
 11
19.9524
 21
39.4034
  0
LINE
  8
0
 10
19.9524
 20
39.4034
 11
19.9108
 21
39.4737
  0
LINE
  8
0
 10
19.9108
 20
39.4737
 11
19.8737
 21
39.5465
  0
LINE
  8
0
 10
19.8737
 20
39.5465
 11
19.8413
 21
39.6214
  0
LINE
  8
0
 10
19.8413
 20
39.6214
 11
19.8136
 21
39.6983
  0
LINE
  8
0
 10
19.8136
 20
39.6983
 11
19.7908
 21
39.7767
  0
LINE
  8
0
 10
19.7908
 20
39.7767
 11
19.773
 21
39.8564
  0
LINE
  8
0
 10
19.773
 20
39.8564
 11
19.7602
 21
39.9371
  0
LINE
  8
0
 10
19.7602
 20
39.9371
 11
19.7526
 21
40.0184
  0
LINE
  8
0
 10
19.7526
 20
40.0184
 11
19.75
 21
40.1
  0
LINE
  8
0
 10
19.75
 20
40.1
 11
19.7526
 21
40.1816
  0
LINE
  8
0
 10
19.7526
 20
40.1816
 11
19.7602
 21
40.2629
  0
LINE
  8
0
 10
19.7602
 20
40.2629
 11
19.773
 21
40.3436
  0
LINE
  8
0
 10
19.773
 20
40.3436
 11
19.7908
 21
40.4233
  0
LINE
  8
0
 10
19.7908
 20
40.4233
 11
19.8136
 21
40.5017
  0
LINE
  8
0
 10
19.8136
 20
40.5017
 11
19.8413
 21
40.5786
  0
LINE
  8
0
 10
19.8413
 20
40.5786
 11
19.8737
 21
40.6535
  0
LINE
  8
0
 10
19.8737
 20
40.6535
 11
19.9108
 21
40.7263
  0
LINE
  8
0
 10
19.9108
 20
40.7263
 11
19.9524
 21
40.7966
  0
LINE
  8
0
 10
19.9524
 20
40.7966
 11
19.9983
 21
40.8641
  0
LINE
  8
0
 10
19.9983
 20
40.8641
 11
20.0483
 21
40.9286
  0
LINE
  8
0
 10
20.0483
 20
40.9286
 11
20.1023
 21
40.9899
  0
LINE
  8
0
 10
20.1023
 20
40.9899
 11
20.1601
 21
41.0477
  0
LINE
  8
0
 10
20.1601
 20
41.0477
 11
20.2213
 21
41.1017
  0
LINE
  8
0
 10
20.2213
 20
41.1017
 11
20.2859
 21
41.1517
  0
LINE
  8
0
 10
20.2859
 20
41.1517
 11
20.3534
 21
41.1976
  0
LINE
  8
0
 10
20.3534
 20
41.1976
 11
20.4237
 21
41.2392
  0
LINE
  8
0
 10
20.4237
 20
41.2392
 11
20.4965
 21
41.2763
  0
LINE
  8
0
 10
20.4965
 20
41.2763
 11
20.5714
 21
41.3087
  0
LINE
  8
0
 10
20.5714
 20
41.3087
 11
20.6483
 21
41.3364
  0
LINE
  8
0
 10
20.6483
 20
41.3364
 11
20.7267
 21
41.3591
  0
LINE
  8
0
 10
20.7267
 20
41.3591
 11
20.8064
 21
41.377
  0
LINE
  8
0
 10
20.8064
 20
41.377
 11
20.8871
 21
41.3897
  0
LINE
  8
0
 10
20.8871
 20
41.3897
 11
20.9684
 21
41.3974
  0
LINE
  8
0
 10
20.9684
 20
41.3974
 11
21.05
 21
41.4
  0
LINE
  8
0
 10
21.05
 20
41.4
 11
21.1316
 21
41.3974
  0
LINE
  8
0
 10
21.1316
 20
41.3974
 11
21.2129
 21
41.3897
  0
LINE
  8
0
 10
21.2129
 20
41.3897
 11
21.2936
 21
41.377
  0
LINE
  8
0
 10
21.2936
 20
41.377
 11
21.3733
 21
41.3591
  0
LINE
  8
0
 10
21.3733
 20
41.3591
 11
21.4517
 21
41.3364
  0
LINE
  8
0
 10
21.4517
 20
41.3364
 11
21.5285
 21
41.3087
  0
LINE
  8
0
 10
21.5285
 20
41.3087
 11
21.6035
 21
41.2763
  0
LINE
  8
0
 10
21.6035
 20
41.2763
 11
21.6763
 21
41.2392
  0
LINE
  8
0
 10
21.6763
 20
41.2392
 11
21.7466
 21
41.1976
  0
LINE
  8
0
 10
21.7466
 20
41.1976
 11
21.8141
 21
41.1517
  0
LINE
  8
0
 10
21.8141
 20
41.1517
 11
21.8786
 21
41.1017
  0
LINE
  8
0
 10
21.8786
 20
41.1017
 11
21.9399
 21
41.0477
  0
LINE
  8
0
 10
21.9399
 20
41.0477
 11
21.9977
 21
40.9899
  0
LINE
  8
0
 10
21.9977
 20
40.9899
 11
22.0517
 21
40.9286
  0
LINE
  8
0
 10
22.0517
 20
40.9286
 11
22.1017
 21
40.8641
  0
LINE
  8
0
 10
22.1017
 20
40.8641
 11
22.1476
 21
40.7966
  0
LINE
  8
0
 10
22.1476
 20
40.7966
 11
22.1892
 21
40.7263
  0
LINE
  8
0
 10
22.1892
 20
40.7263
 11
22.2263
 21
40.6535
  0
LINE
  8
0
 10
22.2263
 20
40.6535
 11
22.2587
 21
40.5786
  0
LINE
  8
0
 10
22.2587
 20
40.5786
 11
22.2864
 21
40.5017
  0
LINE
  8
0
 10
22.2864
 20
40.5017
 11
22.3091
 21
40.4233
  0
LINE
  8
0
 10
22.3091
 20
40.4233
 11
22.327
 21
40.3436
  0
LINE
  8
0
 10
22.327
 20
40.3436
 11
22.3397
 21
40.2629
  0
LINE
  8
0
 10
22.3397
 20
40.2629
 11
22.3474
 21
40.1816
  0
LINE
  8
0
 10
22.3474
 20
40.1816
 11
22.35
 21
40.1
  0
LINE
  8
0
 10
22.35
 20
40.1
 11
22.3474
 21
40.0184
  0
LINE
  8
0
 10
22.3474
 20
40.0184
 11
22.3397
 21
39.9371
  0
LINE
  8
0
 10
22.3397
 20
39.9371
 11
22.327
 21
39.8564
  0
LINE
  8
0
 10
22.327
 20
39.8564
 11
22.3091
 21
39.7767
  0
LINE
  8
0
 10
22.3091
 20
39.7767
 11
22.2864
 21
39.6983
  0
LINE
  8
0
 10
22.2864
 20
39.6983
 11
22.2587
 21
39.6214
  0
LINE
  8
0
 10
22.2587
 20
39.6214
 11
22.2263
 21
39.5465
  0
LINE
  8
0
 10
22.2263
 20
39.5465
 11
22.1892
 21
39.4737
  0
LINE
  8
0
 10
22.1892
 20
39.4737
 11
22.1476
 21
39.4034
  0
LINE
  8
0
 10
22.1476
 20
39.4034
 11
22.1017
 21
39.3359
  0
LINE
  8
0
 10
22.1017
 20
39.3359
 11
22.0517
 21
39.2713
  0
LINE
  8
0
 10
22.0517
 20
39.2713
 11
21.9977
 21
39.2101
  0
LINE
  8
0
 10
21.9977
 20
39.2101
 11
21.9399
 21
39.1523
  0
LINE
  8
0
 10
21.9399
 20
39.1523
 11
21.8786
 21
39.0983
  0
LINE
  8
0
 10
21.8786
 20
39.0983
 11
21.8141
 21
39.0483
  0
LINE
  8
0
 10
21.8141
 20
39.0483
 11
21.7466
 21
39.0024
  0
LINE
  8
0
 10
21.7466
 20
39.0024
 11
21.6763
 21
38.9608
  0
LINE
  8
0
 10
21.6763
 20
38.9608
 11
21.6035
 21
38.9237
  0
LINE
  8
0
 10
21.6035
 20
38.9237
 11
21.5285
 21
38.8913
  0
LINE
  8
0
 10
21.5285
 20
38.8913
 11
21.4517
 21
38.8636
  0
LINE
  8
0
 10
21.4517
 20
38.8636
 11
21.3733
 21
38.8408
  0
LINE
  8
0
 10
21.3733
 20
38.8408
 11
21.2936
 21
38.823
  0
LINE
  8
0
 10
21.2936
 20
38.823
 11
21.2129
 21
38.8102
  0
LINE
  8
0
 10
21.2129
 20
38.8102
 11
21.1316
 21
38.8026
  0
LINE
  8
0
 10
21.1316
 20
38.8026
 11
21.05
 21
38.8
  0
LINE
  8
0
 10
21.05
 20
38.8
 11
20.9684
 21
38.8026
  0
LINE
  8
0
 10
99.775
 20
25.861
 11
99.775
 21
39.861
  0
LINE
  8
0
 10
99.775
 20
39.861
 11
113.775
 21
39.861
  0
LINE
  8
0
 10
113.775
 20
39.861
 11
113.775
 21
25.861
  0
LINE
  8
0
 10
113.775
 20
25.861
 11
99.775
 21
25.861
  0
LINE
  8
0
 10
4.52499
 20
23.575
 11
4.52499
 21
37.575
  0
LINE
  8
0
 10
4.52499
 20
37.575
 11
18.525
 21
37.575
  0
LINE
  8
0
 10
18.525
 20
37.575
 11
18.525
 21
23.575
  0
LINE
  8
0
 10
18.525
 20
23.575
 11
4.52499
 21
23.575
  0
LINE
  8
0
 10
23.575
 20
23.575
 11
23.575
 21
37.575
  0
LINE
  8
0
 10
23.575
 20
37.575
 11
37.575
 21
37.575
  0
LINE
  8
0
 10
37.575
 20
37.575
 11
37.575
 21
23.575
  0
LINE
  8
0
 10
37.575
 20
23.575
 11
23.575
 21
23.575
  0
LINE
  8
0
 10
97.1684
 20
23.2768
 11
97.0871
 21
23.2845
  0
LINE
  8
0
 10
97.0871
 20
23.2845
 11
97.0064
 21
23.2973
  0
LINE
  8
0
 10
97.0064
 20
23.2973
 11
96.9267
 21
23.3151
  0
LINE
  8
0
 10
96.9267
 20
23.3151
 11
96.8483
 21
23.3379
  0
LINE
  8
0
 10
96.8483
 20
23.3379
 11
96.7714
 21
23.3655
  0
LINE
  8
0
 10
96.7714
 20
23.3655
 11
96.6965
 21
23.398
  0
LINE
  8
0
 10
96.6965
 20
23.398
 11
96.6237
 21
23.435
  0
LINE
  8
0
 10
96.6237
 20
23.435
 11
96.5534
 21
23.4766
  0
LINE
  8
0
 10
96.5534
 20
23.4766
 11
96.4859
 21
23.5225
  0
LINE
  8
0
 10
96.4859
 20
23.5225
 11
96.4213
 21
23.5726
  0
LINE
  8
0
 10
96.4213
 20
23.5726
 11
96.3601
 21
23.6266
  0
LINE
  8
0
 10
96.3601
 20
23.6266
 11
96.3023
 21
23.6843
  0
LINE
  8
0
 10
96.3023
 20
23.6843
 11
96.2483
 21
23.7456
  0
LINE
  8
0
 10
96.2483
 20
23.7456
 11
96.1983
 21
23.8101
  0
LINE
  8
0
 10
96.1983
 20
23.8101
 11
96.1524
 21
23.8777
  0
LINE
  8
0
 10
96.1524
 20
23.8777
 11
96.1108
 21
23.948
  0
LINE
  8
0
 10
96.1108
 20
23.948
 11
96.0737
 21
24.0207
  0
LINE
  8
0
 10
96.0737
 20
24.0207
 11
96.0413
 21
24.0957
  0
LINE
  8
0
 10
96.0413
 20
24.0957
 11
96.0136
 21
24.1725
  0
LINE
  8
0
 10
96.0136
 20
24.1725
 11
95.9908
 21
24.2509
  0
LINE
  8
0
 10
95.9908
 20
24.2509
 11
95.973
 21
24.3306
  0
LINE
  8
0
 10
95.973
 20
24.3306
 11
95.9603
 21
24.4113
  0
LINE
  8
0
 10
95.9603
 20
24.4113
 11
95.9526
 21
24.4926
  0
LINE
  8
0
 10
95.9526
 20
24.4926
 11
95.95
 21
24.5742
  0
LINE
  8
0
 10
95.95
 20
24.5742
 11
95.9526
 21
24.6559
  0
LINE
  8
0
 10
95.9526
 20
24.6559
 11
95.9603
 21
24.7372
  0
LINE
  8
0
 10
95.9603
 20
24.7372
 11
95.973
 21
24.8178
  0
LINE
  8
0
 10
95.973
 20
24.8178
 11
95.9908
 21
24.8975
  0
LINE
  8
0
 10
95.9908
 20
24.8975
 11
96.0136
 21
24.976
  0
LINE
  8
0
 10
96.0136
 20
24.976
 11
96.0413
 21
25.0528
  0
LINE
  8
0
 10
96.0413
 20
25.0528
 11
96.0737
 21
25.1278
  0
LINE
  8
0
 10
96.0737
 20
25.1278
 11
96.1108
 21
25.2005
  0
LINE
  8
0
 10
96.1108
 20
25.2005
 11
96.1524
 21
25.2708
  0
LINE
  8
0
 10
96.1524
 20
25.2708
 11
96.1983
 21
25.3384
  0
LINE
  8
0
 10
96.1983
 20
25.3384
 11
96.2483
 21
25.4029
  0
LINE
  8
0
 10
96.2483
 20
25.4029
 11
96.3023
 21
25.4642
  0
LINE
  8
0
 10
96.3023
 20
25.4642
 11
96.3601
 21
25.5219
  0
LINE
  8
0
 10
96.3601
 20
25.5219
 11
96.4213
 21
25.5759
  0
LINE
  8
0
 10
96.4213
 20
25.5759
 11
96.4859
 21
25.626
  0
LINE
  8
0
 10
96.4859
 20
25.626
 11
96.5534
 21
25.6719
  0
LINE
  8
0
 10
96.5534
 20
25.6719
 11
96.6237
 21
25.7134
  0
LINE
  8
0
 10
96.6237
 20
25.7134
 11
96.6965
 21
25.7505
  0
LINE
  8
0
 10
96.6965
 20
25.7505
 11
96.7714
 21
25.783
  0
LINE
  8
0
 10
96.7714
 20
25.783
 11
96.8483
 21
25.8106
  0
LINE
  8
0
 10
96.8483
 20
25.8106
 11
96.9267
 21
25.8334
  0
LINE
  8
0
 10
96.9267
 20
25.8334
 11
97.0064
 21
25.8512
  0
LINE
  8
0
 10
97.0064
 20
25.8512
 11
97.0871
 21
25.864
  0
LINE
  8
0
 10
97.0871
 20
25.864
 11
97.1684
 21
25.8717
  0
LINE
  8
0
 10
97.1684
 20
25.8717
 11
97.25
 21
25.8742
  0
LINE
  8
0
 10
97.25
 20
25.8742
 11
97.3316
 21
25.8717
  0
LINE
  8
0
 10
97.3316
 20
25.8717
 11
97.4129
 21
25.864
  0
LINE
  8
0
 10
97.4129
 20
25.864
 11
97.4936
 21
25.8512
  0
LINE
  8
0
 10
97.4936
 20
25.8512
 11
97.5733
 21
25.8334
  0
LINE
  8
0
 10
97.5733
 20
25.8334
 11
97.6517
 21
25.8106
  0
LINE
  8
0
 10
97.6517
 20
25.8106
 11
97.7286
 21
25.783
  0
LINE
  8
0
 10
97.7286
 20
25.783
 11
97.8035
 21
25.7505
  0
LINE
  8
0
 10
97.8035
 20
25.7505
 11
97.8763
 21
25.7134
  0
LINE
  8
0
 10
97.8763
 20
25.7134
 11
97.9466
 21
25.6719
  0
LINE
  8
0
 10
97.9466
 20
25.6719
 11
98.0141
 21
25.626
  0
LINE
  8
0
 10
98.0141
 20
25.626
 11
98.0786
 21
25.5759
  0
LINE
  8
0
 10
98.0786
 20
25.5759
 11
98.1399
 21
25.5219
  0
LINE
  8
0
 10
98.1399
 20
25.5219
 11
98.1976
 21
25.4642
  0
LINE
  8
0
 10
98.1976
 20
25.4642
 11
98.2517
 21
25.4029
  0
LINE
  8
0
 10
98.2517
 20
25.4029
 11
98.3017
 21
25.3384
  0
LINE
  8
0
 10
98.3017
 20
25.3384
 11
98.3476
 21
25.2708
  0
LINE
  8
0
 10
98.3476
 20
25.2708
 11
98.3892
 21
25.2005
  0
LINE
  8
0
 10
98.3892
 20
25.2005
 11
98.4263
 21
25.1278
  0
LINE
  8
0
 10
98.4263
 20
25.1278
 11
98.4587
 21
25.0528
  0
LINE
  8
0
 10
98.4587
 20
25.0528
 11
98.4864
 21
24.976
  0
LINE
  8
0
 10
98.4864
 20
24.976
 11
98.5092
 21
24.8975
  0
LINE
  8
0
 10
98.5092
 20
24.8975
 11
98.527
 21
24.8178
  0
LINE
  8
0
 10
98.527
 20
24.8178
 11
98.5397
 21
24.7372
  0
LINE
  8
0
 10
98.5397
 20
24.7372
 11
98.5474
 21
24.6559
  0
LINE
  8
0
 10
98.5474
 20
24.6559
 11
98.55
 21
24.5742
  0
LINE
  8
0
 10
98.55
 20
24.5742
 11
98.5474
 21
24.4926
  0
LINE
  8
0
 10
98.5474
 20
24.4926
 11
98.5397
 21
24.4113
  0
LINE
  8
0
 10
98.5397
 20
24.4113
 11
98.527
 21
24.3306
  0
LINE
  8
0
 10
98.527
 20
24.3306
 11
98.5092
 21
24.2509
  0
LINE
  8
0
 10
98.5092
 20
24.2509
 11
98.4864
 21
24.1725
  0
LINE
  8
0
 10
98.4864
 20
24.1725
 11
98.4587
 21
24.0957
  0
LINE
  8
0
 10
98.4587
 20
24.0957
 11
98.4263
 21
24.0207
  0
LINE
  8
0
 10
98.4263
 20
24.0207
 11
98.3892
 21
23.948
  0
LINE
  8
0
 10
98.3892
 20
23.948
 11
98.3476
 21
23.8777
  0
LINE
  8
0
 10
98.3476
 20
23.8777
 11
98.3017
 21
23.8101
  0
LINE
  8
0
 10
98.3017
 20
23.8101
 11
98.2517
 21
23.7456
  0
LINE
  8
0
 10
98.2517
 20
23.7456
 11
98.1976
 21
23.6843
  0
LINE
  8
0
 10
98.1976
 20
23.6843
 11
98.1399
 21
23.6266
  0
LINE
  8
0
 10
98.1399
 20
23.6266
 11
98.0786
 21
23.5726
  0
LINE
  8
0
 10
98.0786
 20
23.5726
 11
98.0141
 21
23.5225
  0
LINE
  8
0
 10
98.0141
 20
23.5225
 11
97.9466
 21
23.4766
  0
LINE
  8
0
 10
97.9466
 20
23.4766
 11
97.8763
 21
23.435
  0
LINE
  8
0
 10
97.8763
 20
23.435
 11
97.8035
 21
23.398
  0
LINE
  8
0
 10
97.8035
 20
23.398
 11
97.7286
 21
23.3655
  0
LINE
  8
0
 10
97.7286
 20
23.3655
 11
97.6517
 21
23.3379
  0
LINE
  8
0
 10
97.6517
 20
23.3379
 11
97.5733
 21
23.3151
  0
LINE
  8
0
 10
97.5733
 20
23.3151
 11
97.4936
 21
23.2973
  0
LINE
  8
0
 10
97.4936
 20
23.2973
 11
97.4129
 21
23.2845
  0
LINE
  8
0
 10
97.4129
 20
23.2845
 11
97.3316
 21
23.2768
  0
LINE
  8
0
 10
97.3316
 20
23.2768
 11
97.25
 21
23.2742
  0
LINE
  8
0
 10
97.25
 20
23.2742
 11
97.1684
 21
23.2768
  0
LINE
  8
0
 10
61.675
 20
11.5735
 11
61.675
 21
25.5735
  0
LINE
  8
0
 10
61.675
 20
25.5735
 11
75.675
 21
25.5735
  0
LINE
  8
0
 10
75.675
 20
25.5735
 11
75.675
 21
11.5735
  0
LINE
  8
0
 10
75.675
 20
11.5735
 11
61.675
 21
11.5735
  0
LINE
  8
0
 10
42.625
 20
9.28749
 11
42.625
 21
23.2875
  0
LINE
  8
0
 10
42.625
 20
23.2875
 11
56.625
 21
23.2875
  0
LINE
  8
0
 10
56.625
 20
23.2875
 11
56.625
 21
9.28749
  0
LINE
  8
0
 10
56.625
 20
9.28749
 11
42.625
 21
9.28749
  0
LINE
  8
0
 10
80.725
 20
9.28749
 11
80.725
 21
23.2875
  0
LINE
  8
0
 10
80.725
 20
23.2875
 11
94.725
 21
23.2875
  0
LINE
  8
0
 10
94.725
 20
23.2875
 11
94.725
 21
9.28749
  0
LINE
  8
0
 10
94.725
 20
9.28749
 11
80.725
 21
9.28749
  0
LINE
  8
0
 10
20.9684
 20
19.7526
 11
20.8871
 21
19.7602
  0
LINE
  8
0
 10
20.8871
 20
19.7602
 11
20.8064
 21
19.773
  0
LINE
  8
0
 10
20.8064
 20
19.773
 11
20.7267
 21
19.7908
  0
LINE
  8
0
 10
20.7267
 20
19.7908
 11
20.6483
 21
19.8136
  0
LINE
  8
0
 10
20.6483
 20
19.8136
 11
20.5714
 21
19.8413
  0
LINE
  8
0
 10
20.5714
 20
19.8413
 11
20.4965
 21
19.8737
  0
LINE
  8
0
 10
20.4965
 20
19.8737
 11
20.4237
 21
19.9108
  0
LINE
  8
0
 10
20.4237
 20
19.9108
 11
20.3534
 21
19.9524
  0
LINE
  8
0
 10
20.3534
 20
19.9524
 11
20.2859
 21
19.9983
  0
LINE
  8
0
 10
20.2859
 20
19.9983
 11
20.2213
 21
20.0483
  0
LINE
  8
0
 10
20.2213
 20
20.0483
 11
20.1601
 21
20.1023
  0
LINE
  8
0
 10
20.1601
 20
20.1023
 11
20.1023
 21
20.1601
  0
LINE
  8
0
 10
20.1023
 20
20.1601
 11
20.0483
 21
20.2213
  0
LINE
  8
0
 10
20.0483
 20
20.2213
 11
19.9983
 21
20.2859
  0
LINE
  8
0
 10
19.9983
 20
20.2859
 11
19.9524
 21
20.3534
  0
LINE
  8
0
 10
19.9524
 20
20.3534
 11
19.9108
 21
20.4237
  0
LINE
  8
0
 10
19.9108
 20
20.4237
 11
19.8737
 21
20.4965
  0
LINE
  8
0
 10
19.8737
 20
20.4965
 11
19.8413
 21
20.5714
  0
LINE
  8
0
 10
19.8413
 20
20.5714
 11
19.8136
 21
20.6483
  0
LINE
  8
0
 10
19.8136
 20
20.6483
 11
19.7908
 21
20.7267
  0
LINE
  8
0
 10
19.7908
 20
20.7267
 11
19.773
 21
20.8064
  0
LINE
  8
0
 10
19.773
 20
20.8064
 11
19.7602
 21
20.8871
  0
LINE
  8
0
 10
19.7602
 20
20.8871
 11
19.7526
 21
20.9684
  0
LINE
  8
0
 10
19.7526
 20
20.9684
 11
19.75
 21
21.05
  0
LINE
  8
0
 10
19.75
 20
21.05
 11
19.7526
 21
21.1316
  0
LINE
  8
0
 10
19.7526
 20
21.1316
 11
19.7602
 21
21.2129
  0
LINE
  8
0
 10
19.7602
 20
21.2129
 11
19.773
 21
21.2936
  0
LINE
  8
0
 10
19.773
 20
21.2936
 11
19.7908
 21
21.3733
  0
LINE
  8
0
 10
19.7908
 20
21.3733
 11
19.8136
 21
21.4517
  0
LINE
  8
0
 10
19.8136
 20
21.4517
 11
19.8413
 21
21.5285
  0
LINE
  8
0
 10
19.8413
 20
21.5285
 11
19.8737
 21
21.6035
  0
LINE
  8
0
 10
19.8737
 20
21.6035
 11
19.9108
 21
21.6763
  0
LINE
  8
0
 10
19.9108
 20
21.6763
 11
19.9524
 21
21.7466
  0
LINE
  8
0
 10
19.9524
 20
21.7466
 11
19.9983
 21
21.8141
  0
LINE
  8
0
 10
19.9983
 20
21.8141
 11
20.0483
 21
21.8786
  0
LINE
  8
0
 10
20.0483
 20
21.8786
 11
20.1023
 21
21.9399
  0
LINE
  8
0
 10
20.1023
 20
21.9399
 11
20.1601
 21
21.9977
  0
LINE
  8
0
 10
20.1601
 20
21.9977
 11
20.2213
 21
22.0517
  0
LINE
  8
0
 10
20.2213
 20
22.0517
 11
20.2859
 21
22.1017
  0
LINE
  8
0
 10
20.2859
 20
22.1017
 11
20.3534
 21
22.1476
  0
LINE
  8
0
 10
20.3534
 20
22.1476
 11
20.4237
 21
22.1892
  0
LINE
  8
0
 10
20.4237
 20
22.1892
 11
20.4965
 21
22.2263
  0
LINE
  8
0
 10
20.4965
 20
22.2263
 11
20.5714
 21
22.2587
  0
LINE
  8
0
 10
20.5714
 20
22.2587
 11
20.6483
 21
22.2864
  0
LINE
  8
0
 10
20.6483
 20
22.2864
 11
20.7267
 21
22.3091
  0
LINE
  8
0
 10
20.7267
 20
22.3091
 11
20.8064
 21
22.327
  0
LINE
  8
0
 10
20.8064
 20
22.327
 11
20.8871
 21
22.3397
  0
LINE
  8
0
 10
20.8871
 20
22.3397
 11
20.9684
 21
22.3474
  0
LINE
  8
0
 10
20.9684
 20
22.3474
 11
21.05
 21
22.35
  0
LINE
  8
0
 10
21.05
 20
22.35
 11
21.1316
 21
22.3474
  0
LINE
  8
0
 10
21.1316
 20
22.3474
 11
21.2129
 21
22.3397
  0
LINE
  8
0
 10
21.2129
 20
22.3397
 11
21.2936
 21
22.327
  0
LINE
  8
0
 10
21.2936
 20
22.327
 11
21.3733
 21
22.3091
  0
LINE
  8
0
 10
21.3733
 20
22.3091
 11
21.4517
 21
22.2864
  0
LINE
  8
0
 10
21.4517
 20
22.2864
 11
21.5285
 21
22.2587
  0
LINE
  8
0
 10
21.5285
 20
22.2587
 11
21.6035
 21
22.2263
  0
LINE
  8
0
 10
21.6035
 20
22.2263
 11
21.6763
 21
22.1892
  0
LINE
  8
0
 10
21.6763
 20
22.1892
 11
21.7466
 21
22.1476
  0
LINE
  8
0
 10
21.7466
 20
22.1476
 11
21.8141
 21
22.1017
  0
LINE
  8
0
 10
21.8141
 20
22.1017
 11
21.8786
 21
22.0517
  0
LINE
  8
0
 10
21.8786
 20
22.0517
 11
21.9399
 21
21.9977
  0
LINE
  8
0
 10
21.9399
 20
21.9977
 11
21.9977
 21
21.9399
  0
LINE
  8
0
 10
21.9977
 20
21.9399
 11
22.0517
 21
21.8786
  0
LINE
  8
0
 10
22.0517
 20
21.8786
 11
22.1017
 21
21.8141
  0
LINE
  8
0
 10
22.1017
 20
21.8141
 11
22.1476
 21
21.7466
  0
LINE
  8
0
 10
22.1476
 20
21.7466
 11
22.1892
 21
21.6763
  0
LINE
  8
0
 10
22.1892
 20
21.6763
 11
22.2263
 21
21.6035
  0
LINE
  8
0
 10
22.2263
 20
21.6035
 11
22.2587
 21
21.5285
  0
LINE
  8
0
 10
22.2587
 20
21.5285
 11
22.2864
 21
21.4517
  0
LINE
  8
0
 10
22.2864
 20
21.4517
 11
22.3091
 21
21.3733
  0
LINE
  8
0
 10
22.3091
 20
21.3733
 11
22.327
 21
21.2936
  0
LINE
  8
0
 10
22.327
 20
21.2936
 11
22.3397
 21
21.2129
  0
LINE
  8
0
 10
22.3397
 20
21.2129
 11
22.3474
 21
21.1316
  0
LINE
  8
0
 10
22.3474
 20
21.1316
 11
22.35
 21
21.05
  0
LINE
  8
0
 10
22.35
 20
21.05
 11
22.3474
 21
20.9684
  0
LINE
  8
0
 10
22.3474
 20
20.9684
 11
22.3397
 21
20.8871
  0
LINE
  8
0
 10
22.3397
 20
20.8871
 11
22.327
 21
20.8064
  0
LINE
  8
0
 10
22.327
 20
20.8064
 11
22.3091
 21
20.7267
  0
LINE
  8
0
 10
22.3091
 20
20.7267
 11
22.2864
 21
20.6483
  0
LINE
  8
0
 10
22.2864
 20
20.6483
 11
22.2587
 21
20.5714
  0
LINE
  8
0
 10
22.2587
 20
20.5714
 11
22.2263
 21
20.4965
  0
LINE
  8
0
 10
22.2263
 20
20.4965
 11
22.1892
 21
20.4237
  0
LINE
  8
0
 10
22.1892
 20
20.4237
 11
22.1476
 21
20.3534
  0
LINE
  8
0
 10
22.1476
 20
20.3534
 11
22.1017
 21
20.2859
  0
LINE
  8
0
 10
22.1017
 20
20.2859
 11
22.0517
 21
20.2213
  0
LINE
  8
0
 10
22.0517
 20
20.2213
 11
21.9977
 21
20.1601
  0
LINE
  8
0
 10
21.9977
 20
20.1601
 11
21.9399
 21
20.1023
  0
LINE
  8
0
 10
21.9399
 20
20.1023
 11
21.8786
 21
20.0483
  0
LINE
  8
0
 10
21.8786
 20
20.0483
 11
21.8141
 21
19.9983
  0
LINE
  8
0
 10
21.8141
 20
19.9983
 11
21.7466
 21
19.9524
  0
LINE
  8
0
 10
21.7466
 20
19.9524
 11
21.6763
 21
19.9108
  0
LINE
  8
0
 10
21.6763
 20
19.9108
 11
21.6035
 21
19.8737
  0
LINE
  8
0
 10
21.6035
 20
19.8737
 11
21.5285
 21
19.8413
  0
LINE
  8
0
 10
21.5285
 20
19.8413
 11
21.4517
 21
19.8136
  0
LINE
  8
0
 10
21.4517
 20
19.8136
 11
21.3733
 21
19.7908
  0
LINE
  8
0
 10
21.3733
 20
19.7908
 11
21.2936
 21
19.773
  0
LINE
  8
0
 10
21.2936
 20
19.773
 11
21.2129
 21
19.7602
  0
LINE
  8
0
 10
21.2129
 20
19.7602
 11
21.1316
 21
19.7526
  0
LINE
  8
0
 10
21.1316
 20
19.7526
 11
21.05
 21
19.75
  0
LINE
  8
0
 10
21.05
 20
19.75
 11
20.9684
 21
19.7526
  0
LINE
  8
0
 10
99.775
 20
6.81099
 11
99.775
 21
20.811
  0
LINE
  8
0
 10
99.775
 20
20.811
 11
113.775
 21
20.811
  0
LINE
  8
0
 10
113.775
 20
20.811
 11
113.775
 21
6.81099
  0
LINE
  8
0
 10
113.775
 20
6.81099
 11
99.775
 21
6.81099
  0
LINE
  8
0
 10
4.52499
 20
4.52499
 11
4.52499
 21
18.525
  0
LINE
  8
0
 10
4.52499
 20
18.525
 11
18.525
 21
18.525
  0
LINE
  8
0
 10
18.525
 20
18.525
 11
18.525
 21
4.52499
  0
LINE
  8
0
 10
18.525
 20
4.52499
 11
4.52499
 21
4.52499
  0
LINE
  8
0
 10
23.575
 20
4.52499
 11
23.575
 21
18.525
  0
LINE
  8
0
 10
23.575
 20
18.525
 11
37.575
 21
18.525
  0
LINE
  8
0
 10
37.575
 20
18.525
 11
37.575
 21
4.52499
  0
LINE
  8
0
 10
37.575
 20
4.52499
 11
23.575
 21
4.52499
  0
ENDSEC
  0
SECTION
  2
OBJECTS
  0
DICTIONARY
  0
ENDSEC
  0
EOF
