G04 #@! TF.GenerationSoftware,KiCad,Pcbnew,(5.1.0)-1*
G04 #@! TF.CreationDate,2020-09-20T23:01:35+10:00*
G04 #@! TF.ProjectId,oddball,6f646462-616c-46c2-9e6b-696361645f70,rev?*
G04 #@! TF.SameCoordinates,Original*
G04 #@! TF.FileFunction,Legend,Top*
G04 #@! TF.FilePolarity,Positive*
%FSLAX46Y46*%
G04 Gerber Fmt 4.6, Leading zero omitted, Abs format (unit mm)*
G04 Created by KiCad (PCBNEW (5.1.0)-1) date 2020-09-20 23:01:35*
%MOMM*%
%LPD*%
G04 APERTURE LIST*
%ADD10C,0.203200*%
%ADD11C,0.150000*%
%ADD12C,0.010000*%
G04 APERTURE END LIST*
D10*
X212863000Y-99370000D02*
X213434500Y-99370000D01*
X208037000Y-99370000D02*
X207465500Y-99370000D01*
X208037000Y-100513000D02*
X212863000Y-100513000D01*
X212863000Y-98227000D02*
X208037000Y-98227000D01*
X212863000Y-100513000D02*
X212863000Y-98227000D01*
X208037000Y-98227000D02*
X208037000Y-100513000D01*
D11*
X212350000Y-100470000D02*
X212350000Y-98270000D01*
X212100000Y-98320000D02*
X212100000Y-100520000D01*
X212600000Y-100470000D02*
X212600000Y-98270000D01*
D10*
X231883000Y-97060000D02*
X232454500Y-97060000D01*
X227057000Y-97060000D02*
X226485500Y-97060000D01*
X227057000Y-98203000D02*
X231883000Y-98203000D01*
X231883000Y-95917000D02*
X227057000Y-95917000D01*
X231883000Y-98203000D02*
X231883000Y-95917000D01*
X227057000Y-95917000D02*
X227057000Y-98203000D01*
D11*
X231370000Y-98160000D02*
X231370000Y-95960000D01*
X231120000Y-96010000D02*
X231120000Y-98210000D01*
X231620000Y-98160000D02*
X231620000Y-95960000D01*
D12*
G36*
X90532749Y-108561722D02*
G01*
X90544572Y-108644768D01*
X90492778Y-108765471D01*
X90380210Y-108807726D01*
X90271088Y-108757550D01*
X90243492Y-108710325D01*
X90251951Y-108574133D01*
X90298140Y-108524713D01*
X90447008Y-108481305D01*
X90532749Y-108561722D01*
X90532749Y-108561722D01*
G37*
X90532749Y-108561722D02*
X90544572Y-108644768D01*
X90492778Y-108765471D01*
X90380210Y-108807726D01*
X90271088Y-108757550D01*
X90243492Y-108710325D01*
X90251951Y-108574133D01*
X90298140Y-108524713D01*
X90447008Y-108481305D01*
X90532749Y-108561722D01*
G36*
X89954666Y-106959863D02*
G01*
X89995316Y-107036826D01*
X89900929Y-107165520D01*
X89671377Y-107346292D01*
X89611251Y-107387374D01*
X89403867Y-107556434D01*
X89230341Y-107747328D01*
X89195032Y-107799156D01*
X89076966Y-107941633D01*
X88954230Y-108018552D01*
X88863707Y-108014397D01*
X88839143Y-107948844D01*
X88881248Y-107830146D01*
X88989795Y-107640939D01*
X89138129Y-107422071D01*
X89299599Y-107214388D01*
X89370945Y-107133857D01*
X89606759Y-106966514D01*
X89779106Y-106934286D01*
X89954666Y-106959863D01*
X89954666Y-106959863D01*
G37*
X89954666Y-106959863D02*
X89995316Y-107036826D01*
X89900929Y-107165520D01*
X89671377Y-107346292D01*
X89611251Y-107387374D01*
X89403867Y-107556434D01*
X89230341Y-107747328D01*
X89195032Y-107799156D01*
X89076966Y-107941633D01*
X88954230Y-108018552D01*
X88863707Y-108014397D01*
X88839143Y-107948844D01*
X88881248Y-107830146D01*
X88989795Y-107640939D01*
X89138129Y-107422071D01*
X89299599Y-107214388D01*
X89370945Y-107133857D01*
X89606759Y-106966514D01*
X89779106Y-106934286D01*
X89954666Y-106959863D01*
G36*
X88301001Y-107552472D02*
G01*
X88524953Y-107715470D01*
X88603286Y-107801570D01*
X88737982Y-107971239D01*
X88823363Y-108093059D01*
X88839143Y-108126834D01*
X88779940Y-108162050D01*
X88628060Y-108138968D01*
X88499173Y-108094922D01*
X88337451Y-107979697D01*
X88256892Y-107874576D01*
X88139278Y-107756198D01*
X87998148Y-107751562D01*
X87853333Y-107756870D01*
X87836546Y-107694203D01*
X87910229Y-107601943D01*
X88089247Y-107512658D01*
X88301001Y-107552472D01*
X88301001Y-107552472D01*
G37*
X88301001Y-107552472D02*
X88524953Y-107715470D01*
X88603286Y-107801570D01*
X88737982Y-107971239D01*
X88823363Y-108093059D01*
X88839143Y-108126834D01*
X88779940Y-108162050D01*
X88628060Y-108138968D01*
X88499173Y-108094922D01*
X88337451Y-107979697D01*
X88256892Y-107874576D01*
X88139278Y-107756198D01*
X87998148Y-107751562D01*
X87853333Y-107756870D01*
X87836546Y-107694203D01*
X87910229Y-107601943D01*
X88089247Y-107512658D01*
X88301001Y-107552472D01*
G36*
X87984018Y-108342292D02*
G01*
X88224241Y-108393777D01*
X88497901Y-108490040D01*
X88645605Y-108597997D01*
X88665963Y-108700348D01*
X88557583Y-108779791D01*
X88319072Y-108819026D01*
X88258572Y-108820510D01*
X88015864Y-108863792D01*
X87787746Y-108965699D01*
X87786857Y-108966286D01*
X87606078Y-109076146D01*
X87501717Y-109103845D01*
X87435927Y-109056713D01*
X87422747Y-109036830D01*
X87436528Y-108940447D01*
X87544505Y-108825857D01*
X87704856Y-108725497D01*
X87875756Y-108671807D01*
X87895714Y-108669996D01*
X88007139Y-108658173D01*
X87980020Y-108639512D01*
X87932000Y-108628471D01*
X87736776Y-108587045D01*
X87623572Y-108562935D01*
X87496008Y-108495137D01*
X87460286Y-108420618D01*
X87524733Y-108340701D01*
X87705564Y-108314373D01*
X87984018Y-108342292D01*
X87984018Y-108342292D01*
G37*
X87984018Y-108342292D02*
X88224241Y-108393777D01*
X88497901Y-108490040D01*
X88645605Y-108597997D01*
X88665963Y-108700348D01*
X88557583Y-108779791D01*
X88319072Y-108819026D01*
X88258572Y-108820510D01*
X88015864Y-108863792D01*
X87787746Y-108965699D01*
X87786857Y-108966286D01*
X87606078Y-109076146D01*
X87501717Y-109103845D01*
X87435927Y-109056713D01*
X87422747Y-109036830D01*
X87436528Y-108940447D01*
X87544505Y-108825857D01*
X87704856Y-108725497D01*
X87875756Y-108671807D01*
X87895714Y-108669996D01*
X88007139Y-108658173D01*
X87980020Y-108639512D01*
X87932000Y-108628471D01*
X87736776Y-108587045D01*
X87623572Y-108562935D01*
X87496008Y-108495137D01*
X87460286Y-108420618D01*
X87524733Y-108340701D01*
X87705564Y-108314373D01*
X87984018Y-108342292D01*
G36*
X90778963Y-107460991D02*
G01*
X91108846Y-107622983D01*
X91344756Y-107893990D01*
X91483956Y-108270997D01*
X91524286Y-108694951D01*
X91514973Y-108977837D01*
X91478278Y-109167325D01*
X91401068Y-109314460D01*
X91347156Y-109383371D01*
X91099105Y-109578248D01*
X90766154Y-109707265D01*
X90396229Y-109763072D01*
X90037256Y-109738319D01*
X89743180Y-109629369D01*
X89446961Y-109366150D01*
X89254823Y-109009476D01*
X89241017Y-108966286D01*
X89139802Y-108777144D01*
X89035920Y-108665725D01*
X88966437Y-108603679D01*
X88962012Y-108590259D01*
X89430857Y-108590259D01*
X89453380Y-108732686D01*
X89523306Y-108926312D01*
X89713292Y-109249467D01*
X89980742Y-109458260D01*
X90304723Y-109545028D01*
X90664303Y-109502106D01*
X90871060Y-109419745D01*
X91114589Y-109249746D01*
X91244019Y-109027652D01*
X91268361Y-108730196D01*
X91232394Y-108486836D01*
X91102399Y-108087042D01*
X90905959Y-107808385D01*
X90647743Y-107655971D01*
X90446254Y-107627013D01*
X90120389Y-107686999D01*
X89843520Y-107872418D01*
X89604193Y-108191459D01*
X89569386Y-108254024D01*
X89468008Y-108452842D01*
X89430857Y-108590259D01*
X88962012Y-108590259D01*
X88946021Y-108541772D01*
X88986922Y-108452962D01*
X89101394Y-108310208D01*
X89295037Y-108093816D01*
X89564711Y-107804712D01*
X89772656Y-107610508D01*
X89947706Y-107492679D01*
X90118693Y-107432701D01*
X90314453Y-107412051D01*
X90357849Y-107411029D01*
X90778963Y-107460991D01*
X90778963Y-107460991D01*
G37*
X90778963Y-107460991D02*
X91108846Y-107622983D01*
X91344756Y-107893990D01*
X91483956Y-108270997D01*
X91524286Y-108694951D01*
X91514973Y-108977837D01*
X91478278Y-109167325D01*
X91401068Y-109314460D01*
X91347156Y-109383371D01*
X91099105Y-109578248D01*
X90766154Y-109707265D01*
X90396229Y-109763072D01*
X90037256Y-109738319D01*
X89743180Y-109629369D01*
X89446961Y-109366150D01*
X89254823Y-109009476D01*
X89241017Y-108966286D01*
X89139802Y-108777144D01*
X89035920Y-108665725D01*
X88966437Y-108603679D01*
X88962012Y-108590259D01*
X89430857Y-108590259D01*
X89453380Y-108732686D01*
X89523306Y-108926312D01*
X89713292Y-109249467D01*
X89980742Y-109458260D01*
X90304723Y-109545028D01*
X90664303Y-109502106D01*
X90871060Y-109419745D01*
X91114589Y-109249746D01*
X91244019Y-109027652D01*
X91268361Y-108730196D01*
X91232394Y-108486836D01*
X91102399Y-108087042D01*
X90905959Y-107808385D01*
X90647743Y-107655971D01*
X90446254Y-107627013D01*
X90120389Y-107686999D01*
X89843520Y-107872418D01*
X89604193Y-108191459D01*
X89569386Y-108254024D01*
X89468008Y-108452842D01*
X89430857Y-108590259D01*
X88962012Y-108590259D01*
X88946021Y-108541772D01*
X88986922Y-108452962D01*
X89101394Y-108310208D01*
X89295037Y-108093816D01*
X89564711Y-107804712D01*
X89772656Y-107610508D01*
X89947706Y-107492679D01*
X90118693Y-107432701D01*
X90314453Y-107412051D01*
X90357849Y-107411029D01*
X90778963Y-107460991D01*
G36*
X87442567Y-109695205D02*
G01*
X87593208Y-109730006D01*
X87802375Y-109757055D01*
X88086646Y-109777147D01*
X88462597Y-109791077D01*
X88946805Y-109799639D01*
X89555847Y-109803630D01*
X89710000Y-109803977D01*
X91633143Y-109807096D01*
X91623813Y-110027233D01*
X91573343Y-110370971D01*
X91462425Y-110742200D01*
X91312318Y-111082419D01*
X91152665Y-111323751D01*
X90944788Y-111510411D01*
X90683511Y-111644712D01*
X90346701Y-111732396D01*
X89912221Y-111779205D01*
X89357937Y-111790881D01*
X89352114Y-111790842D01*
X88994743Y-111782022D01*
X88670975Y-111762519D01*
X88420127Y-111735375D01*
X88294857Y-111709010D01*
X87876948Y-111487392D01*
X87527793Y-111142158D01*
X87253209Y-110680478D01*
X87179545Y-110475558D01*
X87242572Y-110475558D01*
X87299575Y-110584368D01*
X87448630Y-110740092D01*
X87656808Y-110915848D01*
X87891180Y-111084754D01*
X88118814Y-111219927D01*
X88202863Y-111259488D01*
X88489644Y-111354058D01*
X88673596Y-111350076D01*
X88733526Y-111277704D01*
X88839143Y-111277704D01*
X88886708Y-111420026D01*
X89041926Y-111489483D01*
X89152619Y-111500557D01*
X89251505Y-111465330D01*
X89260983Y-111349048D01*
X89347143Y-111349048D01*
X89381885Y-111505859D01*
X89506469Y-111571758D01*
X89613238Y-111578857D01*
X89743039Y-111545722D01*
X89782218Y-111420116D01*
X89782572Y-111397429D01*
X89782049Y-111394534D01*
X89873931Y-111394534D01*
X89887125Y-111426750D01*
X89996793Y-111487253D01*
X90180802Y-111503788D01*
X90375810Y-111478318D01*
X90518472Y-111412806D01*
X90524630Y-111407003D01*
X90677793Y-111301310D01*
X90774243Y-111260008D01*
X90939050Y-111171824D01*
X91072377Y-111042361D01*
X91136751Y-110914236D01*
X91127969Y-110857716D01*
X91008836Y-110785050D01*
X90833257Y-110816513D01*
X90640419Y-110943857D01*
X90446884Y-111067985D01*
X90248822Y-111129861D01*
X90047305Y-111184495D01*
X89910972Y-111282053D01*
X89873931Y-111394534D01*
X89782049Y-111394534D01*
X89759140Y-111267767D01*
X89659533Y-111220333D01*
X89564857Y-111216000D01*
X89402891Y-111240802D01*
X89348071Y-111328007D01*
X89347143Y-111349048D01*
X89260983Y-111349048D01*
X89261476Y-111343000D01*
X89194323Y-111218503D01*
X89069524Y-111151166D01*
X88937966Y-111148856D01*
X88850534Y-111219442D01*
X88839143Y-111277704D01*
X88733526Y-111277704D01*
X88759023Y-111246915D01*
X88766572Y-111177207D01*
X88701119Y-111106837D01*
X88532568Y-111046430D01*
X88461293Y-111032039D01*
X88059280Y-110891835D01*
X87661300Y-110608840D01*
X87592281Y-110544715D01*
X87549014Y-110515482D01*
X89135588Y-110515482D01*
X89196181Y-110640463D01*
X89350395Y-110696384D01*
X89584351Y-110708000D01*
X89819284Y-110692531D01*
X89999094Y-110652927D01*
X90058343Y-110620914D01*
X90134542Y-110475815D01*
X90145429Y-110400647D01*
X90165869Y-110310738D01*
X90253019Y-110326093D01*
X90293313Y-110346610D01*
X90469711Y-110387076D01*
X90636965Y-110345405D01*
X90755544Y-110246393D01*
X90785922Y-110114839D01*
X90761192Y-110053087D01*
X90669249Y-110021670D01*
X90500055Y-110029368D01*
X90313033Y-110066442D01*
X90167605Y-110123152D01*
X90128397Y-110156794D01*
X90081909Y-110188985D01*
X90073969Y-110142109D01*
X90029826Y-110088876D01*
X89884867Y-110065840D01*
X89619286Y-110069537D01*
X89371285Y-110085065D01*
X89233091Y-110112871D01*
X89169438Y-110169757D01*
X89145059Y-110272524D01*
X89142160Y-110296845D01*
X89135588Y-110515482D01*
X87549014Y-110515482D01*
X87454512Y-110451634D01*
X87322661Y-110417629D01*
X87246902Y-110452622D01*
X87242572Y-110475558D01*
X87179545Y-110475558D01*
X87088057Y-110221061D01*
X87082298Y-110197178D01*
X87981767Y-110197178D01*
X87993327Y-110233151D01*
X88110999Y-110369622D01*
X88303361Y-110454359D01*
X88510627Y-110472543D01*
X88673014Y-110409361D01*
X88679486Y-110403200D01*
X88774595Y-110251904D01*
X88730497Y-110132938D01*
X88550515Y-110051223D01*
X88426015Y-110027907D01*
X88151358Y-110015579D01*
X88003695Y-110071803D01*
X87981767Y-110197178D01*
X87082298Y-110197178D01*
X87036552Y-110007477D01*
X87532857Y-110007477D01*
X87585370Y-110126431D01*
X87623572Y-110151938D01*
X87800460Y-110192161D01*
X87881712Y-110137338D01*
X87882152Y-110073000D01*
X87814315Y-109973440D01*
X87695064Y-109922443D01*
X87582038Y-109930820D01*
X87532857Y-110007477D01*
X87036552Y-110007477D01*
X87014232Y-109914920D01*
X87005736Y-109726964D01*
X87073652Y-109640754D01*
X87229063Y-109639851D01*
X87442567Y-109695205D01*
X87442567Y-109695205D01*
G37*
X87442567Y-109695205D02*
X87593208Y-109730006D01*
X87802375Y-109757055D01*
X88086646Y-109777147D01*
X88462597Y-109791077D01*
X88946805Y-109799639D01*
X89555847Y-109803630D01*
X89710000Y-109803977D01*
X91633143Y-109807096D01*
X91623813Y-110027233D01*
X91573343Y-110370971D01*
X91462425Y-110742200D01*
X91312318Y-111082419D01*
X91152665Y-111323751D01*
X90944788Y-111510411D01*
X90683511Y-111644712D01*
X90346701Y-111732396D01*
X89912221Y-111779205D01*
X89357937Y-111790881D01*
X89352114Y-111790842D01*
X88994743Y-111782022D01*
X88670975Y-111762519D01*
X88420127Y-111735375D01*
X88294857Y-111709010D01*
X87876948Y-111487392D01*
X87527793Y-111142158D01*
X87253209Y-110680478D01*
X87179545Y-110475558D01*
X87242572Y-110475558D01*
X87299575Y-110584368D01*
X87448630Y-110740092D01*
X87656808Y-110915848D01*
X87891180Y-111084754D01*
X88118814Y-111219927D01*
X88202863Y-111259488D01*
X88489644Y-111354058D01*
X88673596Y-111350076D01*
X88733526Y-111277704D01*
X88839143Y-111277704D01*
X88886708Y-111420026D01*
X89041926Y-111489483D01*
X89152619Y-111500557D01*
X89251505Y-111465330D01*
X89260983Y-111349048D01*
X89347143Y-111349048D01*
X89381885Y-111505859D01*
X89506469Y-111571758D01*
X89613238Y-111578857D01*
X89743039Y-111545722D01*
X89782218Y-111420116D01*
X89782572Y-111397429D01*
X89782049Y-111394534D01*
X89873931Y-111394534D01*
X89887125Y-111426750D01*
X89996793Y-111487253D01*
X90180802Y-111503788D01*
X90375810Y-111478318D01*
X90518472Y-111412806D01*
X90524630Y-111407003D01*
X90677793Y-111301310D01*
X90774243Y-111260008D01*
X90939050Y-111171824D01*
X91072377Y-111042361D01*
X91136751Y-110914236D01*
X91127969Y-110857716D01*
X91008836Y-110785050D01*
X90833257Y-110816513D01*
X90640419Y-110943857D01*
X90446884Y-111067985D01*
X90248822Y-111129861D01*
X90047305Y-111184495D01*
X89910972Y-111282053D01*
X89873931Y-111394534D01*
X89782049Y-111394534D01*
X89759140Y-111267767D01*
X89659533Y-111220333D01*
X89564857Y-111216000D01*
X89402891Y-111240802D01*
X89348071Y-111328007D01*
X89347143Y-111349048D01*
X89260983Y-111349048D01*
X89261476Y-111343000D01*
X89194323Y-111218503D01*
X89069524Y-111151166D01*
X88937966Y-111148856D01*
X88850534Y-111219442D01*
X88839143Y-111277704D01*
X88733526Y-111277704D01*
X88759023Y-111246915D01*
X88766572Y-111177207D01*
X88701119Y-111106837D01*
X88532568Y-111046430D01*
X88461293Y-111032039D01*
X88059280Y-110891835D01*
X87661300Y-110608840D01*
X87592281Y-110544715D01*
X87549014Y-110515482D01*
X89135588Y-110515482D01*
X89196181Y-110640463D01*
X89350395Y-110696384D01*
X89584351Y-110708000D01*
X89819284Y-110692531D01*
X89999094Y-110652927D01*
X90058343Y-110620914D01*
X90134542Y-110475815D01*
X90145429Y-110400647D01*
X90165869Y-110310738D01*
X90253019Y-110326093D01*
X90293313Y-110346610D01*
X90469711Y-110387076D01*
X90636965Y-110345405D01*
X90755544Y-110246393D01*
X90785922Y-110114839D01*
X90761192Y-110053087D01*
X90669249Y-110021670D01*
X90500055Y-110029368D01*
X90313033Y-110066442D01*
X90167605Y-110123152D01*
X90128397Y-110156794D01*
X90081909Y-110188985D01*
X90073969Y-110142109D01*
X90029826Y-110088876D01*
X89884867Y-110065840D01*
X89619286Y-110069537D01*
X89371285Y-110085065D01*
X89233091Y-110112871D01*
X89169438Y-110169757D01*
X89145059Y-110272524D01*
X89142160Y-110296845D01*
X89135588Y-110515482D01*
X87549014Y-110515482D01*
X87454512Y-110451634D01*
X87322661Y-110417629D01*
X87246902Y-110452622D01*
X87242572Y-110475558D01*
X87179545Y-110475558D01*
X87088057Y-110221061D01*
X87082298Y-110197178D01*
X87981767Y-110197178D01*
X87993327Y-110233151D01*
X88110999Y-110369622D01*
X88303361Y-110454359D01*
X88510627Y-110472543D01*
X88673014Y-110409361D01*
X88679486Y-110403200D01*
X88774595Y-110251904D01*
X88730497Y-110132938D01*
X88550515Y-110051223D01*
X88426015Y-110027907D01*
X88151358Y-110015579D01*
X88003695Y-110071803D01*
X87981767Y-110197178D01*
X87082298Y-110197178D01*
X87036552Y-110007477D01*
X87532857Y-110007477D01*
X87585370Y-110126431D01*
X87623572Y-110151938D01*
X87800460Y-110192161D01*
X87881712Y-110137338D01*
X87882152Y-110073000D01*
X87814315Y-109973440D01*
X87695064Y-109922443D01*
X87582038Y-109930820D01*
X87532857Y-110007477D01*
X87036552Y-110007477D01*
X87014232Y-109914920D01*
X87005736Y-109726964D01*
X87073652Y-109640754D01*
X87229063Y-109639851D01*
X87442567Y-109695205D01*
G36*
X92867482Y-105692869D02*
G01*
X93005613Y-105864214D01*
X93138451Y-106107144D01*
X93246904Y-106386769D01*
X93311736Y-106667133D01*
X93327230Y-106873270D01*
X93288883Y-107024480D01*
X93174616Y-107187202D01*
X93116433Y-107254809D01*
X92968474Y-107449035D01*
X92891304Y-107640250D01*
X92858490Y-107897843D01*
X92856200Y-107937997D01*
X92847707Y-108153869D01*
X92854229Y-108237414D01*
X92878644Y-108200938D01*
X92901501Y-108131714D01*
X92963932Y-107908894D01*
X93006062Y-107732572D01*
X93103787Y-107562323D01*
X93314102Y-107382768D01*
X93360357Y-107352629D01*
X93573970Y-107206324D01*
X93753190Y-107062571D01*
X93809329Y-107007915D01*
X93950236Y-106883271D01*
X94033020Y-106890125D01*
X94063571Y-107029713D01*
X94064015Y-107061286D01*
X94003692Y-107322356D01*
X93836280Y-107619778D01*
X93593887Y-107906087D01*
X93455677Y-108091732D01*
X93448180Y-108225656D01*
X93501250Y-108409715D01*
X93555812Y-108684580D01*
X93606473Y-109008856D01*
X93647841Y-109341146D01*
X93674525Y-109640054D01*
X93681132Y-109864182D01*
X93672565Y-109948330D01*
X93589254Y-110109768D01*
X93420255Y-110326452D01*
X93196620Y-110567382D01*
X92949398Y-110801553D01*
X92709638Y-110997962D01*
X92508390Y-111125607D01*
X92481303Y-111137800D01*
X92298360Y-111282021D01*
X92227303Y-111517277D01*
X92267965Y-111844375D01*
X92307657Y-111978000D01*
X92395484Y-112343430D01*
X92440741Y-112756211D01*
X92445210Y-113180557D01*
X92410669Y-113580683D01*
X92338897Y-113920803D01*
X92231674Y-114165131D01*
X92196661Y-114210273D01*
X91928086Y-114414024D01*
X91539456Y-114574357D01*
X91051444Y-114683376D01*
X90907429Y-114702742D01*
X90527630Y-114739604D01*
X90159372Y-114761745D01*
X89829999Y-114769078D01*
X89566856Y-114761516D01*
X89397286Y-114738974D01*
X89347143Y-114707669D01*
X89282517Y-114659819D01*
X89118790Y-114612206D01*
X89017800Y-114593949D01*
X88579670Y-114495710D01*
X88102039Y-114336478D01*
X87661248Y-114142714D01*
X87559478Y-114088483D01*
X87244611Y-113912500D01*
X87007734Y-114360393D01*
X86875948Y-114598114D01*
X86774139Y-114735148D01*
X86669602Y-114801721D01*
X86529634Y-114828056D01*
X86498714Y-114830810D01*
X86300667Y-114826949D01*
X86227451Y-114769631D01*
X86226514Y-114758238D01*
X86197015Y-114648308D01*
X86119656Y-114450714D01*
X86011055Y-114207827D01*
X86008800Y-114203056D01*
X85900403Y-113965530D01*
X85890478Y-113941743D01*
X86197865Y-113941743D01*
X86228555Y-114100847D01*
X86354235Y-114318429D01*
X86465522Y-114453896D01*
X86563866Y-114459921D01*
X86679812Y-114354715D01*
X86764164Y-114224312D01*
X86875464Y-114006173D01*
X86986019Y-113756000D01*
X87131532Y-113456103D01*
X87513441Y-113456103D01*
X87516159Y-113538519D01*
X87629545Y-113653482D01*
X87826676Y-113787333D01*
X88080628Y-113926416D01*
X88364476Y-114057071D01*
X88651297Y-114165642D01*
X88914166Y-114238470D01*
X89102371Y-114262127D01*
X89194054Y-114249655D01*
X89232594Y-114184613D01*
X89230650Y-114030018D01*
X89221798Y-113940375D01*
X89579452Y-113940375D01*
X89601428Y-114109611D01*
X89630484Y-114264289D01*
X89665188Y-114371921D01*
X89728038Y-114437316D01*
X89841530Y-114465283D01*
X90028162Y-114460630D01*
X90310431Y-114428166D01*
X90710835Y-114372700D01*
X90784284Y-114362441D01*
X90978064Y-114328792D01*
X91064841Y-114274497D01*
X91081649Y-114161024D01*
X91074570Y-114060413D01*
X91037927Y-113875331D01*
X90942725Y-113779239D01*
X90839435Y-113741466D01*
X91544726Y-113741466D01*
X91545052Y-113841746D01*
X91568723Y-113960044D01*
X91612411Y-114110690D01*
X91677548Y-114144250D01*
X91748993Y-114115115D01*
X91897088Y-113989947D01*
X91958051Y-113904251D01*
X92027347Y-113731993D01*
X91989609Y-113652861D01*
X91835387Y-113652538D01*
X91796429Y-113659382D01*
X91617186Y-113695641D01*
X91544726Y-113741466D01*
X90839435Y-113741466D01*
X90834857Y-113739792D01*
X90609182Y-113711597D01*
X90298542Y-113718905D01*
X89957846Y-113758459D01*
X89721839Y-113805793D01*
X89612235Y-113850322D01*
X89579452Y-113940375D01*
X89221798Y-113940375D01*
X89219715Y-113919286D01*
X89194105Y-113712685D01*
X89170837Y-113576936D01*
X89162198Y-113550473D01*
X89074927Y-113524935D01*
X88879818Y-113499236D01*
X88613786Y-113475490D01*
X88313744Y-113455809D01*
X88016606Y-113442306D01*
X87759287Y-113437094D01*
X87578701Y-113442286D01*
X87513441Y-113456103D01*
X87131532Y-113456103D01*
X87168182Y-113380571D01*
X87352364Y-113143375D01*
X87425929Y-113102857D01*
X88113429Y-113102857D01*
X89211196Y-113102857D01*
X89188455Y-112867000D01*
X89183208Y-112812572D01*
X89483090Y-112812572D01*
X89505831Y-113048429D01*
X89527039Y-113180200D01*
X89582185Y-113259966D01*
X89706551Y-113312265D01*
X89935421Y-113361638D01*
X89964000Y-113367090D01*
X90257470Y-113408894D01*
X90621061Y-113441176D01*
X90979786Y-113457404D01*
X91005400Y-113457805D01*
X91304109Y-113459216D01*
X91498880Y-113446248D01*
X91630891Y-113407367D01*
X91741320Y-113331041D01*
X91858114Y-113218972D01*
X92017115Y-113035229D01*
X92088854Y-112860865D01*
X92104857Y-112638400D01*
X92096300Y-112441078D01*
X92074602Y-112321267D01*
X92060905Y-112304572D01*
X91982089Y-112347024D01*
X91842212Y-112452169D01*
X91804651Y-112483211D01*
X91604969Y-112620315D01*
X91367427Y-112715741D01*
X91064055Y-112775476D01*
X90666881Y-112805507D01*
X90267831Y-112812167D01*
X89483090Y-112812572D01*
X89183208Y-112812572D01*
X89165715Y-112631143D01*
X88113429Y-112588499D01*
X88113429Y-113102857D01*
X87425929Y-113102857D01*
X87544491Y-113037556D01*
X87613469Y-113030286D01*
X87728876Y-112975199D01*
X87750572Y-112885143D01*
X87724701Y-112767150D01*
X87688889Y-112740000D01*
X87577961Y-112785567D01*
X87404484Y-112900874D01*
X87209336Y-113053833D01*
X87033394Y-113212355D01*
X86917537Y-113344351D01*
X86915952Y-113346746D01*
X86783445Y-113484895D01*
X86579843Y-113633544D01*
X86478616Y-113692400D01*
X86278757Y-113817984D01*
X86197865Y-113941743D01*
X85890478Y-113941743D01*
X85822437Y-113778676D01*
X85791191Y-113681621D01*
X85791143Y-113680201D01*
X85854618Y-113627255D01*
X86011223Y-113576865D01*
X86050330Y-113568810D01*
X86292105Y-113484672D01*
X86511595Y-113350145D01*
X86512999Y-113348968D01*
X86610098Y-113261177D01*
X86668021Y-113174351D01*
X86694239Y-113052467D01*
X86696222Y-112859503D01*
X86681439Y-112559435D01*
X86680429Y-112541589D01*
X86670130Y-112197344D01*
X86992670Y-112197344D01*
X87021644Y-112332406D01*
X87077984Y-112442051D01*
X87163094Y-112468904D01*
X87329138Y-112428095D01*
X87339940Y-112424725D01*
X87593019Y-112345512D01*
X87327081Y-112114937D01*
X87166265Y-111981934D01*
X87078476Y-111937945D01*
X87030320Y-111973287D01*
X87008786Y-112022618D01*
X86992670Y-112197344D01*
X86670130Y-112197344D01*
X86669169Y-112165245D01*
X86687621Y-111892015D01*
X86739137Y-111682280D01*
X86757050Y-111636379D01*
X86817252Y-111366864D01*
X86797591Y-111086683D01*
X86706933Y-110849888D01*
X86610329Y-110742010D01*
X86525748Y-110642046D01*
X86401273Y-110450232D01*
X86261386Y-110204805D01*
X86237112Y-110159129D01*
X86059259Y-109820678D01*
X86779865Y-109820678D01*
X86797171Y-109946798D01*
X86854050Y-110136925D01*
X86955946Y-110419325D01*
X87027375Y-110608975D01*
X87208554Y-111053456D01*
X87381933Y-111386751D01*
X87571931Y-111639193D01*
X87802966Y-111841118D01*
X88099455Y-112022860D01*
X88213367Y-112082330D01*
X88551185Y-112226606D01*
X88927493Y-112329464D01*
X89371945Y-112396097D01*
X89914197Y-112431701D01*
X90254286Y-112439803D01*
X90602414Y-112437490D01*
X90856348Y-112414402D01*
X91066487Y-112362395D01*
X91282658Y-112273589D01*
X91503626Y-112153090D01*
X91672164Y-112029311D01*
X91731934Y-111960524D01*
X91787950Y-111810396D01*
X91843726Y-111587288D01*
X91893682Y-111327859D01*
X91932241Y-111068769D01*
X91953824Y-110846677D01*
X91952852Y-110698243D01*
X91930239Y-110657349D01*
X91887142Y-110599063D01*
X91869037Y-110402393D01*
X91873529Y-110113937D01*
X91896200Y-109556159D01*
X91619529Y-109533365D01*
X91342857Y-109510572D01*
X91510871Y-109342558D01*
X91673250Y-109224421D01*
X91852344Y-109213801D01*
X91897364Y-109222531D01*
X92047863Y-109244687D01*
X92098593Y-109195587D01*
X92092208Y-109064593D01*
X92027524Y-108889931D01*
X91923429Y-108835657D01*
X91710896Y-108791090D01*
X91635188Y-108732406D01*
X91688219Y-108637219D01*
X91811347Y-108525258D01*
X91962776Y-108381467D01*
X92006310Y-108286064D01*
X91974632Y-108226461D01*
X91902435Y-108175812D01*
X91887143Y-108226057D01*
X91826508Y-108296749D01*
X91742000Y-108313143D01*
X91624269Y-108272448D01*
X91596857Y-108215534D01*
X91646600Y-108097108D01*
X91742000Y-107986572D01*
X91843476Y-107857697D01*
X91879811Y-107692526D01*
X91852333Y-107458107D01*
X91775171Y-107164149D01*
X91621428Y-106782118D01*
X91404742Y-106487673D01*
X91110208Y-106272886D01*
X90722918Y-106129827D01*
X90227965Y-106050568D01*
X89637429Y-106027143D01*
X89171256Y-106036616D01*
X88817083Y-106070853D01*
X88542654Y-106138578D01*
X88315717Y-106248518D01*
X88104016Y-106409398D01*
X88052641Y-106455864D01*
X87854053Y-106669252D01*
X87695456Y-106914981D01*
X87568291Y-107216899D01*
X87464003Y-107598853D01*
X87374034Y-108084690D01*
X87312477Y-108518689D01*
X87244520Y-108943110D01*
X87167248Y-109249902D01*
X87083723Y-109429222D01*
X87014882Y-109474286D01*
X86936252Y-109528645D01*
X86842201Y-109647403D01*
X86796690Y-109730302D01*
X86779865Y-109820678D01*
X86059259Y-109820678D01*
X85972572Y-109655715D01*
X85611557Y-109632930D01*
X85322155Y-109594974D01*
X85151599Y-109515366D01*
X85075845Y-109377931D01*
X85065871Y-109265829D01*
X85075459Y-109159174D01*
X85126483Y-109099701D01*
X85253278Y-109070547D01*
X85490176Y-109054849D01*
X85496006Y-109054570D01*
X85751037Y-109050504D01*
X85920692Y-109080197D01*
X86063793Y-109160901D01*
X86176430Y-109254141D01*
X86367057Y-109410846D01*
X86474671Y-109468964D01*
X86515292Y-109436019D01*
X86516857Y-109413978D01*
X86459633Y-109340600D01*
X86324207Y-109250692D01*
X86122737Y-109085401D01*
X86009621Y-108842732D01*
X85980192Y-108506078D01*
X86014901Y-108150409D01*
X86067635Y-107863160D01*
X86123731Y-107652195D01*
X86175873Y-107534689D01*
X86216750Y-107527818D01*
X86237625Y-107627343D01*
X86255145Y-107782882D01*
X86265540Y-107841429D01*
X86285375Y-107974713D01*
X86290772Y-108035432D01*
X86339204Y-108160947D01*
X86447374Y-108326145D01*
X86578202Y-108483884D01*
X86694606Y-108587022D01*
X86737558Y-108603429D01*
X86736005Y-108558058D01*
X86653141Y-108445734D01*
X86623880Y-108413162D01*
X86448705Y-108125174D01*
X86387933Y-107790582D01*
X86438136Y-107447531D01*
X86595887Y-107134165D01*
X86754025Y-106964844D01*
X86988572Y-106766991D01*
X87024857Y-107340496D01*
X87044309Y-107614417D01*
X87061964Y-107757518D01*
X87082078Y-107783996D01*
X87108907Y-107708047D01*
X87120647Y-107660000D01*
X87296899Y-107040467D01*
X87506012Y-106555557D01*
X87753075Y-106197431D01*
X88043178Y-105958252D01*
X88294857Y-105851408D01*
X88819551Y-105735006D01*
X89370012Y-105671742D01*
X89919537Y-105659494D01*
X90441421Y-105696138D01*
X90908962Y-105779551D01*
X91295456Y-105907610D01*
X91574198Y-106078192D01*
X91612738Y-106115196D01*
X91765354Y-106313886D01*
X91914547Y-106570420D01*
X92034313Y-106832718D01*
X92098647Y-107048702D01*
X92103264Y-107097572D01*
X92132103Y-107206841D01*
X92219460Y-107195883D01*
X92372950Y-107062891D01*
X92408984Y-107025000D01*
X92614563Y-106771924D01*
X92719320Y-106535940D01*
X92742601Y-106257786D01*
X92726294Y-106052909D01*
X92710396Y-105823978D01*
X92719238Y-105670769D01*
X92743149Y-105628000D01*
X92867482Y-105692869D01*
X92867482Y-105692869D01*
G37*
X92867482Y-105692869D02*
X93005613Y-105864214D01*
X93138451Y-106107144D01*
X93246904Y-106386769D01*
X93311736Y-106667133D01*
X93327230Y-106873270D01*
X93288883Y-107024480D01*
X93174616Y-107187202D01*
X93116433Y-107254809D01*
X92968474Y-107449035D01*
X92891304Y-107640250D01*
X92858490Y-107897843D01*
X92856200Y-107937997D01*
X92847707Y-108153869D01*
X92854229Y-108237414D01*
X92878644Y-108200938D01*
X92901501Y-108131714D01*
X92963932Y-107908894D01*
X93006062Y-107732572D01*
X93103787Y-107562323D01*
X93314102Y-107382768D01*
X93360357Y-107352629D01*
X93573970Y-107206324D01*
X93753190Y-107062571D01*
X93809329Y-107007915D01*
X93950236Y-106883271D01*
X94033020Y-106890125D01*
X94063571Y-107029713D01*
X94064015Y-107061286D01*
X94003692Y-107322356D01*
X93836280Y-107619778D01*
X93593887Y-107906087D01*
X93455677Y-108091732D01*
X93448180Y-108225656D01*
X93501250Y-108409715D01*
X93555812Y-108684580D01*
X93606473Y-109008856D01*
X93647841Y-109341146D01*
X93674525Y-109640054D01*
X93681132Y-109864182D01*
X93672565Y-109948330D01*
X93589254Y-110109768D01*
X93420255Y-110326452D01*
X93196620Y-110567382D01*
X92949398Y-110801553D01*
X92709638Y-110997962D01*
X92508390Y-111125607D01*
X92481303Y-111137800D01*
X92298360Y-111282021D01*
X92227303Y-111517277D01*
X92267965Y-111844375D01*
X92307657Y-111978000D01*
X92395484Y-112343430D01*
X92440741Y-112756211D01*
X92445210Y-113180557D01*
X92410669Y-113580683D01*
X92338897Y-113920803D01*
X92231674Y-114165131D01*
X92196661Y-114210273D01*
X91928086Y-114414024D01*
X91539456Y-114574357D01*
X91051444Y-114683376D01*
X90907429Y-114702742D01*
X90527630Y-114739604D01*
X90159372Y-114761745D01*
X89829999Y-114769078D01*
X89566856Y-114761516D01*
X89397286Y-114738974D01*
X89347143Y-114707669D01*
X89282517Y-114659819D01*
X89118790Y-114612206D01*
X89017800Y-114593949D01*
X88579670Y-114495710D01*
X88102039Y-114336478D01*
X87661248Y-114142714D01*
X87559478Y-114088483D01*
X87244611Y-113912500D01*
X87007734Y-114360393D01*
X86875948Y-114598114D01*
X86774139Y-114735148D01*
X86669602Y-114801721D01*
X86529634Y-114828056D01*
X86498714Y-114830810D01*
X86300667Y-114826949D01*
X86227451Y-114769631D01*
X86226514Y-114758238D01*
X86197015Y-114648308D01*
X86119656Y-114450714D01*
X86011055Y-114207827D01*
X86008800Y-114203056D01*
X85900403Y-113965530D01*
X85890478Y-113941743D01*
X86197865Y-113941743D01*
X86228555Y-114100847D01*
X86354235Y-114318429D01*
X86465522Y-114453896D01*
X86563866Y-114459921D01*
X86679812Y-114354715D01*
X86764164Y-114224312D01*
X86875464Y-114006173D01*
X86986019Y-113756000D01*
X87131532Y-113456103D01*
X87513441Y-113456103D01*
X87516159Y-113538519D01*
X87629545Y-113653482D01*
X87826676Y-113787333D01*
X88080628Y-113926416D01*
X88364476Y-114057071D01*
X88651297Y-114165642D01*
X88914166Y-114238470D01*
X89102371Y-114262127D01*
X89194054Y-114249655D01*
X89232594Y-114184613D01*
X89230650Y-114030018D01*
X89221798Y-113940375D01*
X89579452Y-113940375D01*
X89601428Y-114109611D01*
X89630484Y-114264289D01*
X89665188Y-114371921D01*
X89728038Y-114437316D01*
X89841530Y-114465283D01*
X90028162Y-114460630D01*
X90310431Y-114428166D01*
X90710835Y-114372700D01*
X90784284Y-114362441D01*
X90978064Y-114328792D01*
X91064841Y-114274497D01*
X91081649Y-114161024D01*
X91074570Y-114060413D01*
X91037927Y-113875331D01*
X90942725Y-113779239D01*
X90839435Y-113741466D01*
X91544726Y-113741466D01*
X91545052Y-113841746D01*
X91568723Y-113960044D01*
X91612411Y-114110690D01*
X91677548Y-114144250D01*
X91748993Y-114115115D01*
X91897088Y-113989947D01*
X91958051Y-113904251D01*
X92027347Y-113731993D01*
X91989609Y-113652861D01*
X91835387Y-113652538D01*
X91796429Y-113659382D01*
X91617186Y-113695641D01*
X91544726Y-113741466D01*
X90839435Y-113741466D01*
X90834857Y-113739792D01*
X90609182Y-113711597D01*
X90298542Y-113718905D01*
X89957846Y-113758459D01*
X89721839Y-113805793D01*
X89612235Y-113850322D01*
X89579452Y-113940375D01*
X89221798Y-113940375D01*
X89219715Y-113919286D01*
X89194105Y-113712685D01*
X89170837Y-113576936D01*
X89162198Y-113550473D01*
X89074927Y-113524935D01*
X88879818Y-113499236D01*
X88613786Y-113475490D01*
X88313744Y-113455809D01*
X88016606Y-113442306D01*
X87759287Y-113437094D01*
X87578701Y-113442286D01*
X87513441Y-113456103D01*
X87131532Y-113456103D01*
X87168182Y-113380571D01*
X87352364Y-113143375D01*
X87425929Y-113102857D01*
X88113429Y-113102857D01*
X89211196Y-113102857D01*
X89188455Y-112867000D01*
X89183208Y-112812572D01*
X89483090Y-112812572D01*
X89505831Y-113048429D01*
X89527039Y-113180200D01*
X89582185Y-113259966D01*
X89706551Y-113312265D01*
X89935421Y-113361638D01*
X89964000Y-113367090D01*
X90257470Y-113408894D01*
X90621061Y-113441176D01*
X90979786Y-113457404D01*
X91005400Y-113457805D01*
X91304109Y-113459216D01*
X91498880Y-113446248D01*
X91630891Y-113407367D01*
X91741320Y-113331041D01*
X91858114Y-113218972D01*
X92017115Y-113035229D01*
X92088854Y-112860865D01*
X92104857Y-112638400D01*
X92096300Y-112441078D01*
X92074602Y-112321267D01*
X92060905Y-112304572D01*
X91982089Y-112347024D01*
X91842212Y-112452169D01*
X91804651Y-112483211D01*
X91604969Y-112620315D01*
X91367427Y-112715741D01*
X91064055Y-112775476D01*
X90666881Y-112805507D01*
X90267831Y-112812167D01*
X89483090Y-112812572D01*
X89183208Y-112812572D01*
X89165715Y-112631143D01*
X88113429Y-112588499D01*
X88113429Y-113102857D01*
X87425929Y-113102857D01*
X87544491Y-113037556D01*
X87613469Y-113030286D01*
X87728876Y-112975199D01*
X87750572Y-112885143D01*
X87724701Y-112767150D01*
X87688889Y-112740000D01*
X87577961Y-112785567D01*
X87404484Y-112900874D01*
X87209336Y-113053833D01*
X87033394Y-113212355D01*
X86917537Y-113344351D01*
X86915952Y-113346746D01*
X86783445Y-113484895D01*
X86579843Y-113633544D01*
X86478616Y-113692400D01*
X86278757Y-113817984D01*
X86197865Y-113941743D01*
X85890478Y-113941743D01*
X85822437Y-113778676D01*
X85791191Y-113681621D01*
X85791143Y-113680201D01*
X85854618Y-113627255D01*
X86011223Y-113576865D01*
X86050330Y-113568810D01*
X86292105Y-113484672D01*
X86511595Y-113350145D01*
X86512999Y-113348968D01*
X86610098Y-113261177D01*
X86668021Y-113174351D01*
X86694239Y-113052467D01*
X86696222Y-112859503D01*
X86681439Y-112559435D01*
X86680429Y-112541589D01*
X86670130Y-112197344D01*
X86992670Y-112197344D01*
X87021644Y-112332406D01*
X87077984Y-112442051D01*
X87163094Y-112468904D01*
X87329138Y-112428095D01*
X87339940Y-112424725D01*
X87593019Y-112345512D01*
X87327081Y-112114937D01*
X87166265Y-111981934D01*
X87078476Y-111937945D01*
X87030320Y-111973287D01*
X87008786Y-112022618D01*
X86992670Y-112197344D01*
X86670130Y-112197344D01*
X86669169Y-112165245D01*
X86687621Y-111892015D01*
X86739137Y-111682280D01*
X86757050Y-111636379D01*
X86817252Y-111366864D01*
X86797591Y-111086683D01*
X86706933Y-110849888D01*
X86610329Y-110742010D01*
X86525748Y-110642046D01*
X86401273Y-110450232D01*
X86261386Y-110204805D01*
X86237112Y-110159129D01*
X86059259Y-109820678D01*
X86779865Y-109820678D01*
X86797171Y-109946798D01*
X86854050Y-110136925D01*
X86955946Y-110419325D01*
X87027375Y-110608975D01*
X87208554Y-111053456D01*
X87381933Y-111386751D01*
X87571931Y-111639193D01*
X87802966Y-111841118D01*
X88099455Y-112022860D01*
X88213367Y-112082330D01*
X88551185Y-112226606D01*
X88927493Y-112329464D01*
X89371945Y-112396097D01*
X89914197Y-112431701D01*
X90254286Y-112439803D01*
X90602414Y-112437490D01*
X90856348Y-112414402D01*
X91066487Y-112362395D01*
X91282658Y-112273589D01*
X91503626Y-112153090D01*
X91672164Y-112029311D01*
X91731934Y-111960524D01*
X91787950Y-111810396D01*
X91843726Y-111587288D01*
X91893682Y-111327859D01*
X91932241Y-111068769D01*
X91953824Y-110846677D01*
X91952852Y-110698243D01*
X91930239Y-110657349D01*
X91887142Y-110599063D01*
X91869037Y-110402393D01*
X91873529Y-110113937D01*
X91896200Y-109556159D01*
X91619529Y-109533365D01*
X91342857Y-109510572D01*
X91510871Y-109342558D01*
X91673250Y-109224421D01*
X91852344Y-109213801D01*
X91897364Y-109222531D01*
X92047863Y-109244687D01*
X92098593Y-109195587D01*
X92092208Y-109064593D01*
X92027524Y-108889931D01*
X91923429Y-108835657D01*
X91710896Y-108791090D01*
X91635188Y-108732406D01*
X91688219Y-108637219D01*
X91811347Y-108525258D01*
X91962776Y-108381467D01*
X92006310Y-108286064D01*
X91974632Y-108226461D01*
X91902435Y-108175812D01*
X91887143Y-108226057D01*
X91826508Y-108296749D01*
X91742000Y-108313143D01*
X91624269Y-108272448D01*
X91596857Y-108215534D01*
X91646600Y-108097108D01*
X91742000Y-107986572D01*
X91843476Y-107857697D01*
X91879811Y-107692526D01*
X91852333Y-107458107D01*
X91775171Y-107164149D01*
X91621428Y-106782118D01*
X91404742Y-106487673D01*
X91110208Y-106272886D01*
X90722918Y-106129827D01*
X90227965Y-106050568D01*
X89637429Y-106027143D01*
X89171256Y-106036616D01*
X88817083Y-106070853D01*
X88542654Y-106138578D01*
X88315717Y-106248518D01*
X88104016Y-106409398D01*
X88052641Y-106455864D01*
X87854053Y-106669252D01*
X87695456Y-106914981D01*
X87568291Y-107216899D01*
X87464003Y-107598853D01*
X87374034Y-108084690D01*
X87312477Y-108518689D01*
X87244520Y-108943110D01*
X87167248Y-109249902D01*
X87083723Y-109429222D01*
X87014882Y-109474286D01*
X86936252Y-109528645D01*
X86842201Y-109647403D01*
X86796690Y-109730302D01*
X86779865Y-109820678D01*
X86059259Y-109820678D01*
X85972572Y-109655715D01*
X85611557Y-109632930D01*
X85322155Y-109594974D01*
X85151599Y-109515366D01*
X85075845Y-109377931D01*
X85065871Y-109265829D01*
X85075459Y-109159174D01*
X85126483Y-109099701D01*
X85253278Y-109070547D01*
X85490176Y-109054849D01*
X85496006Y-109054570D01*
X85751037Y-109050504D01*
X85920692Y-109080197D01*
X86063793Y-109160901D01*
X86176430Y-109254141D01*
X86367057Y-109410846D01*
X86474671Y-109468964D01*
X86515292Y-109436019D01*
X86516857Y-109413978D01*
X86459633Y-109340600D01*
X86324207Y-109250692D01*
X86122737Y-109085401D01*
X86009621Y-108842732D01*
X85980192Y-108506078D01*
X86014901Y-108150409D01*
X86067635Y-107863160D01*
X86123731Y-107652195D01*
X86175873Y-107534689D01*
X86216750Y-107527818D01*
X86237625Y-107627343D01*
X86255145Y-107782882D01*
X86265540Y-107841429D01*
X86285375Y-107974713D01*
X86290772Y-108035432D01*
X86339204Y-108160947D01*
X86447374Y-108326145D01*
X86578202Y-108483884D01*
X86694606Y-108587022D01*
X86737558Y-108603429D01*
X86736005Y-108558058D01*
X86653141Y-108445734D01*
X86623880Y-108413162D01*
X86448705Y-108125174D01*
X86387933Y-107790582D01*
X86438136Y-107447531D01*
X86595887Y-107134165D01*
X86754025Y-106964844D01*
X86988572Y-106766991D01*
X87024857Y-107340496D01*
X87044309Y-107614417D01*
X87061964Y-107757518D01*
X87082078Y-107783996D01*
X87108907Y-107708047D01*
X87120647Y-107660000D01*
X87296899Y-107040467D01*
X87506012Y-106555557D01*
X87753075Y-106197431D01*
X88043178Y-105958252D01*
X88294857Y-105851408D01*
X88819551Y-105735006D01*
X89370012Y-105671742D01*
X89919537Y-105659494D01*
X90441421Y-105696138D01*
X90908962Y-105779551D01*
X91295456Y-105907610D01*
X91574198Y-106078192D01*
X91612738Y-106115196D01*
X91765354Y-106313886D01*
X91914547Y-106570420D01*
X92034313Y-106832718D01*
X92098647Y-107048702D01*
X92103264Y-107097572D01*
X92132103Y-107206841D01*
X92219460Y-107195883D01*
X92372950Y-107062891D01*
X92408984Y-107025000D01*
X92614563Y-106771924D01*
X92719320Y-106535940D01*
X92742601Y-106257786D01*
X92726294Y-106052909D01*
X92710396Y-105823978D01*
X92719238Y-105670769D01*
X92743149Y-105628000D01*
X92867482Y-105692869D01*
D11*
X228202380Y-108353809D02*
X228316666Y-108391904D01*
X228507142Y-108391904D01*
X228583333Y-108353809D01*
X228621428Y-108315714D01*
X228659523Y-108239523D01*
X228659523Y-108163333D01*
X228621428Y-108087142D01*
X228583333Y-108049047D01*
X228507142Y-108010952D01*
X228354761Y-107972857D01*
X228278571Y-107934761D01*
X228240476Y-107896666D01*
X228202380Y-107820476D01*
X228202380Y-107744285D01*
X228240476Y-107668095D01*
X228278571Y-107630000D01*
X228354761Y-107591904D01*
X228545238Y-107591904D01*
X228659523Y-107630000D01*
X228926190Y-107591904D02*
X229116666Y-108391904D01*
X229269047Y-107820476D01*
X229421428Y-108391904D01*
X229611904Y-107591904D01*
X229878571Y-107668095D02*
X229916666Y-107630000D01*
X229992857Y-107591904D01*
X230183333Y-107591904D01*
X230259523Y-107630000D01*
X230297619Y-107668095D01*
X230335714Y-107744285D01*
X230335714Y-107820476D01*
X230297619Y-107934761D01*
X229840476Y-108391904D01*
X230335714Y-108391904D01*
X230830952Y-107591904D02*
X230907142Y-107591904D01*
X230983333Y-107630000D01*
X231021428Y-107668095D01*
X231059523Y-107744285D01*
X231097619Y-107896666D01*
X231097619Y-108087142D01*
X231059523Y-108239523D01*
X231021428Y-108315714D01*
X230983333Y-108353809D01*
X230907142Y-108391904D01*
X230830952Y-108391904D01*
X230754761Y-108353809D01*
X230716666Y-108315714D01*
X230678571Y-108239523D01*
X230640476Y-108087142D01*
X230640476Y-107896666D01*
X230678571Y-107744285D01*
X230716666Y-107668095D01*
X230754761Y-107630000D01*
X230830952Y-107591904D01*
X229897619Y-101891904D02*
X229516666Y-101891904D01*
X229516666Y-101091904D01*
X209152380Y-110723809D02*
X209266666Y-110761904D01*
X209457142Y-110761904D01*
X209533333Y-110723809D01*
X209571428Y-110685714D01*
X209609523Y-110609523D01*
X209609523Y-110533333D01*
X209571428Y-110457142D01*
X209533333Y-110419047D01*
X209457142Y-110380952D01*
X209304761Y-110342857D01*
X209228571Y-110304761D01*
X209190476Y-110266666D01*
X209152380Y-110190476D01*
X209152380Y-110114285D01*
X209190476Y-110038095D01*
X209228571Y-110000000D01*
X209304761Y-109961904D01*
X209495238Y-109961904D01*
X209609523Y-110000000D01*
X209876190Y-109961904D02*
X210066666Y-110761904D01*
X210219047Y-110190476D01*
X210371428Y-110761904D01*
X210561904Y-109961904D01*
X211285714Y-110761904D02*
X210828571Y-110761904D01*
X211057142Y-110761904D02*
X211057142Y-109961904D01*
X210980952Y-110076190D01*
X210904761Y-110152380D01*
X210828571Y-110190476D01*
X211666666Y-110761904D02*
X211819047Y-110761904D01*
X211895238Y-110723809D01*
X211933333Y-110685714D01*
X212009523Y-110571428D01*
X212047619Y-110419047D01*
X212047619Y-110114285D01*
X212009523Y-110038095D01*
X211971428Y-110000000D01*
X211895238Y-109961904D01*
X211742857Y-109961904D01*
X211666666Y-110000000D01*
X211628571Y-110038095D01*
X211590476Y-110114285D01*
X211590476Y-110304761D01*
X211628571Y-110380952D01*
X211666666Y-110419047D01*
X211742857Y-110457142D01*
X211895238Y-110457142D01*
X211971428Y-110419047D01*
X212009523Y-110380952D01*
X212047619Y-110304761D01*
X210847619Y-104261904D02*
X210466666Y-104261904D01*
X210466666Y-103461904D01*
X208895119Y-99731904D02*
X208628452Y-99350952D01*
X208437976Y-99731904D02*
X208437976Y-98931904D01*
X208742738Y-98931904D01*
X208818928Y-98970000D01*
X208857023Y-99008095D01*
X208895119Y-99084285D01*
X208895119Y-99198571D01*
X208857023Y-99274761D01*
X208818928Y-99312857D01*
X208742738Y-99350952D01*
X208437976Y-99350952D01*
X227915119Y-97421904D02*
X227648452Y-97040952D01*
X227457976Y-97421904D02*
X227457976Y-96621904D01*
X227762738Y-96621904D01*
X227838928Y-96660000D01*
X227877023Y-96698095D01*
X227915119Y-96774285D01*
X227915119Y-96888571D01*
X227877023Y-96964761D01*
X227838928Y-97002857D01*
X227762738Y-97040952D01*
X227457976Y-97040952D01*
M02*
