  0
SECTION
  2
BLOCKS
  0
ENDSEC
  0
SECTION
  2
ENTITIES
  0
LINE
  8
0
 10
-40.0603
 20
-2.82616
 11
-38.9808
 21
-2.72412
  0
LINE
  8
0
 10
-38.9808
 20
-2.72412
 11
-38.8562
 21
-2.70839
  0
LINE
  8
0
 10
-38.8562
 20
-2.70839
 11
-20.0435
 21
0.00198364
  0
LINE
  8
0
 10
-20.0435
 20
0.00198364
 11
-0.93721
 21
0.00198364
  0
LINE
  8
0
 10
-0.93721
 20
0.00198364
 11
-0.812622
 21
0.0177155
  0
LINE
  8
0
 10
-0.812622
 20
0.0177155
 11
-0.690994
 21
0.0489502
  0
LINE
  8
0
 10
-0.690994
 20
0.0489502
 11
-0.574234
 21
0.0951843
  0
LINE
  8
0
 10
-0.574234
 20
0.0951843
 11
-0.464188
 21
0.155685
  0
LINE
  8
0
 10
-0.464188
 20
0.155685
 11
-0.362579
 21
0.229492
  0
LINE
  8
0
 10
-0.362579
 20
0.229492
 11
-0.271042
 21
0.31546
  0
LINE
  8
0
 10
-0.271042
 20
0.31546
 11
-0.190994
 21
0.412216
  0
LINE
  8
0
 10
-0.190994
 20
0.412216
 11
-0.123703
 21
0.51825
  0
LINE
  8
0
 10
-0.123703
 20
0.51825
 11
-0.0702362
 21
0.631882
  0
LINE
  8
0
 10
-0.0702362
 20
0.631882
 11
-0.0314178
 21
0.751312
  0
LINE
  8
0
 10
-0.0314178
 20
0.751312
 11
-0.00788879
 21
0.87468
  0
LINE
  8
0
 10
-0.00788879
 20
0.87468
 11
0
 21
1
  0
LINE
  8
0
 10
0
 20
1
 11
0
 21
24.8125
  0
LINE
  8
0
 10
0
 20
24.8125
 11
-0.00788879
 21
24.9378
  0
LINE
  8
0
 10
-0.00788879
 20
24.9378
 11
-0.0314178
 21
25.0612
  0
LINE
  8
0
 10
-0.0314178
 20
25.0612
 11
-0.0702362
 21
25.1806
  0
LINE
  8
0
 10
-0.0702362
 20
25.1806
 11
-0.123703
 21
25.2943
  0
LINE
  8
0
 10
-0.123703
 20
25.2943
 11
-0.190994
 21
25.4003
  0
LINE
  8
0
 10
-0.190994
 20
25.4003
 11
-0.271042
 21
25.497
  0
LINE
  8
0
 10
-0.271042
 20
25.497
 11
-0.362579
 21
25.583
  0
LINE
  8
0
 10
-0.362579
 20
25.583
 11
-0.464188
 21
25.6568
  0
LINE
  8
0
 10
-0.464188
 20
25.6568
 11
-0.574234
 21
25.7173
  0
LINE
  8
0
 10
-0.574234
 20
25.7173
 11
-0.690994
 21
25.7635
  0
LINE
  8
0
 10
-0.690994
 20
25.7635
 11
-0.812622
 21
25.7948
  0
LINE
  8
0
 10
-0.812622
 20
25.7948
 11
-0.93721
 21
25.8105
  0
LINE
  8
0
 10
-0.93721
 20
25.8105
 11
-20.0463
 21
25.8105
  0
LINE
  8
0
 10
-20.0463
 20
25.8105
 11
-33.4435
 21
31.6972
  0
LINE
  8
0
 10
-33.4435
 20
31.6972
 11
-34.4611
 21
32.1375
  0
LINE
  8
0
 10
-34.4611
 20
32.1375
 11
-34.5778
 21
32.1837
  0
LINE
  8
0
 10
-34.5778
 20
32.1837
 11
-35.5915
 21
32.5487
  0
LINE
  8
0
 10
-35.5915
 20
32.5487
 11
-36.6261
 21
32.8493
  0
LINE
  8
0
 10
-36.6261
 20
32.8493
 11
-36.7477
 21
32.8805
  0
LINE
  8
0
 10
-36.7477
 20
32.8805
 11
-37.7992
 21
33.1155
  0
LINE
  8
0
 10
-37.7992
 20
33.1155
 11
-38.8632
 21
33.2841
  0
LINE
  8
0
 10
-38.8632
 20
33.2841
 11
-38.9878
 21
33.2998
  0
LINE
  8
0
 10
-38.9878
 20
33.2998
 11
-40.0603
 21
33.4012
  0
LINE
  8
0
 10
-40.0603
 20
33.4012
 11
-41.1372
 21
33.435
  0
LINE
  8
0
 10
-41.1372
 20
33.435
 11
-41.2628
 21
33.435
  0
LINE
  8
0
 10
-41.2628
 20
33.435
 11
-42.3397
 21
33.4012
  0
LINE
  8
0
 10
-42.3397
 20
33.4012
 11
-43.4122
 21
33.2998
  0
LINE
  8
0
 10
-43.4122
 20
33.2998
 11
-43.5368
 21
33.2841
  0
LINE
  8
0
 10
-43.5368
 20
33.2841
 11
-44.6007
 21
33.1156
  0
LINE
  8
0
 10
-44.6007
 20
33.1156
 11
-45.6523
 21
32.8805
  0
LINE
  8
0
 10
-45.6523
 20
32.8805
 11
-45.774
 21
32.8492
  0
LINE
  8
0
 10
-45.774
 20
32.8492
 11
-46.8085
 21
32.5487
  0
LINE
  8
0
 10
-46.8085
 20
32.5487
 11
-47.8222
 21
32.1837
  0
LINE
  8
0
 10
-47.8222
 20
32.1837
 11
-47.9389
 21
32.1375
  0
LINE
  8
0
 10
-47.9389
 20
32.1375
 11
-48.9277
 21
31.7096
  0
LINE
  8
0
 10
-48.9277
 20
31.7096
 11
-49.8876
 21
31.2205
  0
LINE
  8
0
 10
-49.8876
 20
31.2205
 11
-49.9977
 21
31.16
  0
LINE
  8
0
 10
-49.9977
 20
31.16
 11
-50.9249
 21
30.6117
  0
LINE
  8
0
 10
-50.9249
 20
30.6117
 11
-51.8161
 21
30.006
  0
LINE
  8
0
 10
-51.8161
 20
30.006
 11
-51.9177
 21
29.9322
  0
LINE
  8
0
 10
-51.9177
 20
29.9322
 11
-52.7691
 21
29.2718
  0
LINE
  8
0
 10
-52.7691
 20
29.2718
 11
-53.5769
 21
28.5596
  0
LINE
  8
0
 10
-53.5769
 20
28.5596
 11
-53.6685
 21
28.4736
  0
LINE
  8
0
 10
-53.6685
 20
28.4736
 11
-54.4304
 21
27.7117
  0
LINE
  8
0
 10
-54.4304
 20
27.7117
 11
-55.1429
 21
26.9035
  0
LINE
  8
0
 10
-55.1429
 20
26.9035
 11
-55.2229
 21
26.8068
  0
LINE
  8
0
 10
-55.2229
 20
26.8068
 11
-55.8832
 21
25.9556
  0
LINE
  8
0
 10
-55.8832
 20
25.9556
 11
-56.4889
 21
25.0643
  0
LINE
  8
0
 10
-56.4889
 20
25.0643
 11
-56.5562
 21
24.9582
  0
LINE
  8
0
 10
-56.5562
 20
24.9582
 11
-57.1045
 21
24.0311
  0
LINE
  8
0
 10
-57.1045
 20
24.0311
 11
-57.5936
 21
23.0713
  0
LINE
  8
0
 10
-57.5936
 20
23.0713
 11
-57.647
 21
22.9576
  0
LINE
  8
0
 10
-57.647
 20
22.9576
 11
-58.075
 21
21.9688
  0
LINE
  8
0
 10
-58.075
 20
21.9688
 11
-58.4399
 21
20.955
  0
LINE
  8
0
 10
-58.4399
 20
20.955
 11
-58.4787
 21
20.8356
  0
LINE
  8
0
 10
-58.4787
 20
20.8356
 11
-58.7793
 21
19.8012
  0
LINE
  8
0
 10
-58.7793
 20
19.8012
 11
-59.0143
 21
18.7495
  0
LINE
  8
0
 10
-59.0143
 20
18.7495
 11
-59.0379
 21
18.6261
  0
LINE
  8
0
 10
-59.0379
 20
18.6261
 11
-59.2064
 21
17.5622
  0
LINE
  8
0
 10
-59.2064
 20
17.5622
 11
-59.3078
 21
16.4898
  0
LINE
  8
0
 10
-59.3078
 20
16.4898
 11
-59.3156
 21
16.3644
  0
LINE
  8
0
 10
-59.3156
 20
16.3644
 11
-59.3495
 21
15.2875
  0
LINE
  8
0
 10
-59.3495
 20
15.2875
 11
-59.3156
 21
14.2105
  0
LINE
  8
0
 10
-59.3156
 20
14.2105
 11
-59.3078
 21
14.0852
  0
LINE
  8
0
 10
-59.3078
 20
14.0852
 11
-59.2064
 21
13.0128
  0
LINE
  8
0
 10
-59.2064
 20
13.0128
 11
-59.0379
 21
11.9488
  0
LINE
  8
0
 10
-59.0379
 20
11.9488
 11
-59.0143
 21
11.8255
  0
LINE
  8
0
 10
-59.0143
 20
11.8255
 11
-58.7793
 21
10.7738
  0
LINE
  8
0
 10
-58.7793
 20
10.7738
 11
-58.4787
 21
9.73938
  0
LINE
  8
0
 10
-58.4787
 20
9.73938
 11
-58.4399
 21
9.61995
  0
LINE
  8
0
 10
-58.4399
 20
9.61995
 11
-58.075
 21
8.60622
  0
LINE
  8
0
 10
-58.075
 20
8.60622
 11
-57.6471
 21
7.61745
  0
LINE
  8
0
 10
-57.6471
 20
7.61745
 11
-57.5936
 21
7.50381
  0
LINE
  8
0
 10
-57.5936
 20
7.50381
 11
-57.1045
 21
6.5439
  0
LINE
  8
0
 10
-57.1045
 20
6.5439
 11
-56.5562
 21
5.61668
  0
LINE
  8
0
 10
-56.5562
 20
5.61668
 11
-56.4889
 21
5.51065
  0
LINE
  8
0
 10
-56.4889
 20
5.51065
 11
-55.8832
 21
4.61938
  0
LINE
  8
0
 10
-55.8832
 20
4.61938
 11
-55.2229
 21
3.76819
  0
LINE
  8
0
 10
-55.2229
 20
3.76819
 11
-55.1429
 21
3.67143
  0
LINE
  8
0
 10
-55.1429
 20
3.67143
 11
-54.4304
 21
2.86333
  0
LINE
  8
0
 10
-54.4304
 20
2.86333
 11
-53.6686
 21
2.10149
  0
LINE
  8
0
 10
-53.6686
 20
2.10149
 11
-53.577
 21
2.01552
  0
LINE
  8
0
 10
-53.577
 20
2.01552
 11
-52.7689
 21
1.30307
  0
LINE
  8
0
 10
-52.7689
 20
1.30307
 11
-51.9176
 21
0.642746
  0
LINE
  8
0
 10
-51.9176
 20
0.642746
 11
-51.816
 21
0.568939
  0
LINE
  8
0
 10
-51.816
 20
0.568939
 11
-50.925
 21
-0.0366058
  0
LINE
  8
0
 10
-50.925
 20
-0.0366058
 11
-49.9977
 21
-0.585037
  0
LINE
  8
0
 10
-49.9977
 20
-0.585037
 11
-49.8876
 21
-0.645538
  0
LINE
  8
0
 10
-49.8876
 20
-0.645538
 11
-48.9277
 21
-1.13463
  0
LINE
  8
0
 10
-48.9277
 20
-1.13463
 11
-47.9389
 21
-1.56252
  0
LINE
  8
0
 10
-47.9389
 20
-1.56252
 11
-47.8222
 21
-1.60875
  0
LINE
  8
0
 10
-47.8222
 20
-1.60875
 11
-46.8085
 21
-1.97369
  0
LINE
  8
0
 10
-46.8085
 20
-1.97369
 11
-45.7739
 21
-2.27426
  0
LINE
  8
0
 10
-45.7739
 20
-2.27426
 11
-45.6523
 21
-2.3055
  0
LINE
  8
0
 10
-45.6523
 20
-2.3055
 11
-44.6008
 21
-2.54053
  0
LINE
  8
0
 10
-44.6008
 20
-2.54053
 11
-43.5368
 21
-2.70906
  0
LINE
  8
0
 10
-43.5368
 20
-2.70906
 11
-43.4122
 21
-2.72479
  0
LINE
  8
0
 10
-43.4122
 20
-2.72479
 11
-42.3397
 21
-2.82616
  0
LINE
  8
0
 10
-42.3397
 20
-2.82616
 11
-41.2628
 21
-2.86
  0
LINE
  8
0
 10
-41.2628
 20
-2.86
 11
-41.1372
 21
-2.86
  0
LINE
  8
0
 10
-41.1372
 20
-2.86
 11
-40.0603
 21
-2.82616
  0
LINE
  8
0
 10
-41.2785
 20
28.0399
 11
-41.3567
 21
28.0473
  0
LINE
  8
0
 10
-41.3567
 20
28.0473
 11
-41.4342
 21
28.0596
  0
LINE
  8
0
 10
-41.4342
 20
28.0596
 11
-41.5108
 21
28.0768
  0
LINE
  8
0
 10
-41.5108
 20
28.0768
 11
-41.5863
 21
28.0987
  0
LINE
  8
0
 10
-41.5863
 20
28.0987
 11
-41.6601
 21
28.1253
  0
LINE
  8
0
 10
-41.6601
 20
28.1253
 11
-41.7322
 21
28.1564
  0
LINE
  8
0
 10
-41.7322
 20
28.1564
 11
-41.8022
 21
28.1921
  0
LINE
  8
0
 10
-41.8022
 20
28.1921
 11
-41.8698
 21
28.2321
  0
LINE
  8
0
 10
-41.8698
 20
28.2321
 11
-41.9347
 21
28.2762
  0
LINE
  8
0
 10
-41.9347
 20
28.2762
 11
-41.9968
 21
28.3243
  0
LINE
  8
0
 10
-41.9968
 20
28.3243
 11
-42.0557
 21
28.3763
  0
LINE
  8
0
 10
-42.0557
 20
28.3763
 11
-42.1112
 21
28.4318
  0
LINE
  8
0
 10
-42.1112
 20
28.4318
 11
-42.1631
 21
28.4907
  0
LINE
  8
0
 10
-42.1631
 20
28.4907
 11
-42.2113
 21
28.5527
  0
LINE
  8
0
 10
-42.2113
 20
28.5527
 11
-42.2554
 21
28.6177
  0
LINE
  8
0
 10
-42.2554
 20
28.6177
 11
-42.2954
 21
28.6853
  0
LINE
  8
0
 10
-42.2954
 20
28.6853
 11
-42.331
 21
28.7553
  0
LINE
  8
0
 10
-42.331
 20
28.7553
 11
-42.3622
 21
28.8273
  0
LINE
  8
0
 10
-42.3622
 20
28.8273
 11
-42.3888
 21
28.9012
  0
LINE
  8
0
 10
-42.3888
 20
28.9012
 11
-42.4107
 21
28.9766
  0
LINE
  8
0
 10
-42.4107
 20
28.9766
 11
-42.4278
 21
29.0533
  0
LINE
  8
0
 10
-42.4278
 20
29.0533
 11
-42.4401
 21
29.1308
  0
LINE
  8
0
 10
-42.4401
 20
29.1308
 11
-42.4475
 21
29.209
  0
LINE
  8
0
 10
-42.4475
 20
29.209
 11
-42.45
 21
29.2875
  0
LINE
  8
0
 10
-42.45
 20
29.2875
 11
-42.4475
 21
29.366
  0
LINE
  8
0
 10
-42.4475
 20
29.366
 11
-42.4401
 21
29.4442
  0
LINE
  8
0
 10
-42.4401
 20
29.4442
 11
-42.4278
 21
29.5217
  0
LINE
  8
0
 10
-42.4278
 20
29.5217
 11
-42.4107
 21
29.5983
  0
LINE
  8
0
 10
-42.4107
 20
29.5983
 11
-42.3888
 21
29.6738
  0
LINE
  8
0
 10
-42.3888
 20
29.6738
 11
-42.3622
 21
29.7476
  0
LINE
  8
0
 10
-42.3622
 20
29.7476
 11
-42.331
 21
29.8197
  0
LINE
  8
0
 10
-42.331
 20
29.8197
 11
-42.2954
 21
29.8897
  0
LINE
  8
0
 10
-42.2954
 20
29.8897
 11
-42.2554
 21
29.9573
  0
LINE
  8
0
 10
-42.2554
 20
29.9573
 11
-42.2113
 21
30.0222
  0
LINE
  8
0
 10
-42.2113
 20
30.0222
 11
-42.1631
 21
30.0843
  0
LINE
  8
0
 10
-42.1631
 20
30.0843
 11
-42.1112
 21
30.1432
  0
LINE
  8
0
 10
-42.1112
 20
30.1432
 11
-42.0557
 21
30.1987
  0
LINE
  8
0
 10
-42.0557
 20
30.1987
 11
-41.9968
 21
30.2506
  0
LINE
  8
0
 10
-41.9968
 20
30.2506
 11
-41.9347
 21
30.2988
  0
LINE
  8
0
 10
-41.9347
 20
30.2988
 11
-41.8698
 21
30.3429
  0
LINE
  8
0
 10
-41.8698
 20
30.3429
 11
-41.8022
 21
30.3829
  0
LINE
  8
0
 10
-41.8022
 20
30.3829
 11
-41.7322
 21
30.4185
  0
LINE
  8
0
 10
-41.7322
 20
30.4185
 11
-41.6601
 21
30.4497
  0
LINE
  8
0
 10
-41.6601
 20
30.4497
 11
-41.5863
 21
30.4763
  0
LINE
  8
0
 10
-41.5863
 20
30.4763
 11
-41.5108
 21
30.4982
  0
LINE
  8
0
 10
-41.5108
 20
30.4982
 11
-41.4342
 21
30.5153
  0
LINE
  8
0
 10
-41.4342
 20
30.5153
 11
-41.3567
 21
30.5276
  0
LINE
  8
0
 10
-41.3567
 20
30.5276
 11
-41.2785
 21
30.535
  0
LINE
  8
0
 10
-41.2785
 20
30.535
 11
-41.2
 21
30.5375
  0
LINE
  8
0
 10
-41.2
 20
30.5375
 11
-41.1215
 21
30.535
  0
LINE
  8
0
 10
-41.1215
 20
30.535
 11
-41.0433
 21
30.5276
  0
LINE
  8
0
 10
-41.0433
 20
30.5276
 11
-40.9658
 21
30.5153
  0
LINE
  8
0
 10
-40.9658
 20
30.5153
 11
-40.8891
 21
30.4982
  0
LINE
  8
0
 10
-40.8891
 20
30.4982
 11
-40.8137
 21
30.4763
  0
LINE
  8
0
 10
-40.8137
 20
30.4763
 11
-40.7399
 21
30.4497
  0
LINE
  8
0
 10
-40.7399
 20
30.4497
 11
-40.6678
 21
30.4185
  0
LINE
  8
0
 10
-40.6678
 20
30.4185
 11
-40.5978
 21
30.3829
  0
LINE
  8
0
 10
-40.5978
 20
30.3829
 11
-40.5302
 21
30.3429
  0
LINE
  8
0
 10
-40.5302
 20
30.3429
 11
-40.4653
 21
30.2988
  0
LINE
  8
0
 10
-40.4653
 20
30.2988
 11
-40.4032
 21
30.2506
  0
LINE
  8
0
 10
-40.4032
 20
30.2506
 11
-40.3443
 21
30.1987
  0
LINE
  8
0
 10
-40.3443
 20
30.1987
 11
-40.2888
 21
30.1432
  0
LINE
  8
0
 10
-40.2888
 20
30.1432
 11
-40.2369
 21
30.0843
  0
LINE
  8
0
 10
-40.2369
 20
30.0843
 11
-40.1887
 21
30.0222
  0
LINE
  8
0
 10
-40.1887
 20
30.0222
 11
-40.1446
 21
29.9573
  0
LINE
  8
0
 10
-40.1446
 20
29.9573
 11
-40.1046
 21
29.8897
  0
LINE
  8
0
 10
-40.1046
 20
29.8897
 11
-40.069
 21
29.8197
  0
LINE
  8
0
 10
-40.069
 20
29.8197
 11
-40.0378
 21
29.7476
  0
LINE
  8
0
 10
-40.0378
 20
29.7476
 11
-40.0112
 21
29.6738
  0
LINE
  8
0
 10
-40.0112
 20
29.6738
 11
-39.9893
 21
29.5983
  0
LINE
  8
0
 10
-39.9893
 20
29.5983
 11
-39.9722
 21
29.5217
  0
LINE
  8
0
 10
-39.9722
 20
29.5217
 11
-39.9599
 21
29.4442
  0
LINE
  8
0
 10
-39.9599
 20
29.4442
 11
-39.9525
 21
29.366
  0
LINE
  8
0
 10
-39.9525
 20
29.366
 11
-39.95
 21
29.2875
  0
LINE
  8
0
 10
-39.95
 20
29.2875
 11
-39.9525
 21
29.209
  0
LINE
  8
0
 10
-39.9525
 20
29.209
 11
-39.9599
 21
29.1308
  0
LINE
  8
0
 10
-39.9599
 20
29.1308
 11
-39.9722
 21
29.0533
  0
LINE
  8
0
 10
-39.9722
 20
29.0533
 11
-39.9893
 21
28.9766
  0
LINE
  8
0
 10
-39.9893
 20
28.9766
 11
-40.0112
 21
28.9012
  0
LINE
  8
0
 10
-40.0112
 20
28.9012
 11
-40.0378
 21
28.8273
  0
LINE
  8
0
 10
-40.0378
 20
28.8273
 11
-40.069
 21
28.7553
  0
LINE
  8
0
 10
-40.069
 20
28.7553
 11
-40.1046
 21
28.6853
  0
LINE
  8
0
 10
-40.1046
 20
28.6853
 11
-40.1446
 21
28.6177
  0
LINE
  8
0
 10
-40.1446
 20
28.6177
 11
-40.1887
 21
28.5527
  0
LINE
  8
0
 10
-40.1887
 20
28.5527
 11
-40.2369
 21
28.4907
  0
LINE
  8
0
 10
-40.2369
 20
28.4907
 11
-40.2888
 21
28.4318
  0
LINE
  8
0
 10
-40.2888
 20
28.4318
 11
-40.3443
 21
28.3763
  0
LINE
  8
0
 10
-40.3443
 20
28.3763
 11
-40.4032
 21
28.3243
  0
LINE
  8
0
 10
-40.4032
 20
28.3243
 11
-40.4653
 21
28.2762
  0
LINE
  8
0
 10
-40.4653
 20
28.2762
 11
-40.5302
 21
28.2321
  0
LINE
  8
0
 10
-40.5302
 20
28.2321
 11
-40.5978
 21
28.1921
  0
LINE
  8
0
 10
-40.5978
 20
28.1921
 11
-40.6678
 21
28.1564
  0
LINE
  8
0
 10
-40.6678
 20
28.1564
 11
-40.7399
 21
28.1253
  0
LINE
  8
0
 10
-40.7399
 20
28.1253
 11
-40.8137
 21
28.0987
  0
LINE
  8
0
 10
-40.8137
 20
28.0987
 11
-40.8891
 21
28.0768
  0
LINE
  8
0
 10
-40.8891
 20
28.0768
 11
-40.9658
 21
28.0596
  0
LINE
  8
0
 10
-40.9658
 20
28.0596
 11
-41.0433
 21
28.0473
  0
LINE
  8
0
 10
-41.0433
 20
28.0473
 11
-41.1215
 21
28.0399
  0
LINE
  8
0
 10
-41.1215
 20
28.0399
 11
-41.2
 21
28.0375
  0
LINE
  8
0
 10
-41.2
 20
28.0375
 11
-41.2785
 21
28.0399
  0
LINE
  8
0
 10
-41.9221
 20
3.81018
 11
-42.6413
 21
3.87817
  0
LINE
  8
0
 10
-42.6413
 20
3.87817
 11
-43.3549
 21
3.9912
  0
LINE
  8
0
 10
-43.3549
 20
3.9912
 11
-44.0599
 21
4.14879
  0
LINE
  8
0
 10
-44.0599
 20
4.14879
 11
-44.7537
 21
4.35034
  0
LINE
  8
0
 10
-44.7537
 20
4.35034
 11
-45.4334
 21
4.59506
  0
LINE
  8
0
 10
-45.4334
 20
4.59506
 11
-46.0965
 21
4.88199
  0
LINE
  8
0
 10
-46.0965
 20
4.88199
 11
-46.7402
 21
5.20996
  0
LINE
  8
0
 10
-46.7402
 20
5.20996
 11
-47.362
 21
5.57773
  0
LINE
  8
0
 10
-47.362
 20
5.57773
 11
-47.9595
 21
5.9838
  0
LINE
  8
0
 10
-47.9595
 20
5.9838
 11
-48.5304
 21
6.42659
  0
LINE
  8
0
 10
-48.5304
 20
6.42659
 11
-49.0723
 21
6.90436
  0
LINE
  8
0
 10
-49.0723
 20
6.90436
 11
-49.5831
 21
7.41521
  0
LINE
  8
0
 10
-49.5831
 20
7.41521
 11
-50.0609
 21
7.95712
  0
LINE
  8
0
 10
-50.0609
 20
7.95712
 11
-50.5037
 21
8.52797
  0
LINE
  8
0
 10
-50.5037
 20
8.52797
 11
-50.9098
 21
9.12549
  0
LINE
  8
0
 10
-50.9098
 20
9.12549
 11
-51.2775
 21
9.74733
  0
LINE
  8
0
 10
-51.2775
 20
9.74733
 11
-51.6055
 21
10.391
  0
LINE
  8
0
 10
-51.6055
 20
10.391
 11
-51.8924
 21
11.0541
  0
LINE
  8
0
 10
-51.8924
 20
11.0541
 11
-52.1371
 21
11.7338
  0
LINE
  8
0
 10
-52.1371
 20
11.7338
 11
-52.3387
 21
12.4276
  0
LINE
  8
0
 10
-52.3387
 20
12.4276
 11
-52.4963
 21
13.1326
  0
LINE
  8
0
 10
-52.4963
 20
13.1326
 11
-52.6093
 21
13.8462
  0
LINE
  8
0
 10
-52.6093
 20
13.8462
 11
-52.6773
 21
14.5654
  0
LINE
  8
0
 10
-52.6773
 20
14.5654
 11
-52.7
 21
15.2875
  0
LINE
  8
0
 10
-52.7
 20
15.2875
 11
-52.6773
 21
16.0096
  0
LINE
  8
0
 10
-52.6773
 20
16.0096
 11
-52.6093
 21
16.7288
  0
LINE
  8
0
 10
-52.6093
 20
16.7288
 11
-52.4963
 21
17.4424
  0
LINE
  8
0
 10
-52.4963
 20
17.4424
 11
-52.3387
 21
18.1474
  0
LINE
  8
0
 10
-52.3387
 20
18.1474
 11
-52.1371
 21
18.8412
  0
LINE
  8
0
 10
-52.1371
 20
18.8412
 11
-51.8924
 21
19.5209
  0
LINE
  8
0
 10
-51.8924
 20
19.5209
 11
-51.6055
 21
20.184
  0
LINE
  8
0
 10
-51.6055
 20
20.184
 11
-51.2775
 21
20.8277
  0
LINE
  8
0
 10
-51.2775
 20
20.8277
 11
-50.9098
 21
21.4495
  0
LINE
  8
0
 10
-50.9098
 20
21.4495
 11
-50.5037
 21
22.047
  0
LINE
  8
0
 10
-50.5037
 20
22.047
 11
-50.0609
 21
22.6179
  0
LINE
  8
0
 10
-50.0609
 20
22.6179
 11
-49.5831
 21
23.1598
  0
LINE
  8
0
 10
-49.5831
 20
23.1598
 11
-49.0723
 21
23.6706
  0
LINE
  8
0
 10
-49.0723
 20
23.6706
 11
-48.5304
 21
24.1484
  0
LINE
  8
0
 10
-48.5304
 20
24.1484
 11
-47.9595
 21
24.5912
  0
LINE
  8
0
 10
-47.9595
 20
24.5912
 11
-47.362
 21
24.9973
  0
LINE
  8
0
 10
-47.362
 20
24.9973
 11
-46.7402
 21
25.365
  0
LINE
  8
0
 10
-46.7402
 20
25.365
 11
-46.0965
 21
25.693
  0
LINE
  8
0
 10
-46.0965
 20
25.693
 11
-45.4334
 21
25.9799
  0
LINE
  8
0
 10
-45.4334
 20
25.9799
 11
-44.7537
 21
26.2246
  0
LINE
  8
0
 10
-44.7537
 20
26.2246
 11
-44.0599
 21
26.4262
  0
LINE
  8
0
 10
-44.0599
 20
26.4262
 11
-43.3549
 21
26.5838
  0
LINE
  8
0
 10
-43.3549
 20
26.5838
 11
-42.6413
 21
26.6968
  0
LINE
  8
0
 10
-42.6413
 20
26.6968
 11
-41.9221
 21
26.7648
  0
LINE
  8
0
 10
-41.9221
 20
26.7648
 11
-41.2
 21
26.7875
  0
LINE
  8
0
 10
-41.2
 20
26.7875
 11
-40.4779
 21
26.7648
  0
LINE
  8
0
 10
-40.4779
 20
26.7648
 11
-39.7587
 21
26.6968
  0
LINE
  8
0
 10
-39.7587
 20
26.6968
 11
-39.0451
 21
26.5838
  0
LINE
  8
0
 10
-39.0451
 20
26.5838
 11
-38.3401
 21
26.4262
  0
LINE
  8
0
 10
-38.3401
 20
26.4262
 11
-37.6463
 21
26.2246
  0
LINE
  8
0
 10
-37.6463
 20
26.2246
 11
-36.9666
 21
25.9799
  0
LINE
  8
0
 10
-36.9666
 20
25.9799
 11
-36.3035
 21
25.693
  0
LINE
  8
0
 10
-36.3035
 20
25.693
 11
-35.6598
 21
25.365
  0
LINE
  8
0
 10
-35.6598
 20
25.365
 11
-35.038
 21
24.9973
  0
LINE
  8
0
 10
-35.038
 20
24.9973
 11
-34.4405
 21
24.5912
  0
LINE
  8
0
 10
-34.4405
 20
24.5912
 11
-33.8696
 21
24.1484
  0
LINE
  8
0
 10
-33.8696
 20
24.1484
 11
-33.3277
 21
23.6706
  0
LINE
  8
0
 10
-33.3277
 20
23.6706
 11
-32.8168
 21
23.1598
  0
LINE
  8
0
 10
-32.8168
 20
23.1598
 11
-32.3391
 21
22.6179
  0
LINE
  8
0
 10
-32.3391
 20
22.6179
 11
-31.8963
 21
22.047
  0
LINE
  8
0
 10
-31.8963
 20
22.047
 11
-31.4902
 21
21.4495
  0
LINE
  8
0
 10
-31.4902
 20
21.4495
 11
-31.1225
 21
20.8277
  0
LINE
  8
0
 10
-31.1225
 20
20.8277
 11
-30.7945
 21
20.184
  0
LINE
  8
0
 10
-30.7945
 20
20.184
 11
-30.5076
 21
19.5209
  0
LINE
  8
0
 10
-30.5076
 20
19.5209
 11
-30.2628
 21
18.8412
  0
LINE
  8
0
 10
-30.2628
 20
18.8412
 11
-30.0613
 21
18.1474
  0
LINE
  8
0
 10
-30.0613
 20
18.1474
 11
-29.9037
 21
17.4424
  0
LINE
  8
0
 10
-29.9037
 20
17.4424
 11
-29.7907
 21
16.7288
  0
LINE
  8
0
 10
-29.7907
 20
16.7288
 11
-29.7227
 21
16.0096
  0
LINE
  8
0
 10
-29.7227
 20
16.0096
 11
-29.7
 21
15.2875
  0
LINE
  8
0
 10
-29.7
 20
15.2875
 11
-29.7227
 21
14.5654
  0
LINE
  8
0
 10
-29.7227
 20
14.5654
 11
-29.7907
 21
13.8462
  0
LINE
  8
0
 10
-29.7907
 20
13.8462
 11
-29.9037
 21
13.1326
  0
LINE
  8
0
 10
-29.9037
 20
13.1326
 11
-30.0613
 21
12.4276
  0
LINE
  8
0
 10
-30.0613
 20
12.4276
 11
-30.2628
 21
11.7338
  0
LINE
  8
0
 10
-30.2628
 20
11.7338
 11
-30.5076
 21
11.0541
  0
LINE
  8
0
 10
-30.5076
 20
11.0541
 11
-30.7945
 21
10.391
  0
LINE
  8
0
 10
-30.7945
 20
10.391
 11
-31.1225
 21
9.74733
  0
LINE
  8
0
 10
-31.1225
 20
9.74733
 11
-31.4902
 21
9.12549
  0
LINE
  8
0
 10
-31.4902
 20
9.12549
 11
-31.8963
 21
8.52797
  0
LINE
  8
0
 10
-31.8963
 20
8.52797
 11
-32.3391
 21
7.95712
  0
LINE
  8
0
 10
-32.3391
 20
7.95712
 11
-32.8168
 21
7.41521
  0
LINE
  8
0
 10
-32.8168
 20
7.41521
 11
-33.3277
 21
6.90436
  0
LINE
  8
0
 10
-33.3277
 20
6.90436
 11
-33.8696
 21
6.42659
  0
LINE
  8
0
 10
-33.8696
 20
6.42659
 11
-34.4405
 21
5.9838
  0
LINE
  8
0
 10
-34.4405
 20
5.9838
 11
-35.038
 21
5.57773
  0
LINE
  8
0
 10
-35.038
 20
5.57773
 11
-35.6598
 21
5.20996
  0
LINE
  8
0
 10
-35.6598
 20
5.20996
 11
-36.3035
 21
4.88199
  0
LINE
  8
0
 10
-36.3035
 20
4.88199
 11
-36.9666
 21
4.59506
  0
LINE
  8
0
 10
-36.9666
 20
4.59506
 11
-37.6463
 21
4.35034
  0
LINE
  8
0
 10
-37.6463
 20
4.35034
 11
-38.3401
 21
4.14879
  0
LINE
  8
0
 10
-38.3401
 20
4.14879
 11
-39.0451
 21
3.9912
  0
LINE
  8
0
 10
-39.0451
 20
3.9912
 11
-39.7587
 21
3.87817
  0
LINE
  8
0
 10
-39.7587
 20
3.87817
 11
-40.4779
 21
3.81018
  0
LINE
  8
0
 10
-40.4779
 20
3.81018
 11
-41.2
 21
3.78749
  0
LINE
  8
0
 10
-41.2
 20
3.78749
 11
-41.9221
 21
3.81018
  0
LINE
  8
0
 10
-20.1285
 20
22.3743
 11
-20.2067
 21
22.3817
  0
LINE
  8
0
 10
-20.2067
 20
22.3817
 11
-20.2842
 21
22.394
  0
LINE
  8
0
 10
-20.2842
 20
22.394
 11
-20.3609
 21
22.4111
  0
LINE
  8
0
 10
-20.3609
 20
22.4111
 11
-20.4363
 21
22.433
  0
LINE
  8
0
 10
-20.4363
 20
22.433
 11
-20.5101
 21
22.4596
  0
LINE
  8
0
 10
-20.5101
 20
22.4596
 11
-20.5822
 21
22.4908
  0
LINE
  8
0
 10
-20.5822
 20
22.4908
 11
-20.6522
 21
22.5265
  0
LINE
  8
0
 10
-20.6522
 20
22.5265
 11
-20.7198
 21
22.5665
  0
LINE
  8
0
 10
-20.7198
 20
22.5665
 11
-20.7847
 21
22.6106
  0
LINE
  8
0
 10
-20.7847
 20
22.6106
 11
-20.8468
 21
22.6587
  0
LINE
  8
0
 10
-20.8468
 20
22.6587
 11
-20.9057
 21
22.7107
  0
LINE
  8
0
 10
-20.9057
 20
22.7107
 11
-20.9612
 21
22.7662
  0
LINE
  8
0
 10
-20.9612
 20
22.7662
 11
-21.0131
 21
22.8251
  0
LINE
  8
0
 10
-21.0131
 20
22.8251
 11
-21.0613
 21
22.8871
  0
LINE
  8
0
 10
-21.0613
 20
22.8871
 11
-21.1054
 21
22.9521
  0
LINE
  8
0
 10
-21.1054
 20
22.9521
 11
-21.1454
 21
23.0197
  0
LINE
  8
0
 10
-21.1454
 20
23.0197
 11
-21.181
 21
23.0896
  0
LINE
  8
0
 10
-21.181
 20
23.0896
 11
-21.2122
 21
23.1617
  0
LINE
  8
0
 10
-21.2122
 20
23.1617
 11
-21.2388
 21
23.2356
  0
LINE
  8
0
 10
-21.2388
 20
23.2356
 11
-21.2607
 21
23.311
  0
LINE
  8
0
 10
-21.2607
 20
23.311
 11
-21.2778
 21
23.3876
  0
LINE
  8
0
 10
-21.2778
 20
23.3876
 11
-21.2901
 21
23.4652
  0
LINE
  8
0
 10
-21.2901
 20
23.4652
 11
-21.2975
 21
23.5434
  0
LINE
  8
0
 10
-21.2975
 20
23.5434
 11
-21.3
 21
23.6219
  0
LINE
  8
0
 10
-21.3
 20
23.6219
 11
-21.2975
 21
23.7003
  0
LINE
  8
0
 10
-21.2975
 20
23.7003
 11
-21.2901
 21
23.7785
  0
LINE
  8
0
 10
-21.2901
 20
23.7785
 11
-21.2778
 21
23.8561
  0
LINE
  8
0
 10
-21.2778
 20
23.8561
 11
-21.2607
 21
23.9327
  0
LINE
  8
0
 10
-21.2607
 20
23.9327
 11
-21.2388
 21
24.0081
  0
LINE
  8
0
 10
-21.2388
 20
24.0081
 11
-21.2122
 21
24.082
  0
LINE
  8
0
 10
-21.2122
 20
24.082
 11
-21.181
 21
24.1541
  0
LINE
  8
0
 10
-21.181
 20
24.1541
 11
-21.1454
 21
24.2241
  0
LINE
  8
0
 10
-21.1454
 20
24.2241
 11
-21.1054
 21
24.2917
  0
LINE
  8
0
 10
-21.1054
 20
24.2917
 11
-21.0613
 21
24.3566
  0
LINE
  8
0
 10
-21.0613
 20
24.3566
 11
-21.0131
 21
24.4186
  0
LINE
  8
0
 10
-21.0131
 20
24.4186
 11
-20.9612
 21
24.4776
  0
LINE
  8
0
 10
-20.9612
 20
24.4776
 11
-20.9057
 21
24.5331
  0
LINE
  8
0
 10
-20.9057
 20
24.5331
 11
-20.8468
 21
24.585
  0
LINE
  8
0
 10
-20.8468
 20
24.585
 11
-20.7847
 21
24.6331
  0
LINE
  8
0
 10
-20.7847
 20
24.6331
 11
-20.7198
 21
24.6773
  0
LINE
  8
0
 10
-20.7198
 20
24.6773
 11
-20.6522
 21
24.7173
  0
LINE
  8
0
 10
-20.6522
 20
24.7173
 11
-20.5822
 21
24.7529
  0
LINE
  8
0
 10
-20.5822
 20
24.7529
 11
-20.5101
 21
24.7841
  0
LINE
  8
0
 10
-20.5101
 20
24.7841
 11
-20.4363
 21
24.8107
  0
LINE
  8
0
 10
-20.4363
 20
24.8107
 11
-20.3609
 21
24.8326
  0
LINE
  8
0
 10
-20.3609
 20
24.8326
 11
-20.2842
 21
24.8497
  0
LINE
  8
0
 10
-20.2842
 20
24.8497
 11
-20.2067
 21
24.862
  0
LINE
  8
0
 10
-20.2067
 20
24.862
 11
-20.1285
 21
24.8694
  0
LINE
  8
0
 10
-20.1285
 20
24.8694
 11
-20.05
 21
24.8719
  0
LINE
  8
0
 10
-20.05
 20
24.8719
 11
-19.9715
 21
24.8694
  0
LINE
  8
0
 10
-19.9715
 20
24.8694
 11
-19.8933
 21
24.862
  0
LINE
  8
0
 10
-19.8933
 20
24.862
 11
-19.8158
 21
24.8497
  0
LINE
  8
0
 10
-19.8158
 20
24.8497
 11
-19.7391
 21
24.8326
  0
LINE
  8
0
 10
-19.7391
 20
24.8326
 11
-19.6637
 21
24.8107
  0
LINE
  8
0
 10
-19.6637
 20
24.8107
 11
-19.5898
 21
24.7841
  0
LINE
  8
0
 10
-19.5898
 20
24.7841
 11
-19.5178
 21
24.7529
  0
LINE
  8
0
 10
-19.5178
 20
24.7529
 11
-19.4478
 21
24.7173
  0
LINE
  8
0
 10
-19.4478
 20
24.7173
 11
-19.3802
 21
24.6773
  0
LINE
  8
0
 10
-19.3802
 20
24.6773
 11
-19.3153
 21
24.6331
  0
LINE
  8
0
 10
-19.3153
 20
24.6331
 11
-19.2532
 21
24.585
  0
LINE
  8
0
 10
-19.2532
 20
24.585
 11
-19.1943
 21
24.5331
  0
LINE
  8
0
 10
-19.1943
 20
24.5331
 11
-19.1388
 21
24.4776
  0
LINE
  8
0
 10
-19.1388
 20
24.4776
 11
-19.0869
 21
24.4186
  0
LINE
  8
0
 10
-19.0869
 20
24.4186
 11
-19.0387
 21
24.3566
  0
LINE
  8
0
 10
-19.0387
 20
24.3566
 11
-18.9946
 21
24.2917
  0
LINE
  8
0
 10
-18.9946
 20
24.2917
 11
-18.9546
 21
24.2241
  0
LINE
  8
0
 10
-18.9546
 20
24.2241
 11
-18.919
 21
24.1541
  0
LINE
  8
0
 10
-18.919
 20
24.1541
 11
-18.8878
 21
24.082
  0
LINE
  8
0
 10
-18.8878
 20
24.082
 11
-18.8612
 21
24.0081
  0
LINE
  8
0
 10
-18.8612
 20
24.0081
 11
-18.8393
 21
23.9327
  0
LINE
  8
0
 10
-18.8393
 20
23.9327
 11
-18.8221
 21
23.8561
  0
LINE
  8
0
 10
-18.8221
 20
23.8561
 11
-18.8098
 21
23.7785
  0
LINE
  8
0
 10
-18.8098
 20
23.7785
 11
-18.8025
 21
23.7003
  0
LINE
  8
0
 10
-18.8025
 20
23.7003
 11
-18.8
 21
23.6219
  0
LINE
  8
0
 10
-18.8
 20
23.6219
 11
-18.8025
 21
23.5434
  0
LINE
  8
0
 10
-18.8025
 20
23.5434
 11
-18.8098
 21
23.4652
  0
LINE
  8
0
 10
-18.8098
 20
23.4652
 11
-18.8221
 21
23.3876
  0
LINE
  8
0
 10
-18.8221
 20
23.3876
 11
-18.8393
 21
23.311
  0
LINE
  8
0
 10
-18.8393
 20
23.311
 11
-18.8612
 21
23.2356
  0
LINE
  8
0
 10
-18.8612
 20
23.2356
 11
-18.8878
 21
23.1617
  0
LINE
  8
0
 10
-18.8878
 20
23.1617
 11
-18.919
 21
23.0896
  0
LINE
  8
0
 10
-18.919
 20
23.0896
 11
-18.9546
 21
23.0197
  0
LINE
  8
0
 10
-18.9546
 20
23.0197
 11
-18.9946
 21
22.9521
  0
LINE
  8
0
 10
-18.9946
 20
22.9521
 11
-19.0387
 21
22.8871
  0
LINE
  8
0
 10
-19.0387
 20
22.8871
 11
-19.0869
 21
22.8251
  0
LINE
  8
0
 10
-19.0869
 20
22.8251
 11
-19.1388
 21
22.7662
  0
LINE
  8
0
 10
-19.1388
 20
22.7662
 11
-19.1943
 21
22.7107
  0
LINE
  8
0
 10
-19.1943
 20
22.7107
 11
-19.2532
 21
22.6587
  0
LINE
  8
0
 10
-19.2532
 20
22.6587
 11
-19.3153
 21
22.6106
  0
LINE
  8
0
 10
-19.3153
 20
22.6106
 11
-19.3802
 21
22.5665
  0
LINE
  8
0
 10
-19.3802
 20
22.5665
 11
-19.4478
 21
22.5265
  0
LINE
  8
0
 10
-19.4478
 20
22.5265
 11
-19.5178
 21
22.4908
  0
LINE
  8
0
 10
-19.5178
 20
22.4908
 11
-19.5898
 21
22.4596
  0
LINE
  8
0
 10
-19.5898
 20
22.4596
 11
-19.6637
 21
22.433
  0
LINE
  8
0
 10
-19.6637
 20
22.433
 11
-19.7391
 21
22.4111
  0
LINE
  8
0
 10
-19.7391
 20
22.4111
 11
-19.8158
 21
22.394
  0
LINE
  8
0
 10
-19.8158
 20
22.394
 11
-19.8933
 21
22.3817
  0
LINE
  8
0
 10
-19.8933
 20
22.3817
 11
-19.9715
 21
22.3743
  0
LINE
  8
0
 10
-19.9715
 20
22.3743
 11
-20.05
 21
22.3719
  0
LINE
  8
0
 10
-20.05
 20
22.3719
 11
-20.1285
 21
22.3743
  0
LINE
  8
0
 10
-17.525
 20
5.90625
 11
-17.525
 21
19.9062
  0
LINE
  8
0
 10
-17.525
 20
19.9062
 11
-3.52499
 21
19.9062
  0
LINE
  8
0
 10
-3.52499
 20
19.9062
 11
-3.52499
 21
5.90625
  0
LINE
  8
0
 10
-3.52499
 20
5.90625
 11
-17.525
 21
5.90625
  0
LINE
  8
0
 10
-20.1285
 20
3.32434
 11
-20.2067
 21
3.33173
  0
LINE
  8
0
 10
-20.2067
 20
3.33173
 11
-20.2842
 21
3.34401
  0
LINE
  8
0
 10
-20.2842
 20
3.34401
 11
-20.3609
 21
3.36115
  0
LINE
  8
0
 10
-20.3609
 20
3.36115
 11
-20.4363
 21
3.38304
  0
LINE
  8
0
 10
-20.4363
 20
3.38304
 11
-20.5101
 21
3.40965
  0
LINE
  8
0
 10
-20.5101
 20
3.40965
 11
-20.5822
 21
3.44083
  0
LINE
  8
0
 10
-20.5822
 20
3.44083
 11
-20.6522
 21
3.47649
  0
LINE
  8
0
 10
-20.6522
 20
3.47649
 11
-20.7198
 21
3.51646
  0
LINE
  8
0
 10
-20.7198
 20
3.51646
 11
-20.7847
 21
3.56059
  0
LINE
  8
0
 10
-20.7847
 20
3.56059
 11
-20.8468
 21
3.60872
  0
LINE
  8
0
 10
-20.8468
 20
3.60872
 11
-20.9057
 21
3.66066
  0
LINE
  8
0
 10
-20.9057
 20
3.66066
 11
-20.9612
 21
3.71619
  0
LINE
  8
0
 10
-20.9612
 20
3.71619
 11
-21.0131
 21
3.77509
  0
LINE
  8
0
 10
-21.0131
 20
3.77509
 11
-21.0613
 21
3.83714
  0
LINE
  8
0
 10
-21.0613
 20
3.83714
 11
-21.1054
 21
3.90208
  0
LINE
  8
0
 10
-21.1054
 20
3.90208
 11
-21.1454
 21
3.96968
  0
LINE
  8
0
 10
-21.1454
 20
3.96968
 11
-21.181
 21
4.03964
  0
LINE
  8
0
 10
-21.181
 20
4.03964
 11
-21.2122
 21
4.11171
  0
LINE
  8
0
 10
-21.2122
 20
4.11171
 11
-21.2388
 21
4.18559
  0
LINE
  8
0
 10
-21.2388
 20
4.18559
 11
-21.2607
 21
4.261
  0
LINE
  8
0
 10
-21.2607
 20
4.261
 11
-21.2778
 21
4.33765
  0
LINE
  8
0
 10
-21.2778
 20
4.33765
 11
-21.2901
 21
4.41521
  0
LINE
  8
0
 10
-21.2901
 20
4.41521
 11
-21.2975
 21
4.49338
  0
LINE
  8
0
 10
-21.2975
 20
4.49338
 11
-21.3
 21
4.57187
  0
LINE
  8
0
 10
-21.3
 20
4.57187
 11
-21.2975
 21
4.65036
  0
LINE
  8
0
 10
-21.2975
 20
4.65036
 11
-21.2901
 21
4.72853
  0
LINE
  8
0
 10
-21.2901
 20
4.72853
 11
-21.2778
 21
4.80609
  0
LINE
  8
0
 10
-21.2778
 20
4.80609
 11
-21.2607
 21
4.88274
  0
LINE
  8
0
 10
-21.2607
 20
4.88274
 11
-21.2388
 21
4.95815
  0
LINE
  8
0
 10
-21.2388
 20
4.95815
 11
-21.2122
 21
5.03203
  0
LINE
  8
0
 10
-21.2122
 20
5.03203
 11
-21.181
 21
5.1041
  0
LINE
  8
0
 10
-21.181
 20
5.1041
 11
-21.1454
 21
5.17406
  0
LINE
  8
0
 10
-21.1454
 20
5.17406
 11
-21.1054
 21
5.24165
  0
LINE
  8
0
 10
-21.1054
 20
5.24165
 11
-21.0613
 21
5.30659
  0
LINE
  8
0
 10
-21.0613
 20
5.30659
 11
-21.0131
 21
5.36865
  0
LINE
  8
0
 10
-21.0131
 20
5.36865
 11
-20.9612
 21
5.42755
  0
LINE
  8
0
 10
-20.9612
 20
5.42755
 11
-20.9057
 21
5.48308
  0
LINE
  8
0
 10
-20.9057
 20
5.48308
 11
-20.8468
 21
5.535
  0
LINE
  8
0
 10
-20.8468
 20
5.535
 11
-20.7847
 21
5.58315
  0
LINE
  8
0
 10
-20.7847
 20
5.58315
 11
-20.7198
 21
5.62727
  0
LINE
  8
0
 10
-20.7198
 20
5.62727
 11
-20.6522
 21
5.66725
  0
LINE
  8
0
 10
-20.6522
 20
5.66725
 11
-20.5822
 21
5.7029
  0
LINE
  8
0
 10
-20.5822
 20
5.7029
 11
-20.5101
 21
5.73409
  0
LINE
  8
0
 10
-20.5101
 20
5.73409
 11
-20.4363
 21
5.76068
  0
LINE
  8
0
 10
-20.4363
 20
5.76068
 11
-20.3609
 21
5.78259
  0
LINE
  8
0
 10
-20.3609
 20
5.78259
 11
-20.2842
 21
5.79973
  0
LINE
  8
0
 10
-20.2842
 20
5.79973
 11
-20.2067
 21
5.81201
  0
LINE
  8
0
 10
-20.2067
 20
5.81201
 11
-20.1285
 21
5.8194
  0
LINE
  8
0
 10
-20.1285
 20
5.8194
 11
-20.05
 21
5.82187
  0
LINE
  8
0
 10
-20.05
 20
5.82187
 11
-19.9715
 21
5.8194
  0
LINE
  8
0
 10
-19.9715
 20
5.8194
 11
-19.8933
 21
5.81201
  0
LINE
  8
0
 10
-19.8933
 20
5.81201
 11
-19.8158
 21
5.79973
  0
LINE
  8
0
 10
-19.8158
 20
5.79973
 11
-19.7391
 21
5.78259
  0
LINE
  8
0
 10
-19.7391
 20
5.78259
 11
-19.6637
 21
5.76068
  0
LINE
  8
0
 10
-19.6637
 20
5.76068
 11
-19.5898
 21
5.73409
  0
LINE
  8
0
 10
-19.5898
 20
5.73409
 11
-19.5178
 21
5.7029
  0
LINE
  8
0
 10
-19.5178
 20
5.7029
 11
-19.4478
 21
5.66725
  0
LINE
  8
0
 10
-19.4478
 20
5.66725
 11
-19.3802
 21
5.62727
  0
LINE
  8
0
 10
-19.3802
 20
5.62727
 11
-19.3153
 21
5.58315
  0
LINE
  8
0
 10
-19.3153
 20
5.58315
 11
-19.2532
 21
5.535
  0
LINE
  8
0
 10
-19.2532
 20
5.535
 11
-19.1943
 21
5.48308
  0
LINE
  8
0
 10
-19.1943
 20
5.48308
 11
-19.1388
 21
5.42755
  0
LINE
  8
0
 10
-19.1388
 20
5.42755
 11
-19.0869
 21
5.36865
  0
LINE
  8
0
 10
-19.0869
 20
5.36865
 11
-19.0387
 21
5.30659
  0
LINE
  8
0
 10
-19.0387
 20
5.30659
 11
-18.9946
 21
5.24165
  0
LINE
  8
0
 10
-18.9946
 20
5.24165
 11
-18.9546
 21
5.17406
  0
LINE
  8
0
 10
-18.9546
 20
5.17406
 11
-18.919
 21
5.1041
  0
LINE
  8
0
 10
-18.919
 20
5.1041
 11
-18.8878
 21
5.03203
  0
LINE
  8
0
 10
-18.8878
 20
5.03203
 11
-18.8612
 21
4.95815
  0
LINE
  8
0
 10
-18.8612
 20
4.95815
 11
-18.8393
 21
4.88274
  0
LINE
  8
0
 10
-18.8393
 20
4.88274
 11
-18.8221
 21
4.80609
  0
LINE
  8
0
 10
-18.8221
 20
4.80609
 11
-18.8098
 21
4.72853
  0
LINE
  8
0
 10
-18.8098
 20
4.72853
 11
-18.8025
 21
4.65036
  0
LINE
  8
0
 10
-18.8025
 20
4.65036
 11
-18.8
 21
4.57187
  0
LINE
  8
0
 10
-18.8
 20
4.57187
 11
-18.8025
 21
4.49338
  0
LINE
  8
0
 10
-18.8025
 20
4.49338
 11
-18.8098
 21
4.41521
  0
LINE
  8
0
 10
-18.8098
 20
4.41521
 11
-18.8221
 21
4.33765
  0
LINE
  8
0
 10
-18.8221
 20
4.33765
 11
-18.8393
 21
4.261
  0
LINE
  8
0
 10
-18.8393
 20
4.261
 11
-18.8612
 21
4.18559
  0
LINE
  8
0
 10
-18.8612
 20
4.18559
 11
-18.8878
 21
4.11171
  0
LINE
  8
0
 10
-18.8878
 20
4.11171
 11
-18.919
 21
4.03964
  0
LINE
  8
0
 10
-18.919
 20
4.03964
 11
-18.9546
 21
3.96968
  0
LINE
  8
0
 10
-18.9546
 20
3.96968
 11
-18.9946
 21
3.90208
  0
LINE
  8
0
 10
-18.9946
 20
3.90208
 11
-19.0387
 21
3.83714
  0
LINE
  8
0
 10
-19.0387
 20
3.83714
 11
-19.0869
 21
3.77509
  0
LINE
  8
0
 10
-19.0869
 20
3.77509
 11
-19.1388
 21
3.71619
  0
LINE
  8
0
 10
-19.1388
 20
3.71619
 11
-19.1943
 21
3.66066
  0
LINE
  8
0
 10
-19.1943
 20
3.66066
 11
-19.2532
 21
3.60872
  0
LINE
  8
0
 10
-19.2532
 20
3.60872
 11
-19.3153
 21
3.56059
  0
LINE
  8
0
 10
-19.3153
 20
3.56059
 11
-19.3802
 21
3.51646
  0
LINE
  8
0
 10
-19.3802
 20
3.51646
 11
-19.4478
 21
3.47649
  0
LINE
  8
0
 10
-19.4478
 20
3.47649
 11
-19.5178
 21
3.44083
  0
LINE
  8
0
 10
-19.5178
 20
3.44083
 11
-19.5898
 21
3.40965
  0
LINE
  8
0
 10
-19.5898
 20
3.40965
 11
-19.6637
 21
3.38304
  0
LINE
  8
0
 10
-19.6637
 20
3.38304
 11
-19.7391
 21
3.36115
  0
LINE
  8
0
 10
-19.7391
 20
3.36115
 11
-19.8158
 21
3.34401
  0
LINE
  8
0
 10
-19.8158
 20
3.34401
 11
-19.8933
 21
3.33173
  0
LINE
  8
0
 10
-19.8933
 20
3.33173
 11
-19.9715
 21
3.32434
  0
LINE
  8
0
 10
-19.9715
 20
3.32434
 11
-20.05
 21
3.32187
  0
LINE
  8
0
 10
-20.05
 20
3.32187
 11
-20.1285
 21
3.32434
  0
LINE
  8
0
 10
-41.2785
 20
0.0399628
 11
-41.3567
 21
0.047348
  0
LINE
  8
0
 10
-41.3567
 20
0.047348
 11
-41.4342
 21
0.0596466
  0
LINE
  8
0
 10
-41.4342
 20
0.0596466
 11
-41.5108
 21
0.076767
  0
LINE
  8
0
 10
-41.5108
 20
0.076767
 11
-41.5863
 21
0.0986786
  0
LINE
  8
0
 10
-41.5863
 20
0.0986786
 11
-41.6601
 21
0.125275
  0
LINE
  8
0
 10
-41.6601
 20
0.125275
 11
-41.7322
 21
0.156464
  0
LINE
  8
0
 10
-41.7322
 20
0.156464
 11
-41.8022
 21
0.192108
  0
LINE
  8
0
 10
-41.8022
 20
0.192108
 11
-41.8698
 21
0.232086
  0
LINE
  8
0
 10
-41.8698
 20
0.232086
 11
-41.9347
 21
0.27623
  0
LINE
  8
0
 10
-41.9347
 20
0.27623
 11
-41.9968
 21
0.324356
  0
LINE
  8
0
 10
-41.9968
 20
0.324356
 11
-42.0557
 21
0.376282
  0
LINE
  8
0
 10
-42.0557
 20
0.376282
 11
-42.1112
 21
0.431808
  0
LINE
  8
0
 10
-42.1112
 20
0.431808
 11
-42.1631
 21
0.490723
  0
LINE
  8
0
 10
-42.1631
 20
0.490723
 11
-42.2113
 21
0.552765
  0
LINE
  8
0
 10
-42.2113
 20
0.552765
 11
-42.2554
 21
0.617722
  0
LINE
  8
0
 10
-42.2554
 20
0.617722
 11
-42.2954
 21
0.685303
  0
LINE
  8
0
 10
-42.2954
 20
0.685303
 11
-42.331
 21
0.75528
  0
LINE
  8
0
 10
-42.331
 20
0.75528
 11
-42.3622
 21
0.827347
  0
LINE
  8
0
 10
-42.3622
 20
0.827347
 11
-42.3888
 21
0.90123
  0
LINE
  8
0
 10
-42.3888
 20
0.90123
 11
-42.4107
 21
0.976639
  0
LINE
  8
0
 10
-42.4107
 20
0.976639
 11
-42.4278
 21
1.05327
  0
LINE
  8
0
 10
-42.4278
 20
1.05327
 11
-42.4401
 21
1.13083
  0
LINE
  8
0
 10
-42.4401
 20
1.13083
 11
-42.4475
 21
1.20901
  0
LINE
  8
0
 10
-42.4475
 20
1.20901
 11
-42.45
 21
1.28749
  0
LINE
  8
0
 10
-42.45
 20
1.28749
 11
-42.4475
 21
1.36598
  0
LINE
  8
0
 10
-42.4475
 20
1.36598
 11
-42.4401
 21
1.44417
  0
LINE
  8
0
 10
-42.4401
 20
1.44417
 11
-42.4278
 21
1.52173
  0
LINE
  8
0
 10
-42.4278
 20
1.52173
 11
-42.4107
 21
1.59836
  0
LINE
  8
0
 10
-42.4107
 20
1.59836
 11
-42.3888
 21
1.67377
  0
LINE
  8
0
 10
-42.3888
 20
1.67377
 11
-42.3622
 21
1.74765
  0
LINE
  8
0
 10
-42.3622
 20
1.74765
 11
-42.331
 21
1.81972
  0
LINE
  8
0
 10
-42.331
 20
1.81972
 11
-42.2954
 21
1.88969
  0
LINE
  8
0
 10
-42.2954
 20
1.88969
 11
-42.2554
 21
1.95728
  0
LINE
  8
0
 10
-42.2554
 20
1.95728
 11
-42.2113
 21
2.02223
  0
LINE
  8
0
 10
-42.2113
 20
2.02223
 11
-42.1631
 21
2.08427
  0
LINE
  8
0
 10
-42.1631
 20
2.08427
 11
-42.1112
 21
2.14319
  0
LINE
  8
0
 10
-42.1112
 20
2.14319
 11
-42.0557
 21
2.19872
  0
LINE
  8
0
 10
-42.0557
 20
2.19872
 11
-41.9968
 21
2.25064
  0
LINE
  8
0
 10
-41.9968
 20
2.25064
 11
-41.9347
 21
2.29877
  0
LINE
  8
0
 10
-41.9347
 20
2.29877
 11
-41.8698
 21
2.34291
  0
LINE
  8
0
 10
-41.8698
 20
2.34291
 11
-41.8022
 21
2.38289
  0
LINE
  8
0
 10
-41.8022
 20
2.38289
 11
-41.7322
 21
2.41853
  0
LINE
  8
0
 10
-41.7322
 20
2.41853
 11
-41.6601
 21
2.44972
  0
LINE
  8
0
 10
-41.6601
 20
2.44972
 11
-41.5863
 21
2.47632
  0
LINE
  8
0
 10
-41.5863
 20
2.47632
 11
-41.5108
 21
2.49823
  0
LINE
  8
0
 10
-41.5108
 20
2.49823
 11
-41.4342
 21
2.51535
  0
LINE
  8
0
 10
-41.4342
 20
2.51535
 11
-41.3567
 21
2.52765
  0
LINE
  8
0
 10
-41.3567
 20
2.52765
 11
-41.2785
 21
2.53503
  0
LINE
  8
0
 10
-41.2785
 20
2.53503
 11
-41.2
 21
2.53749
  0
LINE
  8
0
 10
-41.2
 20
2.53749
 11
-41.1215
 21
2.53503
  0
LINE
  8
0
 10
-41.1215
 20
2.53503
 11
-41.0433
 21
2.52765
  0
LINE
  8
0
 10
-41.0433
 20
2.52765
 11
-40.9658
 21
2.51535
  0
LINE
  8
0
 10
-40.9658
 20
2.51535
 11
-40.8891
 21
2.49823
  0
LINE
  8
0
 10
-40.8891
 20
2.49823
 11
-40.8137
 21
2.47632
  0
LINE
  8
0
 10
-40.8137
 20
2.47632
 11
-40.7399
 21
2.44972
  0
LINE
  8
0
 10
-40.7399
 20
2.44972
 11
-40.6678
 21
2.41853
  0
LINE
  8
0
 10
-40.6678
 20
2.41853
 11
-40.5978
 21
2.38289
  0
LINE
  8
0
 10
-40.5978
 20
2.38289
 11
-40.5302
 21
2.34291
  0
LINE
  8
0
 10
-40.5302
 20
2.34291
 11
-40.4653
 21
2.29877
  0
LINE
  8
0
 10
-40.4653
 20
2.29877
 11
-40.4032
 21
2.25064
  0
LINE
  8
0
 10
-40.4032
 20
2.25064
 11
-40.3443
 21
2.19872
  0
LINE
  8
0
 10
-40.3443
 20
2.19872
 11
-40.2888
 21
2.14319
  0
LINE
  8
0
 10
-40.2888
 20
2.14319
 11
-40.2369
 21
2.08427
  0
LINE
  8
0
 10
-40.2369
 20
2.08427
 11
-40.1887
 21
2.02223
  0
LINE
  8
0
 10
-40.1887
 20
2.02223
 11
-40.1446
 21
1.95728
  0
LINE
  8
0
 10
-40.1446
 20
1.95728
 11
-40.1046
 21
1.88969
  0
LINE
  8
0
 10
-40.1046
 20
1.88969
 11
-40.069
 21
1.81972
  0
LINE
  8
0
 10
-40.069
 20
1.81972
 11
-40.0378
 21
1.74765
  0
LINE
  8
0
 10
-40.0378
 20
1.74765
 11
-40.0112
 21
1.67377
  0
LINE
  8
0
 10
-40.0112
 20
1.67377
 11
-39.9893
 21
1.59836
  0
LINE
  8
0
 10
-39.9893
 20
1.59836
 11
-39.9722
 21
1.52173
  0
LINE
  8
0
 10
-39.9722
 20
1.52173
 11
-39.9599
 21
1.44417
  0
LINE
  8
0
 10
-39.9599
 20
1.44417
 11
-39.9525
 21
1.36598
  0
LINE
  8
0
 10
-39.9525
 20
1.36598
 11
-39.95
 21
1.28749
  0
LINE
  8
0
 10
-39.95
 20
1.28749
 11
-39.9525
 21
1.20901
  0
LINE
  8
0
 10
-39.9525
 20
1.20901
 11
-39.9599
 21
1.13083
  0
LINE
  8
0
 10
-39.9599
 20
1.13083
 11
-39.9722
 21
1.05327
  0
LINE
  8
0
 10
-39.9722
 20
1.05327
 11
-39.9893
 21
0.976639
  0
LINE
  8
0
 10
-39.9893
 20
0.976639
 11
-40.0112
 21
0.90123
  0
LINE
  8
0
 10
-40.0112
 20
0.90123
 11
-40.0378
 21
0.827347
  0
LINE
  8
0
 10
-40.0378
 20
0.827347
 11
-40.069
 21
0.75528
  0
LINE
  8
0
 10
-40.069
 20
0.75528
 11
-40.1046
 21
0.685303
  0
LINE
  8
0
 10
-40.1046
 20
0.685303
 11
-40.1446
 21
0.617722
  0
LINE
  8
0
 10
-40.1446
 20
0.617722
 11
-40.1887
 21
0.552765
  0
LINE
  8
0
 10
-40.1887
 20
0.552765
 11
-40.2369
 21
0.490723
  0
LINE
  8
0
 10
-40.2369
 20
0.490723
 11
-40.2888
 21
0.431808
  0
LINE
  8
0
 10
-40.2888
 20
0.431808
 11
-40.3443
 21
0.376282
  0
LINE
  8
0
 10
-40.3443
 20
0.376282
 11
-40.4032
 21
0.324356
  0
LINE
  8
0
 10
-40.4032
 20
0.324356
 11
-40.4653
 21
0.27623
  0
LINE
  8
0
 10
-40.4653
 20
0.27623
 11
-40.5302
 21
0.232086
  0
LINE
  8
0
 10
-40.5302
 20
0.232086
 11
-40.5978
 21
0.192108
  0
LINE
  8
0
 10
-40.5978
 20
0.192108
 11
-40.6678
 21
0.156464
  0
LINE
  8
0
 10
-40.6678
 20
0.156464
 11
-40.7399
 21
0.125275
  0
LINE
  8
0
 10
-40.7399
 20
0.125275
 11
-40.8137
 21
0.0986786
  0
LINE
  8
0
 10
-40.8137
 20
0.0986786
 11
-40.8891
 21
0.076767
  0
LINE
  8
0
 10
-40.8891
 20
0.076767
 11
-40.9658
 21
0.0596466
  0
LINE
  8
0
 10
-40.9658
 20
0.0596466
 11
-41.0433
 21
0.047348
  0
LINE
  8
0
 10
-41.0433
 20
0.047348
 11
-41.1215
 21
0.0399628
  0
LINE
  8
0
 10
-41.1215
 20
0.0399628
 11
-41.2
 21
0.0374908
  0
LINE
  8
0
 10
-41.2
 20
0.0374908
 11
-41.2785
 21
0.0399628
  0
ENDSEC
  0
SECTION
  2
OBJECTS
  0
DICTIONARY
  0
ENDSEC
  0
EOF
